<svg width="1000" height="1000" viewBox="0 0 1000 1000" fill="none" xmlns="http://www.w3.org/2000/svg">
<path d="M1000 878.784H0V879.455H1000V878.784Z" fill="#EBEBEB"/>
<path d="M899.799 921.972H833.559V922.643H899.799V921.972Z" fill="#EBEBEB"/>
<path d="M590.439 901.224H535.719V901.895H590.439V901.224Z" fill="#EBEBEB"/>
<path d="M831.561 897.063H793.181V897.734H831.561V897.063Z" fill="#EBEBEB"/>
<path d="M139.22 901.573H104.92V902.244H139.22V901.573Z" fill="#EBEBEB"/>
<path d="M221.781 901.573H157.021V902.244H221.781V901.573Z" fill="#EBEBEB"/>
<path d="M450.3 912.9H329.56V913.571H450.3V912.9Z" fill="#EBEBEB"/>
<path d="M473.999 759.072H87.8194C84.7941 759.065 81.8945 757.447 79.7572 754.574C77.6199 751.7 76.4194 747.806 76.4194 743.746V15.1922C76.4458 11.1553 77.6578 7.29541 79.7923 4.45087C81.9268 1.60634 84.8114 0.00691536 87.8194 0H473.999C477.028 0 479.933 1.61474 482.075 4.489C484.216 7.36325 485.419 11.2616 485.419 15.3264V743.746C485.419 747.811 484.216 751.709 482.075 754.583C479.933 757.457 477.028 759.072 473.999 759.072V759.072ZM87.8194 0.536828C84.9267 0.543938 82.1543 2.09111 80.1108 4.83875C78.0672 7.5864 76.9194 11.31 76.9194 15.1922V743.746C76.9194 747.628 78.0672 751.352 80.1108 754.099C82.1543 756.847 84.9267 758.394 87.8194 758.401H473.999C476.894 758.394 479.668 756.848 481.715 754.101C483.762 751.354 484.914 747.63 484.919 743.746V15.1922C484.914 11.3075 483.762 7.58399 481.715 4.83712C479.668 2.09024 476.894 0.543923 473.999 0.536828H87.8194Z" fill="#EBEBEB"/>
<path d="M906.62 759.072H520.42C517.393 759.065 514.491 757.448 512.351 754.575C510.21 751.703 509.005 747.808 509 743.746V15.1922C509.032 11.1529 510.248 7.29299 512.386 4.4492C514.523 1.6054 517.41 0.00683994 520.42 0H906.62C909.625 0.0139695 912.504 1.61652 914.634 4.46029C916.764 7.30407 917.974 11.16 918 15.1922V743.746C918 747.801 916.802 751.691 914.669 754.564C912.536 757.437 909.642 759.058 906.62 759.072V759.072ZM520.42 0.536828C517.525 0.543923 514.751 2.09024 512.704 4.83712C510.657 7.58399 509.505 11.3075 509.5 15.1922V743.746C509.505 747.63 510.657 751.354 512.704 754.101C514.751 756.848 517.525 758.394 520.42 758.401H906.62C909.515 758.394 912.289 756.848 914.336 754.101C916.383 751.354 917.535 747.63 917.54 743.746V15.1922C917.535 11.3075 916.383 7.58399 914.336 4.83712C912.289 2.09024 909.515 0.543923 906.62 0.536828H520.42Z" fill="#EBEBEB"/>
<path d="M884.901 878.784V71.7192L601.061 71.7192V878.784H884.901Z" fill="#FAFAFA"/>
<path d="M601.06 878.784V71.7192H600V878.784H601.06Z" fill="#F0F0F0"/>
<path d="M853.28 98.2129H621.58V878.785H853.28V98.2129Z" fill="#E6E6E6"/>
<path d="M865.699 98.2129H627.379V878.785H865.699V98.2129Z" fill="#F0F0F0"/>
<path d="M848.32 495.007V504.831L855.64 495.007H848.32Z" fill="#E0E0E0"/>
<path d="M848.32 855.486V121.537L644.74 121.537V855.486H848.32Z" fill="#EBEBEB"/>
<path d="M848.341 855.486V121.537H846.141V855.486H848.341Z" fill="#E6E6E6"/>
<path d="M810.48 490.982C809.712 490.92 808.943 491.07 808.22 491.422C807.498 491.774 806.836 492.321 806.276 493.028C805.717 493.736 805.271 494.59 804.966 495.537C804.661 496.484 804.504 497.506 804.504 498.538C804.504 499.569 804.661 500.591 804.966 501.538C805.271 502.485 805.717 503.339 806.276 504.047C806.836 504.754 807.498 505.301 808.22 505.653C808.943 506.005 809.712 506.155 810.48 506.093H846.12L848.32 504.832V490.982H810.48Z" fill="#E0E0E0"/>
<path d="M853.719 496.054H817.999C817.26 496.057 816.527 495.865 815.843 495.487C815.158 495.11 814.536 494.555 814.013 493.854C813.489 493.153 813.073 492.321 812.789 491.404C812.505 490.487 812.359 489.504 812.359 488.511C812.359 486.504 812.954 484.579 814.011 483.159C815.069 481.74 816.504 480.942 817.999 480.942H853.639C854.379 480.942 855.112 481.138 855.795 481.519C856.478 481.9 857.098 482.458 857.62 483.161C858.143 483.864 858.556 484.699 858.837 485.617C859.119 486.535 859.262 487.519 859.259 488.511V488.511C859.26 490.493 858.678 492.396 857.642 493.807C856.605 495.219 855.196 496.026 853.719 496.054V496.054Z" fill="#F5F5F5"/>
<path d="M118.001 375.778H540.281C540.753 375.773 541.206 375.53 541.55 375.098C541.895 374.665 542.106 374.074 542.141 373.443L554.141 61.6006C554.158 61.296 554.127 60.9901 554.051 60.7023C553.974 60.4146 553.854 60.1513 553.698 59.9291C553.542 59.7069 553.353 59.5308 553.144 59.4119C552.934 59.293 552.708 59.234 552.481 59.2385H130.181C129.709 59.2507 129.258 59.5003 128.918 59.9379C128.577 60.3754 128.371 60.9689 128.341 61.6006L116.341 373.443C116.324 373.746 116.355 374.051 116.431 374.337C116.508 374.624 116.628 374.885 116.784 375.106C116.941 375.326 117.13 375.499 117.339 375.615C117.549 375.731 117.774 375.786 118.001 375.778V375.778Z" fill="#E0E0E0"/>
<path d="M120 375.778H542.26C542.728 375.766 543.176 375.521 543.516 375.089C543.857 374.657 544.065 374.07 544.1 373.443L556.1 61.6006C556.116 61.296 556.085 60.9901 556.009 60.7023C555.933 60.4146 555.813 60.1513 555.657 59.9291C555.501 59.7069 555.312 59.5308 555.102 59.4119C554.893 59.293 554.667 59.234 554.44 59.2385H132.14C131.668 59.2507 131.217 59.5003 130.876 59.9379C130.535 60.3754 130.33 60.9689 130.3 61.6006L118.3 373.443C118.282 373.751 118.314 374.06 118.393 374.351C118.471 374.641 118.595 374.905 118.756 375.126C118.917 375.347 119.111 375.52 119.326 375.632C119.54 375.744 119.77 375.794 120 375.778V375.778Z" fill="#F0F0F0"/>
<path d="M132 369.148C131.965 369.827 131.739 370.462 131.367 370.926C130.996 371.389 130.508 371.646 130 371.644C129.76 371.649 129.521 371.586 129.299 371.461C129.078 371.335 128.878 371.149 128.712 370.914C128.547 370.68 128.42 370.402 128.338 370.098C128.257 369.794 128.224 369.47 128.24 369.148C128.276 368.469 128.502 367.834 128.874 367.37C129.245 366.907 129.733 366.65 130.24 366.652C130.481 366.647 130.72 366.71 130.942 366.836C131.163 366.961 131.363 367.147 131.529 367.382C131.694 367.616 131.821 367.895 131.903 368.199C131.984 368.503 132.017 368.826 132 369.148V369.148Z" fill="#E0E0E0"/>
<path d="M140.62 369.148C140.584 369.827 140.358 370.462 139.987 370.926C139.615 371.389 139.127 371.646 138.62 371.644C138.38 371.645 138.143 371.58 137.922 371.453C137.702 371.326 137.503 371.139 137.339 370.906C137.174 370.672 137.046 370.396 136.964 370.093C136.882 369.791 136.846 369.469 136.86 369.148C136.895 368.469 137.122 367.834 137.493 367.37C137.864 366.907 138.353 366.65 138.86 366.652C139.1 366.647 139.339 366.71 139.561 366.836C139.783 366.961 139.982 367.147 140.148 367.382C140.313 367.616 140.441 367.895 140.522 368.199C140.603 368.503 140.636 368.826 140.62 369.148V369.148Z" fill="white"/>
<path d="M534.941 358.573L545.821 76.7388C545.846 76.1879 545.786 75.636 545.645 75.1175C545.504 74.5989 545.285 74.1248 545.002 73.7246C544.719 73.3244 544.377 73.0066 543.999 72.7909C543.62 72.5753 543.212 72.4664 542.801 72.4711H142.801C141.947 72.4889 141.129 72.938 140.51 73.7288C139.891 74.5197 139.516 75.5943 139.461 76.7388L128.581 358.573C128.556 359.122 128.616 359.673 128.757 360.19C128.899 360.707 129.118 361.18 129.401 361.578C129.685 361.976 130.027 362.291 130.405 362.504C130.784 362.717 131.191 362.822 131.601 362.814H531.601C532.452 362.796 533.268 362.351 533.886 361.566C534.505 360.78 534.881 359.712 534.941 358.573Z" fill="#E0E0E0"/>
<path d="M304.301 362.814L344.521 72.4175H246.941L206.721 362.814H304.301Z" fill="#E6E6E6"/>
<path d="M370.18 362.814L410.4 72.4175H361.6L321.38 362.814H370.18Z" fill="#E6E6E6"/>
<path d="M505.02 531.994H415.92V878.784H505.02V531.994Z" fill="#E6E6E6"/>
<path d="M488.101 878.785H505.021V852.642H470.361L488.101 878.785Z" fill="#F0F0F0"/>
<path d="M172 531.994H116.86V878.784H172V531.994Z" fill="#E6E6E6"/>
<path d="M166.46 508.186H107.28V531.994H166.46V508.186Z" fill="#E0E0E0"/>
<path d="M505.04 531.994H157.24V871.913H505.04V531.994Z" fill="#F0F0F0"/>
<path d="M514.6 508.186H151.04V531.994H514.6V508.186Z" fill="#F5F5F5"/>
<path d="M336.82 696.962V800.945C336.82 805.733 339.713 809.615 343.28 809.615H485.44C489.008 809.615 491.9 805.733 491.9 800.945V696.962C491.9 692.174 489.008 688.292 485.44 688.292H343.28C339.713 688.292 336.82 692.174 336.82 696.962Z" fill="#E6E6E6"/>
<path d="M170.38 696.962V800.945C170.38 805.733 173.273 809.615 176.84 809.615H319C322.568 809.615 325.46 805.733 325.46 800.945V696.962C325.46 692.174 322.568 688.292 319 688.292H176.84C173.273 688.292 170.38 692.174 170.38 696.962Z" fill="#E6E6E6"/>
<path d="M492 836.267C492 837.406 491.833 838.533 491.509 839.585C491.184 840.637 490.708 841.593 490.108 842.398C489.508 843.203 488.796 843.841 488.013 844.277C487.229 844.713 486.389 844.937 485.54 844.937H176.82C175.972 844.937 175.132 844.713 174.348 844.277C173.564 843.841 172.852 843.203 172.252 842.398C171.653 841.593 171.177 840.637 170.852 839.585C170.527 838.533 170.36 837.406 170.36 836.267V836.267C170.36 833.968 171.041 831.763 172.252 830.137C173.464 828.511 175.107 827.597 176.82 827.597H485.44C486.297 827.58 487.148 827.791 487.943 828.219C488.739 828.646 489.463 829.282 490.073 830.089C490.684 830.896 491.168 831.858 491.499 832.918C491.83 833.979 492 835.117 492 836.267V836.267Z" fill="#E6E6E6"/>
<path d="M263.241 702.222H232.561C219.837 702.497 207.421 696.971 197.341 686.547H298.481C288.395 696.975 275.971 702.501 263.241 702.222V702.222Z" fill="#F0F0F0"/>
<path d="M431.259 702.222H400.579C387.85 702.493 375.428 696.967 365.339 686.547H466.499C456.413 696.975 443.989 702.501 431.259 702.222V702.222Z" fill="#F0F0F0"/>
<path d="M336.801 559.319V663.302C336.801 668.09 339.693 671.972 343.261 671.972H485.421C488.989 671.972 491.881 668.09 491.881 663.302V559.319C491.881 554.531 488.989 550.649 485.421 550.649H343.261C339.693 550.649 336.801 554.531 336.801 559.319Z" fill="#E6E6E6"/>
<path d="M170.36 559.346V663.329C170.36 668.117 173.253 671.999 176.82 671.999H318.98C322.548 671.999 325.44 668.117 325.44 663.329V559.346C325.44 554.557 322.548 550.676 318.98 550.676H176.82C173.253 550.676 170.36 554.557 170.36 559.346Z" fill="#E6E6E6"/>
<path d="M263.241 564.608H232.561C219.835 564.873 207.419 559.337 197.341 548.906H298.481C288.397 559.341 275.973 564.877 263.241 564.608V564.608Z" fill="#F0F0F0"/>
<path d="M431.259 564.608H400.579C387.848 564.868 375.426 559.333 365.339 548.906H466.499C456.415 559.341 443.991 564.877 431.259 564.608V564.608Z" fill="#F0F0F0"/>
<path d="M174.16 878.785H157.24V852.642H191.9L174.16 878.785Z" fill="#F0F0F0"/>
<path d="M191.221 449.135C191.221 469.105 211.841 485.291 237.221 485.291C262.601 485.291 283.221 469.186 283.221 449.135H191.221Z" fill="#F0F0F0"/>
<path d="M191.221 472.058C191.221 492.001 211.841 508.186 237.221 508.186C262.601 508.186 283.221 492.081 283.221 472.058H191.221Z" fill="#E0E0E0"/>
<path d="M499.999 1000C714.164 1000 887.779 986.396 887.779 969.616C887.779 952.835 714.164 939.231 499.999 939.231C285.834 939.231 112.219 952.835 112.219 969.616C112.219 986.396 285.834 1000 499.999 1000Z" fill="#F5F5F5"/>
<path d="M565.32 960.059H524.22L486.86 802.286C483.382 787.451 476.458 774.499 467.102 765.323C457.746 756.147 446.448 751.229 434.86 751.287H406C394.411 751.224 383.112 756.141 373.755 765.318C364.399 774.494 357.476 787.449 354 802.286L316.62 960.059H275.62L313.62 799.279C317.562 782.437 325.415 767.728 336.03 757.302C346.645 746.876 359.466 741.279 372.62 741.329H468.18C481.335 741.286 494.157 746.885 504.774 757.31C515.391 767.735 523.248 782.439 527.2 799.279L565.32 960.059Z" fill="#794B93"/>
<path opacity="0.4" d="M565.32 960.059H524.22L486.86 802.286C483.382 787.451 476.458 774.499 467.102 765.323C457.746 756.147 446.448 751.229 434.86 751.287H406C394.411 751.224 383.112 756.141 373.755 765.318C364.399 774.494 357.476 787.449 354 802.286L316.62 960.059H275.62L313.62 799.279C317.562 782.437 325.415 767.728 336.03 757.302C346.645 746.876 359.466 741.279 372.62 741.329H468.18C481.335 741.286 494.157 746.885 504.774 757.31C515.391 767.735 523.248 782.439 527.2 799.279L565.32 960.059Z" fill="black"/>
<path d="M565.321 960.058H557.561L520.201 802.285C516.722 787.45 509.799 774.498 500.443 765.322C491.087 756.146 479.789 751.228 468.201 751.286H406.001C394.412 751.224 383.113 756.14 373.756 765.317C364.399 774.493 357.477 787.448 354.001 802.285L316.621 960.058H308.881L346.881 799.278C350.829 782.41 358.7 767.682 369.339 757.253C379.978 746.825 392.826 741.244 406.001 741.328H468.221C481.376 741.285 494.197 746.884 504.815 757.309C515.432 767.734 523.289 782.439 527.241 799.278L565.321 960.058Z" fill="#794B93"/>
<path d="M749.52 526.082C748.406 523.745 746.871 521.821 745.057 520.489C743.243 519.157 741.208 518.459 739.14 518.459H573.26C570.905 518.46 568.598 519.364 566.614 521.067C564.629 522.77 563.049 525.199 562.06 528.069L465.58 808.829H288C286.38 808.829 284.775 809.257 283.278 810.089C281.781 810.922 280.42 812.142 279.274 813.679C278.129 815.217 277.22 817.043 276.599 819.052C275.979 821.061 275.66 823.215 275.66 825.39C275.66 827.565 275.979 829.718 276.599 831.727C277.22 833.737 278.129 835.562 279.274 837.1C280.42 838.638 281.781 839.858 283.278 840.69C284.775 841.523 286.38 841.951 288 841.951H639.4C641.755 841.948 644.06 841.041 646.045 839.339C648.029 837.637 649.609 835.209 650.6 832.342L750.34 542.187C751.24 539.632 751.638 536.811 751.494 533.991C751.351 531.172 750.671 528.449 749.52 526.082Z" fill="#794B93"/>
<path opacity="0.5" d="M749.52 526.082C748.406 523.745 746.871 521.821 745.057 520.489C743.243 519.157 741.208 518.459 739.14 518.459H573.26C570.905 518.46 568.598 519.364 566.614 521.067C564.629 522.77 563.049 525.199 562.06 528.069L465.58 808.829H288C286.38 808.829 284.775 809.257 283.278 810.089C281.781 810.922 280.42 812.142 279.274 813.679C278.129 815.217 277.22 817.043 276.599 819.052C275.979 821.061 275.66 823.215 275.66 825.39C275.66 827.565 275.979 829.718 276.599 831.727C277.22 833.737 278.129 835.562 279.274 837.1C280.42 838.638 281.781 839.858 283.278 840.69C284.775 841.523 286.38 841.951 288 841.951H639.4C641.755 841.948 644.06 841.041 646.045 839.339C648.029 837.637 649.609 835.209 650.6 832.342L750.34 542.187C751.24 539.632 751.638 536.811 751.494 533.991C751.351 531.172 750.671 528.449 749.52 526.082Z" fill="white"/>
<path opacity="0.5" d="M639.361 841.95H453.821C450.549 841.95 447.41 840.205 445.096 837.1C442.782 833.994 441.481 829.781 441.481 825.389C441.481 820.997 442.782 816.784 445.096 813.679C447.41 810.573 450.549 808.828 453.821 808.828H631.461L728.001 528.175C729.426 524.306 731.92 521.335 734.953 519.897C737.985 518.459 741.316 518.666 744.236 520.475C747.156 522.284 749.435 525.552 750.586 529.582C751.738 533.612 751.672 538.087 750.401 542.052L650.561 832.341C649.571 835.208 647.99 837.636 646.006 839.338C644.022 841.041 641.716 841.947 639.361 841.95Z" fill="#794B93"/>
<path d="M574.379 562.747L571.799 564.062L569.419 565.19C567.839 565.941 566.239 566.559 564.659 567.23C561.479 568.518 558.279 569.645 555.019 570.639C548.369 572.747 541.598 574.103 534.779 574.692C527.282 575.455 519.741 574.676 512.419 572.383L510.939 571.9L510.199 571.632L509.819 571.498C509.634 571.45 509.453 571.378 509.279 571.283C507.087 570.368 505.02 568.981 503.159 567.176C499.507 563.595 496.828 558.508 495.531 552.692C494.235 546.877 494.392 540.651 495.979 534.966C496.09 534.546 496.216 534.134 496.359 533.732L496.639 532.953L497.199 531.37L498.299 528.229C501.216 520.258 504.558 512.579 508.299 505.253C511.899 498.033 515.819 491.269 519.819 484.693C523.819 478.117 528.019 471.836 532.379 465.77C536.739 459.703 541.139 453.906 546.019 448.242L556.879 461.287C550.439 474.708 543.839 488.128 537.919 501.817C536.399 505.199 534.979 508.608 533.519 512.017C532.059 515.426 530.719 518.835 529.519 522.271C526.927 528.871 524.616 535.664 522.599 542.616L521.919 545.112L521.579 546.347L521.419 546.965C521.419 547.126 521.239 547.555 521.419 547.179C521.953 545.434 522.052 543.503 521.699 541.677C521.319 539.733 520.468 538.014 519.279 536.792C518.673 536.171 517.998 535.681 517.279 535.342C517.139 535.342 517.279 535.342 517.279 535.342H517.459H517.839L518.579 535.503C523.227 536.306 527.932 536.306 532.579 535.503C537.888 534.689 543.152 533.416 548.339 531.692C551.019 530.887 553.679 529.84 556.339 529.008L560.339 527.397L562.339 526.592L564.059 525.814L574.379 562.747Z" fill="#FF8B7B"/>
<path d="M601.42 537.84C594.9 521.198 574.42 512.931 536.16 528.418L536.72 584.785C536.72 584.785 618.34 581 601.42 537.84Z" fill="#794B93"/>
<path opacity="0.2" d="M578.741 546.59C567.361 542.885 552.741 552.87 538.641 584.731C546.201 584.14 574.281 581.349 590.981 570.022C591.701 558.775 588.641 549.81 578.741 546.59Z" fill="black"/>
<path d="M344.882 956.327L324.562 945.725L335.902 877.897L356.222 888.472L344.882 956.327Z" fill="#FF8B7B"/>
<path d="M328 933.54L347.86 934.023C348.287 934.051 348.693 934.283 349.005 934.676C349.316 935.07 349.513 935.599 349.56 936.17L352.74 963.87C352.817 964.514 352.791 965.172 352.666 965.801C352.54 966.431 352.318 967.017 352.012 967.524C351.706 968.03 351.325 968.445 350.892 968.74C350.459 969.035 349.985 969.205 349.5 969.239C341.34 968.863 337.6 968.031 327.32 967.816C320.98 967.816 301.88 968.326 293.14 968.138C284.4 967.95 283.7 955.066 287.32 953.966C303.52 949.054 319.2 942.048 324.56 935.177C325.511 934.067 326.74 933.481 328 933.54Z" fill="#263238"/>
<path opacity="0.2" d="M356.221 888.499L335.901 877.897L330.061 912.871L351.001 919.796L356.221 888.499Z" fill="black"/>
<path d="M504.42 719.882C504.42 719.882 459.44 719.56 393.46 737.463C347.74 749.863 325.46 893.867 325.46 893.867L358.12 909.516C358.12 909.516 380.12 811.652 401.12 790.34C510.68 789.615 565.4 833.286 578.98 736.845C560.92 727.048 504.42 719.882 504.42 719.882Z" fill="black"/>
<path d="M318.76 902.109L362.72 914.429L366.22 894.969L320.38 880.851L318.76 902.109Z" fill="#794B93"/>
<path d="M543.579 451.141L553.859 435.976L571.859 452.08C571.859 452.08 560.759 470.869 547.979 465.018L543.579 451.141Z" fill="#FF8B7B"/>
<path d="M573.479 424.568L579.459 440.002L571.899 451.973L553.859 435.976L573.479 424.568Z" fill="#FF8B7B"/>
<path d="M574.44 479.057L556.26 459.382C556.074 459.184 555.92 458.935 555.81 458.652C555.699 458.369 555.635 458.058 555.62 457.739C555.605 457.42 555.64 457.1 555.722 456.801C555.805 456.501 555.934 456.229 556.1 456L587.52 411.766C587.868 411.264 588.345 410.959 588.854 410.914C589.364 410.869 589.867 411.087 590.26 411.524L608.44 431.199C608.629 431.395 608.785 431.642 608.897 431.926C609.01 432.209 609.075 432.521 609.091 432.841C609.106 433.161 609.07 433.482 608.985 433.782C608.901 434.082 608.769 434.354 608.6 434.581L577.18 478.815C576.833 479.317 576.355 479.622 575.846 479.667C575.336 479.712 574.833 479.493 574.44 479.057Z" fill="#263238"/>
<path d="M609.661 743.819C609.661 743.819 642.861 678.219 659.001 572.491C659.875 566.623 659.796 560.571 658.767 554.748C657.739 548.926 655.786 543.47 653.042 538.753C650.299 534.036 646.829 530.169 642.869 527.417C638.91 524.666 634.555 523.093 630.101 522.808C614.101 521.68 597.221 521.385 583.501 521.466C576.801 521.497 570.291 524.448 564.949 529.875C559.607 535.301 555.723 542.91 553.881 551.555C541.469 609.667 524.905 666.036 504.421 719.877L609.661 743.819Z" fill="#794B93"/>
<path d="M596.44 570.887C596.208 570.343 595.887 569.876 595.5 569.523C595.114 569.17 594.673 568.939 594.211 568.848C593.748 568.758 593.276 568.81 592.831 569C592.386 569.191 591.978 569.515 591.64 569.948L574.2 588.925L568.62 569.035C568.472 568.445 568.225 567.909 567.896 567.468C567.568 567.028 567.168 566.696 566.728 566.499C566.288 566.301 565.82 566.243 565.361 566.329C564.901 566.415 564.463 566.643 564.08 566.995C563.186 567.729 562.502 568.846 562.139 570.166C561.776 571.486 561.755 572.932 562.08 574.269L568.08 595.742L549.72 615.739C548.911 616.614 548.348 617.831 548.123 619.192C547.897 620.553 548.023 621.976 548.48 623.228C548.711 623.806 549.046 624.298 549.455 624.659C549.863 625.02 550.333 625.239 550.82 625.295C551.71 625.342 552.58 624.939 553.26 624.167L570.7 605.191L576.28 625.214C576.47 625.954 576.818 626.602 577.28 627.08C577.742 627.557 578.299 627.841 578.88 627.898C579.583 627.967 580.284 627.732 580.88 627.227C581.772 626.49 582.454 625.373 582.816 624.054C583.179 622.735 583.201 621.291 582.88 619.953L576.88 598.48L595.24 578.483C596.061 577.596 596.628 576.356 596.847 574.972C597.066 573.588 596.922 572.145 596.44 570.887V570.887Z" fill="white"/>
<path opacity="0.2" d="M659.46 559.93C648.3 539.02 638.3 536.068 635.46 537.249C609.6 548.173 637.34 643.728 641.64 654.411C648.904 627.715 654.687 600.333 658.94 572.491C659.588 568.364 659.764 564.128 659.46 559.93V559.93Z" fill="black"/>
<path d="M576 532.631C575.333 532.631 574.679 532.39 574.107 531.932C573.534 531.474 573.064 530.818 572.747 530.031C572.429 529.245 572.276 528.358 572.303 527.465C572.33 526.571 572.536 525.704 572.9 524.954C573.38 523.961 585.02 500.422 602.6 504.555C603.079 504.668 603.537 504.906 603.948 505.257C604.359 505.607 604.714 506.063 604.993 506.597C605.273 507.132 605.471 507.735 605.577 508.373C605.683 509.01 605.694 509.669 605.61 510.313C605.526 510.956 605.348 511.571 605.087 512.122C604.826 512.673 604.487 513.15 604.088 513.525C603.69 513.9 603.24 514.166 602.765 514.308C602.29 514.45 601.799 514.465 601.32 514.352C588.62 511.346 579.18 530.215 579.1 530.457C578.756 531.133 578.293 531.684 577.752 532.063C577.212 532.443 576.61 532.638 576 532.631V532.631Z" fill="#263238"/>
<path d="M630.402 455.49C625.202 474.467 618.541 508.824 626.601 522.594C616.658 534.165 603.741 540.068 590.601 539.047C574.001 538.296 577.381 529.385 582.801 521.493C598.961 517.816 600.621 499.591 599.861 484.399L630.402 455.49Z" fill="#FF8B7B"/>
<path d="M557.6 527.908C557.6 537.141 562.46 544.603 568.46 544.603C574.46 544.603 579.3 537.141 579.3 527.908C579.3 518.674 574.44 511.213 568.46 511.213C562.48 511.213 557.6 518.701 557.6 527.908Z" fill="#263238"/>
<path opacity="0.4" d="M557.6 527.908C557.6 537.141 562.46 544.603 568.46 544.603C574.46 544.603 579.3 537.141 579.3 527.908C579.3 518.674 574.44 511.213 568.46 511.213C562.48 511.213 557.6 518.701 557.6 527.908Z" fill="#794B93"/>
<path d="M558.899 527.907C558.895 531.679 559.725 535.367 561.284 538.505C562.843 541.643 565.061 544.09 567.656 545.536C570.252 546.982 573.108 547.361 575.865 546.627C578.621 545.892 581.153 544.077 583.14 541.41C585.127 538.743 586.48 535.345 587.028 531.646C587.575 527.946 587.292 524.112 586.215 520.629C585.137 517.146 583.314 514.17 580.976 512.078C578.638 509.986 575.89 508.872 573.079 508.877C569.32 508.884 565.717 510.891 563.058 514.459C560.4 518.026 558.905 522.862 558.899 527.907V527.907Z" fill="#263238"/>
<path opacity="0.2" d="M617.999 467.273L599.999 484.345C600.239 487.916 600.239 491.509 599.999 495.081C605.999 494.437 615.359 486.197 617.099 477.688C617.853 474.315 618.158 470.789 617.999 467.273Z" fill="black"/>
<path d="M636.179 429.105C631.539 454.256 629.779 469.367 618.359 480.56C614.75 484.326 610.438 486.687 605.896 487.387C601.353 488.086 596.755 487.096 592.604 484.525C588.452 481.954 584.908 477.901 582.357 472.809C579.806 467.716 578.347 461.781 578.139 455.651C577.179 432.138 584.919 394.91 604.979 388.119C624.739 381.435 640.819 403.928 636.179 429.105Z" fill="#FF8B7B"/>
<path d="M627.579 409.886C620.639 399.66 587.579 416.14 583.839 393.513C580.099 370.886 598.959 365.652 606.359 376.281C610.559 382.32 621.099 370.403 625.779 379.582C633.599 394.909 644.979 386.615 648.259 401.055C650.979 413 636.759 423.361 627.579 409.886Z" fill="#263238"/>
<path d="M641.779 412.597C641.779 412.597 648.499 406.531 654.559 419.979C650.656 416.529 646.33 414.03 641.779 412.597V412.597Z" fill="#263238"/>
<path d="M642.539 409.108L634.319 404.572C622.799 410.209 623.099 421.241 623.099 431.601C623.123 439.216 620.91 446.535 616.939 451.974L627.639 456.564C627.639 456.564 665.559 435.064 642.539 409.108Z" fill="#263238"/>
<path d="M639.26 460.134C635.706 463.658 631.289 465.241 626.9 464.563C621.14 463.597 620.72 456.188 624.4 450.632C627.68 445.64 634.66 440.11 639.44 443.895C644.22 447.68 643.6 455.786 639.26 460.134Z" fill="#FF8B7B"/>
<path d="M604.28 429.936C604 432.003 602.94 433.533 601.92 433.372C600.9 433.211 600.32 431.359 600.6 429.292C600.88 427.225 601.94 425.695 602.94 425.883C603.94 426.071 604.56 427.87 604.28 429.936Z" fill="#263238"/>
<path d="M585.66 427.225C585.38 429.292 584.32 430.822 583.3 430.634C582.28 430.446 581.7 428.648 581.98 426.581C582.26 424.514 583.321 422.984 584.341 423.172C585.361 423.36 586 425.159 585.66 427.225Z" fill="#263238"/>
<path d="M592.2 429.454C592.2 429.454 587.04 440.754 582.36 445.827C584.64 449.719 589.52 448.994 589.52 448.994L592.2 429.454Z" fill="#FF5652"/>
<path d="M596.12 459.381C599.736 459.407 603.216 457.539 605.82 454.174C605.86 454.116 605.89 454.048 605.91 453.974C605.93 453.9 605.939 453.821 605.936 453.743C605.933 453.664 605.919 453.587 605.894 453.516C605.869 453.445 605.834 453.381 605.79 453.329C605.747 453.276 605.696 453.235 605.641 453.208C605.586 453.182 605.528 453.17 605.469 453.174C605.411 453.177 605.353 453.196 605.3 453.23C605.247 453.263 605.2 453.311 605.16 453.369C603.714 455.186 601.981 456.544 600.091 457.343C598.201 458.142 596.202 458.362 594.24 457.985C594.117 457.969 593.993 458.015 593.893 458.114C593.793 458.213 593.725 458.359 593.7 458.522C593.689 458.6 593.69 458.681 593.703 458.758C593.717 458.836 593.742 458.909 593.778 458.972C593.814 459.036 593.859 459.088 593.912 459.126C593.964 459.164 594.021 459.187 594.08 459.193C594.756 459.319 595.438 459.382 596.12 459.381Z" fill="#263238"/>
<path d="M612.001 424.086C612.161 424.08 612.318 424.025 612.461 423.925C612.675 423.771 612.836 423.511 612.91 423.201C612.985 422.891 612.967 422.554 612.861 422.261C612.218 420.536 611.265 419.054 610.089 417.948C608.912 416.842 607.548 416.147 606.121 415.926C605.872 415.904 605.627 416.011 605.437 416.227C605.247 416.442 605.126 416.748 605.101 417.08C605.087 417.238 605.097 417.399 605.132 417.551C605.166 417.703 605.224 417.844 605.301 417.965C605.378 418.086 605.473 418.184 605.579 418.254C605.686 418.323 605.802 418.363 605.921 418.369C607.046 418.566 608.118 419.135 609.04 420.025C609.961 420.915 610.704 422.099 611.201 423.469C611.282 423.657 611.398 423.813 611.539 423.922C611.679 424.03 611.839 424.087 612.001 424.086V424.086Z" fill="#263238"/>
<path d="M582.559 418.181C582.71 418.213 582.864 418.198 583.009 418.137C583.155 418.077 583.288 417.972 583.399 417.832C584.215 416.688 585.218 415.813 586.328 415.277C587.439 414.742 588.627 414.56 589.799 414.745C590.042 414.795 590.29 414.72 590.493 414.536C590.697 414.352 590.842 414.073 590.899 413.752C590.929 413.6 590.935 413.442 590.917 413.287C590.9 413.132 590.859 412.984 590.797 412.85C590.735 412.717 590.654 412.602 590.558 412.513C590.462 412.423 590.354 412.361 590.239 412.33C588.763 412.083 587.265 412.296 585.86 412.952C584.455 413.609 583.182 414.691 582.139 416.114C582.052 416.225 581.983 416.358 581.935 416.505C581.888 416.653 581.863 416.812 581.863 416.973C581.863 417.134 581.888 417.293 581.935 417.441C581.983 417.589 582.052 417.722 582.139 417.832C582.249 418.004 582.396 418.125 582.559 418.181Z" fill="#263238"/>
<path d="M263.32 961.937L251.86 937.055L291.38 892.069L302.82 916.951L263.32 961.937Z" fill="#FF8B7B"/>
<path d="M258.58 928.44L276.94 947.228C277.242 947.594 277.437 948.093 277.488 948.635C277.539 949.177 277.444 949.725 277.22 950.181L266.98 974.472C266.775 975.048 266.482 975.561 266.121 975.976C265.76 976.392 265.338 976.702 264.882 976.886C264.427 977.071 263.948 977.126 263.475 977.047C263.003 976.969 262.548 976.759 262.14 976.432C256.34 970.205 252.36 965.212 244.92 957.643C240.36 952.946 226.08 939.498 219.76 932.976C213.44 926.453 218.78 915.744 221.92 917.488C236.02 925.406 248.22 928.869 255.22 927.393C255.804 927.248 256.403 927.266 256.981 927.447C257.559 927.627 258.104 927.965 258.58 928.44V928.44Z" fill="#263238"/>
<path opacity="0.2" d="M302.821 916.978L291.361 892.096L271.001 915.287L284.601 937.726L302.821 916.978Z" fill="black"/>
<path d="M532.641 726.298C532.641 726.298 464.641 742.402 400.641 770.156C356.261 789.402 279.001 899.505 279.001 899.505L298.001 938.398C298.001 938.398 393.581 845.902 412.721 821.504C521.521 804.164 604.321 841.769 609.681 743.825C590.841 736.819 532.641 726.298 532.641 726.298Z" fill="#263238"/>
<path d="M269.86 900.631L299.4 945.993L310.94 933.297L280.68 884.956L269.86 900.631Z" fill="#794B93"/>
<path d="M660.699 559.875C664.083 579.49 666.713 599.325 668.579 619.302C669.499 629.368 670.239 639.541 670.579 650.089C670.719 655.457 670.759 660.826 670.579 666.436C670.459 669.308 670.279 672.233 669.919 675.401C669.551 679.047 668.935 682.641 668.079 686.137C667.44 688.606 666.602 690.973 665.579 693.196C664.748 694.921 663.826 696.562 662.819 698.108C661.015 700.849 659.004 703.332 656.819 705.516C653.136 709.161 649.166 712.248 644.979 714.723C637.58 718.998 629.882 722.271 621.999 724.493C607.122 728.79 591.956 731.029 576.739 731.177L575.179 711.744C588.914 707.34 602.467 701.964 615.779 695.639C621.993 692.744 628.014 689.153 633.779 684.902C636.171 683.095 638.405 680.935 640.439 678.46C641.182 677.605 641.853 676.642 642.439 675.588C642.606 675.256 642.753 674.906 642.879 674.542C642.619 675.025 642.579 675.159 642.599 674.917C642.754 673.673 642.861 672.419 642.919 671.16C642.919 669.442 643.019 667.482 642.919 665.442C642.919 661.363 642.699 656.934 642.379 652.424C641.739 643.433 640.779 634.119 639.679 624.778C637.459 606.123 634.759 587.012 631.979 568.411L660.699 559.875Z" fill="#FF8B7B"/>
<path d="M637.421 524.499C641.421 525.922 659.561 529.599 672.461 589.106L628.861 611.921C628.861 611.921 598.681 510.596 637.421 524.499Z" fill="#794B93"/>
<path d="M622.461 537.033C622.464 540.803 621.635 544.49 620.077 547.628C618.519 550.765 616.303 553.212 613.708 554.659C611.114 556.105 608.258 556.486 605.503 555.754C602.747 555.022 600.215 553.209 598.227 550.545C596.239 547.881 594.884 544.485 594.335 540.788C593.785 537.09 594.065 533.257 595.14 529.773C596.214 526.289 598.034 523.311 600.369 521.216C602.705 519.121 605.451 518.002 608.261 518.002C610.124 517.999 611.97 518.489 613.693 519.443C615.416 520.398 616.981 521.799 618.3 523.567C619.619 525.334 620.665 527.433 621.379 529.744C622.093 532.055 622.461 534.532 622.461 537.033Z" fill="#263238"/>
<path d="M607.519 547.341C606.644 547.341 605.796 546.924 605.128 546.164C604.459 545.404 604.014 544.351 603.87 543.192C603.726 542.032 603.893 540.842 604.341 539.832C604.79 538.823 605.491 538.059 606.319 537.678C606.559 537.678 622.439 530.028 623.419 512.769C623.494 511.456 623.954 510.236 624.698 509.378C625.443 508.519 626.411 508.093 627.389 508.193C628.368 508.293 629.277 508.91 629.917 509.909C630.556 510.908 630.874 512.208 630.799 513.521C629.439 537.383 609.559 546.697 608.799 547.099C608.385 547.269 607.953 547.35 607.519 547.341Z" fill="#263238"/>
<path d="M623.761 537.033C623.761 546.24 618.901 553.729 612.901 553.729C606.901 553.729 602.061 546.24 602.061 537.033C602.061 527.827 606.901 520.338 612.901 520.338C618.901 520.338 623.761 527.8 623.761 537.033Z" fill="#263238"/>
<path opacity="0.4" d="M623.761 537.033C623.761 546.24 618.901 553.729 612.901 553.729C606.901 553.729 602.061 546.24 602.061 537.033C602.061 527.827 606.901 520.338 612.901 520.338C618.901 520.338 623.761 527.8 623.761 537.033Z" fill="#794B93"/>
<path d="M578.001 710.864L561.081 714.111L569.081 741.597C569.081 741.597 587.561 735.262 587.481 722.808L583.481 714.192C582.896 712.997 582.071 712.05 581.101 711.461C580.131 710.872 579.056 710.665 578.001 710.864V710.864Z" fill="#FF8B7B"/>
<path d="M543.12 727.881L553.7 750.24L569.12 741.597L561.08 714.111L543.12 727.881Z" fill="#FF8B7B"/>
<path d="M380.641 734.78H592.961C594.25 734.794 595.484 735.49 596.393 736.715C597.303 737.941 597.816 739.599 597.821 741.329H375.821C375.826 739.608 376.334 737.959 377.235 736.734C378.136 735.51 379.359 734.808 380.641 734.78V734.78Z" fill="#794B93"/>
<path opacity="0.2" d="M380.641 734.78H592.961C594.25 734.794 595.484 735.49 596.393 736.715C597.303 737.941 597.816 739.599 597.821 741.329H375.821C375.826 739.608 376.334 737.959 377.235 736.734C378.136 735.51 379.359 734.808 380.641 734.78V734.78Z" fill="white"/>
<path opacity="0.4" d="M531 734.78H593C594.289 734.794 595.522 735.49 596.432 736.715C597.342 737.941 597.855 739.599 597.86 741.329H526.12C526.125 739.595 526.641 737.933 527.555 736.706C528.469 735.479 529.707 734.787 531 734.78Z" fill="black"/>
<path d="M355.04 589.111H503.66C506.113 589.271 508.463 590.48 510.367 592.561C512.271 594.643 513.628 597.488 514.24 600.68L534.92 723.21C535.227 724.581 535.285 726.031 535.09 727.438C534.895 728.846 534.452 730.17 533.799 731.302C533.145 732.433 532.3 733.339 531.333 733.944C530.366 734.549 529.306 734.835 528.24 734.779H379.62C377.164 734.625 374.809 733.418 372.901 731.336C370.994 729.254 369.633 726.406 369.02 723.21L348.36 600.68C348.049 599.308 347.987 597.857 348.18 596.447C348.374 595.037 348.816 593.709 349.47 592.576C350.125 591.443 350.972 590.537 351.941 589.934C352.91 589.331 353.973 589.049 355.04 589.111Z" fill="#794B93"/>
<path opacity="0.2" d="M355.04 589.111H503.66C506.113 589.271 508.463 590.48 510.367 592.561C512.271 594.643 513.628 597.488 514.24 600.68L534.92 723.21C535.227 724.581 535.285 726.031 535.09 727.438C534.895 728.846 534.452 730.17 533.799 731.302C533.145 732.433 532.3 733.339 531.333 733.944C530.366 734.549 529.306 734.835 528.24 734.779H379.62C377.164 734.625 374.809 733.418 372.901 731.336C370.994 729.254 369.633 726.406 369.02 723.21L348.36 600.68C348.049 599.308 347.987 597.857 348.18 596.447C348.374 595.037 348.816 593.709 349.47 592.576C350.125 591.443 350.972 590.537 351.941 589.934C352.91 589.331 353.973 589.049 355.04 589.111Z" fill="white"/>
<path opacity="0.4" d="M530.74 729.278L508.4 596.816C508.315 596.244 508.371 595.65 508.56 595.124C508.748 594.599 509.06 594.17 509.446 593.903C509.833 593.636 510.273 593.546 510.702 593.645C511.13 593.744 511.523 594.028 511.82 594.454C513.005 596.237 513.843 598.385 514.26 600.708L534.9 723.211C535.342 725.462 535.171 727.851 534.42 729.949C534.223 730.415 533.926 730.792 533.568 731.03C533.21 731.268 532.807 731.357 532.411 731.285C532.015 731.213 531.644 730.983 531.346 730.625C531.048 730.267 530.837 729.798 530.74 729.278V729.278Z" fill="black"/>
<path d="M737.841 960.059H696.741L659.381 802.286C655.902 787.451 648.979 774.499 639.623 765.323C630.267 756.147 618.969 751.229 607.381 751.287H578.541C566.953 751.229 555.655 756.147 546.299 765.323C536.943 774.499 530.019 787.451 526.541 802.286L489.181 960.059H448.141L486.141 799.279C490.079 782.439 497.928 767.731 508.539 757.305C519.151 746.879 531.969 741.281 545.121 741.329H640.681C653.837 741.282 666.659 746.879 677.277 757.305C687.895 767.73 695.752 782.437 699.701 799.279L737.841 960.059Z" fill="#794B93"/>
<path opacity="0.4" d="M737.841 960.059H696.741L659.381 802.286C655.902 787.451 648.979 774.499 639.623 765.323C630.267 756.147 618.969 751.229 607.381 751.287H578.541C566.953 751.229 555.655 756.147 546.299 765.323C536.943 774.499 530.019 787.451 526.541 802.286L489.181 960.059H448.141L486.141 799.279C490.079 782.439 497.928 767.731 508.539 757.305C519.151 746.879 531.969 741.281 545.121 741.329H640.681C653.837 741.282 666.659 746.879 677.277 757.305C687.895 767.73 695.752 782.437 699.701 799.279L737.841 960.059Z" fill="black"/>
<path d="M737.84 960.059H730L692.72 802.286C689.241 787.451 682.318 774.499 672.962 765.323C663.606 756.147 652.308 751.229 640.72 751.287H578.54C566.952 751.229 555.654 756.147 546.298 765.323C536.942 774.499 530.018 787.451 526.54 802.286L489.18 960.059H481.42L519.42 799.279C523.358 782.439 531.207 767.731 541.819 757.305C552.43 746.879 565.249 741.281 578.4 741.329H640.62C653.776 741.282 666.599 746.879 677.216 757.305C687.834 767.73 695.691 782.437 699.64 799.279L737.84 960.059Z" fill="#794B93"/>
</svg>
