<svg width="1000" height="1000" viewBox="0 0 1000 1000" fill="none" xmlns="http://www.w3.org/2000/svg">
<path d="M172.669 188.479C214.485 188.479 248.384 152.221 248.384 107.495C248.384 62.7683 214.485 26.5105 172.669 26.5105C130.852 26.5105 96.9531 62.7683 96.9531 107.495C96.9531 152.221 130.852 188.479 172.669 188.479Z" fill="#EBEBEB"/>
<path d="M227.214 163.937C255.43 133.757 255.43 84.8256 227.214 54.6456C198.997 24.4656 153.249 24.4656 125.032 54.6456C96.8159 84.8256 96.8159 133.757 125.032 163.937C153.249 194.117 198.997 194.117 227.214 163.937Z" fill="#DBDBDB"/>
<path d="M201.57 176.384C236.209 161.355 252.898 119.138 238.847 82.089C224.796 45.0402 185.325 27.1896 150.686 42.2185C116.048 57.2473 99.3585 99.4646 113.41 136.513C127.461 173.562 166.932 191.413 201.57 176.384Z" fill="white"/>
<path d="M177.01 42.1643H175.278V53.1268H177.01V42.1643Z" fill="#EBEBEB"/>
<path d="M145.482 50.7089L143.982 51.6345L149.106 61.1293L150.605 60.2037L145.482 50.7089Z" fill="#EBEBEB"/>
<path d="M122.18 74.9023L121.315 76.5061L130.192 81.9857L131.057 80.3818L122.18 74.9023Z" fill="#EBEBEB"/>
<path d="M123.613 108.383H113.364V110.235H123.613V108.383Z" fill="#EBEBEB"/>
<path d="M131.031 137.682L122.114 143.163L122.979 144.774L131.896 139.293L131.031 137.682Z" fill="#EBEBEB"/>
<path d="M149.12 157.498L144 166.995L145.499 167.92L150.619 158.423L149.12 157.498Z" fill="#EBEBEB"/>
<path d="M177.01 165.467H175.278V176.43H177.01V165.467Z" fill="#EBEBEB"/>
<path d="M203.138 157.539L201.638 158.465L206.763 167.959L208.262 167.033L203.138 157.539Z" fill="#EBEBEB"/>
<path d="M222.055 136.59L221.189 138.194L230.065 143.675L230.931 142.071L222.055 136.59Z" fill="#EBEBEB"/>
<path d="M238.921 108.383H228.648V110.235H238.921V108.383Z" fill="#EBEBEB"/>
<path d="M231.285 75.7727L222.368 81.2539L223.234 82.8649L232.151 77.3837L231.285 75.7727Z" fill="#EBEBEB"/>
<path d="M206.775 50.7216L201.655 60.2183L203.155 61.1433L208.275 51.6466L206.775 50.7216Z" fill="#EBEBEB"/>
<path d="M186.173 86.0838L156.482 148.518L158.025 149.357L187.716 86.9234L186.173 86.0838Z" fill="#EBEBEB"/>
<path d="M172.677 84.4143L170.413 84.8989L183.073 152.542L185.337 152.057L172.677 84.4143Z" fill="#DBDBDB"/>
<path d="M988.619 83.8665H660.525V747.838H988.619V83.8665Z" fill="#EBEBEB"/>
<path d="M960.527 116.902H688.62V538.464H960.527V116.902Z" fill="white"/>
<path d="M705.977 814.649H684.301V747.837H722.874L705.977 814.649Z" fill="#EBEBEB"/>
<path d="M722.877 747.837L716.645 772.453H684.281V747.837H722.877Z" fill="#C7C7C7"/>
<path d="M943.145 814.649H964.82V747.837H926.247L943.145 814.649Z" fill="#EBEBEB"/>
<path d="M926.247 747.837L932.48 772.453H964.844V747.837H926.247Z" fill="#C7C7C7"/>
<path d="M960.527 568.561C940.144 569.006 919.784 569.253 899.424 569.426C879.064 569.598 858.68 569.623 838.32 569.747L839.428 568.561C839.428 579.499 839.428 590.462 839.428 601.424V634.287C839.198 656.212 838.99 678.112 838.482 700.037C837.951 678.112 837.743 656.212 837.512 634.287L837.397 601.424C837.397 590.462 837.397 579.499 837.397 568.561V567.352H838.505C858.865 567.475 879.225 567.352 899.608 567.673C919.992 567.994 940.144 568.092 960.527 568.561Z" fill="#C7C7C7"/>
<path d="M838.32 718.876C858.68 718.407 879.041 718.16 899.424 717.987C919.807 717.814 940.144 717.789 960.527 717.666L959.373 718.876C959.373 708.111 959.373 697.37 959.373 686.63L959.511 654.385C959.719 632.879 959.927 611.399 960.458 589.894C960.966 611.399 961.173 632.879 961.381 654.385L961.52 686.63C961.52 697.37 961.635 708.111 961.52 718.876V720.061H960.412C940.029 719.937 919.668 720.061 899.308 719.764C878.948 719.468 858.68 719.246 838.32 718.876Z" fill="#C7C7C7"/>
<path d="M851.984 660.336H861.24V622.411H851.984V660.336Z" fill="#C7C7C7"/>
<path d="M688.62 568.561C708.98 568.092 729.34 567.845 749.724 567.673C770.107 567.5 790.444 567.475 810.827 567.352H811.912V568.561C811.912 579.499 811.912 590.462 811.912 601.424L811.773 634.287C811.566 656.212 811.358 678.112 810.827 700.037C810.296 678.112 810.088 656.212 809.857 634.287L809.742 601.424C809.742 590.462 809.742 579.499 809.742 568.561L810.85 569.747C790.467 569.623 770.107 569.747 749.747 569.426C729.387 569.105 708.98 569.006 688.62 568.561Z" fill="#C7C7C7"/>
<path d="M810.827 718.876C790.443 719.32 770.083 719.567 749.723 719.764C729.363 719.962 708.98 719.937 688.62 720.061H687.512V718.876C687.512 708.111 687.512 697.37 687.512 686.63L687.65 654.385C687.858 632.879 688.066 611.399 688.597 589.894C689.105 611.399 689.312 632.879 689.52 654.385L689.659 686.63C689.659 697.37 689.774 708.111 689.659 718.876L688.55 717.666C708.911 717.666 729.271 717.666 749.654 717.987C770.037 718.308 790.443 718.332 810.827 718.876Z" fill="#C7C7C7"/>
<path d="M797.138 622.387H787.881V660.311H797.138V622.387Z" fill="#C7C7C7"/>
<path d="M960.527 251.538H688.62V256.056H960.527V251.538Z" fill="#C7C7C7"/>
<path d="M960.527 343.039H688.62V347.558H960.527V343.039Z" fill="#C7C7C7"/>
<path d="M960.527 434.542H688.62V439.061H960.527V434.542Z" fill="#C7C7C7"/>
<path d="M827.7 116.902H821.444V538.464H827.7V116.902Z" fill="#EBEBEB"/>
<path d="M326.707 561.105L332.224 596.535L369.643 812.674H375.668L348.475 596.535L344.435 561.105H326.707Z" fill="#EBEBEB"/>
<path d="M344.435 561.105H326.707L332.224 596.535H348.475L344.435 561.105Z" fill="#C7C7C7"/>
<path d="M209.208 812.674H215.233L252.653 596.535L258.17 561.105H240.441L236.401 596.535L209.208 812.674Z" fill="#EBEBEB"/>
<path d="M240.444 561.105L236.404 596.535H252.655L258.173 561.105H240.444Z" fill="#C7C7C7"/>
<path d="M96.9766 812.674H103.001L140.421 596.535L145.938 561.105H128.209L124.17 596.535L96.9766 812.674Z" fill="#EBEBEB"/>
<path d="M124.169 596.535H140.42L145.937 561.105H128.209L124.169 596.535Z" fill="#C7C7C7"/>
<path d="M106.531 577.77H380.723V553.969L278.069 546.858L243.581 334.052H116.988L106.531 577.77Z" fill="#EBEBEB"/>
<path d="M106.531 577.77H121.49L131.231 334.052H116.988L106.531 577.77Z" fill="#C7C7C7"/>
<path d="M499.998 999.999C672.543 999.999 812.417 974.917 812.417 943.976C812.417 913.036 672.543 887.954 499.998 887.954C327.454 887.954 187.579 913.036 187.579 943.976C187.579 974.917 327.454 999.999 499.998 999.999Z" fill="#EBEBEB"/>
<path d="M128.046 967.605C191.663 967.605 243.235 955.965 243.235 941.606C243.235 927.248 191.663 915.607 128.046 915.607C64.4284 915.607 12.8564 927.248 12.8564 941.606C12.8564 955.965 64.4284 967.605 128.046 967.605Z" fill="#EBEBEB"/>
<path d="M847.183 967.605C910.801 967.605 962.373 955.965 962.373 941.606C962.373 927.248 910.801 915.607 847.183 915.607C783.566 915.607 731.994 927.248 731.994 941.606C731.994 955.965 783.566 967.605 847.183 967.605Z" fill="#EBEBEB"/>
<path d="M0 814.65L125 814.057L250 813.835L500 813.44L750 813.835L875 814.057L1000 814.65L875 815.267L750 815.489L500 815.884L250 815.489L125 815.267L0 814.65Z" fill="#263238"/>
<path d="M554.57 465.998H377.331V814.279H554.57V465.998Z" fill="#455A64"/>
<path d="M554.57 465.998H377.331V488.713H554.57V465.998Z" fill="#263238"/>
<path d="M630.679 447.703H19.1367V466.023H630.679V447.703Z" fill="#455A64"/>
<path d="M56.9493 466.023L56.3722 488.713L48.916 814.304H35.3657V466.023H56.9493Z" fill="#455A64"/>
<path d="M35.3657 466.023H56.9493L56.3722 488.713H35.3657V466.023Z" fill="#263238"/>
<path d="M614.634 465.998H554.57V814.279H614.634V465.998Z" fill="#37474F"/>
<path d="M614.634 465.998H554.57V488.713H614.634V465.998Z" fill="#263238"/>
<path d="M198.13 672.854C190.281 664.632 180.147 654.706 168.12 658.237C156.855 661.57 152.539 674.755 150.507 685.717C147.922 699.84 145.89 714.111 143.79 728.358C141.689 742.604 139.681 757.122 137.742 771.516C136.665 779.648 135.587 787.771 134.51 795.886L132.963 808.083C132.456 812.082 131.832 816.058 131.625 820.082C131.625 821.366 133.448 821.564 133.702 820.329C135.156 813.539 135.757 806.502 136.68 799.614C137.603 792.725 138.55 785.787 139.519 778.849C141.397 765.105 143.313 751.369 145.267 737.641C147.222 723.913 149.222 710.177 151.269 696.433C153 684.779 153.808 670.335 163.457 662.657C166.073 660.735 169.103 659.559 172.262 659.239C175.42 658.919 178.603 659.467 181.509 660.83C187.857 663.422 193.051 668.237 197.899 673.175C198.06 673.249 198.268 673.002 198.13 672.854Z" fill="#263238"/>
<path d="M187.398 664.558C187.398 664.558 171.377 658.386 163.459 670.879C155.542 683.372 165.006 715.322 237.975 733.148C235.826 708.753 229.889 684.913 220.408 662.608C204.78 626.041 176.825 639.868 187.398 664.558Z" fill="#794B93"/>
<path d="M233.771 727.863C232.671 725.668 231.446 723.549 230.1 721.517C228.877 719.517 227.654 717.518 226.407 715.518C225.461 714.012 224.514 712.53 223.545 711.049C223.545 710.678 223.545 710.308 223.683 709.938C223.822 709.567 223.845 708.58 223.937 707.913C224.122 706.432 224.306 704.975 224.514 703.518C224.722 702.061 224.93 700.629 225.207 699.173C225.369 697.61 225.687 696.071 226.153 694.58C226.153 694.358 225.876 694.235 225.83 694.58C225.677 695.421 225.461 696.246 225.184 697.049L224.699 699.024C224.353 700.506 224.006 701.987 223.683 703.493C223.36 705 223.152 706.234 222.944 707.641C222.837 708.316 222.744 708.983 222.667 709.641C221.352 707.641 220.036 705.691 218.674 703.765C214.796 698.308 210.687 693.049 206.462 687.914C206.462 687.914 206.462 687.914 206.462 687.79C206.855 679.569 206.67 671.47 208.378 663.396C208.378 663.174 208.101 663.051 208.055 663.273C206.126 670.875 205.209 678.73 205.331 686.605C203.808 684.778 202.284 682.976 200.715 681.198C197.16 677.099 193.535 673.083 189.842 669.149C189.703 669.001 189.473 669.149 189.611 669.396C195.751 676.458 201.592 683.84 207.27 691.346C202.825 691.272 198.379 691.445 193.951 691.864C188.988 692.259 184.094 692.951 179.177 693.667C178.969 693.667 179.016 694.037 179.177 694.012C184.067 693.261 188.991 692.791 193.928 692.605C198.706 692.383 203.438 692.605 208.194 692.605C211.264 696.679 214.311 700.777 217.289 704.95H213.272C210.964 704.95 208.817 705.172 206.624 705.37C202.09 705.762 197.587 706.48 193.143 707.518C193.1 707.518 193.059 707.536 193.029 707.569C192.998 707.601 192.981 707.645 192.981 707.691C192.981 707.737 192.998 707.781 193.029 707.813C193.059 707.845 193.1 707.864 193.143 707.864C197.621 707.32 202.123 706.876 206.624 706.703C208.771 706.703 210.918 706.703 213.088 706.703H216.435C217.055 706.798 217.686 706.739 218.281 706.53C220.244 709.246 222.206 711.987 224.145 714.728C225.684 716.9 227.223 719.098 228.762 721.32C230.308 723.591 231.693 726.06 233.378 728.184C233.632 728.208 233.84 728.036 233.771 727.863Z" fill="#263238"/>
<path d="M194.368 682.186C191.783 681.812 189.173 681.671 186.565 681.766C183.957 681.766 181.371 681.766 178.763 681.939C178.532 681.939 178.532 682.309 178.763 682.285C181.395 682.087 184.026 682.038 186.681 682.087C189.335 682.137 191.782 682.384 194.345 682.309C194.46 682.309 194.46 682.186 194.368 682.186Z" fill="#263238"/>
<path d="M217.267 688.457C217.567 685.791 217.89 683.124 218.421 680.507C218.421 680.26 218.121 680.162 218.098 680.507C217.728 683.124 217.244 685.717 216.874 688.359C216.69 689.667 216.528 690.976 216.389 692.309C216.163 693.528 216.062 694.77 216.089 696.013C216.089 696.072 216.111 696.128 216.15 696.17C216.189 696.212 216.242 696.235 216.297 696.235C216.352 696.235 216.405 696.212 216.444 696.17C216.483 696.128 216.505 696.072 216.505 696.013C216.728 694.783 216.859 693.536 216.897 692.285C217.013 691.001 217.128 689.741 217.267 688.457Z" fill="#263238"/>
<path d="M212.465 658.929C211.842 661.398 211.196 664.163 210.757 666.805C210.526 668.138 210.342 669.472 210.157 670.83C209.93 672.132 209.853 673.458 209.926 674.78C209.926 674.78 210.088 674.78 210.111 674.78C210.398 673.548 210.591 672.293 210.688 671.027C210.85 669.719 211.034 668.435 211.242 667.151C211.681 664.435 212.142 661.744 212.789 659.052C212.835 658.83 212.535 658.707 212.465 658.929Z" fill="#263238"/>
<path d="M117.476 817.193C117.061 812.255 116.622 807.317 116.138 802.379C115.191 792.651 114.06 782.947 112.86 773.269C111.659 763.59 110.551 753.936 109.028 744.307C108.477 739.862 107.542 735.481 106.234 731.221C105.755 729.373 104.879 727.67 103.677 726.248C102.475 724.825 100.98 723.721 99.3093 723.024C90.722 719.839 84.951 729.369 81.4653 736.11C81.4653 736.307 81.65 736.455 81.7654 736.283C83.843 733.073 89.5678 724.135 96.0775 724.53C100.463 724.826 103.972 728.135 106.073 739.838C111.313 768.948 116.045 828.032 116.599 831.883C116.876 833.933 118.238 833.859 118.261 831.661C118.4 826.847 117.869 822.007 117.476 817.193Z" fill="#263238"/>
<path d="M83.9109 732.505C83.9109 732.505 91.4132 704.061 74.8158 718.332C47.115 741.912 46.2378 793.218 46.2378 793.218C46.2378 793.218 95.3144 762.726 101.409 742.628C110.504 712.678 83.9109 732.505 83.9109 732.505Z" fill="#794B93"/>
<path d="M93.1902 746.405C89.3352 747.245 85.434 747.788 81.6482 748.405L76.1081 749.22C74.8846 749.417 73.615 749.541 72.3685 749.689C76.0157 744.307 79.7092 738.949 83.2179 733.443C83.3564 733.245 83.0333 733.023 82.8717 733.196C79.9642 736.403 77.2283 739.782 74.6769 743.319L72.507 736.727C71.6759 734.258 70.7757 731.665 70.1986 729.073C70.1986 728.85 69.8292 728.949 69.8754 729.073C70.5448 731.665 71.0296 734.307 71.6759 736.924C72.3223 739.541 73.0148 741.862 73.8458 744.331C72.0453 746.8 70.314 749.393 68.6519 751.96C67.7978 749.491 66.759 747.022 66.0203 744.331C66.0203 744.109 65.6279 744.331 65.6972 744.331C66.5744 747.22 67.0591 750.207 67.8902 753.096C66.759 754.849 65.5818 756.627 64.543 758.405C62.5808 761.664 60.711 764.997 58.8643 768.281C58.7254 768.348 58.6102 768.461 58.5354 768.603C58.4607 768.745 58.4303 768.909 58.4488 769.071C55.3324 774.824 52.4008 780.651 49.4922 786.502C49.4922 786.724 49.6769 786.897 49.7692 786.675C52.6778 780.873 55.9326 775.243 59.3029 769.688C59.8273 769.507 60.3695 769.391 60.9188 769.342L62.6039 768.947C63.8735 768.651 65.1432 768.306 66.3897 767.985C68.8828 767.318 71.3528 766.676 73.8689 766.231C74.0767 766.231 73.8689 765.836 73.8689 765.886C70.8911 766.478 67.9132 766.849 64.9123 767.219C63.5042 767.392 62.0961 767.589 60.6879 767.836H60.4802C62.2346 764.972 64.0351 762.133 65.8357 759.318C67.6362 756.504 69.4599 753.812 71.3066 751.096C72.9917 750.825 74.6769 750.356 76.3851 750.01L82.0637 748.825C85.8726 748.01 89.6584 747.097 93.4672 746.356C93.4903 746.701 93.398 746.356 93.1902 746.405Z" fill="#263238"/>
<path d="M63.7121 749.197C63.5043 748.456 63.2735 747.715 63.0657 746.95C62.6076 745.393 62.23 743.811 61.9346 742.209C61.9346 741.987 61.5652 742.086 61.6114 742.209C61.9346 743.814 62.2808 745.394 62.6271 746.999C62.9447 748.604 63.3769 750.181 63.9198 751.715C63.9554 751.776 64.0093 751.823 64.0728 751.848C64.1363 751.872 64.2057 751.873 64.2698 751.851C64.3339 751.828 64.3889 751.782 64.4259 751.722C64.4629 751.662 64.4798 751.589 64.4738 751.518C64.243 750.802 63.9429 750.011 63.7121 749.197Z" fill="#263238"/>
<path d="M98.3386 739.864C96.0302 740.209 93.7218 740.382 91.575 740.58C89.4282 740.777 86.9582 741.148 84.8345 741.493V741.715C87.1429 741.543 89.4513 741.37 91.5981 741.049C93.7449 740.728 96.0764 740.382 98.3386 740.209C98.3386 740.185 98.3386 739.814 98.3386 739.864Z" fill="#263238"/>
<path d="M153.578 781.318C152.724 760.454 151.477 739.641 149.515 718.851C148.545 708.506 147.46 698.161 146.098 687.865C144.877 677.739 143.002 667.716 140.489 657.866C138.79 650.222 135.648 643.03 131.255 636.731C129.07 633.671 126.191 631.256 122.892 629.714C119.592 628.172 115.98 627.554 112.396 627.917C103.855 629.053 96.9756 634.806 91.043 641.052C84.3717 648.064 78.2545 655.718 72.091 663.273C70.5213 665.175 68.9747 667.076 67.4742 669.002C67.3357 669.174 67.4742 669.421 67.7281 669.248C73.7531 661.841 80.0319 654.607 86.6109 647.719C92.6589 641.348 98.9147 634.386 107.386 631.744C111.294 630.414 115.476 630.311 119.436 631.448C122.582 632.513 125.415 634.436 127.654 637.028C132.124 642.577 135.289 649.188 136.888 656.311C142.151 675.495 144.021 695.593 145.96 715.395C147.899 735.196 149.284 755.689 150.23 775.886C151.177 796.083 151.916 816.551 153.739 836.797C153.97 839.266 154.27 841.735 154.57 844.204C154.778 845.883 157.202 845.883 157.086 844.204C155.355 823.242 154.455 802.305 153.578 781.318Z" fill="#263238"/>
<path d="M89.8668 643.323C89.8668 643.323 101.016 621.275 87.8585 614.189C74.7006 607.103 30.6332 659.619 17.7754 736.603C17.7754 736.603 88.9204 702.95 113.089 669.396C137.258 635.842 109.881 628.46 89.8668 643.323Z" fill="#794B93"/>
<path d="M100.349 661.248C92.3384 661.248 84.3744 660.606 76.3643 660.656L80.9811 655.15C83.2195 652.712 85.3091 650.122 87.2368 647.397C87.2368 647.2 87.2368 646.953 86.9598 647.101C84.7851 649.089 82.7627 651.261 80.9118 653.594C78.9035 655.866 76.8952 658.137 74.933 660.434C71.8629 663.964 68.8619 667.569 65.8841 671.174C65.8841 670.828 65.8841 670.483 65.8841 670.137C65.8841 668.631 65.8841 667.149 65.8841 665.643V656.952C65.8841 651.051 65.8841 645.15 66.3227 639.274C66.3227 639.052 65.9995 639.076 65.9764 639.274C65.6071 645.175 65.03 651.027 64.753 656.952C64.753 659.841 64.5683 662.754 64.5221 665.643C64.5221 667.149 64.5221 668.655 64.5221 670.137C64.5221 670.952 64.5221 671.816 64.5221 672.606C64.0605 673.174 63.5757 673.717 63.0909 674.285C56.7197 682.087 50.6486 690.161 44.7391 698.358C44.7391 697.913 44.7391 697.444 44.7391 697L44.4621 694.284C44.2544 692.333 44.0004 690.383 43.7234 688.432C43.4464 686.482 43.1925 684.754 42.9155 682.926C42.6385 681.099 42.1076 678.778 41.9691 676.705C41.9691 676.659 41.952 676.615 41.9217 676.582C41.8914 676.55 41.8503 676.532 41.8075 676.532C41.7646 676.532 41.7235 676.55 41.6932 676.582C41.6629 676.615 41.6459 676.659 41.6459 676.705C41.984 678.779 42.2076 680.873 42.3153 682.976L42.8001 688.63C42.9617 690.506 43.1232 692.383 43.3079 694.284C43.3079 695.173 43.4695 696.086 43.5618 696.975L43.7004 698.333C43.7399 698.718 43.8581 699.089 44.0466 699.42L40.9995 703.666C36.9829 709.37 33.0124 715.147 29.042 720.949C29.042 721.122 29.042 721.369 29.2959 721.196C33.0355 715.962 36.8906 710.826 40.8379 705.74C43.7696 705.74 46.7474 705.74 49.6791 705.592C52.6108 705.444 55.8425 705.592 58.9127 705.592C58.9556 705.592 58.9967 705.574 59.027 705.541C59.0573 705.509 59.0743 705.465 59.0743 705.419C59.0743 705.373 59.0573 705.329 59.027 705.297C58.9967 705.265 58.9556 705.246 58.9127 705.246H49.6791C46.8629 705.246 43.9774 705.098 41.1842 705.246C44.6314 700.786 48.094 696.333 51.572 691.889C52.8416 690.284 54.1343 688.679 55.404 686.951C56.5814 687.128 57.7732 687.169 58.9589 687.074H63.1833C65.7918 687.074 68.4233 687.074 71.0549 686.951C76.4797 686.951 81.9275 686.679 87.3522 686.655C87.3951 686.655 87.4362 686.636 87.4665 686.604C87.4968 686.572 87.5138 686.528 87.5138 686.482C87.5138 686.436 87.4968 686.392 87.4665 686.36C87.4362 686.327 87.3951 686.309 87.3522 686.309C81.9044 686.309 76.4797 685.988 71.0318 685.84C68.4003 685.84 65.7687 685.667 63.1371 685.642H58.9358C58.1279 685.642 57.3199 685.642 56.6274 685.642C59.6052 681.865 62.5831 678.062 65.584 674.285C65.6496 674.231 65.7045 674.164 65.7456 674.087C68.6542 670.4 71.5782 666.73 74.5175 663.075L75.741 661.594C84.0281 661.866 92.3153 661.273 100.602 661.446C100.616 661.41 100.618 661.37 100.608 661.333C100.599 661.296 100.577 661.263 100.548 661.24C100.519 661.218 100.483 661.206 100.447 661.208C100.411 661.209 100.376 661.223 100.349 661.248V661.248Z" fill="#263238"/>
<path d="M96.239 676.359H94.2999C94.1152 676.359 94.1383 676.68 94.2999 676.68H96.239C96.4698 676.729 96.4698 676.359 96.239 676.359Z" fill="#263238"/>
<path d="M91.9438 676.385C89.3815 676.385 86.8192 676.385 84.2568 676.212L80.4018 676.089C79.2216 675.928 78.0271 675.928 76.8469 676.089C76.8163 676.089 76.7869 676.102 76.7653 676.125C76.7436 676.148 76.7314 676.179 76.7314 676.212C76.7314 676.245 76.7436 676.276 76.7653 676.299C76.7869 676.323 76.8163 676.336 76.8469 676.336C78.0225 676.599 79.2262 676.691 80.4249 676.607H84.2568H91.9438C91.9647 676.574 91.9758 676.536 91.9758 676.496C91.9758 676.456 91.9647 676.418 91.9438 676.385V676.385Z" fill="#263238"/>
<path d="M69.5748 702.061C64.3681 701.153 59.1065 700.649 53.8315 700.555V700.679C59.0716 701.222 64.3117 701.518 69.4825 702.407C69.5254 702.42 69.5713 702.414 69.6103 702.391C69.6493 702.368 69.678 702.329 69.6903 702.284C69.7025 702.238 69.6972 702.189 69.6756 702.147C69.6539 702.105 69.6177 702.074 69.5748 702.061V702.061Z" fill="#263238"/>
<path d="M48.1776 677.593C48.1776 677.099 48.1776 676.606 48.016 676.112C47.9006 675.025 47.739 673.914 47.5774 672.828C47.2542 670.729 46.908 668.655 46.5386 666.581C46.5386 666.384 46.1924 666.433 46.2155 666.581C46.4694 668.73 46.6771 670.878 46.8849 673.05C46.8849 674.112 47.0465 675.174 47.1388 676.211C47.0994 677.282 47.2402 678.353 47.5543 679.371C47.6928 679.692 48.1545 679.544 48.2469 679.248C48.3377 678.697 48.314 678.133 48.1776 677.593V677.593Z" fill="#263238"/>
<path d="M152.887 615.005C150.348 609.919 147.093 603.228 140.745 603.647C135.505 604.018 133.127 609.746 132.019 614.462C128.533 629.103 128.349 644.559 127.633 659.62C126.202 691.347 124.909 723.099 124.725 754.851C124.725 763.641 124.725 772.455 124.725 781.245C124.725 790.035 124.725 799.269 125.302 808.231C125.329 808.383 125.406 808.52 125.517 808.618C125.629 808.717 125.769 808.77 125.913 808.77C126.058 808.77 126.198 808.717 126.31 808.618C126.421 808.52 126.497 808.383 126.525 808.231C126.525 800.553 126.317 792.874 126.294 785.195C126.271 777.517 126.294 770.208 126.433 762.702C126.664 747.543 127.041 732.375 127.564 717.198C128.095 702.112 128.718 687.051 129.318 671.966L130.219 649.374C130.542 641.967 130.819 634.757 131.604 627.498C132.042 623.424 132.619 619.375 133.404 615.351C133.804 612.38 134.935 609.576 136.682 607.228C137.895 605.962 139.487 605.196 141.177 605.065C142.866 604.934 144.545 605.446 145.916 606.512C148.843 608.695 151.158 611.691 152.61 615.178C152.702 615.375 152.979 615.178 152.887 615.005Z" fill="#263238"/>
<path d="M151.179 612.708C151.179 612.708 145.939 592.956 157.504 602.832C176.733 619.251 177.402 655.002 177.402 655.002C177.402 655.002 143.215 633.769 138.967 619.745C132.642 598.758 151.179 612.708 151.179 612.708Z" fill="#794B93"/>
<path d="M170.222 640.214L169.253 638.609C169.287 638.05 169.287 637.489 169.253 636.93C169.253 636.066 169.253 635.226 169.253 634.461C169.253 632.782 169.253 631.128 169.414 629.523C169.414 629.301 169.114 629.301 169.091 629.523C169.091 631.177 168.953 632.807 168.906 634.461V636.93C168.906 637.226 168.906 637.597 168.906 637.967C167.568 635.745 166.183 633.547 164.751 631.375C164.336 630.733 163.92 630.115 163.482 629.498C163.32 627.354 163.32 625.199 163.482 623.054C163.482 620.758 163.482 618.462 163.482 616.19C163.482 615.943 163.159 615.968 163.159 616.19C163.159 618.659 162.997 620.955 162.882 623.35C162.743 625.041 162.697 626.74 162.743 628.436C159.442 623.647 155.933 619.005 152.401 614.412C152.286 614.264 152.032 614.412 152.147 614.635C154.34 617.597 156.441 620.659 158.496 623.745C154.479 622.733 150.393 622.165 146.307 621.523C146.099 621.523 146.007 621.844 146.307 621.869C150.647 622.56 154.894 623.721 159.165 624.733C160.781 627.202 162.42 629.671 164.013 632.14C164.682 633.152 165.305 634.189 165.952 635.202H165.767L164.451 635.004C163.505 634.881 162.558 634.807 161.612 634.733C159.627 634.56 157.665 634.461 155.679 634.338C155.636 634.338 155.595 634.356 155.565 634.388C155.535 634.421 155.518 634.464 155.518 634.51C155.518 634.556 155.535 634.6 155.565 634.633C155.595 634.665 155.636 634.683 155.679 634.683C157.641 634.683 159.557 634.905 161.497 635.128C162.512 635.128 163.528 635.399 164.567 635.523L165.882 635.695H166.275L169.576 640.88C171.492 643.917 173.223 647.201 175.278 650.139C175.416 650.312 175.647 650.139 175.555 649.966C173.948 646.612 172.168 643.356 170.222 640.214V640.214Z" fill="#263238"/>
<path d="M161.702 617.917C161.702 617.151 161.702 616.386 161.702 615.621C161.668 613.972 161.73 612.323 161.887 610.683C161.887 610.637 161.87 610.593 161.84 610.56C161.81 610.528 161.768 610.51 161.726 610.51C161.683 610.51 161.642 610.528 161.611 610.56C161.581 610.593 161.564 610.637 161.564 610.683C161.564 612.263 161.402 613.868 161.333 615.473C161.333 616.263 161.333 617.077 161.333 617.942C161.333 618.312 161.333 618.682 161.333 619.053C161.275 619.429 161.275 619.812 161.333 620.188C161.333 620.228 161.348 620.265 161.374 620.293C161.4 620.321 161.435 620.337 161.472 620.337C161.508 620.337 161.544 620.321 161.57 620.293C161.596 620.265 161.61 620.228 161.61 620.188C161.667 619.837 161.667 619.478 161.61 619.127L161.702 617.917Z" fill="#263238"/>
<path d="M157.478 626.115C156.201 625.902 154.914 625.762 153.623 625.696C152.215 625.548 150.807 625.424 149.399 625.227C149.168 625.227 149.122 625.572 149.399 625.572C152.1 625.77 154.8 626.288 157.501 626.387C157.525 626.373 157.545 626.352 157.558 626.327C157.571 626.301 157.576 626.272 157.574 626.243C157.571 626.214 157.561 626.187 157.544 626.164C157.527 626.141 157.504 626.124 157.478 626.115Z" fill="#263238"/>
<path d="M168.216 626.213C168.262 626.466 168.262 626.726 168.216 626.978V627.522C168.216 627.991 168.216 628.435 168.216 628.904V630.287C168.146 630.687 168.146 631.097 168.216 631.497C168.216 631.497 168.216 631.497 168.354 631.497C168.399 631.302 168.399 631.099 168.354 630.904V630.287C168.354 629.818 168.354 629.349 168.354 628.904V626.88C168.354 626.682 168.354 626.287 168.354 626.114C168.354 625.941 168.008 625.892 168.216 626.213Z" fill="#263238"/>
<path d="M153.739 720.309C146.537 714.556 140.074 706.26 130.402 705.841C122.438 705.52 116.828 711.939 113.643 719.099C112.037 722.905 110.725 726.843 109.718 730.877C108.287 736.276 106.933 741.707 105.655 747.172C103.116 757.937 100.962 768.752 99.1919 779.615C98.2224 785.689 97.3221 791.763 96.6065 797.886C95.7 804.083 95.1373 810.333 94.9214 816.601C94.9381 816.83 95.0285 817.045 95.1771 817.21C95.3257 817.375 95.5233 817.479 95.7361 817.506C95.9489 817.532 96.1636 817.478 96.3434 817.354C96.5233 817.229 96.6571 817.042 96.722 816.824C97.6915 811.713 98.0839 806.429 98.7995 801.269C99.5151 796.108 100.231 790.874 101.108 785.689C102.739 775.319 104.647 765.015 106.833 754.777C108.887 745.098 110.919 735.272 113.758 725.84C115.836 719.099 119.206 711.198 126.016 708.779C136.403 705.075 145.822 714.482 153.416 720.581C153.739 720.704 153.855 720.457 153.739 720.309Z" fill="#263238"/>
<path d="M146.236 714.803C146.236 714.803 139.611 694.557 149.191 690.582C163.572 684.631 201.176 729.938 193.813 799.219C193.813 799.219 164.75 782.109 143.305 762.85C121.86 743.592 116.366 718.408 125.807 711.939C135.248 705.47 146.236 714.803 146.236 714.803Z" fill="#794B93"/>
<path d="M189.475 784.454C188.466 782.036 187.293 779.701 185.966 777.467C184.742 774.998 183.496 772.726 182.226 770.38C179.733 765.813 177.24 761.22 174.678 756.702L173.431 754.505C173.431 754.233 173.431 753.961 173.593 753.69L174.008 751.69C174.331 750.184 174.585 748.653 174.839 747.147C175.37 744.184 175.832 741.172 176.594 738.258C176.594 738.213 176.577 738.169 176.546 738.136C176.516 738.104 176.475 738.086 176.432 738.086C176.389 738.086 176.348 738.104 176.318 738.136C176.288 738.169 176.27 738.213 176.27 738.258C175.67 741.221 174.793 744.159 173.962 747.048C173.547 748.48 173.131 749.912 172.762 751.369C172.762 751.863 172.531 752.357 172.392 752.85C169.322 747.418 166.183 742.036 162.789 736.826C163.007 736.109 163.116 735.359 163.113 734.604L163.459 731.567C163.713 729.271 163.944 727 164.267 724.728C164.817 720.252 165.588 715.81 166.575 711.42C166.575 711.198 166.321 711.148 166.252 711.42C165.236 715.79 164.105 720.16 163.32 724.58C162.951 726.753 162.582 728.95 162.305 731.123C162.166 732.234 162.074 733.32 161.958 734.431C161.958 734.752 161.958 735.098 161.958 735.419C160.92 733.839 159.881 732.283 158.773 730.752C155.472 726.086 152.032 721.518 148.547 716.975C148.547 716.802 148.154 716.975 148.293 717.173C154.235 725.303 159.686 733.83 164.613 742.703C165.583 744.332 166.506 745.962 167.452 747.641L166.506 747.517C165.306 747.369 164.059 747.27 162.859 747.147L155.518 746.48C150.624 746.06 145.707 745.739 140.837 745.172C140.629 745.172 140.56 745.493 140.837 745.517C145.8 746.135 150.716 746.974 155.633 747.739C157.942 748.11 160.481 748.455 162.928 748.776C164.767 749.174 166.638 749.38 168.514 749.394C170.453 752.686 172.377 756.027 174.285 759.418C173.855 759.381 173.423 759.381 172.993 759.418H166.067C162.905 759.418 159.765 759.418 156.603 759.418C156.395 759.418 156.441 759.764 156.603 759.764C159.788 759.764 162.974 759.986 166.16 760.159C167.683 760.159 169.184 760.331 170.776 760.455L173.085 760.628C173.739 760.776 174.416 760.776 175.07 760.628C176.709 763.467 178.371 766.306 179.987 769.146C181.603 771.985 183.011 774.38 184.604 776.973C186.065 779.742 187.716 782.391 189.544 784.898C189.571 784.893 189.597 784.883 189.621 784.867C189.644 784.852 189.664 784.831 189.681 784.807C189.697 784.783 189.708 784.756 189.714 784.727C189.721 784.698 189.721 784.668 189.717 784.639C189.712 784.61 189.703 784.582 189.688 784.557C189.673 784.532 189.654 784.51 189.632 784.493C189.609 784.476 189.584 784.463 189.557 784.457C189.53 784.45 189.502 784.449 189.475 784.454V784.454Z" fill="#263238"/>
<path d="M175.623 728.358C175.33 730.591 174.898 732.802 174.33 734.975C173.776 737.221 173.176 739.444 172.484 741.641C172.474 741.669 172.471 741.698 172.472 741.727C172.473 741.756 172.48 741.785 172.492 741.811C172.504 741.837 172.52 741.861 172.541 741.881C172.561 741.9 172.585 741.915 172.611 741.925C172.636 741.935 172.664 741.939 172.691 741.937C172.718 741.936 172.745 741.928 172.77 741.916C172.794 741.903 172.816 741.886 172.835 741.864C172.853 741.842 172.867 741.817 172.876 741.789C173.522 739.592 174.099 737.394 174.607 735.147C175.115 732.901 175.438 730.654 175.946 728.432C175.992 728.209 175.646 728.135 175.623 728.358Z" fill="#263238"/>
<path d="M154.271 741.912C153.83 741.517 153.275 741.299 152.701 741.295L149.954 740.9L144.852 740.233C141.297 739.789 137.766 739.418 134.211 738.949C134.003 738.949 133.957 739.27 134.211 739.295C137.558 739.715 140.859 740.258 144.206 740.727L149.1 741.418L151.408 741.69C152.321 741.691 153.226 741.858 154.086 742.184C154.271 742.282 154.386 742.035 154.271 741.912Z" fill="#263238"/>
<path d="M175.577 772.455C173.891 772.282 172.206 772.232 170.544 772.183H168.005H166.782C166.259 772.233 165.734 772.233 165.212 772.183C164.958 772.183 164.935 772.578 165.212 772.529C165.703 772.48 166.198 772.48 166.689 772.529H168.005L170.544 772.702C172.229 772.702 173.915 772.924 175.577 772.924C175.761 772.825 175.784 772.455 175.577 772.455Z" fill="#263238"/>
<path d="M185.803 764.677C186.018 763.656 186.203 762.644 186.357 761.64L187.396 755.616C187.396 755.57 187.379 755.526 187.348 755.494C187.318 755.461 187.277 755.443 187.234 755.443C187.191 755.443 187.15 755.461 187.12 755.494C187.089 755.526 187.072 755.57 187.072 755.616L185.826 761.467C185.618 762.43 185.433 763.418 185.226 764.381C185.226 764.85 185.064 765.294 184.972 765.739C184.835 766.201 184.788 766.688 184.833 767.171C184.833 767.344 185.087 767.467 185.18 767.171C185.531 766.389 185.743 765.543 185.803 764.677V764.677Z" fill="#263238"/>
<path d="M181.948 824.501L180.332 853.192L175.554 937.879H77.6545L72.8761 853.192L71.2603 824.501H181.948Z" fill="#455A64"/>
<path d="M181.948 824.501L180.332 853.192H72.8761L71.2603 824.501H181.948Z" fill="#263238"/>
<path d="M189.45 804.206H63.7808V832.921H189.45V804.206Z" fill="#455A64"/>
<path d="M485.271 796.847C485.271 796.847 471.767 903.139 471.767 903.213C471.513 923.558 470.959 941.384 469.874 950.569C469.884 950.618 469.884 950.668 469.874 950.717C469.854 952.896 469.348 955.037 468.396 956.964L468.281 957.112C462.579 961.112 310.617 963.778 305.285 962.05C299.952 960.322 304.384 943.853 310.201 938.718C316.019 933.582 373.798 904.719 373.798 904.719L388.249 798.551L485.271 796.847Z" fill="#AD6359"/>
<path d="M471.557 916.396C471.257 931.211 470.726 943.556 469.872 950.667C469.883 950.715 469.883 950.766 469.872 950.815C469.853 952.993 469.346 955.135 468.395 957.061C468.395 957.061 468.395 957.061 468.395 957.185C462.67 961.209 310.708 963.851 305.375 962.123C300.043 960.395 304.475 943.926 310.292 938.791C313.085 936.322 327.767 928.47 342.31 920.915C337.693 924.791 333.076 929.556 335.177 931.482C338.801 934.692 430.952 931.211 471.557 916.396Z" fill="#263238"/>
<path d="M350.759 916.398C350.759 916.398 377.652 903.313 423.774 926.991Z" fill="#263238"/>
<path d="M507.985 870.104L375.552 867.833L442.195 336.349H531.969L507.985 870.104Z" fill="#263238"/>
<path d="M531.969 336.349L514.956 714.95L470.312 336.349H531.969Z" fill="#37474F"/>
<path d="M501.614 845.487C497.621 845.018 493.535 845.043 489.518 844.87C485.501 844.697 481.808 844.648 477.976 844.574C469.989 844.425 462.025 844.277 454.038 844.179C438.272 844.03 422.505 843.907 406.739 843.956C397.782 843.956 388.872 844.277 379.915 844.697C379.869 844.713 379.829 844.745 379.8 844.787C379.772 844.829 379.756 844.88 379.756 844.932C379.756 844.984 379.772 845.034 379.8 845.076C379.829 845.119 379.869 845.15 379.915 845.166C395.774 846.178 411.609 846.45 427.491 846.672C443.373 846.895 459.024 846.944 474.79 846.919C479.223 846.919 483.632 846.919 488.064 846.919C492.496 846.919 497.159 846.919 501.614 846.475C501.737 846.475 501.854 846.423 501.941 846.33C502.027 846.238 502.076 846.112 502.076 845.981C502.076 845.85 502.027 845.724 501.941 845.632C501.854 845.539 501.737 845.487 501.614 845.487Z" fill="#455A64"/>
<path d="M459.14 364.05C451.337 424.418 444.112 484.835 436.448 545.228C428.784 605.62 420.705 665.396 412.533 725.467C407.916 759.169 403.138 792.822 398.914 826.697C398.914 827.216 399.583 827.413 399.675 826.895C409.994 766.971 418.143 706.604 426.337 646.31C434.532 586.016 442.034 526.117 448.983 465.898C452.884 432.072 456.67 398.222 459.878 364.322C459.925 363.705 459.209 363.606 459.14 364.05Z" fill="#455A64"/>
<path d="M532.084 798.402C532.084 798.402 544.827 899.756 544.827 899.83C544.942 920.15 545.381 937.976 546.42 947.186C546.41 947.235 546.41 947.285 546.42 947.334C546.451 949.513 546.941 951.656 547.851 953.605C547.851 953.605 547.851 953.605 547.966 953.729C553.645 957.778 689.333 961.481 694.688 959.704C700.044 957.926 695.704 941.507 689.91 936.322C684.116 931.137 642.772 901.904 642.772 901.904L626.821 795.735L532.084 798.402Z" fill="#AD6359"/>
<path d="M694.71 959.704C689.378 961.482 553.69 957.778 547.988 953.729C547.988 953.729 547.988 953.729 547.988 953.581C547.047 951.643 546.548 949.494 546.534 947.309C546.523 947.261 546.523 947.21 546.534 947.161C545.43 936.505 544.952 925.785 545.103 915.064C567.264 930.1 624.65 936.791 642.887 932.52C659.046 928.718 655.491 914.792 652.12 908.521C664.632 917.434 685.985 932.767 690.071 936.396C695.726 941.483 700.066 957.926 694.71 959.704Z" fill="#263238"/>
<path d="M651.984 908.447C651.984 908.447 606.324 900.497 575.091 926.891Z" fill="#263238"/>
<path d="M451.313 336.176C451.706 338.151 457.985 369.311 464.494 396.075C469.227 415.63 474.097 432.814 476.891 434.592C480.053 436.592 495.473 443.9 500.644 446.196L520.773 869.116L657.8 865.833L586.24 404.717L574.19 336.176H451.313Z" fill="#263238"/>
<path d="M468.72 430.393C479.723 434.677 490.359 439.972 500.507 446.22C500.585 446.269 500.643 446.348 500.67 446.44C500.697 446.532 500.692 446.632 500.655 446.72C500.618 446.809 500.551 446.879 500.469 446.919C500.386 446.959 500.293 446.965 500.207 446.936C489.496 441.997 478.577 437.306 468.143 431.751C467.975 431.669 467.844 431.519 467.779 431.334C467.714 431.149 467.72 430.943 467.797 430.763C467.873 430.583 468.014 430.443 468.187 430.374C468.36 430.304 468.552 430.311 468.72 430.393V430.393Z" fill="#455A64"/>
<path d="M465.489 351.952C465.489 351.557 466.158 351.458 466.158 351.952C466.158 365.556 466.897 377.531 467.958 390.222C468.466 396.123 472.898 428.739 482.455 426.368C484.071 425.949 484.764 424.27 485.133 421.702C485.098 418.325 484.672 414.966 483.863 411.702C482.802 404.863 481.947 398.024 481.393 391.135C480.289 378.291 480.42 365.36 481.786 352.544C481.805 352.471 481.845 352.407 481.902 352.361C481.958 352.315 482.027 352.29 482.097 352.29C482.168 352.29 482.237 352.315 482.293 352.361C482.35 352.407 482.39 352.471 482.409 352.544C482.118 370.342 483.09 388.137 485.318 405.777C486.518 414.27 490.512 427.035 482.224 428.344C473.937 429.652 468.374 408.295 467.266 402.443C464.642 385.765 464.045 368.794 465.489 351.952V351.952Z" fill="#455A64"/>
<path d="M482.202 427.16C483.065 429.358 483.782 431.619 484.349 433.925C484.966 435.702 485.271 437.585 485.249 439.48C485.235 439.557 485.201 439.628 485.149 439.684C485.098 439.74 485.032 439.779 484.961 439.795C484.889 439.811 484.814 439.803 484.746 439.774C484.678 439.744 484.62 439.693 484.579 439.628C483.562 437.959 482.784 436.137 482.271 434.221C481.555 432.123 480.771 430.049 480.101 427.95C480.003 427.652 480.02 427.325 480.148 427.04C480.275 426.755 480.504 426.536 480.782 426.431C481.061 426.327 481.367 426.345 481.633 426.481C481.899 426.618 482.104 426.862 482.202 427.16Z" fill="#455A64"/>
<path d="M650.045 845.635C646.051 845.29 641.942 845.413 637.926 845.364C633.909 845.314 630.239 845.364 626.384 845.364C618.42 845.364 610.433 845.561 602.469 845.709C586.702 846.03 570.936 846.401 555.17 846.919C546.213 847.215 537.303 847.783 528.392 848.475C528.346 848.491 528.306 848.522 528.277 848.564C528.249 848.607 528.233 848.657 528.233 848.709C528.233 848.761 528.249 848.812 528.277 848.854C528.306 848.896 528.346 848.928 528.392 848.944C544.274 849.487 560.11 849.265 575.991 848.944C591.873 848.623 607.524 848.253 623.267 847.759L636.541 847.265C641.019 847.067 645.636 846.993 650.068 846.401C650.129 846.359 650.179 846.302 650.213 846.233C650.247 846.165 650.263 846.088 650.261 846.011C650.259 845.934 650.237 845.858 650.2 845.792C650.162 845.727 650.108 845.672 650.045 845.635V845.635Z" fill="#455A64"/>
<path d="M590.027 788.724C588.849 775.811 587.557 762.898 586.31 749.985C583.817 724.405 581.247 698.843 578.6 673.296C573.352 622.188 567.966 571.079 562.441 519.97C559.371 491.304 556.832 462.54 553.346 433.924C553.346 433.677 552.93 433.677 552.954 433.924C555.031 459.799 557.986 485.576 560.433 511.402C562.88 537.228 565.234 562.536 567.727 588.09C572.683 639.232 577.777 690.349 583.009 741.442C584.486 755.787 585.964 770.132 587.626 784.477C589.288 798.822 591.065 813.142 592.75 827.487C592.75 827.833 593.304 827.833 593.258 827.487C592.104 814.55 591.204 801.637 590.027 788.724Z" fill="#455A64"/>
<path d="M441.135 394.643L464.519 396.248L532.687 400.988L586.288 404.717L574.192 336.176H451.315H442.082L441.135 394.643Z" fill="#263238"/>
<path d="M473.868 68.8783C451.476 89.3959 457.709 119.345 448.36 135.542C442.635 145.418 424.029 155.961 420.313 167.393C414.242 186.207 429.131 192.947 425.807 203.169C421.19 217.637 402.977 216.526 399.699 240.204C396.421 263.882 420.798 289.066 478.623 295.906C536.449 302.745 568.189 280.079 570.267 259.981C572.344 239.883 553.115 233.217 551.8 218.205C550.969 208.625 562.834 201.934 563.342 184.305C563.849 166.677 547.875 160.924 545.567 145.937C543.258 130.95 550.692 94.5315 530.101 75.9397C509.51 57.3479 484.902 58.7552 473.868 68.8783Z" fill="#263238"/>
<path d="M476.454 69.5195C470.193 74.2588 465.094 80.5432 461.588 87.8397C457.964 95.5776 455.19 103.739 453.324 112.16C452.359 117.175 450.856 122.055 448.845 126.702C446.848 130.582 444.222 134.052 441.089 136.949C434.833 142.998 427.354 147.615 421.745 154.405C416.135 161.195 412.28 169.466 414.404 178.231C415.558 182.996 418.513 186.897 420.336 191.341C422.16 195.786 422.645 200.823 419.39 204.329C416.481 207.316 412.303 208.699 409.025 211.143C405.784 213.557 402.931 216.517 400.577 219.908C398.194 223.259 396.49 227.103 395.572 231.197C394.654 235.29 394.542 239.543 395.244 243.685C398.661 262.919 415.535 273.856 431.117 280.72C433.287 281.683 435.457 282.622 437.649 283.535C437.996 283.683 438.273 283.165 437.926 283.017C422.299 275.61 404.155 266.746 398.153 248.03C396.762 243.949 396.272 239.58 396.721 235.263C397.169 230.946 398.544 226.798 400.738 223.143C402.95 219.543 405.749 216.399 409.002 213.859C412.142 211.39 415.789 209.835 418.974 207.489C420.563 206.411 421.855 204.901 422.719 203.114C423.583 201.327 423.988 199.326 423.891 197.317C423.4 192.894 421.928 188.662 419.598 184.971C417.168 181.159 415.88 176.647 415.904 172.034C416.374 167.548 417.969 163.283 420.521 159.689C425.392 152.281 432.594 147.492 438.988 141.912C445.607 136.725 450.534 129.444 453.07 121.098C454.27 116.678 455.009 112.135 456.047 107.691C456.979 103.511 458.128 99.3893 459.487 95.3456C462.041 87.2893 466.217 79.9312 471.721 73.791C473.167 72.22 474.76 70.8134 476.477 69.5936C476.915 69.5195 476.638 69.2726 476.454 69.5195Z" fill="#263238"/>
<path d="M572.829 245.265C572.124 241.994 570.761 238.927 568.835 236.278C566.827 233.562 564.403 231.34 562.164 228.871C559.888 226.607 558.248 223.708 557.432 220.501C557.025 216.581 557.933 212.635 559.994 209.365C561.95 205.91 563.677 202.313 565.165 198.6C567.12 192.935 567.81 186.859 567.181 180.858C566.552 174.857 564.62 169.095 561.541 164.034C559.578 160.577 557.362 157.294 555.354 153.862C553.156 150.123 551.432 146.087 550.229 141.862C547.621 132.554 547.067 122.727 544.943 113.295C542.699 103.632 539.552 94.2357 535.548 85.2472C535.548 85.025 535.132 85.2472 535.248 85.4447C538.803 93.5577 541.55 102.049 543.443 110.777C545.289 119.048 546.005 127.492 547.367 135.838C547.97 139.947 548.952 143.983 550.299 147.887C551.672 151.49 553.348 154.953 555.308 158.232C559.232 165.046 563.249 171.762 564.334 179.86C565.412 187.798 564.111 195.898 560.617 202.995C557.57 209.143 553.323 215.933 556 223.118C558.309 229.216 563.664 232.994 567.288 237.932C569.188 240.715 570.517 243.895 571.19 247.264C571.862 250.634 571.862 254.117 571.19 257.487C568.073 274.77 551.868 283.387 536.679 284.251C536.581 284.251 536.487 284.293 536.418 284.367C536.349 284.441 536.31 284.541 536.31 284.646C536.31 284.751 536.349 284.851 536.418 284.925C536.487 285 536.581 285.041 536.679 285.041C549.883 284.868 564.264 278.671 570.451 265.437C573.417 259.215 574.257 252.08 572.829 245.265V245.265Z" fill="#263238"/>
<path d="M486.817 192.182C482.708 210.156 433.885 378.643 424.213 380.989C395.75 387.853 361.54 392.889 362.048 367.903C362.856 328.695 431.761 225.489 464.771 191.194C486.494 168.603 490.88 174.43 486.817 192.182Z" fill="#AD6359"/>
<path d="M486.817 192.182C482.708 210.156 433.885 378.643 424.213 380.989C395.75 387.853 361.54 392.889 362.048 367.903C362.856 328.695 431.761 225.489 464.771 191.194C486.494 168.603 490.88 174.43 486.817 192.182Z" fill="#AD6359"/>
<path d="M361.865 376.89C350.046 332.448 449.931 201.811 469.367 185.17C488.804 168.529 491.32 173.738 487.373 194.75C483.425 215.761 436.196 374.816 426.131 380.618C416.066 386.421 367.22 397.037 361.865 376.89Z" fill="#EBEBEB"/>
<path d="M443.488 292.992L432.523 373.68C432.523 373.68 555.469 375.631 585.986 373.335C585.986 373.335 561.101 222.477 528.276 184.38C511.863 165.319 492.588 166.726 480.307 180.059C477.214 183.442 440.118 235.859 436.217 255.883C432.8 273.536 443.488 292.992 443.488 292.992Z" fill="#794B93"/>
<path d="M514.68 173.22C514.68 173.22 500.368 593.844 507.963 613.818C515.558 633.793 629.847 653.619 629.847 653.619C629.847 653.619 596.306 352.546 565.881 261.167C537.672 176.43 514.68 173.22 514.68 173.22Z" fill="#EBEBEB"/>
<path d="M591.041 431.825C580.665 433.357 570.213 434.231 559.739 434.442C545.104 434.442 530.584 432.912 526.383 432.862C526.014 432.862 525.829 434.171 526.083 434.195C537.171 435.623 548.319 436.447 559.486 436.664C569.707 436.587 579.903 435.554 589.956 433.578C589.956 436.887 589.956 439.479 589.956 442.812C579.638 444.936 559.739 448.615 527.63 444.195C527.514 442.812 527.63 435.43 527.422 433.405C527.422 433.109 526.175 433.035 526.129 433.405C525.875 435.405 525.113 453.158 525.09 456.762C525.09 465.651 525.598 490.736 527.653 495.6C532.27 506.612 552.376 506.637 557.939 506.686C563.502 506.736 581.369 507.328 588.064 500.316C591.642 496.588 592.403 476.243 591.872 458.343C591.526 449.75 591.503 431.998 591.041 431.825ZM559.416 504.612C541.688 504.612 534.024 500.662 531.254 496.687C528.068 492.094 527.791 484.045 527.56 475.181C527.376 468.219 527.56 446.417 527.56 445.973C537.879 448.195 565.141 451.232 589.887 445.084C589.887 455.404 589.887 463.676 589.887 474.021C589.887 481.428 589.449 494.069 585.894 498.44C583.1 502.094 572.228 504.588 559.416 504.612Z" fill="#A6A6A6"/>
<path d="M439.311 615.671C432.985 631.67 395.174 642.534 395.174 642.534L442.819 291.536C436.789 280.97 434.435 268.468 436.171 256.229C439.38 236.477 477.907 179.418 484.14 176.479C477.708 205.946 473.241 235.863 470.774 266.007C460.086 389.384 446.236 598.215 439.311 615.671Z" fill="#EBEBEB"/>
<path d="M448.312 229.563C451.751 223.712 455.237 217.91 458.653 212.033C458.653 211.861 458.492 211.663 458.376 211.836C454.937 216.774 451.59 221.539 448.266 226.452C449.374 223.835 450.436 221.193 451.428 218.502C451.428 218.206 451.151 217.934 451.013 218.255C449.489 221.712 448.104 225.218 446.742 228.749C443.771 233.142 441.146 237.792 438.894 242.649C433.948 252.725 432.469 264.339 434.715 275.463C435.42 278.564 436.45 281.571 437.786 284.425C438.709 286.376 441.664 290.598 441.641 290.721C439.725 302.227 438.27 313.856 436.747 325.436C435.223 337.016 433.653 348.842 432.384 360.595C431.668 367.261 431.207 373.952 430.283 380.569C430.283 380.816 430.606 380.915 430.653 380.569C431.437 374.792 432.592 369.088 433.561 363.286C434.531 357.484 435.431 351.78 436.285 346.003C438.039 334.349 439.609 322.671 441.179 310.992C442.079 304.375 443.049 297.783 443.741 291.24C442.728 288.733 441.548 286.307 440.209 283.981C439.099 281.537 438.195 278.992 437.508 276.376C436.089 271.078 435.65 265.534 436.216 260.056C437.416 248.896 442.818 238.946 448.312 229.563Z" fill="#263238"/>
<path d="M483.84 177.762C480.224 183.638 476.546 189.457 472.806 195.218C469.043 200.971 465.373 206.798 461.541 212.501V211.144L470.775 221.489L471.536 222.328L470.728 223.168C466.85 227.192 462.903 231.118 458.979 235.093L459.302 234.056C460.733 244.747 462.256 255.438 463.526 266.154C464.796 276.869 466.158 287.609 467.266 298.251C465.35 287.634 463.618 276.993 461.956 266.326C460.294 255.66 458.725 244.994 457.132 234.229V233.636L457.547 233.217C461.449 229.217 465.327 225.192 469.274 221.267V222.945L459.994 212.724L459.417 212.057L459.902 211.341C463.78 205.687 467.82 200.132 471.744 194.527C475.668 188.922 479.754 183.268 483.84 177.762Z" fill="#A6A6A6"/>
<path d="M525.114 203.021C535.617 217.835 582.986 276.672 585.987 281.857C588.018 285.338 576.591 301.757 576.753 304.078C577.769 313.707 596.305 375.507 603.969 368.767C614.057 359.927 660.502 298.325 653.761 271.808C647.021 245.29 541.273 181.589 525.022 176.429C508.771 171.269 514.726 188.527 525.114 203.021Z" fill="#AD6359"/>
<path d="M584.764 282.672C584.764 278.919 529.362 215.835 519.182 194.75C509.002 173.664 514.173 169.171 540.165 182.701C566.158 196.231 645.959 245.785 655.424 270.425C664.888 295.066 612.949 362.792 612.949 362.792L576.615 297.387C576.615 297.387 584.717 285.758 584.764 282.672Z" fill="#EBEBEB"/>
<path d="M620.035 343.928C607.5 319.016 590.811 294.869 588.179 290.449C588.041 290.227 587.74 290.449 587.879 290.671C590.672 294.869 606.969 324.694 619.712 344.175C619.781 344.397 620.035 344.175 620.035 343.928Z" fill="#263238"/>
<path d="M564.196 255.388C561.888 252.327 559.718 249.191 557.271 246.179C554.824 243.167 552.423 240.105 549.953 237.118C544.983 231.044 539.919 225.069 534.764 219.192C534.764 219.192 534.556 219.192 534.625 219.192C537.272 222.781 539.958 226.32 542.682 229.809C540.974 228.278 539.15 226.871 537.303 225.513C537.303 225.513 537.142 225.513 537.303 225.661C538.896 227.34 540.558 228.994 542.289 230.599L544.829 232.821C545.065 233.041 545.311 233.247 545.567 233.439C546.675 234.846 547.876 236.253 548.868 237.636C551.177 240.673 553.693 243.71 556.186 246.697C558.679 249.685 561.403 252.623 563.988 255.635C564.058 255.783 564.335 255.561 564.196 255.388Z" fill="#263238"/>
<path d="M570.843 384.964C565.441 380.025 574.028 376.001 574.028 376.001C574.028 376.001 560.386 378.47 556.669 371.063C552.952 363.656 563.594 359.483 564.379 359.162C563.663 359.286 551.083 361.261 548.059 353.36C545.035 345.459 556.207 342.694 556.946 342.521C556.23 342.521 546.766 340.793 545.75 334.25C544.019 322.991 571.466 325.164 578.068 319.238C578.068 319.238 576.983 304.424 576.821 304.103C578.228 307.529 580.666 310.354 583.747 312.127C589.471 314.596 594.665 316.349 596.743 319.682C597.689 321.141 598.178 322.882 598.141 324.657C598.104 326.431 597.541 328.147 596.535 329.559C596.535 329.559 604.107 329.558 606.669 335.706C607.962 338.842 604.361 343.879 604.361 343.879C606.073 343.982 607.727 344.587 609.14 345.628C610.552 346.668 611.67 348.105 612.371 349.78C613.964 354.224 610.062 358.594 610.062 358.594C610.062 358.594 615.764 361.755 615.972 366.866C616.664 377.31 582.431 395.605 570.843 384.964Z" fill="#AD6359"/>
<path d="M609.787 359.507C609.902 359.507 609.995 359.507 609.902 359.68C599.654 369.026 586.989 374.813 573.591 376.272C573.152 376.272 572.922 375.581 573.383 375.457C586.176 372.053 598.438 366.68 609.787 359.507Z" fill="#263238"/>
<path d="M604.707 344.003C604.845 344.003 604.961 344.127 604.845 344.25C593.445 354.428 579.021 359.918 564.171 359.731C563.663 359.731 563.202 359.138 563.802 359.114C573.867 358.743 594.157 350.991 604.707 344.003Z" fill="#263238"/>
<path d="M555.908 342.127C570.428 342.127 583.493 337.189 596.236 330.103C596.397 330.103 596.49 330.275 596.374 330.374C591.042 335.683 582.524 339.337 575.599 341.559C569.246 343.761 562.465 344.144 555.931 342.67C555.631 342.596 555.585 342.127 555.908 342.127Z" fill="#263238"/>
<path d="M610.664 358.717C611.981 357.571 612.977 356.06 613.543 354.348C614.109 352.636 614.223 350.79 613.872 349.014C613.386 347.316 612.345 345.861 610.941 344.915C609.215 344.03 607.313 343.606 605.4 343.68C606.614 342.231 607.391 340.423 607.63 338.494C607.869 336.565 607.558 334.604 606.739 332.866C605.796 331.337 604.343 330.251 602.676 329.829C600.75 329.397 598.778 329.239 596.813 329.36C597.728 328.457 598.43 327.335 598.863 326.087C599.296 324.838 599.448 323.498 599.306 322.175C599.1 320.725 598.573 319.348 597.771 318.159C596.968 316.969 595.911 316.002 594.689 315.336C591.825 313.805 588.804 312.636 585.687 311.855C584.079 311.398 582.529 310.735 581.07 309.879C579.777 309.04 577.953 307.41 577.769 305.756C577.769 305.411 577.284 305.633 577.446 305.756C578.074 306.89 578.76 307.986 579.5 309.04C580.37 310.051 581.364 310.931 582.455 311.657C585.198 313.161 588.037 314.456 590.95 315.534C593.498 316.579 595.644 318.51 597.044 321.015C597.671 322.324 597.943 323.795 597.829 325.262C597.715 326.728 597.219 328.131 596.398 329.311C596.375 329.341 596.361 329.378 596.357 329.417C596.354 329.455 596.361 329.494 596.378 329.529C596.396 329.563 596.422 329.591 596.454 329.61C596.486 329.628 596.523 329.636 596.559 329.632C598.318 329.833 600.046 330.264 601.707 330.916C603.074 331.498 604.248 332.504 605.077 333.804C605.81 335.4 606.136 337.173 606.022 338.946C605.909 340.72 605.36 342.429 604.431 343.903C606.306 344.303 608.102 345.046 609.74 346.1C610.798 346.967 611.599 348.141 612.049 349.483C612.553 351.016 612.647 352.67 612.32 354.257C611.994 355.845 611.261 357.304 610.202 358.47V358.593C610.202 358.593 612.002 359.68 612.095 359.705C612.187 359.729 612.095 359.705 612.095 359.581C611.632 359.266 611.155 358.978 610.664 358.717V358.717Z" fill="#263238"/>
<path d="M516.505 176.577C519.298 182.922 522.045 189.317 524.7 195.736C527.355 202.156 530.055 208.551 532.595 215.019L532.918 215.834L532.225 216.328L521.168 224.328L521.491 222.673C524.492 227.463 527.401 232.327 530.332 237.191L530.609 237.66L530.471 238.179C527.493 248.055 524.631 257.931 521.537 267.635C518.444 277.338 515.374 287.214 512.119 296.942C514.612 286.942 517.267 277.017 519.991 267.116C522.715 257.215 525.554 247.364 528.37 237.488V238.475C525.392 233.537 522.415 228.846 519.506 223.982L518.883 222.97L519.806 222.328L531.002 214.55L530.633 215.859C528.116 209.365 525.808 202.798 523.361 196.28C520.914 189.761 518.767 183.095 516.505 176.577Z" fill="#A6A6A6"/>
<path d="M528.277 188.799C527.7 174.43 510.964 170.677 500.83 170.381C488.803 170.035 481.047 172.035 476.615 184.972C471.998 198.626 470.359 214.033 469.482 228.477C469.454 229.033 469.221 229.556 468.834 229.928C468.446 230.301 467.936 230.494 467.416 230.464C466.895 230.435 466.407 230.186 466.059 229.771C465.71 229.357 465.53 228.811 465.557 228.255C466.573 211.613 467.335 180.701 481.601 170.035C494.759 160.159 531.232 164.652 532.201 189.022C532.201 191.713 528.369 191.491 528.277 188.799Z" fill="#455A64"/>
<path d="M458.124 235.809C458.034 237.716 458.476 239.608 459.393 241.247C460.309 242.885 461.659 244.196 463.272 245.014C464.886 245.832 466.689 246.12 468.455 245.841C470.221 245.563 471.87 244.73 473.194 243.449C474.518 242.168 475.457 240.496 475.892 238.644C476.327 236.792 476.239 234.844 475.639 233.045C475.039 231.247 473.954 229.68 472.521 228.541C471.088 227.402 469.371 226.744 467.588 226.649C465.2 226.534 462.867 227.432 461.095 229.147C459.323 230.862 458.255 233.256 458.124 235.809V235.809Z" fill="#263238"/>
<path d="M461.724 236.006C461.671 237.152 461.936 238.289 462.486 239.273C463.037 240.257 463.848 241.045 464.816 241.537C465.785 242.028 466.868 242.202 467.929 242.036C468.99 241.869 469.981 241.37 470.777 240.601C471.573 239.833 472.138 238.829 472.401 237.717C472.664 236.605 472.613 235.435 472.254 234.354C471.896 233.273 471.246 232.33 470.386 231.644C469.527 230.959 468.497 230.56 467.426 230.5C466.712 230.457 465.998 230.566 465.324 230.82C464.651 231.074 464.031 231.468 463.5 231.98C462.97 232.492 462.54 233.112 462.235 233.803C461.93 234.494 461.756 235.243 461.724 236.006V236.006Z" fill="#EBEBEB"/>
<path d="M519.343 235.093C513.618 276.351 516.157 285.955 519.735 290.202C522.42 293.118 525.699 295.332 529.315 296.671L530.192 293.881L529.753 295.288L530.192 293.881C527.015 292.677 524.134 290.718 521.766 288.152C519.181 285.091 516.388 276.301 522.043 235.463L519.343 235.093Z" fill="#C7C7C7"/>
<path d="M526.016 293.266L525.741 293.972C525.195 295.369 525.812 296.974 527.118 297.557L531.144 299.355C532.45 299.938 533.951 299.278 534.496 297.881L534.771 297.175C535.317 295.778 534.7 294.173 533.394 293.59L529.368 291.792C528.062 291.209 526.561 291.869 526.016 293.266Z" fill="#263238"/>
<path d="M543.859 233.192C554.409 262.524 557.918 278.844 554.894 284.573C553.107 287.625 550.701 290.207 547.853 292.128L549.261 294.597C552.508 292.401 555.247 289.447 557.271 285.955C560.872 279.141 557.733 263.536 546.422 232.106L543.859 233.192Z" fill="#C7C7C7"/>
<path d="M544.046 296.265L544.459 296.89C545.276 298.126 546.875 298.42 548.03 297.546L551.593 294.852C552.748 293.978 553.023 292.268 552.206 291.032L551.793 290.407C550.976 289.171 549.377 288.878 548.221 289.751L544.659 292.445C543.503 293.319 543.229 295.029 544.046 296.265Z" fill="#263238"/>
<path d="M547.251 230.773C545.316 224.232 543.003 217.825 540.326 211.589C538.842 208.873 536.706 206.631 534.14 205.095C533.609 205.095 533.308 199.984 533.147 195.787C533.031 192.108 532.939 187.787 531.993 186.701C531.461 186.217 530.774 185.972 530.076 186.018C529.379 186.064 528.726 186.397 528.253 186.948C527.422 188.133 527.815 192.429 528.068 196.108C528.369 200.305 528.646 205.416 528.068 205.466C525.892 207.428 524.183 209.917 523.082 212.725C521.11 219.424 519.621 226.275 518.627 233.218C518.212 237.613 519.573 237.983 520.774 238.279C522.459 238.674 523.382 237.366 524.167 232.477C525.414 224.699 526.66 211.712 531.554 211.169C536.471 211.169 539.841 224.304 542.173 231.613C543.627 236.18 544.481 236.551 546.236 235.909C547.297 235.514 548.475 234.946 547.251 230.773Z" fill="#263238"/>
<path d="M511.864 175.689C510.964 178.158 502.123 194.725 491.089 194.725C484.163 194.725 485.825 169.22 485.825 169.22V167.64L484.209 145.419L510.064 132.827L513.757 131.197C513.757 131.197 513.757 137.32 513.757 144.925V146.061C513.757 146.505 513.757 146.9 513.757 147.295C513.757 148.431 513.757 149.592 513.757 150.752C513.757 151.912 513.757 152.505 513.757 153.419C513.757 154.332 513.757 155.246 513.757 156.184C513.539 162.724 512.906 169.241 511.864 175.689V175.689Z" fill="#AD6359"/>
<path d="M513.711 144.924C510.862 150.661 506.879 155.667 502.04 159.593C497.201 163.52 491.621 166.274 485.687 167.663L484.071 145.442L509.925 132.85L513.619 131.22C513.619 131.22 513.688 137.319 513.711 144.924Z" fill="#263238"/>
<path d="M458.076 112.308C454.66 151.294 476.128 157.886 483.977 158.651C491.11 159.367 515.486 160.775 522.642 122.381C529.798 83.988 513.847 69.9639 497.688 67.4455C481.53 64.9271 461.47 73.3217 458.076 112.308Z" fill="#AD6359"/>
<path d="M469.989 103.641C470.82 103.535 471.644 103.378 472.459 103.172C473.362 103.146 474.231 102.798 474.929 102.185C475.106 101.941 475.203 101.641 475.203 101.333C475.203 101.024 475.106 100.724 474.929 100.481C474.53 100.041 474.029 99.7223 473.478 99.5574C472.926 99.3926 472.343 99.3875 471.789 99.5427C470.616 99.6868 469.533 100.284 468.742 101.222C468.574 101.454 468.474 101.734 468.453 102.026C468.432 102.319 468.491 102.612 468.624 102.869C468.756 103.126 468.956 103.336 469.198 103.473C469.441 103.61 469.715 103.669 469.989 103.641Z" fill="#263238"/>
<path d="M494.967 104.679C494.14 104.506 493.323 104.284 492.52 104.012C491.655 103.897 490.847 103.491 490.212 102.852C490.038 102.607 489.943 102.308 489.943 102C489.943 101.692 490.038 101.393 490.212 101.148C490.641 100.738 491.164 100.457 491.728 100.336C492.292 100.214 492.876 100.256 493.42 100.457C494.581 100.688 495.618 101.375 496.329 102.383C496.481 102.622 496.564 102.903 496.569 103.192C496.573 103.481 496.498 103.765 496.353 104.009C496.208 104.253 496 104.447 495.754 104.566C495.507 104.685 495.234 104.724 494.967 104.679V104.679Z" fill="#263238"/>
<path d="M489.38 114.358C489.38 114.358 489.565 114.358 489.565 114.605C489.334 117.246 489.565 120.333 491.689 121.37C491.689 121.37 491.689 121.543 491.689 121.518C488.942 120.925 488.78 116.827 489.38 114.358Z" fill="#263238"/>
<path d="M491.758 111.716C495.798 111.716 495.613 120.259 491.896 120.309C488.18 120.358 488.457 111.766 491.758 111.716Z" fill="#263238"/>
<path d="M493.327 112.209C494.019 112.703 494.689 113.592 495.635 113.691C496.582 113.789 497.367 112.95 497.944 112.086H498.082C498.082 113.74 497.436 115.419 495.774 115.616C494.112 115.814 493.212 114.333 492.865 112.654C492.796 112.456 493.073 112.012 493.327 112.209Z" fill="#263238"/>
<path d="M474.351 113.569C474.351 113.569 474.144 113.569 474.144 113.816C474.144 116.482 473.82 119.544 471.558 120.383C471.558 120.383 471.558 120.556 471.558 120.531C474.328 120.161 474.79 116.087 474.351 113.569Z" fill="#263238"/>
<path d="M472.16 110.753C468.143 110.383 467.728 118.975 471.444 119.321C475.161 119.667 475.507 111.074 472.16 110.753Z" fill="#263238"/>
<path d="M470.451 111.221C469.804 111.641 469.135 112.431 468.373 112.456C467.611 112.481 466.873 111.493 466.365 110.579C466.365 110.579 466.249 110.579 466.226 110.579C466.111 112.234 466.526 113.962 467.981 114.357C469.435 114.752 470.289 113.369 470.82 111.888C470.912 111.493 470.728 111.048 470.451 111.221Z" fill="#263238"/>
<path d="M487.347 135.567C486.77 136.209 486.193 137.073 485.293 137.172C484.371 137.173 483.46 136.972 482.615 136.579C482.615 136.579 482.453 136.579 482.5 136.579C482.864 137.096 483.353 137.498 483.914 137.741C484.475 137.985 485.087 138.061 485.685 137.962C486.198 137.802 486.655 137.481 486.997 137.041C487.338 136.601 487.549 136.062 487.601 135.493C487.647 135.517 487.44 135.468 487.347 135.567Z" fill="#263238"/>
<path d="M477.237 125.543C477.237 125.543 476.614 129.518 476.544 131.395C476.544 131.567 476.96 131.666 477.56 131.716C479.057 132.06 480.614 131.956 482.06 131.416C483.505 130.876 484.784 129.92 485.755 128.654C485.893 128.481 485.755 128.284 485.524 128.382C483.233 129.95 480.526 130.678 477.814 130.456C477.814 129.938 479.13 123.716 478.853 123.667C477.486 123.761 476.136 124.043 474.836 124.506C475.944 116.21 478.276 108.186 479.268 99.8157C479.268 99.7503 479.244 99.6875 479.201 99.6412C479.157 99.5949 479.099 99.5688 479.037 99.5688C478.976 99.5688 478.918 99.5949 478.874 99.6412C478.831 99.6875 478.807 99.7503 478.807 99.8157C476.055 108.344 474.106 117.144 472.989 126.086C472.874 127.123 476.544 125.839 477.237 125.543Z" fill="#263238"/>
<path d="M478.761 130.751C479.609 132.14 480.778 133.272 482.155 134.035C482.876 134.388 483.678 134.508 484.463 134.381C486.287 134.035 486.448 132.307 486.217 130.776C486.111 129.928 485.901 129.098 485.594 128.307C483.619 129.881 481.224 130.737 478.761 130.751V130.751Z" fill="#263238"/>
<path d="M482.154 134.037C482.876 134.389 483.678 134.509 484.463 134.382C486.286 134.037 486.448 132.308 486.217 130.778C485.299 130.768 484.404 131.082 483.67 131.671C482.935 132.26 482.403 133.092 482.154 134.037V134.037Z" fill="#FF9CBD"/>
<path d="M460.225 98.532C464.518 100.013 479.823 89.841 485.963 75.1997C487.031 83.7277 490.853 91.5882 496.767 97.4209C506.739 107.297 516.203 108.038 516.203 108.038C516.203 108.038 519.158 125.667 521.882 126.062C524.606 126.457 541.757 66.0889 493.789 65.3976C493.789 65.3976 479.754 63.8915 470.982 72.6565C462.21 81.4216 460.225 98.532 460.225 98.532Z" fill="#263238"/>
<path d="M516.595 120.949C516.595 120.949 524.651 108.802 529.822 111.863C534.993 114.925 528.875 132.628 522.758 135.023C521.995 135.385 521.172 135.577 520.337 135.59C519.502 135.602 518.674 135.433 517.902 135.094C517.13 134.755 516.43 134.253 515.844 133.617C515.259 132.981 514.799 132.224 514.494 131.393L516.595 120.949Z" fill="#AD6359"/>
<path d="M527.954 116.9C527.954 116.9 528.07 116.9 527.954 117.073C523.684 118.9 521.398 123.097 519.806 127.492C520.056 127.036 520.397 126.643 520.803 126.342C521.21 126.04 521.673 125.836 522.16 125.745C522.647 125.653 523.148 125.676 523.626 125.811C524.104 125.947 524.549 126.192 524.93 126.529C525.046 126.529 524.93 126.801 524.815 126.752C524.064 126.499 523.259 126.499 522.508 126.751C521.757 127.002 521.096 127.494 520.614 128.159C519.815 129.277 519.133 130.486 518.582 131.764C518.374 132.183 517.682 131.961 517.844 131.492C517.82 125.566 522.114 117.443 527.954 116.9Z" fill="#263238"/>
<path d="M485.616 175.367C484.024 176.255 486.355 208.007 487.371 209.785C487.74 210.452 507.223 193.983 513.71 172.749C513.71 172.824 502.306 166.132 485.616 175.367Z" fill="#AD6359"/>
<path d="M451.456 238.943L362.587 268.53L398.593 392.25L487.462 362.662L451.456 238.943Z" fill="#455A64"/>
<path d="M387.718 268.164L429.822 254.085L425.834 240.441L383.73 254.519L387.718 268.164Z" fill="#A6A6A6"/>
<path d="M393.304 251.314L398.498 249.586L396.651 243.29L409.255 239.068L411.102 245.364L416.273 243.636L412.926 232.179L389.888 239.883L393.304 251.314Z" fill="#A6A6A6"/>
<path d="M468.673 286.078C470.044 287.579 470.954 289.493 471.28 291.563C471.606 293.632 471.333 295.759 470.497 297.658C473.76 298.381 476.684 300.302 478.761 303.09C482.2 308.176 476.245 316.2 476.245 316.2C479.488 317.701 482.231 320.214 484.116 323.41C486.956 328.62 482.039 337.632 482.039 337.632C484.301 340.775 485.431 344.683 485.224 348.643C484.278 359.186 470.728 366.396 462.14 371.087C453.553 375.778 425.206 380.494 419.874 381.975L391.272 323.435C391.272 323.435 424.098 290.745 434.901 286.77C444.019 283.412 463.225 280.548 468.673 286.078Z" fill="#AD6359"/>
<path d="M395.173 319.632C385.386 327.681 355.931 358.668 362.856 374.445C369.781 390.222 393.419 388.642 426.129 380.617L395.173 319.632Z" fill="#AD6359"/>
<path d="M395.174 319.632C385.387 327.681 354.454 357.927 362.28 378.198C368.512 394.296 396.305 396.246 429.108 388.074L395.174 319.632Z" fill="#EBEBEB"/>
<path d="M412.278 388.742C402.028 362.693 387.531 336.892 385.315 332.275C385.308 332.245 385.295 332.217 385.276 332.194C385.257 332.17 385.233 332.152 385.206 332.14C385.179 332.129 385.15 332.124 385.121 332.126C385.092 332.129 385.064 332.139 385.04 332.155C385.015 332.171 384.994 332.194 384.979 332.22C384.964 332.246 384.955 332.276 384.952 332.307C384.95 332.338 384.954 332.369 384.965 332.398C384.976 332.427 384.993 332.452 385.015 332.472C387.324 336.941 400.966 368.273 411.931 388.989C412.024 389.211 412.278 389.013 412.278 388.742Z" fill="#263238"/>
<path d="M469.644 296.943C459.187 298.005 449.584 302.35 439.774 306.103C439.731 306.119 439.696 306.153 439.676 306.197C439.657 306.241 439.654 306.292 439.67 306.337C439.685 306.383 439.717 306.421 439.758 306.442C439.799 306.462 439.846 306.465 439.889 306.449C449.607 302.622 459.926 300.869 469.76 297.461C469.813 297.435 469.857 297.39 469.882 297.333C469.908 297.277 469.915 297.213 469.901 297.151C469.888 297.09 469.855 297.036 469.808 296.998C469.761 296.96 469.703 296.94 469.644 296.943V296.943Z" fill="#263238"/>
<path d="M475.715 315.533C473.354 316.033 471.064 316.864 468.905 318.002C466.597 319.064 464.289 320.126 461.98 321.262C457.363 323.508 452.747 325.854 448.245 328.372C448.037 328.372 448.245 328.842 448.245 328.718C452.862 326.496 457.479 324.348 462.234 322.323C464.542 321.311 466.851 320.323 469.321 319.36C471.609 318.583 473.815 317.548 475.9 316.274C475.992 316.248 476.07 316.184 476.118 316.096C476.165 316.008 476.178 315.903 476.154 315.805C476.129 315.707 476.069 315.623 475.987 315.572C475.905 315.521 475.807 315.507 475.715 315.533V315.533Z" fill="#263238"/>
<path d="M481.83 337.706C479.713 338.157 477.683 338.992 475.828 340.175L469.526 343.335C465.325 345.434 461.124 347.508 456.853 349.458C456.645 349.458 456.853 349.903 456.969 349.804C461.332 347.878 465.694 346.002 470.034 344.027L476.405 341.064C478.414 340.339 480.289 339.244 481.946 337.829C481.946 337.829 481.946 337.706 481.83 337.706Z" fill="#263238"/>
<path d="M393.81 320.176C390.378 322.881 387.123 325.834 384.069 329.015L381.761 331.484L380.768 332.176C379.383 333.163 377.998 334.176 376.705 335.287C374.199 337.47 371.824 339.82 369.595 342.323C369.434 342.521 369.595 342.768 369.872 342.595C372.309 340.247 374.91 338.101 377.652 336.176L378.713 335.41C377.421 336.916 376.174 338.472 375.02 340.077C371.907 344.339 369.039 348.799 366.433 353.434C366.317 353.656 366.64 353.829 366.756 353.607C371.534 345.41 392.356 323.485 394.641 320.843C396.927 318.201 395.611 318.67 393.81 320.176Z" fill="#263238"/>
<path d="M712.371 139.369C697.74 160.296 679.074 177.617 657.639 190.157C636.223 177.608 617.574 160.288 602.953 139.369C583.701 112.209 584.647 69.4212 612.187 60.187C642.75 49.9899 657.708 99.1483 657.708 99.1483C657.708 99.1483 672.921 49.7677 703.184 60.3104C730.654 69.7421 731.693 112.111 712.371 139.369Z" fill="#794B93"/>
<path d="M636.218 168.601L627.93 131.615L622.506 144.652H588.941V140.479H619.966L629.015 118.678L635.502 147.516L644.666 87.7654L652.746 135.023L659.14 115.295L669.205 147.59L671.444 140.454H726.545V144.627H674.237L669.205 160.775L659.071 128.257L651.568 151.417L644.874 112.209L636.218 168.601Z" fill="white"/>
<path d="M885.757 768.059V805.884H871.629V784.354H822.668V805.884H808.541V768.059H885.757Z" fill="#794B93"/>
<path opacity="0.1" d="M822.668 789.242H808.541V805.883H822.668V789.242Z" fill="black"/>
<path opacity="0.1" d="M885.758 789.242H871.63V805.883H885.758V789.242Z" fill="black"/>
<path d="M951.871 937.656H742.476L754.018 797.563H940.329L951.871 937.656Z" fill="#794B93"/>
<path opacity="0.1" d="M847.185 937.656H742.476L754.018 797.563H847.185V937.656Z" fill="black"/>
<path d="M879.409 859.462V875.758H854.802V902.078H839.566V875.758H814.958V859.462H839.566V833.143H854.802V859.462H879.409Z" fill="#FFFFFD"/>
</svg>
