<svg width="1001" height="1001" viewBox="0 0 1001 1001" fill="none" xmlns="http://www.w3.org/2000/svg">
<path d="M804.42 249.818C801.678 253.22 799.829 257.345 799.061 261.77L788.368 268.228V237.706L788.568 238L805.641 224.601C811.776 225.606 818.049 224.558 823.612 221.6C832.385 216.535 838.766 199.143 838.766 199.143C838.766 199.143 817.879 196.597 810.8 206.03C806.93 210.919 804.864 217.165 804.993 223.583L788.368 236.687V214.15C791.482 212.589 794.234 210.303 796.423 207.457C798.613 204.611 800.187 201.277 801.03 197.696C804.071 185.021 787.895 160.018 787.895 160.018C787.895 160.018 771.021 185.718 774.51 198.741C775.302 202.241 776.886 205.477 779.121 208.16C781.356 210.844 784.173 212.892 787.322 214.123V263.056L775.308 252.337C775.57 248.918 775.155 245.478 774.089 242.245C773.024 239.011 771.332 236.058 769.127 233.579C761.051 223.797 739.492 224.521 739.492 224.521C739.492 224.521 748.589 244.083 756.316 250.595C763.095 256.303 772.442 253.972 774.685 253.275L787.322 264.611V279.457H768.553L776.205 330.962H799.211L806.862 279.457H788.468V269.622L800.232 262.547C806.339 264.433 812.872 263.91 818.652 261.073C825.285 257.008 831.124 251.603 835.849 245.155C835.849 245.155 813.143 238.938 804.42 249.818Z" fill="#794B93"/>
<path d="M663.049 147.262H410.614V169.317H663.049V147.262Z" fill="white"/>
<path d="M663.049 180.331H410.614V202.385H663.049V180.331Z" fill="white"/>
<path d="M663.049 213.399H410.614V235.454H663.049V213.399Z" fill="white"/>
<path d="M663.049 246.495H410.614V268.55H663.049V246.495Z" fill="white"/>
<path d="M663.049 279.564H410.614V301.618H663.049V279.564Z" fill="white"/>
<path d="M663.049 312.632H410.614V334.687H663.049V312.632Z" fill="white"/>
<path d="M663.049 345.701H410.614V367.756H663.049V345.701Z" fill="white"/>
<path d="M663.049 378.77H410.614V400.824H663.049V378.77Z" fill="white"/>
<path d="M663.049 411.838H410.614V433.893H663.049V411.838Z" fill="white"/>
<path d="M663.049 444.906H410.614V466.961H663.049V444.906Z" fill="white"/>
<path d="M663.049 477.975H410.614V500.03H663.049V477.975Z" fill="white"/>
<path d="M663.049 511.044H410.614V533.098H663.049V511.044Z" fill="white"/>
<path d="M663.049 544.14H410.614V566.194H663.049V544.14Z" fill="white"/>
<path d="M393.914 147.262H141.479V169.317H393.914V147.262Z" fill="white"/>
<path d="M393.914 180.331H141.479V202.385H393.914V180.331Z" fill="white"/>
<path d="M393.914 213.399H141.479V235.454H393.914V213.399Z" fill="white"/>
<path d="M393.914 246.495H141.479V268.55H393.914V246.495Z" fill="white"/>
<path d="M393.914 279.564H141.479V301.618H393.914V279.564Z" fill="white"/>
<path d="M393.914 312.632H141.479V334.687H393.914V312.632Z" fill="white"/>
<path d="M393.914 345.701H141.479V367.756H393.914V345.701Z" fill="white"/>
<path d="M393.914 378.77H141.479V400.824H393.914V378.77Z" fill="white"/>
<path d="M393.914 411.838H141.479V433.893H393.914V411.838Z" fill="white"/>
<path d="M393.914 444.906H141.479V466.961H393.914V444.906Z" fill="white"/>
<path d="M393.914 477.975H141.479V500.03H393.914V477.975Z" fill="white"/>
<path d="M393.914 511.044H141.479V533.098H393.914V511.044Z" fill="white"/>
<path d="M393.914 544.14H141.479V566.194H393.914V544.14Z" fill="white"/>
<path d="M675.587 125.502H128.92V141.581H675.587V125.502Z" stroke="#263238" stroke-miterlimit="10"/>
<path d="M129.291 671.27H104.367V1000H129.291V671.27Z" stroke="#263238" stroke-miterlimit="10"/>
<path d="M704.222 671.27H679.298V1000H704.222V671.27Z" stroke="#263238" stroke-miterlimit="10"/>
<path d="M137.618 590.876H672.321C681.893 590.876 691.072 594.964 697.841 602.242C704.609 609.519 708.411 619.388 708.411 629.68V688.019H101.552V629.706C101.549 624.611 102.479 619.564 104.29 614.855C106.101 610.146 108.756 605.866 112.105 602.26C115.454 598.655 119.431 595.794 123.809 593.84C128.186 591.887 132.878 590.88 137.618 590.876V590.876Z" fill="#794B93" stroke="#794B93" stroke-miterlimit="10"/>
<path d="M152.272 659.881H690.988" stroke="#263238" stroke-miterlimit="10"/>
<path d="M110.474 659.881H125.403" stroke="#263238" stroke-miterlimit="10"/>
<path d="M84.4303 830.288H59.5059V999.999H84.4303V830.288Z" stroke="#263238" stroke-miterlimit="10"/>
<path d="M252.27 830.288H227.346V999.999H252.27V830.288Z" stroke="#263238" stroke-miterlimit="10"/>
<path d="M92.7536 749.894H220.242C229.814 749.894 238.993 753.982 245.762 761.259C252.53 768.536 256.332 778.406 256.332 788.697V847.036H56.688V788.697C56.688 778.411 60.4869 768.545 67.2498 761.269C74.0127 753.992 83.1861 749.901 92.7536 749.894V749.894Z" fill="#794B93" stroke="#794B93" stroke-miterlimit="10"/>
<path d="M890.333 357.734H774.011V952.648H890.333V357.734Z" stroke="#263238" stroke-miterlimit="10"/>
<path d="M953.467 357.734H903.619V952.648H953.467" stroke="#263238" stroke-miterlimit="10"/>
<path d="M755.741 999.115V330.936H911.917" stroke="#263238" stroke-miterlimit="10"/>
<path d="M880.34 620.354H867.055V675.745H880.34V620.354Z" stroke="#263238" stroke-miterlimit="10"/>
<path d="M926.873 620.354H913.588V675.745H926.873V620.354Z" stroke="#263238" stroke-miterlimit="10"/>
<path d="M600.514 267.881C600.514 267.881 601.013 281.976 598.022 290.311C595.031 298.645 596.576 316.412 597.548 319.52C598.52 322.629 594.632 333.107 594.632 333.107L603.854 346.667C603.854 346.667 614.522 329.436 619.855 320.056C625.189 310.677 633.04 302.316 630.523 297.09C628.006 291.865 620.354 281.44 619.855 278.841C619.357 276.242 614.871 273.642 614.871 273.642L607.119 292.401C607.119 292.401 605.673 278.841 605.673 272.597C605.673 266.353 601.985 263.191 600.514 267.881Z" fill="white"/>
<path opacity="0.15" d="M600.514 267.881C600.514 267.881 601.013 281.976 598.022 290.311C595.031 298.645 596.576 316.412 597.548 319.52C598.52 322.629 594.632 333.107 594.632 333.107L603.854 346.667C603.854 346.667 614.522 329.436 619.855 320.056C625.189 310.677 633.04 302.316 630.523 297.09C628.006 291.865 620.354 281.44 619.855 278.841C619.357 276.242 614.871 273.642 614.871 273.642L607.119 292.401C607.119 292.401 605.673 278.841 605.673 272.597C605.673 266.353 601.985 263.191 600.514 267.881Z" fill="black" stroke="#263238" stroke-linecap="round" stroke-linejoin="round"/>
<path d="M600.514 267.881C600.514 267.881 601.013 281.976 598.022 290.311C595.031 298.645 596.576 316.412 597.548 319.52C598.52 322.629 594.632 333.107 594.632 333.107L603.854 346.667C603.854 346.667 614.522 329.436 619.855 320.056C625.189 310.677 633.04 302.316 630.523 297.09C628.006 291.865 620.354 281.44 619.855 278.841C619.357 276.242 614.871 273.642 614.871 273.642L607.119 292.401C607.119 292.401 605.673 278.841 605.673 272.597C605.673 266.353 601.985 263.191 600.514 267.881Z" stroke="#263238" stroke-linecap="round" stroke-linejoin="round"/>
<path d="M592.763 330.052L612.179 350.9C612.179 350.9 551.04 459.941 544.734 463.05C538.428 466.158 514.65 445.283 514.65 445.283L498.624 350.311C498.624 350.311 520.009 362.665 527.287 375.688C534.565 388.712 539.4 389.972 539.4 389.972L592.763 330.052Z" fill="white"/>
<path d="M535.71 419.422C533.791 419.422 531.847 410.391 531.847 405.541C531.847 400.69 521.528 409.721 521.528 409.721L509.938 393.08L506.175 395.036L514.649 445.255C514.649 445.255 538.427 466.104 544.733 462.969C551.039 459.834 605.573 362.557 611.63 351.811C596.725 365.398 537.405 419.422 535.71 419.422Z" fill="#794B93"/>
<path opacity="0.5" d="M535.71 419.422C533.791 419.422 531.847 410.391 531.847 405.541C531.847 400.69 521.528 409.721 521.528 409.721L509.938 393.08L506.175 395.036L514.649 445.255C514.649 445.255 538.427 466.104 544.733 462.969C551.039 459.834 605.573 362.557 611.63 351.811C596.725 365.398 537.405 419.422 535.71 419.422Z" fill="white"/>
<path d="M592.763 330.052L612.179 350.9C612.179 350.9 551.04 459.941 544.734 463.05C538.428 466.158 514.65 445.283 514.65 445.283L498.624 350.311C498.624 350.311 520.009 362.665 527.287 375.688C534.565 388.712 539.4 389.972 539.4 389.972L592.763 330.052Z" stroke="#263238" stroke-linecap="round" stroke-linejoin="round"/>
<path d="M530.376 424.193C531.623 412.134 539.399 389.945 539.399 389.945C539.399 389.945 529.13 405.435 526.015 413.474" stroke="#263238" stroke-linecap="round" stroke-linejoin="round"/>
<path d="M480.526 957.123C488.441 964.403 497.519 970.078 507.32 973.872C524.144 980.571 531.621 984.591 534.113 990.621C536.606 996.65 534.113 1000 534.113 1000H427.562C427.562 1000 421.954 990.621 431.3 971.862C440.647 953.104 480.526 957.123 480.526 957.123Z" fill="white" stroke="#263238" stroke-linecap="round" stroke-linejoin="round"/>
<path d="M484.342 961.089C484.342 961.089 475.643 965.189 478.36 966.931C481.076 968.673 488.13 964.599 488.13 964.599C488.13 964.599 479.456 971.62 483.793 972.21C488.13 972.8 494.66 968.699 494.66 968.699C494.66 968.699 488.678 976.873 491.395 977.462C494.112 978.052 501.165 972.103 501.165 972.103" stroke="#263238" stroke-linecap="round" stroke-linejoin="round"/>
<path d="M426.592 991.559L534.116 990.621" stroke="#263238" stroke-linecap="round" stroke-linejoin="round"/>
<path d="M521.652 671.055C521.652 671.055 509.19 780.256 507.32 806.384C505.451 832.512 488.627 878.069 485.511 889.458C482.324 903.764 480.24 918.329 479.28 933.004C479.867 939.334 480.908 945.606 482.396 951.763C482.396 951.763 483.642 957.793 471.803 960.472C459.964 963.152 438.155 967.172 438.155 967.172C438.155 967.172 430.055 964.492 430.678 939.034C431.301 913.576 432.547 866.68 438.155 844.571C443.763 822.463 451.24 786.286 453.11 778.916C454.979 771.547 450.617 650.286 450.617 650.286L520.406 649.616L521.652 671.055Z" fill="#263238" stroke="#263238" stroke-linecap="round" stroke-linejoin="round"/>
<path d="M431.301 957.123C439.216 964.403 448.295 970.078 458.095 973.872C474.919 980.571 482.396 984.591 484.889 990.621C487.381 996.65 484.889 1000 484.889 1000H378.337C378.337 1000 372.729 990.621 382.076 971.862C391.422 953.104 431.301 957.123 431.301 957.123Z" fill="white" stroke="#263238" stroke-linecap="round" stroke-linejoin="round"/>
<path d="M444.138 966.368C444.138 966.368 430.554 974.541 432.723 975.694C434.891 976.846 448.475 969.852 448.475 969.852C448.475 969.852 440.873 979.204 445.21 978.615C449.547 978.025 454.457 972.21 454.457 972.21C454.457 972.21 450.095 982.125 453.36 980.973C456.063 979.561 458.471 977.573 460.439 975.131" stroke="#263238" stroke-linecap="round" stroke-linejoin="round"/>
<path d="M376.99 988.851L484.888 990.62" stroke="#263238" stroke-linecap="round" stroke-linejoin="round"/>
<path d="M395.785 642.917C395.785 642.917 399.523 747.429 398.9 767.527C398.277 787.626 388.307 809.734 387.061 833.852C385.815 857.971 376.892 952.808 376.892 963.528C376.892 974.247 377.316 976.283 377.939 978.293C378.562 980.303 393.915 975.881 402.639 972.532C411.363 969.182 441.322 965.805 441.322 965.805C441.322 965.805 436.337 955.783 436.337 948.414C436.337 941.044 435.091 928.985 436.337 924.965C437.583 920.946 445.06 837.202 450.045 821.793C455.03 806.384 463.754 755.468 464.377 736.04C465 716.611 472.477 650.956 472.477 650.956C472.477 650.956 422.579 652.966 395.785 642.917Z" fill="#263238" stroke="#263238" stroke-linecap="round" stroke-linejoin="round"/>
<path d="M474.644 722.642C474.943 718.622 475.117 714.871 475.117 711.44" stroke="white" stroke-linecap="round" stroke-linejoin="round"/>
<path d="M441.321 958.971V938.551C441.321 928.315 449.771 877.211 457.148 831.788C462.632 798.13 469.86 763.212 473.224 736.281" stroke="white" stroke-linecap="round" stroke-linejoin="round"/>
<path d="M408.894 315.206C408.894 315.206 386.088 337.636 384.144 339.324C382.2 341.012 364.728 371.642 359.893 383.648C355.057 395.653 359.394 418.083 362.385 437.244C365.376 456.404 384.219 518.093 384.219 518.093L379.359 674.057C379.359 674.057 412.832 689.198 431.7 692.816C450.568 696.433 480.701 694.906 480.701 694.906L487.007 661.006L494.759 693.325C494.759 693.325 524.344 689.68 537.928 673.521L521.453 474.761L512.231 385.55C512.231 385.55 509.738 364.112 504.953 354.786C500.167 345.461 473.897 327.131 455.453 319.949C437.009 312.767 408.894 315.206 408.894 315.206Z" fill="white"/>
<path d="M428.062 450.642L379.709 422.933L381.752 402.915C381.752 402.915 364.904 400.074 368.767 388.283C372.63 376.492 388.183 354.169 391.348 346.639C394.514 339.109 411.961 325.201 411.961 325.201L418.915 314.803C412.908 314.803 408.945 315.232 408.945 315.232C408.945 315.232 386.139 337.662 384.195 339.35C382.251 341.038 364.779 371.668 359.944 383.674C355.108 395.679 359.445 418.109 362.436 437.27C365.427 456.43 384.27 518.119 384.27 518.119L379.409 674.083C379.409 674.083 387.36 677.674 397.704 681.774C396.283 624.802 393.741 516.565 394.688 515.037C395.984 512.974 418.541 479.691 424.971 472.161C431.402 464.631 396.632 474.224 398.551 472.857C400.471 471.491 428.062 450.642 428.062 450.642Z" fill="#794B93"/>
<path opacity="0.5" d="M428.062 450.642L379.709 422.933L381.752 402.915C381.752 402.915 364.904 400.074 368.767 388.283C372.63 376.492 388.183 354.169 391.348 346.639C394.514 339.109 411.961 325.201 411.961 325.201L418.915 314.803C412.908 314.803 408.945 315.232 408.945 315.232C408.945 315.232 386.139 337.662 384.195 339.35C382.251 341.038 364.779 371.668 359.944 383.674C355.108 395.679 359.445 418.109 362.436 437.27C365.427 456.43 384.27 518.119 384.27 518.119L379.409 674.083C379.409 674.083 387.36 677.674 397.704 681.774C396.283 624.802 393.741 516.565 394.688 515.037C395.984 512.974 418.541 479.691 424.971 472.161C431.402 464.631 396.632 474.224 398.551 472.857C400.471 471.491 428.062 450.642 428.062 450.642Z" fill="white"/>
<path d="M474.297 425.854C474.297 425.854 490.972 598.111 487.009 661.06Z" fill="white"/>
<path d="M474.297 425.854C474.297 425.854 490.972 598.111 487.009 661.06" stroke="#263238" stroke-linecap="round" stroke-linejoin="round"/>
<path d="M400.771 571.902L451.242 579.271V593.34L401.394 584.631L400.771 571.902Z" stroke="#263238" stroke-linecap="round" stroke-linejoin="round"/>
<path d="M527.26 581.281L511.682 587.311L509.813 573.912L522.275 569.222" stroke="#263238" stroke-linecap="round" stroke-linejoin="round"/>
<path d="M408.894 315.206C408.894 315.206 386.088 337.636 384.144 339.324C382.2 341.012 364.728 371.642 359.893 383.648C355.057 395.653 359.394 418.083 362.385 437.244C365.376 456.404 384.219 518.093 384.219 518.093L379.359 674.057C379.359 674.057 412.832 689.198 431.7 692.816C450.568 696.433 480.701 694.906 480.701 694.906L487.007 661.006L494.759 693.325C494.759 693.325 524.344 689.68 537.928 673.521L521.453 474.761L512.231 385.55C512.231 385.55 509.738 364.112 504.953 354.786C500.167 345.461 473.897 327.131 455.453 319.949C437.009 312.767 408.894 315.206 408.894 315.206Z" stroke="#263238" stroke-linecap="round" stroke-linejoin="round"/>
<path d="M405.979 319.333C405.979 319.333 449.148 375.153 456.426 389.758C463.704 404.362 474.396 422.103 474.396 422.103C474.396 422.103 474.87 372.526 468.564 349.587C462.258 326.648 455.479 322.522 455.479 322.522C451.886 318.561 447.431 315.626 442.518 313.984C437.604 312.342 432.387 312.043 427.339 313.115C408.895 316.251 405.979 319.333 405.979 319.333Z" fill="white" stroke="#263238" stroke-linecap="round" stroke-linejoin="round"/>
<path d="M473.25 383.888L462.731 360.6V340.261L448.176 324.182L446.73 350.256L457.398 363.307L462.382 401.119C468.439 412.267 474.471 422.262 474.471 422.262C474.471 422.262 474.571 403.557 473.25 383.888Z" fill="#263238" stroke="#263238" stroke-linecap="round" stroke-linejoin="round"/>
<path d="M454.48 336.082L468.562 349.642L456.424 318.342C456.424 318.342 451.09 332.946 454.48 336.082Z" fill="white" stroke="#263238" stroke-linecap="round" stroke-linejoin="round"/>
<path d="M423.925 199.921C423.925 199.921 404.534 209.327 396.284 226.023C388.034 242.718 400.147 263.057 404.036 268.256C406.825 271.853 409.912 275.172 413.258 278.171L417.146 282.861L417.619 306.336L452.987 338.681L462.683 305.291C462.683 305.291 479.183 301.646 481.625 294.866C484.068 288.087 476.765 246.362 474.821 238.001C472.877 229.64 467.069 213.508 467.069 213.508C467.069 213.508 468.989 205.683 457.847 198.367C446.706 191.051 423.925 199.921 423.925 199.921Z" fill="white"/>
<g opacity="0.15">
<path opacity="0.15" d="M423.925 199.921C423.925 199.921 404.534 209.327 396.284 226.023C388.034 242.718 400.147 263.057 404.036 268.256C406.825 271.853 409.912 275.172 413.258 278.171L417.146 282.861L417.619 306.336L452.987 338.681L462.683 305.291C462.683 305.291 479.183 301.646 481.625 294.866C484.068 288.087 476.765 246.362 474.821 238.001C472.877 229.64 467.069 213.508 467.069 213.508C467.069 213.508 468.989 205.683 457.847 198.367C446.706 191.051 423.925 199.921 423.925 199.921Z" fill="black"/>
<g opacity="0.15">
<path opacity="0.15" d="M437.109 286.371C435.165 275.974 442.916 248.854 434.616 230.926C427.961 216.589 408.695 217.527 401.068 218.626C399.262 220.902 397.691 223.382 396.382 226.022C388.132 242.717 400.245 263.057 404.134 268.256C406.924 271.853 410.01 275.172 413.356 278.171L417.244 282.861L417.718 306.336L427.488 315.26C427.488 312.258 427.488 309.9 427.488 308.533C427.488 303.951 446.829 303.683 451.989 301.619C457.148 299.556 439.028 296.769 437.109 286.371Z" fill="black"/>
<path opacity="0.5" d="M437.109 286.371C435.165 275.974 442.916 248.854 434.616 230.926C427.961 216.589 408.695 217.527 401.068 218.626C399.262 220.902 397.691 223.382 396.382 226.022C388.132 242.717 400.245 263.057 404.134 268.256C406.924 271.853 410.01 275.172 413.356 278.171L417.244 282.861L417.718 306.336L427.488 315.26C427.488 312.258 427.488 309.9 427.488 308.533C427.488 303.951 446.829 303.683 451.989 301.619C457.148 299.556 439.028 296.769 437.109 286.371Z" fill="black"/>
</g>
</g>
<g style="mix-blend-mode:multiply" opacity="0.22">
<path d="M437.109 286.371C435.165 275.974 442.916 248.854 434.616 230.926C427.961 216.589 408.695 217.527 401.068 218.626C399.262 220.902 397.691 223.382 396.382 226.022C388.132 242.717 400.245 263.057 404.134 268.256C406.924 271.853 410.01 275.172 413.356 278.171L417.244 282.861L417.718 306.336L427.488 315.26C427.488 312.258 427.488 309.9 427.488 308.533C427.488 303.951 446.829 303.683 451.989 301.619C457.148 299.556 439.028 296.769 437.109 286.371Z" fill="black"/>
</g>
<path d="M423.925 199.921C423.925 199.921 404.534 209.327 396.284 226.023C388.034 242.718 400.147 263.057 404.036 268.256C406.825 271.853 409.912 275.172 413.258 278.171L417.146 282.861L417.619 306.336L452.987 338.681L462.683 305.291C462.683 305.291 479.183 301.646 481.625 294.866C484.068 288.087 476.765 246.362 474.821 238.001C472.877 229.64 467.069 213.508 467.069 213.508C467.069 213.508 468.989 205.683 457.847 198.367C446.706 191.051 423.925 199.921 423.925 199.921Z" stroke="#263238" stroke-linecap="round" stroke-linejoin="round"/>
<path d="M429.257 283.906C429.257 283.906 431.201 292.267 434.591 294.357C442.432 299.142 451.296 301.654 460.313 301.646" stroke="#263238" stroke-linecap="round" stroke-linejoin="round"/>
<path d="M474.871 238L471.955 243.735C471.955 243.735 483.594 255.232 483.121 258.34C482.647 261.449 473.425 265.147 473.425 265.147" fill="white"/>
<path opacity="0.15" d="M474.871 238L471.955 243.735C471.955 243.735 483.594 255.232 483.121 258.34C482.647 261.449 473.425 265.147 473.425 265.147" fill="black"/>
<path d="M474.871 238L471.955 243.735C471.955 243.735 483.594 255.232 483.121 258.34C482.647 261.449 473.425 265.147 473.425 265.147" stroke="#263238" stroke-linecap="round" stroke-linejoin="round"/>
<path d="M460.016 249.362L460.788 251.453L454.383 254.186L461.112 254.025" stroke="#263238" stroke-linecap="round" stroke-linejoin="round"/>
<path d="M460.961 241.832C460.961 241.832 452.786 239.42 449.372 246.79" stroke="#263238" stroke-linecap="round" stroke-linejoin="round"/>
<path d="M477.911 272.462C474.189 273.607 470.343 274.22 466.471 274.284" stroke="#263238" stroke-linecap="round" stroke-linejoin="round"/>
<path d="M438.031 216.617C451.116 208.282 467.143 213.481 467.143 213.481C467.143 213.481 469.062 205.683 457.921 198.367C446.779 191.051 423.949 199.921 423.949 199.921C423.949 199.921 404.557 209.327 396.307 226.023C388.058 242.718 400.171 263.057 404.059 268.256C406.849 271.853 409.935 275.172 413.281 278.171L417.169 282.861V284.764C425.045 283.745 426.341 282.352 426.341 282.352C425.251 282.379 424.168 282.154 423.166 281.692C422.164 281.229 421.267 280.54 420.534 279.672C417.144 276.537 410.838 271.311 412.284 264.022C413.73 256.733 419.562 256.706 422.478 259.306C425.394 261.905 425.394 262.441 428.784 260.887C432.174 259.332 427.313 249.926 427.313 249.926L432.298 246.282C437.159 242.637 438.604 238.457 434.791 234.812C430.977 231.168 424.896 224.977 438.031 216.617Z" fill="#263238" stroke="#263238" stroke-linecap="round" stroke-linejoin="round"/>
<path d="M412.783 301.137L405.979 319.387L444.786 359.557L454.98 338.172L412.783 301.137Z" fill="white" stroke="#263238" stroke-linecap="round" stroke-linejoin="round"/>
<path d="M514.648 172.962C514.648 172.962 539.872 220.957 543.76 243.896C547.648 266.835 554.926 297.09 554.926 297.09L618.483 289.265C618.483 289.265 609.261 225.647 603.529 204.262C597.796 182.877 596.251 178.161 596.251 178.161C596.251 178.161 525.266 170.336 514.648 172.962Z" fill="#263238" stroke="#263238" stroke-linecap="round" stroke-linejoin="round"/>
<path d="M523.397 333.106C523.397 333.106 525.889 314.348 525.889 312.74C525.889 311.132 525.266 284.495 525.266 284.495C525.266 284.495 534.488 263.056 535.959 262.065C537.429 261.073 552.932 252.686 553.904 256.33C554.876 259.975 550.515 261.556 549.044 263.11C547.574 264.664 541.293 267.8 540.794 269.381C540.296 270.962 537.404 282.94 537.404 282.94C537.404 282.94 550.016 272.516 553.406 272.516C556.796 272.516 559.712 280.85 559.712 280.85C559.712 280.85 564.098 287.63 564.098 291.275C564.098 294.919 565.071 299.1 562.628 301.726C560.185 304.352 559.238 306.415 555.849 306.415C552.459 306.415 548.072 310.596 548.072 313.704C548.072 316.813 548.072 327.264 545.156 330.4C540.652 334.474 535.961 338.302 531.099 341.869L523.397 333.106Z" fill="white"/>
<path opacity="0.15" d="M523.397 333.106C523.397 333.106 525.889 314.348 525.889 312.74C525.889 311.132 525.266 284.495 525.266 284.495C525.266 284.495 534.488 263.056 535.959 262.065C537.429 261.073 552.932 252.686 553.904 256.33C554.876 259.975 550.515 261.556 549.044 263.11C547.574 264.664 541.293 267.8 540.794 269.381C540.296 270.962 537.404 282.94 537.404 282.94C537.404 282.94 550.016 272.516 553.406 272.516C556.796 272.516 559.712 280.85 559.712 280.85C559.712 280.85 564.098 287.63 564.098 291.275C564.098 294.919 565.071 299.1 562.628 301.726C560.185 304.352 559.238 306.415 555.849 306.415C552.459 306.415 548.072 310.596 548.072 313.704C548.072 316.813 548.072 327.264 545.156 330.4C540.652 334.474 535.961 338.302 531.099 341.869L523.397 333.106Z" fill="black" stroke="#263238" stroke-linecap="round" stroke-linejoin="round"/>
<path d="M523.397 333.106C523.397 333.106 525.889 314.348 525.889 312.74C525.889 311.132 525.266 284.495 525.266 284.495C525.266 284.495 534.488 263.056 535.959 262.065C537.429 261.073 552.932 252.686 553.904 256.33C554.876 259.975 550.515 261.556 549.044 263.11C547.574 264.664 541.293 267.8 540.794 269.381C540.296 270.962 537.404 282.94 537.404 282.94C537.404 282.94 550.016 272.516 553.406 272.516C556.796 272.516 559.712 280.85 559.712 280.85C559.712 280.85 564.098 287.63 564.098 291.275C564.098 294.919 565.071 299.1 562.628 301.726C560.185 304.352 559.238 306.415 555.849 306.415C552.459 306.415 548.072 310.596 548.072 313.704C548.072 316.813 548.072 327.264 545.156 330.4C540.652 334.474 535.961 338.302 531.099 341.869L523.397 333.106Z" stroke="#263238" stroke-linecap="round" stroke-linejoin="round"/>
<path d="M564.148 291.356L547.648 299.717" stroke="#263238" stroke-linecap="round" stroke-linejoin="round"/>
<path d="M559.76 280.931L544.257 290.846" stroke="#263238" stroke-linecap="round" stroke-linejoin="round"/>
<path d="M620.901 276.24C620.901 276.24 610.233 283.02 610.233 286.156C610.233 289.291 612.725 289.8 616.04 288.246C619.355 286.691 625.761 284.574 625.761 280.93C625.761 277.285 624.29 275.704 620.901 276.24Z" fill="white"/>
<path opacity="0.15" d="M620.901 276.24C620.901 276.24 610.233 283.02 610.233 286.156C610.233 289.291 612.725 289.8 616.04 288.246C619.355 286.691 625.761 284.574 625.761 280.93C625.761 277.285 624.29 275.704 620.901 276.24Z" fill="black" stroke="#263238" stroke-linecap="round" stroke-linejoin="round"/>
<path d="M620.901 276.24C620.901 276.24 610.233 283.02 610.233 286.156C610.233 289.291 612.725 289.8 616.04 288.246C619.355 286.691 625.761 284.574 625.761 280.93C625.761 277.285 624.29 275.704 620.901 276.24Z" stroke="#263238" stroke-linecap="round" stroke-linejoin="round"/>
<path d="M618.957 268.925C618.957 268.925 608.762 271.605 608.289 275.705C607.815 279.805 620.901 276.75 623.817 275.705C626.733 274.66 626.733 267.371 618.957 268.925Z" fill="white"/>
<path opacity="0.15" d="M618.957 268.925C618.957 268.925 608.762 271.605 608.289 275.705C607.815 279.805 620.901 276.75 623.817 275.705C626.733 274.66 626.733 267.371 618.957 268.925Z" fill="black" stroke="#263238" stroke-linecap="round" stroke-linejoin="round"/>
<path d="M618.957 268.925C618.957 268.925 608.762 271.605 608.289 275.705C607.815 279.805 620.901 276.75 623.817 275.705C626.733 274.66 626.733 267.371 618.957 268.925Z" stroke="#263238" stroke-linecap="round" stroke-linejoin="round"/>
<path d="M624.291 284.494C624.291 284.494 612.177 290.765 611.679 292.855C611.181 294.946 610.233 298.054 615.069 298.054C619.904 298.054 629.151 292.855 629.625 289.184C630.098 285.513 628.179 284.494 624.291 284.494Z" fill="white"/>
<path opacity="0.15" d="M624.291 284.494C624.291 284.494 612.177 290.765 611.679 292.855C611.181 294.946 610.233 298.054 615.069 298.054C619.904 298.054 629.151 292.855 629.625 289.184C630.098 285.513 628.179 284.494 624.291 284.494Z" fill="black" stroke="#263238" stroke-linecap="round" stroke-linejoin="round"/>
<path d="M624.291 284.494C624.291 284.494 612.177 290.765 611.679 292.855C611.181 294.946 610.233 298.054 615.069 298.054C619.904 298.054 629.151 292.855 629.625 289.184C630.098 285.513 628.179 284.494 624.291 284.494Z" stroke="#263238" stroke-linecap="round" stroke-linejoin="round"/>
<path d="M628.103 291.892C628.103 291.892 616.887 297.412 616.439 299.261C615.99 301.11 615.093 303.87 619.579 303.87C624.066 303.87 632.59 299.261 633.038 296.045C633.487 292.83 631.692 291.892 628.103 291.892Z" fill="white"/>
<path opacity="0.15" d="M628.103 291.892C628.103 291.892 616.887 297.412 616.439 299.261C615.99 301.11 615.093 303.87 619.579 303.87C624.066 303.87 632.59 299.261 633.038 296.045C633.487 292.83 631.692 291.892 628.103 291.892Z" fill="black" stroke="#263238" stroke-linecap="round" stroke-linejoin="round"/>
<path d="M628.103 291.892C628.103 291.892 616.887 297.412 616.439 299.261C615.99 301.11 615.093 303.87 619.579 303.87C624.066 303.87 632.59 299.261 633.038 296.045C633.487 292.83 631.692 291.892 628.103 291.892Z" stroke="#263238" stroke-linecap="round" stroke-linejoin="round"/>
<path d="M533.193 179.795C533.193 179.795 553.431 217.714 557.17 233.123C560.909 248.531 564.024 291.408 564.024 291.408L604.526 286.049C604.526 286.049 603.28 247.192 597.672 228.433C592.064 209.674 587.703 185.556 587.703 185.556L533.193 179.795Z" fill="#7D7D7D"/>
<path d="M566.766 236.982C566.766 236.982 562.13 246.254 564.772 250.194C567.414 254.133 573.72 255.902 574.393 256.974C575.066 258.045 579.702 288.354 579.702 288.354L593.958 286.934C593.958 286.934 587.004 258.742 588.649 253.409C590.294 248.077 594.307 243.065 590.319 238.429C586.331 233.793 580.026 230.578 576.063 231.274C572.626 232.456 569.459 234.401 566.766 236.982V236.982Z" fill="white"/>
<path d="M553.83 183.118C553.83 183.118 565.444 215.275 564.447 220.93C563.45 226.584 560.784 235.91 566.765 237.008C572.747 238.107 575.389 232.024 577.383 232.372C579.377 232.721 582.692 239.501 585.683 235.588C588.674 231.676 591.64 225.244 586.68 218.813C581.72 212.381 578.056 208.844 575.389 202.064C573.353 196.455 571.581 190.74 570.08 184.94L553.83 183.118Z" fill="white"/>
<path d="M406.453 349.775C406.453 349.775 413.73 349.775 422.479 358.136C431.227 366.497 462.358 400.396 462.358 400.396L522.999 329.435L542.938 349.775L470.982 462.969C467.553 464.225 463.931 464.762 460.314 464.551C454.98 464.015 373.478 420.736 373.478 420.736" fill="white"/>
<path d="M450.643 447.132C439.677 447.132 402.938 424.943 391.348 415.242C387.433 411.831 384.18 407.624 381.777 402.862L373.478 420.736C373.478 420.736 454.98 464.015 460.314 464.551C463.931 464.762 467.553 464.225 470.982 462.97L522.974 380.968C504.231 400.745 459.267 447.132 450.643 447.132Z" fill="#794B93"/>
<path opacity="0.5" d="M450.643 447.132C439.677 447.132 402.938 424.943 391.348 415.242C387.433 411.831 384.18 407.624 381.777 402.862L373.478 420.736C373.478 420.736 454.98 464.015 460.314 464.551C463.931 464.762 467.553 464.225 470.982 462.97L522.974 380.968C504.231 400.745 459.267 447.132 450.643 447.132Z" fill="white"/>
<path d="M406.453 349.775C406.453 349.775 413.73 349.775 422.479 358.136C431.227 366.497 462.358 400.396 462.358 400.396L522.999 329.435L542.938 349.775L470.982 462.969C467.553 464.225 463.931 464.762 460.314 464.551C454.98 464.015 373.478 420.736 373.478 420.736" stroke="#263238" stroke-linecap="round" stroke-linejoin="round"/>
<path d="M406.45 438.984L379.781 438.448" stroke="#263238" stroke-linecap="round" stroke-linejoin="round"/>
<path d="M462.258 399.377C462.258 399.377 446.88 419.154 445.011 429.873" stroke="#263238" stroke-linecap="round" stroke-linejoin="round"/>
<path d="M457.471 401.415C457.471 401.415 444.386 414.144 441.271 420.843" stroke="#263238" stroke-linecap="round" stroke-linejoin="round"/>
<path d="M29.5952 1000H1000" stroke="#263238" stroke-linecap="round" stroke-linejoin="round"/>
</svg>
