<svg width="1000" height="1000" viewBox="0 0 1000 1000" fill="none" xmlns="http://www.w3.org/2000/svg">
<path d="M146.432 914.273C-48.8105 799.936 -48.8105 614.546 146.432 500.297C341.674 386.049 658.237 385.961 853.544 500.297C1048.85 614.633 1048.79 800.024 853.544 914.273C658.302 1028.52 341.695 1028.63 146.432 914.273Z" fill="#F5F5F5"/>
<path d="M302.693 919.792C387.421 919.792 456.106 879.576 456.106 829.966C456.106 780.356 387.421 740.14 302.693 740.14C217.966 740.14 149.281 780.356 149.281 829.966C149.281 879.576 217.966 919.792 302.693 919.792Z" fill="#E0E0E0"/>
<path d="M657.271 787.984C763.65 729.79 826.742 639.087 798.19 585.394C769.639 531.701 660.256 535.349 553.877 593.543C447.498 651.737 384.406 742.44 412.958 796.133C441.51 849.826 550.892 846.178 657.271 787.984Z" fill="#E0E0E0"/>
<path d="M763.129 660.434C784.4 634.719 817.722 617.963 855.189 608.063C892.203 598.315 898.833 575.207 874.301 567.738C846.508 559.24 811.826 574.835 789.454 596.541C750.496 634.369 745.594 663.259 745.594 663.259L763.129 660.434Z" fill="#BA68C8"/>
<path opacity="0.15" d="M763.129 660.434C784.4 634.719 817.722 617.963 855.189 608.063C892.203 598.315 898.833 575.207 874.301 567.738C846.508 559.24 811.826 574.835 789.454 596.541C750.496 634.369 745.594 663.259 745.594 663.259L763.129 660.434Z" fill="black"/>
<path d="M752.182 658.879C752.025 658.912 751.864 658.912 751.707 658.879C751.579 658.816 751.465 658.728 751.371 658.62C751.276 658.512 751.204 658.386 751.158 658.25C751.112 658.114 751.093 657.969 751.102 657.825C751.111 657.682 751.148 657.541 751.21 657.412C782.782 591.701 852.708 575.536 869.638 576.763C869.921 576.785 870.184 576.92 870.369 577.137C870.555 577.354 870.649 577.637 870.632 577.924C870.604 578.212 870.467 578.479 870.249 578.667C870.032 578.855 869.751 578.95 869.465 578.931C852.88 577.661 784.229 593.672 753.154 658.375C753.047 658.536 752.902 658.667 752.732 658.755C752.562 658.843 752.373 658.886 752.182 658.879V658.879Z" fill="white"/>
<path d="M745.594 667.268C745.595 668.324 745.872 669.362 746.398 670.274C746.923 671.187 747.677 671.942 748.583 672.462C749.489 672.983 750.515 673.251 751.557 673.239C752.599 673.227 753.618 672.935 754.513 672.393C774.294 660.719 803.145 654.257 849.834 667.75C874.668 674.912 886.891 670.115 892.117 659.865C897.948 648.475 885.638 637.457 871.602 632.266C823.811 614.546 780.686 626.637 745.594 661.989V667.268Z" fill="#BA68C8"/>
<path d="M748.335 668.209C748.182 668.212 748.03 668.182 747.889 668.122C747.747 668.062 747.62 667.972 747.515 667.859C747.315 667.651 747.204 667.372 747.204 667.081C747.204 666.791 747.315 666.512 747.515 666.304C788.783 628.893 852.705 636.187 876.891 650.774C877.137 650.921 877.315 651.159 877.388 651.438C877.46 651.717 877.422 652.014 877.28 652.264C877.132 652.514 876.893 652.695 876.614 652.769C876.336 652.843 876.04 652.803 875.79 652.658C852.035 638.355 789.409 631.236 748.962 667.99C748.778 668.123 748.561 668.199 748.335 668.209V668.209Z" fill="white"/>
<path d="M283.864 754.487C265.724 726.407 234.584 705.774 198.52 691.471C162.931 677.365 159.022 653.643 184.245 649.131C212.837 644.028 245.468 663.675 265.163 687.9C299.456 730.13 300.946 759.459 300.946 759.459L283.864 754.487Z" fill="#BA68C8"/>
<path opacity="0.15" d="M283.864 754.487C265.724 726.407 234.584 705.774 198.52 691.471C162.931 677.365 159.022 653.643 184.245 649.131C212.837 644.028 245.468 663.675 265.163 687.9C299.456 730.13 300.946 759.459 300.946 759.459L283.864 754.487Z" fill="black"/>
<path d="M294.837 754.312C294.994 754.343 295.155 754.343 295.312 754.312C295.581 754.213 295.802 754.011 295.927 753.749C296.052 753.487 296.072 753.186 295.981 752.91C272.227 683.892 204.763 659.47 187.746 658.725C187.463 658.713 187.187 658.814 186.977 659.007C186.767 659.199 186.64 659.468 186.623 659.755C186.617 660.046 186.721 660.328 186.914 660.544C187.106 660.76 187.374 660.893 187.66 660.915C204.288 661.616 270.585 685.732 293.93 753.699C294.014 753.873 294.142 754.022 294.301 754.13C294.461 754.238 294.646 754.3 294.837 754.312Z" fill="white"/>
<path d="M301.099 758.123C300.929 759.68 300.367 761.166 299.467 762.438C298.567 763.71 297.358 764.725 295.958 765.386C294.558 766.046 293.014 766.329 291.475 766.208C289.935 766.087 288.453 765.566 287.17 764.694C268.857 752.253 241.583 744.171 196.902 751.552C171.42 755.692 159.845 749.362 155.871 738.651C151.423 726.648 164.941 717.208 179.475 713.725C228.993 701.853 270.412 719.026 301.142 758.298L301.099 758.123Z" fill="#BA68C8"/>
<path d="M297.689 764.015C297.84 764.036 297.993 764.024 298.139 763.978C298.285 763.933 298.418 763.856 298.531 763.752C298.73 763.543 298.842 763.265 298.842 762.974C298.842 762.684 298.73 762.405 298.531 762.197C261.819 720.12 197.574 719.704 171.854 731.291C171.59 731.41 171.384 731.63 171.281 731.904C171.178 732.177 171.186 732.48 171.303 732.747C171.421 733.015 171.638 733.224 171.907 733.328C172.176 733.433 172.476 733.425 172.739 733.306C197.941 721.938 260.999 722.354 296.912 763.642C297.005 763.759 297.124 763.854 297.258 763.918C297.393 763.983 297.54 764.016 297.689 764.015V764.015Z" fill="white"/>
<path d="M782.494 254.036L782.149 253.86L699.828 205.804L699.331 205.563C660.87 185.85 609.56 191.786 554.363 227.971C443.493 300.69 359.013 468.076 365.664 601.841C368.968 668.493 394.321 714.206 432.609 734.313L432.933 734.488L515.276 782.566L515.664 782.785C554.125 802.498 605.479 796.65 660.719 760.422C771.589 687.702 856.069 520.316 849.418 386.552C846.157 319.856 820.804 274.143 782.494 254.036Z" fill="#37474F"/>
<path d="M512.445 781.012L433.04 734.445L432.651 734.204C394.363 714.053 369.032 668.34 365.706 601.776C362.747 542.111 377.929 475.809 405.441 414.238L405.981 412.88L487.783 462.294C460.228 523.865 445.09 590.167 448.048 649.832C451.18 715.082 475.517 760.247 512.445 781.012Z" fill="#263238"/>
<path d="M660.763 760.378C771.633 687.659 856.113 520.272 849.462 386.508C842.81 252.743 747.532 203.285 636.663 276.005C525.793 348.724 441.291 516.111 447.942 649.853C454.594 783.596 549.893 833.098 660.763 760.378Z" fill="#455A64"/>
<path d="M754.658 243.654L615.693 534.028L585.784 501.173C576.866 491.755 564.662 486.26 551.793 485.869C538.924 485.478 526.418 490.221 516.96 499.08C507.501 507.939 501.846 520.207 501.208 533.25C500.57 546.292 505 559.067 513.548 568.832L592.349 655.417C601.014 664.965 613.022 670.689 625.8 671.363C626.707 671.363 627.614 671.363 628.521 671.363C630.905 671.36 633.287 671.185 635.647 670.837C643.579 669.666 651.108 666.542 657.575 661.739C664.042 656.935 669.252 650.599 672.747 643.282L832.12 310.35C815.772 273.377 788.562 250.466 754.658 243.654Z" fill="#37474F"/>
<path d="M867.516 148.023C866.652 147.519 865.745 147.037 864.838 146.599C854.653 141.593 842.925 140.89 832.229 144.643C821.533 148.396 812.742 156.299 807.783 166.619L630.962 536.043L620.899 525.091C617.994 521.872 614.613 519.131 610.879 516.965C605.609 513.898 583.194 500.734 579.566 498.61C570.723 493.421 560.338 491.62 550.298 493.535C540.258 495.449 531.227 500.952 524.846 509.044C518.464 517.136 515.155 527.28 515.519 537.636C515.883 547.991 519.897 557.871 526.83 565.481L605.631 652.044C608.585 655.295 612.016 658.066 615.802 660.257C620.942 663.214 643.271 676.356 646.943 678.503C652.02 681.486 657.65 683.374 663.48 684.051C669.31 684.729 675.214 684.18 680.825 682.439C686.437 680.698 691.634 677.802 696.093 673.933C700.551 670.064 704.176 665.304 706.74 659.951L915.932 222.911C920.635 213.061 921.493 201.771 918.333 191.307C915.173 180.842 908.229 171.977 898.894 166.488L867.516 148.023Z" fill="#BA68C8"/>
<path opacity="0.15" d="M867.516 148.023C866.652 147.519 865.745 147.037 864.838 146.599C854.653 141.593 842.925 140.89 832.229 144.643C821.533 148.396 812.742 156.299 807.783 166.619L630.962 536.043L620.899 525.091C617.994 521.872 614.613 519.131 610.879 516.965C605.609 513.898 583.194 500.734 579.566 498.61C570.723 493.421 560.338 491.62 550.298 493.535C540.258 495.449 531.227 500.952 524.846 509.044C518.464 517.136 515.155 527.28 515.519 537.636C515.883 547.991 519.897 557.871 526.83 565.481L605.631 652.044C608.585 655.295 612.016 658.066 615.802 660.257C620.942 663.214 643.271 676.356 646.943 678.503C652.02 681.486 657.65 683.374 663.48 684.051C669.31 684.729 675.214 684.18 680.825 682.439C686.437 680.698 691.634 677.802 696.093 673.933C700.551 670.064 704.176 665.304 706.74 659.951L915.932 222.911C920.635 213.061 921.493 201.771 918.333 191.307C915.173 180.842 908.229 171.977 898.894 166.488L867.516 148.023Z" fill="black"/>
<path opacity="0.15" d="M646.835 678.416C643.207 676.225 620.921 663.083 615.716 660.17C611.931 657.977 608.5 655.207 605.545 651.956L526.744 565.394C523.269 561.548 520.511 557.096 518.603 552.252L549.937 570.585C551.837 575.443 554.613 579.9 558.122 583.727L636.901 670.289C639.8 673.48 643.147 676.218 646.835 678.416V678.416Z" fill="black"/>
<path opacity="0.15" d="M849.028 171.657C844.911 175.404 841.552 179.927 839.137 184.975L657.263 564.956L630.96 536.043L807.781 166.62C810.191 161.563 813.559 157.038 817.693 153.302L849.028 171.657Z" fill="black"/>
<path d="M896.194 164.955C886.006 159.961 874.284 159.264 863.591 163.016C852.898 166.768 844.106 174.663 839.139 184.975L657.264 564.956L620.92 525.004C613.142 516.99 602.594 512.362 591.51 512.098C580.426 511.834 569.676 515.957 561.537 523.592C553.397 531.227 548.507 541.776 547.902 553.004C547.296 564.233 551.023 575.259 558.294 583.749L637.073 670.334C641.789 675.508 647.679 679.438 654.232 681.78C660.784 684.123 667.801 684.808 674.674 683.776C681.547 682.745 688.068 680.028 693.671 675.86C699.274 671.693 703.789 666.202 706.825 659.864L916.018 222.824C920.947 212.482 921.629 200.579 917.911 189.729C914.194 178.878 906.383 169.968 896.194 164.955V164.955Z" fill="#BA68C8"/>
<path d="M299.65 207.667C283.173 207.667 271.9 212.047 260.195 228.913C249.398 244.421 219.942 296.113 219.942 296.113C219.942 296.113 198.347 251.167 196.187 242.208C194.028 233.25 194.157 229.263 196.187 225.365C199.159 220.756 201.023 215.504 201.629 210.032C202.471 199.256 205.063 190.034 202.687 189.728C196.101 189.355 195.842 197.941 192.387 203.001C191.948 203.49 191.401 203.866 190.792 204.101C190.183 204.335 189.528 204.42 188.88 204.35C188.232 204.28 187.61 204.055 187.064 203.695C186.517 203.335 186.062 202.85 185.735 202.278C184.288 199.277 185.066 194.349 184.375 190.801C184.562 188.826 184.872 186.866 185.303 184.931C187.798 185.386 190.346 185.46 192.862 185.15C195.712 189.684 197.656 191.589 201.629 189.749C202.148 188.917 199.923 183.178 197.31 178.798C196.918 178.128 196.282 177.64 195.539 177.44C190.749 176.209 185.749 176.067 180.898 177.024C180.531 177.062 180.176 177.175 179.853 177.355C179.53 177.536 179.247 177.781 179.019 178.075C177.196 180.784 175.743 183.731 174.7 186.836C174.419 187.778 173.556 187.756 173.34 186.946C171.18 176.366 171.18 161.341 171.18 154.31C171.18 148.768 163.211 147.892 162.931 155.821C162.457 166.46 162.638 177.118 163.471 187.734C163.471 188.698 162.52 189.158 162.132 188.107C160.75 184.361 157.359 173.037 155.934 153.499C155.545 148.242 147.166 147.388 147.296 154.77C147.624 167.857 149.303 180.873 152.306 193.605C152.565 194.524 151.723 195.335 151.097 194.284C147.165 186.6 144.025 178.526 141.724 170.19C139.932 163.838 131.574 165.459 133.086 173.366C135.699 187.537 139.845 205.454 146.043 218.268C152.651 231.957 158.353 238.813 161.635 249.568C164.917 260.322 178.501 321.236 193.034 344.979C204.415 363.597 217.437 361.867 231.452 352.054C245.467 342.241 295.547 271.471 295.547 271.471L299.65 207.667Z" fill="#9E6767"/>
<path d="M219.944 296.091C219.944 296.091 226.963 308.16 228.043 317.819C229.827 308.44 228.053 298.724 223.076 290.615L219.944 296.091Z" fill="#874C4C"/>
<path d="M303.15 207.666C294.771 206.79 284.341 206.506 272.723 213.931C261.104 221.356 257.045 231.695 251.408 240.741C245.772 249.787 226.293 281.832 226.293 281.832C226.293 281.832 233.441 312.256 261.86 318.52L304.424 259.95L303.15 207.666Z" fill="#455A64"/>
<path d="M341.308 742.615C343.468 742.33 346.34 749.799 346.383 752.231C346.426 754.662 344.008 759.897 340.833 764.803C336.59 770.644 333.072 776.993 330.36 783.706C327.919 790.452 325.673 794.877 318.871 803.704C311.313 813.538 293.561 829.988 266.611 822.847C260.024 821.095 256.742 818.992 254.344 816.561C253.293 815.483 252.559 814.128 252.227 812.65C251.895 811.171 251.978 809.628 252.466 808.194L341.308 742.615Z" fill="#263238"/>
<path d="M288.354 734.074V734.315C288.045 736.36 288.103 738.445 288.527 740.469C289.267 746.501 288.74 752.624 286.98 758.434C285.219 764.244 282.265 769.61 278.312 774.179C274.558 778.154 270.32 781.628 265.701 784.517C252.052 793.279 250.584 799.258 252.506 808.195C257.084 818.599 288.03 824.929 305.824 809.443C313.502 803.398 319.372 795.306 322.777 786.073C325.359 779.458 328.36 773.02 331.76 766.797C335.194 760.226 341.716 752.823 341.91 746.055C342.018 742.331 338.39 735.41 334.87 729.715C331.631 724.48 328.283 719.508 325.368 720.077L326.189 723.034C323.748 725.597 320.228 726.561 318.112 729.605C315.477 733.307 315.564 738.367 313.944 742.528C313.891 742.742 313.792 742.942 313.654 743.112C313.516 743.283 313.342 743.42 313.145 743.514C312.917 743.553 312.683 743.516 312.477 743.41C312.271 743.303 312.104 743.133 312.001 742.923C311.824 742.493 311.743 742.03 311.763 741.565L311.569 735.191C311.666 733.966 311.346 732.744 310.662 731.73C308.977 729.803 304.831 730.022 302.52 729.934C299.41 729.959 296.303 730.149 293.213 730.503C292.142 730.396 291.068 730.683 290.189 731.314C289.307 732.015 288.665 732.981 288.354 734.074V734.074Z" fill="#37474F"/>
<path d="M242.616 606.726C249.808 630.71 283.431 713.746 285.44 718.74L292.134 735.211C296.543 736.681 301.266 736.886 305.782 735.803C306.495 743.754 307.683 756.217 308.136 762.503C308.309 769.797 308.935 778.821 307.38 786.027C306.063 792.16 304.53 798.6 303.385 804.755C302.888 807.471 302.392 810.209 301.981 812.947C301.285 815.814 301.52 818.833 302.651 821.555C303.34 822.743 304.249 823.784 305.329 824.621C310.125 828.443 316.187 830.247 322.259 829.659C325.47 829.502 328.577 828.457 331.243 826.636C336.469 822.847 338.305 816.254 340.961 810.647C343.855 804.58 342.926 803.901 343.12 797.395C343.293 792.839 344.546 781.274 346.338 769.184C348.13 757.093 355.861 714.6 359.576 672.261C361.09 653.455 361.09 634.555 359.576 615.75C389.075 534.466 402.205 486.125 406.07 459.14C409.979 431.717 408.1 421.904 407.603 406.156L264.147 409.66C252.658 484.877 232.963 574.571 242.616 606.726Z" fill="#9E6767"/>
<path d="M240.369 546.711C243.327 519.068 263.713 412.815 263.713 412.815H408.228C408.228 412.815 409.157 433.207 408.898 442.581C408.639 451.956 405.658 469.063 400.497 490.769C395.336 512.475 376.203 573.739 372.423 582.764C368.644 591.788 361.626 617.963 361.626 617.963C365.167 667.114 355.946 711.228 349.036 769.863C349.036 769.863 347.028 777.77 326.555 776.215C306.645 774.682 302.628 767.235 302.628 767.235L301.311 716.66C301.311 716.66 290.513 720.033 284.034 718.499C284.034 718.499 241.254 611.37 239.181 604.93C237.108 598.49 237.41 574.353 240.369 546.711Z" fill="#BA68C8"/>
<path opacity="0.45" d="M240.369 546.711C243.327 519.068 263.713 412.815 263.713 412.815H408.228C408.228 412.815 409.157 433.207 408.898 442.581C408.639 451.956 405.658 469.063 400.497 490.769C395.336 512.475 376.203 573.739 372.423 582.764C368.644 591.788 361.626 617.963 361.626 617.963C365.167 667.114 355.946 711.228 349.036 769.863C349.036 769.863 347.028 777.77 326.555 776.215C306.645 774.682 302.628 767.235 302.628 767.235L301.311 716.66C301.311 716.66 290.513 720.033 284.034 718.499C284.034 718.499 241.254 611.37 239.181 604.93C237.108 598.49 237.41 574.353 240.369 546.711Z" fill="black"/>
<path opacity="0.2" d="M301.681 482.074C281.209 463.368 276.652 448.474 276.652 448.474C286.945 460.235 299.132 470.138 312.695 477.759C312.695 477.759 293.259 581.844 294.684 603.244C296.11 624.643 301.314 716.66 301.314 716.66C301.314 717.536 287.536 619.343 287.126 611.523C286.197 590.825 301.681 482.074 301.681 482.074Z" fill="black"/>
<path d="M346.663 821.971C348.671 822.562 348.412 828.651 347.505 830.929C345.258 834.904 342.075 838.253 338.241 840.677C332.622 844.558 327.936 849.67 324.528 855.637C318.983 864.239 311.649 871.505 303.041 876.927C291.575 883.525 278.061 885.444 265.249 882.293C251.688 878.394 250.435 875.021 250.543 869.83L346.663 821.971Z" fill="#263238"/>
<path d="M304.769 790.124C301.206 807.647 295.008 820.526 280.647 831.347C269.201 839.977 260.909 844.357 251.774 852.046C247.909 855.331 247.585 862.318 250.543 869.853C256.719 874.869 265.487 877.76 277.256 877.738C290.43 877.738 295.483 875.351 303.041 870.116C306.754 867.542 310.211 864.608 313.364 861.354C319.691 854.915 324.161 846.964 328.653 841.86C333.145 836.757 343.1 831.544 345.929 825.389C347.484 822.016 346.836 814.196 345.8 807.538C344.849 801.427 346.685 790.694 343.791 790.015L343.381 794.396C343.143 795.381 342.539 795.885 340.509 796.586C338.684 796.987 336.802 797.039 334.959 796.739C334.304 796.499 333.591 796.473 332.92 796.665C332.25 796.858 331.656 797.259 331.223 797.813C329.279 800.134 328.761 803.42 326.256 805.347C326.094 805.491 325.902 805.596 325.694 805.654C325.598 805.709 325.489 805.736 325.378 805.732C325.268 805.728 325.161 805.693 325.068 805.632C325.001 805.526 324.957 805.407 324.938 805.282C324.92 805.158 324.927 805.031 324.96 804.909L325.673 798.338C325.759 797.684 325.759 797.021 325.673 796.367C325.537 795.756 325.274 795.183 324.902 794.684C324.529 794.185 324.056 793.773 323.513 793.476C321.695 792.402 319.74 791.584 317.704 791.044C315.585 790.461 313.416 790.086 311.226 789.927C309.077 789.648 306.897 789.714 304.769 790.124Z" fill="#455A64"/>
<path d="M395.186 213.953C395.186 213.953 401.125 222.232 405.984 239.295C411.898 267.318 414.938 295.886 415.054 324.543C415.054 363.247 409.914 425.956 409.914 425.956C365.623 448.473 294.186 435.156 262.743 413.187C264.017 406.221 265.097 369.599 267.58 345.439C269.243 303.998 270.625 282.291 270.906 263.849C271.489 227.007 289.564 207.973 303.299 207.688L337.981 208.236L395.186 213.953Z" fill="#BA68C8"/>
<path d="M406.112 414.589C399.526 420.087 386.676 430.644 384.236 435.967C381.515 442.056 379.917 451.299 378.082 454.76C376.246 458.221 379.01 459.973 382.811 458.725C386.612 457.476 388.879 454.212 391.816 446.24C394.753 438.267 402.916 432.024 402.916 432.024L406.112 414.589Z" fill="#874C4C"/>
<path d="M382.056 486.278C383.632 489.367 387.303 489.389 390.694 489.652C394.827 490.132 399.014 489.653 402.938 488.25C407.653 486.868 411.789 483.951 414.707 479.948C418.033 475.086 418.897 468.997 420.797 463.411C424.771 451.693 436.605 443.238 438.549 430.819C439.348 425.693 439.348 419.648 440.708 416.472C441.55 414.588 461.008 380.616 467.961 365.897C474.613 351.747 479.601 345.089 473.554 328.092C467.508 311.094 446.927 251.276 432.351 230.49C424.101 218.706 410.993 215.333 395.099 213.953C383.006 245.888 397.064 278.896 397.064 278.896L429.155 341.497C429.155 341.497 416.716 384.603 408.942 408.565C406.782 415.136 402.463 419.341 397.518 426.723C395.358 429.921 390.478 435.484 388.75 438.967C386.591 443.348 386.591 446.239 385.511 452.438C383.826 462.316 381.213 484.811 382.056 486.278Z" fill="#9E6767"/>
<path d="M393.479 213.778C401.836 214.107 413.843 215.552 421.012 219.232C428.182 222.912 433.171 227.446 441.42 244.224C449.669 261.002 461.741 293.595 461.741 293.595C461.741 293.595 457.746 318.192 419.393 324.566L393.479 276.094C393.479 276.094 381.925 245.889 393.479 213.778Z" fill="#455A64"/>
<path d="M293.839 135.495C294.972 137.573 295.954 139.733 296.776 141.957C298.053 144.861 299.686 147.591 301.635 150.083C306.602 155.887 313.577 160.136 319.948 164.254C323.791 166.751 328.197 169.095 332.905 168.416C337.612 167.737 342.86 168.766 347.719 169.204L364.714 170.76L363.764 188.874C363.764 188.874 365.924 184.077 368.753 178.338C371.214 173.41 381.537 148.418 381.58 148.309C386.698 135.933 392.766 119.418 386.655 106.407C385.266 103.203 382.945 100.506 380.004 98.6753C380.596 96.6751 380.786 94.5748 380.565 92.4985C380.225 89.5508 379.238 86.7179 377.676 84.2085C376.114 81.699 374.016 79.5769 371.538 77.9985C366.702 74.6831 361.25 72.4025 355.515 71.296C347.909 69.5214 340.126 68.6467 332.322 68.6895C324.675 68.9262 317.061 69.8127 309.56 71.3398C305.376 72.1237 301.137 72.5705 296.884 72.6759C295.052 72.7977 293.212 72.7095 291.399 72.4131C289.145 71.73 286.932 70.9183 284.769 69.9818C284.581 69.9017 284.379 69.8604 284.175 69.8604C283.971 69.8604 283.769 69.9017 283.581 69.9818C283.41 70.0973 283.265 70.2492 283.157 70.4269C283.049 70.6046 282.98 70.804 282.955 71.0113C282.393 73.7458 282.417 76.5707 283.024 79.2952C283.631 82.0196 284.808 84.5801 286.475 86.8037C285.504 86.6692 284.557 86.3887 283.668 85.9713C282.657 85.497 281.683 84.9479 280.752 84.3286C279.167 83.2508 277.779 81.9019 276.649 80.3421C276.493 80.0977 276.256 79.9187 275.98 79.8383C275.548 79.8383 275.202 80.145 274.943 80.4955C273.778 82.2536 272.984 84.2376 272.612 86.3223C272.241 88.4071 272.299 90.5473 272.784 92.6081C273.736 96.7443 275.663 100.585 278.398 103.801C277.064 105.988 276.293 108.48 276.157 111.049C276.021 113.617 276.525 116.179 277.621 118.498C278.581 120.555 279.873 122.435 281.443 124.061C283.387 126.077 285.762 127.719 287.727 129.603C289.981 131.322 292.032 133.299 293.839 135.495Z" fill="#37474F"/>
<path d="M345.603 105.312C345.54 108.583 345.955 111.845 346.834 114.993C347.859 117.758 349.508 120.241 351.65 122.243C354.072 124.328 356.312 126.622 358.344 129.099C360.538 132.955 361.823 137.273 362.102 141.715C362.114 143.024 362.415 144.313 362.983 145.488C363.551 146.663 364.372 147.694 365.384 148.506C370.005 151.419 372.77 145.79 375.231 143.03C378.406 140.051 387.843 136.459 392.205 146.578C396.719 157.092 388.383 171.022 380.803 173.169C367.738 176.871 364.887 167.846 364.887 167.846L362.382 215.158C355.018 229.329 337.699 233.841 326.318 231.585C316.493 229.636 311.094 222.649 320.337 212.529L320.833 198.117C320.833 198.117 309.042 199.541 303.363 198.445C293.882 196.649 289.196 188.479 286.626 177.944C282.545 161.012 280.666 143.205 285.741 105.071C288.052 103.779 297.402 111.16 311.655 112.146C323.37 112.983 335.092 110.624 345.603 105.312V105.312Z" fill="#9E6767"/>
<path d="M320.751 198.073C320.751 198.073 342.13 194.437 349.689 190.669C354.124 188.503 357.812 185.029 360.27 180.703C359.008 185.072 356.893 189.139 354.051 192.663C348.393 199.518 320.557 203.812 320.557 203.812L320.751 198.073Z" fill="#874C4C"/>
<path d="M331.87 122.244L341.825 125.332C342.206 123.953 342.046 122.477 341.377 121.215C340.709 119.954 339.585 119.003 338.241 118.564C337.584 118.369 336.896 118.31 336.216 118.39C335.537 118.471 334.88 118.689 334.286 119.033C333.691 119.376 333.171 119.837 332.756 120.389C332.341 120.941 332.04 121.571 331.87 122.244V122.244Z" fill="#263238"/>
<path d="M328.413 170.081L313.75 175.118C314.035 176.112 314.515 177.038 315.16 177.841C315.805 178.643 316.602 179.306 317.504 179.791C318.407 180.275 319.396 180.57 320.413 180.659C321.43 180.748 322.454 180.629 323.425 180.309C325.398 179.588 327.019 178.12 327.949 176.213C328.879 174.307 329.045 172.109 328.413 170.081V170.081Z" fill="#874C4C"/>
<path d="M327.227 173.717C325.314 173.718 323.454 174.364 321.942 175.554C320.429 176.743 319.349 178.408 318.87 180.288C320.35 180.781 321.947 180.781 323.427 180.288C324.793 179.798 326.001 178.939 326.922 177.805C327.843 176.67 328.441 175.302 328.653 173.848C328.182 173.761 327.705 173.717 327.227 173.717V173.717Z" fill="#F28F8F"/>
<path d="M287.425 123.842L297.553 122.506C297.476 121.841 297.269 121.198 296.943 120.615C296.617 120.033 296.18 119.522 295.657 119.114C295.133 118.706 294.535 118.408 293.896 118.238C293.258 118.068 292.592 118.03 291.938 118.125C290.603 118.301 289.387 118.994 288.545 120.06C287.704 121.126 287.302 122.482 287.425 123.842V123.842Z" fill="#263238"/>
<path d="M349.685 128.223L383.092 139.767C381.22 139.788 379.378 140.246 377.708 141.104C376.039 141.963 374.585 143.199 373.461 144.717L349.814 135.605L349.685 128.223Z" fill="#263238"/>
<path d="M292.413 141.453C292.375 141.998 292.445 142.545 292.619 143.063C292.793 143.58 293.067 144.057 293.425 144.465C293.783 144.873 294.218 145.205 294.705 145.44C295.191 145.675 295.719 145.809 296.257 145.834C296.793 145.839 297.325 145.738 297.823 145.535C298.32 145.333 298.773 145.032 299.156 144.652C299.539 144.272 299.844 143.819 300.055 143.319C300.265 142.818 300.376 142.281 300.382 141.738C300.42 141.192 300.35 140.645 300.176 140.128C300.003 139.611 299.729 139.134 299.37 138.726C299.012 138.317 298.577 137.986 298.091 137.751C297.604 137.516 297.076 137.382 296.538 137.357C296.002 137.351 295.47 137.452 294.973 137.655C294.475 137.858 294.022 138.158 293.639 138.538C293.256 138.919 292.951 139.372 292.741 139.872C292.53 140.372 292.419 140.909 292.413 141.453V141.453Z" fill="#263238"/>
<path d="M330.575 141.452C330.58 142.247 330.815 143.023 331.251 143.683C331.687 144.344 332.305 144.859 333.028 145.166C333.751 145.473 334.547 145.557 335.316 145.409C336.086 145.261 336.796 144.886 337.357 144.331C337.919 143.777 338.307 143.067 338.474 142.29C338.641 141.514 338.578 140.705 338.295 139.963C338.012 139.222 337.52 138.582 336.881 138.122C336.242 137.663 335.483 137.404 334.7 137.378C333.621 137.366 332.582 137.788 331.809 138.552C331.036 139.315 330.592 140.358 330.575 141.452V141.452Z" fill="#263238"/>
<path d="M274.858 135.451C273.693 134.107 272.943 132.447 272.698 130.676C272.646 129.85 272.86 129.029 273.308 128.338C273.756 127.646 274.414 127.122 275.182 126.843L277.341 126.624C284.381 125.967 293.602 125.901 299.174 127.741C306.192 130.062 308.417 132.647 312.541 132.647C316.666 132.647 319.236 130.303 326.621 128.266C332.517 126.646 342.364 127.04 349.923 127.982L352.276 128.288C353.098 128.574 353.805 129.125 354.288 129.857C354.772 130.589 355.006 131.461 354.954 132.34C354.7 134.057 353.948 135.658 352.795 136.94C352.438 137.509 352.189 138.141 352.06 138.802C351.326 142.022 350.938 148.199 349.447 151.594C348.751 153.276 347.763 154.819 346.532 156.15C346.077 156.64 345.578 157.088 345.042 157.486C344.768 157.703 344.479 157.9 344.178 158.077C343.36 158.584 342.491 159.002 341.587 159.326L341.133 159.457C340.907 159.536 340.676 159.601 340.442 159.654L339.73 159.829C338.969 160 338.196 160.11 337.419 160.158C337.088 160.18 336.756 160.18 336.426 160.158H335.195C325.542 160.026 321.611 155.23 319.063 150.323C316.515 145.417 316.904 138.473 312.584 138.473H312.153H311.764C308.525 139.218 309.043 145.526 307.056 150.038C306.315 151.826 305.286 153.477 304.011 154.923C303.783 155.194 303.538 155.451 303.277 155.69C303.163 155.823 303.032 155.941 302.888 156.04L302.478 156.369L302.111 156.675L301.701 156.96L301.377 157.157L301.161 157.31C299.971 157.995 298.691 158.504 297.36 158.822H297.014C295.481 159.143 293.915 159.276 292.35 159.216C289.412 159.34 286.51 158.522 284.056 156.879C281.602 155.235 279.721 152.85 278.68 150.06C277.147 146.6 276.477 140.423 275.7 137.159C275.547 136.534 275.259 135.95 274.858 135.451Z" fill="#263238"/>
<path d="M313.75 138.584L312.994 166.751L297.511 162.196L311.958 138.343C312.566 138.284 313.179 138.366 313.75 138.584V138.584Z" fill="#874C4C"/>
<path d="M530.266 142.153C574.454 142.153 610.276 110.331 610.276 71.0767C610.276 31.8221 574.454 0 530.266 0C486.078 0 450.256 31.8221 450.256 71.0767C450.256 110.331 486.078 142.153 530.266 142.153Z" fill="#BA68C8"/>
<path d="M466.407 112.19C465.954 121.718 458.007 138.759 443.646 145.045C443.454 145.128 443.293 145.27 443.185 145.451C443.077 145.632 443.027 145.842 443.044 146.053C443.061 146.264 443.143 146.464 443.278 146.625C443.413 146.786 443.594 146.9 443.797 146.951C452.006 148.796 460.568 148.171 468.432 145.151C476.296 142.132 483.12 136.85 488.067 129.954L466.407 112.19Z" fill="#BA68C8"/>
<path d="M476.019 65.4474C476.199 62.3324 476.931 59.2756 478.178 56.4232C479.354 53.6324 481.107 51.1302 483.318 49.0856C485.654 46.9174 488.382 45.229 491.351 44.1135C498.472 41.6601 506.193 41.6601 513.314 44.1135C516.311 45.2239 519.069 46.9123 521.434 49.0856C523.635 51.1721 525.373 53.711 526.53 56.5327C527.778 59.3851 528.509 62.4419 528.69 65.557C528.798 68.0102 528.841 70.5729 528.841 73.2451C528.841 75.9173 528.841 78.4362 528.69 80.758C528.509 83.873 527.778 86.9298 526.53 89.7822C525.341 92.5783 523.591 95.0923 521.39 97.1637C519.041 99.3578 516.279 101.049 513.271 102.136C506.14 104.53 498.439 104.53 491.308 102.136C488.312 101.051 485.564 99.3591 483.232 97.1637C481.024 95.0988 479.272 92.5831 478.092 89.7822C476.845 86.9298 476.113 83.873 475.933 80.758C475.825 78.4362 475.76 75.9173 475.76 73.2451C475.76 70.5729 475.911 67.9006 476.019 65.4474ZM512.947 80.2323C512.947 79.2028 513.055 78.0419 513.119 76.8154C513.184 75.5888 513.119 74.2745 513.119 72.9603C513.119 71.6461 513.119 70.3757 513.119 69.1491C513.119 67.9225 512.99 66.9588 512.947 65.8636C512.854 64.5181 512.555 63.1954 512.061 61.9429C511.596 60.7725 510.906 59.7078 510.031 58.8107C509.108 57.893 508.004 57.1838 506.792 56.7299C503.845 55.7085 500.647 55.7085 497.7 56.7299C496.484 57.1887 495.374 57.897 494.44 58.8107C493.571 59.7086 492.888 60.7735 492.431 61.9429C491.938 63.1954 491.639 64.5181 491.546 65.8636C491.413 66.9538 491.341 68.0507 491.33 69.1491C491.33 70.3757 491.33 71.6461 491.33 72.9603C491.33 74.2745 491.33 75.5449 491.33 76.8154C491.341 77.9574 491.413 79.0981 491.546 80.2323C491.677 82.8651 492.699 85.3716 494.44 87.329C495.474 88.3218 496.703 89.0842 498.045 89.567C499.388 90.0498 500.815 90.2425 502.235 90.1326C503.65 90.2473 505.072 90.0567 506.408 89.5735C507.744 89.0902 508.964 88.3253 509.988 87.329C511.714 85.3557 512.753 82.8626 512.947 80.2323V80.2323Z" fill="#FAFAFA"/>
<path d="M588.53 100.143C588.709 100.422 588.792 100.753 588.767 101.085C588.77 101.33 588.724 101.573 588.631 101.799C588.538 102.025 588.401 102.229 588.227 102.399C588.06 102.578 587.86 102.721 587.637 102.819C587.414 102.917 587.174 102.968 586.931 102.969H573.413C572.728 102.994 572.051 102.811 571.469 102.443C570.908 102.027 570.4 101.542 569.958 100.997L553.977 80.6272V100.625C553.968 101.216 553.741 101.781 553.342 102.211C552.942 102.641 552.398 102.903 551.818 102.947H540.761C540.461 102.949 540.164 102.888 539.889 102.767C539.614 102.646 539.367 102.469 539.163 102.246C538.947 102.037 538.776 101.785 538.661 101.507C538.546 101.228 538.489 100.927 538.493 100.625V45.4502C538.489 45.1478 538.546 44.8476 538.661 44.5687C538.776 44.2897 538.947 44.038 539.163 43.8293C539.367 43.6064 539.614 43.429 539.889 43.3083C540.164 43.1876 540.461 43.1264 540.761 43.1284H551.818C552.398 43.1721 552.942 43.4346 553.342 43.8642C553.741 44.2939 553.968 44.8596 553.977 45.4502V63.4767L568.813 45.0121C569.153 44.5995 569.513 44.2048 569.893 43.8293C570.536 43.2999 571.358 43.0481 572.182 43.1284H585.312C585.558 43.1264 585.802 43.176 586.029 43.2739C586.256 43.3719 586.46 43.5163 586.629 43.6979C586.803 43.8681 586.94 44.0724 587.033 44.2984C587.126 44.5244 587.172 44.7673 587.169 45.0121C587.191 45.3469 587.1 45.6793 586.91 45.954L566.178 71.8658L588.53 100.143Z" fill="#FAFAFA"/>
<path d="M736.714 138.278L724.6 141.979L715.854 112.344L727.925 108.664L736.714 138.278Z" fill="#E0E0E0"/>
<path d="M774.529 111.971C774.63 113.173 774.351 114.377 773.734 115.408C773.117 116.439 772.193 117.245 771.095 117.71C771.882 118.616 772.464 119.684 772.801 120.842C773.492 123.032 771.657 126.208 768.007 127.413L740.301 135.868L732.159 108.335C732.159 108.335 736.845 96.1786 737.083 94.3387C737.32 92.4988 734.556 85.7526 734.168 84.4822C733.779 83.2118 738.271 81.5471 741.812 82.9927C742.636 83.3642 743.372 83.9093 743.972 84.5917C745.246 85.9676 746.315 87.5245 747.146 89.2133C748.322 91.6202 748.9 94.282 748.831 96.9671L765.61 91.776C766.768 91.3511 768.037 91.3511 769.195 91.776C769.953 92.0798 770.621 92.5773 771.134 93.2201C771.646 93.8628 771.987 94.6291 772.121 95.4446C772.256 96.26 772.181 97.0969 771.903 97.8741C771.624 98.6513 771.153 99.3424 770.534 99.8803C771.533 99.8069 772.527 100.076 773.357 100.644C774.187 101.212 774.805 102.046 775.112 103.013C775.368 104.136 775.233 105.316 774.729 106.35C774.225 107.384 773.384 108.209 772.348 108.685C773.468 109.452 774.25 110.63 774.529 111.971V111.971Z" fill="#E0E0E0"/>
<path d="M910.295 445.56L894.768 441.771L903.816 403.791L919.343 407.58L910.295 445.56Z" fill="#E0E0E0"/>
<path d="M968.106 441.29C967.462 442.665 966.404 443.799 965.085 444.527C963.766 445.255 962.253 445.54 960.764 445.342C961.044 446.837 961.007 448.375 960.656 449.854C959.965 452.811 956.013 454.979 951.348 453.818L915.803 445.057L924.182 409.771C924.182 409.771 936.944 399.542 938.348 397.68C939.752 395.818 940.961 386.728 941.35 385.042C941.739 383.355 947.677 384.494 950.636 388.371C951.354 389.313 951.856 390.405 952.104 391.569C952.629 393.887 952.818 396.27 952.666 398.644C952.431 402.034 951.394 405.318 949.642 408.215L971.108 413.472C972.631 413.8 973.992 414.66 974.952 415.904C975.484 416.613 975.861 417.429 976.058 418.298C976.256 419.166 976.269 420.067 976.097 420.941C975.809 422.093 975.209 423.14 974.366 423.964C973.523 424.789 972.469 425.357 971.324 425.607C972.46 426.171 973.376 427.106 973.924 428.263C974.473 429.419 974.622 430.728 974.347 431.981C973.91 433.365 973.017 434.555 971.818 435.353C970.619 436.15 969.187 436.506 967.761 436.361C968.504 437.896 968.628 439.664 968.106 441.29V441.29Z" fill="#E0E0E0"/>
<path d="M126 422.846L142.952 428.015L155.218 386.53L138.288 381.361L126 422.846Z" fill="#E0E0E0"/>
<path d="M73.0291 385.983C72.8877 387.668 73.278 389.355 74.1437 390.799C75.0093 392.244 76.3055 393.373 77.8448 394.022C76.7565 395.295 75.9468 396.788 75.4693 398.402C74.4976 401.622 77.089 405.937 82.1639 407.47L121.035 419.32L132.394 380.704C132.394 380.704 125.808 363.664 125.484 360.991C125.16 358.319 129.047 348.988 129.565 347.192C129.997 345.747 123.821 343.096 118.768 345.133C117.566 345.611 116.488 346.36 115.615 347.324C113.82 349.279 112.321 351.494 111.166 353.895C109.511 357.296 108.696 361.054 108.791 364.846L85.4679 357.706C83.8233 357.157 82.0399 357.219 80.4362 357.881C79.3734 358.305 78.4371 359.002 77.7187 359.902C77.0003 360.803 76.5244 361.877 76.3373 363.02C76.1502 364.163 76.2584 365.336 76.6513 366.423C77.0442 367.511 77.7084 368.477 78.5791 369.227C77.1695 369.104 75.7607 369.471 74.5836 370.267C73.4066 371.063 72.531 372.241 72.1005 373.608C71.7415 375.185 71.9301 376.839 72.6343 378.292C73.3386 379.744 74.5154 380.906 75.966 381.581C74.4864 382.632 73.4408 384.199 73.0291 385.983Z" fill="#E0E0E0"/>
</svg>
