<svg width="1000" height="1000" viewBox="0 0 1000 1000" fill="none" xmlns="http://www.w3.org/2000/svg">
<path d="M157.433 916.031C-35.3222 804.093 -35.3222 622.594 157.433 510.614C350.188 398.633 662.686 398.676 855.441 510.614C1048.2 622.551 1048.18 804.051 855.441 916.031C662.707 1028.01 350.167 1027.97 157.433 916.031Z" fill="#F5F5F5"/>
<path d="M727.192 630.979C675.626 660.852 675.626 709.481 727.192 739.439C778.759 769.397 862.378 769.312 913.966 739.439C965.554 709.566 965.533 660.916 913.966 630.979C862.399 601.042 778.759 601.021 727.192 630.979Z" fill="#E6E6E6"/>
<path d="M663.577 926.187C662.732 925.686 661.861 925.23 660.968 924.821C657.833 923.752 654.772 922.476 651.804 921.002C648.227 918.856 644.822 916.43 641.623 913.747C632.438 905.831 621.047 899.813 611.565 892.409C600.641 883.874 588.507 876.705 578.792 866.804C567.974 855.751 560.719 841.796 552.086 828.951C544.471 817.62 535.116 806.674 523.046 800.764L533.653 794.661L655.75 723.884C659.992 721.387 659.992 717.354 655.75 714.879L343.952 533.7C341.548 532.479 338.892 531.843 336.199 531.843C333.506 531.843 330.85 532.479 328.446 533.7L65.2026 686.607C60.9601 689.103 60.9601 693.136 65.2026 695.611L377.022 876.641C379.426 877.862 382.082 878.498 384.775 878.498C387.468 878.498 390.124 877.862 392.528 876.641L413.973 864.179L444.752 846.192C444.752 846.192 446.046 860.723 452.983 870.709C459.049 879.436 476.719 891.919 486.413 896.207C495.538 900.16 504.414 904.671 512.992 909.714C522.219 915.198 531.85 920.084 541.077 925.696C545.892 928.347 550.202 931.836 553.804 936.002C555.756 938.456 557.241 941.209 558.98 943.833C566.444 954.481 576.926 962.616 589.059 967.177C601.078 972.041 613.799 974.923 626.732 975.712C643.447 976.651 661.414 975.904 673.632 962.483C678.235 957.447 678.468 946.437 676.135 940.313C673.613 934.339 669.198 929.373 663.577 926.187Z" fill="#E0E0E0"/>
<path d="M59.4115 264.375L63.5903 266.85L149.033 217.24L144.875 214.743L59.4115 264.375Z" fill="#FAFAFA"/>
<path d="M144.876 214.743L63.5906 261.942V176.292L144.876 129.136V214.743Z" fill="white"/>
<path d="M156.903 112.983L55.7205 171.748V280.57L156.903 221.806V112.983ZM149.033 217.24L63.5902 266.978V176.314L149.033 126.682V217.24Z" fill="#F0F0F0"/>
<path d="M149.033 217.239L144.875 214.743V129.136L149.033 126.682V217.239Z" fill="#E0E0E0"/>
<path d="M156.903 112.984L152.66 110.551L51.4991 169.315L55.7204 171.748L156.903 112.984Z" fill="#FAFAFA"/>
<path d="M51.4991 169.315L55.7204 171.748V280.549L51.4991 278.116V169.315Z" fill="#E0E0E0"/>
<path d="M141.693 212.182L66.7507 255.69V233.926L85.5023 190.418L97.169 201.3L92.969 219.544L118.848 163.874L141.693 190.418V212.182Z" fill="#F0F0F0"/>
<path d="M96.469 169.4C94.8525 170.453 93.5065 171.876 92.5406 173.552C91.5748 175.228 91.0165 177.11 90.9114 179.045C90.9114 182.608 93.3932 184.059 96.469 182.267C98.0792 181.208 99.4193 179.784 100.381 178.109C101.343 176.433 101.899 174.554 102.005 172.622C102.005 169.059 99.5235 167.629 96.469 169.4Z" fill="#F0F0F0"/>
<path d="M204.418 153.824L208.597 156.321L294.04 106.689L289.882 104.192L204.418 153.824Z" fill="#FAFAFA"/>
<path d="M289.882 104.192L208.597 151.391V65.7625L289.882 18.5847V104.192Z" fill="white"/>
<path d="M301.909 2.39014L200.727 61.1544V169.977L301.909 111.213V2.39014ZM294.04 106.647L208.597 156.321V65.7633L294.04 16.1317V106.647Z" fill="#F0F0F0"/>
<path d="M294.04 106.689L289.882 104.192V18.5849L294.04 16.1311V106.689Z" fill="#E0E0E0"/>
<path d="M301.909 2.43251L297.667 0L196.506 58.7642L200.727 61.1967L301.909 2.43251Z" fill="#FAFAFA"/>
<path d="M196.506 58.7644L200.727 61.1969V170.02L196.506 167.566V58.7644Z" fill="#E0E0E0"/>
<path d="M286.721 101.632L211.757 145.161V123.396L230.509 79.8672L242.176 90.7495L237.976 108.993L263.855 53.323L286.721 79.8672V101.632Z" fill="#F0F0F0"/>
<path d="M241.476 58.8498C239.856 59.9097 238.508 61.3398 237.543 63.0233C236.577 64.7068 236.02 66.5961 235.918 68.5371C235.918 72.0792 238.4 73.5302 241.476 71.7591C243.082 70.7019 244.42 69.2806 245.381 67.6094C246.342 65.9381 246.901 64.0635 247.012 62.1358C247.012 58.5084 244.53 57.0787 241.476 58.8498Z" fill="#F0F0F0"/>
<path d="M955.075 362.55L948.415 366.54L699.002 221.038L705.684 217.027L955.075 362.55Z" fill="#FAFAFA"/>
<path d="M705.683 217.026L948.414 358.645V171.342L705.683 29.7661V217.026Z" fill="white"/>
<path d="M826.847 93.3745V288.551L814.268 281.254V86.0557L826.847 93.3745Z" fill="#F0F0F0"/>
<path d="M833.147 89.7043L826.847 93.3744V288.551L833.147 284.881V89.7043Z" fill="#E0E0E0"/>
<path d="M686.423 228.336L960.993 388.476V164.045L686.423 3.90503V228.336ZM699.002 25.8616L948.415 171.364V366.562L699.002 221.038V25.8616Z" fill="#F0F0F0"/>
<path d="M699.002 221.038L705.684 217.026V29.766L699.002 25.8398V221.038Z" fill="#E0E0E0"/>
<path d="M686.423 3.90481L693.19 0L967.76 160.14L960.993 164.045L686.423 3.90481Z" fill="#FAFAFA"/>
<path d="M967.76 160.14L960.993 164.044V388.475L967.76 384.57V160.14Z" fill="#E0E0E0"/>
<path d="M826.848 100.65L814.29 93.3743V100.672L826.848 107.969V100.65Z" fill="#E0E0E0"/>
<path opacity="0.15" d="M826.847 107.969L833.147 104.321L826.847 100.651V107.969Z" fill="black"/>
<path d="M122.306 653.469L103.385 664.416L95.4089 669.046C94.7513 662.452 92.927 645.318 90.5089 626.712C87.0937 600.658 82.8937 582.286 73.7724 564.576C65.5209 548.509 53.2602 532.996 33.8723 512.747C5.15099 482.724 14.9086 453.854 39.4511 451.998C79.4997 448.947 104.615 487.269 117.491 530.265C128.839 567.841 127.418 623.554 122.306 653.469Z" fill="#E0E0E0"/>
<path d="M110.448 659.465H110.278C109.859 659.417 109.476 659.203 109.214 658.871C108.951 658.539 108.831 658.116 108.878 657.694C118.572 566.731 84.8661 498.472 47.172 471.159C46.8288 470.91 46.598 470.534 46.5304 470.114C46.4628 469.694 46.5639 469.264 46.8114 468.919C47.0589 468.574 47.4326 468.342 47.8503 468.274C48.268 468.206 48.6955 468.307 49.0387 468.556C87.4752 496.402 121.86 565.792 112.039 658.036C111.997 658.43 111.811 658.794 111.517 659.058C111.223 659.323 110.842 659.468 110.448 659.465V659.465Z" fill="white"/>
<path d="M103.384 664.416L95.4086 669.046L86.2025 674.53C84.0813 657.46 77.3146 632.089 57.5024 612.416C34.8478 589.947 5.9144 577.806 0.823478 558.09C-4.0129 539.377 12.872 525.827 40.4903 535.578C53.8022 540.587 65.4657 549.224 74.1752 560.522C93.945 585.317 106.375 625.581 103.384 664.416Z" fill="#EBEBEB"/>
<path d="M95.4089 669.623C94.9887 669.612 94.5895 669.436 94.2963 669.133C94.003 668.83 93.839 668.424 93.8392 668.001C94.4755 609.898 60.5785 567.159 26.6814 550.643C26.3016 550.457 26.0112 550.126 25.8739 549.724C25.7367 549.321 25.7639 548.881 25.9496 548.499C26.1352 548.117 26.4641 547.825 26.8639 547.687C27.2637 547.549 27.7016 547.576 28.0814 547.763C62.8694 564.833 97.6574 608.618 97.021 668.108C96.994 668.519 96.8124 668.905 96.5129 669.186C96.2134 669.468 95.8187 669.624 95.4089 669.623V669.623Z" fill="white"/>
<path d="M726.302 597.159C726.356 596.562 726.567 595.99 726.914 595.502C727.26 595.015 727.73 594.629 728.274 594.385C729.755 593.635 731.389 593.244 733.047 593.244C734.705 593.244 736.339 593.635 737.82 594.385C738.365 594.63 738.837 595.015 739.187 595.502C739.537 595.989 739.754 596.561 739.814 597.159L715.759 681.614C715.711 682.028 715.557 682.423 715.311 682.76C715.066 683.097 714.738 683.363 714.359 683.534C713.315 684.07 712.159 684.349 710.986 684.349C709.814 684.349 708.658 684.07 707.614 683.534C707.235 683.363 706.907 683.097 706.661 682.76C706.416 682.423 706.262 682.028 706.214 681.614V681.614L726.302 597.159Z" fill="#455A64"/>
<path d="M911.781 597.158C911.727 596.561 911.516 595.989 911.169 595.501C910.822 595.014 910.353 594.628 909.808 594.384C908.325 593.63 906.687 593.237 905.025 593.237C903.363 593.237 901.725 593.63 900.242 594.384C899.697 594.628 899.227 595.014 898.881 595.501C898.534 595.989 898.323 596.561 898.269 597.158L922.323 681.613C922.372 682.027 922.526 682.422 922.771 682.759C923.017 683.096 923.345 683.362 923.723 683.533C924.768 684.069 925.924 684.348 927.096 684.348C928.269 684.348 929.424 684.069 930.469 683.533C930.848 683.362 931.176 683.096 931.421 682.759C931.666 682.422 931.821 682.027 931.869 681.613V681.613L911.781 597.158Z" fill="#455A64"/>
<path d="M826.72 607.976C826.666 607.379 826.455 606.807 826.108 606.319C825.761 605.832 825.292 605.446 824.747 605.202C823.264 604.448 821.626 604.055 819.964 604.055C818.302 604.055 816.664 604.448 815.18 605.202C814.636 605.446 814.166 605.832 813.82 606.319C813.473 606.807 813.262 607.379 813.208 607.976L815.18 719.53C815.226 719.939 815.377 720.33 815.619 720.663C815.861 720.996 816.185 721.26 816.559 721.429C817.607 721.965 818.767 722.244 819.943 722.244C821.118 722.244 822.278 721.965 823.326 721.429C823.7 721.26 824.024 720.996 824.266 720.663C824.508 720.33 824.659 719.939 824.705 719.53V719.53L826.72 607.976Z" fill="#455A64"/>
<path d="M940.928 550.109C940.928 532.121 929.219 514.133 905.567 500.392C858.285 472.93 781.645 472.93 734.363 500.392C710.712 514.133 699.003 532.121 699.024 550.109H698.896V559.775C699.193 577.528 711.03 595.238 734.363 608.852C781.645 636.313 858.285 636.313 905.567 608.852C928.9 595.302 940.758 577.592 941.034 559.775L940.928 550.109Z" fill="#BA68C8"/>
<path opacity="0.3" d="M940.928 550.109C940.928 532.121 929.219 514.133 905.567 500.392C858.285 472.93 781.645 472.93 734.363 500.392C710.712 514.133 699.003 532.121 699.024 550.109H698.896V559.775C699.193 577.528 711.03 595.238 734.363 608.852C781.645 636.313 858.285 636.313 905.567 608.852C928.9 595.302 940.758 577.592 941.034 559.775L940.928 550.109Z" fill="white"/>
<path d="M734.256 500.392C686.974 527.853 686.974 572.364 734.256 599.826C781.538 627.287 858.178 627.287 905.459 599.826C952.741 572.364 952.741 527.853 905.459 500.392C858.178 472.93 781.538 472.93 734.256 500.392Z" fill="#BA68C8"/>
<path opacity="0.6" d="M734.256 500.392C686.974 527.853 686.974 572.364 734.256 599.826C781.538 627.287 858.178 627.287 905.459 599.826C952.741 572.364 952.741 527.853 905.459 500.392C858.178 472.93 781.538 472.93 734.256 500.392Z" fill="white"/>
<path opacity="0.15" d="M744.523 550.963L829.69 600.424C832.259 601.739 835.101 602.425 837.984 602.425C840.867 602.425 843.708 601.739 846.278 600.424L902.363 567.841C906.945 565.195 906.945 560.885 902.363 558.218L817.196 508.757C814.627 507.441 811.785 506.756 808.902 506.756C806.019 506.756 803.177 507.441 800.608 508.757L744.523 541.318C739.941 543.985 739.941 548.296 744.523 550.963Z" fill="black"/>
<path d="M898.82 559.604L837.411 594.833L750.759 544.838L812.147 509.61L898.82 559.604Z" fill="black"/>
<path d="M836.711 592.144L895.936 558.004C894.401 552.945 894.513 547.525 896.254 542.534L837.326 576.376C837.326 576.376 836.287 580.067 836.711 592.144Z" fill="#F5F5F5"/>
<path d="M840.423 571.512C838.771 572.588 837.394 574.042 836.406 575.756C835.418 577.469 834.847 579.393 834.739 581.37V592.892C834.739 596.52 837.284 597.992 840.423 596.178L898.842 562.465V559.606L841.229 592.658C839.342 593.746 837.814 592.871 837.814 590.673V580.004C837.88 578.818 838.223 577.664 838.817 576.637C839.41 575.61 840.237 574.738 841.229 574.094L898.842 541.042V537.798L840.423 571.512Z" fill="#263238"/>
<path d="M898.841 537.819L812.147 487.824L753.771 521.517C752.118 522.593 750.742 524.047 749.754 525.76C748.766 527.473 748.195 529.397 748.086 531.375V542.897C748.014 543.601 748.128 544.313 748.419 544.958C748.71 545.603 749.166 546.158 749.741 546.567L836.414 596.561C835.834 596.157 835.372 595.602 835.077 594.957C834.782 594.311 834.665 593.598 834.738 592.891V581.369C834.851 579.39 835.426 577.466 836.417 575.753C837.409 574.039 838.789 572.586 840.444 571.511L898.841 537.819Z" fill="#455A64"/>
<path d="M836.393 575.757C835.37 577.454 834.793 579.385 834.717 581.368V592.891C834.644 593.597 834.761 594.311 835.056 594.956C835.351 595.602 835.813 596.156 836.393 596.561L749.741 546.503C749.166 546.094 748.71 545.538 748.419 544.893C748.129 544.248 748.014 543.537 748.086 542.832V531.31C748.158 529.329 748.727 527.398 749.741 525.698L836.393 575.757Z" fill="#37474F"/>
<path d="M508.537 75.984C511.922 77.5513 515.065 79.5993 517.871 82.0652C520.57 84.3868 522.833 87.1764 524.552 90.3016C526.197 93.2977 527.174 96.6178 527.416 100.032C527.631 103.678 526.9 107.317 525.295 110.594C524.145 113.229 522.487 115.607 520.416 117.593C518.573 119.306 516.494 120.744 514.243 121.86C512.056 122.92 509.777 123.777 507.434 124.421L500.837 126.277C498.848 126.813 496.909 127.527 495.046 128.411C493.384 129.192 491.973 130.426 490.974 131.974C490.487 132.688 489.81 133.249 489.022 133.596C488.655 133.775 488.253 133.868 487.845 133.868C487.437 133.868 487.034 133.775 486.668 133.596L478.374 129.734C477.574 129.357 476.951 128.685 476.634 127.856C476.463 127.465 476.387 127.038 476.413 126.611C476.439 126.184 476.566 125.77 476.783 125.402C478.06 122.835 479.851 120.562 482.043 118.724C484.014 117.082 486.198 115.718 488.534 114.669C490.774 113.663 493.094 112.849 495.471 112.237C497.825 111.639 500.031 111.042 502.068 110.444C503.929 109.934 505.729 109.219 507.434 108.311C508.915 107.524 510.099 106.273 510.807 104.747C511.448 103.405 511.752 101.925 511.693 100.437C511.634 98.9493 511.213 97.4986 510.468 96.2122C508.635 93.041 505.807 90.5717 502.428 89.1921C496.234 86.347 490.252 87.3428 484.483 92.1793C483.91 92.7255 483.241 93.1596 482.51 93.4596C481.731 93.6551 480.908 93.5323 480.219 93.1182L471.374 89.0213C471.059 88.8843 470.775 88.6854 470.538 88.4362C470.301 88.187 470.117 87.8926 469.995 87.5704C469.838 87.2368 469.757 86.8724 469.757 86.5035C469.757 86.1345 469.838 85.7702 469.995 85.4366C471.405 82.7336 473.451 80.4187 475.955 78.6939C478.776 76.6568 481.937 75.1463 485.289 74.2343C488.963 73.2343 492.772 72.8239 496.574 73.018C500.717 73.2042 504.783 74.2122 508.537 75.984V75.984ZM484.313 140.36C484.701 140.538 485.048 140.795 485.333 141.114C485.618 141.434 485.834 141.809 485.968 142.216C486.141 142.606 486.23 143.027 486.23 143.454C486.23 143.881 486.141 144.302 485.968 144.692L481.534 154.358C481.17 155.124 480.525 155.719 479.734 156.018C478.943 156.316 478.067 156.295 477.292 155.958L467.895 151.69C467.14 151.316 466.556 150.665 466.264 149.871C465.972 149.077 465.994 148.201 466.325 147.423L470.758 137.757C471.122 136.99 471.769 136.396 472.561 136.101C473.353 135.807 474.228 135.834 475.001 136.178L484.313 140.36Z" fill="#BA68C8"/>
<path d="M505.143 190.163C507.571 191.007 509.865 192.2 511.953 193.705C513.959 195.118 515.698 196.881 517.086 198.911C518.398 200.834 519.287 203.017 519.695 205.313C519.995 207.541 519.83 209.808 519.209 211.969C518.588 214.129 517.525 216.136 516.089 217.859C514.937 219.139 513.608 220.245 512.143 221.145C510.704 221.991 509.192 222.705 507.625 223.279L503.213 224.986C501.884 225.498 500.606 226.134 499.395 226.885C498.3 227.524 497.41 228.464 496.828 229.595C496.537 230.118 496.113 230.553 495.598 230.854C495.35 230.99 495.077 231.072 494.795 231.095C494.513 231.117 494.23 231.078 493.965 230.982L488.004 228.848C487.436 228.635 486.967 228.217 486.689 227.675C486.553 227.411 486.482 227.118 486.482 226.821C486.482 226.524 486.553 226.231 486.689 225.968C487.409 224.126 488.492 222.45 489.871 221.039C491.14 219.784 492.566 218.701 494.113 217.817C495.594 216.98 497.141 216.266 498.737 215.683C500.307 215.107 501.771 214.552 503.15 213.997C504.395 213.521 505.583 212.905 506.692 212.162C507.671 211.522 508.416 210.578 508.813 209.474C509.148 208.511 509.249 207.483 509.109 206.473C508.969 205.464 508.591 204.503 508.007 203.67C506.542 201.616 504.437 200.114 502.025 199.402C499.916 198.625 497.621 198.52 495.45 199.1C493.28 199.68 491.339 200.918 489.892 202.645C489.527 203.056 489.097 203.402 488.619 203.67C488.109 203.877 487.538 203.877 487.028 203.67L480.665 201.536C480.436 201.462 480.224 201.342 480.042 201.185C479.86 201.027 479.711 200.835 479.604 200.618C479.498 200.395 479.444 200.151 479.444 199.904C479.444 199.656 479.498 199.412 479.604 199.189C480.354 197.277 481.547 195.573 483.083 194.217C484.888 192.625 486.965 191.374 489.213 190.526C491.671 189.583 494.264 189.042 496.892 188.925C499.696 188.8 502.498 189.22 505.143 190.163ZM492.713 236.018C493.272 236.218 493.729 236.632 493.986 237.17C494.123 237.435 494.203 237.725 494.221 238.023C494.239 238.321 494.195 238.619 494.092 238.898L491.674 245.833C491.582 246.115 491.432 246.374 491.235 246.595C491.038 246.815 490.797 246.992 490.528 247.113C489.991 247.372 489.375 247.411 488.81 247.22L482.086 244.83C481.808 244.74 481.551 244.593 481.332 244.398C481.113 244.204 480.936 243.966 480.813 243.699C480.676 243.435 480.596 243.144 480.578 242.846C480.56 242.549 480.604 242.25 480.707 241.971L483.083 234.972C483.175 234.69 483.324 234.431 483.521 234.211C483.719 233.99 483.959 233.813 484.228 233.692C484.488 233.557 484.774 233.478 485.066 233.46C485.358 233.442 485.65 233.484 485.925 233.585L492.713 236.018Z" fill="#BA68C8"/>
<g opacity="0.2">
<path opacity="0.2" d="M505.143 190.163C507.571 191.007 509.865 192.2 511.953 193.705C513.959 195.118 515.698 196.881 517.086 198.911C518.398 200.834 519.287 203.017 519.695 205.313C519.995 207.541 519.83 209.808 519.209 211.969C518.588 214.129 517.525 216.136 516.089 217.859C514.937 219.139 513.608 220.245 512.143 221.145C510.704 221.991 509.192 222.705 507.625 223.279L503.213 224.986C501.884 225.498 500.606 226.134 499.395 226.885C498.3 227.524 497.41 228.464 496.828 229.595C496.537 230.118 496.113 230.553 495.598 230.854C495.35 230.99 495.077 231.072 494.795 231.095C494.513 231.117 494.23 231.078 493.965 230.982L488.004 228.848C487.436 228.635 486.967 228.217 486.689 227.675C486.553 227.411 486.482 227.118 486.482 226.821C486.482 226.524 486.553 226.231 486.689 225.968C487.409 224.126 488.492 222.45 489.871 221.039C491.14 219.784 492.566 218.701 494.113 217.817C495.594 216.98 497.141 216.266 498.737 215.683C500.307 215.107 501.771 214.552 503.15 213.997C504.395 213.521 505.583 212.905 506.692 212.162C507.671 211.522 508.416 210.578 508.813 209.474C509.148 208.511 509.249 207.483 509.109 206.473C508.969 205.464 508.591 204.503 508.007 203.67C506.542 201.616 504.437 200.114 502.025 199.402C499.916 198.625 497.621 198.52 495.45 199.1C493.28 199.68 491.339 200.918 489.892 202.645C489.527 203.056 489.097 203.402 488.619 203.67C488.109 203.877 487.538 203.877 487.028 203.67L480.665 201.536C480.436 201.462 480.224 201.342 480.042 201.185C479.86 201.027 479.711 200.835 479.604 200.618C479.498 200.395 479.444 200.151 479.444 199.904C479.444 199.656 479.498 199.412 479.604 199.189C480.354 197.277 481.547 195.573 483.083 194.217C484.888 192.625 486.965 191.374 489.213 190.526C491.671 189.583 494.264 189.042 496.892 188.925C499.696 188.8 502.498 189.22 505.143 190.163ZM492.713 236.018C493.272 236.218 493.729 236.632 493.986 237.17C494.123 237.435 494.203 237.725 494.221 238.023C494.239 238.321 494.195 238.619 494.092 238.898L491.674 245.833C491.582 246.115 491.432 246.374 491.235 246.595C491.038 246.815 490.797 246.992 490.528 247.113C489.991 247.372 489.375 247.411 488.81 247.22L482.086 244.83C481.808 244.74 481.551 244.593 481.332 244.398C481.113 244.204 480.936 243.966 480.813 243.699C480.676 243.435 480.596 243.144 480.578 242.846C480.56 242.549 480.604 242.25 480.707 241.971L483.083 234.972C483.175 234.69 483.324 234.431 483.521 234.211C483.719 233.99 483.959 233.813 484.228 233.692C484.488 233.557 484.774 233.478 485.066 233.46C485.358 233.442 485.65 233.484 485.925 233.585L492.713 236.018Z" fill="black"/>
</g>
<path d="M583.374 198.697C583.722 198.722 584.062 198.818 584.372 198.98C584.682 199.141 584.956 199.365 585.177 199.636C585.411 199.898 585.589 200.206 585.698 200.54C585.808 200.874 585.847 201.228 585.813 201.578L585.156 210.241C585.139 210.593 585.047 210.937 584.886 211.25C584.725 211.563 584.498 211.838 584.222 212.055C583.966 212.29 583.664 212.47 583.336 212.584C583.008 212.698 582.66 212.743 582.313 212.716L573.828 212.055C573.128 212 572.478 211.669 572.021 211.133C571.564 210.597 571.336 209.9 571.389 209.196L572.047 200.511C572.071 200.161 572.167 199.819 572.327 199.507C572.488 199.196 572.71 198.92 572.98 198.697C573.238 198.465 573.54 198.288 573.868 198.178C574.197 198.068 574.544 198.027 574.889 198.057L583.374 198.697ZM583.692 142.387C586.727 142.606 589.713 143.268 592.559 144.35C595.289 145.354 597.818 146.843 600.026 148.746C602.137 150.571 603.83 152.835 604.989 155.382C606.209 158.102 606.699 161.096 606.41 164.066C606.286 166.415 605.694 168.715 604.671 170.83C603.742 172.655 602.548 174.331 601.129 175.802C599.759 177.246 598.261 178.56 596.653 179.728L592.092 183.057C590.729 184.048 589.458 185.163 588.295 186.386C587.245 187.467 586.512 188.818 586.174 190.29C585.998 190.974 585.647 191.6 585.156 192.104C584.924 192.348 584.637 192.534 584.32 192.645C584.003 192.756 583.664 192.79 583.332 192.744L575.886 192.168C575.169 192.119 574.499 191.789 574.019 191.251C573.768 191.002 573.582 190.694 573.478 190.355C573.374 190.016 573.356 189.657 573.425 189.309C573.679 186.975 574.401 184.718 575.547 182.673C576.592 180.857 577.876 179.192 579.365 177.722C580.798 176.3 582.352 175.008 584.01 173.86C585.622 172.729 587.15 171.726 588.529 170.574C589.808 169.639 590.982 168.566 592.029 167.374C592.932 166.344 593.482 165.05 593.598 163.682C593.703 162.477 593.515 161.264 593.049 160.149C592.583 159.034 591.854 158.049 590.925 157.281C588.625 155.372 585.76 154.284 582.78 154.187C577.222 153.76 572.916 156.321 569.883 161.634C569.591 162.214 569.204 162.741 568.738 163.191C568.187 163.555 567.522 163.7 566.871 163.597L558.938 162.978C558.656 162.966 558.38 162.897 558.125 162.776C557.87 162.655 557.641 162.485 557.453 162.274C557.262 162.053 557.118 161.795 557.031 161.516C556.943 161.237 556.913 160.943 556.944 160.652C557.248 158.173 558.151 155.807 559.574 153.76C561.168 151.393 563.164 149.328 565.471 147.657C567.991 145.798 570.791 144.357 573.765 143.39C576.976 142.4 580.348 142.052 583.692 142.366V142.387Z" fill="#BA68C8"/>
<g opacity="0.3">
<path opacity="0.3" d="M583.374 198.697C583.722 198.722 584.062 198.818 584.372 198.98C584.682 199.141 584.956 199.365 585.177 199.636C585.411 199.898 585.589 200.206 585.698 200.54C585.808 200.874 585.847 201.228 585.813 201.578L585.156 210.241C585.139 210.593 585.047 210.937 584.886 211.25C584.725 211.563 584.498 211.838 584.222 212.055C583.966 212.29 583.664 212.47 583.336 212.584C583.008 212.698 582.66 212.743 582.313 212.716L573.828 212.055C573.128 212 572.478 211.669 572.021 211.133C571.564 210.597 571.336 209.9 571.389 209.196L572.047 200.511C572.071 200.161 572.167 199.819 572.327 199.507C572.488 199.196 572.71 198.92 572.98 198.697C573.238 198.465 573.54 198.288 573.868 198.178C574.197 198.068 574.544 198.027 574.889 198.057L583.374 198.697ZM583.692 142.387C586.727 142.606 589.713 143.268 592.559 144.35C595.289 145.354 597.818 146.843 600.026 148.746C602.137 150.571 603.83 152.835 604.989 155.382C606.209 158.102 606.699 161.096 606.41 164.066C606.286 166.415 605.694 168.715 604.671 170.83C603.742 172.655 602.548 174.331 601.129 175.802C599.759 177.246 598.261 178.56 596.653 179.728L592.092 183.057C590.729 184.048 589.458 185.163 588.295 186.386C587.245 187.467 586.512 188.818 586.174 190.29C585.998 190.974 585.647 191.6 585.156 192.104C584.924 192.348 584.637 192.534 584.32 192.645C584.003 192.756 583.664 192.79 583.332 192.744L575.886 192.168C575.169 192.119 574.499 191.789 574.019 191.251C573.768 191.002 573.582 190.694 573.478 190.355C573.374 190.016 573.356 189.657 573.425 189.309C573.679 186.975 574.401 184.718 575.547 182.673C576.592 180.857 577.876 179.192 579.365 177.722C580.798 176.3 582.352 175.008 584.01 173.86C585.622 172.729 587.15 171.726 588.529 170.574C589.808 169.639 590.982 168.566 592.029 167.374C592.932 166.344 593.482 165.05 593.598 163.682C593.703 162.477 593.515 161.264 593.049 160.149C592.583 159.034 591.854 158.049 590.925 157.281C588.625 155.372 585.76 154.284 582.78 154.187C577.222 153.76 572.916 156.321 569.883 161.634C569.591 162.214 569.204 162.741 568.738 163.191C568.187 163.555 567.522 163.7 566.871 163.597L558.938 162.978C558.656 162.966 558.38 162.897 558.125 162.776C557.87 162.655 557.641 162.485 557.453 162.274C557.262 162.053 557.118 161.795 557.031 161.516C556.943 161.237 556.913 160.943 556.944 160.652C557.248 158.173 558.151 155.807 559.574 153.76C561.168 151.393 563.164 149.328 565.471 147.657C567.991 145.798 570.791 144.357 573.765 143.39C576.976 142.4 580.348 142.052 583.692 142.366V142.387Z" fill="white"/>
</g>
<path d="M595.507 584.1C596.709 591.323 595.691 598.743 592.591 605.369C589.491 611.996 584.455 617.513 578.156 621.185L374.9 727.874L374.306 739.674L364.931 744.944L376.873 751.858L601.722 620.95L595.507 584.1Z" fill="#BA68C8"/>
<path d="M387.183 300.371L335.213 330.543L556.838 471.5C563.846 475.967 569.841 481.868 574.431 488.82C579.022 495.772 582.105 503.619 583.48 511.85L615.765 722.069C615.861 722.648 616.095 723.194 616.448 723.662C616.8 724.129 617.259 724.504 617.787 724.754C618.315 725.003 618.895 725.121 619.477 725.095C620.06 725.07 620.627 724.903 621.132 724.609C622.341 723.926 623.041 722.475 622.617 717.461L604.162 494.075C603.123 481.465 595.126 466.336 582.356 456.222L387.183 300.371Z" fill="#BA68C8"/>
<path opacity="0.1" d="M387.183 300.371L335.213 330.543L556.838 471.5C563.846 475.967 569.841 481.868 574.431 488.82C579.022 495.772 582.105 503.619 583.48 511.85L615.765 722.069C615.861 722.648 616.095 723.194 616.448 723.662C616.8 724.129 617.259 724.504 617.787 724.754C618.315 725.003 618.895 725.121 619.477 725.095C620.06 725.07 620.627 724.903 621.132 724.609C622.341 723.926 623.041 722.475 622.617 717.461L604.162 494.075C603.123 481.465 595.126 466.336 582.356 456.222L387.183 300.371Z" fill="black"/>
<path d="M597.628 596.838C598.798 603.902 597.8 611.158 594.769 617.638C591.737 624.118 586.815 629.516 580.658 633.112L390.915 743.407L401.034 764.467L584.307 658.013C586.722 656.622 589.436 655.84 592.217 655.734C594.998 655.628 597.763 656.202 600.275 657.406C602.787 658.61 604.972 660.408 606.643 662.647C608.314 664.886 609.42 667.498 609.868 670.261L597.628 596.838Z" fill="#BA68C8"/>
<path opacity="0.1" d="M597.628 596.838C598.798 603.902 597.8 611.158 594.769 617.638C591.737 624.118 586.815 629.516 580.658 633.112L390.915 743.407L401.034 764.467L584.307 658.013C586.722 656.622 589.436 655.84 592.217 655.734C594.998 655.628 597.763 656.202 600.275 657.406C602.787 658.61 604.972 660.408 606.643 662.647C608.314 664.886 609.42 667.498 609.868 670.261L597.628 596.838Z" fill="black"/>
<path d="M361.685 743.514L359.119 728.151L167.488 616.917L190.821 603.41L179.197 596.667L170.5 601.724C167.331 603.597 163.653 604.41 159.996 604.047C156.338 603.684 152.889 602.163 150.145 599.704C147.401 597.245 145.503 593.973 144.724 590.36C143.945 586.747 144.325 582.979 145.809 579.597L146.615 577.719L145.342 580.664L127.991 620.886L143.073 631.021L155.8 623.617L361.685 743.514Z" fill="#BA68C8"/>
<path d="M364.167 731.073L168.251 617.194C164.639 614.828 161.634 611.637 159.481 607.88C157.328 604.124 156.088 599.908 155.864 595.578V583.971C156.092 579.647 157.333 575.439 159.486 571.69C161.639 567.941 164.642 564.757 168.251 562.398L364.167 448.604C368.003 446.647 372.244 445.627 376.545 445.627C380.846 445.627 385.086 446.647 388.922 448.604L584.901 562.441C588.504 564.805 591.502 567.99 593.651 571.739C595.8 575.487 597.039 579.692 597.268 584.013V595.77C597.036 600.09 595.795 604.295 593.646 608.043C591.498 611.79 588.502 614.977 584.901 617.343L388.964 731.073C385.123 733.037 380.875 734.061 376.566 734.061C372.257 734.061 368.009 733.037 364.167 731.073Z" fill="#455A64"/>
<path d="M367.794 732.654C366.536 732.243 365.32 731.707 364.167 731.054L168.251 617.195C164.645 614.825 161.646 611.632 159.497 607.876C157.348 604.12 156.11 599.908 155.885 595.58V583.951C156.105 580.117 157.11 576.37 158.837 572.944C160.563 569.519 162.974 566.488 165.918 564.043C161.527 568.012 162.312 573.304 168.251 576.846L363.234 690.106L367.794 732.654Z" fill="#263238"/>
<path d="M597.225 583.994V595.772C597.004 600.09 595.773 604.295 593.631 608.043C591.49 611.792 588.498 614.979 584.901 617.345L388.985 731.075C385.728 732.734 382.176 733.727 378.534 733.994C374.893 734.261 371.235 733.799 367.773 732.633L363.212 689.957L364.146 690.491C367.978 692.458 372.22 693.483 376.523 693.483C380.826 693.483 385.067 692.458 388.9 690.491L584.901 576.803C590.883 573.368 591.646 568.033 587.234 564C590.184 566.457 592.594 569.502 594.314 572.943C596.034 576.385 597.025 580.148 597.225 583.994V583.994Z" fill="#37474F"/>
<path d="M433.87 489.104L237.933 602.898C233.483 605.271 228.437 606.273 223.424 605.779C222.682 605.779 221.961 605.651 221.303 605.544H220.858L219.564 605.31H219.394C218.741 605.179 218.096 605.008 217.464 604.798C215.981 604.381 214.555 603.778 213.221 603.005L203.082 597.052C195.593 592.12 190.277 584.48 188.233 575.714L158.536 408.426C158.366 407.396 158.28 406.354 158.282 405.311C158.282 404.905 158.282 404.5 158.282 404.094C158.45 402 158.907 399.939 159.639 397.97C160.943 394.338 163.166 391.109 166.088 388.603L166.936 387.963C167.358 387.654 167.797 387.369 168.251 387.11L364.167 273.315C368.008 271.375 372.246 270.364 376.544 270.364C380.842 270.364 385.081 271.375 388.922 273.315L398.998 279.183C401.2 280.517 403.207 282.155 404.958 284.048L405.955 285.158C407.288 286.692 408.494 288.333 409.561 290.065C409.814 290.422 410.048 290.793 410.261 291.175L410.813 292.178L411.576 293.65C411.81 294.141 412.043 294.632 412.234 295.122C412.425 295.613 412.573 295.955 412.722 296.36C412.818 296.551 412.896 296.751 412.955 296.957C413.082 297.32 413.189 297.683 413.295 298.046C413.401 298.408 413.57 299.006 413.676 299.475C413.772 299.82 413.85 300.169 413.91 300.521L443.713 467.852C444.247 471.969 443.605 476.153 441.862 479.917C440.119 483.68 437.347 486.867 433.87 489.104V489.104Z" fill="#455A64"/>
<path d="M193.239 428.633L222.936 595.942C224.315 603.752 230.997 606.889 237.785 602.898L433.7 489.125C437.192 486.881 439.974 483.681 441.721 479.901C443.468 476.122 444.107 471.92 443.564 467.788L413.761 300.5C412.382 292.669 405.7 289.553 398.912 293.522L203.081 407.295C199.592 409.541 196.813 412.742 195.069 416.521C193.326 420.301 192.691 424.503 193.239 428.633Z" fill="#37474F"/>
<path d="M232.885 604.926C229.797 605.715 226.603 606.003 223.424 605.779C222.682 605.779 221.961 605.651 221.303 605.544C220.645 605.438 220.158 605.374 219.564 605.246H219.394C218.741 605.115 218.096 604.944 217.464 604.733C215.981 604.317 214.555 603.714 213.221 602.941L203.082 597.052C195.593 592.12 190.277 584.48 188.233 575.714L158.536 408.426C158.366 407.396 158.28 406.354 158.282 405.311C158.282 404.905 158.282 404.5 158.282 404.094C158.45 402 158.907 399.939 159.639 397.97L194.597 417.943C193.21 421.315 192.777 425.007 193.345 428.612L223.042 595.921C224.061 601.746 228.027 604.99 232.842 604.584C232.843 604.699 232.857 604.814 232.885 604.926V604.926Z" fill="#263238"/>
<path d="M535.349 708.348C535.349 708.348 512.885 756.87 510.934 776.352C508.813 796.644 503.679 803.131 506.034 825.429C506.564 830.294 508.601 840.066 509.046 844.014C509.449 847.535 508.007 850.266 503.51 850.97C494.643 852.378 480.855 835.095 474.788 816.702C468.722 798.308 460.852 757.148 460.47 752.24C460.371 747.315 461.563 742.45 463.928 738.136C465.159 735.603 466.629 733.195 468.319 730.945C471.649 722.239 473.855 705.468 476.803 693.945L535.349 708.348Z" fill="#F28F8F"/>
<path d="M442.419 769.95C441.163 771.964 440.259 774.18 439.746 776.501C439.343 780.555 447.807 794.361 451.158 799.396C454.51 804.432 457.692 810.705 456.631 822.868C455.464 835.841 460.576 848.623 468.404 859.74C476.231 870.856 490.125 883.211 511.125 890.914C532.125 898.617 540.122 888.183 540.122 888.183C540.122 888.183 547.228 878.154 543.474 873.737C539.719 869.32 442.419 769.95 442.419 769.95Z" fill="#263238"/>
<path d="M468.234 730.946C467.597 730.946 466.452 730.668 464.691 732.61C464.013 733.336 459.664 742.788 456.207 747.696C452.749 752.604 443.819 761.779 442.334 769.951C446.576 786.083 460.788 797.84 462.294 812.947C463.8 828.054 463.207 845.487 485.246 864.947C507.285 884.407 530.746 887.48 539.443 883.02C548.14 878.561 547.822 869.407 536.855 851.462C525.21 832.407 518.676 792.015 518.676 791.993C517.446 784.952 519.376 773.28 512.695 768.65C509.351 766.702 505.62 765.521 501.77 765.193C497.528 764.51 492.67 763.913 489.043 766.239C485.936 768.556 483.851 772.001 483.231 775.841C482.646 779.648 481.809 783.411 480.728 787.107C480.282 788.259 479.54 789.518 478.31 789.646C476.485 789.817 475.616 787.512 475.361 785.635C473.947 775.947 472.575 766.253 471.246 756.551C470.567 751.836 469.888 747.098 469.231 742.383C468.701 738.734 467.258 734.509 468.234 730.946Z" fill="#37474F"/>
<path d="M564.495 776.267C564.495 776.267 578.092 833.196 590.246 854.79C602.401 876.383 608.574 886.796 624.334 902.65C627.749 906.086 635.449 912.423 638.249 915.218C640.753 917.693 641.346 920.745 638.249 924.137C632.225 930.816 604.904 934.273 588.719 923.796C572.534 913.319 556.773 889.656 546.931 880.971C543.24 877.706 539.761 874.356 536.325 870.772C532.889 867.187 533.673 863.773 533.122 859.697C532.846 857.713 532.74 852.272 532.74 852.272C529.94 842.734 523.173 827.925 519.482 818.686L564.495 776.267Z" fill="#FFA8A7"/>
<path d="M530.534 896.206C530.538 898.582 530.939 900.941 531.722 903.183C533.525 906.81 548.013 913.98 553.507 916.476C559.001 918.973 565.025 922.558 570.477 933.397C576.374 944.984 587.447 953.092 599.941 958.32C612.435 963.548 630.804 966.642 652.611 961.862C674.417 957.082 675.732 944.023 675.732 944.023C675.732 944.023 676.453 931.733 670.917 930.005C665.38 928.276 530.534 896.206 530.534 896.206Z" fill="#263238"/>
<path d="M531.871 849.328C531.298 849.627 530.195 850.032 529.75 852.614C529.58 853.596 530.895 863.923 530.556 869.919C530.174 876.32 527.501 888.483 530.556 896.207C542.604 907.623 560.931 909.949 570.18 921.941C579.428 933.932 588.168 948.997 617.123 953.691C646.077 958.385 667.565 948.421 672.571 939.992C677.577 931.564 672.465 923.989 653.671 914.664C633.753 904.742 606.877 874.123 606.856 874.016C603.161 869.666 599.746 865.083 596.632 860.296C594.701 857.394 594.744 854.449 590.268 854.172C588.149 854.17 586.051 854.591 584.095 855.409C580.086 856.818 576.141 858.418 572.301 860.21C570.299 860.891 568.615 862.288 567.571 864.136C567.005 866.281 567.247 868.561 568.25 870.538C570.866 877.65 573.482 884.763 576.098 891.876C567.274 887.608 561.504 879.073 555.607 871.157C552.344 866.517 548.445 862.365 544.025 858.823C541.928 857.209 539.624 855.888 537.174 854.897C536.283 854.556 533.928 854.364 533.292 853.702C532.995 853.382 532.804 851.931 532.55 851.825C532.28 851.005 532.054 850.172 531.871 849.328V849.328Z" fill="#37474F"/>
<path d="M421.567 484.856C446.28 500.476 531.447 542.084 566.85 570.613C577.074 578.849 582.016 591.801 577.244 616.617C570.626 650.992 545.425 724.565 545.425 724.565C542.803 731.129 540.732 737.903 539.231 744.815L408.84 610.259L421.567 484.856Z" fill="#BA68C8"/>
<path opacity="0.4" d="M421.567 484.856C446.28 500.476 531.447 542.084 566.85 570.613C577.074 578.849 582.016 591.801 577.244 616.617C570.626 650.992 545.425 724.565 545.425 724.565C542.803 731.129 540.732 737.903 539.231 744.815L408.84 610.259L421.567 484.856Z" fill="white"/>
<path opacity="0.3" d="M535.35 643.631C531.807 630.21 522.877 622.998 514.943 617.557C483.316 595.877 438.579 564.426 430.561 558.323C434.019 549.788 439.767 534.745 433.467 520.128C433.467 520.128 431.092 552.135 413.57 565.322L413.379 565.642C417.834 571.68 505.928 691.236 544.089 727.809C544.513 726.678 544.959 725.675 545.404 724.651C545.404 724.651 547.059 719.807 549.647 712.062C546.253 692.068 540.674 663.86 535.35 643.631Z" fill="black"/>
<path d="M423.01 481.144L249.494 521.686C254.479 550.087 256.939 562.228 266.612 577.762C276.285 593.296 292.682 609.768 348.767 636.227C391.022 656.135 443.373 677.921 453.937 682.061C461.892 685.197 463.843 700.625 469.252 720.298C475.298 742.297 485.501 757.724 494.707 775.883C508.155 802.384 518.231 824.213 518.231 824.213C518.231 824.213 555.034 824.384 574.528 804.476C537.64 668.789 534.904 659.037 533.886 655.709C529.452 641.05 529.283 637.059 509.725 622.016C492.946 609.107 418.682 560.542 418.682 560.542C418.682 560.542 443.967 520.683 423.01 481.144Z" fill="#BA68C8"/>
<path opacity="0.4" d="M423.01 481.144L249.494 521.686C254.479 550.087 256.939 562.228 266.612 577.762C276.285 593.296 292.682 609.768 348.767 636.227C391.022 656.135 443.373 677.921 453.937 682.061C461.892 685.197 463.843 700.625 469.252 720.298C475.298 742.297 485.501 757.724 494.707 775.883C508.155 802.384 518.231 824.213 518.231 824.213C518.231 824.213 555.034 824.384 574.528 804.476C537.64 668.789 534.904 659.037 533.886 655.709C529.452 641.05 529.283 637.059 509.725 622.016C492.946 609.107 418.682 560.542 418.682 560.542C418.682 560.542 443.967 520.683 423.01 481.144Z" fill="white"/>
<path d="M386.927 299.497C418.746 299.732 433.467 319.384 442.991 347.55C452.515 375.716 457.521 389.863 465.094 411.883C473.112 435.184 430.115 463.734 418.555 457.183L394.839 395.666C392.676 374.734 386.927 299.497 386.927 299.497Z" fill="#FFA8A7"/>
<path d="M385.336 291.687C402.879 292.54 416.646 298.344 423.052 304.276C429.458 310.208 433.976 312 448.018 354.783C458.158 385.658 459.876 392.742 459.876 392.742C459.876 392.742 438.261 420.204 396.579 416.897L389.409 399.827L385.336 291.687Z" fill="#263238"/>
<path d="M324.755 287.44L283.688 300.371C283.688 300.371 249.049 325.763 245.506 354.163C241.964 382.564 240.84 397.65 244.743 467.147C246.864 505.299 259.188 560.393 259.188 560.393C259.188 560.393 298.918 572.171 362.894 549.02C437.519 522.028 437.519 493.328 437.519 493.328C428.183 485.173 422.34 473.707 421.207 461.322C420.231 448.967 419.998 431.662 421.483 392.806C423.604 336.88 420.358 303.486 389.219 293.927C389.325 293.948 344.885 284.56 324.755 287.44Z" fill="#BA68C8"/>
<path opacity="0.3" d="M324.755 287.44L283.688 300.371C283.688 300.371 249.049 325.763 245.506 354.163C241.964 382.564 240.84 397.65 244.743 467.147C246.864 505.299 259.188 560.393 259.188 560.393C259.188 560.393 298.918 572.171 362.894 549.02C437.519 522.028 437.519 493.328 437.519 493.328C428.183 485.173 422.34 473.707 421.207 461.322C420.231 448.967 419.998 431.662 421.483 392.806C423.604 336.88 420.358 303.486 389.219 293.927C389.325 293.948 344.885 284.56 324.755 287.44Z" fill="black"/>
<path d="M382.494 137.585C340.409 128.901 304.942 156.789 297.645 182.651C286.254 222.553 323.948 253.364 329.909 275.641L432.428 194.835C433.912 178.49 424.579 146.27 382.494 137.585Z" fill="#263238"/>
<path d="M354.876 193.725C341.47 190.802 338.288 196.926 337.503 205.632C336.718 214.338 337.355 217.581 335.382 226.607C335.04 228.564 334.32 230.435 333.261 232.112C332.732 232.951 332.023 233.661 331.186 234.189C330.349 234.717 329.406 235.05 328.424 235.163C325.794 235.355 324.712 233.734 323.906 231.642C322.867 228.954 322.739 224.366 318.221 220.504C313.703 216.642 301.718 212.524 296.139 225.241C290.37 238.407 301.294 254.538 310.373 258.635C322.485 264.119 329.464 251.913 329.464 251.913L319.939 299.774C340.685 332.826 388.412 324.59 378.93 311.211L387.84 289.489C387.84 289.489 398.721 290.961 405.806 289.148C413.846 287.59 427.591 283.536 431.982 255.69C433.615 245.299 433.87 216.535 432.788 200.532C431.876 186.961 429.415 182.267 428.843 180.432C423.264 175.716 405.509 175.887 397.024 184.102C383.703 175.225 364.952 175.951 354.876 193.725Z" fill="#FFA8A7"/>
<path d="M398.233 261.558C396.405 259.631 394.025 258.326 391.424 257.824C390.249 257.553 389.045 257.431 387.839 257.461C386.561 257.404 385.293 257.723 384.191 258.379C384.029 258.522 383.908 258.707 383.841 258.913C383.774 259.119 383.763 259.34 383.809 259.552C383.809 259.894 384.106 260.534 384.53 260.555C385.141 260.549 385.751 260.499 386.355 260.406C387.012 260.406 387.649 260.406 388.306 260.406C389.37 260.399 390.431 260.52 391.467 260.768C392.497 261.009 393.494 261.375 394.436 261.857C395.421 262.447 396.37 263.095 397.279 263.798C397.377 263.887 397.494 263.95 397.622 263.982C397.749 264.014 397.882 264.014 398.01 263.983C398.138 263.951 398.256 263.889 398.354 263.801C398.452 263.713 398.527 263.602 398.573 263.478C398.701 263.158 398.738 262.809 398.678 262.469C398.618 262.129 398.464 261.814 398.233 261.558V261.558Z" fill="#B16668"/>
<path d="M387.84 289.489C373.203 288.273 365.355 285.819 359.012 283.216C347.324 278.415 342.509 277.177 332.476 252.041C332.476 252.041 333.579 274.275 347.324 285.627C358.164 294.717 384.87 296.851 384.87 296.851L387.84 289.489Z" fill="#F28F8F"/>
<path d="M428.44 188.369C423.031 173.177 406.528 161.676 396.982 184.102C383.767 165.111 360.922 167.757 355.979 191.89C353.096 205.455 353.621 219.528 357.506 232.837C357.506 232.837 342.658 225.561 342.085 204.735C342.085 204.735 339.794 219.843 341.597 225.838C341.597 225.838 305.027 222.339 294.549 211.158C294.549 211.158 285.661 169.549 313.534 158.945C315.655 141.085 342.637 118.403 388.794 129.818C434.952 141.234 441.825 165.837 441.825 165.837C437.377 162.771 432.53 160.337 427.422 158.603C436.173 167.11 441.466 178.587 442.27 190.802C443.798 211.457 433.51 222.062 433.51 222.062C433.51 222.062 432.789 200.532 428.44 188.369Z" fill="#37474F"/>
<path d="M312.642 161.846L298.048 150.857C299.574 148.906 301.791 147.625 304.235 147.283C306.679 146.941 309.16 147.564 311.157 149.022C312.113 149.75 312.913 150.665 313.508 151.712C314.103 152.76 314.482 153.917 314.62 155.115C314.759 156.313 314.655 157.527 314.315 158.684C313.975 159.841 313.406 160.916 312.642 161.846V161.846Z" fill="#37474F"/>
<path d="M314.636 160.758L297.56 167.16C296.762 164.814 296.894 162.249 297.929 159.999C298.965 157.749 300.823 155.988 303.118 155.082C304.243 154.669 305.44 154.488 306.636 154.551C307.833 154.614 309.004 154.92 310.08 155.45C311.156 155.981 312.114 156.724 312.897 157.636C313.68 158.548 314.272 159.61 314.636 160.758V160.758Z" fill="#37474F"/>
<path d="M389.749 169.507C389.916 169.51 390.08 169.457 390.215 169.358C390.359 169.237 390.45 169.065 390.47 168.878C390.49 168.691 390.436 168.503 390.321 168.355C374.646 148.617 332.815 146.739 316.482 156.79C316.402 156.839 316.333 156.903 316.279 156.979C316.224 157.055 316.185 157.141 316.163 157.232C316.141 157.323 316.138 157.417 316.152 157.51C316.167 157.603 316.2 157.691 316.248 157.771C316.297 157.851 316.361 157.92 316.436 157.975C316.512 158.03 316.597 158.07 316.688 158.092C316.779 158.114 316.873 158.117 316.965 158.102C317.057 158.088 317.145 158.055 317.224 158.006C332.773 148.447 374.221 150.388 389.197 169.251C389.266 169.33 389.351 169.394 389.446 169.438C389.541 169.482 389.644 169.506 389.749 169.507V169.507Z" fill="#263238"/>
<path d="M384 224.302C384.011 225.407 383.699 226.491 383.103 227.418C382.507 228.346 381.652 229.077 380.646 229.52C379.64 229.963 378.527 230.099 377.445 229.91C376.363 229.722 375.36 229.217 374.56 228.46C373.761 227.702 373.201 226.725 372.949 225.649C372.698 224.574 372.766 223.448 373.146 222.411C373.526 221.375 374.2 220.473 375.086 219.819C375.971 219.165 377.028 218.788 378.125 218.733C378.875 218.708 379.622 218.832 380.325 219.098C381.027 219.365 381.67 219.769 382.216 220.286C382.762 220.804 383.201 221.426 383.507 222.115C383.814 222.804 383.981 223.548 384 224.302V224.302Z" fill="#263238"/>
<path d="M424.494 221.251C424.546 221.982 424.453 222.715 424.222 223.41C423.991 224.104 423.625 224.746 423.145 225.297C422.666 225.849 422.083 226.299 421.43 226.623C420.777 226.947 420.066 227.137 419.34 227.183C418.6 227.256 417.854 227.17 417.15 226.93C416.446 226.689 415.802 226.301 415.26 225.789C414.717 225.278 414.29 224.657 414.006 223.966C413.722 223.275 413.588 222.532 413.612 221.784C413.548 221.049 413.632 220.308 413.859 219.606C414.086 218.905 414.452 218.256 414.934 217.7C415.417 217.143 416.006 216.691 416.666 216.369C417.326 216.047 418.045 215.863 418.777 215.827C419.51 215.791 420.243 215.904 420.931 216.16C421.62 216.416 422.25 216.808 422.784 217.315C423.317 217.821 423.744 218.431 424.038 219.108C424.332 219.784 424.487 220.513 424.494 221.251V221.251Z" fill="#263238"/>
<path d="M396.834 212.417L399.316 250.718L419.107 242.311L396.834 212.417Z" fill="#F28F8F"/>
<path d="M364.951 209.75L375.897 199.615C377.224 201.138 377.915 203.12 377.824 205.144C377.733 207.168 376.868 209.078 375.409 210.475C374.685 211.139 373.834 211.648 372.909 211.971C371.984 212.295 371.003 212.427 370.026 212.359C369.049 212.292 368.096 212.025 367.223 211.577C366.351 211.128 365.578 210.507 364.951 209.75V209.75Z" fill="#263238"/>
<path d="M416.222 197.523L428.037 206.805C427.474 207.609 426.755 208.288 425.923 208.803C425.09 209.317 424.162 209.655 423.196 209.797C422.229 209.939 421.244 209.881 420.3 209.627C419.356 209.373 418.474 208.928 417.707 208.32C416.131 207.054 415.099 205.229 414.823 203.22C414.547 201.211 415.047 199.172 416.222 197.523V197.523Z" fill="#263238"/>
<path d="M321.87 249.075C326.94 247.881 330.843 252.511 330.843 252.511C330.843 252.511 334.81 249.929 337.207 252.511C338.759 254.152 339.837 256.188 340.325 258.4C340.325 258.4 344.44 255.498 347.24 258.805C348.962 260.889 350.221 263.319 350.931 265.932C350.931 265.932 354.601 264.524 357.761 269.346C360.031 272.824 364.273 278.244 369.682 280.527C374.54 282.661 372.185 285.67 366.861 287.078C361.537 288.486 319.664 251.508 319.664 251.508L321.87 249.075Z" fill="#F28F8F"/>
<path d="M275.86 442.95C277.812 444.871 318.179 424.088 321.106 398.589C310.394 396.05 273.909 421.314 275.86 442.95Z" fill="#263238"/>
<path d="M283.306 302.91C251.976 314.582 244.318 339.974 247.245 366.092C249.494 385.509 261.415 406.015 285.915 446.3C310.415 486.586 330.715 473.378 330.715 473.378L337.418 443.505L302.185 355.423C302.185 355.423 300.361 316.759 283.306 302.91Z" fill="#FFA8A7"/>
<path d="M317.627 393.745L312.473 380.687C312.473 380.687 293.806 416.022 302.609 439.045L317.627 393.745Z" fill="#F28F8F"/>
<path d="M283.688 300.371C258.233 309.418 248.964 319.917 245.039 342.407C242.388 357.62 244.403 368.545 251.148 389.584C258.127 411.434 276.327 442.929 276.327 442.929C276.582 430.254 300.7 401.533 321.552 398.568C321.552 398.568 309.567 362.016 305.982 352.051C302.397 342.086 294.633 312.192 283.688 300.371Z" fill="#263238"/>
<path d="M365.248 325.059C368.748 315.287 371.612 306.88 370.403 301.588C368.812 294.44 365.355 293.181 365.355 293.181C366.697 292.967 367.986 292.497 369.152 291.794C369.757 291.433 370.266 290.93 370.635 290.328C371.005 289.726 371.223 289.043 371.273 288.337C371.421 286.459 367.497 285.286 365.927 284.219C360.752 280.698 359.012 278.18 355.321 273.379C354.81 272.609 354.147 271.952 353.373 271.45C352.6 270.947 351.732 270.609 350.824 270.456C349.679 266.935 348.448 263.735 346.073 262.561C345.259 262.152 344.369 261.916 343.461 261.869C342.552 261.821 341.643 261.962 340.791 262.284C340.079 259.876 338.527 257.808 336.421 256.458C334.669 255.767 332.722 255.767 330.97 256.458C329.811 254.839 328.481 253.351 327.003 252.02C325.578 251.092 323.905 250.627 322.209 250.688C320.512 250.749 318.876 251.333 317.521 252.362C313.851 254.901 312.557 258.763 310.839 262.668C309.329 266.113 308.115 269.683 307.212 273.337C306.301 276.741 305.593 280.197 305.091 283.685C304.722 285.691 304.802 287.754 305.324 289.724C306.894 293.992 329.697 317.954 329.697 317.954C327.724 332.016 311.985 392.828 305.218 413.654C298.854 433.498 304.794 465.995 314.148 471.266C323.503 476.536 335.764 477.454 351.185 454.558C368.239 429.145 356.594 349.214 365.248 325.059Z" fill="#FFA8A7"/>
<path d="M330.8 473.377C336.718 471.244 343.315 465.973 350.654 455.262C347.282 454.515 343.845 453.96 340.494 453.555C334.766 452.829 329.888 450.269 324.351 448.604C324.228 448.522 324.086 448.474 323.939 448.464C323.792 448.454 323.645 448.482 323.512 448.547C323.379 448.611 323.266 448.71 323.182 448.832C323.099 448.954 323.048 449.097 323.036 449.244C322.628 450.591 322.525 452.012 322.734 453.404C322.943 454.796 323.46 456.124 324.245 457.289C325.604 459.048 327.264 460.551 329.145 461.727C329.739 462.132 330.757 462.559 332.921 463.861C333.833 464.416 334.554 465.077 334.385 465.867C333.876 468.32 325.751 468.299 324.245 468.299C319.282 468.229 314.359 467.387 309.651 465.802C308.504 465.474 307.4 465.008 306.363 464.416C305.362 463.771 304.455 462.988 303.669 462.09C302.563 460.955 301.522 459.758 300.551 458.505C298.331 455.18 295.779 452.092 292.936 449.287C290.967 447.554 288.516 446.474 285.915 446.193V446.342C310.457 486.457 330.8 473.377 330.8 473.377Z" fill="#F28F8F"/>
<path d="M365.821 292.689C363.637 293.088 361.395 293.052 359.224 292.583C357.724 292.416 356.275 291.936 354.97 291.171C353.666 290.407 352.535 289.375 351.652 288.144C351.652 288.144 351.312 278.969 350.358 279.716C349.403 280.463 349.658 287.589 349.658 287.589C348.268 286.84 347.03 285.834 346.009 284.624C344.079 285.84 346.688 287.974 349.382 289.681C350.938 290.834 352.592 291.848 354.324 292.711C357.09 293.77 360.02 294.333 362.979 294.375C363.9 294.286 364.83 294.409 365.697 294.734C366.564 295.059 367.347 295.579 367.985 296.253C367.031 294.908 365.821 292.689 365.821 292.689Z" fill="#B16668"/>
<path d="M352.309 270.755C351.97 270.755 351.63 271.096 351.312 271.032C348.342 270.541 345.139 271.544 340.876 274.297C337.231 277.069 334.046 280.403 331.436 284.176C331.436 284.176 332.136 279.909 337.8 274.788C343.464 269.667 349.148 268.728 352.309 270.755Z" fill="#B16668"/>
<path d="M340.961 261.687L340.833 262.753C330.567 266.21 325.391 273.252 321.742 278.629C321.742 278.629 322.039 273.892 329.57 267.384C332.817 264.531 336.74 262.569 340.961 261.687V261.687Z" fill="#B16668"/>
<path d="M329.485 254.644C327.639 255.135 325.073 257.461 321.997 260.918C318.766 264.509 316.208 268.658 314.445 273.165C316.439 269.922 323.333 259.488 331.648 256.671C330.691 256.307 329.914 255.579 329.485 254.644V254.644Z" fill="#B16668"/>
<path d="M321.87 309.419C327.627 314.79 334.941 318.169 342.743 319.063C338.34 319.715 333.85 319.379 329.591 318.082L321.87 309.419Z" fill="#B16668"/>
<path d="M360.943 406.015C361.303 396.392 361.388 386.811 361.409 377.124C361.431 367.436 361.409 357.92 361.728 348.19C361.886 343.364 362.29 338.55 362.937 333.765C363.259 331.362 363.762 328.987 364.443 326.66C365.1 324.313 366.012 322.094 366.755 319.81C368.429 315.317 369.603 310.651 370.255 305.898C370.466 303.54 370.124 301.165 369.258 298.963C368.614 296.736 367.19 294.818 365.249 293.565C365.159 293.519 365.091 293.44 365.059 293.344C365.028 293.248 365.035 293.143 365.079 293.053C365.136 292.967 365.217 292.9 365.312 292.861C366.744 292.657 368.105 292.108 369.279 291.26C369.825 290.829 370.261 290.273 370.552 289.639C370.699 289.355 370.788 289.045 370.813 288.726C370.839 288.407 370.8 288.086 370.7 287.782C369.744 286.737 368.55 285.939 367.221 285.457C365.856 284.758 364.568 283.914 363.382 282.939C360.987 281.059 358.847 278.871 357.018 276.431C356.085 275.278 355.173 274.02 354.218 272.931C353.349 271.831 352.084 271.118 350.697 270.947C350.607 270.947 350.52 270.917 350.447 270.864C350.375 270.81 350.321 270.735 350.294 270.648C349.673 268.293 348.615 266.078 347.176 264.119C346.389 263.277 345.357 262.709 344.227 262.497C343.084 262.291 341.908 262.387 340.812 262.775C340.754 262.795 340.692 262.803 340.63 262.798C340.569 262.794 340.509 262.778 340.453 262.75C340.398 262.722 340.349 262.684 340.308 262.637C340.268 262.59 340.238 262.535 340.218 262.476C339.632 260.467 338.447 258.687 336.824 257.376C335.96 256.851 334.984 256.541 333.978 256.47C332.971 256.4 331.962 256.571 331.033 256.971C330.937 257.001 330.834 257.004 330.736 256.977C330.638 256.951 330.55 256.897 330.482 256.821C329.231 254.897 327.625 253.231 325.752 251.914C324.752 251.457 323.667 251.221 322.57 251.221C321.472 251.221 320.387 251.457 319.388 251.914C317.267 252.819 315.469 254.352 314.233 256.309C313.04 258.32 312.011 260.425 311.158 262.604C309.311 266.913 307.89 271.394 306.915 275.983C306.385 278.266 305.918 280.592 305.579 282.917C305.381 284.067 305.267 285.229 305.239 286.395C305.137 287.511 305.26 288.636 305.6 289.703V289.703C306.289 291.06 307.129 292.334 308.103 293.501C309.058 294.717 310.055 295.933 311.052 297.107C313.046 299.497 315.103 301.823 317.182 304.148C321.339 308.772 325.582 313.352 329.909 317.89C329.93 317.922 329.941 317.959 329.941 317.997C329.941 318.035 329.93 318.072 329.909 318.103C329.23 322.627 328.212 327.087 327.194 331.525C326.176 335.963 325.073 340.401 323.949 344.818L317.14 371.341L323.63 344.754L326.727 331.418C327.724 326.98 328.721 322.52 329.379 318.018V318.253C325.136 313.729 320.894 309.184 316.652 304.554C314.53 302.249 312.409 299.902 310.479 297.534C309.461 296.339 308.464 295.144 307.509 293.906C306.484 292.69 305.601 291.358 304.879 289.938C304.441 288.775 304.274 287.527 304.391 286.289C304.439 285.096 304.552 283.906 304.73 282.725C305.07 280.378 305.515 278.052 306.046 275.727C307.058 271.087 308.514 266.556 310.394 262.198C311.271 259.988 312.313 257.848 313.512 255.797C314.783 253.697 316.653 252.032 318.879 251.017C320.007 250.496 321.233 250.226 322.474 250.226C323.716 250.226 324.942 250.496 326.07 251.017C327.139 251.629 328.088 252.432 328.87 253.386C329.671 254.267 330.422 255.193 331.118 256.16L330.588 256.01C331.662 255.59 332.809 255.394 333.961 255.434C335.141 255.456 336.289 255.819 337.27 256.48C338.21 257.153 338.998 258.018 339.582 259.019C340.189 259.971 340.674 260.996 341.024 262.07L340.43 261.772C341.685 261.341 343.028 261.238 344.334 261.473C345.652 261.732 346.855 262.404 347.77 263.393C349.291 265.449 350.4 267.783 351.037 270.264L350.634 269.944C352.252 270.144 353.733 270.961 354.77 272.227C355.809 273.422 356.658 274.617 357.591 275.791C359.381 278.184 361.47 280.336 363.806 282.192C364.94 283.131 366.17 283.947 367.476 284.624C368.155 284.944 368.834 285.286 369.597 285.67C370.327 286.056 370.947 286.621 371.4 287.313C371.62 288.13 371.583 288.995 371.294 289.789C371.006 290.584 370.48 291.269 369.788 291.751C368.525 292.653 367.074 293.251 365.546 293.501V292.775C367.707 294.093 369.297 296.18 370 298.622C370.418 299.779 370.73 300.972 370.934 302.185C371.071 303.412 371.071 304.65 370.934 305.877C370.266 310.684 369.063 315.401 367.349 319.938C366.606 322.222 365.673 324.462 365.015 326.745C364.343 329.045 363.84 331.391 363.509 333.765C362.809 338.524 362.491 343.325 362.258 348.126C361.876 357.749 361.855 367.33 361.728 377.038C361.6 386.747 361.409 396.392 360.943 406.015Z" fill="#B16668"/>
<path d="M391.382 500.135C384.785 502.632 376.385 508.073 367.561 510.484C358.292 512.844 348.731 513.836 339.179 513.429C334.164 513.362 329.156 513.005 324.182 512.362C318.963 511.658 314.551 508.905 309.842 506.601C305.133 504.296 300.127 501.586 298.366 496.679C297.433 494.118 297.539 491.195 296.118 488.869C295.248 487.439 293.891 486.394 292.915 485.05C291.526 482.716 290.711 480.082 290.539 477.368C290.11 474.46 289.4 471.602 288.418 468.833C286.315 462.721 283.813 456.755 280.93 450.973C280.796 450.781 280.743 450.543 280.782 450.312C280.895 450.082 281.093 449.906 281.333 449.821C283.224 449.179 285.254 449.07 287.202 449.506C289.151 449.942 290.943 450.907 292.385 452.296C295.233 455.104 297.785 458.2 300 461.535C300.976 462.773 302.015 463.968 303.118 465.12C303.91 466.006 304.816 466.781 305.812 467.425C306.847 468.022 307.951 468.488 309.1 468.812C313.809 470.391 318.73 471.24 323.694 471.329C325.2 471.329 333.324 471.329 333.854 468.897C334.024 468.086 333.282 467.425 332.37 466.891C330.248 465.632 329.188 465.184 328.615 464.757C326.717 463.586 325.049 462.075 323.694 460.298C322.908 459.133 322.392 457.806 322.183 456.414C321.973 455.022 322.077 453.6 322.485 452.253C322.546 452.002 322.688 451.777 322.888 451.613C323.032 451.551 323.187 451.518 323.344 451.518C323.501 451.518 323.656 451.551 323.8 451.613C329.273 453.278 334.215 455.881 339.942 456.564C345.578 457.166 351.141 458.324 356.551 460.02C360.265 461.53 364.053 462.847 367.9 463.968C370.156 464.507 372.496 464.583 374.781 464.191C377.067 463.799 379.25 462.946 381.2 461.685C390.576 456.478 411.152 439.878 422.14 432.025L463.694 407.423C463.694 407.423 466.579 415.958 469.443 426.179C474.937 445.831 474.3 449.65 465.582 458.015C451.031 472.012 423.264 488.058 391.382 500.135Z" fill="#FFA8A7"/>
<path d="M281.227 449.884C282.38 449.404 283.617 449.156 284.865 449.156C286.113 449.156 287.35 449.404 288.503 449.884C290.825 450.818 292.901 452.279 294.57 454.152C296.267 456.008 297.688 458.078 299.173 460.063C299.894 461.065 300.721 461.983 301.548 462.922C302.376 463.861 303.139 464.821 304.051 465.653C305.851 467.267 308.049 468.365 310.415 468.832C312.779 469.528 315.189 470.055 317.627 470.411C320.063 470.771 322.527 470.906 324.988 470.817C327.407 470.835 329.814 470.46 332.115 469.707C333.239 469.238 333.621 468.384 332.624 467.573C331.627 466.763 330.503 466.336 329.442 465.717C328.338 465.106 327.294 464.392 326.324 463.583C325.301 462.825 324.382 461.935 323.588 460.937C322.794 459.909 322.211 458.733 321.872 457.477C321.534 456.221 321.446 454.909 321.615 453.619C321.69 452.961 321.847 452.316 322.082 451.698C322.166 451.489 322.315 451.313 322.505 451.194C322.696 451.075 322.919 451.02 323.142 451.037C323.476 451.072 323.804 451.151 324.118 451.271C325.306 451.655 326.473 452.082 327.639 452.509C329.973 453.384 332.285 454.301 334.639 455.027C337.001 455.728 339.423 456.207 341.873 456.456C346.797 457.148 351.647 458.298 356.361 459.892C351.613 458.446 346.741 457.453 341.809 456.926C339.327 456.692 336.871 456.235 334.47 455.56C332.073 454.835 329.761 453.939 327.427 453.106C326.261 452.68 325.094 452.274 323.906 451.933C323.65 451.82 323.378 451.748 323.1 451.719C322.888 451.719 322.824 451.719 322.697 451.997C322.51 452.551 322.382 453.123 322.315 453.704C322.166 454.898 322.256 456.109 322.58 457.268C322.905 458.426 323.456 459.507 324.203 460.447C324.974 461.385 325.857 462.224 326.833 462.943C327.798 463.712 328.835 464.384 329.93 464.949C331.043 465.519 332.126 466.146 333.176 466.827C333.475 467.052 333.728 467.335 333.918 467.659C334.026 467.844 334.095 468.049 334.121 468.262C334.146 468.475 334.128 468.691 334.067 468.896C333.939 469.256 333.731 469.582 333.459 469.848C333.187 470.114 332.858 470.314 332.497 470.433C330.077 471.24 327.536 471.615 324.988 471.542C322.49 471.61 319.991 471.453 317.521 471.073C315.054 470.675 312.616 470.112 310.224 469.387C309.01 469.055 307.82 468.641 306.66 468.15C305.49 467.643 304.425 466.92 303.521 466.016C302.609 465.141 301.845 464.159 301.018 463.221C300.191 462.282 299.385 461.321 298.663 460.297C297.179 458.292 295.779 456.243 294.145 454.387C292.579 452.466 290.589 450.939 288.333 449.927C286.061 448.978 283.51 448.962 281.227 449.884V449.884Z" fill="#B16668"/>
<path d="M420.613 433.157C427.994 427.481 443.416 421.806 454.552 424.75C448.188 417.901 428.652 422.083 420.613 426.5V433.157Z" fill="#F28F8F"/>
<path d="M356.743 713.129C357.18 715.812 356.853 718.564 355.799 721.067C354.744 723.571 353.006 725.722 350.786 727.272C348.566 728.822 345.954 729.707 343.254 729.825C340.554 729.943 337.876 729.288 335.531 727.938L152.894 621.867C148.233 619.167 144.511 615.09 142.234 610.188C139.957 605.286 139.235 599.798 140.167 594.47L179.006 502.163H155.673L92.333 685.347C92.054 686.201 92.0364 687.119 92.2824 687.982C92.5284 688.846 93.0268 689.615 93.7128 690.19C94.3988 690.765 95.2408 691.119 96.1295 691.207C97.0182 691.295 97.9126 691.112 98.6967 690.682C99.5287 690.188 100.183 689.441 100.563 688.548L117.851 647.43C121.056 643.895 125.368 641.571 130.069 640.845C134.77 640.119 139.576 641.035 143.688 643.44L346.731 761.374C353.039 765.096 358.465 770.157 362.63 776.205C366.796 782.252 369.6 789.14 370.849 796.389L356.743 713.129Z" fill="#BA68C8"/>
<path opacity="0.2" d="M356.743 713.129C357.18 715.812 356.853 718.564 355.799 721.067C354.744 723.571 353.006 725.722 350.786 727.272C348.566 728.822 345.954 729.707 343.254 729.825C340.554 729.943 337.876 729.288 335.531 727.938L152.894 621.867C148.233 619.167 144.511 615.09 142.234 610.188C139.957 605.286 139.235 599.798 140.167 594.47L179.006 502.163H155.673L92.333 685.347C92.054 686.201 92.0364 687.119 92.2824 687.982C92.5284 688.846 93.0268 689.615 93.7128 690.19C94.3988 690.765 95.2408 691.119 96.1295 691.207C97.0182 691.295 97.9126 691.112 98.6967 690.682C99.5287 690.188 100.183 689.441 100.563 688.548L117.851 647.43C121.056 643.895 125.368 641.571 130.069 640.845C134.77 640.119 139.576 641.035 143.688 643.44L346.731 761.374C353.039 765.096 358.465 770.157 362.63 776.205C366.796 782.252 369.6 789.14 370.849 796.389L356.743 713.129Z" fill="white"/>
<path d="M390.894 743.471C389.537 744.416 387.949 744.969 386.301 745.072C384.653 745.175 383.009 744.823 381.546 744.054C380.083 743.285 378.856 742.129 377.999 740.71C377.142 739.291 376.687 737.663 376.682 736.002V736.002L375.706 725.867L375.982 728.875L367.052 635.693C366.382 627.615 364.076 619.759 360.274 612.611C356.473 605.462 351.258 599.172 344.949 594.127L166.024 451.164L162.482 431.384C156.307 436.31 151.395 442.651 148.154 449.877C144.914 457.103 143.44 465.005 143.855 472.921C144.27 480.837 146.563 488.538 150.541 495.381C154.52 502.224 160.069 508.009 166.724 512.254L319.452 609.32C326.466 613.782 332.466 619.682 337.061 626.635C341.655 633.588 344.74 641.437 346.115 649.67L381.137 857.606C381.255 858.563 381.746 859.433 382.502 860.025C382.876 860.318 383.304 860.534 383.761 860.661C384.219 860.788 384.696 860.823 385.167 860.764C385.638 860.705 386.093 860.554 386.505 860.318C386.918 860.083 387.28 859.768 387.572 859.391C387.863 859.015 388.078 858.584 388.204 858.124C388.33 857.664 388.365 857.184 388.307 856.71L383.237 803.835C381.943 788.13 387.479 772.319 401.055 764.446" fill="#BA68C8"/>
<path opacity="0.1" d="M390.894 743.471C389.537 744.416 387.949 744.969 386.301 745.072C384.653 745.175 383.009 744.823 381.546 744.054C380.083 743.285 378.856 742.129 377.999 740.71C377.142 739.291 376.687 737.663 376.682 736.002V736.002L375.706 725.867L375.982 728.875L367.052 635.693C366.382 627.615 364.076 619.759 360.274 612.611C356.473 605.462 351.258 599.172 344.949 594.127L166.024 451.164L162.482 431.384C156.307 436.31 151.395 442.651 148.154 449.877C144.914 457.103 143.44 465.005 143.855 472.921C144.27 480.837 146.563 488.538 150.541 495.381C154.52 502.224 160.069 508.009 166.724 512.254L319.452 609.32C326.466 613.782 332.466 619.682 337.061 626.635C341.655 633.588 344.74 641.437 346.115 649.67L381.137 857.606C381.255 858.563 381.746 859.433 382.502 860.025C382.876 860.318 383.304 860.534 383.761 860.661C384.219 860.788 384.696 860.823 385.167 860.764C385.638 860.705 386.093 860.554 386.505 860.318C386.918 860.083 387.28 859.768 387.572 859.391C387.863 859.015 388.078 858.584 388.204 858.124C388.33 857.664 388.365 857.184 388.307 856.71L383.237 803.835C381.943 788.13 387.479 772.319 401.055 764.446" fill="black"/>
</svg>
