<svg width="1000" height="1000" viewBox="0 0 1000 1000" fill="none" xmlns="http://www.w3.org/2000/svg">
<path d="M1000 878.783H0V879.454H1000V878.783Z" fill="#EBEBEB"/>
<path d="M899.799 921.973H833.559V922.644H899.799V921.973Z" fill="#EBEBEB"/>
<path d="M662.439 929.271H645.059V929.943H662.439V929.271Z" fill="#EBEBEB"/>
<path d="M831.559 897.063H793.179V897.735H831.559V897.063Z" fill="#EBEBEB"/>
<path d="M191.301 901.571H104.921V902.242H191.301V901.571Z" fill="#EBEBEB"/>
<path d="M221.778 901.571H209.118V902.242H221.778V901.571Z" fill="#EBEBEB"/>
<path d="M450.301 912.899H262.941V913.57H450.301V912.899Z" fill="#EBEBEB"/>
<path d="M474.001 759.072H87.8209C84.7956 759.065 81.896 757.447 79.7587 754.574C77.6213 751.7 76.4209 747.806 76.4209 743.746V15.1922C76.4472 11.1553 77.6593 7.29541 79.7938 4.45087C81.9283 1.60634 84.8128 0.00691536 87.8209 0H474.001C477.03 0 479.934 1.61474 482.076 4.48899C484.218 7.36325 485.421 11.2616 485.421 15.3264V743.746C485.421 747.811 484.218 751.709 482.076 754.583C479.934 757.457 477.03 759.072 474.001 759.072V759.072ZM87.8209 0.536828C84.9282 0.543938 82.1558 2.09111 80.1122 4.83875C78.0686 7.5864 76.9209 11.31 76.9209 15.1922V743.746C76.9209 747.628 78.0686 751.351 80.1122 754.099C82.1558 756.847 84.9282 758.394 87.8209 758.401H474.001C476.895 758.394 479.67 756.848 481.717 754.101C483.763 751.354 484.916 747.63 484.921 743.746V15.1922C484.916 11.3075 483.763 7.58399 481.717 4.83712C479.67 2.09024 476.895 0.543923 474.001 0.536828H87.8209Z" fill="#EBEBEB"/>
<path d="M906.621 759.072H520.421C517.394 759.065 514.492 757.448 512.352 754.575C510.211 751.703 509.006 747.808 509.001 743.746V15.1922C509.033 11.1529 510.249 7.29299 512.387 4.4492C514.524 1.6054 517.411 0.00683994 520.421 0H906.621C909.626 0.0139695 912.505 1.61652 914.635 4.46029C916.765 7.30407 917.975 11.1599 918.001 15.1922V743.746C918.001 747.801 916.803 751.691 914.67 754.564C912.537 757.437 909.643 759.058 906.621 759.072V759.072ZM520.421 0.536828C517.526 0.543923 514.752 2.09024 512.705 4.83712C510.658 7.58399 509.506 11.3075 509.501 15.1922V743.746C509.506 747.63 510.658 751.354 512.705 754.101C514.752 756.848 517.526 758.394 520.421 758.401H906.621C909.516 758.394 912.29 756.848 914.337 754.101C916.383 751.354 917.536 747.63 917.541 743.746V15.1922C917.536 11.3075 916.383 7.58399 914.337 4.83712C912.29 2.09024 909.516 0.543923 906.621 0.536828H520.421Z" fill="#EBEBEB"/>
<path d="M253.219 150.929H133.919V389.602H253.219V150.929Z" fill="#E6E6E6"/>
<path d="M253.22 389.628H255.1L255.1 150.955H253.22L253.22 389.628Z" fill="#E0E0E0"/>
<path d="M246.479 380.557V160.002H140.679V380.557H246.479Z" fill="#FAFAFA"/>
<path d="M213.584 252.173C224.628 237.352 224.628 213.321 213.584 198.499C202.54 183.677 184.634 183.677 173.59 198.499C162.546 213.321 162.546 237.352 173.59 252.173C184.634 266.995 202.54 266.995 213.584 252.173Z" fill="#F0F0F0"/>
<path d="M228.46 285.242H158.68V294.825H228.46V285.242Z" fill="#EBEBEB"/>
<path d="M228.46 310.742H158.68V320.325H228.46V310.742Z" fill="#EBEBEB"/>
<path d="M228.46 336.215H158.68V345.797H228.46V336.215Z" fill="#EBEBEB"/>
<path d="M403.14 185.313H283.84V423.986H403.14V185.313Z" fill="#E6E6E6"/>
<path d="M403.141 423.958H405.021V185.285H403.141V423.958Z" fill="#E0E0E0"/>
<path d="M396.4 414.939V194.384H290.6V414.939H396.4Z" fill="#FAFAFA"/>
<path d="M370.994 268.384C374.582 247.983 365.167 227.542 349.966 222.727C334.765 217.912 319.534 230.547 315.946 250.947C312.359 271.348 321.773 291.789 336.974 296.604C352.175 301.419 367.406 288.785 370.994 268.384Z" fill="#F0F0F0"/>
<path d="M378.381 319.626H308.601V329.209H378.381V319.626Z" fill="#EBEBEB"/>
<path d="M378.381 345.099H308.601V354.681H378.381V345.099Z" fill="#EBEBEB"/>
<path d="M378.381 370.571H308.601V380.154H378.381V370.571Z" fill="#EBEBEB"/>
<path d="M823.859 523.406H302.479V530.867H823.859V523.406Z" fill="#EBEBEB"/>
<path d="M823.84 530.868H866.06V523.407H823.84V530.868Z" fill="#E0E0E0"/>
<path d="M823.84 530.868H309.62V878.785H823.84V530.868Z" fill="#F5F5F5"/>
<path d="M424.961 530.868H422.081V878.785H424.961V530.868Z" fill="#E6E6E6"/>
<path d="M560.959 601.621H558.079V878.785H560.959V601.621Z" fill="#E6E6E6"/>
<path d="M423.52 809.963V806.098H309.64V809.963H423.52Z" fill="#E6E6E6"/>
<path d="M423.52 741.142V737.277H309.64V741.142H423.52Z" fill="#E6E6E6"/>
<path d="M423.52 672.322V668.457H309.64V672.322H423.52Z" fill="#E6E6E6"/>
<path d="M823.859 603.554V599.689H309.639V603.554H823.859Z" fill="#E6E6E6"/>
<path d="M823.861 878.783H860.801V530.866H823.861V878.783Z" fill="#EBEBEB"/>
<path d="M832.538 58.2712H650.538V406.081H832.538V58.2712Z" fill="#FAFAFA"/>
<path d="M834.541 62.4605H648.541C648.133 62.4605 647.728 62.352 647.351 62.1413C646.973 61.9305 646.63 61.6217 646.342 61.2325C646.054 60.8433 645.826 60.3815 645.672 59.8736C645.517 59.3658 645.439 58.8219 645.441 58.2733V58.2733C645.439 57.7259 645.517 57.1833 645.672 56.6769C645.827 56.1706 646.055 55.7105 646.344 55.3235C646.632 54.9364 646.975 54.6301 647.352 54.4223C647.729 54.2145 648.134 54.1093 648.541 54.1129H834.541C834.95 54.1093 835.356 54.2143 835.734 54.4218C836.112 54.6293 836.456 54.9352 836.746 55.3219C837.036 55.7086 837.267 56.1684 837.424 56.6749C837.581 57.1815 837.661 57.7247 837.661 58.2733V58.2733C837.661 59.3838 837.333 60.4488 836.748 61.2341C836.163 62.0194 835.369 62.4605 834.541 62.4605Z" fill="#EBEBEB"/>
<path d="M834.541 410.269H648.541C648.133 410.269 647.728 410.16 647.351 409.95C646.973 409.739 646.63 409.43 646.342 409.041C646.054 408.652 645.826 408.19 645.672 407.682C645.517 407.174 645.439 406.63 645.441 406.082V406.082C645.439 405.534 645.517 404.992 645.672 404.485C645.827 403.979 646.055 403.519 646.344 403.132C646.632 402.745 646.975 402.438 647.352 402.231C647.729 402.023 648.134 401.918 648.541 401.921H834.541C834.95 401.918 835.356 402.023 835.734 402.23C836.112 402.438 836.456 402.744 836.746 403.13C837.036 403.517 837.267 403.977 837.424 404.483C837.581 404.99 837.661 405.533 837.661 406.082C837.661 407.192 837.333 408.257 836.748 409.042C836.163 409.828 835.369 410.269 834.541 410.269V410.269Z" fill="#EBEBEB"/>
<path d="M748.36 144.166H734.72C723.023 144.166 713.54 156.892 713.54 172.59V229.816C713.54 245.515 723.023 258.241 734.72 258.241H748.36C760.057 258.241 769.54 245.515 769.54 229.816V172.59C769.54 156.892 760.057 144.166 748.36 144.166Z" fill="#F0F0F0"/>
<path d="M725.54 374.114C722.357 374.114 719.305 372.417 717.055 369.397C714.804 366.377 713.54 362.281 713.54 358.009V236.338C713.54 232.066 714.804 227.97 717.055 224.95C719.305 221.93 722.357 220.233 725.54 220.233C728.723 220.233 731.775 221.93 734.025 224.95C736.276 227.97 737.54 232.066 737.54 236.338V358.009C737.54 362.281 736.276 366.377 734.025 369.397C731.775 372.417 728.723 374.114 725.54 374.114V374.114Z" fill="#F0F0F0"/>
<path d="M702.139 157.987H702.119C698.165 157.987 694.959 162.289 694.959 167.596V240.283C694.959 245.59 698.165 249.892 702.119 249.892H702.139C706.093 249.892 709.299 245.59 709.299 240.283V167.596C709.299 162.289 706.093 157.987 702.139 157.987Z" fill="#F0F0F0"/>
<path d="M780.96 249.919C779.061 249.905 777.243 248.884 775.902 247.079C774.56 245.274 773.805 242.832 773.8 240.283V167.623C773.805 165.074 774.56 162.632 775.902 160.827C777.243 159.022 779.061 158.001 780.96 157.987V157.987C782.861 158.001 784.681 159.021 786.025 160.825C787.37 162.629 788.129 165.072 788.14 167.623V240.283C788.129 242.834 787.37 245.277 786.025 247.081C784.681 248.885 782.861 249.905 780.96 249.919V249.919Z" fill="#F0F0F0"/>
<path d="M757.54 374.114C754.357 374.114 751.305 372.417 749.054 369.397C746.804 366.377 745.54 362.281 745.54 358.009V236.338C745.54 232.066 746.804 227.97 749.054 224.95C751.305 221.93 754.357 220.233 757.54 220.233C760.722 220.233 763.774 221.93 766.025 224.95C768.275 227.97 769.54 232.066 769.54 236.338V358.009C769.54 362.281 768.275 366.377 766.025 369.397C763.774 372.417 760.722 374.114 757.54 374.114V374.114Z" fill="#F0F0F0"/>
<path d="M754.031 126.495C760.928 117.239 760.928 102.233 754.031 92.977C747.135 83.7213 735.953 83.7213 729.056 92.9771C722.16 102.233 722.16 117.239 729.056 126.495C735.953 135.751 747.135 135.751 754.031 126.495Z" fill="#F0F0F0"/>
<path d="M762.321 455.417H678.541V523.406H762.321V455.417Z" fill="#F5F5F5"/>
<path d="M762.321 523.406H782.961V455.416H762.321V523.406Z" fill="#EBEBEB"/>
<path d="M736.439 482.903H725.259V467.926H715.599V482.903H704.439V495.894H715.599V510.872H725.259V495.894H736.439V482.903Z" fill="white"/>
<path d="M605.179 523.405H597.179V403.129C597.179 397.803 596.397 392.529 594.878 387.608C593.36 382.687 591.134 378.216 588.328 374.45C585.521 370.684 582.19 367.697 578.523 365.659C574.857 363.621 570.927 362.571 566.959 362.571C562.99 362.571 559.061 363.621 555.394 365.659C551.728 367.697 548.396 370.684 545.59 374.45C542.784 378.216 540.558 382.687 539.039 387.608C537.52 392.529 536.739 397.803 536.739 403.129H528.739C528.739 389.525 532.766 376.478 539.933 366.859C547.101 357.239 556.822 351.835 566.959 351.835C577.095 351.835 586.817 357.239 593.984 366.859C601.152 376.478 605.179 389.525 605.179 403.129V523.405Z" fill="#EBEBEB"/>
<path d="M620.081 505.798H612.081V523.406H620.081V505.798Z" fill="#EBEBEB"/>
<path d="M365.658 517.151H357.658V523.405H365.658V517.151Z" fill="#EBEBEB"/>
<path d="M351.481 517.151H343.481V523.405H351.481V517.151Z" fill="#EBEBEB"/>
<path d="M275.62 682.494H171.48V878.785H275.62V682.494Z" fill="#F5F5F5"/>
<path d="M271.561 677.582H175.521V682.521H271.561V677.582Z" fill="#E6E6E6"/>
<path d="M204.46 633.294H242.62C251.372 633.294 259.766 637.96 265.955 646.266C272.143 654.571 275.62 665.836 275.62 677.582H171.48C171.477 671.767 172.328 666.009 173.985 660.636C175.641 655.263 178.07 650.38 181.133 646.267C184.195 642.154 187.832 638.892 191.834 636.666C195.837 634.44 200.127 633.294 204.46 633.294V633.294Z" fill="#F5F5F5"/>
<path d="M185.321 857.259H174.301C170.057 857.259 165.988 859.521 162.987 863.548C159.986 867.575 158.301 873.037 158.301 878.732H201.421C201.421 875.901 201.004 873.097 200.193 870.483C199.383 867.869 198.196 865.496 196.699 863.5C195.203 861.505 193.427 859.926 191.474 858.855C189.522 857.783 187.43 857.241 185.321 857.259Z" fill="#E6E6E6"/>
<path d="M500.002 999.999C714.167 999.999 887.782 986.396 887.782 969.615C887.782 952.834 714.167 939.23 500.002 939.23C285.837 939.23 112.222 952.834 112.222 969.615C112.222 986.396 285.837 999.999 500.002 999.999Z" fill="#F5F5F5"/>
<path d="M383.419 244.604L374.339 229.681L361.659 240.417C361.659 240.417 367.459 248.738 374.499 260.36L383.419 244.604Z" fill="#B55B52"/>
<path d="M496.639 245.811C496.119 247.314 495.759 248.227 495.319 249.381L494.059 252.602C493.199 254.722 492.359 256.816 491.459 258.883C489.699 262.998 487.853 267.042 485.919 271.015C482.032 279.149 477.742 286.923 473.079 294.286C468.137 302.144 462.571 309.254 456.479 315.491C453.109 318.834 449.521 321.762 445.759 324.241L442.739 326.039L439.559 327.623C438.499 328.133 437.359 328.509 436.239 328.938L435.399 329.26L434.199 329.609C433.319 329.851 432.459 330.012 431.619 330.146C428.559 330.549 425.471 330.332 422.459 329.502C419.991 328.851 417.573 327.89 415.239 326.63C411.347 324.491 407.622 321.838 404.119 318.712C398.058 313.227 392.351 307.067 387.059 300.299C381.919 293.884 377.159 287.254 372.599 280.49C370.319 277.081 368.059 273.699 365.859 270.21C363.659 266.72 361.559 263.365 359.279 259.473L381.399 236.443C383.119 239.369 385.179 242.724 387.159 245.811C389.139 248.898 391.159 252.065 393.279 255.098C397.479 261.137 401.779 266.962 406.199 272.303C410.364 277.435 414.855 282.069 419.619 286.153C421.515 287.781 423.524 289.157 425.619 290.26C427.339 291.146 428.619 291.119 428.239 290.985H428.039C428.039 290.985 427.879 290.985 428.039 290.985L428.379 290.851C428.819 290.609 429.239 290.475 429.699 290.233L431.039 289.455L432.439 288.515C434.439 287.028 436.339 285.313 438.119 283.389C442.207 278.824 445.891 273.646 449.099 267.955C452.608 261.826 455.796 255.377 458.639 248.656C460.106 245.22 461.486 241.731 462.779 238.188C463.439 236.443 464.079 234.672 464.779 232.82L465.659 230.136C465.919 229.33 466.259 228.283 466.399 227.8L496.639 245.811Z" fill="#794B93"/>
<path opacity="0.8" d="M496.639 245.811C496.119 247.314 495.759 248.227 495.319 249.381L494.059 252.602C493.199 254.722 492.359 256.816 491.459 258.883C489.699 262.998 487.853 267.042 485.919 271.015C482.032 279.149 477.742 286.923 473.079 294.286C468.137 302.144 462.571 309.254 456.479 315.491C453.109 318.834 449.521 321.762 445.759 324.241L442.739 326.039L439.559 327.623C438.499 328.133 437.359 328.509 436.239 328.938L435.399 329.26L434.199 329.609C433.319 329.851 432.459 330.012 431.619 330.146C428.559 330.549 425.471 330.332 422.459 329.502C419.991 328.851 417.573 327.89 415.239 326.63C411.347 324.491 407.622 321.838 404.119 318.712C398.058 313.227 392.351 307.067 387.059 300.299C381.919 293.884 377.159 287.254 372.599 280.49C370.319 277.081 368.059 273.699 365.859 270.21C363.659 266.72 361.559 263.365 359.279 259.473L381.399 236.443C383.119 239.369 385.179 242.724 387.159 245.811C389.139 248.898 391.159 252.065 393.279 255.098C397.479 261.137 401.779 266.962 406.199 272.303C410.364 277.435 414.855 282.069 419.619 286.153C421.515 287.781 423.524 289.157 425.619 290.26C427.339 291.146 428.619 291.119 428.239 290.985H428.039C428.039 290.985 427.879 290.985 428.039 290.985L428.379 290.851C428.819 290.609 429.239 290.475 429.699 290.233L431.039 289.455L432.439 288.515C434.439 287.028 436.339 285.313 438.119 283.389C442.207 278.824 445.891 273.646 449.099 267.955C452.608 261.826 455.796 255.377 458.639 248.656C460.106 245.22 461.486 241.731 462.779 238.188C463.439 236.443 464.079 234.672 464.779 232.82L465.659 230.136C465.919 229.33 466.259 228.283 466.399 227.8L496.639 245.811Z" fill="white"/>
<path d="M492.2 674.789H556.76L532.28 510.574H500.66L492.2 674.789Z" fill="#794B93"/>
<path opacity="0.6" d="M492.2 674.789H556.76L532.28 510.574H500.66L492.2 674.789Z" fill="white"/>
<path d="M506.04 945.08H489.58L488.88 893.947H505.34L506.04 945.08Z" fill="#B55B52"/>
<path d="M597.18 945.08H580.72L573.38 893.947H589.84L597.18 945.08Z" fill="#B55B52"/>
<path d="M579.599 942.531H597.999C598.323 942.528 598.638 942.677 598.889 942.951C599.141 943.225 599.314 943.608 599.379 944.034L602.259 963.655C602.324 964.139 602.308 964.636 602.213 965.11C602.118 965.585 601.945 966.026 601.708 966.4C601.471 966.775 601.175 967.075 600.842 967.277C600.508 967.48 600.145 967.581 599.779 967.574C593.339 967.439 590.219 966.929 582.079 966.929C577.079 966.929 566.759 967.627 559.859 967.627C552.959 967.627 552.219 958.474 555.059 957.642C567.799 953.911 572.679 948.785 576.819 943.873C577.595 942.99 578.582 942.514 579.599 942.531V942.531Z" fill="#263238"/>
<path d="M489.738 942.53H507.738C508.06 942.529 508.372 942.678 508.62 942.953C508.868 943.227 509.037 943.609 509.098 944.033L511.998 963.601C512.066 964.082 512.053 964.577 511.962 965.051C511.871 965.526 511.702 965.967 511.469 966.344C511.236 966.721 510.944 967.024 510.614 967.232C510.283 967.44 509.923 967.547 509.558 967.546C503.078 967.385 493.718 966.875 485.558 966.875C476.038 966.875 475.258 967.573 464.098 967.573C457.338 967.573 455.638 958.42 458.478 957.588C471.418 953.804 474.478 953.401 485.758 944.168C486.949 943.146 488.325 942.579 489.738 942.53V942.53Z" fill="#263238"/>
<path d="M368.2 224.581L357.56 224.366L355.56 242.779C362.335 244.441 369.321 243.511 375.72 240.095L375.54 234.11C375.458 231.562 374.651 229.154 373.286 227.381C371.92 225.608 370.1 224.606 368.2 224.581V224.581Z" fill="#B55B52"/>
<path d="M340.919 225.225L342.979 236.847L355.519 242.779L357.559 224.366L340.919 225.225Z" fill="#B55B52"/>
<path opacity="0.2" d="M488.88 893.975L489.24 920.333H505.7L505.34 893.975H488.88Z" fill="black"/>
<path opacity="0.2" d="M589.84 893.975H573.38L577.18 920.333H593.64L589.84 893.975Z" fill="black"/>
<path d="M469.459 232.097C464.899 255.502 456.719 314.553 465.659 408.471H553.659C554.519 392.017 548.919 317.586 558.819 240.095C559.236 236.94 559.167 233.705 558.616 230.587C558.065 227.469 557.044 224.536 555.616 221.969C554.188 219.401 552.384 217.253 550.314 215.657C548.243 214.061 545.951 213.052 543.579 212.69C540.159 212.18 536.539 211.751 532.959 211.509C520.66 211.05 508.351 211.588 496.099 213.12C490.874 213.789 485.701 215.065 480.639 216.931C477.945 217.913 475.493 219.832 473.529 222.496C471.566 225.159 470.162 228.471 469.459 232.097V232.097Z" fill="white"/>
<path d="M528.918 164.562C526.258 180.667 524.718 200.717 532.918 211.507C532.918 211.507 527.778 227.881 505.418 227.881C484.978 227.881 495.418 211.507 495.418 211.507C508.918 207.213 508.638 184.935 506.518 172.373L528.918 164.562Z" fill="#B55B52"/>
<path d="M504.399 225.653L499.559 232.82C499.388 233.068 499.269 233.373 499.217 233.704C499.164 234.034 499.179 234.378 499.259 234.699L500.799 241.033C500.885 241.388 501.05 241.7 501.271 241.925C501.493 242.151 501.761 242.28 502.039 242.295L507.259 242.644C507.506 242.658 507.752 242.586 507.973 242.436C508.194 242.285 508.382 242.061 508.519 241.785L511.639 235.638C511.827 235.306 511.929 234.901 511.929 234.484C511.929 234.067 511.827 233.661 511.639 233.33L506.599 225.626C506.467 225.404 506.298 225.226 506.107 225.104C505.916 224.982 505.706 224.92 505.494 224.923C505.282 224.926 505.074 224.993 504.884 225.119C504.694 225.245 504.529 225.428 504.399 225.653V225.653Z" fill="#794B93"/>
<path d="M503.179 242.242C503.179 242.242 495.179 321.263 494.999 335.032C495.104 348.036 496.627 360.95 499.519 373.362C499.519 373.362 505.019 359.404 505.959 334.442C506.899 309.479 505.759 256.253 506.179 242.242H503.179Z" fill="#794B93"/>
<path opacity="0.2" d="M506.64 172.4C507.9 179.754 508.5 190.437 506.06 198.919C507.66 199.858 514.26 196.449 517 194.114C523.1 188.907 525.46 183.807 527.7 172.937C528.06 170.064 528.46 167.273 528.92 164.562L506.64 172.4Z" fill="black"/>
<path d="M485.758 156.699C486.495 159.21 487.598 161.498 489.003 163.429C490.407 165.361 492.085 166.896 493.938 167.945C498.918 170.629 502.138 164.778 501.338 157.933C500.638 151.787 497.178 142.929 491.898 143.117C490.735 143.205 489.605 143.672 488.606 144.478C487.607 145.283 486.769 146.402 486.165 147.739C485.561 149.076 485.208 150.591 485.137 152.152C485.066 153.712 485.279 155.273 485.758 156.699V156.699Z" fill="#B55B52"/>
<path opacity="0.2" d="M485.758 156.699C486.495 159.21 487.598 161.498 489.003 163.429C490.407 165.361 492.085 166.896 493.938 167.945C498.918 170.629 502.138 164.778 501.338 157.933C500.638 151.787 497.178 142.929 491.898 143.117C490.735 143.205 489.605 143.672 488.606 144.478C487.607 145.283 486.769 146.402 486.165 147.739C485.561 149.076 485.208 150.591 485.137 152.152C485.066 153.712 485.279 155.273 485.758 156.699V156.699Z" fill="black"/>
<path d="M506 132.515C505.06 141.963 500.66 148.995 496.18 148.19C491.7 147.385 488.84 139.064 489.8 129.589C490.76 120.114 495.14 113.082 499.62 113.887C504.1 114.692 507 123.04 506 132.515Z" fill="#263238"/>
<path d="M536.797 143.626C532.797 165.1 531.237 177.876 521.617 187.163C507.177 201.147 488.877 186.76 488.117 164.267C487.417 144.029 494.117 112.356 510.917 107.256C514.601 106.113 518.443 106.276 522.065 107.729C525.688 109.183 528.966 111.877 531.577 115.547C534.189 119.217 536.043 123.736 536.958 128.659C537.874 133.582 537.818 138.741 536.797 143.626V143.626Z" fill="#B55B52"/>
<path d="M510.238 99.7681C500.658 102.452 490.058 112.947 499.198 120.597C508.338 128.247 528.918 129.428 528.918 129.428C528.918 129.428 522.118 150.901 531.418 161.986C534.518 159.919 527.898 178.655 527.898 178.655C531.304 177.08 534.155 173.867 535.898 169.636C541.458 167.73 557.898 132.058 546.938 121.966C544.858 101.164 523.098 96.0372 510.238 99.7681Z" fill="#263238"/>
<path d="M533.359 156.563H533.139L518.739 147.706C518.668 147.678 518.601 147.63 518.545 147.565C518.488 147.5 518.442 147.42 518.411 147.329C518.379 147.239 518.363 147.14 518.362 147.04C518.362 146.94 518.377 146.841 518.408 146.75C518.438 146.659 518.483 146.577 518.538 146.511C518.594 146.445 518.66 146.396 518.731 146.367C518.803 146.338 518.878 146.33 518.952 146.343C519.026 146.356 519.096 146.391 519.159 146.444L533.579 155.302C533.703 155.378 533.8 155.516 533.848 155.687C533.897 155.857 533.894 156.047 533.839 156.214C533.791 156.326 533.721 156.418 533.636 156.48C533.551 156.542 533.456 156.57 533.359 156.563V156.563Z" fill="white"/>
<path d="M540.657 169.098C537.891 173.209 534.036 175.704 529.917 176.05C524.497 176.426 523.097 169.474 525.697 163.408C528.037 158.04 533.697 151.168 538.577 153.664C543.457 156.161 543.997 164.025 540.657 169.098Z" fill="#B55B52"/>
<path d="M465.659 408.469C465.659 408.469 460.379 573.543 460.939 640.888C461.519 710.917 483.219 915.206 483.219 915.206H511.079C511.079 915.206 508.579 714.996 511.079 646.229C513.799 571.234 523.519 408.469 523.519 408.469H465.659Z" fill="#794B93"/>
<path d="M512.38 898.698C512.52 898.698 512.9 915.984 512.9 915.984H480.78L478.94 897.195L512.38 898.698Z" fill="#263238"/>
<path opacity="0.2" d="M503.358 452.167C502.398 534.086 505.158 583.85 511.978 623.951C513.658 584.87 516.398 533.2 518.818 490.281L503.358 452.167Z" fill="black"/>
<path d="M496.877 408.469C496.877 408.469 512.477 577.193 521.557 640.404C531.557 709.628 569.557 915.206 569.557 915.206H599.697C599.697 915.206 575.917 715.238 570.757 646.793C565.177 572.415 553.617 408.576 553.617 408.576L496.877 408.469Z" fill="#794B93"/>
<path d="M598.978 899.611C599.118 899.611 601.218 915.984 601.218 915.984H568.098L564.458 897.947L598.978 899.611Z" fill="#263238"/>
<path d="M511.78 144.191C511.52 145.963 510.64 147.224 509.78 147.036C508.92 146.848 508.44 145.265 508.68 143.493C508.92 141.722 509.82 140.46 510.68 140.648C511.54 140.836 512 142.419 511.78 144.191Z" fill="#263238"/>
<path d="M495.64 139.09C495.4 140.862 494.5 142.123 493.64 141.935C492.78 141.747 492.3 140.164 492.54 138.392C492.78 136.621 493.68 135.359 494.54 135.547C495.4 135.735 495.88 137.319 495.64 139.09Z" fill="#263238"/>
<path d="M502.357 143.518C499.619 148.157 496.431 152.282 492.877 155.785C493.549 156.96 494.408 157.921 495.39 158.599C496.372 159.276 497.453 159.654 498.557 159.704L502.357 143.518Z" fill="#A02724"/>
<path d="M502.399 165.207C502.3 165.175 502.213 165.093 502.158 164.979C502.102 164.864 502.081 164.725 502.099 164.59C502.119 164.452 502.178 164.329 502.264 164.249C502.35 164.169 502.456 164.137 502.559 164.161C504.183 164.56 505.854 164.448 507.44 163.833C509.026 163.218 510.484 162.118 511.699 160.617C511.768 160.518 511.864 160.459 511.965 160.454C512.066 160.449 512.165 160.498 512.239 160.591C512.313 160.683 512.357 160.812 512.361 160.947C512.365 161.083 512.328 161.216 512.259 161.315C510.964 162.968 509.394 164.182 507.679 164.859C505.965 165.536 504.155 165.655 502.399 165.207V165.207Z" fill="#263238"/>
<path d="M519.599 138.446C519.482 138.408 519.373 138.332 519.282 138.225C519.192 138.117 519.122 137.981 519.079 137.829C518.763 136.616 518.234 135.523 517.538 134.641C516.843 133.758 515.999 133.112 515.079 132.756C514.878 132.698 514.702 132.536 514.59 132.304C514.478 132.073 514.438 131.792 514.479 131.521C514.523 131.25 514.643 131.012 514.815 130.856C514.986 130.701 515.196 130.641 515.399 130.689C516.592 131.083 517.694 131.867 518.605 132.973C519.516 134.079 520.208 135.47 520.619 137.024C520.686 137.288 520.676 137.576 520.59 137.83C520.505 138.084 520.351 138.285 520.159 138.393C519.984 138.501 519.785 138.52 519.599 138.446V138.446Z" fill="#263238"/>
<path d="M491.498 130.635C491.385 130.603 491.281 130.528 491.198 130.42C491.057 130.221 490.979 129.957 490.979 129.682C490.979 129.408 491.057 129.144 491.198 128.944C491.972 127.637 492.962 126.59 494.09 125.886C495.219 125.183 496.454 124.842 497.698 124.891C497.798 124.908 497.894 124.951 497.982 125.018C498.07 125.085 498.146 125.175 498.208 125.283C498.269 125.39 498.314 125.513 498.34 125.644C498.366 125.775 498.372 125.911 498.358 126.045C498.348 126.183 498.317 126.317 498.269 126.439C498.22 126.561 498.154 126.669 498.074 126.756C497.994 126.843 497.902 126.908 497.803 126.948C497.704 126.987 497.6 127 497.498 126.985V126.985C496.514 126.956 495.539 127.241 494.652 127.814C493.766 128.388 492.993 129.235 492.398 130.286C492.292 130.461 492.149 130.588 491.988 130.65C491.827 130.713 491.656 130.707 491.498 130.635V130.635Z" fill="#263238"/>
<path d="M511.477 156.752C511.082 156.747 510.688 156.702 510.297 156.618C509.36 156.379 508.467 155.893 507.671 155.188C506.875 154.483 506.19 153.573 505.657 152.511C504.975 151.146 504.501 149.613 504.261 148.001C504.02 146.389 504.019 144.73 504.257 143.117C504.528 140.181 505.645 137.503 507.368 135.657C509.091 133.811 511.284 132.944 513.477 133.239C515.368 133.731 517.036 135.208 518.117 137.346C519.486 140.109 519.989 143.484 519.517 146.741V146.741C519.244 149.398 518.294 151.848 516.829 153.672C515.363 155.497 513.473 156.585 511.477 156.752V156.752ZM512.277 134.501C510.528 134.667 508.876 135.64 507.6 137.254C506.324 138.868 505.504 141.025 505.277 143.359C504.848 146.257 505.287 149.265 506.497 151.733C506.958 152.644 507.549 153.424 508.236 154.028C508.922 154.631 509.691 155.046 510.497 155.249C512.418 155.483 514.331 154.698 515.826 153.063C517.322 151.427 518.28 149.071 518.497 146.499C518.92 143.597 518.475 140.589 517.257 138.125C516.798 137.211 516.208 136.43 515.521 135.826C514.834 135.222 514.065 134.808 513.257 134.608C512.934 134.536 512.606 134.5 512.277 134.501V134.501Z" fill="white"/>
<path d="M504.76 143.921C504.678 143.92 504.597 143.893 504.524 143.842C504.451 143.79 504.388 143.716 504.34 143.626C504.015 142.746 503.462 142.055 502.784 141.684C502.106 141.314 501.351 141.288 500.66 141.613C500.532 141.677 500.391 141.674 500.265 141.604C500.139 141.535 500.037 141.403 499.98 141.237C499.926 141.07 499.923 140.88 499.971 140.71C500.02 140.539 500.116 140.401 500.24 140.324C501.156 139.888 502.157 139.902 503.065 140.365C503.974 140.827 504.73 141.707 505.2 142.848C505.237 142.925 505.262 143.012 505.274 143.102C505.286 143.193 505.285 143.286 505.27 143.375C505.255 143.465 505.227 143.55 505.188 143.625C505.148 143.701 505.098 143.765 505.04 143.814C504.958 143.889 504.86 143.927 504.76 143.921Z" fill="white"/>
<path d="M492.939 151.089C492.537 151.085 492.136 151.04 491.739 150.955C490.802 150.716 489.909 150.23 489.113 149.525C488.317 148.82 487.632 147.91 487.099 146.848C485.73 144.086 485.227 140.711 485.699 137.454C485.97 134.519 487.087 131.845 488.811 130.003C490.535 128.161 492.728 127.3 494.919 127.603C495.857 127.832 496.75 128.311 497.548 129.012C498.345 129.712 499.029 130.621 499.559 131.683C500.929 134.455 501.432 137.839 500.959 141.104V141.104C500.686 143.755 499.738 146.197 498.277 148.017C496.815 149.837 494.929 150.922 492.939 151.089V151.089ZM493.719 128.838C491.97 129.004 490.318 129.977 489.042 131.591C487.766 133.205 486.946 135.362 486.719 137.695C486.505 139.132 486.505 140.611 486.718 142.048C486.93 143.486 487.352 144.852 487.959 146.07C488.419 146.983 489.009 147.765 489.696 148.368C490.382 148.972 491.152 149.386 491.959 149.586C493.88 149.82 495.793 149.035 497.288 147.4C498.784 145.764 499.742 143.408 499.959 140.836C500.389 137.934 499.943 134.922 498.719 132.461C497.785 130.625 496.347 129.361 494.719 128.945C494.389 128.871 494.054 128.835 493.719 128.838V128.838Z" fill="white"/>
<path d="M573.998 946.37C572.888 946.488 571.782 946.1 570.858 945.269C570.581 944.935 570.368 944.517 570.236 944.051C570.103 943.584 570.056 943.081 570.098 942.585C570.108 942.275 570.177 941.973 570.3 941.71C570.423 941.446 570.594 941.23 570.798 941.082C572.618 939.847 577.858 944.222 578.458 944.706C578.524 944.76 578.575 944.842 578.604 944.938C578.633 945.035 578.638 945.142 578.618 945.242C578.607 945.347 578.572 945.444 578.518 945.521C578.465 945.598 578.395 945.651 578.318 945.672C576.902 946.122 575.453 946.356 573.998 946.37V946.37ZM571.638 941.807C571.466 941.804 571.296 941.85 571.138 941.941C571.056 942.001 570.988 942.091 570.942 942.2C570.896 942.309 570.874 942.433 570.878 942.558C570.836 942.907 570.86 943.263 570.948 943.596C571.035 943.929 571.183 944.227 571.378 944.464C572.258 945.484 574.398 945.618 577.218 944.867C575.549 943.378 573.681 942.339 571.718 941.807H571.638Z" fill="#794B93"/>
<path d="M578.317 945.618C578.259 945.644 578.195 945.644 578.137 945.618C576.457 944.383 573.237 939.552 573.637 937.082C573.704 936.699 573.864 936.356 574.092 936.108C574.32 935.86 574.604 935.721 574.897 935.713C575.193 935.662 575.494 935.695 575.781 935.811C576.067 935.926 576.331 936.122 576.557 936.384C578.417 938.478 578.697 944.84 578.717 945.135C578.705 945.274 578.66 945.405 578.588 945.507C578.516 945.609 578.42 945.676 578.317 945.698V945.618ZM575.157 936.76H574.977C574.477 936.76 574.417 937.136 574.397 937.27C574.177 938.72 576.197 942.397 577.857 944.115C577.787 941.612 577.152 939.198 576.037 937.19C575.792 936.909 575.479 936.757 575.157 936.76Z" fill="#794B93"/>
<path d="M482.837 946.396C481.426 946.575 480.012 946.091 478.837 945.027C478.574 944.713 478.373 944.314 478.254 943.869C478.135 943.423 478.102 942.945 478.157 942.477C478.171 942.192 478.238 941.916 478.354 941.677C478.469 941.437 478.629 941.241 478.817 941.108C480.817 939.578 487.377 944.087 488.117 944.624C488.192 944.672 488.252 944.751 488.29 944.849C488.328 944.947 488.341 945.059 488.328 945.168C488.314 945.277 488.275 945.377 488.215 945.453C488.156 945.53 488.079 945.578 487.997 945.591C486.3 946.073 484.572 946.343 482.837 946.396V946.396ZM479.997 941.806C479.744 941.801 479.492 941.865 479.257 941.994C479.184 942.051 479.123 942.133 479.081 942.232C479.038 942.331 479.017 942.444 479.017 942.558C478.976 942.866 478.995 943.184 479.072 943.48C479.149 943.777 479.282 944.041 479.457 944.249C480.437 945.456 483.137 945.671 486.797 944.839C484.675 943.318 482.376 942.292 479.997 941.806V941.806Z" fill="#794B93"/>
<path d="M488 945.619H487.84C485.84 944.411 482.04 939.66 482.38 937.137C482.38 936.573 482.78 935.822 483.86 935.687C484.243 935.624 484.631 935.671 485 935.823C485.369 935.976 485.71 936.232 486 936.573C488 938.881 488.38 944.84 488.4 945.082C488.401 945.173 488.388 945.264 488.36 945.348C488.333 945.431 488.291 945.505 488.24 945.565C488.164 945.606 488.082 945.625 488 945.619V945.619ZM484.1 936.761H483.86C483.16 936.761 483.1 937.217 483.08 937.352C482.88 938.828 485.48 942.586 487.48 944.223C487.355 941.727 486.656 939.345 485.48 937.405C485.097 936.965 484.604 936.735 484.1 936.761Z" fill="#794B93"/>
<path d="M534 210.031L553 213.091C556.151 213.593 559.046 215.665 561.113 218.896C563.18 222.127 564.267 226.282 564.16 230.538C563.2 270.29 559.28 324.912 562.42 408.469C564 450.61 585.94 679.432 585.94 679.432L542.72 689.605C522.082 601.673 507.619 511.344 499.52 419.796C496.378 380.011 496.271 339.899 499.2 300.084L534 210.031Z" fill="#794B93"/>
<path opacity="0.8" d="M534 210.031L553 213.091C556.151 213.593 559.046 215.665 561.113 218.896C563.18 222.127 564.267 226.282 564.16 230.538C563.2 270.29 559.28 324.912 562.42 408.469C564 450.61 585.94 679.432 585.94 679.432L542.72 689.605C522.082 601.673 507.619 511.344 499.52 419.796C496.378 380.011 496.271 339.899 499.2 300.084L534 210.031Z" fill="white"/>
<path opacity="0.2" d="M549.52 260.763C549.52 266.721 552.92 297.052 561.34 317.988C561.58 303.709 561.96 290.664 562.4 278.693L549.52 260.763Z" fill="#794B93"/>
<path opacity="0.2" d="M467.74 255.448C465.3 261.702 458.26 288.221 454.68 317.183C456.32 315.653 457.88 314.07 459.38 312.459C464.909 306.298 469.986 299.44 474.54 291.979L475.42 290.53L467.74 255.448Z" fill="#794B93"/>
<path d="M493.86 212.636L482.64 214.461C477.262 215.349 472.295 218.779 468.63 224.135C464.965 229.492 462.842 236.425 462.64 243.692C461.36 288.302 458.76 377.415 457.34 408.47C455.34 450.584 456.76 679.433 456.76 679.433L483.7 685.768C483.7 685.768 490.54 559.775 499.6 419.797C501.924 378.252 502.478 336.562 501.26 294.932L493.86 212.636Z" fill="#794B93"/>
<path opacity="0.8" d="M493.86 212.636L482.64 214.461C477.262 215.349 472.295 218.779 468.63 224.135C464.965 229.492 462.842 236.425 462.64 243.692C461.36 288.302 458.76 377.415 457.34 408.47C455.34 450.584 456.76 679.433 456.76 679.433L483.7 685.768C483.7 685.768 490.54 559.775 499.6 419.797C501.924 378.252 502.478 336.562 501.26 294.932L493.86 212.636Z" fill="white"/>
<path d="M505.457 225.008C507.965 230.409 509.979 236.194 511.457 242.241C511.457 242.241 537.717 230.135 536.777 210.729C536.777 210.729 532.777 207.562 530.377 204.985C530.357 204.985 529.177 217.225 505.457 225.008Z" fill="#F5F5F5"/>
<path d="M505.458 225.009C502.466 229.65 499.956 234.815 497.998 240.363C494.769 237.104 492.39 232.559 491.201 227.376C490.012 222.194 490.074 216.64 491.378 211.508C493.722 210.239 496.136 209.216 498.598 208.448C498.598 208.448 496.698 220.849 505.458 225.009Z" fill="#F5F5F5"/>
<path opacity="0.2" d="M532.739 420.199L562.839 454.905L542.279 441.403L532.739 420.199Z" fill="#794B93"/>
<path d="M562.957 223.265C564.237 225.654 565.197 227.533 566.277 229.653L569.337 235.853C571.337 240.005 573.277 244.201 575.157 248.442C578.937 256.951 582.497 265.647 585.777 274.747C589.166 284.054 592.047 293.68 594.397 303.547C595.649 308.822 596.638 314.202 597.357 319.652C598.119 325.554 598.46 331.54 598.377 337.528C598.005 348.829 596.38 359.992 593.557 370.651C591.001 380.459 587.843 389.966 584.117 399.075C580.57 407.884 576.664 416.423 572.417 424.655C570.337 428.753 568.191 432.779 565.977 436.734C564.877 438.72 563.737 440.706 562.577 442.666C561.417 444.625 560.317 446.45 558.877 448.705L537.737 424.092C538.537 422.803 539.737 420.978 540.617 419.314L543.577 414.16C545.577 410.671 547.417 407.128 549.237 403.424C552.828 396.266 556.12 388.847 559.097 381.199C561.953 373.887 564.341 366.264 566.237 358.411C567.987 351.488 568.938 344.247 569.057 336.938C568.819 329.818 567.732 322.795 565.837 316.136C563.738 308.349 561.19 300.793 558.217 293.535C555.177 286.02 551.797 278.558 548.217 271.284C546.397 267.66 544.517 264.064 542.597 260.548L539.677 255.313C538.717 253.649 537.677 251.77 536.817 250.455L562.957 223.265Z" fill="#794B93"/>
<path opacity="0.8" d="M562.957 223.265C564.237 225.654 565.197 227.533 566.277 229.653L569.337 235.853C571.337 240.005 573.277 244.201 575.157 248.442C578.937 256.951 582.497 265.647 585.777 274.747C589.166 284.054 592.047 293.68 594.397 303.547C595.649 308.822 596.638 314.202 597.357 319.652C598.119 325.554 598.46 331.54 598.377 337.528C598.005 348.829 596.38 359.992 593.557 370.651C591.001 380.459 587.843 389.966 584.117 399.075C580.57 407.884 576.664 416.423 572.417 424.655C570.337 428.753 568.191 432.779 565.977 436.734C564.877 438.72 563.737 440.706 562.577 442.666C561.417 444.625 560.317 446.45 558.877 448.705L537.737 424.092C538.537 422.803 539.737 420.978 540.617 419.314L543.577 414.16C545.577 410.671 547.417 407.128 549.237 403.424C552.828 396.266 556.12 388.847 559.097 381.199C561.953 373.887 564.341 366.264 566.237 358.411C567.987 351.488 568.938 344.247 569.057 336.938C568.819 329.818 567.732 322.795 565.837 316.136C563.738 308.349 561.19 300.793 558.217 293.535C555.177 286.02 551.797 278.558 548.217 271.284C546.397 267.66 544.517 264.064 542.597 260.548L539.677 255.313C538.717 253.649 537.677 251.77 536.817 250.455L562.957 223.265Z" fill="white"/>
<path d="M535.997 269.806C535.351 271.833 534.199 273.494 532.738 274.503C531.278 275.513 529.602 275.807 527.997 275.336C527.266 275.121 526.579 274.69 525.988 274.074C525.397 273.458 524.916 272.672 524.58 271.774C524.245 270.875 524.063 269.888 524.049 268.884C524.034 267.879 524.188 266.883 524.497 265.968C525.143 263.943 526.297 262.285 527.757 261.28C529.218 260.275 530.895 259.987 532.497 260.466C533.228 260.676 533.914 261.104 534.505 261.718C535.096 262.332 535.578 263.115 535.913 264.012C536.249 264.908 536.431 265.893 536.445 266.896C536.46 267.899 536.307 268.894 535.997 269.806V269.806Z" fill="#263238"/>
<path opacity="0.2" d="M535.997 269.806C535.351 271.833 534.199 273.494 532.738 274.503C531.278 275.513 529.602 275.807 527.997 275.336C527.266 275.121 526.579 274.69 525.988 274.074C525.397 273.458 524.916 272.672 524.58 271.774C524.245 270.875 524.063 269.888 524.049 268.884C524.034 267.879 524.188 266.883 524.497 265.968C525.143 263.943 526.297 262.285 527.757 261.28C529.218 260.275 530.895 259.987 532.497 260.466C533.228 260.676 533.914 261.104 534.505 261.718C535.096 262.332 535.578 263.115 535.913 264.012C536.249 264.908 536.431 265.893 536.445 266.896C536.46 267.899 536.307 268.894 535.997 269.806V269.806Z" fill="white"/>
<path d="M529.419 265.727C529.255 265.731 529.094 265.665 528.959 265.539C528.793 265.378 528.682 265.135 528.648 264.864C528.614 264.593 528.661 264.315 528.779 264.09C543.659 236.309 539.499 211.615 539.459 211.374C539.417 211.234 539.398 211.084 539.403 210.933C539.408 210.783 539.437 210.636 539.488 210.502C539.54 210.368 539.612 210.25 539.7 210.157C539.789 210.064 539.891 209.998 540 209.962C540.109 209.927 540.223 209.924 540.333 209.953C540.443 209.982 540.547 210.043 540.638 210.131C540.729 210.219 540.805 210.333 540.86 210.464C540.916 210.595 540.95 210.74 540.959 210.89C540.959 211.132 545.359 236.712 530.039 265.298C529.971 265.434 529.879 265.545 529.771 265.62C529.662 265.695 529.541 265.732 529.419 265.727V265.727Z" fill="#263238"/>
<path d="M477.537 251.636C477.342 251.63 477.154 251.529 477.011 251.351C476.867 251.173 476.777 250.931 476.757 250.669C475.137 223.399 485.897 213.333 486.357 212.931C486.529 212.782 486.736 212.727 486.937 212.777C487.138 212.827 487.317 212.978 487.437 213.199C487.551 213.43 487.592 213.713 487.551 213.985C487.509 214.257 487.39 214.495 487.217 214.648C487.117 214.648 476.757 224.526 478.317 250.508C478.328 250.782 478.259 251.05 478.125 251.256C477.99 251.461 477.801 251.588 477.597 251.609L477.537 251.636Z" fill="#263238"/>
<path d="M533.819 269.082C533.17 271.106 532.017 272.764 530.558 273.772C529.098 274.781 527.423 275.078 525.819 274.612C525.086 274.402 524.397 273.974 523.804 273.358C523.21 272.743 522.728 271.956 522.392 271.057C522.056 270.157 521.875 269.168 521.862 268.162C521.849 267.155 522.006 266.158 522.319 265.244C522.982 263.244 524.143 261.615 525.602 260.636C527.061 259.657 528.729 259.388 530.319 259.876C531.035 260.096 531.706 260.523 532.285 261.129C532.865 261.735 533.338 262.504 533.672 263.382C534.005 264.26 534.192 265.225 534.217 266.21C534.243 267.195 534.107 268.176 533.819 269.082V269.082Z" fill="#263238"/>
<path opacity="0.4" d="M533.819 269.082C533.17 271.106 532.017 272.764 530.558 273.772C529.098 274.781 527.423 275.078 525.819 274.612C525.086 274.402 524.397 273.974 523.804 273.358C523.21 272.743 522.728 271.956 522.392 271.057C522.056 270.157 521.875 269.168 521.862 268.162C521.849 267.155 522.006 266.158 522.319 265.244C522.982 263.244 524.143 261.615 525.602 260.636C527.061 259.657 528.729 259.388 530.319 259.876C531.035 260.096 531.706 260.523 532.285 261.129C532.865 261.735 533.338 262.504 533.672 263.382C534.005 264.26 534.192 265.225 534.217 266.21C534.243 267.195 534.107 268.176 533.819 269.082V269.082Z" fill="white"/>
<path opacity="0.4" d="M530.458 267.632C530.116 268.699 529.507 269.572 528.737 270.101C527.967 270.63 527.083 270.782 526.238 270.531C525.855 270.418 525.496 270.191 525.186 269.868C524.876 269.545 524.624 269.133 524.448 268.663C524.272 268.192 524.176 267.675 524.167 267.149C524.159 266.622 524.238 266.1 524.398 265.619C524.744 264.556 525.353 263.686 526.122 263.158C526.892 262.629 527.774 262.475 528.618 262.721C529.002 262.834 529.361 263.06 529.671 263.384C529.981 263.707 530.233 264.119 530.409 264.589C530.585 265.06 530.681 265.577 530.69 266.103C530.698 266.63 530.619 267.152 530.458 267.632V267.632Z" fill="white"/>
<path d="M483.62 315.089C483.416 315.082 483.223 314.968 483.081 314.773C482.939 314.577 482.859 314.315 482.86 314.042C482.857 313.906 482.875 313.77 482.912 313.643C482.949 313.516 483.004 313.401 483.075 313.303C483.146 313.206 483.23 313.128 483.324 313.075C483.418 313.022 483.518 312.995 483.62 312.995C485.087 312.937 486.487 312.16 487.556 310.809C488.625 309.459 489.288 307.63 489.42 305.667L490.9 270.774C491.024 268.326 490.769 265.87 490.152 263.56C489.536 261.251 488.569 259.137 487.315 257.352C486.06 255.568 484.544 254.151 482.862 253.19C481.18 252.229 479.368 251.746 477.54 251.77C473.694 251.832 470.006 253.836 467.212 257.383C464.417 260.929 462.721 265.758 462.46 270.908L460.96 305.802C460.906 306.734 460.999 307.671 461.232 308.552C461.464 309.433 461.831 310.24 462.31 310.92C462.788 311.599 463.367 312.138 464.009 312.5C464.651 312.862 465.343 313.04 466.04 313.022C466.246 313.022 466.445 313.132 466.591 313.328C466.737 313.525 466.82 313.791 466.82 314.069C466.814 314.344 466.731 314.606 466.585 314.801C466.44 314.996 466.245 315.109 466.04 315.115C465.134 315.126 464.236 314.885 463.403 314.408C462.57 313.931 461.819 313.228 461.198 312.344C460.576 311.459 460.098 310.412 459.792 309.268C459.486 308.124 459.359 306.907 459.42 305.694L460.92 270.8C461.206 265.124 463.075 259.8 466.155 255.89C469.236 251.98 473.3 249.771 477.54 249.703C479.58 249.678 481.603 250.22 483.48 251.294C485.358 252.369 487.049 253.953 488.449 255.947C489.848 257.941 490.925 260.301 491.612 262.881C492.298 265.46 492.58 268.202 492.44 270.935L490.96 305.828C490.824 308.326 489.995 310.664 488.635 312.379C487.275 314.095 485.485 315.062 483.62 315.089Z" fill="#263238"/>
<path d="M467.32 314.043C467.32 315.707 466.62 317.076 465.92 317.076C465.22 317.076 464.68 315.707 464.76 314.043C464.84 312.379 465.46 310.983 466.18 310.983C466.9 310.983 467.4 312.352 467.32 314.043Z" fill="#263238"/>
<path d="M484.919 314.043C484.919 315.707 484.219 317.076 483.499 317.076C482.779 317.076 482.259 315.707 482.339 314.043C482.419 312.379 483.039 310.983 483.759 310.983C484.479 310.983 484.979 312.352 484.919 314.043Z" fill="#263238"/>
<path d="M323.88 101.996L322.46 100.627C326.639 92.946 332.516 87.2273 339.255 84.2833C345.994 81.3393 353.252 81.3196 360 84.2271L359.46 86.4817C353.066 83.7315 346.19 83.7498 339.805 86.5341C333.419 89.3184 327.848 94.7276 323.88 101.996Z" fill="#794B93"/>
<path d="M317.841 126.153H316.081C316.171 121.866 316.716 117.618 317.701 113.538L319.381 114.263C318.448 118.107 317.929 122.111 317.841 126.153Z" fill="#794B93"/>
<path d="M411.861 128.031C410.324 123.476 408.114 119.387 405.364 116.012C402.615 112.637 399.383 110.047 395.866 108.398C392.348 106.749 388.618 106.076 384.901 106.419C381.183 106.763 377.557 108.116 374.241 110.396C372.573 106.028 370.273 102.15 367.475 98.9881C364.677 95.8266 361.438 93.4453 357.946 91.9833C354.455 90.5214 350.781 90.0081 347.14 90.4735C343.499 90.939 339.964 92.3738 336.741 94.6941C323.401 104.303 318.741 127.065 325.681 145.183L343.681 192.343C344.555 194.638 345.758 196.68 347.22 198.35C348.683 200.021 350.377 201.287 352.205 202.078C354.033 202.868 355.96 203.167 357.874 202.956C359.788 202.746 361.653 202.031 363.361 200.851L398.641 176.694C405.075 172.407 410.036 164.965 412.496 155.908C414.957 146.85 414.729 136.87 411.861 128.031V128.031Z" fill="#794B93"/>
</svg>
