<svg width="1001" height="1002" viewBox="0 0 1001 1002" fill="none" xmlns="http://www.w3.org/2000/svg">
<path d="M11.5415 979.467H991.196" stroke="#263238" stroke-linecap="round" stroke-linejoin="round"/>
<path d="M751.92 7.375H558.945V795.043H751.92V7.375Z" stroke="#263238" stroke-linecap="round" stroke-linejoin="round"/>
<path d="M997.045 7.37453H554.047C553.268 7.37453 552.522 7.03873 551.971 6.441C551.421 5.84327 551.112 5.03259 551.112 4.18727C551.112 3.34195 551.421 2.53126 551.971 1.93353C552.522 1.3358 553.268 1 554.047 1H997.045C997.825 0.999978 998.574 1.33504 999.127 1.93212C999.681 2.5292 999.995 3.33985 1000 4.18727C999.995 5.03469 999.681 5.84533 999.127 6.44241C998.574 7.03949 997.825 7.37456 997.045 7.37453V7.37453Z" fill="#263238" stroke="#263238" stroke-linecap="round" stroke-linejoin="round"/>
<path d="M751.625 601.329H988.177" stroke="#263238" stroke-linecap="round" stroke-linejoin="round"/>
<path d="M751.625 586.035H988.177" stroke="#263238" stroke-linecap="round" stroke-linejoin="round"/>
<path d="M751.625 289.482H988.177" stroke="#263238" stroke-linecap="round" stroke-linejoin="round"/>
<path d="M751.625 302.942H988.177" stroke="#263238" stroke-linecap="round" stroke-linejoin="round"/>
<path d="M572.942 8.5437V69.033" stroke="#263238" stroke-linecap="round" stroke-linejoin="round"/>
<path d="M581.981 17.51V407.893" stroke="#263238" stroke-linecap="round" stroke-linejoin="round"/>
<path d="M603.895 7.8103V54.8397" stroke="#263238" stroke-linecap="round" stroke-linejoin="round"/>
<path d="M603.895 66.0291V92.1692" stroke="#263238" stroke-linecap="round" stroke-linejoin="round"/>
<path d="M732.159 76.4861V87.6988" stroke="#263238" stroke-linecap="round" stroke-linejoin="round"/>
<path d="M732.159 8.5437V66.0292" stroke="#263238" stroke-linecap="round" stroke-linejoin="round"/>
<path d="M627.731 133.971V142.937" stroke="#263238" stroke-linecap="round" stroke-linejoin="round"/>
<path d="M627.731 18.2673V123.516" stroke="#263238" stroke-linecap="round" stroke-linejoin="round"/>
<path d="M641.92 17.51V50.3687" stroke="#263238" stroke-linecap="round" stroke-linejoin="round"/>
<path d="M715.394 17.51V50.3687" stroke="#263238" stroke-linecap="round" stroke-linejoin="round"/>
<path d="M659.971 7.8103V288.657" stroke="#263238" stroke-linecap="round" stroke-linejoin="round"/>
<path d="M683.808 9.30078V24.2282" stroke="#263238" stroke-linecap="round" stroke-linejoin="round"/>
<path d="M697.997 9.30078V208.402" stroke="#263238" stroke-linecap="round" stroke-linejoin="round"/>
<path d="M676.083 21.248V63.0494" stroke="#263238" stroke-linecap="round" stroke-linejoin="round"/>
<path d="M797.313 248.575L792.331 255.316" stroke="#263238" stroke-linecap="round" stroke-linejoin="round"/>
<path d="M901.591 113.31L805.357 237.682" stroke="#263238" stroke-linecap="round" stroke-linejoin="round"/>
<path d="M880.015 185.38L843.025 233.005" stroke="#263238" stroke-linecap="round" stroke-linejoin="round"/>
<path d="M797.313 545.128L792.331 551.892" stroke="#263238" stroke-linecap="round" stroke-linejoin="round"/>
<path d="M905.244 399.271L805.357 534.237" stroke="#263238" stroke-linecap="round" stroke-linejoin="round"/>
<path d="M880.015 481.957L843.025 529.559" stroke="#263238" stroke-linecap="round" stroke-linejoin="round"/>
<path d="M919.877 303.056V581.953" stroke="#263238" stroke-linecap="round" stroke-linejoin="round"/>
<path d="M919.877 6.06763V288.932" stroke="#263238" stroke-linecap="round" stroke-linejoin="round"/>
<path d="M932.671 303.401V581.955" stroke="#263238" stroke-linecap="round" stroke-linejoin="round"/>
<path d="M932.671 6.06763V288.794" stroke="#263238" stroke-linecap="round" stroke-linejoin="round"/>
<path d="M483.192 235.894H47.8154V247.588H483.192V235.894Z" stroke="#263238" stroke-linecap="round" stroke-linejoin="round"/>
<path d="M526.303 345.913H4.72168V357.607H526.303V345.913Z" stroke="#263238" stroke-linecap="round" stroke-linejoin="round"/>
<path d="M91.6431 104.506V235.597H193.683V104.506H91.6431ZM189.587 230.346H95.7179V109.734H189.587V230.346Z" fill="#263238" stroke="#263238" stroke-linecap="round" stroke-linejoin="round"/>
<path d="M264.796 255.409V344.836H334.47V255.409H264.796ZM331.598 341.259H267.583V258.963H331.619L331.598 341.259Z" fill="#263238" stroke="#263238" stroke-linecap="round" stroke-linejoin="round"/>
<path d="M215.219 157.634V235.596H276.025V157.634H215.219ZM268.72 226.424H222.44V166.806H268.72V226.424Z" fill="#263238" stroke="#263238" stroke-linecap="round" stroke-linejoin="round"/>
<path d="M37.0454 266.782V344.744H97.7671V266.782H37.0454ZM90.5464 335.572H44.2661V276.069H90.5464V335.572Z" fill="#263238" stroke="#263238" stroke-linecap="round" stroke-linejoin="round"/>
<path d="M114.638 294.045V344.812H154.162V294.045H114.638ZM149.454 338.782H119.346V300.099H149.454V338.782Z" fill="#263238" stroke="#263238" stroke-linecap="round" stroke-linejoin="round"/>
<path d="M202.277 294.045V344.812H241.801V294.045H202.277ZM237.093 338.782H206.986V300.099H237.093V338.782Z" fill="#263238" stroke="#263238" stroke-linecap="round" stroke-linejoin="round"/>
<path d="M354.018 200.674H377.032C378.471 200.674 379.851 201.295 380.869 202.4C381.886 203.505 382.458 205.004 382.458 206.567V235.596H348.677V206.59C348.671 205.039 349.229 203.548 350.229 202.44C351.229 201.333 352.59 200.698 354.018 200.674V200.674Z" stroke="#263238" stroke-linecap="round" stroke-linejoin="round"/>
<path d="M375.745 192.443H355.308V200.422H375.745V192.443Z" stroke="#263238" stroke-linecap="round" stroke-linejoin="round"/>
<path d="M369.685 192.191C372.739 183.866 376.338 175.79 380.452 168.023C385.498 159.424 397.702 152.407 405.598 152.407C413.495 152.407 428.591 161.763 438.662 174.259" stroke="#263238" stroke-linecap="round" stroke-linejoin="round"/>
<path d="M397.701 154.746C397.701 154.746 401.923 139.153 414.95 132.893C427.977 126.634 440.814 128.995 442.967 126.656" stroke="#263238" stroke-linecap="round" stroke-linejoin="round"/>
<path d="M362.929 192.03C362.903 185.652 360.986 179.452 357.461 174.351C351.718 166.555 338.079 163.413 329.443 169.765C323.972 173.854 319.127 178.853 315.086 184.578" stroke="#263238" stroke-linecap="round" stroke-linejoin="round"/>
<path d="M340.232 167.242C340.232 167.242 330.921 177.377 328.809 187.443C327.616 194.439 327.862 201.635 329.527 208.516" stroke="#263238" stroke-linecap="round" stroke-linejoin="round"/>
<path d="M380.451 168.022C387.883 152.865 386.236 135.094 391.831 119.342C397.616 103.084 410.664 94.302 426.436 93.1096" stroke="#263238" stroke-linecap="round" stroke-linejoin="round"/>
<path d="M316.312 182.628C316.312 182.628 310.4 182.628 308.437 187.741C307.255 190.995 306.848 194.521 307.254 197.991C308.919 197.585 310.469 196.748 311.771 195.55C313.072 194.352 314.087 192.829 314.728 191.112C317.093 185.15 316.312 182.628 316.312 182.628Z" fill="#794B93"/>
<path d="M327.12 170.957C327.12 170.957 324.839 165.041 319.73 165.064C316.508 165.13 313.355 166.085 310.567 167.839C311.55 169.347 312.855 170.575 314.37 171.417C315.884 172.259 317.564 172.692 319.266 172.677C325.241 172.746 327.12 170.957 327.12 170.957Z" fill="#794B93"/>
<path d="M327.037 195.927C327.037 195.927 321.949 192.671 317.853 195.927C315.304 198.068 313.299 200.877 312.025 204.09C313.644 204.667 315.367 204.809 317.047 204.506C318.727 204.202 320.315 203.462 321.674 202.348C326.509 198.564 327.037 195.927 327.037 195.927Z" fill="#794B93"/>
<path d="M329.231 206.475C329.231 206.475 324.776 210.694 326.38 215.945C327.46 219.245 329.29 222.195 331.701 224.521C332.709 223.034 333.372 221.305 333.633 219.481C333.894 217.656 333.745 215.79 333.2 214.042C331.363 207.851 329.231 206.475 329.231 206.475Z" fill="#794B93"/>
<path d="M329 184.119C329 184.119 327.501 190.311 331.555 193.681C334.151 195.749 337.188 197.067 340.38 197.511C340.441 195.661 340.089 193.824 339.353 192.155C338.618 190.486 337.522 189.035 336.158 187.926C331.471 183.936 329 184.119 329 184.119Z" fill="#794B93"/>
<path d="M334.32 165.776C334.32 165.776 336.093 159.676 332.208 156.076C329.71 153.873 326.74 152.39 323.573 151.765C323.425 153.604 323.687 155.453 324.337 157.158C324.988 158.863 326.008 160.372 327.31 161.556C331.828 165.821 334.32 165.776 334.32 165.776Z" fill="#794B93"/>
<path d="M344.898 166.394C344.898 166.394 349.268 162.106 347.579 156.855C346.436 153.608 344.563 150.723 342.132 148.463C341.145 149.966 340.506 151.705 340.271 153.534C340.036 155.362 340.211 157.225 340.781 158.965C342.723 165.064 344.898 166.394 344.898 166.394Z" fill="#794B93"/>
<path d="M404.67 140.758C404.67 140.758 409.04 136.47 407.351 131.242C406.221 127.961 404.348 125.043 401.904 122.758C400.917 124.265 400.28 126.01 400.049 127.843C399.817 129.675 399.997 131.542 400.574 133.282C402.495 139.428 404.67 140.758 404.67 140.758Z" fill="#794B93"/>
<path d="M421.982 130.944C421.982 130.944 426.353 126.656 424.663 121.405C423.53 118.134 421.657 115.224 419.216 112.944C418.229 114.447 417.591 116.187 417.355 118.015C417.12 119.844 417.295 121.707 417.865 123.446C419.807 129.614 421.982 130.944 421.982 130.944Z" fill="#794B93"/>
<path d="M436.488 127.94C436.488 127.94 440.859 123.652 439.17 118.424C438.033 115.147 436.16 112.231 433.722 109.94C432.735 111.447 432.099 113.192 431.867 115.025C431.635 116.857 431.816 118.724 432.392 120.465C434.377 126.61 436.488 127.94 436.488 127.94Z" fill="#794B93"/>
<path d="M338.587 183.362C338.587 183.362 344.498 183.155 346.314 177.973C347.402 174.677 347.7 171.134 347.18 167.677C345.533 168.136 344.013 169.02 342.749 170.254C341.484 171.487 340.513 173.034 339.917 174.763C337.742 180.839 338.587 183.362 338.587 183.362Z" fill="#794B93"/>
<path d="M433.764 142.272C433.764 142.272 435.073 136.035 430.914 132.802C428.262 130.814 425.189 129.591 421.983 129.248C421.969 131.096 422.367 132.92 423.143 134.565C423.919 136.21 425.049 137.627 426.438 138.695C431.273 142.524 433.764 142.272 433.764 142.272Z" fill="#794B93"/>
<path d="M447.91 141.86C447.91 141.86 449.241 135.6 445.081 132.367C442.428 130.383 439.356 129.161 436.15 128.812C436.149 130.671 436.563 132.501 437.357 134.147C438.152 135.793 439.303 137.204 440.711 138.26C445.44 142.112 447.91 141.86 447.91 141.86Z" fill="#794B93"/>
<path d="M322.918 190.609C322.918 190.609 328.133 187.628 327.669 182.102C327.314 178.621 326.16 175.294 324.312 172.425C323.015 173.622 322.003 175.141 321.363 176.854C320.724 178.567 320.475 180.422 320.638 182.262C321.124 188.751 322.918 190.609 322.918 190.609Z" fill="#794B93"/>
<path d="M383.093 181.23C383.093 181.23 388.308 178.226 387.844 172.7C387.489 169.22 386.335 165.892 384.487 163.023C383.19 164.22 382.178 165.739 381.539 167.452C380.899 169.165 380.65 171.02 380.813 172.86C381.299 179.349 383.093 181.23 383.093 181.23Z" fill="#794B93"/>
<path d="M371.775 161.304C371.775 161.304 367.553 165.89 369.39 170.935C370.622 174.169 372.59 177.009 375.111 179.19C376.046 177.648 376.625 175.884 376.798 174.048C376.97 172.211 376.732 170.357 376.104 168.642C373.971 162.565 371.775 161.304 371.775 161.304Z" fill="#794B93"/>
<path d="M397.659 171.829C397.659 171.829 402.874 168.825 402.409 163.299C402.055 159.822 400.892 156.5 399.031 153.645C397.741 154.842 396.735 156.359 396.099 158.067C395.464 159.775 395.216 161.625 395.378 163.459C395.843 169.948 397.659 171.829 397.659 171.829Z" fill="#794B93"/>
<path d="M415.374 171.851C415.374 171.851 419.723 167.517 417.971 162.289C416.805 159.025 414.903 156.131 412.439 153.874C411.442 155.399 410.803 157.166 410.578 159.02C410.354 160.875 410.551 162.761 411.151 164.514C413.094 170.544 415.374 171.851 415.374 171.851Z" fill="#794B93"/>
<path d="M429.034 179.969C429.034 179.969 433.383 175.635 431.631 170.407C430.465 167.143 428.563 164.249 426.099 161.992C425.13 163.509 424.512 165.259 424.299 167.091C424.085 168.924 424.283 170.785 424.875 172.517C426.859 178.662 429.034 179.969 429.034 179.969Z" fill="#794B93"/>
<path d="M446.664 161.556C446.664 161.556 442.948 156.603 438.05 158.185C434.975 159.246 432.199 161.14 429.984 163.689C431.322 164.83 432.895 165.604 434.567 165.943C436.24 166.282 437.964 166.178 439.591 165.638C445.334 163.849 446.664 161.556 446.664 161.556Z" fill="#794B93"/>
<path d="M428.149 105.859C428.149 105.859 428.149 99.4615 423.398 97.329C420.398 96.0604 417.152 95.6345 413.96 96.0908C414.337 97.8948 415.109 99.5732 416.212 100.983C417.315 102.392 418.716 103.491 420.294 104.185C425.784 106.73 428.149 105.859 428.149 105.859Z" fill="#794B93"/>
<path d="M421.052 79.8564C421.052 79.8564 415.204 80.7278 413.895 86.0934C413.128 89.4963 413.172 93.0552 414.022 96.4348C415.618 95.7906 417.046 94.7369 418.186 93.3634C419.325 91.9899 420.142 90.3374 420.567 88.5469C422.15 82.287 421.052 79.8564 421.052 79.8564Z" fill="#794B93"/>
<path d="M412.017 114.411C412.017 114.411 412.017 107.991 407.288 105.881C404.285 104.595 401.029 104.161 397.829 104.62C398.205 106.424 398.978 108.102 400.081 109.512C401.184 110.921 402.584 112.02 404.163 112.714C409.674 115.26 412.017 114.411 412.017 114.411Z" fill="#794B93"/>
<path d="M404.925 88.3857C404.925 88.3857 399.077 89.28 397.768 94.6456C397.014 98.0424 397.058 101.59 397.895 104.964C399.488 104.322 400.915 103.272 402.054 101.903C403.194 100.533 404.012 98.8854 404.44 97.0991C406.023 90.8163 404.925 88.3857 404.925 88.3857Z" fill="#794B93"/>
<path d="M405.999 125.028C405.999 125.028 402.346 120.007 397.427 121.52C394.345 122.525 391.548 124.363 389.298 126.863C390.617 128.028 392.175 128.831 393.84 129.202C395.505 129.573 397.228 129.502 398.863 128.995C404.648 127.298 405.999 125.028 405.999 125.028Z" fill="#794B93"/>
<path d="M385.604 109.482C385.604 109.482 381.508 114.068 383.493 119.182C384.83 122.368 386.885 125.136 389.468 127.23C390.356 125.653 390.879 123.865 390.993 122.021C391.107 120.176 390.808 118.329 390.123 116.637C387.927 110.537 385.604 109.482 385.604 109.482Z" fill="#794B93"/>
<path d="M401.671 146.811C401.671 146.811 398.019 141.789 393.099 143.303C390.02 144.315 387.225 146.153 384.971 148.645C386.289 149.811 387.847 150.613 389.512 150.985C391.177 151.356 392.9 151.285 394.535 150.778C400.32 149.081 401.671 146.811 401.671 146.811Z" fill="#794B93"/>
<path d="M381.277 131.152C381.277 131.152 377.181 135.738 379.165 140.851C380.502 144.037 382.557 146.805 385.14 148.899C386.028 147.322 386.551 145.534 386.665 143.69C386.779 141.845 386.48 139.998 385.795 138.306C383.536 132.413 381.277 131.152 381.277 131.152Z" fill="#794B93"/>
<path d="M430.152 152.154C430.152 152.154 426.415 147.201 421.517 148.784C418.442 149.845 415.666 151.738 413.452 154.287C414.79 155.428 416.362 156.202 418.035 156.541C419.707 156.881 421.431 156.776 423.058 156.236C428.822 154.447 430.152 152.154 430.152 152.154Z" fill="#794B93"/>
<path d="M420.716 141.584C420.716 141.584 416.979 136.608 412.081 138.213C409.011 139.274 406.237 141.159 404.016 143.693C405.352 144.839 406.923 145.617 408.596 145.96C410.269 146.303 411.993 146.202 413.622 145.665C419.386 143.877 420.716 141.584 420.716 141.584Z" fill="#794B93"/>
<path d="M457.6 124.821C457.6 124.821 453.862 119.869 448.964 121.451C445.889 122.512 443.114 124.406 440.899 126.954C442.237 128.096 443.809 128.869 445.482 129.208C447.155 129.548 448.878 129.443 450.505 128.903C456.354 127.114 457.6 124.821 457.6 124.821Z" fill="#794B93"/>
<path d="M441.554 91.1374C441.554 91.1374 437.817 86.1616 432.919 87.7438C429.854 88.8146 427.088 90.7074 424.875 93.247C426.209 94.3888 427.777 95.1644 429.445 95.5077C431.114 95.851 432.834 95.7519 434.46 95.219C440.224 93.4304 441.554 91.1374 441.554 91.1374Z" fill="#794B93"/>
<path d="M441.619 192.031C441.619 192.031 445.968 187.697 444.216 182.492C443.059 179.222 441.156 176.326 438.684 174.076C437.714 175.594 437.097 177.343 436.884 179.176C436.67 181.008 436.868 182.87 437.46 184.601C439.444 190.609 441.619 192.031 441.619 192.031Z" fill="#794B93"/>
<path d="M386.09 344.813H408.596C416.218 339.195 421.412 328.028 421.412 315.164C421.496 307.416 419.469 299.813 415.585 293.312H379.101C375.218 299.813 373.19 307.416 373.274 315.164C373.274 328.028 378.468 339.195 386.09 344.813Z" stroke="#263238" stroke-linecap="round" stroke-linejoin="round"/>
<path d="M458.783 260.085H444.405V345.912H458.783V260.085Z" stroke="#263238" stroke-linecap="round" stroke-linejoin="round"/>
<path d="M474.574 260.085H460.196V345.912H474.574V260.085Z" stroke="#263238" stroke-linecap="round" stroke-linejoin="round"/>
<path d="M490.389 260.085H476.011V345.912H490.389V260.085Z" stroke="#263238" stroke-linecap="round" stroke-linejoin="round"/>
<path d="M96.4145 740.286C90.7064 727.26 89.4202 712.463 92.783 698.507C98.3569 674.706 100.384 678.696 94.5776 664.983C88.7715 651.271 83.7465 648.474 87.2091 636.711C90.6717 624.948 96.6256 606.558 94.472 595.437C92.3185 584.316 87.6314 579.73 89.7427 567.692C91.854 555.653 98.378 549.852 95.1899 536.713C92.0018 523.574 86.4279 524.193 88.5392 512.132C90.6506 500.071 93.6064 499.154 92.7619 488.262C91.9174 477.37 94.2398 472.211 94.2398 472.211C94.2398 472.211 98.0613 489.248 100.574 498.672C103.086 508.097 103.445 513.531 102.242 520.41C101.038 527.289 115.395 539.213 115.818 544.647C116.24 550.081 119.301 556.112 114.53 567.577C109.758 579.042 108.555 585.921 111.299 593.648C114.044 601.376 117.021 600.183 114.297 615.684C111.574 631.185 103.318 631.231 109.441 643.2C115.564 655.169 119.238 657.715 116.409 666.13C113.58 674.545 109.104 684.245 110.835 689.954C111.842 692.792 113.071 695.53 114.509 698.14C118.02 704.904 119.196 712.807 117.823 720.428L117 725.129L119.681 748.861L106.654 760.441C106.654 760.441 100.616 755.442 96.4145 740.286Z" fill="#794B93"/>
<path d="M81.3827 742.349C77.6122 737.796 74.7159 732.472 72.8634 726.688C71.0109 720.904 70.2393 714.777 70.5939 708.665C71.9451 688.166 74.6476 691.101 66.5612 680.851C58.4749 670.602 53.0699 669.157 54.4211 658.907C55.7724 648.658 58.4749 632.561 54.4211 623.779C50.3674 614.996 44.9835 612.061 44.9835 601.812C44.9835 591.562 50.3885 585.761 44.9835 575.465C39.5785 565.17 34.1946 566.683 34.1946 556.433C34.1946 546.184 36.8971 537.401 34.1946 528.619C31.4921 519.837 33.2656 521.74 33.2656 521.74C33.2656 521.74 39.5996 536.025 43.6322 543.34C47.6649 550.655 49.0372 555.057 49.0372 560.905C49.0372 566.752 65.21 574.089 66.5612 578.469C67.9125 582.849 71.9451 587.274 69.2426 597.501C66.5401 607.728 66.5612 613.552 70.5939 619.468C74.6265 625.384 77.329 623.87 77.329 637.032C77.329 650.194 69.2426 651.661 77.329 660.467C85.4154 669.272 89.4691 670.693 88.1178 678.031C86.7666 685.368 84.0852 694.082 86.7666 698.507C87.7833 700.041 88.9131 701.483 90.1447 702.818C95.7504 709.093 98.8921 717.487 98.9067 726.23V726.23L105.642 745.261L94.853 756.979C94.853 756.979 88.1179 754.044 81.3827 742.349Z" fill="#794B93"/>
<path d="M158.215 742.35C161.979 737.793 164.871 732.468 166.719 726.684C168.568 720.901 169.337 714.775 168.982 708.666C167.652 688.166 164.95 691.101 173.036 680.852C181.123 670.602 186.506 669.157 185.176 658.908C183.846 648.658 181.123 632.561 185.176 623.779C189.23 614.997 194.593 612.062 194.593 601.812C194.593 591.562 189.209 585.761 194.593 575.465C199.977 565.17 205.382 566.683 205.382 556.434C205.382 546.184 202.679 537.402 205.382 528.619C208.084 519.837 204.854 524.859 204.854 524.859C204.854 524.859 199.998 535.934 195.944 543.203C191.89 550.472 190.56 554.92 190.56 560.767C190.56 566.614 174.387 573.952 173.036 578.332C171.685 582.711 167.652 587.137 170.334 597.363C173.015 607.59 173.036 613.415 168.982 619.33C164.929 625.246 162.247 623.733 162.247 636.895C162.247 650.057 170.334 651.524 162.247 660.329C154.161 669.134 150.128 670.556 151.48 677.894C152.831 685.231 155.512 693.945 152.81 698.37C151.821 699.887 150.712 701.306 149.495 702.612C143.837 708.965 140.68 717.461 140.691 726.299V726.299L133.956 745.331L144.723 757.048C144.723 757.048 151.458 754.044 158.215 742.35Z" fill="#794B93"/>
<path d="M134.44 746.019C136.89 741.858 138.551 737.209 139.327 732.342C140.103 727.476 139.977 722.49 138.958 717.677C135.411 701.626 133.616 704.263 138.81 694.954C144.004 685.644 148.121 683.695 145.799 675.738C143.476 667.782 139.465 655.331 141.576 647.764C143.687 640.197 147.678 637.078 146.432 628.915C145.186 620.752 140.098 616.877 143.244 607.934C146.39 598.992 150.76 599.404 149.578 591.264C148.396 583.124 145.123 576.497 146.221 569.114C147.319 561.73 144.933 563.657 144.933 563.657C143.84 569.913 142.351 576.081 140.478 582.115C138.134 588.513 137.607 592.204 138.367 596.859C139.127 601.514 127.092 609.677 126.543 613.346C125.994 617.015 123.313 621.119 126.712 628.892C130.111 636.666 130.808 641.32 128.296 646.571C125.783 651.822 123.461 651.02 125.044 661.522C126.628 672.024 133.257 672.024 127.895 680.164C122.532 688.304 119.449 690.07 121.434 695.687C123.419 701.305 126.607 707.932 124.981 711.738C122.582 716.082 119.833 720.188 116.768 724.006L118.541 735.654L115.48 751.705L125.488 759.479C125.488 759.479 130.492 756.314 134.44 746.019Z" fill="#794B93"/>
<path d="M173.984 734.094L170.817 819.944H162.034V886.143H73.0841V819.944H64.8711L61.7041 734.094H173.984Z" fill="#263238" stroke="#263238" stroke-miterlimit="10"/>
<path d="M62.2764 749.802L62.7409 762.23H172.952L173.395 749.802H62.2764Z" fill="white" stroke="#263238" stroke-miterlimit="10"/>
<path d="M172.108 784.839L172.403 776.928H63.29L63.5856 784.839H172.108Z" fill="white" stroke="#263238" stroke-miterlimit="10"/>
<path d="M64.8734 819.922H60.9463V979.492H73.0864V886.144" stroke="#263238" stroke-miterlimit="10"/>
<path d="M170.819 819.922H174.155V979.492H162.036V886.144" stroke="#263238" stroke-miterlimit="10"/>
<path d="M263.233 652.922C263.233 652.922 239.333 505.024 239.333 471.775C239.333 438.527 270.791 385.788 343.759 365.151C416.726 344.514 509.835 358.272 537.515 373.177C565.194 388.081 581.536 420.183 587.828 472.922C594.119 525.661 606.703 737.763 606.703 737.763L274.571 743.496L263.233 652.922Z" fill="#666666" stroke="#263238" stroke-linecap="round" stroke-linejoin="round"/>
<path d="M658.661 937.965C651.567 946.356 643.106 953.251 633.705 958.304C618.926 965.917 611.853 974.355 612.592 980.317C613.331 986.279 621.966 987.196 636.767 987.953C651.567 988.709 703.843 986.256 712.437 986.256C721.03 986.256 728.018 983.711 728.018 976.075C728.018 968.439 726.456 948.972 726.456 948.972L658.661 937.965Z" fill="white" stroke="#263238" stroke-linecap="round" stroke-linejoin="round"/>
<path d="M689.845 979.469C662.271 979.469 625.218 977.749 612.93 977.176C612.618 978.194 612.517 979.275 612.634 980.34C613.415 986.279 622.009 987.219 636.809 987.976C651.609 988.732 703.886 986.279 712.479 986.279C720.206 986.279 726.667 984.192 727.849 978.185C719.573 978.804 706.947 979.469 689.845 979.469Z" fill="white" stroke="#263238" stroke-linecap="round" stroke-linejoin="round"/>
<path d="M732.749 566.133C732.749 566.133 703.887 694.885 703.887 705.043C703.887 715.201 731.186 761.795 731.967 798.207C732.749 834.62 720.271 905.795 722.614 913.408C724.958 921.02 728.948 926.111 728.061 932.898C727.175 939.685 724.958 957.456 724.958 957.456C724.958 957.456 714.021 958.304 691.409 953.214C678.54 950.451 665.983 946.192 653.954 940.511C653.954 940.511 652.392 922.717 652.392 919.346C652.392 915.976 655.516 907.469 656.297 900.704C657.079 893.94 653.954 827.856 647.725 793.14C641.497 758.424 629.779 713.504 629.779 689.794C629.779 666.085 628.998 582.23 628.998 582.23C644.08 570.949 659.989 561.033 676.566 552.581C704.647 538.181 724.155 545.817 724.155 545.817L732.749 566.133Z" fill="#794B93" stroke="#263238" stroke-linecap="round" stroke-linejoin="round"/>
<path d="M686.974 548.065C683.428 549.36 679.959 550.892 676.587 552.651C662.376 559.959 648.63 568.286 635.437 577.576L640.546 589.522C640.546 589.522 695.758 608.783 723.015 605.069L724.176 604.885C728.99 582.964 732.748 566.202 732.748 566.202L727.427 553.637C725.225 552.127 722.816 551.005 720.291 550.312C717.293 549.853 702.176 548.913 686.974 548.065Z" fill="#263238" stroke="#263238" stroke-linecap="round" stroke-linejoin="round"/>
<path d="M744.445 937.965C737.322 946.36 728.833 953.255 719.405 958.304C704.626 965.917 697.574 974.355 698.292 980.317C699.01 986.279 707.645 987.196 722.467 987.953C737.288 988.709 789.543 986.256 798.115 986.256C806.687 986.256 813.718 983.711 813.718 976.075C813.718 968.439 812.156 948.972 812.156 948.972L744.445 937.965Z" fill="white" stroke="#263238" stroke-linecap="round" stroke-linejoin="round"/>
<path d="M775.629 979.469C748.055 979.469 711.001 977.749 698.713 977.176C698.401 978.194 698.3 979.275 698.417 980.34C699.199 986.279 707.771 987.219 722.592 987.976C737.414 988.732 789.669 986.279 798.241 986.279C805.989 986.279 812.429 984.192 813.632 978.185C805.356 978.804 792.73 979.469 775.629 979.469Z" fill="white" stroke="#263238" stroke-linecap="round" stroke-linejoin="round"/>
<path d="M818.639 566.133C818.639 566.133 789.777 694.885 789.777 705.043C789.777 715.201 817.076 761.795 817.857 798.207C818.639 834.62 806.161 905.795 808.483 913.408C810.806 921.02 814.817 926.111 813.951 932.898C813.086 939.685 810.827 957.456 810.827 957.456C810.827 957.456 799.911 958.304 777.299 953.214C764.438 950.449 751.888 946.19 739.865 940.511C739.865 940.511 738.303 922.717 738.303 919.346C738.303 915.976 741.427 907.469 742.209 900.704C742.99 893.94 739.865 827.856 733.616 793.14C727.366 758.424 715.69 713.504 715.69 689.794C715.69 666.085 714.909 582.23 714.909 582.23C729.987 570.943 745.897 561.026 762.477 552.581C790.558 538.181 810.045 545.817 810.045 545.817L818.639 566.133Z" fill="#794B93" stroke="#263238" stroke-linecap="round" stroke-linejoin="round"/>
<path d="M792.73 543.891C782.182 544.588 771.864 547.542 762.369 552.582C745.789 561.027 729.879 570.943 714.801 582.23C714.801 582.23 714.801 591.907 715.012 605.596C719.974 606.719 733.677 608.921 759.815 607.224C788.655 605.344 806.707 599.244 811.584 597.41L813.105 590.531L813.653 561.295C813.653 561.295 800.69 549.739 792.73 543.891Z" fill="#263238" stroke="#263238" stroke-linecap="round" stroke-linejoin="round"/>
<path d="M650.703 300.879C650.703 300.879 631.701 307.184 626.95 310.624C622.2 314.063 614.81 341.006 612.699 347.312C610.587 353.618 599.503 386.293 599.503 386.293L617.449 390.306C617.449 390.306 616.921 409.796 619.561 417.822C622.2 425.847 641.202 449.923 641.202 449.923L648.063 469.987L640.674 581.198C640.674 581.198 667.593 596.675 712.987 601.261C758.38 605.847 789.522 601.261 793.217 598.968C795.406 597.603 797.702 596.452 800.079 595.529L803.246 579.478L807.996 594.382C813.926 593.781 819.771 592.435 825.415 590.37C831.749 587.503 841.25 581.771 841.25 581.771C841.25 581.771 821.72 501.516 813.274 479.732C804.829 457.949 790.578 424.127 790.578 424.127C790.578 424.127 784.244 345.592 771.576 319.223C758.908 292.853 735.156 285.974 718.265 284.254C701.374 282.535 650.703 300.879 650.703 300.879Z" fill="#794B93" stroke="#263238" stroke-linecap="round" stroke-linejoin="round"/>
<path d="M645.509 303.699C641.959 316.797 639.993 330.34 639.66 343.987Z" fill="white"/>
<path d="M645.509 303.699C641.959 316.797 639.993 330.34 639.66 343.987" stroke="#263238" stroke-width="2" stroke-linecap="round" stroke-linejoin="round"/>
<path d="M642.214 430.502C641.985 430.496 641.758 430.458 641.539 430.388C640.408 429.936 639.313 429.384 638.266 428.737C637.316 429.425 636.535 429.929 636.155 430.181C635.679 430.415 635.139 430.449 634.641 430.276C634.144 430.103 633.723 429.735 633.46 429.244C633.197 428.754 633.112 428.174 633.219 427.619C633.327 427.064 633.621 426.571 634.043 426.237L634.635 425.848C632.67 424.021 631.208 421.641 630.412 418.969C628.301 411.654 626.949 349.972 630.644 343.552C631.637 341.812 633.112 340.459 634.856 339.684C636.6 338.91 638.526 338.755 640.356 339.241C642.468 339.86 647.725 342.451 648.21 353.137C648.823 366.321 649.562 411.104 648.844 416.515C648.422 419.656 645.255 423.073 642.151 425.687C642.382 425.808 642.622 425.907 642.869 425.985C643.133 426.081 643.376 426.232 643.586 426.431C643.796 426.629 643.968 426.87 644.091 427.141C644.215 427.412 644.288 427.706 644.306 428.007C644.325 428.309 644.288 428.611 644.199 428.897C644.066 429.358 643.802 429.76 643.446 430.049C643.089 430.337 642.659 430.496 642.214 430.502V430.502ZM638.245 343.368C637.441 343.381 636.652 343.612 635.952 344.041C635.251 344.469 634.66 345.082 634.234 345.822C631.573 350.798 632.544 410.53 634.466 417.501C635.165 419.725 636.477 421.663 638.224 423.05C641.602 420.344 644.452 417.409 644.685 415.713C645.318 410.92 644.685 367.353 644.009 353.205C643.756 347.817 642.067 344.286 639.322 343.529C638.972 343.419 638.609 343.365 638.245 343.368V343.368Z" fill="white" stroke="#263238" stroke-linecap="round" stroke-linejoin="round"/>
<path d="M634.573 425.779L638.268 428.668C636.755 430.037 635.033 431.108 633.18 431.832C631.216 432.268 629.654 430.502 634.573 425.779Z" fill="#263238" stroke="#263238" stroke-linecap="round" stroke-linejoin="round"/>
<path d="M642.172 425.664L638.266 428.667C638.266 428.667 642.235 434.4 646.564 432.267C650.892 430.135 642.172 425.664 642.172 425.664Z" fill="#263238" stroke="#263238" stroke-linecap="round" stroke-linejoin="round"/>
<path d="M698.291 283.888C698.291 283.888 689.846 329.863 689.846 365.909" stroke="#263238" stroke-width="2" stroke-linecap="round" stroke-linejoin="round"/>
<path d="M699.516 374.392C699.516 383.38 694.702 390.672 688.769 390.672C682.836 390.672 678.022 383.38 678.022 374.392C678.022 365.403 682.836 358.135 688.769 358.135C694.702 358.135 699.516 365.426 699.516 374.392Z" fill="white" stroke="#263238" stroke-linecap="round" stroke-linejoin="round"/>
<path d="M691.704 372.283C691.704 377.993 688.642 382.625 684.863 382.625C681.084 382.625 678.022 378.039 678.022 372.283C678.022 366.528 681.084 361.942 684.863 361.942C688.642 361.942 691.704 366.574 691.704 372.283Z" fill="white" stroke="#263238" stroke-linecap="round" stroke-linejoin="round"/>
<path d="M796.027 344.447L780.023 361.645L771.05 343.874L796.027 344.447Z" fill="#263238" stroke="#263238" stroke-linecap="round" stroke-linejoin="round"/>
<path d="M726.351 358.961L732.685 419.336C732.685 419.336 641.201 438.459 631.342 437.68C619.578 436.307 607.692 438.423 596.948 443.802C582.866 450.681 575.835 454.51 576.532 458.316C577.228 462.123 583.562 474.367 583.562 474.367C583.562 474.367 595.534 475.147 596.23 472.854C596.694 471.11 596.936 469.304 596.948 467.488C596.948 467.488 609.616 468.268 615.232 465.195C618.838 463.175 622.158 460.604 625.092 457.56C625.092 457.56 698.988 463.682 727.132 464.439C755.276 465.195 787.664 462.902 791.19 457.56C794.716 452.217 778.522 342.91 778.522 342.91L726.351 358.961Z" fill="white" stroke="#263238" stroke-linecap="round" stroke-linejoin="round"/>
<path d="M732.684 419.336C732.684 419.336 761.103 408.284 777.022 414.979" stroke="#263238" stroke-linecap="round" stroke-linejoin="round"/>
<path d="M631.342 437.68L632.989 458.019L641.349 459.441L639.576 436.488L631.342 437.68Z" fill="white" stroke="#263238" stroke-linecap="round" stroke-linejoin="round"/>
<path d="M642.657 436.075C642.763 438.185 639.912 440.088 636.323 440.317C632.734 440.546 629.63 439.033 629.504 436.923C629.377 434.814 632.248 432.911 635.838 432.681C639.427 432.452 642.53 433.965 642.657 436.075Z" fill="white" stroke="#263238" stroke-linecap="round" stroke-linejoin="round"/>
<path d="M596.864 467.489L589.39 465.196" stroke="#263238" stroke-linecap="round" stroke-linejoin="round"/>
<path d="M720.714 324.567L724.24 368.134L796.025 344.447C796.025 344.447 772.188 299.344 758.718 287.879C745.248 276.414 717.906 286.342 714.38 289.415" fill="#794B93"/>
<path d="M720.714 324.567L724.24 368.134L796.025 344.447C796.025 344.447 772.188 299.344 758.718 287.879C745.248 276.414 717.906 286.342 714.38 289.415" stroke="#263238" stroke-linecap="round" stroke-linejoin="round"/>
<path d="M583.668 179.924C583.668 179.924 557.805 206.293 568.361 218.905C578.918 231.516 593.697 239.542 595.809 253.873C597.92 268.204 602.143 276.803 596.336 289.414C590.53 302.026 586.308 304.892 586.308 304.892C586.308 304.892 611.116 318.65 626.951 317.503C642.786 316.357 665.482 296.866 665.482 296.866C665.482 296.866 702.43 296.293 718.793 280.815C735.156 265.338 734.628 238.968 727.766 220.624C720.905 202.28 697.152 180.566 685.624 166.808C674.096 153.05 651.315 143.878 627.563 146.744C603.811 149.61 583.668 179.924 583.668 179.924Z" fill="#263238" stroke="#263238" stroke-linecap="round" stroke-linejoin="round"/>
<path d="M643.399 302.599C643.399 302.599 648.149 315.784 651.316 327.822C654.483 339.86 662.929 370.243 662.929 368.523C662.929 366.803 679.819 320.943 684.042 307.758C686.561 299.985 688.158 291.894 688.792 283.682L674.541 247.567C670.071 258.428 663.605 268.181 655.539 276.23C642.871 288.268 639.704 294 639.704 294L643.399 302.599Z" fill="white" stroke="#263238" stroke-linecap="round" stroke-linejoin="round"/>
<path d="M645.763 307.78C645.763 307.78 667.573 301.108 677.116 292.234C686.659 283.36 687.335 281.113 687.335 281.113L675.744 257.426L645.763 307.78Z" fill="#263238" stroke="#263238" stroke-linecap="round" stroke-linejoin="round"/>
<path d="M586.833 225.784C586.833 225.784 596.334 251.58 597.918 259.032C599.501 266.485 605.308 280.816 614.281 289.415C623.254 298.013 629.06 309.478 643.311 307.185C657.563 304.892 674.981 277.376 678.148 268.778C681.315 260.179 673.926 236.676 673.926 233.809C673.883 232.937 673.613 232.096 673.145 231.385C672.677 230.674 672.033 230.123 671.286 229.797C671.286 229.797 645.951 240.688 628.532 232.663C616.896 227.01 605.912 219.891 595.807 211.453L586.833 225.784Z" fill="white" stroke="#263238" stroke-linecap="round" stroke-linejoin="round"/>
<path d="M659.149 239.542C659.149 239.542 666.011 220.051 676.04 222.344C686.069 224.637 685.013 243.554 679.735 250.433C674.457 257.312 670.234 253.873 670.234 253.873" fill="white"/>
<path d="M659.149 239.542C659.149 239.542 666.011 220.051 676.04 222.344C686.069 224.637 685.013 243.554 679.735 250.433C674.457 257.312 670.234 253.873 670.234 253.873" stroke="#263238" stroke-linecap="round" stroke-linejoin="round"/>
<path d="M615.951 244.769C616.626 248.354 616.98 252.002 617.007 255.661C617.007 261.393 614.368 270.565 619.118 272.858C623.869 275.151 630.73 272.858 632.314 269.992" stroke="#263238" stroke-linecap="round" stroke-linejoin="round"/>
<path d="M624.839 281.457C624.839 281.457 639.09 284.896 647.008 267.126" stroke="#263238" stroke-linecap="round" stroke-linejoin="round"/>
<path d="M631.173 248.714C633.811 249.798 636.709 249.878 639.394 248.941C642.078 248.003 644.391 246.105 645.953 243.555" stroke="#263238" stroke-linecap="round" stroke-linejoin="round"/>
<path d="M602.669 252.727C602.669 252.727 609.531 256.166 613.753 251.007" stroke="#263238" stroke-linecap="round" stroke-linejoin="round"/>
<path d="M613.225 241.834C613.225 241.834 606.363 236.675 600.557 242.98" stroke="#263238" stroke-linecap="round" stroke-linejoin="round"/>
<path d="M622.727 236.102C622.727 236.102 625.894 230.369 635.923 231.516" stroke="#263238" stroke-linecap="round" stroke-linejoin="round"/>
<path d="M522.501 385.972C522.501 385.972 541.503 390.558 547.837 417.317C554.171 444.076 585.081 552.031 585.081 552.031C585.081 552.031 617.785 572.324 627.645 573.86C637.505 575.396 645.929 576.153 646.647 587.618C647.365 599.083 644.536 617.427 638.899 620.477C633.261 623.526 612.148 623.549 596.672 622.77C581.196 621.99 571.336 618.184 562.891 612.084C554.446 605.985 545.304 545.587 535.444 516.535C525.584 487.483 505.611 427.315 507.722 412.043C509.833 396.772 515.471 385.972 522.501 385.972Z" fill="#794B93" stroke="#263238" stroke-linecap="round" stroke-linejoin="round"/>
<path d="M596.947 636.873L583.371 635.772C577.914 635.323 572.43 636.113 567.27 638.091C562.109 640.069 557.384 643.193 553.396 647.263C549.408 651.334 546.244 656.261 544.106 661.732C541.967 667.203 540.901 673.098 540.975 679.041L543.509 976.833C543.526 979.108 544.369 981.283 545.856 982.885C547.343 984.487 549.353 985.386 551.448 985.386H675.636L707.517 635.727L596.947 636.873Z" fill="#333333" stroke="#263238" stroke-linecap="round" stroke-linejoin="round"/>
<path d="M675.596 985.408C673.502 985.408 671.492 984.509 670.005 982.907C668.518 981.305 667.675 979.13 667.658 976.855L665.124 679.063C665.05 673.12 666.116 667.225 668.254 661.754C670.393 656.283 673.557 651.356 677.545 647.285C681.533 643.215 686.258 640.091 691.418 638.113C696.579 636.135 702.063 635.345 707.52 635.794L721.095 636.895C726.449 637.334 731.664 638.956 736.42 641.659C741.177 644.363 745.375 648.092 748.759 652.619C752.143 657.146 754.64 662.376 756.099 667.987C757.557 673.598 757.946 679.474 757.241 685.254L721.518 977.841C721.271 979.914 720.338 981.819 718.893 983.199C717.447 984.579 715.588 985.339 713.664 985.339L675.596 985.408Z" fill="#666666" stroke="#263238" stroke-linecap="round" stroke-linejoin="round"/>
<path d="M388.18 703.369H626.76C633.479 703.369 639.924 706.268 644.675 711.428C649.426 716.589 652.096 723.587 652.096 730.885V985.408H388.18V703.369Z" fill="#666666" stroke="#263238" stroke-linecap="round" stroke-linejoin="round"/>
<path d="M653.152 800.753H404.016" stroke="#263238" stroke-linecap="round" stroke-linejoin="round"/>
<path d="M551.111 593.604L562.364 606.605C586.56 607.857 610.387 613.54 632.84 623.413C668.015 639.464 713.071 658.587 715.879 680.737C718.687 702.888 681.401 827.489 675.067 858.078C668.733 888.666 668.015 899.352 668.015 899.352C668.015 899.352 674.349 905.451 672.955 910.817C671.562 916.182 663.792 942.139 663.792 942.139C652.686 944.928 641.388 946.723 630.011 947.505C618.453 947.725 606.903 946.696 595.533 944.432C595.533 944.432 593.422 918.453 595.533 912.33C597.644 906.208 605.393 899.352 606.09 894.766C606.786 890.18 609.616 817.561 609.616 789.288C609.616 761.015 624.395 715.912 624.395 715.912C624.395 715.912 554.721 712.839 534.305 710.546C513.888 708.253 464.631 657.051 463.216 631.828C461.802 606.605 517.33 579.089 551.111 593.604Z" fill="#263238" stroke="#263238" stroke-linecap="round" stroke-linejoin="round"/>
<path d="M664.509 932.967C664.509 932.967 658.175 919.989 650.427 926.088C642.678 932.188 641.285 940.626 637.062 940.626C632.839 940.626 595.532 932.967 595.532 932.967C595.532 932.967 585.672 975.021 589.198 979.607C592.724 984.193 625.091 987.999 639.173 990.292C653.256 992.585 684.208 1001 704.624 1001C725.041 1001 721.515 984.95 716.574 979.607C711.634 974.264 676.459 953.604 671.54 946.725C668.565 942.555 666.194 937.915 664.509 932.967V932.967Z" fill="white" stroke="#263238" stroke-linecap="round" stroke-linejoin="round"/>
<path d="M720.207 991.209C711.814 993.136 703.26 994.112 694.681 994.121C676.376 994.121 661.597 986.486 638.372 981.9C620.109 978.277 597.476 972.315 588.672 969.93C588.186 974.723 588.207 978.414 589.115 979.607C592.641 984.193 625.007 987.999 639.09 990.292C653.173 992.585 684.125 1001 704.541 1001C715.52 1001 719.574 996.346 720.207 991.209Z" fill="white" stroke="#263238" stroke-linecap="round" stroke-linejoin="round"/>
<path d="M406.128 379.598C406.128 379.598 363.901 397.185 348.425 408.65C332.949 420.115 342.788 463.682 342.788 488.126C342.788 512.569 338.565 578.332 337.868 591.31C337.172 604.289 352.648 621.899 363.204 628.778C373.761 635.657 463.851 639.463 487.772 639.463C511.694 639.463 563.083 622.656 558.861 572.966C554.638 523.277 539.859 485.076 537.748 476.661C535.636 468.245 534.918 440.752 535.636 433.094C536.354 425.435 541.97 402.528 531.414 391.82C520.857 381.111 476.519 368.89 456.103 369.669C435.686 370.449 406.128 379.598 406.128 379.598Z" fill="#794B93" stroke="#263238" stroke-linecap="round" stroke-linejoin="round"/>
<path d="M411.658 429.975C412.685 433.106 414.176 436.033 416.071 438.643C422.001 446.67 428.345 454.326 435.073 461.573C450.422 478.266 474.576 489.387 474.576 489.387C474.576 489.387 482.62 443.32 484.077 422.66C485.534 402.001 475.294 385.33 458.466 379.093C441.639 372.857 410.941 379.873 406.549 392.599C403.34 402.069 408.787 421.193 411.658 429.975Z" fill="white" stroke="#263238" stroke-linecap="round" stroke-linejoin="round"/>
<path d="M413.961 365.451C412.492 365.524 411.054 365.931 409.738 366.643C406.574 368.383 404.131 371.356 402.897 374.967C399.224 384.505 396.31 394.847 396.31 394.847C398.418 406.72 401.355 418.402 405.093 429.792C408.77 440.612 411.506 451.781 413.264 463.155C413.264 463.155 439.592 441.693 444.702 436.946C449.52 432.991 454.666 429.529 460.072 426.605C460.072 426.605 477.617 436.144 485.661 441.693C493.705 447.242 500.293 452.034 500.293 452.034C499.376 436.306 496.419 420.798 491.51 405.968C483.466 382.121 479.813 374.967 475.421 370.22C471.03 365.474 437.375 351.945 413.961 365.451Z" fill="white" stroke="#263238" stroke-linecap="round" stroke-linejoin="round"/>
<path d="M474.492 251.649C474.492 251.649 479.686 244.426 482.684 250.135C484.345 253.367 486.358 256.37 488.68 259.078C488.68 259.078 494.655 262.334 495.415 268.021C495.931 271.516 496.178 275.052 496.154 278.592C496.154 281.022 502.889 282.65 502.889 286.732C502.889 290.813 499.152 292.418 498.413 296.477C497.674 300.536 500.884 304.136 497.653 309.478C494.423 314.821 497.949 312.872 494.423 314.844C490.897 316.816 487.181 319.246 487.181 319.246L469.953 257.335L474.492 251.649Z" fill="#C7C7C7" stroke="#7D7D7D" stroke-linecap="round" stroke-linejoin="round"/>
<path d="M417.907 223.627C417.907 223.627 397.976 229.956 389.657 248.002C381.339 266.048 380.515 279.6 384.675 294.94C388.834 310.28 404.606 353.595 409.609 366.229C414.613 378.863 416.26 402.344 426.226 416.675C436.191 431.006 460.302 443.755 460.302 443.755C460.302 443.755 478.565 416.675 481.901 403.146C485.237 389.618 478.565 362.537 478.565 362.537C478.565 362.537 496.849 338.163 494.358 314.705C491.867 291.248 478.565 260.636 474.49 251.648C470.416 242.659 455.299 214.616 417.907 223.627Z" fill="white" stroke="#263238" stroke-linecap="round" stroke-linejoin="round"/>
<path d="M432.264 259.788C432.264 259.788 446.896 251.855 456.397 254.239" stroke="#263238" stroke-linecap="round" stroke-linejoin="round"/>
<path d="M426.394 256.625C426.394 256.625 439.569 249.471 449.07 249.471" stroke="#263238" stroke-linecap="round" stroke-linejoin="round"/>
<path d="M478.565 362.629C478.565 362.629 467.354 370.219 457.114 370.219C446.874 370.219 427.851 361.482 422.002 355.108C422.002 355.108 439.336 376.662 457.747 382.051C476.158 387.439 481.12 378.978 481.12 378.978L478.565 362.629Z" fill="#263238" stroke="#263238" stroke-linecap="round" stroke-linejoin="round"/>
<path d="M389.025 315.853C389.589 315.491 390.132 315.093 390.651 314.66C393.206 312.619 397.809 308.171 397.26 302.851C396.521 295.537 397.26 291.386 393.523 285.768C389.786 280.151 383.789 267.883 383.789 267.883C379.356 267.492 374.923 268.632 371.121 271.139C365.885 275.198 367.363 278.454 365.885 284.14C364.407 289.827 360.628 285.768 358.39 293.909C356.152 302.049 359.129 306.91 362.127 308.538C365.125 310.166 362.887 315.05 362.887 322.296C363.001 324.922 363.963 327.421 365.604 329.353C367.245 331.286 369.46 332.53 371.86 332.867C374.12 332.867 374.858 336.123 377.857 339.379C380.855 342.635 390.524 338.989 390.524 338.989C390.524 338.989 395.064 336.123 395.803 332.867C396.542 329.611 389.025 315.853 389.025 315.853Z" fill="#C7C7C7" stroke="#7D7D7D" stroke-linecap="round" stroke-linejoin="round"/>
<path d="M395.485 314.798C395.485 314.798 385.498 300.352 378.848 308.47C372.197 316.587 383.83 336.444 390.481 339.15C397.132 341.856 405.45 334.564 405.45 334.564" fill="white"/>
<path d="M395.485 314.798C395.485 314.798 385.498 300.352 378.848 308.47C372.197 316.587 383.83 336.444 390.481 339.15C397.132 341.856 405.45 334.564 405.45 334.564" stroke="#263238" stroke-linecap="round" stroke-linejoin="round"/>
<path d="M456.143 271.46C456.143 271.46 455.298 279.6 456.966 282.306C458.634 285.012 468.599 289.529 466.932 297.646C465.264 305.763 455.298 312.986 450.315 305.763" stroke="#263238" stroke-linecap="round" stroke-linejoin="round"/>
<path d="M443.667 320.21C448.508 321.632 453.629 321.446 458.371 319.677C463.113 317.907 467.258 314.634 470.27 310.281" stroke="#263238" stroke-linecap="round" stroke-linejoin="round"/>
<path d="M418.754 282.88C418.518 282.875 418.284 282.837 418.057 282.765C417.775 282.678 417.513 282.528 417.287 282.325C417.062 282.122 416.877 281.87 416.746 281.585C416.615 281.3 416.54 280.989 416.526 280.671C416.512 280.353 416.559 280.035 416.664 279.738C420.379 267.631 434.504 265.568 435.095 265.499C435.672 265.42 436.254 265.593 436.713 265.98C437.173 266.367 437.472 266.936 437.544 267.562C437.617 268.189 437.458 268.821 437.102 269.32C436.745 269.819 436.221 270.143 435.644 270.222C435.518 270.222 423.673 271.988 420.865 281.252C420.73 281.739 420.448 282.164 420.066 282.458C419.684 282.753 419.222 282.901 418.754 282.88Z" fill="#C7C7C7" stroke="#7D7D7D" stroke-linecap="round" stroke-linejoin="round"/>
<path d="M472.76 267.859C472.474 267.864 472.189 267.806 471.924 267.687C471.659 267.569 471.419 267.394 471.219 267.171C469.605 265.464 467.551 264.331 465.33 263.921C463.109 263.512 460.825 263.845 458.783 264.878C458.262 265.161 457.659 265.208 457.107 265.008C456.555 264.808 456.098 264.378 455.838 263.812C455.577 263.246 455.534 262.592 455.719 261.992C455.903 261.392 456.299 260.896 456.82 260.613C459.679 259.123 462.892 258.627 466.021 259.194C469.15 259.76 472.041 261.361 474.301 263.778C474.516 263.992 474.687 264.253 474.804 264.543C474.921 264.833 474.981 265.146 474.981 265.463C474.981 265.78 474.921 266.093 474.804 266.383C474.687 266.673 474.516 266.934 474.301 267.148C474.103 267.375 473.863 267.555 473.598 267.677C473.333 267.799 473.048 267.861 472.76 267.859Z" fill="#C7C7C7" stroke="#7D7D7D" stroke-linecap="round" stroke-linejoin="round"/>
<path d="M442.018 293.129C441.526 296.459 440.38 299.634 438.656 302.44C436.933 305.245 434.674 307.614 432.032 309.386" stroke="#263238" stroke-linecap="round" stroke-linejoin="round"/>
<path d="M467.777 288.612C472.217 292 477.345 294.172 482.725 294.941" stroke="#263238" stroke-linecap="round" stroke-linejoin="round"/>
<path d="M436.486 290.194C437.225 293.06 436.613 295.743 435.114 296.202C433.615 296.66 431.841 294.688 431.102 291.822C430.363 288.956 430.976 286.25 432.475 285.815C433.974 285.379 435.768 287.328 436.486 290.194Z" fill="#263238"/>
<path d="M469.613 279.991C470.331 282.857 469.718 285.54 468.24 285.998C466.762 286.457 464.947 284.485 464.229 281.596C463.511 278.706 464.102 276.047 465.58 275.588C467.058 275.129 468.874 277.101 469.613 279.991Z" fill="#263238"/>
<path d="M436.847 283.407L426.206 291.112" stroke="#263238" stroke-linecap="round" stroke-linejoin="round"/>
<path d="M462.163 276.825L473.818 276.275" stroke="#263238" stroke-linecap="round" stroke-linejoin="round"/>
<path d="M686.974 601.148C686.974 601.148 702.598 608.76 705.469 610.962C708.341 613.163 716.237 626.554 716.892 630.727C717.546 634.9 716.765 636.62 714.358 635.107C711.951 633.593 705.132 624.72 699.853 618.666C694.575 612.613 687.84 608.806 686.193 605.206C684.546 601.606 684.356 600.46 686.974 601.148Z" fill="white" stroke="#263238" stroke-linecap="round" stroke-linejoin="round"/>
<path d="M640.166 582.987C640.166 582.987 665.903 592.159 674.94 595.071C681.702 597.347 687.922 601.205 693.161 606.376C695.736 609.013 709.946 626.508 711.487 631.599C713.028 636.689 715.161 650.309 712.521 651.571C709.882 652.832 707.18 649.484 705.997 646.595C704.646 643.882 703.048 641.324 701.226 638.959C701.226 638.959 704.414 649.988 703.865 655.538C703.316 661.087 701.754 664.457 697.531 665.237C693.308 666.016 688.579 658.358 685.307 651.25C683.316 646.946 680.755 642.983 677.706 639.487L667.614 634.396C669.348 639.913 671.628 645.211 674.412 650.195C678.276 656.455 682.857 657.922 681.189 661.339C679.521 664.755 671.836 665.42 668.226 660.674C664.616 655.927 658.809 650.791 655.558 644.416C652.307 638.042 644.769 620.822 644.769 620.822L624.163 616.923C624.163 616.923 612.107 612.979 611.326 599.176C610.545 585.372 634.593 579.387 640.166 582.987Z" fill="white" stroke="#263238" stroke-linecap="round" stroke-linejoin="round"/>
<path d="M682.289 627.815C682.289 627.815 691.516 640.817 694.556 646.458C697.596 652.098 697.554 665.283 697.554 665.283" stroke="#263238" stroke-linecap="round" stroke-linejoin="round"/>
<path d="M701.225 639.005L693.012 618.827" stroke="#263238" stroke-linecap="round" stroke-linejoin="round"/>
<path d="M432.266 630.291C432.266 630.291 479.412 624.192 503.333 633.364C527.254 642.536 550.5 674.638 550.5 701.374C550.5 728.11 545.559 874.885 546.974 878.714C548.388 882.544 556.116 883.3 556.116 890.936C556.116 898.572 550.5 938.332 550.5 938.332C550.5 938.332 517.415 951.311 506.162 951.311H494.888C494.888 951.311 478.715 904.694 479.412 897.058C480.108 889.423 484.331 883.3 484.331 879.471C484.331 875.642 463.936 795.387 463.936 771.7V718.961L424.517 709.789C424.517 709.789 406.93 655.514 432.266 630.291Z" fill="#263238" stroke="#263238" stroke-linecap="round" stroke-linejoin="round"/>
<path d="M579.256 972.728C579.256 972.728 558.142 945.969 549.697 931.454C541.252 916.94 525.776 908.524 516.634 916.16C507.492 923.796 507.471 942.919 507.471 942.919L491.995 939.847C491.995 939.847 497.632 960.484 500.44 971.949C503.248 983.414 507.471 991.072 525.776 994.122C544.081 997.171 574.336 999.464 582.782 990.293C591.227 981.121 579.256 972.728 579.256 972.728Z" fill="white" stroke="#263238" stroke-linecap="round" stroke-linejoin="round"/>
<path d="M582.78 990.293C584.137 989.093 585.098 987.448 585.521 985.604C585.944 983.76 585.804 981.817 585.123 980.066C581.188 982.491 577.112 984.636 572.92 986.487C557.444 993.366 536.331 991.829 518.743 985.707C512.241 983.681 506.263 980.038 501.283 975.067C504.175 984.813 509.2 991.348 525.774 994.122C544.164 997.172 574.335 999.465 582.78 990.293Z" fill="white" stroke="#263238" stroke-linecap="round" stroke-linejoin="round"/>
<path d="M606.912 587.434C606.912 587.434 605.519 605.572 605.054 611.098C604.59 616.624 607.377 623.205 609.277 624.191C611.177 625.177 612.064 623.205 612.064 618.665V611.098C612.001 609.585 606.912 587.434 606.912 587.434Z" fill="white" stroke="#263238" stroke-linecap="round" stroke-linejoin="round"/>
<path d="M634.657 550.219C634.657 542.332 644.327 525.707 644.327 525.707L648.064 469.988L645.531 459.187L634.256 458.316C629.801 474.551 614.156 531.692 612.087 540.589C609.682 552.679 608.067 564.939 607.252 577.277C607.252 581.634 607.252 601.766 608.878 609.654C610.504 617.542 621.757 625.384 621.757 625.384C621.757 625.384 636.959 625.384 639.366 623.641C641.773 621.899 635.671 616.074 635.671 616.074C634.763 616.074 632.082 594.474 637.782 587.779C642.385 582.436 655.517 588.65 655.517 588.65C655.517 588.65 652.287 579.02 648.254 570.306C644.222 561.593 634.657 558.084 634.657 550.219Z" fill="white" stroke="#263238" stroke-linecap="round" stroke-linejoin="round"/>
<path d="M637.063 625.201C637.063 625.201 625.008 618.161 623.614 615.135C622.221 612.108 621.777 588.949 621.777 588.949" stroke="#263238" stroke-linecap="round" stroke-linejoin="round"/>
<path d="M624.521 625.201C624.521 625.201 614.788 614.126 614.788 610.09C614.788 606.054 612.466 588.949 612.466 588.949" stroke="#263238" stroke-linecap="round" stroke-linejoin="round"/>
<path d="M393.922 636.873L313.459 635.841C311.386 635.657 309.303 635.657 307.231 635.841L293.634 636.941C288.281 637.38 283.067 639.002 278.311 641.706C273.556 644.41 269.358 648.14 265.976 652.667C262.594 657.194 260.099 662.424 258.643 668.035C257.187 673.647 256.801 679.522 257.509 685.301L293.401 977.956C293.653 980.031 294.59 981.936 296.039 983.315C297.488 984.695 299.35 985.455 301.277 985.454H401.565L393.922 636.873Z" fill="#333333" stroke="#263238" stroke-linecap="round" stroke-linejoin="round"/>
<path d="M439.442 985.408C441.535 985.402 443.542 984.501 445.027 982.9C446.513 981.299 447.359 979.128 447.381 976.855L449.915 679.063C449.986 673.121 448.917 667.228 446.778 661.758C444.638 656.289 441.474 651.363 437.487 647.293C433.5 643.224 428.776 640.1 423.617 638.12C418.458 636.14 412.976 635.348 407.519 635.794L393.922 636.895C388.569 637.334 383.356 638.955 378.6 641.659C373.844 644.363 369.647 648.093 366.265 652.621C362.883 657.148 360.388 662.377 358.932 667.989C357.476 673.6 357.09 679.475 357.797 685.254L393.69 977.91C393.941 979.985 394.879 981.889 396.328 983.269C397.777 984.649 399.638 985.409 401.565 985.408H439.442Z" fill="#666666" stroke="#263238" stroke-linecap="round" stroke-linejoin="round"/>
<path d="M368.122 400.234C368.122 400.234 338.563 400.991 327.31 419.335C316.057 437.679 306.893 500.37 304.782 516.421C302.671 532.472 293.529 589.017 297.055 599.725C300.581 610.433 309.723 611.947 326.613 612.726C343.504 613.506 351.231 603.554 354.757 592.089C358.283 580.624 367.425 473.61 367.425 473.61" fill="#794B93"/>
<path d="M368.122 400.234C368.122 400.234 338.563 400.991 327.31 419.335C316.057 437.679 306.893 500.37 304.782 516.421C302.671 532.472 293.529 589.017 297.055 599.725C300.581 610.433 309.723 611.947 326.613 612.726C343.504 613.506 351.231 603.554 354.757 592.089C358.283 580.624 367.425 473.61 367.425 473.61" stroke="#263238" stroke-linecap="round" stroke-linejoin="round"/>
<path d="M328.007 561.501C332.229 563.037 370.233 572.966 373.063 581.381C373.957 583.527 374.234 585.916 373.858 588.236C373.481 590.556 372.468 592.698 370.951 594.382C370.951 594.382 358.283 627.241 347.009 630.291C335.734 633.34 310.42 624.948 297.752 618.826C285.084 612.703 297.752 566.087 299.166 563.794" fill="#794B93"/>
<path d="M328.007 561.501C332.229 563.037 370.233 572.966 373.063 581.381C373.957 583.527 374.234 585.916 373.858 588.236C373.481 590.556 372.468 592.698 370.951 594.382C370.951 594.382 358.283 627.241 347.009 630.291C335.734 633.34 310.42 624.948 297.752 618.826C285.084 612.703 297.752 566.087 299.166 563.794" stroke="#263238" stroke-linecap="round" stroke-linejoin="round"/>
<path d="M379.481 603.555C379.481 603.555 382.289 598.969 378.763 596.676C375.237 594.383 369.621 587.504 363.287 587.504C356.953 587.504 345.699 593.603 342.87 606.605C340.041 619.606 342.173 628.778 347.093 630.291C352.012 631.805 362.59 634.877 367.509 634.877C372.429 634.877 375.955 623.412 376.651 621.119C377.348 618.826 379.481 603.555 379.481 603.555Z" fill="#794B93" stroke="#263238" stroke-linecap="round" stroke-linejoin="round"/>
<path d="M425.128 608.142C425.128 608.142 437.099 624.193 442.736 627.242C448.374 630.292 453.293 634.121 449.07 638.707C444.848 643.293 434.988 641 430.765 634.878C426.543 628.756 425.128 608.142 425.128 608.142Z" fill="white" stroke="#263238" stroke-linecap="round" stroke-linejoin="round"/>
<path d="M384.317 603.555C384.317 603.555 417.401 598.189 422.32 598.189C427.24 598.189 434.988 636.414 435.685 642.536C436.382 648.658 439.211 652.465 435.685 655.514C434.151 657.145 432.189 658.219 430.069 658.587C428.132 660.382 426.006 661.921 423.735 663.173C421.624 663.93 413.875 662.393 413.875 662.393C413.875 662.393 413.178 665.466 407.541 664.686C401.904 663.907 382.902 637.95 382.902 637.95C382.902 637.95 368.841 634.121 363.203 628.778C357.566 623.435 359.677 614.24 363.203 608.141C366.729 602.042 374.457 600.482 374.457 600.482L384.317 603.555Z" fill="white" stroke="#263238" stroke-linecap="round" stroke-linejoin="round"/>
<path d="M415.291 615.777L432.878 657.051" stroke="#263238" stroke-linecap="round" stroke-linejoin="round"/>
<path d="M401.904 622.655L423.735 663.172" stroke="#263238" stroke-linecap="round" stroke-linejoin="round"/>
<path d="M413.874 662.393L393.458 630.292" stroke="#263238" stroke-linecap="round" stroke-linejoin="round"/>
</svg>
