<svg width="1001" height="1000" viewBox="0 0 1001 1000" fill="none" xmlns="http://www.w3.org/2000/svg">
<path d="M677.857 196.484H33.8267V933.915H677.857V196.484Z" fill="white" stroke="#263238" stroke-linecap="round" stroke-linejoin="round"/>
<path d="M331.995 274.137H291.553V327.501H331.995V274.137Z" fill="white" stroke="#263238" stroke-linecap="round" stroke-linejoin="round"/>
<path d="M317.794 274.137H291.553V327.501H317.794V274.137Z" fill="white" stroke="#263238" stroke-linecap="round" stroke-linejoin="round"/>
<path d="M314.53 296.805H294.5V321.854H314.53V296.805Z" fill="#794B93" stroke="#263238" stroke-linecap="round" stroke-linejoin="round"/>
<path d="M297.828 274.137H257.386V327.501H297.828V274.137Z" fill="white" stroke="#263238" stroke-linecap="round" stroke-linejoin="round"/>
<path d="M283.627 274.137H257.386V327.501H283.627V274.137Z" fill="white" stroke="#263238" stroke-linecap="round" stroke-linejoin="round"/>
<path d="M280.36 296.805H260.329V321.854H280.36V296.805Z" fill="#794B93" stroke="#263238" stroke-linecap="round" stroke-linejoin="round"/>
<path d="M265.418 248.965H224.975V327.502H265.418V248.965Z" fill="#794B93" stroke="#263238" stroke-linecap="round" stroke-linejoin="round"/>
<path d="M251.216 248.965H224.975V327.502H251.216V248.965Z" fill="white" stroke="#263238" stroke-linecap="round" stroke-linejoin="round"/>
<path d="M247.952 282.34H227.922V319.202H247.952V282.34Z" fill="#794B93" stroke="#263238" stroke-linecap="round" stroke-linejoin="round"/>
<path d="M231.247 248.965H190.805V327.502H231.247V248.965Z" fill="#794B93" stroke="#263238" stroke-linecap="round" stroke-linejoin="round"/>
<path d="M217.046 248.965H190.805V327.502H217.046V248.965Z" fill="#794B93" stroke="#263238" stroke-linecap="round" stroke-linejoin="round"/>
<path d="M213.782 282.34H193.751V319.202H213.782V282.34Z" fill="white" stroke="#263238" stroke-linecap="round" stroke-linejoin="round"/>
<path d="M201.194 274.137H160.751V327.501H201.194V274.137Z" fill="white" stroke="#263238" stroke-linecap="round" stroke-linejoin="round"/>
<path d="M186.992 274.137H160.751V327.501H186.992V274.137Z" fill="white" stroke="#263238" stroke-linecap="round" stroke-linejoin="round"/>
<path d="M183.728 296.805H163.698V321.854H183.728V296.805Z" fill="#794B93" stroke="#263238" stroke-linecap="round" stroke-linejoin="round"/>
<path d="M167.023 274.137H126.581V327.501H167.023V274.137Z" fill="white" stroke="#263238" stroke-linecap="round" stroke-linejoin="round"/>
<path d="M152.822 274.137H126.581V327.501H152.822V274.137Z" fill="white" stroke="#263238" stroke-linecap="round" stroke-linejoin="round"/>
<path d="M149.558 296.805H129.527V321.854H149.558V296.805Z" fill="#794B93" stroke="#263238" stroke-linecap="round" stroke-linejoin="round"/>
<path d="M134.616 248.965H94.1733V327.502H134.616V248.965Z" fill="white" stroke="#263238" stroke-linecap="round" stroke-linejoin="round"/>
<path d="M120.414 248.965H94.1733V327.502H120.414V248.965Z" fill="white" stroke="#263238" stroke-linecap="round" stroke-linejoin="round"/>
<path d="M117.147 282.34H97.1167V319.202H117.147V282.34Z" fill="#794B93" stroke="#263238" stroke-linecap="round" stroke-linejoin="round"/>
<path d="M100.446 248.965H60.0029V327.502H100.446V248.965Z" fill="white" stroke="#263238" stroke-linecap="round" stroke-linejoin="round"/>
<path d="M86.244 248.965H60.0029V327.502H86.244V248.965Z" fill="white" stroke="#263238" stroke-linecap="round" stroke-linejoin="round"/>
<path d="M82.9803 282.34H62.9497V319.202H82.9803V282.34Z" fill="#794B93" stroke="#263238" stroke-linecap="round" stroke-linejoin="round"/>
<path d="M646.613 274.137H606.17V327.501H646.613V274.137Z" fill="white" stroke="#263238" stroke-linecap="round" stroke-linejoin="round"/>
<path d="M632.411 274.137H606.17V327.501H632.411V274.137Z" fill="white" stroke="#263238" stroke-linecap="round" stroke-linejoin="round"/>
<path d="M629.147 296.805H609.117V321.854H629.147V296.805Z" fill="#794B93" stroke="#263238" stroke-linecap="round" stroke-linejoin="round"/>
<path d="M612.446 274.137H572.003V327.501H612.446V274.137Z" fill="white" stroke="#263238" stroke-linecap="round" stroke-linejoin="round"/>
<path d="M598.244 274.137H572.003V327.501H598.244V274.137Z" fill="white" stroke="#263238" stroke-linecap="round" stroke-linejoin="round"/>
<path d="M594.98 296.805H574.95V321.854H594.98V296.805Z" fill="#794B93" stroke="#263238" stroke-linecap="round" stroke-linejoin="round"/>
<path d="M580.035 248.965H539.592V327.502H580.035V248.965Z" fill="#794B93" stroke="#263238" stroke-linecap="round" stroke-linejoin="round"/>
<path d="M565.833 248.965H539.592V327.502H565.833V248.965Z" fill="white" stroke="#263238" stroke-linecap="round" stroke-linejoin="round"/>
<path d="M562.57 282.34H542.539V319.202H562.57V282.34Z" fill="#794B93" stroke="#263238" stroke-linecap="round" stroke-linejoin="round"/>
<path d="M545.868 248.965H505.425V327.502H545.868V248.965Z" fill="#794B93" stroke="#263238" stroke-linecap="round" stroke-linejoin="round"/>
<path d="M531.666 248.965H505.425V327.502H531.666V248.965Z" fill="#794B93" stroke="#263238" stroke-linecap="round" stroke-linejoin="round"/>
<path d="M528.399 282.34H508.369V319.202H528.399V282.34Z" fill="white" stroke="#263238" stroke-linecap="round" stroke-linejoin="round"/>
<path d="M515.831 274.137H475.388V327.501H515.831V274.137Z" fill="white" stroke="#263238" stroke-linecap="round" stroke-linejoin="round"/>
<path d="M501.629 274.137H475.388V327.501H501.629V274.137Z" fill="white" stroke="#263238" stroke-linecap="round" stroke-linejoin="round"/>
<path d="M498.346 296.805H478.315V321.854H498.346V296.805Z" fill="#794B93" stroke="#263238" stroke-linecap="round" stroke-linejoin="round"/>
<path d="M481.64 274.137H441.198V327.501H481.64V274.137Z" fill="white" stroke="#263238" stroke-linecap="round" stroke-linejoin="round"/>
<path d="M467.439 274.137H441.198V327.501H467.439V274.137Z" fill="white" stroke="#263238" stroke-linecap="round" stroke-linejoin="round"/>
<path d="M464.175 296.805H444.145V321.854H464.175V296.805Z" fill="#794B93" stroke="#263238" stroke-linecap="round" stroke-linejoin="round"/>
<path d="M449.254 248.965H408.811V327.502H449.254V248.965Z" fill="white" stroke="#263238" stroke-linecap="round" stroke-linejoin="round"/>
<path d="M435.052 248.965H408.811V327.502H435.052V248.965Z" fill="white" stroke="#263238" stroke-linecap="round" stroke-linejoin="round"/>
<path d="M431.768 282.34H411.737V319.202H431.768V282.34Z" fill="#794B93" stroke="#263238" stroke-linecap="round" stroke-linejoin="round"/>
<path d="M415.063 248.965H374.62V327.502H415.063V248.965Z" fill="white" stroke="#263238" stroke-linecap="round" stroke-linejoin="round"/>
<path d="M400.861 248.965H374.62V327.502H400.861V248.965Z" fill="white" stroke="#263238" stroke-linecap="round" stroke-linejoin="round"/>
<path d="M397.597 282.34H377.567V319.202H397.597V282.34Z" fill="#794B93" stroke="#263238" stroke-linecap="round" stroke-linejoin="round"/>
<path d="M331.995 688.211H291.553V741.576H331.995V688.211Z" fill="white" stroke="#263238" stroke-linecap="round" stroke-linejoin="round"/>
<path d="M317.794 688.211H291.553V741.576H317.794V688.211Z" fill="white" stroke="#263238" stroke-linecap="round" stroke-linejoin="round"/>
<path d="M314.53 710.879H294.5V735.928H314.53V710.879Z" fill="#794B93" stroke="#263238" stroke-linecap="round" stroke-linejoin="round"/>
<path d="M297.828 688.211H257.386V741.576H297.828V688.211Z" fill="white" stroke="#263238" stroke-linecap="round" stroke-linejoin="round"/>
<path d="M283.627 688.211H257.386V741.576H283.627V688.211Z" fill="white" stroke="#263238" stroke-linecap="round" stroke-linejoin="round"/>
<path d="M280.36 710.879H260.329V735.928H280.36V710.879Z" fill="#794B93" stroke="#263238" stroke-linecap="round" stroke-linejoin="round"/>
<path d="M265.418 663.039H224.975V741.576H265.418V663.039Z" fill="#794B93" stroke="#263238" stroke-linecap="round" stroke-linejoin="round"/>
<path d="M251.216 663.039H224.975V741.576H251.216V663.039Z" fill="white" stroke="#263238" stroke-linecap="round" stroke-linejoin="round"/>
<path d="M247.952 696.389H227.922V733.25H247.952V696.389Z" fill="#794B93" stroke="#263238" stroke-linecap="round" stroke-linejoin="round"/>
<path d="M231.247 663.039H190.805V741.576H231.247V663.039Z" fill="#794B93" stroke="#263238" stroke-linecap="round" stroke-linejoin="round"/>
<path d="M217.046 663.039H190.805V741.576H217.046V663.039Z" fill="#794B93" stroke="#263238" stroke-linecap="round" stroke-linejoin="round"/>
<path d="M213.782 696.389H193.751V733.25H213.782V696.389Z" fill="white" stroke="#263238" stroke-linecap="round" stroke-linejoin="round"/>
<path d="M201.194 688.211H160.751V741.576H201.194V688.211Z" fill="white" stroke="#263238" stroke-linecap="round" stroke-linejoin="round"/>
<path d="M186.992 688.211H160.751V741.576H186.992V688.211Z" fill="white" stroke="#263238" stroke-linecap="round" stroke-linejoin="round"/>
<path d="M183.728 710.879H163.698V735.928H183.728V710.879Z" fill="#794B93" stroke="#263238" stroke-linecap="round" stroke-linejoin="round"/>
<path d="M167.023 688.211H126.581V741.576H167.023V688.211Z" fill="white" stroke="#263238" stroke-linecap="round" stroke-linejoin="round"/>
<path d="M152.822 688.211H126.581V741.576H152.822V688.211Z" fill="white" stroke="#263238" stroke-linecap="round" stroke-linejoin="round"/>
<path d="M149.558 710.879H129.527V735.928H149.558V710.879Z" fill="#794B93" stroke="#263238" stroke-linecap="round" stroke-linejoin="round"/>
<path d="M134.616 663.039H94.1733V741.576H134.616V663.039Z" fill="white" stroke="#263238" stroke-linecap="round" stroke-linejoin="round"/>
<path d="M120.414 663.039H94.1733V741.576H120.414V663.039Z" fill="white" stroke="#263238" stroke-linecap="round" stroke-linejoin="round"/>
<path d="M117.147 696.389H97.1167V733.25H117.147V696.389Z" fill="#794B93" stroke="#263238" stroke-linecap="round" stroke-linejoin="round"/>
<path d="M100.446 663.039H60.0029V741.576H100.446V663.039Z" fill="white" stroke="#263238" stroke-linecap="round" stroke-linejoin="round"/>
<path d="M86.244 663.039H60.0029V741.576H86.244V663.039Z" fill="white" stroke="#263238" stroke-linecap="round" stroke-linejoin="round"/>
<path d="M82.9803 696.389H62.9497V733.25H82.9803V696.389Z" fill="#794B93" stroke="#263238" stroke-linecap="round" stroke-linejoin="round"/>
<path d="M646.613 688.211H606.17V741.576H646.613V688.211Z" fill="white" stroke="#263238" stroke-linecap="round" stroke-linejoin="round"/>
<path d="M632.411 688.211H606.17V741.576H632.411V688.211Z" fill="white" stroke="#263238" stroke-linecap="round" stroke-linejoin="round"/>
<path d="M629.147 710.879H609.117V735.928H629.147V710.879Z" fill="#794B93" stroke="#263238" stroke-linecap="round" stroke-linejoin="round"/>
<path d="M612.446 688.211H572.003V741.576H612.446V688.211Z" fill="white" stroke="#263238" stroke-linecap="round" stroke-linejoin="round"/>
<path d="M598.244 688.211H572.003V741.576H598.244V688.211Z" fill="white" stroke="#263238" stroke-linecap="round" stroke-linejoin="round"/>
<path d="M594.98 710.879H574.95V735.928H594.98V710.879Z" fill="#794B93" stroke="#263238" stroke-linecap="round" stroke-linejoin="round"/>
<path d="M580.035 663.039H539.592V741.576H580.035V663.039Z" fill="#794B93" stroke="#263238" stroke-linecap="round" stroke-linejoin="round"/>
<path d="M565.833 663.039H539.592V741.576H565.833V663.039Z" fill="white" stroke="#263238" stroke-linecap="round" stroke-linejoin="round"/>
<path d="M562.57 696.389H542.539V733.25H562.57V696.389Z" fill="#794B93" stroke="#263238" stroke-linecap="round" stroke-linejoin="round"/>
<path d="M545.868 663.039H505.425V741.576H545.868V663.039Z" fill="#794B93" stroke="#263238" stroke-linecap="round" stroke-linejoin="round"/>
<path d="M531.666 663.039H505.425V741.576H531.666V663.039Z" fill="#794B93" stroke="#263238" stroke-linecap="round" stroke-linejoin="round"/>
<path d="M528.399 696.389H508.369V733.25H528.399V696.389Z" fill="white" stroke="#263238" stroke-linecap="round" stroke-linejoin="round"/>
<path d="M515.831 688.211H475.388V741.576H515.831V688.211Z" fill="white" stroke="#263238" stroke-linecap="round" stroke-linejoin="round"/>
<path d="M501.629 688.211H475.388V741.576H501.629V688.211Z" fill="white" stroke="#263238" stroke-linecap="round" stroke-linejoin="round"/>
<path d="M498.346 710.879H478.315V735.928H498.346V710.879Z" fill="#794B93" stroke="#263238" stroke-linecap="round" stroke-linejoin="round"/>
<path d="M481.64 688.211H441.198V741.576H481.64V688.211Z" fill="white" stroke="#263238" stroke-linecap="round" stroke-linejoin="round"/>
<path d="M467.439 688.211H441.198V741.576H467.439V688.211Z" fill="white" stroke="#263238" stroke-linecap="round" stroke-linejoin="round"/>
<path d="M464.175 710.879H444.145V735.928H464.175V710.879Z" fill="#794B93" stroke="#263238" stroke-linecap="round" stroke-linejoin="round"/>
<path d="M449.254 663.039H408.811V741.576H449.254V663.039Z" fill="white" stroke="#263238" stroke-linecap="round" stroke-linejoin="round"/>
<path d="M435.052 663.039H408.811V741.576H435.052V663.039Z" fill="white" stroke="#263238" stroke-linecap="round" stroke-linejoin="round"/>
<path d="M431.768 696.389H411.737V733.25H431.768V696.389Z" fill="#794B93" stroke="#263238" stroke-linecap="round" stroke-linejoin="round"/>
<path d="M415.063 663.039H374.62V741.576H415.063V663.039Z" fill="white" stroke="#263238" stroke-linecap="round" stroke-linejoin="round"/>
<path d="M400.861 663.039H374.62V741.576H400.861V663.039Z" fill="white" stroke="#263238" stroke-linecap="round" stroke-linejoin="round"/>
<path d="M397.597 696.389H377.567V733.25H397.597V696.389Z" fill="#794B93" stroke="#263238" stroke-linecap="round" stroke-linejoin="round"/>
<path d="M60.259 405.768H73.8035C76.8504 405.768 79.7726 407.17 81.9271 409.666C84.0816 412.162 85.2919 415.548 85.2919 419.078V464.461H48.813V419.078C48.813 415.556 50.0175 412.178 52.1629 409.683C54.3082 407.189 57.2195 405.781 60.259 405.768V405.768Z" fill="#794B93" stroke="#263238" stroke-linecap="round" stroke-linejoin="round"/>
<path d="M75.328 389.389H60.2998V405.769H75.328V389.389Z" fill="#263238" stroke="#263238" stroke-linecap="round" stroke-linejoin="round"/>
<path d="M75.3301 423.523H51.7598V450.832H75.3301V423.523Z" fill="white" stroke="#263238" stroke-linecap="round" stroke-linejoin="round"/>
<path d="M103.309 405.768H116.853C119.9 405.768 122.822 407.17 124.977 409.666C127.131 412.162 128.342 415.548 128.342 419.078V464.461H91.8203V419.078C91.8203 417.33 92.1175 415.599 92.6948 413.984C93.2722 412.369 94.1184 410.902 95.1852 409.666C96.252 408.43 97.5185 407.45 98.9123 406.781C100.306 406.112 101.8 405.768 103.309 405.768V405.768Z" fill="#794B93" stroke="#263238" stroke-linecap="round" stroke-linejoin="round"/>
<path d="M118.335 389.389H103.307V405.769H118.335V389.389Z" fill="#263238" stroke="#263238" stroke-linecap="round" stroke-linejoin="round"/>
<path d="M118.337 423.523H94.7666V450.832H118.337V423.523Z" fill="white" stroke="#263238" stroke-linecap="round" stroke-linejoin="round"/>
<path d="M146.316 374.359H159.881C162.924 374.366 165.841 375.771 167.991 378.267C170.141 380.762 171.348 384.144 171.348 387.67V464.463H134.827V387.67C134.827 384.14 136.038 380.754 138.192 378.258C140.347 375.762 143.269 374.359 146.316 374.359V374.359Z" fill="#794B93" stroke="#263238" stroke-linecap="round" stroke-linejoin="round"/>
<path d="M161.342 357.979H146.314V374.359H161.342V357.979Z" fill="#263238" stroke="#263238" stroke-linecap="round" stroke-linejoin="round"/>
<path d="M161.344 392.113H137.774V450.807H161.344V392.113Z" fill="white" stroke="#263238" stroke-linecap="round" stroke-linejoin="round"/>
<path d="M189.323 405.768H202.867C205.914 405.768 208.836 407.17 210.991 409.666C213.145 412.162 214.356 415.548 214.356 419.078V464.461H177.834V419.078C177.834 415.548 179.045 412.162 181.199 409.666C183.354 407.17 186.276 405.768 189.323 405.768V405.768Z" fill="#794B93" stroke="#263238" stroke-linecap="round" stroke-linejoin="round"/>
<path d="M204.35 389.389H189.321V405.769H204.35V389.389Z" fill="#263238" stroke="#263238" stroke-linecap="round" stroke-linejoin="round"/>
<path d="M204.352 423.523H180.781V450.832H204.352V423.523Z" fill="white" stroke="#263238" stroke-linecap="round" stroke-linejoin="round"/>
<path d="M232.33 405.768H245.875C248.922 405.768 251.844 407.17 253.998 409.666C256.153 412.162 257.363 415.548 257.363 419.078V464.461H220.842V419.078C220.842 415.548 222.052 412.162 224.207 409.666C226.361 407.17 229.283 405.768 232.33 405.768V405.768Z" fill="#794B93" stroke="#263238" stroke-linecap="round" stroke-linejoin="round"/>
<path d="M247.357 389.389H232.329V405.769H247.357V389.389Z" fill="#263238" stroke="#263238" stroke-linecap="round" stroke-linejoin="round"/>
<path d="M247.359 423.523H223.789V450.832H247.359V423.523Z" fill="white" stroke="#263238" stroke-linecap="round" stroke-linejoin="round"/>
<path d="M275.358 389.389H288.903C291.95 389.389 294.872 390.791 297.026 393.287C299.181 395.783 300.391 399.169 300.391 402.699V464.487H263.849V402.699C263.849 400.949 264.146 399.216 264.725 397.6C265.304 395.983 266.152 394.515 267.221 393.279C268.29 392.042 269.559 391.062 270.955 390.395C272.352 389.727 273.848 389.385 275.358 389.389V389.389Z" fill="#794B93" stroke="#263238" stroke-linecap="round" stroke-linejoin="round"/>
<path d="M290.388 373.008H275.359V389.388H290.388V373.008Z" fill="#263238" stroke="#263238" stroke-linecap="round" stroke-linejoin="round"/>
<path d="M290.366 407.119H266.795V450.808H290.366V407.119Z" fill="white" stroke="#263238" stroke-linecap="round" stroke-linejoin="round"/>
<path d="M389.756 405.768H403.301C406.348 405.768 409.27 407.17 411.424 409.666C413.579 412.163 414.789 415.548 414.789 419.078V464.462H378.204V419.078C378.204 417.324 378.503 415.587 379.085 413.968C379.666 412.348 380.518 410.877 381.591 409.64C382.665 408.403 383.939 407.424 385.34 406.76C386.741 406.095 388.242 405.758 389.756 405.768V405.768Z" fill="#794B93" stroke="#263238" stroke-linecap="round" stroke-linejoin="round"/>
<path d="M404.783 389.389H389.755V405.769H404.783V389.389Z" fill="#263238" stroke="#263238" stroke-linecap="round" stroke-linejoin="round"/>
<path d="M404.782 423.523H381.211V450.832H404.782V423.523Z" fill="white" stroke="#263238" stroke-linecap="round" stroke-linejoin="round"/>
<path d="M432.764 405.768H446.308C449.355 405.768 452.277 407.17 454.432 409.666C456.586 412.162 457.797 415.548 457.797 419.078V464.461H421.275V419.078C421.275 415.548 422.486 412.162 424.64 409.666C426.795 407.17 429.717 405.768 432.764 405.768V405.768Z" fill="#794B93" stroke="#263238" stroke-linecap="round" stroke-linejoin="round"/>
<path d="M447.79 389.389H432.762V405.769H447.79V389.389Z" fill="#263238" stroke="#263238" stroke-linecap="round" stroke-linejoin="round"/>
<path d="M447.793 423.523H424.222V450.832H447.793V423.523Z" fill="white" stroke="#263238" stroke-linecap="round" stroke-linejoin="round"/>
<path d="M475.706 374.359H489.251C492.298 374.359 495.22 375.762 497.374 378.258C499.529 380.754 500.739 384.14 500.739 387.67V464.463H464.303V387.67C464.303 384.157 465.501 380.786 467.638 378.292C469.774 375.799 472.674 374.385 475.706 374.359V374.359Z" fill="#794B93" stroke="#263238" stroke-linecap="round" stroke-linejoin="round"/>
<path d="M490.821 357.979H475.793V374.359H490.821V357.979Z" fill="#263238" stroke="#263238" stroke-linecap="round" stroke-linejoin="round"/>
<path d="M490.82 392.113H467.25V450.807H490.82V392.113Z" fill="white" stroke="#263238" stroke-linecap="round" stroke-linejoin="round"/>
<path d="M518.798 405.768H532.343C533.852 405.768 535.346 406.112 536.739 406.781C538.133 407.45 539.4 408.43 540.467 409.666C541.533 410.902 542.38 412.369 542.957 413.984C543.534 415.599 543.831 417.33 543.831 419.078V464.461H507.31V419.078C507.31 415.548 508.52 412.162 510.675 409.666C512.829 407.17 515.752 405.768 518.798 405.768V405.768Z" fill="#794B93" stroke="#263238" stroke-linecap="round" stroke-linejoin="round"/>
<path d="M533.829 389.389H518.8V405.769H533.829V389.389Z" fill="#263238" stroke="#263238" stroke-linecap="round" stroke-linejoin="round"/>
<path d="M533.827 423.523H510.257V450.832H533.827V423.523Z" fill="white" stroke="#263238" stroke-linecap="round" stroke-linejoin="round"/>
<path d="M561.806 405.768H575.329C576.838 405.768 578.332 406.112 579.726 406.781C581.119 407.45 582.386 408.43 583.453 409.666C584.519 410.902 585.366 412.369 585.943 413.984C586.52 415.599 586.818 417.33 586.818 419.078V464.461H550.317V419.078C550.317 415.548 551.528 412.162 553.682 409.666C555.837 407.17 558.759 405.768 561.806 405.768V405.768Z" fill="#794B93" stroke="#263238" stroke-linecap="round" stroke-linejoin="round"/>
<path d="M576.835 389.389H561.807V405.769H576.835V389.389Z" fill="#263238" stroke="#263238" stroke-linecap="round" stroke-linejoin="round"/>
<path d="M576.834 423.523H553.264V450.832H576.834V423.523Z" fill="white" stroke="#263238" stroke-linecap="round" stroke-linejoin="round"/>
<path d="M604.813 389.389H618.357C621.404 389.389 624.326 390.791 626.481 393.287C628.635 395.783 629.846 399.169 629.846 402.699V464.487H593.324V402.699C593.324 399.169 594.535 395.783 596.689 393.287C598.844 390.791 601.766 389.389 604.813 389.389V389.389Z" fill="#794B93" stroke="#263238" stroke-linecap="round" stroke-linejoin="round"/>
<path d="M619.843 373.008H604.814V389.388H619.843V373.008Z" fill="#263238" stroke="#263238" stroke-linecap="round" stroke-linejoin="round"/>
<path d="M619.841 407.119H596.271V450.808H619.841V407.119Z" fill="white" stroke="#263238" stroke-linecap="round" stroke-linejoin="round"/>
<path d="M60.259 823.379H73.8035C76.8504 823.379 79.7726 824.781 81.9271 827.277C84.0816 829.774 85.2919 833.159 85.2919 836.689V882.073H48.813V836.689C48.813 833.168 50.0175 829.79 52.1629 827.295C54.3082 824.8 57.2195 823.392 60.259 823.379V823.379Z" fill="#794B93" stroke="#263238" stroke-linecap="round" stroke-linejoin="round"/>
<path d="M75.328 806.998H60.2998V823.378H75.328V806.998Z" fill="#263238" stroke="#263238" stroke-linecap="round" stroke-linejoin="round"/>
<path d="M75.3301 841.109H51.7598V868.418H75.3301V841.109Z" fill="white" stroke="#263238" stroke-linecap="round" stroke-linejoin="round"/>
<path d="M103.309 823.379H116.853C119.9 823.379 122.822 824.781 124.977 827.277C127.131 829.774 128.342 833.159 128.342 836.689V882.073H91.8203V836.689C91.8203 834.941 92.1175 833.211 92.6948 831.596C93.2722 829.981 94.1184 828.513 95.1852 827.277C96.252 826.041 97.5185 825.061 98.9123 824.392C100.306 823.723 101.8 823.379 103.309 823.379V823.379Z" fill="#794B93" stroke="#263238" stroke-linecap="round" stroke-linejoin="round"/>
<path d="M118.335 806.998H103.307V823.378H118.335V806.998Z" fill="#263238" stroke="#263238" stroke-linecap="round" stroke-linejoin="round"/>
<path d="M118.337 841.109H94.7666V868.418H118.337V841.109Z" fill="white" stroke="#263238" stroke-linecap="round" stroke-linejoin="round"/>
<path d="M146.316 791.969H159.881C162.928 791.969 165.85 793.371 168.005 795.867C170.159 798.363 171.37 801.749 171.37 805.279V882.072H134.827V805.279C134.827 801.749 136.038 798.363 138.192 795.867C140.347 793.371 143.269 791.969 146.316 791.969V791.969Z" fill="#794B93" stroke="#263238" stroke-linecap="round" stroke-linejoin="round"/>
<path d="M161.342 775.59H146.314V791.97H161.342V775.59Z" fill="#263238" stroke="#263238" stroke-linecap="round" stroke-linejoin="round"/>
<path d="M161.344 809.725H137.774V868.419H161.344V809.725Z" fill="white" stroke="#263238" stroke-linecap="round" stroke-linejoin="round"/>
<path d="M189.323 823.379H202.867C205.914 823.379 208.836 824.781 210.991 827.277C213.145 829.774 214.356 833.159 214.356 836.689V882.073H177.834V836.689C177.834 833.159 179.045 829.774 181.199 827.277C183.354 824.781 186.276 823.379 189.323 823.379V823.379Z" fill="#794B93" stroke="#263238" stroke-linecap="round" stroke-linejoin="round"/>
<path d="M204.35 806.998H189.321V823.378H204.35V806.998Z" fill="#263238" stroke="#263238" stroke-linecap="round" stroke-linejoin="round"/>
<path d="M204.352 841.109H180.781V868.418H204.352V841.109Z" fill="white" stroke="#263238" stroke-linecap="round" stroke-linejoin="round"/>
<path d="M232.33 823.379H245.875C248.922 823.379 251.844 824.781 253.998 827.277C256.153 829.774 257.363 833.159 257.363 836.689V882.073H220.842V836.689C220.842 833.159 222.052 829.774 224.207 827.277C226.361 824.781 229.283 823.379 232.33 823.379V823.379Z" fill="#794B93" stroke="#263238" stroke-linecap="round" stroke-linejoin="round"/>
<path d="M247.357 806.998H232.329V823.378H247.357V806.998Z" fill="#263238" stroke="#263238" stroke-linecap="round" stroke-linejoin="round"/>
<path d="M247.359 841.109H223.789V868.418H247.359V841.109Z" fill="white" stroke="#263238" stroke-linecap="round" stroke-linejoin="round"/>
<path d="M275.358 806.998H288.903C291.95 806.998 294.872 808.4 297.026 810.897C299.181 813.393 300.391 816.778 300.391 820.309V882.097H263.849V820.309C263.849 818.559 264.146 816.826 264.725 815.209C265.304 813.593 266.152 812.124 267.221 810.888C268.29 809.652 269.559 808.672 270.955 808.004C272.352 807.337 273.848 806.995 275.358 806.998V806.998Z" fill="#794B93" stroke="#263238" stroke-linecap="round" stroke-linejoin="round"/>
<path d="M290.388 790.619H275.359V806.999H290.388V790.619Z" fill="#263238" stroke="#263238" stroke-linecap="round" stroke-linejoin="round"/>
<path d="M290.366 824.73H266.795V868.419H290.366V824.73Z" fill="white" stroke="#263238" stroke-linecap="round" stroke-linejoin="round"/>
<path d="M389.756 823.379H403.301C406.348 823.379 409.27 824.781 411.424 827.278C413.579 829.774 414.789 833.159 414.789 836.69V882.073H378.204V836.69C378.204 834.935 378.503 833.199 379.085 831.579C379.666 829.959 380.518 828.488 381.591 827.251C382.665 826.015 383.939 825.036 385.34 824.371C386.741 823.707 388.242 823.369 389.756 823.379V823.379Z" fill="#794B93" stroke="#263238" stroke-linecap="round" stroke-linejoin="round"/>
<path d="M404.783 806.998H389.755V823.378H404.783V806.998Z" fill="#263238" stroke="#263238" stroke-linecap="round" stroke-linejoin="round"/>
<path d="M404.782 841.109H381.211V868.418H404.782V841.109Z" fill="white" stroke="#263238" stroke-linecap="round" stroke-linejoin="round"/>
<path d="M432.764 823.379H446.308C449.355 823.379 452.277 824.781 454.432 827.277C456.586 829.774 457.797 833.159 457.797 836.689V882.073H421.275V836.689C421.275 833.159 422.486 829.774 424.64 827.277C426.795 824.781 429.717 823.379 432.764 823.379V823.379Z" fill="#794B93" stroke="#263238" stroke-linecap="round" stroke-linejoin="round"/>
<path d="M447.79 806.998H432.762V823.378H447.79V806.998Z" fill="#263238" stroke="#263238" stroke-linecap="round" stroke-linejoin="round"/>
<path d="M447.793 841.109H424.222V868.418H447.793V841.109Z" fill="white" stroke="#263238" stroke-linecap="round" stroke-linejoin="round"/>
<path d="M475.706 791.969H489.251C492.298 791.969 495.22 793.371 497.374 795.867C499.529 798.363 500.739 801.749 500.739 805.279V882.072H464.303V805.279C464.303 801.766 465.501 798.395 467.638 795.902C469.774 793.408 472.674 791.995 475.706 791.969V791.969Z" fill="#794B93" stroke="#263238" stroke-linecap="round" stroke-linejoin="round"/>
<path d="M490.821 775.59H475.793V791.97H490.821V775.59Z" fill="#263238" stroke="#263238" stroke-linecap="round" stroke-linejoin="round"/>
<path d="M490.82 809.725H467.25V868.419H490.82V809.725Z" fill="white" stroke="#263238" stroke-linecap="round" stroke-linejoin="round"/>
<path d="M518.798 823.379H532.343C533.852 823.379 535.346 823.723 536.739 824.392C538.133 825.061 539.4 826.041 540.467 827.277C541.533 828.513 542.38 829.981 542.957 831.596C543.534 833.211 543.831 834.941 543.831 836.689V882.073H507.31V836.689C507.31 833.159 508.52 829.774 510.675 827.277C512.829 824.781 515.752 823.379 518.798 823.379V823.379Z" fill="#794B93" stroke="#263238" stroke-linecap="round" stroke-linejoin="round"/>
<path d="M533.829 806.998H518.8V823.378H533.829V806.998Z" fill="#263238" stroke="#263238" stroke-linecap="round" stroke-linejoin="round"/>
<path d="M533.827 841.109H510.257V868.418H533.827V841.109Z" fill="white" stroke="#263238" stroke-linecap="round" stroke-linejoin="round"/>
<path d="M561.806 823.379H575.329C576.838 823.379 578.332 823.723 579.726 824.392C581.119 825.061 582.386 826.041 583.453 827.277C584.519 828.513 585.366 829.981 585.943 831.596C586.52 833.211 586.818 834.941 586.818 836.689V882.073H550.317V836.689C550.317 833.159 551.528 829.774 553.682 827.277C555.837 824.781 558.759 823.379 561.806 823.379V823.379Z" fill="#794B93" stroke="#263238" stroke-linecap="round" stroke-linejoin="round"/>
<path d="M576.835 806.998H561.807V823.378H576.835V806.998Z" fill="#263238" stroke="#263238" stroke-linecap="round" stroke-linejoin="round"/>
<path d="M576.834 841.109H553.264V868.418H576.834V841.109Z" fill="white" stroke="#263238" stroke-linecap="round" stroke-linejoin="round"/>
<path d="M604.813 806.998H618.357C621.404 806.998 624.326 808.4 626.481 810.897C628.635 813.393 629.846 816.778 629.846 820.309V882.097H593.324V820.309C593.324 816.778 594.535 813.393 596.689 810.897C598.844 808.4 601.766 806.998 604.813 806.998V806.998Z" fill="#794B93" stroke="#263238" stroke-linecap="round" stroke-linejoin="round"/>
<path d="M619.843 790.619H604.814V806.999H619.843V790.619Z" fill="#263238" stroke="#263238" stroke-linecap="round" stroke-linejoin="round"/>
<path d="M619.841 824.73H596.271V868.419H619.841V824.73Z" fill="white" stroke="#263238" stroke-linecap="round" stroke-linejoin="round"/>
<path d="M85.5044 518.834H51.9082L60.302 602.381H77.1107L85.5044 518.834Z" fill="white" stroke="#263238" stroke-linecap="round" stroke-linejoin="round"/>
<path d="M58.9648 589.094L60.3002 602.38H77.1089L78.4443 589.094H58.9648Z" fill="#263238" stroke="#263238" stroke-linecap="round" stroke-linejoin="round"/>
<path d="M74.8396 534.969H60.9136V574.851H74.8396V534.969Z" fill="#794B93" stroke="#263238" stroke-linecap="round" stroke-linejoin="round"/>
<path d="M126.496 518.834H92.8789L101.294 602.381H118.081L126.496 518.834Z" fill="white" stroke="#263238" stroke-linecap="round" stroke-linejoin="round"/>
<path d="M99.959 589.094L101.294 602.38H118.082L119.417 589.094H99.959Z" fill="#263238" stroke="#263238" stroke-linecap="round" stroke-linejoin="round"/>
<path d="M115.834 534.969H101.908V574.851H115.834V534.969Z" fill="#794B93" stroke="#263238" stroke-linecap="round" stroke-linejoin="round"/>
<path d="M167.47 518.834H133.853L142.268 602.381H159.056L167.47 518.834Z" fill="white" stroke="#263238" stroke-linecap="round" stroke-linejoin="round"/>
<path d="M140.93 589.094L142.265 602.38H159.053L160.409 589.094H140.93Z" fill="#263238" stroke="#263238" stroke-linecap="round" stroke-linejoin="round"/>
<path d="M156.808 534.969H142.882V574.851H156.808V534.969Z" fill="#794B93" stroke="#263238" stroke-linecap="round" stroke-linejoin="round"/>
<path d="M208.44 518.834H174.844L183.238 602.381H200.046L208.44 518.834Z" fill="white" stroke="#263238" stroke-linecap="round" stroke-linejoin="round"/>
<path d="M181.904 589.094L183.239 602.38H200.048L201.383 589.094H181.904Z" fill="#263238" stroke="#263238" stroke-linecap="round" stroke-linejoin="round"/>
<path d="M197.779 534.969H183.853V574.851H197.779V534.969Z" fill="#794B93" stroke="#263238" stroke-linecap="round" stroke-linejoin="round"/>
<path d="M253.865 557.758H218.34V572.001H253.865V557.758Z" fill="#263238" stroke="#263238" stroke-linecap="round" stroke-linejoin="round"/>
<path d="M259.27 572.002H212.956V603.338H259.27V572.002Z" fill="#794B93" stroke="#263238" stroke-linecap="round" stroke-linejoin="round"/>
<path d="M252.742 578.658H219.442V596.708H252.742V578.658Z" fill="white" stroke="#263238" stroke-linecap="round" stroke-linejoin="round"/>
<path d="M306.326 557.758H270.801V572.001H306.326V557.758Z" fill="#263238" stroke="#263238" stroke-linecap="round" stroke-linejoin="round"/>
<path d="M311.711 572.002H265.396V603.338H311.711V572.002Z" fill="#794B93" stroke="#263238" stroke-linecap="round" stroke-linejoin="round"/>
<path d="M305.203 578.658H271.903V596.708H305.203V578.658Z" fill="white" stroke="#263238" stroke-linecap="round" stroke-linejoin="round"/>
<path d="M413.324 518.834H379.728L388.122 602.381H404.931L413.324 518.834Z" fill="white" stroke="#263238" stroke-linecap="round" stroke-linejoin="round"/>
<path d="M386.788 589.094L388.123 602.38H404.932L406.268 589.094H386.788Z" fill="#263238" stroke="#263238" stroke-linecap="round" stroke-linejoin="round"/>
<path d="M402.663 534.969H388.737V574.851H402.663V534.969Z" fill="#794B93" stroke="#263238" stroke-linecap="round" stroke-linejoin="round"/>
<path d="M454.32 518.834H420.702L429.117 602.381H445.905L454.32 518.834Z" fill="white" stroke="#263238" stroke-linecap="round" stroke-linejoin="round"/>
<path d="M427.782 589.094L429.118 602.38H445.905L447.241 589.094H427.782Z" fill="#263238" stroke="#263238" stroke-linecap="round" stroke-linejoin="round"/>
<path d="M443.657 534.969H429.731V574.851H443.657V534.969Z" fill="#794B93" stroke="#263238" stroke-linecap="round" stroke-linejoin="round"/>
<path d="M495.293 518.834H461.697L470.091 602.381H486.899L495.293 518.834Z" fill="white" stroke="#263238" stroke-linecap="round" stroke-linejoin="round"/>
<path d="M468.753 589.094L470.089 602.38H486.898L488.233 589.094H468.753Z" fill="#263238" stroke="#263238" stroke-linecap="round" stroke-linejoin="round"/>
<path d="M484.632 534.969H470.706V574.851H484.632V534.969Z" fill="#794B93" stroke="#263238" stroke-linecap="round" stroke-linejoin="round"/>
<path d="M536.264 518.834H502.667L511.061 602.381H527.87L536.264 518.834Z" fill="white" stroke="#263238" stroke-linecap="round" stroke-linejoin="round"/>
<path d="M509.728 589.094L511.063 602.38H527.872L529.207 589.094H509.728Z" fill="#263238" stroke="#263238" stroke-linecap="round" stroke-linejoin="round"/>
<path d="M525.602 534.969H511.676V574.851H525.602V534.969Z" fill="#794B93" stroke="#263238" stroke-linecap="round" stroke-linejoin="round"/>
<path d="M581.689 557.758H546.164V572.001H581.689V557.758Z" fill="#263238" stroke="#263238" stroke-linecap="round" stroke-linejoin="round"/>
<path d="M587.093 572.002H540.779V603.338H587.093V572.002Z" fill="#794B93" stroke="#263238" stroke-linecap="round" stroke-linejoin="round"/>
<path d="M580.586 578.658H547.286V596.708H580.586V578.658Z" fill="white" stroke="#263238" stroke-linecap="round" stroke-linejoin="round"/>
<path d="M634.15 557.758H598.625V572.001H634.15V557.758Z" fill="#263238" stroke="#263238" stroke-linecap="round" stroke-linejoin="round"/>
<path d="M639.534 572.002H593.22V603.338H639.534V572.002Z" fill="#794B93" stroke="#263238" stroke-linecap="round" stroke-linejoin="round"/>
<path d="M633.027 578.658H599.727V596.708H633.027V578.658Z" fill="white" stroke="#263238" stroke-linecap="round" stroke-linejoin="round"/>
<path d="M677.262 342.384V324.604L37.513 324.604V342.384L677.262 342.384Z" fill="white" stroke="#263238" stroke-linecap="round" stroke-linejoin="round"/>
<path d="M677.285 481.014V463.234L37.5365 463.234V481.014L677.285 481.014Z" fill="white" stroke="#263238" stroke-linecap="round" stroke-linejoin="round"/>
<path d="M677.262 619.669V601.889H37.513V619.669H677.262Z" fill="white" stroke="#263238" stroke-linecap="round" stroke-linejoin="round"/>
<path d="M677.262 758.325V740.545H37.513V758.325H677.262Z" fill="white" stroke="#263238" stroke-linecap="round" stroke-linejoin="round"/>
<path d="M677.285 895.481V877.701H37.5364V895.481H677.285Z" fill="white" stroke="#263238" stroke-linecap="round" stroke-linejoin="round"/>
<path d="M40.5888 219.74H25.2427V937.844H40.5888V219.74Z" fill="white" stroke="#263238" stroke-linecap="round" stroke-linejoin="round"/>
<path d="M362.772 219.74H347.426V937.844H362.772V219.74Z" fill="white" stroke="#263238" stroke-linecap="round" stroke-linejoin="round"/>
<path d="M684.958 219.74H669.612V937.844H684.958V219.74Z" fill="white" stroke="#263238" stroke-linecap="round" stroke-linejoin="round"/>
<path d="M691.083 145.084H9.89551V221.509H691.083V145.084Z" fill="#794B93" stroke="#263238" stroke-linecap="round" stroke-linejoin="round"/>
<path d="M491.645 145.084H209.352V221.509H491.645V145.084Z" fill="white" stroke="#263238" stroke-linecap="round" stroke-linejoin="round"/>
<path d="M129.04 174.357H114.775V157.805H100.065V174.357H85.7783V191.4H100.065V207.928H114.775V191.4H129.04V174.357Z" fill="white"/>
<path d="M611.003 174.357H596.738V157.805H582.028V174.357H567.741V191.4H582.028V207.928H596.738V191.4H611.003V174.357Z" fill="white"/>
<path d="M253.525 156.822C260.817 156.822 263.933 161.734 263.933 169.961V176.469C263.933 184.99 260.499 189.435 253.123 189.435H248.565V210.654H243.394V156.822H253.525ZM253.144 184.008C257.002 184.008 258.846 181.945 258.846 176.788V169.642C258.846 164.73 257.32 162.274 253.547 162.274H248.587V184.008H253.144Z" fill="#794B93"/>
<path d="M273.367 186.292V210.506H268.195V156.822H273.367V181.012H284.77V156.822H289.942V210.605H284.77V186.292H273.367Z" fill="#794B93"/>
<path d="M300.476 199.774L298.695 210.605H293.926L302.808 156.822H310.375L319.256 210.605H314.084L312.304 199.774H300.476ZM301.154 194.617H311.498L306.241 163.576L301.154 194.617Z" fill="#794B93"/>
<path d="M333.564 156.822C340.877 156.822 343.908 161.12 343.908 169.101V173.497C343.908 179.416 342.128 183.099 338.143 184.548C342.382 186.022 343.993 190 343.993 195.771V204.146C343.841 206.352 344.154 208.569 344.904 210.605H339.669C338.948 208.534 338.658 206.296 338.821 204.072V195.624C338.821 189.558 336.362 187.618 332.059 187.618H328.392V210.605H323.242V156.822H333.564ZM332.25 182.166C336.362 182.166 338.821 180.644 338.821 174.799V169.642C338.821 164.73 337.295 162.274 333.437 162.274H328.392V182.166H332.25Z" fill="#794B93"/>
<path d="M366.459 210.531H361.499L353.805 167.726V210.605H349.29V156.822H356.518L364.149 199.774L371.504 156.822H378.732V210.605H373.835V167.358L366.459 210.531Z" fill="#794B93"/>
<path d="M389.29 199.774L387.488 210.605H382.719L391.6 156.822H399.104L407.985 210.605H402.813L401.011 199.774H389.29ZM389.947 194.617H400.291L395.161 163.576L389.947 194.617Z" fill="#794B93"/>
<path d="M432.508 169.815V174.726H427.611V169.569C427.611 164.658 425.958 161.809 422.164 161.809C418.37 161.809 416.738 164.731 416.738 169.569V198.007C416.738 202.919 418.455 205.743 422.164 205.743C425.873 205.743 427.611 202.845 427.611 198.007V191.008H432.508V197.688C432.508 205.841 429.201 211.22 422.037 211.22C414.872 211.22 411.629 205.841 411.629 197.688V169.815C411.629 161.661 414.936 156.283 422.037 156.283C429.138 156.283 432.508 161.735 432.508 169.815Z" fill="#794B93"/>
<path d="M444.717 191.204L434.903 156.822H440.287L447.515 183.247L454.807 156.822H459.703L449.826 191.204V210.506H444.717V191.204Z" fill="#794B93"/>
<path d="M948.98 211.662H724.362V599.877H948.98V211.662Z" stroke="#263238" stroke-linecap="round" stroke-linejoin="round"/>
<path d="M868.583 310.361L791.873 365.346C787.967 368.149 783.622 370.032 779.087 370.889C774.553 371.745 769.917 371.558 765.445 370.338C760.972 369.118 756.751 366.888 753.023 363.778C749.294 360.667 746.132 356.735 743.715 352.208V352.208C738.837 343.069 737.291 332.06 739.417 321.601C741.544 311.143 747.169 302.091 755.055 296.436L831.807 241.426C839.698 235.773 849.203 233.981 858.234 236.445C867.264 238.909 875.081 245.426 879.965 254.565V254.565C882.382 259.094 884.005 264.13 884.741 269.386C885.477 274.642 885.312 280.014 884.255 285.196C883.198 290.378 881.27 295.267 878.58 299.585C875.891 303.903 872.494 307.565 868.583 310.361V310.361Z" stroke="#263238" stroke-linecap="round" stroke-linejoin="round"/>
<path d="M831.808 241.427L792.679 269.497L829.497 338.407L868.626 310.361C872.532 307.561 875.925 303.895 878.609 299.576C881.293 295.256 883.217 290.366 884.27 285.185C885.323 280.003 885.485 274.633 884.746 269.379C884.008 264.125 882.383 259.092 879.966 254.565C877.548 250.039 874.385 246.109 870.656 242.999C866.928 239.889 862.707 237.66 858.235 236.44C853.763 235.22 849.128 235.033 844.593 235.888C840.059 236.744 835.714 238.626 831.808 241.427V241.427Z" stroke="#263238" stroke-linecap="round" stroke-linejoin="round"/>
<path d="M890.818 480.426L805.608 446.044C801.269 444.3 797.268 441.582 793.836 438.046C790.403 434.51 787.606 430.224 785.604 425.435C783.602 420.645 782.435 415.445 782.168 410.132C781.902 404.82 782.542 399.498 784.052 394.472C785.557 389.444 787.903 384.809 790.955 380.832C794.007 376.856 797.706 373.615 801.84 371.295C805.974 368.976 810.462 367.623 815.048 367.314C819.633 367.006 824.226 367.747 828.564 369.497L913.774 403.878C922.534 407.405 929.727 414.82 933.77 424.492C937.812 434.163 938.374 445.299 935.33 455.45V455.45C932.286 465.6 925.886 473.934 917.538 478.618C909.191 483.301 899.579 483.952 890.818 480.426V480.426Z" stroke="#263238" stroke-linecap="round" stroke-linejoin="round"/>
<path d="M913.771 403.854L870.297 386.344L847.342 462.916L890.816 480.426C899.58 483.953 909.194 483.302 917.544 478.615C925.893 473.929 932.294 465.592 935.339 455.438C938.383 445.284 937.821 434.145 933.776 424.471C929.731 414.797 922.535 407.381 913.771 403.854V403.854Z" stroke="#263238" stroke-linecap="round" stroke-linejoin="round"/>
<path d="M903.174 514.562H914.006" stroke="#263238" stroke-linecap="round" stroke-linejoin="round"/>
<path d="M757.514 514.562H891.221" stroke="#263238" stroke-linecap="round" stroke-linejoin="round"/>
<path d="M757.514 542.287H914.007" stroke="#263238" stroke-linecap="round" stroke-linejoin="round"/>
<path d="M784.264 570.039H914.007" stroke="#263238" stroke-linecap="round" stroke-linejoin="round"/>
<path d="M757.514 570.039H768.557" stroke="#263238" stroke-linecap="round" stroke-linejoin="round"/>
<path d="M853.809 478.314H864.301" stroke="#263238" stroke-linecap="round" stroke-linejoin="round"/>
<path d="M751.981 384.453V478.314H840.349" stroke="#263238" stroke-linecap="round" stroke-linejoin="round"/>
<path d="M900.186 244.594H890.076" stroke="#263238" stroke-linecap="round" stroke-linejoin="round"/>
<path d="M925.048 395.11V244.594H912.139" stroke="#263238" stroke-linecap="round" stroke-linejoin="round"/>
<path d="M809.063 243.662H750.137V288.456" stroke="#263238" stroke-linecap="round" stroke-linejoin="round"/>
<path d="M591.018 544.548C582.752 555.108 552.208 556.606 525.415 556.483C498.623 556.36 464.582 538.826 453.199 519.99C441.817 501.154 464.794 462.72 468.821 453.806C472.848 444.891 474.459 401.104 497.542 388.26C520.625 375.416 569.228 382.096 585.02 395.627C600.811 409.159 634.089 432.808 639.515 456.212C644.942 479.616 626.013 479.886 624.402 481.016C622.792 482.146 620.163 483.251 616.094 492.19C614.857 494.802 613.069 497.008 610.897 498.601C608.725 500.195 606.239 501.124 603.672 501.301L591.018 544.548Z" fill="#263238" stroke="#263238" stroke-linecap="round" stroke-linejoin="round"/>
<path d="M615.964 449.066C631.311 453.757 641.4 459.479 633.748 465.717" stroke="#545454" stroke-linecap="round" stroke-linejoin="round"/>
<path d="M554.137 436.787C554.137 436.787 584.406 440.643 608.252 446.807" stroke="#545454" stroke-linecap="round" stroke-linejoin="round"/>
<path d="M541.079 431.039C541.079 431.039 579.932 416.034 616.814 434.502" stroke="#545454" stroke-linecap="round" stroke-linejoin="round"/>
<path d="M586.248 410.436C588.167 410.999 590.05 411.713 591.886 412.572" stroke="#545454" stroke-linecap="round" stroke-linejoin="round"/>
<path d="M527.131 426.424C527.131 426.424 550.596 407.784 575.523 408.718" stroke="#545454" stroke-linecap="round" stroke-linejoin="round"/>
<path d="M467.019 516.453C464.231 517.608 461.336 518.383 458.393 518.762" stroke="#545454" stroke-linecap="round" stroke-linejoin="round"/>
<path d="M537.179 450.662C537.179 450.662 509.284 482.981 491.352 500.294C486.156 505.381 480.422 509.68 474.289 513.089" stroke="#545454" stroke-linecap="round" stroke-linejoin="round"/>
<path d="M519.163 443.736C519.163 443.736 490.272 481.826 464.37 493.27" stroke="#545454" stroke-linecap="round" stroke-linejoin="round"/>
<path d="M785.178 887.477C785.178 887.477 795.161 897.914 796.475 900.885C797.79 903.857 802.686 916.529 800.884 916.848C799.083 917.167 794.737 909.088 793.444 905.699C792.151 902.31 787.085 893.42 787.085 893.42L785.178 887.477Z" fill="white" stroke="#263238" stroke-linecap="round" stroke-linejoin="round"/>
<path d="M778.923 880.135C778.923 880.135 785.812 887.502 787.126 890.474C788.441 893.445 794.587 920.263 794.587 920.263C794.587 920.263 791.62 923.013 789.543 921.687C787.465 920.361 780.195 893.863 780.195 893.863L778.923 880.135Z" fill="white" stroke="#263238" stroke-linecap="round" stroke-linejoin="round"/>
<path d="M763.258 868.568C763.258 868.568 775.848 876.255 778.922 880.135C781.995 884.015 786.87 916.162 787.845 919.109C788.821 922.056 782.992 924.242 781.614 922.94C780.236 921.638 774.577 893.569 774.577 893.569L763.215 872.301L763.258 868.568Z" fill="white" stroke="#263238" stroke-linecap="round" stroke-linejoin="round"/>
<path d="M733.373 865.006L757.198 865.546C759.227 865.597 761.218 866.191 763.016 867.282C764.814 868.373 766.37 869.93 767.563 871.833L777.568 887.943L779.284 919.992C779.299 920.392 779.243 920.791 779.118 921.165C778.994 921.539 778.805 921.879 778.562 922.165C778.32 922.45 778.029 922.675 777.709 922.825C777.388 922.975 777.044 923.047 776.699 923.037C776.165 923 775.654 922.772 775.236 922.385C774.819 921.998 774.515 921.471 774.367 920.876L767.436 891.897L758.342 886.985C758.342 886.985 744.416 895.826 744.713 897.496C745.01 899.166 752.81 910.34 754.506 912.894C756.202 915.448 760.335 919.82 759.169 922.251C758.003 924.682 750.945 922.251 748.571 920.458C746.197 918.665 733.246 899.805 728.392 895.9C723.538 891.995 718.324 887.919 718.324 887.919L733.373 865.006Z" fill="white" stroke="#263238" stroke-linecap="round" stroke-linejoin="round"/>
<path d="M729.11 872.424L725.867 893.175L720.441 888.141L729.11 872.424Z" fill="#263238" stroke="#263238" stroke-linecap="round" stroke-linejoin="round"/>
<path d="M626.204 604.004C626.204 604.004 647.633 610.634 650.643 626.843C653.653 643.051 666.901 802.703 666.901 802.703L737.909 856.166L716.415 894.6L648.99 879.251L609.501 598.871L626.204 604.004Z" fill="white" stroke="#263238" stroke-linecap="round" stroke-linejoin="round"/>
<path d="M666.901 802.703C666.901 802.703 657.511 808.45 654.184 813.607" stroke="#263238" stroke-linecap="round" stroke-linejoin="round"/>
<path d="M637.861 641.282L656.811 936.323L417.482 925.026C417.482 925.026 424.223 620.211 427.106 613.678C429.988 607.146 453.22 604.027 472.402 597.053C491.585 590.078 525.796 576.768 525.796 576.768L570.817 578.978C583.408 579.616 635.445 607.784 635.36 610.216" fill="white"/>
<path d="M637.861 641.282L656.811 936.323L417.482 925.026C417.482 925.026 424.223 620.211 427.106 613.678C429.988 607.146 453.22 604.027 472.402 597.053C491.585 590.078 525.796 576.768 525.796 576.768L570.817 578.978C583.408 579.616 635.445 607.784 635.36 610.216" stroke="#263238" stroke-linecap="round" stroke-linejoin="round"/>
<path d="M640.045 699.51H616.284V710.168H640.045V699.51Z" fill="#263238" stroke="#263238" stroke-linecap="round" stroke-linejoin="round"/>
<path d="M500.55 588.729L502.797 697.84L529.844 705.281L514.603 733.13L552.609 855.602" fill="white"/>
<path d="M500.55 588.729L502.797 697.84L529.844 705.281L514.603 733.13L552.609 855.602" stroke="#263238" stroke-linecap="round" stroke-linejoin="round"/>
<path d="M581.204 582.416C581.204 582.416 606.279 642.731 613.422 662.574C620.565 682.417 623.49 688.654 623.49 688.654L605.601 702.996L623.893 719.745L606.788 826.033" fill="white"/>
<path d="M581.204 582.416C581.204 582.416 606.279 642.731 613.422 662.574C620.565 682.417 623.49 688.654 623.49 688.654L605.601 702.996L623.893 719.745L606.788 826.033" stroke="#263238" stroke-linecap="round" stroke-linejoin="round"/>
<path d="M509.623 584.135C509.623 584.135 545.869 696.881 548.73 732.932C551.592 768.984 558.587 933.769 558.587 933.769L605.219 936.224C605.219 936.224 603.481 771.685 596.316 710.486C589.152 649.287 578.956 598.182 577.091 592.018C575.452 587.356 573.316 582.95 570.732 578.904L541.948 573.992L509.623 584.135Z" fill="#794B93" stroke="#263238" stroke-linecap="round" stroke-linejoin="round"/>
<path d="M598.563 768.518L580.779 811.052" stroke="#263238" stroke-linecap="round" stroke-linejoin="round"/>
<path d="M591.888 768.518L566.325 830.379" stroke="#263238" stroke-linecap="round" stroke-linejoin="round"/>
<path d="M524.672 533.914C524.672 533.914 524.82 572.298 524.142 576.522C523.464 580.746 512.844 579.224 512.632 584.7C512.42 590.177 528.53 641.896 544.215 657.908C559.9 673.92 564.733 671.71 569.396 659.16C574.06 646.611 575.437 621.955 575.755 614.047C575.882 610.535 576.518 601.768 575.755 597.495C574.653 591.478 573.254 582.883 568.866 579.396L567.192 578.07L567.891 559.233C567.891 559.233 541.163 556.679 524.672 533.914Z" fill="white" stroke="#263238" stroke-linecap="round" stroke-linejoin="round"/>
<path d="M567.172 578.07L567.872 559.233C567.872 559.233 541.164 556.778 524.673 533.914V534.16L525.776 540.054C525.776 540.054 536.162 575.442 568.847 579.347L567.172 578.07Z" fill="#263238" stroke="#263238" stroke-linecap="round" stroke-linejoin="round"/>
<path d="M550.236 440.814C550.236 440.814 520.561 430.205 519.268 425.268C517.975 420.332 519.396 408.225 515.623 410.534C511.85 412.842 512.358 427.405 517.446 431.924C522.533 436.442 550.681 442.729 552.61 447.69C554.539 452.651 551.763 456.163 542.288 470.308C532.813 484.454 491.586 505.549 491.395 510.461C491.204 515.372 495.91 530.107 503.244 531.139C507.884 531.609 512.532 530.353 516.513 527.553C521.669 538.909 529.279 548.521 538.6 555.451C553.437 565.937 574.845 570.039 587.839 559.749C594.939 554.1 607.467 526.62 608.42 515.102C609.374 503.584 604.075 490.544 604.181 485.632C604.287 480.721 604.584 474.704 604.584 474.704C604.584 474.704 567.639 450.932 562.573 445.799C559.047 442.608 554.71 440.856 550.236 440.814V440.814Z" fill="white" stroke="#263238" stroke-linecap="round" stroke-linejoin="round"/>
<path d="M543.877 474.605C543.877 474.605 554.476 466.747 565.074 472.911" stroke="#263238" stroke-linecap="round" stroke-linejoin="round"/>
<path d="M585.526 473.476C585.526 473.476 592.288 469.547 598.646 478.535" stroke="#263238" stroke-linecap="round" stroke-linejoin="round"/>
<path d="M579.74 494.67C579.74 494.67 578.913 503.142 580.927 505.083C582.94 507.023 587.116 508.422 584.891 511.983C582.665 515.544 575.797 515.79 572.809 511.369" stroke="#263238" stroke-linecap="round" stroke-linejoin="round"/>
<path d="M588.601 524.951C588.601 524.951 579.932 531.827 565.985 525.639" stroke="#263238" stroke-linecap="round" stroke-linejoin="round"/>
<path d="M557.336 493.122C557.208 496.487 555.449 499.139 553.435 499.016C551.422 498.894 549.853 496.118 549.98 492.754C550.108 489.39 551.846 486.762 553.88 486.86C555.915 486.958 557.463 489.783 557.336 493.122Z" fill="#263238"/>
<path d="M594.578 494.99C594.451 498.354 592.691 501.006 590.678 500.884C588.664 500.761 587.095 497.986 587.223 494.621C587.35 491.257 589.109 488.629 591.123 488.727C593.136 488.826 594.705 491.65 594.578 494.99Z" fill="#263238"/>
<path d="M567.366 479.469L541.742 478.183C538.678 478.029 536.086 480.782 535.954 484.332L535.525 495.79C535.393 499.341 537.769 502.343 540.833 502.497L566.457 503.783C569.521 503.937 572.113 501.183 572.245 497.633L572.674 486.175C572.806 482.625 570.43 479.622 567.366 479.469Z" stroke="#263238" stroke-linecap="round" stroke-linejoin="round"/>
<path d="M605.66 481.41L585.288 480.388C582.224 480.234 579.633 482.987 579.5 486.538L579.072 497.995C578.939 501.546 581.315 504.548 584.38 504.702L604.751 505.724C607.816 505.878 610.407 503.125 610.54 499.575L610.968 488.117C611.101 484.566 608.724 481.564 605.66 481.41Z" stroke="#263238" stroke-linecap="round" stroke-linejoin="round"/>
<path d="M572.832 482.76L579.127 483.079" stroke="#263238" stroke-linecap="round" stroke-linejoin="round"/>
<path d="M535.822 488.825L521.133 488.088" stroke="#263238" stroke-linecap="round" stroke-linejoin="round"/>
<path d="M547.968 850.566C547.968 850.566 563.378 849.78 568.847 846.956C574.315 844.132 612.85 832.221 614.821 832.982C621.4 836.125 627.775 839.81 633.898 844.009C637.014 846.661 643.712 867.806 646.256 876.18C646.567 877.106 646.555 878.137 646.223 879.053C645.891 879.969 645.264 880.7 644.475 881.092V881.092C643.737 881.488 642.9 881.559 642.12 881.292C641.34 881.026 640.67 880.439 640.236 879.643L634.682 869.328L638.689 888.631C638.909 889.643 638.789 890.714 638.352 891.627C637.915 892.539 637.194 893.224 636.336 893.543V893.543C635.654 893.801 634.922 893.815 634.233 893.582C633.545 893.35 632.933 892.883 632.478 892.241L619.421 873.552L613.062 866.185L626.416 894.918C626.658 895.444 626.789 896.03 626.798 896.626C626.808 897.223 626.695 897.813 626.47 898.35C626.244 898.886 625.913 899.353 625.502 899.713C625.091 900.073 624.613 900.314 624.106 900.419C623.6 900.517 623.082 900.477 622.593 900.303C622.103 900.128 621.656 899.823 621.286 899.412C617.45 895.09 605.58 881.706 604.541 879.765C602.405 876.83 600.042 874.125 597.483 871.686L610.455 900.222C610.693 900.618 610.854 901.069 610.927 901.543C611.001 902.018 610.985 902.505 610.88 902.972C610.775 903.439 610.584 903.874 610.321 904.247C610.057 904.62 609.727 904.923 609.353 905.134H609.162C604.753 905.33 602.528 901.696 599.369 898.11L585.719 882.639C585.719 882.639 564.798 887.771 558.842 885.93C552.886 884.088 539.299 871.784 539.299 871.784L547.968 850.566Z" fill="white" stroke="#263238" stroke-linecap="round" stroke-linejoin="round"/>
<path d="M547.969 850.566L547.375 878.072L539.151 871.809L547.969 850.566Z" fill="#263238" stroke="#263238" stroke-linecap="round" stroke-linejoin="round"/>
<path d="M634.595 869.329L629.911 858.352L613.378 844.354" fill="white"/>
<path d="M634.595 869.329L629.911 858.352L613.378 844.354" stroke="#263238" stroke-linecap="round" stroke-linejoin="round"/>
<path d="M612.915 866.21L605.411 857.123" stroke="#263238" stroke-linecap="round" stroke-linejoin="round"/>
<path d="M449.405 606.999C449.405 606.999 428.717 605.967 423.036 614.98C417.356 623.993 404.129 838.336 404.447 847.644C404.765 856.951 532.282 894.697 532.282 894.697L550.702 849.142L474.543 796.931L478.973 675.123" fill="white"/>
<path d="M449.405 606.999C449.405 606.999 428.717 605.967 423.036 614.98C417.356 623.993 404.129 838.336 404.447 847.644C404.765 856.951 532.282 894.697 532.282 894.697L550.702 849.142L474.543 796.931L478.973 675.123" stroke="#263238" stroke-linecap="round" stroke-linejoin="round"/>
<path d="M440.651 798.16C440.651 798.16 460.618 786.667 474.566 796.932" stroke="#263238" stroke-linecap="round" stroke-linejoin="round"/>
<path d="M448.534 805.403C454.805 801.012 461.98 798.654 469.307 798.576" stroke="#263238" stroke-linecap="round" stroke-linejoin="round"/>
<path d="M438.595 816.775C439.061 815.818 439.592 814.907 440.184 814.049" stroke="#263238" stroke-linecap="round" stroke-linejoin="round"/>
<path d="M934.822 860.364C934.822 860.364 925.348 846.415 925.348 837.942C925.348 829.469 932.66 841.945 932.66 841.945C932.66 841.945 917.187 809.062 918.48 795.604C919.773 782.146 931.367 819.032 931.367 819.032C931.367 819.032 927.51 743.32 933.953 745.8C940.397 748.28 948.579 819.474 948.579 824.017C948.579 828.561 954.154 792.632 958.456 803.094C962.759 813.556 962.696 838.458 962.696 838.458C962.696 838.458 968.292 800.589 972.594 813.556C976.897 826.522 967.465 860.855 967.465 860.855" fill="#794B93"/>
<path d="M978.252 871.881H925.918V922.2H978.252V871.881Z" stroke="#263238" stroke-linecap="round" stroke-linejoin="round"/>
<path d="M978.677 889.317V860.707H925.686V893.566C925.686 895.52 926.356 897.394 927.548 898.775C928.741 900.157 930.358 900.933 932.045 900.933H932.384C934.071 900.933 935.688 900.157 936.88 898.775C938.073 897.394 938.743 895.52 938.743 893.566V889.415H939.082V893.566C939.082 895.52 939.752 897.394 940.945 898.775C942.137 900.157 943.755 900.933 945.441 900.933H945.78C947.467 900.933 949.084 900.157 950.277 898.775C951.469 897.394 952.139 895.52 952.139 893.566V889.415H952.478V893.566C952.478 895.52 953.148 897.394 954.341 898.775C955.533 900.157 957.151 900.933 958.837 900.933H959.155C960.842 900.933 962.459 900.157 963.652 898.775C964.844 897.394 965.514 895.52 965.514 893.566V889.415H965.853V893.566C965.853 895.52 966.523 897.394 967.716 898.775C968.908 900.157 970.526 900.933 972.212 900.933H972.53C974.217 900.933 975.834 900.157 977.026 898.775C978.219 897.394 978.889 895.52 978.889 893.566V889.415L978.677 889.317Z" fill="white" stroke="#263238" stroke-linecap="round" stroke-linejoin="round"/>
<path d="M342.614 884.652V863.508H302.723V883.866L342.614 884.652Z" fill="#BFBFBF" stroke="#263238" stroke-linecap="round" stroke-linejoin="round"/>
<path d="M302.725 863.508L298.677 852.531C306.585 851.695 314.558 852.225 322.332 854.102C329.552 855.699 336.439 858.893 342.617 863.508H302.725Z" fill="white" stroke="#263238" stroke-linecap="round" stroke-linejoin="round"/>
<path d="M298.675 852.531C298.675 852.531 285.152 853.317 277.712 864.295C273.082 871.629 270.275 880.292 269.594 889.344L302.724 883.867V863.509L298.675 852.531Z" fill="white" stroke="#263238" stroke-linecap="round" stroke-linejoin="round"/>
<path d="M291.914 870.556V886.2L281.761 886.986C281.486 882.658 282.218 878.324 283.881 874.437C284.567 872.751 285.768 871.421 287.253 870.704C288.737 869.987 290.398 869.934 291.914 870.556V870.556Z" fill="white" stroke="#263238" stroke-linecap="round" stroke-linejoin="round"/>
<path d="M301.369 930.87H280.427L266.903 903.438L293.272 895.629L301.369 930.87Z" fill="white" stroke="#263238" stroke-linecap="round" stroke-linejoin="round"/>
<path d="M392.64 901.105L379.117 930.87H301.369L289.88 905.01L392.64 901.105Z" fill="#A6A6A6" stroke="#263238" stroke-linecap="round" stroke-linejoin="round"/>
<path d="M289.899 905.035H396.707V883.105H289.899V905.035Z" fill="#BFBFBF" stroke="#263238" stroke-linecap="round" stroke-linejoin="round"/>
<path d="M289.879 883.08L264.867 893.272V906.582L289.879 905.01V883.08Z" fill="white" stroke="#263238" stroke-linecap="round" stroke-linejoin="round"/>
<path d="M567.106 916.578L704.013 914.172L718.045 911.52H860.824L856.14 922.669H563.587L567.106 916.578Z" fill="#263238" stroke="#263238" stroke-linecap="round" stroke-linejoin="round"/>
<path d="M890.709 875.074H715.161L739.77 670.48H915.297L890.709 875.074Z" fill="#263238" stroke="#263238" stroke-linecap="round" stroke-linejoin="round"/>
<path d="M898.555 875.074H723.007L747.616 670.48H923.164L898.555 875.074Z" fill="#3D3D3D" stroke="#263238" stroke-linecap="round" stroke-linejoin="round"/>
<path d="M845.966 811.297H790.919L800.182 734.283H855.229L845.966 811.297Z" fill="#3D3D3D" stroke="#263238" stroke-linecap="round" stroke-linejoin="round"/>
<path d="M800.182 734.282L747.615 670.48H923.164L855.229 734.282H800.182Z" fill="#595959" stroke="#263238" stroke-linecap="round" stroke-linejoin="round"/>
<path d="M790.917 811.297L726.904 874.411L898.552 875.074L845.964 811.297H790.917Z" fill="#2E2E2E" stroke="#263238" stroke-linecap="round" stroke-linejoin="round"/>
<path d="M830.089 825.319C848.281 825.319 863.028 808.233 863.028 787.156C863.028 766.079 848.281 748.992 830.089 748.992C811.897 748.992 797.15 766.079 797.15 787.156C797.15 808.233 811.897 825.319 830.089 825.319Z" fill="#263238" stroke="#263238" stroke-linecap="round" stroke-linejoin="round"/>
<path d="M833.1 767.805H835.22C840.92 767.805 846.387 770.428 850.418 775.098C854.448 779.768 856.713 786.102 856.713 792.707V927.776H811.607V792.707C811.607 786.102 813.871 779.768 817.902 775.098C821.933 770.428 827.4 767.805 833.1 767.805Z" fill="#595959" stroke="#263238" stroke-linecap="round" stroke-linejoin="round"/>
<path d="M856.714 927.752V793.934C856.115 788.111 853.545 782.803 849.567 779.176C845.59 775.549 840.533 773.901 835.507 774.595C830.481 775.288 825.899 778.267 822.769 782.875C819.638 787.483 818.216 793.342 818.815 799.165V927.752H856.714Z" fill="#595959" stroke="#263238" stroke-linecap="round" stroke-linejoin="round"/>
<path d="M841.175 860.83H840.645C837.555 860.83 835.049 863.733 835.049 867.313V888.851C835.049 892.431 837.555 895.334 840.645 895.334H841.175C844.266 895.334 846.771 892.431 846.771 888.851V867.313C846.771 863.733 844.266 860.83 841.175 860.83Z" fill="#263238" stroke="#263238" stroke-linecap="round" stroke-linejoin="round"/>
<path d="M857.603 915.203H774.598V927.752H857.603V915.203Z" fill="#595959" stroke="#263238" stroke-linecap="round" stroke-linejoin="round"/>
<path d="M999.998 922.521H6.94873V944.476H999.998V922.521Z" fill="#263238" stroke="#263238" stroke-linecap="round" stroke-linejoin="round"/>
</svg>
