<svg width="1000" height="1000" viewBox="0 0 1000 1000" fill="none" xmlns="http://www.w3.org/2000/svg">
<path d="M500 1000C776.142 1000 1000 860.328 1000 688.033C1000 515.738 776.142 376.066 500 376.066C223.858 376.066 0 515.738 0 688.033C0 860.328 223.858 1000 500 1000Z" fill="#F0F0F0"/>
<path d="M197.984 751.793C284.555 751.793 354.734 709.796 354.734 657.991C354.734 606.187 284.555 564.19 197.984 564.19C111.413 564.19 41.2341 606.187 41.2341 657.991C41.2341 709.796 111.413 751.793 197.984 751.793Z" fill="#E0E0E0"/>
<path d="M102.14 812.761L347.784 965.988C349.041 966.67 350.429 967.026 351.836 967.026C353.243 967.026 354.631 966.67 355.888 965.988L790.278 694.931C790.765 694.749 791.187 694.407 791.486 693.954C791.784 693.501 791.945 692.958 791.945 692.401C791.945 691.845 791.784 691.302 791.486 690.848C791.187 690.395 790.765 690.053 790.278 689.871L544.635 536.645C543.381 535.962 541.997 535.607 540.593 535.607C539.189 535.607 537.805 535.962 536.552 536.645L102.14 807.701C101.654 807.883 101.232 808.225 100.933 808.678C100.634 809.132 100.474 809.675 100.474 810.231C100.474 810.788 100.634 811.33 100.933 811.784C101.232 812.237 101.654 812.579 102.14 812.761V812.761Z" fill="#E0E0E0"/>
<path d="M782.867 889.341C856.88 889.341 916.879 851.906 916.879 805.728C916.879 759.549 856.88 722.115 782.867 722.115C708.854 722.115 648.855 759.549 648.855 805.728C648.855 851.906 708.854 889.341 782.867 889.341Z" fill="#E0E0E0"/>
<path d="M212.976 734.797C212.516 734.797 212.061 734.699 211.637 734.508C211.213 734.318 210.828 734.038 210.504 733.686C210.18 733.334 209.924 732.916 209.75 732.456C209.576 731.997 209.488 731.505 209.491 731.008V488.745C209.491 487.746 209.858 486.788 210.511 486.082C211.165 485.376 212.051 484.979 212.976 484.979C213.9 484.979 214.787 485.376 215.44 486.082C216.094 486.788 216.461 487.746 216.461 488.745V731.008C216.461 732.009 216.094 732.969 215.441 733.679C214.788 734.389 213.902 734.791 212.976 734.797Z" fill="#455A64"/>
<path d="M351.669 646.601C350.981 646.607 350.307 646.396 349.728 645.993C349.15 645.589 348.694 645.012 348.415 644.332L279.677 456.299C279.337 455.369 279.353 454.332 279.722 453.415C280.09 452.498 280.78 451.776 281.64 451.409C282.5 451.042 283.46 451.06 284.309 451.457C285.157 451.855 285.825 452.601 286.165 453.531L354.903 641.451C355.111 642.021 355.188 642.638 355.126 643.248C355.063 643.858 354.864 644.442 354.545 644.949C354.227 645.457 353.798 645.873 353.297 646.161C352.796 646.449 352.237 646.6 351.669 646.601V646.601Z" fill="#455A64"/>
<path d="M343.398 624.024C342.926 624.023 342.459 623.918 342.025 623.715C341.592 623.513 341.202 623.216 340.878 622.844L212.955 476.561L85.2831 622.209C84.9741 622.59 84.5971 622.9 84.1747 623.119C83.7523 623.339 83.2932 623.465 82.8249 623.489C82.3566 623.512 81.8887 623.433 81.4492 623.257C81.0097 623.081 80.6076 622.81 80.267 622.462C79.9265 622.114 79.6544 621.695 79.4671 621.231C79.2799 620.766 79.1812 620.266 79.1771 619.759C79.173 619.252 79.2636 618.75 79.4433 618.282C79.6231 617.814 79.8884 617.39 80.2233 617.035L210.393 468.483C210.72 468.11 211.114 467.812 211.551 467.609C211.988 467.406 212.458 467.302 212.934 467.303C213.406 467.305 213.872 467.411 214.306 467.614C214.739 467.817 215.129 468.112 215.453 468.483L345.896 617.671C346.21 618.029 346.456 618.451 346.619 618.912C346.782 619.374 346.859 619.865 346.845 620.359C346.831 620.852 346.727 621.338 346.539 621.788C346.351 622.238 346.083 622.643 345.749 622.98C345.118 623.642 344.277 624.015 343.398 624.024V624.024Z" fill="#455A64"/>
<path d="M74.2819 646.601C73.8427 646.6 73.4078 646.508 73.0012 646.328C72.5736 646.15 72.1829 645.883 71.8518 645.54C71.5207 645.198 71.2556 644.788 71.0721 644.335C70.8885 643.881 70.7901 643.392 70.7825 642.897C70.7748 642.402 70.8582 641.91 71.0276 641.45L139.766 453.417C140.105 452.487 140.773 451.741 141.621 451.343C142.47 450.946 143.43 450.928 144.29 451.295C145.151 451.662 145.841 452.384 146.209 453.301C146.577 454.218 146.593 455.255 146.253 456.185L77.5151 644.218C77.2588 644.92 76.8135 645.521 76.2371 645.946C75.6607 646.371 74.9795 646.599 74.2819 646.601V646.601Z" fill="#455A64"/>
<path d="M346.925 618.216L356.016 644.128C356.035 644.347 356.035 644.567 356.016 644.786V645.263C355.754 645.965 355.271 646.543 354.651 646.896C353.792 647.367 352.843 647.612 351.88 647.612C350.917 647.612 349.967 647.367 349.108 646.896C348.63 646.636 348.251 646.202 348.038 645.671V645.671V645.331L339.64 621.03L346.925 618.216Z" fill="#BA68C8"/>
<path d="M79.0053 618.216L69.9144 644.128C69.8947 644.347 69.8947 644.567 69.9144 644.786C69.8934 644.944 69.8934 645.105 69.9144 645.263C70.161 645.975 70.6488 646.559 71.2791 646.896C72.1344 647.367 73.0804 647.612 74.04 647.612C74.9995 647.612 75.9455 647.367 76.8008 646.896C77.2901 646.652 77.6734 646.213 77.8716 645.671V645.671V645.331L86.3956 621.03L79.0053 618.216Z" fill="#BA68C8"/>
<path d="M216.985 712.266V733.708C216.943 734.086 216.812 734.446 216.607 734.755C216.402 735.065 216.127 735.313 215.81 735.478C214.928 735.96 213.953 736.212 212.965 736.212C211.976 736.212 211.002 735.96 210.12 735.478C209.802 735.313 209.528 735.065 209.323 734.755C209.117 734.446 208.987 734.086 208.944 733.708V712.266C210.181 711.551 211.562 711.177 212.965 711.177C214.368 711.177 215.749 711.551 216.985 712.266Z" fill="#BA68C8"/>
<path d="M344.216 465.012C344.216 459.317 339.597 453.281 329.855 446.451C311.862 433.835 271.678 408.513 246.504 393.424C246.495 393.37 246.47 393.32 246.432 393.283C246.394 393.247 246.345 393.224 246.294 393.22C226.916 380.514 208.839 319.999 195.444 274.029C190.867 258.35 185.282 249.478 178.648 245.303C177.073 244.327 171.258 240.878 169.956 240.039C156.813 231.507 139.534 241.741 118.035 254.47C98.2155 266.178 82.742 281.176 79.6347 320.997C77.7242 345.23 79.5298 391.541 84.0857 426.643C90.6782 485.297 98.7823 485.388 110.519 495.19C130.758 512.117 176.317 535.805 195.57 543.883C230.38 558.677 258.85 535.85 280.055 524.528C299.495 513.917 318.264 501.926 336.238 488.632C341.549 484.48 344.3 480.26 344.237 475.812C344.174 474.065 344.216 466.85 344.216 465.012Z" fill="#BA68C8"/>
<path opacity="0.25" d="M344.216 465.012C344.216 459.317 339.597 453.281 329.855 446.451C311.862 433.835 271.678 408.513 246.504 393.424C246.495 393.37 246.47 393.32 246.432 393.283C246.394 393.247 246.345 393.224 246.294 393.22C226.916 380.514 208.839 319.999 195.444 274.029C190.867 258.35 185.282 249.478 178.648 245.303C177.073 244.327 171.258 240.878 169.956 240.039C156.813 231.507 139.534 241.741 118.035 254.47C98.2155 266.178 82.742 281.176 79.6347 320.997C77.7242 345.23 79.5298 391.541 84.0857 426.643C90.6782 485.297 98.7823 485.388 110.519 495.19C130.758 512.117 176.317 535.805 195.57 543.883C230.38 558.677 258.85 535.85 280.055 524.528C299.495 513.917 318.264 501.926 336.238 488.632C341.549 484.48 344.3 480.26 344.237 475.812C344.174 474.065 344.216 466.85 344.216 465.012Z" fill="black"/>
<path d="M177.872 244.827C164.834 237.43 147.891 247.481 126.938 259.893C113.522 267.857 102.079 277.273 95.1299 294.904L86.3959 289.367C93.3453 271.805 104.767 262.389 118.141 254.47C139.661 241.741 156.919 231.507 170.083 240.039L177.872 244.827Z" fill="#BA68C8"/>
<path d="M329.94 446.451C318.267 438.26 318.015 436.172 245.959 393.038C246.079 393.07 246.193 393.123 246.295 393.197C226.938 380.445 208.882 319.976 195.487 274.029C181.861 227.332 159.165 240.856 126.979 259.915C107.118 271.601 91.6446 286.622 88.4953 326.443C85.346 366.264 92.1695 464.853 104.746 476.879C118.455 493.261 173.484 523.711 195.466 533.059C230.276 547.853 258.745 525.027 279.95 513.705C299.428 503.075 318.232 491.061 336.238 477.741C348.269 468.256 347.156 458.568 329.94 446.451Z" fill="#BA68C8"/>
<g opacity="0.1">
<path opacity="0.1" d="M126.937 259.915C159.123 240.856 181.818 227.332 195.444 274.029C208.839 319.999 226.937 380.514 246.295 393.22C246.295 393.22 213.059 393.22 164.917 421.288C114.865 450.49 107.222 479.057 104.934 477.015C92.3369 465.67 85.4085 366.241 88.5368 326.443C91.6651 286.644 107.118 271.601 126.937 259.915Z" fill="black"/>
</g>
<path d="M352.069 657.561L131.577 519.99L499.854 290.321L720.324 427.891L352.069 657.561Z" fill="#455A64"/>
<path d="M131.577 519.99V795.131L143.188 802.369V614.109L340.458 737.203V925.463L352.069 932.702V657.561L131.577 519.99Z" fill="#263238"/>
<path d="M143.188 802.37L154.799 795.132V621.348L143.188 614.11V802.37Z" fill="black"/>
<path d="M352.069 932.701L363.679 925.463V737.203L708.735 522.033V710.293L720.324 703.054V427.891L352.069 657.561V932.701Z" fill="#37474F"/>
<path d="M708.735 710.293L697.125 703.055V529.271L708.735 522.033V710.293Z" fill="#263238"/>
<g opacity="0.2">
<path opacity="0.2" d="M332.04 603.285C320.765 610.297 320.765 621.687 332.04 628.721C343.314 635.755 361.433 635.732 372.791 628.721C384.15 621.71 384.045 610.297 372.791 603.285C361.538 596.274 343.335 596.251 332.04 603.285Z" fill="black"/>
</g>
<g opacity="0.2">
<path opacity="0.2" d="M169.243 519.832L250.158 570.363C250.863 570.755 251.644 570.96 252.436 570.96C253.229 570.96 254.01 570.755 254.714 570.363L314.319 533.174C314.594 533.073 314.832 532.882 315.001 532.628C315.169 532.374 315.26 532.069 315.26 531.756C315.26 531.443 315.169 531.138 315.001 530.883C314.832 530.629 314.594 530.438 314.319 530.338L233.362 479.784C232.654 479.404 231.874 479.207 231.084 479.207C230.294 479.207 229.514 479.404 228.806 479.784L169.201 516.996C167.983 517.767 167.983 519.038 169.243 519.832Z" fill="black"/>
</g>
<g opacity="0.2">
<path opacity="0.2" d="M169.243 528.862L250.158 579.393C250.863 579.785 251.644 579.989 252.436 579.989C253.229 579.989 254.01 579.785 254.714 579.393L314.319 542.204C315.579 541.409 315.579 540.139 314.319 539.367L233.362 488.814C232.654 488.434 231.875 488.236 231.084 488.236C230.294 488.236 229.514 488.434 228.806 488.814L169.243 526.003C168.971 526.109 168.736 526.303 168.57 526.559C168.404 526.815 168.315 527.12 168.315 527.432C168.315 527.745 168.404 528.05 168.57 528.305C168.736 528.561 168.971 528.755 169.243 528.862V528.862Z" fill="black"/>
</g>
<path d="M169.243 525.913L250.158 576.444C250.863 576.836 251.644 577.04 252.436 577.04C253.229 577.04 254.01 576.836 254.714 576.444L314.403 539.345C315.663 538.551 315.663 537.28 314.403 536.509L233.362 485.865C232.654 485.485 231.875 485.287 231.084 485.287C230.294 485.287 229.514 485.485 228.806 485.865L169.243 523.054C168.971 523.16 168.736 523.354 168.57 523.61C168.404 523.866 168.315 524.171 168.315 524.483C168.315 524.796 168.404 525.101 168.57 525.356C168.736 525.612 168.971 525.806 169.243 525.913V525.913Z" fill="#EBEBEB"/>
<path d="M228.849 485.864L172.246 521.193L250.159 569.863C250.867 570.243 251.646 570.44 252.437 570.44C253.227 570.44 254.007 570.243 254.715 569.863L311.402 534.534L233.363 485.864C232.66 485.492 231.888 485.298 231.106 485.298C230.323 485.298 229.551 485.492 228.849 485.864V485.864Z" fill="#E0E0E0"/>
<path d="M169.243 517.019L250.158 567.549C250.863 567.942 251.644 568.146 252.436 568.146C253.229 568.146 254.01 567.942 254.714 567.549L314.403 530.27C314.675 530.163 314.91 529.969 315.076 529.713C315.242 529.457 315.331 529.153 315.331 528.84C315.331 528.528 315.242 528.223 315.076 527.967C314.91 527.711 314.675 527.517 314.403 527.411L233.362 476.97C232.658 476.578 231.877 476.374 231.084 476.374C230.292 476.374 229.511 476.578 228.806 476.97L169.243 514.16C168.971 514.266 168.736 514.46 168.57 514.716C168.404 514.972 168.315 515.277 168.315 515.589C168.315 515.901 168.404 516.206 168.57 516.462C168.736 516.718 168.971 516.912 169.243 517.019V517.019Z" fill="#FAFAFA"/>
<g opacity="0.2">
<path opacity="0.2" d="M260.656 474.905L304.431 502.292C305.263 502.75 306.184 502.989 307.118 502.989C308.052 502.989 308.973 502.75 309.806 502.292L451.082 414.095C451.408 413.978 451.692 413.753 451.893 413.451C452.094 413.15 452.202 412.788 452.202 412.416C452.202 412.045 452.094 411.683 451.893 411.381C451.692 411.08 451.408 410.855 451.082 410.737L407.328 383.35C406.492 382.892 405.568 382.653 404.63 382.653C403.693 382.653 402.768 382.892 401.932 383.35L260.656 471.547C260.33 471.664 260.046 471.89 259.845 472.191C259.644 472.492 259.536 472.854 259.536 473.226C259.536 473.597 259.644 473.959 259.845 474.261C260.046 474.562 260.33 474.788 260.656 474.905V474.905Z" fill="black"/>
</g>
<path d="M262.167 468.484V467.418C262.223 466.505 262.476 465.619 262.907 464.83C263.337 464.042 263.932 463.374 264.644 462.88L394.353 381.876C395.119 381.452 395.969 381.23 396.83 381.23C397.691 381.23 398.541 381.452 399.307 381.876L439.492 407.016C440.2 407.516 440.792 408.186 441.222 408.973C441.651 409.76 441.907 410.643 441.97 411.555V412.621C441.91 413.533 441.656 414.418 441.226 415.206C440.796 415.993 440.202 416.662 439.492 417.159L309.784 498.163C309.017 498.587 308.168 498.808 307.307 498.808C306.445 498.808 305.596 498.587 304.829 498.163L264.644 473.113C263.926 472.604 263.327 471.92 262.897 471.117C262.467 470.313 262.217 469.411 262.167 468.484Z" fill="#E0E0E0"/>
<path d="M264.645 465.874L304.746 491.015C305.516 491.429 306.364 491.644 307.223 491.644C308.083 491.644 308.931 491.429 309.701 491.015L439.493 410.011C439.789 409.9 440.046 409.691 440.228 409.415C440.41 409.138 440.508 408.807 440.508 408.468C440.508 408.129 440.41 407.798 440.228 407.522C440.046 407.245 439.789 407.037 439.493 406.925L399.224 381.785C398.457 381.36 397.608 381.139 396.747 381.139C395.885 381.139 395.036 381.36 394.269 381.785L264.561 462.788C264.268 462.909 264.016 463.125 263.841 463.408C263.667 463.69 263.578 464.024 263.587 464.364C263.596 464.703 263.703 465.031 263.893 465.302C264.082 465.572 264.345 465.772 264.645 465.874V465.874Z" fill="#FAFAFA"/>
<path d="M371.049 617.808C380.979 606.848 386.816 579.461 377.116 570.771H327.841C318.141 579.461 323.978 606.826 333.908 617.785L334.181 618.103L334.517 618.466L335.42 619.328L335.651 619.532L336.407 620.145C336.827 620.462 337.267 620.757 337.687 621.03C342.277 623.547 347.352 624.859 352.499 624.859C357.647 624.859 362.721 623.547 367.312 621.03V621.03C367.756 620.756 368.183 620.453 368.592 620.122L369.306 619.555L369.6 619.305C369.894 619.033 370.188 618.761 370.461 618.466L370.86 618.057L371.049 617.808Z" fill="#EBEBEB"/>
<path d="M332.04 567.277C320.765 574.288 320.765 585.679 332.04 592.713C343.314 599.747 361.433 599.724 372.791 592.713C384.15 585.701 384.045 574.288 372.791 567.277C361.538 560.266 343.335 560.243 332.04 567.277Z" fill="#FAFAFA"/>
<path d="M340.06 572.246C333.215 576.534 333.215 583.455 340.06 587.72C343.899 589.836 348.148 590.939 352.457 590.939C356.767 590.939 361.016 589.836 364.855 587.72C371.7 583.455 371.7 576.534 364.855 572.246C361.012 570.142 356.765 569.046 352.457 569.046C348.15 569.046 343.903 570.142 340.06 572.246V572.246Z" fill="#EBEBEB"/>
<path d="M364.855 579.597C361.012 577.494 356.765 576.398 352.458 576.398C348.15 576.398 343.903 577.494 340.06 579.597C338.37 580.553 336.927 581.949 335.861 583.659C336.927 585.369 338.37 586.765 340.06 587.721C343.899 589.836 348.148 590.939 352.458 590.939C356.767 590.939 361.016 589.836 364.855 587.721C366.551 586.774 367.997 585.376 369.054 583.659C367.997 581.942 366.551 580.544 364.855 579.597V579.597Z" fill="#E0E0E0"/>
<path d="M341.572 583.659C338.065 579.814 335.05 575.48 332.607 570.771C328.408 562.852 327.694 552.256 329.835 550.94C331.977 549.624 340.69 560.22 340.69 560.22C339.886 555.737 339.576 551.167 339.766 546.606C340.144 539.549 341.719 533.151 343.587 531.857C345.456 530.564 349.655 539.458 351.439 545.902C353.224 552.347 354.295 557.656 354.295 557.656C355.023 552.63 356.097 547.67 357.507 542.817C359.607 536.123 361.706 534.603 363.197 535.283C364.687 535.964 365.737 539.05 366.178 547.967C366.34 552.222 366.214 556.484 365.8 560.719C365.8 560.719 368.886 557.066 372.288 553.526C376.046 549.646 377.641 548.988 378.712 549.851C379.783 550.713 380.077 556.658 374.282 568.003C371.396 573.779 367.699 579.038 363.323 583.591C363.323 583.591 355.282 589.263 341.572 583.659Z" fill="#BA68C8"/>
<path d="M556.688 454.03L567.186 317.344C567.293 315.127 566.867 312.917 565.951 310.929C565.035 308.941 563.66 307.243 561.958 305.999C560.087 305.018 558.029 304.526 555.949 304.566C553.87 304.605 551.828 305.174 549.991 306.226L411.423 392.653C409.597 393.943 408.048 395.642 406.882 397.634C405.716 399.626 404.959 401.866 404.662 404.202L394.165 540.865C394.062 543.079 394.486 545.285 395.398 547.272C396.31 549.258 397.678 550.958 399.371 552.21C401.247 553.188 403.31 553.675 405.393 553.632C407.476 553.589 409.52 553.016 411.36 551.96L549.928 465.556C551.749 464.266 553.295 462.571 554.461 460.583C555.627 458.595 556.386 456.36 556.688 454.03Z" fill="#BA68C8"/>
<path opacity="0.5" d="M556.688 454.03L567.186 317.344C567.293 315.127 566.867 312.917 565.951 310.929C565.035 308.941 563.66 307.243 561.958 305.999C560.087 305.018 558.029 304.526 555.949 304.566C553.87 304.605 551.828 305.174 549.991 306.226L411.423 392.653C409.597 393.943 408.048 395.642 406.882 397.634C405.716 399.626 404.959 401.866 404.662 404.202L394.165 540.865C394.062 543.079 394.486 545.285 395.398 547.272C396.31 549.258 397.678 550.958 399.371 552.21C401.247 553.188 403.31 553.675 405.393 553.632C407.476 553.589 409.52 553.016 411.36 551.96L549.928 465.556C551.749 464.266 553.295 462.571 554.461 460.583C555.627 458.595 556.386 456.36 556.688 454.03Z" fill="white"/>
<path d="M556.688 454.03L567.185 317.344C567.292 315.127 566.867 312.917 565.951 310.929C565.035 308.941 563.659 307.243 561.958 305.999C560.087 305.018 558.028 304.526 555.949 304.566C553.869 304.605 551.828 305.174 549.99 306.226L411.422 392.653C409.591 393.886 408.053 395.564 406.929 397.554L428.449 410.986V541.319L549.927 465.533C551.747 464.246 553.291 462.554 554.456 460.57C555.622 458.586 556.383 456.356 556.688 454.03Z" fill="#BA68C8"/>
<path opacity="0.8" d="M556.688 454.03L567.185 317.344C567.292 315.127 566.867 312.917 565.951 310.929C565.035 308.941 563.659 307.243 561.958 305.999C560.087 305.018 558.028 304.526 555.949 304.566C553.869 304.605 551.828 305.174 549.99 306.226L411.422 392.653C409.591 393.886 408.053 395.564 406.929 397.554L428.449 410.986V541.319L549.927 465.533C551.747 464.246 553.291 462.554 554.456 460.57C555.622 458.586 556.383 456.356 556.688 454.03Z" fill="white"/>
<path d="M405.774 548.148L416.272 411.486C416.567 409.149 417.323 406.909 418.49 404.916C419.656 402.924 421.205 401.225 423.032 399.936L561.6 313.51C565.022 311.377 567.521 313.101 567.206 317.344L556.708 454.03C556.409 456.365 555.651 458.603 554.485 460.595C553.319 462.587 551.772 464.287 549.948 465.579L411.38 551.983C407.957 554.116 405.522 552.391 405.774 548.148Z" fill="#BA68C8"/>
<path opacity="0.65" d="M405.774 548.148L416.272 411.486C416.567 409.149 417.323 406.909 418.49 404.916C419.656 402.924 421.205 401.225 423.032 399.936L561.6 313.51C565.022 311.377 567.521 313.101 567.206 317.344L556.708 454.03C556.409 456.365 555.651 458.603 554.485 460.595C553.319 462.587 551.772 464.287 549.948 465.579L411.38 551.983C407.957 554.116 405.522 552.391 405.774 548.148Z" fill="white"/>
<path d="M477.243 438.488C477.789 431.499 482.324 423.263 487.383 420.086C492.443 416.909 496.117 420.086 495.572 427.007C495.026 433.927 490.512 442.254 485.452 445.431C480.392 448.608 476.718 445.499 477.243 438.488Z" fill="#BA68C8"/>
<path d="M480.496 479.806L514.55 458.432L508.756 454.824L474.723 476.198L480.496 479.806Z" fill="#BA68C8"/>
<g opacity="0.85">
<path opacity="0.85" d="M480.496 479.806L514.55 458.432L508.756 454.824L474.723 476.198L480.496 479.806Z" fill="white"/>
</g>
<path d="M530.339 521.193L488.894 547.06C488.077 547.535 487.155 547.762 486.228 547.718C485.446 547.698 484.679 547.488 483.982 547.105C483.982 547.105 483.982 547.105 483.982 547.105L465.737 535.76H465.632C464.944 535.249 464.374 534.574 463.966 533.787C463.558 533 463.324 532.123 463.28 531.222V530.178C463.28 528.476 464.351 527.773 465.737 528.635L476.759 535.442L479.216 536.985L478.67 533.967L474.807 476.198L480.58 479.829L514.634 458.455L532.291 516.655C532.397 517.533 532.27 518.427 531.924 519.23C531.579 520.033 531.029 520.714 530.339 521.193V521.193Z" fill="#BA68C8"/>
<g opacity="0.5">
<path opacity="0.5" d="M530.339 521.193L488.894 547.06C488.077 547.535 487.155 547.762 486.228 547.718C485.446 547.698 484.679 547.488 483.982 547.105C483.982 547.105 483.982 547.105 483.982 547.105L465.737 535.76H465.632C464.944 535.249 464.374 534.574 463.966 533.787C463.558 533 463.324 532.123 463.28 531.222V530.178C463.28 528.476 464.351 527.773 465.737 528.635L476.759 535.442L479.216 536.985L478.67 533.967L474.807 476.198L480.58 479.829L514.634 458.455L532.291 516.655C532.397 517.533 532.27 518.427 531.924 519.23C531.579 520.033 531.029 520.714 530.339 521.193V521.193Z" fill="white"/>
</g>
<path d="M463.974 528.204L478.103 519.378L480.98 539.958L463.974 528.204Z" fill="#BA68C8"/>
<g opacity="0.25">
<path opacity="0.25" d="M463.974 528.204L478.103 519.378L480.98 539.958L463.974 528.204Z" fill="black"/>
</g>
<path d="M480.496 479.829L474.722 476.198L478.606 533.809C478.921 535.465 478.039 536.078 476.696 535.284L465.673 528.477C464.288 527.614 463.217 528.318 463.217 530.02V531.063C463.26 531.964 463.495 532.842 463.903 533.629C464.31 534.416 464.88 535.091 465.568 535.601H465.673L483.918 546.946C484.615 547.33 485.383 547.539 486.165 547.559L480.496 479.829Z" fill="#BA68C8"/>
<g opacity="0.25">
<path opacity="0.25" d="M480.496 479.829L474.722 476.198L478.606 533.809C478.921 535.465 478.039 536.078 476.696 535.284L465.673 528.477C464.288 527.614 463.217 528.318 463.217 530.02V531.063C463.26 531.964 463.495 532.842 463.903 533.629C464.31 534.416 464.88 535.091 465.568 535.601H465.673L483.918 546.946C484.615 547.33 485.383 547.539 486.165 547.559L480.496 479.829Z" fill="white"/>
</g>
<path opacity="0.2" d="M325.426 517.608L331.809 521.579L382.155 489.722L387.719 482.643L376.129 485.955L325.426 517.608Z" fill="black"/>
<path d="M376.591 481.122L387.32 478.853C387.388 478.841 387.457 478.851 387.519 478.882C387.581 478.914 387.633 478.965 387.667 479.03C387.702 479.094 387.717 479.168 387.711 479.242C387.705 479.316 387.679 479.386 387.635 479.443L380.328 488.338L376.591 481.122Z" fill="#FFA8A7"/>
<path d="M387.635 479.443C387.679 479.386 387.706 479.316 387.711 479.242C387.717 479.168 387.702 479.094 387.668 479.03C387.633 478.965 387.582 478.914 387.52 478.882C387.457 478.851 387.388 478.841 387.32 478.853L385.221 479.284C385.51 479.477 385.744 479.753 385.896 480.082C386.048 480.411 386.112 480.779 386.081 481.145V481.349L387.635 479.443Z" fill="#263238"/>
<path d="M340.438 513.115L341.32 512.57L342.391 511.935L380.329 488.337C380.684 487.065 380.579 485.694 380.035 484.503C379.753 483.679 379.29 482.941 378.687 482.353C378.084 481.764 377.358 481.342 376.571 481.122L338.548 504.697L336.449 505.945C337.898 505.31 341.698 512.366 340.438 513.115Z" fill="#BA68C8"/>
<path d="M343.712 511.073L345.665 509.848C346.232 509.507 345.917 507.987 345.224 506.399C344.342 504.289 342.579 502.247 341.802 502.678L340.374 503.585L339.849 503.903C340.626 503.472 342.39 505.514 343.272 507.624C343.922 509.144 344.258 510.619 343.754 511.028L343.712 511.073Z" fill="#EBEBEB"/>
<path d="M344.196 510.756C345.539 509.984 341.697 502.814 340.333 503.586L338.38 504.811C339.724 504.039 343.566 511.209 342.222 511.981L344.196 510.756Z" fill="#BA68C8"/>
<path d="M340.438 513.115L342.391 511.935C343.713 511.186 340.039 504.243 338.653 504.697L336.701 505.922C337.898 505.309 341.698 512.366 340.438 513.115Z" fill="#EBEBEB"/>
<path opacity="0.15" d="M387.677 479.034L387.32 478.853L379.53 483.391L339.283 508.35C339.283 508.214 339.157 508.214 339.115 508.35C340.248 510.279 341.109 512.706 340.353 513.115L341.235 512.57L342.306 511.935L380.328 488.337L387.614 479.443C387.659 479.388 387.689 479.321 387.7 479.248C387.711 479.176 387.703 479.102 387.677 479.034V479.034Z" fill="black"/>
<path d="M332.144 518.22L340.354 513.115C340.941 512.798 340.627 511.277 339.955 509.712C339.073 507.579 337.309 505.537 336.532 505.945L328.281 511.05C326.644 512.071 328.155 515.929 329.982 517.63C330.244 517.956 330.591 518.187 330.978 518.292C331.364 518.397 331.771 518.373 332.144 518.22V518.22Z" fill="#F28F8F"/>
<path opacity="0.1" d="M332.627 515.453C332.421 514.491 332.01 513.594 331.426 512.834C330.843 512.074 330.104 511.471 329.268 511.073C329.068 510.989 328.85 510.961 328.637 510.993C328.424 511.025 328.222 511.115 328.05 511.255C326.812 512.48 328.239 516.02 329.982 517.631C330.239 517.943 330.575 518.165 330.949 518.27C331.323 518.375 331.717 518.358 332.081 518.221C332.711 517.835 332.942 516.814 332.627 515.453Z" fill="black"/>
<path d="M623.997 94.1644C623.593 93.9224 623.137 93.7974 622.675 93.8014H598.677L588.767 99.9731V137.026L598.677 130.922L607.222 120.258V146.352L617.132 140.18L643.082 110.002C643.331 109.685 643.513 109.312 643.615 108.911C643.717 108.509 643.737 108.088 643.673 107.678C643.609 107.267 643.463 106.877 643.245 106.533C643.027 106.19 642.742 105.903 642.41 105.691L623.997 94.1644Z" fill="#455A64"/>
<path d="M607.264 146.352L617.174 140.18L643.124 110.002C643.455 109.59 643.669 109.084 643.741 108.545C643.813 108.005 643.739 107.454 643.529 106.958C643.318 106.463 642.98 106.043 642.554 105.75C642.129 105.457 641.634 105.302 641.13 105.305H617.174L607.264 111.5V146.352Z" fill="#37474F"/>
<path d="M617.237 74.719C617.061 71.1563 616.109 67.6888 614.46 64.5979C612.812 61.5071 610.512 58.8799 607.747 56.9299V56.9299C604.8 55.3117 601.542 54.4683 598.236 54.4683C594.931 54.4683 591.672 55.3117 588.725 56.9299L516.481 101.629C513.71 103.579 511.404 106.209 509.751 109.304C508.098 112.399 507.146 115.873 506.97 119.441V203.735C507.149 207.3 508.103 210.769 509.756 213.86C511.408 216.951 513.713 219.577 516.481 221.524C519.428 223.142 522.686 223.986 525.992 223.986C529.297 223.986 532.556 223.142 535.503 221.524L608.65 176.144C617.195 170.88 617.279 165.593 617.279 159.036L617.237 74.719Z" fill="#37474F"/>
<path d="M506.97 203.735C507.149 207.3 508.103 210.769 509.756 213.86C511.408 216.951 513.713 219.577 516.481 221.525V221.525C519.163 222.983 522.099 223.813 525.098 223.962C528.097 224.11 531.092 223.574 533.886 222.387C529.414 224.202 525.992 221.434 525.992 215.58V131.286C526.11 127.711 527.071 124.227 528.784 121.166L509.763 109.322C508.055 112.384 507.101 115.868 506.991 119.442L506.97 203.735Z" fill="#263238"/>
<path d="M616.943 71.9284C615.831 67.5492 612.135 66.1651 607.747 68.9106L535.482 113.497C532.667 115.375 530.357 118.02 528.785 121.166L509.889 109.344C511.466 106.196 513.774 103.545 516.586 101.652L588.81 56.9529C591.762 55.3415 595.023 54.502 598.331 54.502C601.639 54.502 604.9 55.3415 607.852 56.9529V56.9529C610.229 58.6518 612.26 60.8556 613.823 63.4302C615.386 66.0048 616.448 68.8962 616.943 71.9284V71.9284Z" fill="#455A64"/>
<path d="M581.083 176.438L564.035 187.08V113.337L581.083 102.695V176.438Z" fill="#BA68C8"/>
<path d="M598.152 116.628V141.201L546.987 173.126V148.553L598.152 116.628Z" fill="#BA68C8"/>
<path d="M771.573 177.868C788.369 178.367 793.135 185.628 803.255 201.261C813.375 216.895 847.807 276.139 847.807 276.139L896.579 296.378L890.154 327.123C890.154 327.123 824.964 315.188 820.702 312.488C816.44 309.788 784.695 253.267 784.695 253.267L771.573 177.868Z" fill="#E6E6E6"/>
<path d="M758.723 178.367C774.596 174.078 781.608 183.654 786.899 194.25C810.938 241.899 820.701 527.795 820.701 527.795C820.701 527.795 767.08 550.916 727.294 523.779L758.723 178.367Z" fill="#F0F0F0"/>
<path d="M809.847 669.767L799.811 711.04C799.811 711.04 788.243 718.415 778.27 711.154C770.355 705.391 770.837 698.561 770.837 698.561L771.299 692.344L772.433 644.354L809.847 669.767Z" fill="#B16668"/>
<path d="M761.558 720.866C758.808 727.469 757.233 746.755 757.233 746.755C757.233 746.755 758.913 753.857 768.046 760.143L776.927 734.639L761.558 720.866Z" fill="#263238"/>
<path d="M768.045 760.233L791.119 756.806L799.895 736.952L773.168 745.529L768.045 760.233Z" fill="black"/>
<path d="M801.554 703.893L802.793 698.856C806.299 699.06 805.984 706.548 806.236 708.726C807.013 714.966 807.601 721.206 808.482 727.423C809.396 734.306 810.879 741.087 812.912 747.685C815.012 753.97 816.23 760.664 819.778 766.223C823.326 771.782 829.562 775.072 834.6 778.816C835.934 779.641 837.037 780.84 837.792 782.287C838.947 785.056 837.33 788.255 835.335 790.365C831.796 793.935 827.337 796.261 822.549 797.036C817.781 797.796 812.936 797.796 808.168 797.036C799.699 796.052 791.59 792.809 784.569 787.597C777.809 782.378 776.339 772.054 775.247 763.704C774.365 756.897 774.911 748.978 772.308 742.602C769.704 736.226 762.272 727.854 761.558 720.956C761.253 715.11 762.399 709.282 764.876 704.074C767.584 698.47 769.536 691.323 771.3 692.344L770.985 696.428C770.985 696.133 772.728 704.279 783.582 707.183C788.684 708.567 798.321 708.522 801.554 703.893Z" fill="#263238"/>
<path d="M785.115 748.593C785.409 756.217 785.115 759.371 785.115 762.82C785.409 769.127 786.963 773.507 788.285 779.633C788.854 782.149 789.656 784.597 790.679 786.939C791.77 789.662 793.807 793.338 792.61 796.015C792.018 797.244 791.204 798.332 790.217 799.215C785.849 803.256 780.212 805.327 774.47 805.001C771.446 804.965 768.486 804.048 765.904 802.346C760.845 798.761 758.85 792.226 756.142 786.712C753.181 780.745 754.903 777.636 754.42 771.079C753.83 762.407 752.786 753.779 751.292 745.235C762.23 731.711 771.426 744.826 785.115 748.593Z" fill="#B16668"/>
<path d="M801.869 371.437C818.266 433.199 845.959 538.164 838.19 570.838C832.312 595.32 806.698 684.72 806.698 684.72C796.809 686.217 776.591 688.6 768.717 669.88C766.723 639.498 759.794 433.199 759.794 433.199L801.869 371.437Z" fill="#BA68C8"/>
<path opacity="0.4" d="M801.869 371.437C818.266 433.199 845.959 538.164 838.19 570.838C832.312 595.32 806.698 684.72 806.698 684.72C796.809 686.217 776.591 688.6 768.717 669.88C766.723 639.498 759.794 433.199 759.794 433.199L801.869 371.437Z" fill="white"/>
<path opacity="0.25" d="M759.879 433.087C770.287 422.457 779.963 411.021 788.831 398.87C788.831 398.87 786.732 413.505 768.067 433.677C768.067 433.677 799.35 563.896 799.161 584.68C798.972 605.464 788.663 679.978 788.663 679.978L759.879 433.087Z" fill="black"/>
<path d="M801.868 371.438C788.494 401.411 783.246 413.392 759.878 433.2C759.878 433.2 788.452 561.536 789.712 586.449C791.812 627.859 786.878 720.548 785.114 748.707C780.684 754.969 759.101 756.036 752.299 750.703C749.191 737.679 738.757 691.845 733.865 650.731C730.254 620.348 734.873 593.166 735.461 585.201C720.323 543.474 686.332 482.574 673.903 438.941C671.864 431.388 670.576 423.622 670.061 415.774C667.289 388.115 677.766 366.99 683.917 352.242L801.868 371.438Z" fill="#BA68C8"/>
<g opacity="0.5">
<path opacity="0.5" d="M801.868 371.438C788.494 401.411 783.246 413.392 759.878 433.2C759.878 433.2 788.452 561.536 789.712 586.449C791.812 627.859 786.878 720.548 785.114 748.707C780.684 754.969 759.101 756.036 752.299 750.703C749.191 737.679 738.757 691.845 733.865 650.731C730.254 620.348 734.873 593.166 735.461 585.201C720.323 543.474 686.332 482.574 673.903 438.941C671.864 431.388 670.576 423.622 670.061 415.774C667.289 388.115 677.766 366.99 683.917 352.242L801.868 371.438Z" fill="white"/>
</g>
<path d="M748.982 791.999C747.323 798.987 748.835 818.251 748.835 818.251C748.835 818.251 751.585 824.922 761.558 829.438L766.282 802.709L748.982 791.999Z" fill="#263238"/>
<path d="M761.558 829.437L783.729 821.791L789.209 800.666L764.287 814.008L761.558 829.437Z" fill="black"/>
<path d="M785.031 767.835L785.199 762.82C788.18 764.431 794.584 790.593 803.359 808.609C811.38 825.037 827.462 834.294 832.648 841.464C839.576 851.062 825.845 863.201 803.989 857.937C793.156 855.305 776.696 847.636 772.371 839.672C768.046 831.707 766.576 817.14 762.986 811.286C759.396 805.432 750.767 798.648 748.982 792C747.59 785.98 747.655 779.674 749.171 773.689C750.935 767.676 750.851 761.504 753.643 761.005L754.063 765.724C755.512 768.969 761.18 772.69 772.224 773.462C777.493 773.802 782.595 773.053 785.031 767.835Z" fill="#37474F"/>
<path d="M746.357 126.701L735.335 166.976C704.682 166.976 685.744 134.711 685.744 101.583C685.744 68.3192 705.354 40.5238 736.133 40.5238H746.127C776.905 40.5238 801.869 62.6013 801.869 95.8878C801.869 117.557 777.01 126.701 746.357 126.701Z" fill="#263238"/>
<path d="M807.621 65.1203C809.974 60.9674 811.109 56.1422 810.876 51.2793C810.729 48.8461 810.073 46.4808 808.956 44.3621C807.839 42.2433 806.292 40.4266 804.43 39.0493C798.698 35.1012 790.762 36.9618 785.534 41.5225C785.109 37.1897 783.14 33.2058 780.044 30.4148C776.948 27.6238 772.969 26.2447 768.948 26.5697C763.846 27.0008 759.312 30.064 754.903 32.8322C747.396 36.9445 739.294 39.6381 730.947 40.7964L740.332 44.6991C739.056 46.8219 738.245 49.2313 737.961 51.7439C737.678 54.2566 737.928 56.806 738.694 59.1981C739.097 60.179 739.589 61.1139 740.164 61.989C746.394 72.0604 754.999 80.1522 765.089 85.4293C775.18 90.7064 786.391 92.9774 797.565 92.0081C800.698 91.9351 803.762 90.9978 806.467 89.2853C808.044 88.0726 809.379 86.5293 810.393 84.7472C812.353 81.65 813.319 77.9437 813.143 74.1963C813.02 72.2988 812.447 70.4675 811.48 68.8781C810.513 67.2887 809.184 65.9947 807.621 65.1203V65.1203Z" fill="#263238"/>
<path d="M722.423 183.109L702.33 185.378C688.998 188.895 682.973 195.248 681.608 208.068C680.978 214.013 677.64 229.85 682.301 249.704C686.5 267.675 697.795 311.671 697.795 311.671C697.795 311.671 683.204 351.22 676.359 371.437C723.766 404.859 782.28 391.654 801.932 371.437C800.273 352.332 794.016 334.52 792.61 317.48C792.61 317.48 793.617 290.841 795.57 279.292C810.582 261.617 808.65 244.69 801.869 231.053C789.439 205.844 770.691 183.721 764.644 183.744L722.423 183.109Z" fill="#455A64"/>
<path d="M758.451 168.791C764.455 170.38 769.137 173.012 771.573 177.867C774.008 182.723 793.009 215.056 793.009 215.056C793.009 215.056 777.682 193.251 766.135 186.648C763.778 185.161 761.162 184.219 758.451 183.88V168.791Z" fill="#E0E0E0"/>
<path d="M722.423 183.109C722.423 183.109 743.418 230.418 747.155 262.343C750.893 294.268 742.956 403.181 742.956 437.738C742.956 479.397 743.082 548.148 743.082 548.148C743.082 548.148 719.127 548.148 702.667 543.066C690.636 539.367 676.381 532.719 667.752 521.578C667.752 521.578 665.4 436.308 670.355 395.693C675.037 357.12 694.038 309.607 694.038 309.607L669.683 209.271C669.683 209.271 670.817 192.026 685.829 187.193C700.042 182.565 722.423 183.109 722.423 183.109Z" fill="#FAFAFA"/>
<path d="M702.667 203.757L677.809 243.079L693.954 309.561C693.954 309.561 678.964 343.756 673.442 376.86C688.411 331.094 701.932 317.367 701.932 317.367L693.156 278.657C693.156 278.657 696.243 266.473 700.547 245.689C704.851 224.905 704.137 212.856 702.667 203.757Z" fill="#EBEBEB"/>
<path d="M716.251 240.833C716.251 238.859 716.083 234.593 715.768 229.193C714.214 202.849 713.501 179.025 721.731 177.005L722.466 180.636C716.44 182.043 718.435 216.055 719.19 228.852C719.526 234.366 719.778 238.7 719.694 240.878L716.251 240.833Z" fill="#BA68C8"/>
<path d="M722.423 168.791C720.891 168.8 719.391 169.262 718.085 170.125C716.779 170.989 715.716 172.223 715.011 173.692C713.038 177.323 708.881 183.426 708.881 183.426C708.881 183.426 708.734 207.614 710.98 213.899C712.912 219.345 736.636 239.516 736.636 239.516C736.636 239.516 734.327 260.868 734.138 268.333C733.949 275.798 746.126 302.867 747.617 317.366C747.617 317.366 750.136 282.151 748.163 265.792C744.699 237.316 728.259 194.726 722.423 183.063V168.791Z" fill="#EBEBEB"/>
<path d="M711.274 328.939H710.98V326.352C713.831 326.095 716.562 324.996 718.875 323.176C716.407 321.4 714.199 319.236 712.324 316.754C708.44 311.331 699.958 272.645 702.582 263.637C704.682 256.081 711.631 239.404 717.762 239.131H717.909C724.018 239.131 732.039 254.878 734.81 262.139C738.127 270.898 732.71 310.22 729.267 315.96C727.6 318.614 725.568 320.978 723.242 322.971C725.676 324.596 728.485 325.446 731.346 325.422L731.64 327.986C727.914 328.054 724.256 326.908 721.142 324.696C718.288 327.086 714.868 328.557 711.274 328.939ZM718.014 241.695C714.424 241.854 707.978 254.22 705.039 264.385C702.624 272.667 710.791 310.106 714.382 315.143C716.29 317.637 718.55 319.788 721.079 321.519C723.513 319.563 725.64 317.195 727.378 314.508C730.569 309.176 735.776 271.124 732.689 263.092C728.952 253.449 721.625 241.695 718.014 241.695Z" fill="#455A64"/>
<path d="M735.146 326.51C735.175 327.263 734.996 328.009 734.633 328.652C734.269 329.295 733.738 329.808 733.105 330.125C732.472 330.441 731.767 330.548 731.078 330.432C730.389 330.316 729.747 329.981 729.234 329.471C728.721 328.961 728.359 328.298 728.195 327.565C728.03 326.833 728.07 326.064 728.31 325.356C728.549 324.649 728.977 324.033 729.54 323.589C730.103 323.144 730.776 322.889 731.472 322.857C732.406 322.82 733.316 323.183 734.004 323.867C734.692 324.551 735.103 325.501 735.146 326.51Z" fill="#263238"/>
<path d="M714.55 327.463C714.578 328.216 714.4 328.962 714.036 329.605C713.673 330.248 713.141 330.761 712.509 331.078C711.876 331.394 711.17 331.501 710.481 331.385C709.792 331.269 709.151 330.934 708.638 330.424C708.124 329.914 707.763 329.251 707.598 328.518C707.434 327.786 707.474 327.017 707.713 326.31C707.953 325.602 708.381 324.987 708.944 324.542C709.507 324.097 710.179 323.842 710.876 323.81C711.339 323.789 711.802 323.867 712.237 324.039C712.673 324.211 713.073 324.474 713.414 324.814C713.755 325.153 714.031 325.562 714.226 326.016C714.421 326.471 714.531 326.963 714.55 327.463V327.463Z" fill="#263238"/>
<path d="M735.482 279.179L733.382 279.02C733.279 279.014 733.178 278.986 733.085 278.937C732.993 278.887 732.91 278.818 732.844 278.733C732.777 278.648 732.727 278.549 732.696 278.442C732.666 278.336 732.657 278.223 732.668 278.112C733.067 270.851 732.857 265.497 732.039 263.364C728.469 253.97 721.121 242.216 717.909 242.353C714.697 242.489 708.272 254.9 705.459 264.589C704.829 266.858 705.018 272.145 706.005 279.338C706.035 279.56 705.984 279.786 705.863 279.968C705.741 280.15 705.558 280.274 705.354 280.313L703.254 280.654C703.149 280.669 703.042 280.663 702.94 280.633C702.838 280.604 702.742 280.553 702.658 280.484C702.573 280.414 702.503 280.327 702.451 280.228C702.398 280.128 702.364 280.018 702.351 279.905C701.239 271.827 701.113 266.291 701.931 263.409C703.443 258.236 710.519 238.79 717.657 238.45C724.795 238.11 733.382 256.852 735.293 261.889C736.343 264.657 736.657 270.193 736.175 278.362C736.166 278.564 736.092 278.757 735.966 278.906C735.839 279.056 735.668 279.152 735.482 279.179V279.179Z" fill="#BA68C8"/>
<path d="M652.719 476.946C656.372 480.645 658.367 485.614 662.125 492.966C665.883 500.317 684.422 501.021 685.891 480.35C687.004 464.784 681.965 459.52 671.867 447.404C661.264 434.652 657.17 432.564 657.653 420.743C657.926 414.911 666.051 330.504 666.051 330.504L692.778 250.93C692.778 250.93 702.436 213.741 697.586 187.828C697.586 187.828 680.265 186.308 668.024 199.514C653.727 214.943 637.539 291.227 633.97 306.634C628.828 326.156 626.582 346.435 627.315 366.718C628.155 391.472 628.239 443.206 631.283 454.619C634.327 466.032 642.872 466.985 652.719 476.946Z" fill="#B16668"/>
<path d="M698.783 184.402C698.783 184.402 680.37 183.154 669.599 192.684C658.829 202.214 652.131 228.852 644.216 255.468C636.301 282.083 629.247 308.018 626.643 326.67C624.544 342.28 628.743 424.691 628.743 424.691C628.743 424.691 641.004 429.501 657.653 420.743L667.962 330.595L698.825 240.107C704.514 222.045 704.499 202.454 698.783 184.402V184.402Z" fill="#F0F0F0"/>
<path d="M770.523 70.929C784.548 72.4946 796.263 88.6046 795.486 125.158C794.814 156.153 785.513 163.732 780.789 166.001C776.066 168.27 767.122 168.565 758.388 166.976V183.88C758.388 183.88 768.465 207.887 764.182 216.464C740.269 205.799 722.423 183.109 722.423 183.109V144.808C722.423 144.808 716.523 152.364 706.865 145.443C697.208 138.523 696.83 121.346 702.456 115.175C708.083 109.003 720.176 110.977 722.423 119.486C722.423 119.486 730.821 119.259 746.294 107.347C758.068 98.6486 766.642 85.7602 770.523 70.929V70.929Z" fill="#B16668"/>
<path d="M756.54 113.268C756.586 113.824 756.528 114.384 756.371 114.915C756.213 115.447 755.958 115.938 755.621 116.361C755.285 116.784 754.873 117.13 754.411 117.379C753.948 117.627 753.444 117.772 752.929 117.806C752.143 117.881 751.354 117.701 750.663 117.289C749.972 116.877 749.41 116.252 749.05 115.493C748.689 114.734 748.547 113.877 748.639 113.03C748.732 112.183 749.057 111.385 749.571 110.738C750.086 110.092 750.767 109.625 751.528 109.399C752.289 109.173 753.095 109.198 753.843 109.469C754.592 109.741 755.248 110.247 755.728 110.924C756.209 111.601 756.491 112.417 756.54 113.268V113.268Z" fill="#263238"/>
<path d="M760.572 142.267L771.951 146.192C771.746 147.015 771.39 147.784 770.904 148.454C770.418 149.124 769.812 149.681 769.122 150.092C768.432 150.503 767.673 150.759 766.889 150.845C766.105 150.932 765.313 150.846 764.561 150.594C763.035 150.023 761.77 148.841 761.028 147.291C760.286 145.742 760.122 143.943 760.572 142.267V142.267Z" fill="#9A4A4D"/>
<path d="M790.363 103.694L782.637 97.9077C782.962 97.3454 783.39 96.8606 783.894 96.4828C784.398 96.1051 784.968 95.8423 785.569 95.7107C786.171 95.579 786.79 95.5812 787.391 95.7171C787.991 95.8529 788.56 96.1197 789.062 96.5009C790.097 97.2857 790.81 98.473 791.053 99.814C791.296 101.155 791.049 102.545 790.363 103.694Z" fill="#263238"/>
<path d="M787.634 112.475C787.641 113.285 787.428 114.079 787.021 114.759C786.614 115.439 786.031 115.974 785.344 116.299C784.658 116.623 783.898 116.723 783.16 116.584C782.422 116.446 781.737 116.076 781.192 115.521C780.647 114.965 780.264 114.249 780.093 113.461C779.921 112.673 779.968 111.847 780.227 111.087C780.486 110.328 780.946 109.667 781.55 109.187C782.154 108.708 782.875 108.431 783.623 108.391C784.135 108.373 784.645 108.464 785.124 108.66C785.603 108.856 786.042 109.152 786.415 109.531C786.787 109.911 787.087 110.367 787.296 110.872C787.505 111.377 787.62 111.922 787.634 112.475V112.475Z" fill="#263238"/>
<path d="M768.255 110.115L768.864 134.938L780.957 130.899L768.255 110.115Z" fill="#9A4A4D"/>
<path d="M758.451 166.976C749.213 165.683 730.254 158.104 727.294 149.981C728.478 154.086 730.801 157.698 733.949 160.328C739.618 165.592 758.451 171.491 758.451 171.491V166.976Z" fill="#9A4A4D"/>
<path d="M912.661 265.882L821.374 312.828L796.263 430.227L798.3 432.564L885.073 385.391L914.697 268.219L912.661 265.882Z" fill="#BA68C8"/>
<path opacity="0.35" d="M823.431 315.188L798.3 432.564L796.263 430.227L821.374 312.828L823.431 315.188Z" fill="black"/>
<path opacity="0.25" d="M914.697 268.22L823.431 315.188L798.3 432.564L885.073 385.392L914.697 268.22Z" fill="black"/>
<g opacity="0.2">
<path opacity="0.2" d="M871.615 361.522C872.455 363.791 879.446 368.919 889.587 368.011L891.288 361.204L871.615 361.522Z" fill="black"/>
</g>
<g opacity="0.1">
<path opacity="0.1" d="M887.193 292.272L887.949 288.346C888.369 286.077 883.015 287.303 875.981 290.888L862.545 297.695C855.511 301.28 849.486 305.954 849.066 308.132L848.31 312.057L887.193 292.272Z" fill="black"/>
</g>
<path d="M892.736 273.87C893.009 272.509 890.825 272.667 887.886 274.233L882.574 277.047C882.574 277.047 884.149 268.538 872.329 274.097C860.508 279.656 857.947 289.481 857.947 289.481L852.257 292.544C849.108 294.223 846.274 296.719 845.959 298.08L845.287 300.576L892.295 276.411C892.295 276.411 892.484 275.231 892.736 273.87Z" fill="#37474F"/>
<path d="M887.74 282.016C883.436 284.126 881.63 285.17 881 288.528C880.265 292.34 879.971 295.108 879.971 295.108L859.144 305.818C859.144 305.818 860.152 300.962 860.467 299.011C860.782 297.059 860.089 296.197 856.772 297.922L855.47 293.973L889.062 277.047L887.74 282.016Z" fill="#37474F"/>
<path d="M888.411 292.34C888.411 292.34 888.747 290.57 889.167 288.415C889.587 286.259 884.233 287.371 877.2 290.956L863.742 297.763C856.73 301.348 850.704 306.022 850.284 308.2L849.528 312.126L888.411 292.34Z" fill="#37474F"/>
<path d="M904.536 308.381C904.536 308.381 901.303 321.269 900.463 324.514C899.623 327.759 884.674 335.224 877.179 336.245C862.86 338.173 861.244 341.532 864.687 352.514C867.857 362.633 877.179 366.468 890.112 364.812C896.159 364.04 904.536 358.232 907.832 348.089C912.031 335.156 909.764 321.315 911.422 313.759C913.081 306.203 908.189 303.889 904.536 308.381Z" fill="#B16668"/>
<path d="M82.1122 175.599L86.3742 178.254L192.925 111.771L188.663 109.117L82.1122 175.599Z" fill="#455A64"/>
<path d="M188.663 109.117L86.3746 172.945V77.1243L188.663 13.2969V109.117Z" fill="#BA68C8"/>
<g opacity="0.8">
<path opacity="0.8" d="M188.663 109.117L86.3748 172.945V77.1243L188.663 13.2969V109.117Z" fill="white"/>
</g>
<path d="M197.186 2.65527L82.1954 74.4469V186.241L197.27 114.427L197.186 2.65527ZM192.987 111.772L86.3945 178.254V77.1243L192.924 10.6649L192.987 111.772Z" fill="#37474F"/>
<path d="M192.925 111.771L188.663 109.117V13.2962L192.925 10.6188V111.771Z" fill="#263238"/>
<path d="M197.186 2.65475L192.924 0L77.8497 71.7916L82.1117 74.4464L197.186 2.65475Z" fill="#455A64"/>
<path d="M77.8497 71.7913L82.1117 74.446V186.24L77.8497 183.586V71.7913Z" fill="#263238"/>
<path d="M168.592 93.0068C172.581 90.5109 175.793 92.5303 175.793 97.5448C175.659 100.242 174.937 102.868 173.686 105.206C172.434 107.544 170.689 109.53 168.592 111C164.624 113.473 161.411 111.477 161.411 106.462C161.546 103.767 162.266 101.145 163.514 98.8072C164.761 96.4695 166.501 94.4823 168.592 93.0068V93.0068Z" fill="#BA68C8"/>
<path opacity="0.2" d="M110.455 72.7448L164.623 38.9365C166.134 37.9835 167.352 38.755 167.352 40.6156V40.7971C167.302 41.8205 167.029 42.8167 166.555 43.7041C166.08 44.5915 165.418 45.3448 164.623 45.9024L110.455 79.7561C108.964 80.7091 107.726 79.9376 107.726 78.0543V77.8501C107.784 76.8288 108.06 75.8359 108.534 74.9499C109.007 74.0639 109.665 73.309 110.455 72.7448V72.7448Z" fill="black"/>
<g opacity="0.2">
<path opacity="0.2" d="M101.89 99.3832L173.273 54.9105C174.785 53.9575 176.003 54.3887 176.003 55.8635C175.894 56.7695 175.59 57.6353 175.116 58.3918C174.642 59.1483 174.011 59.7744 173.273 60.22L101.89 104.738C100.399 105.691 99.1814 105.26 99.2024 103.762C99.3114 102.859 99.6103 101.995 100.076 101.236C100.542 100.477 101.162 99.8431 101.89 99.3832V99.3832Z" fill="black"/>
<path opacity="0.2" d="M101.89 110.025L173.273 65.5291C174.785 64.5989 176.003 65.03 176.003 66.4821C175.892 67.3905 175.588 68.2588 175.115 69.0187C174.641 69.7785 174.011 70.4093 173.273 70.8613L101.89 115.379C100.399 116.31 99.1814 115.879 99.2024 114.404C99.3083 113.5 99.606 112.634 100.072 111.874C100.538 111.115 101.16 110.482 101.89 110.025Z" fill="black"/>
<path opacity="0.2" d="M101.89 120.644L173.273 76.1482C174.785 75.2179 176.003 75.649 176.003 77.1239C175.894 78.0299 175.59 78.8957 175.116 79.6522C174.642 80.4087 174.011 81.0348 173.273 81.4804L101.89 125.998C100.399 126.951 99.1814 126.498 99.2024 125.023C99.3114 124.12 99.6103 123.255 100.076 122.496C100.542 121.737 101.162 121.103 101.89 120.644V120.644Z" fill="black"/>
</g>
<path opacity="0.3" d="M155.805 115.742C155.254 116.057 154.644 116.235 154.021 116.264C152.488 116.264 152.635 114.585 152.677 113.428C152.677 112.906 152.026 112.089 151.69 112.792C150.767 114.585 149.591 116.264 148.583 118.011C147.974 119.077 146.819 121.505 145.35 121.165C144.762 121.029 144.552 120.325 144.552 119.44C145.293 117.971 145.622 116.299 145.497 114.63C145.497 114.131 144.657 113.518 144.426 114.199C143.894 115.648 143.582 117.181 143.502 118.737C142.821 120.032 142.049 121.268 141.193 122.436C140.689 123.139 140.269 123.933 139.723 124.705C139.576 124.863 139.324 125.272 139.114 125.294C138.904 125.317 138.673 125.068 138.61 124.705C138.584 124.171 138.663 123.637 138.841 123.139V123.139C138.841 123.139 138.841 123.139 138.841 123.003C138.841 122.481 138.211 121.709 137.959 122.367C137.018 125.145 135.593 127.703 133.76 129.901L133.488 130.15C133.488 129.833 133.488 129.538 133.488 129.22C133.461 128.511 133.348 127.809 133.152 127.132C133.026 126.792 132.48 126.27 132.186 126.724C130.882 129.287 129.288 131.665 127.441 133.803C127.13 134.079 126.8 134.33 126.454 134.552C126.118 134.371 126.622 132.487 126.706 132.283C126.895 131.443 127.147 130.627 127.399 129.81C127.66 129.155 127.851 128.47 127.966 127.768C127.966 127.132 127.063 126.157 126.874 127.019C126.874 127.359 126.517 128.199 126.223 129.288C125.005 131.724 123.622 134.06 122.087 136.277C120.709 138.677 118.796 140.667 116.523 142.063C115.894 142.426 114.697 142.97 114.004 142.426C113.311 141.881 113.374 140.951 113.353 140.157C113.326 138.353 113.552 136.555 114.025 134.824C116.262 133.545 118.337 131.959 120.198 130.105C122.024 128.526 123.605 126.642 124.879 124.523C125.509 123.275 125.887 121.256 124.355 120.552C123.284 120.053 121.919 120.87 121.016 121.414C119.777 122.208 118.652 123.194 117.678 124.341C115.704 126.766 114.268 129.645 113.479 132.76C113.353 133.236 113.164 133.871 112.996 134.575C110.578 135.914 107.835 136.414 105.144 136.004C104.997 136.004 104.934 136.345 105.144 136.367C107.72 136.964 110.404 136.687 112.828 135.573C112.135 138.795 111.758 143.061 114.529 143.9C117.3 144.74 120.659 140.973 122.15 138.795C123.292 137.168 124.29 135.428 125.131 133.599C125.208 133.465 125.292 133.336 125.383 133.213C125.383 134.711 125.656 135.8 127.021 135.482C128.386 135.165 129.624 133.213 130.38 132.011C131.136 130.808 131.745 129.742 132.48 128.675C132.606 130.037 132.816 131.557 134.012 131.307C135.209 131.058 136.112 128.811 136.742 127.904C137.372 126.996 137.687 126.316 138.085 125.499C138.169 125.648 138.26 125.791 138.358 125.93C139.345 127.064 140.458 125.93 141.172 124.931C142.075 123.661 143.082 122.299 143.943 120.847C144.148 121.471 144.57 121.984 145.119 122.277C146.651 123.048 148.079 121.687 148.961 120.484C150.032 118.904 150.987 117.235 151.816 115.492C151.879 115.822 152.005 116.133 152.185 116.407C152.366 116.68 152.598 116.91 152.866 117.081C153.431 117.389 154.061 117.528 154.693 117.484C155.324 117.44 155.933 117.215 156.456 116.831C156.75 116.581 156.309 115.47 155.805 115.742ZM122.444 122.186C123.137 121.8 124.544 121.142 124.691 122.436C124.594 123.282 124.257 124.075 123.725 124.705C122.51 126.472 121.1 128.072 119.526 129.469C117.922 131.067 116.186 132.503 114.34 133.758C114.882 131.33 115.881 129.05 117.275 127.059C118.67 125.067 120.429 123.409 122.444 122.186Z" fill="black"/>
<path d="M250.074 175.599L254.336 178.254L360.887 111.771L356.625 109.117L250.074 175.599Z" fill="#455A64"/>
<path d="M356.624 109.117L254.336 172.945V77.1243L356.624 13.2969V109.117Z" fill="#BA68C8"/>
<g opacity="0.8">
<path opacity="0.8" d="M356.624 109.117L254.336 172.945V77.1243L356.624 13.2969V109.117Z" fill="white"/>
</g>
<path d="M365.148 2.65527L250.157 74.4469V186.241L365.232 114.427L365.148 2.65527ZM360.949 111.772L254.357 178.254V77.1243L360.886 10.6649L360.949 111.772Z" fill="#37474F"/>
<path d="M360.886 111.771L356.624 109.117V13.2962L360.886 10.6188V111.771Z" fill="#263238"/>
<path d="M365.148 2.65475L360.886 0L245.812 71.7916L250.074 74.4464L365.148 2.65475Z" fill="#455A64"/>
<path d="M245.812 71.7913L250.074 74.446V186.24L245.812 183.586V71.7913Z" fill="#263238"/>
<path d="M336.574 93.0068C340.542 90.5109 343.754 92.5303 343.754 97.5448C343.619 100.24 342.899 102.862 341.652 105.2C340.404 107.537 338.664 109.525 336.574 111C332.585 113.473 329.372 111.477 329.372 106.462C329.506 103.765 330.228 101.139 331.48 98.8009C332.731 96.4625 334.477 94.4771 336.574 93.0068V93.0068Z" fill="#BA68C8"/>
<path opacity="0.2" d="M278.418 72.7448L332.606 38.9365C334.097 37.9835 335.315 38.755 335.315 40.6156V40.7971C335.266 41.8181 334.995 42.8123 334.524 43.6992C334.054 44.5862 333.397 45.3409 332.606 45.9024L278.418 79.7561C276.927 80.7091 275.709 79.9376 275.709 78.0543V77.8501C275.763 76.8304 276.036 75.8381 276.506 74.952C276.976 74.0659 277.631 73.3102 278.418 72.7448V72.7448Z" fill="black"/>
<g opacity="0.2">
<path opacity="0.2" d="M269.852 99.3832L341.236 54.9105C342.747 53.9575 343.965 54.3887 343.965 55.8635C343.856 56.7695 343.553 57.6353 343.079 58.3918C342.605 59.1483 341.973 59.7744 341.236 60.22L269.852 104.738C268.361 105.691 267.144 105.26 267.165 103.762C267.274 102.859 267.572 101.995 268.038 101.236C268.504 100.477 269.124 99.8431 269.852 99.3832V99.3832Z" fill="black"/>
<path opacity="0.2" d="M269.852 110.025L341.236 65.5291C342.747 64.5989 343.965 65.03 343.965 66.4821C343.854 67.3905 343.55 68.2588 343.077 69.0187C342.603 69.7785 341.973 70.4093 341.236 70.8613L269.852 115.379C268.361 116.31 267.144 115.879 267.165 114.404C267.27 113.5 267.568 112.634 268.034 111.874C268.5 111.115 269.122 110.482 269.852 110.025Z" fill="black"/>
<path opacity="0.2" d="M269.852 120.644L341.236 76.1482C342.747 75.2179 343.965 75.649 343.965 77.1239C343.856 78.0299 343.553 78.8957 343.079 79.6522C342.605 80.4087 341.973 81.0348 341.236 81.4804L269.852 125.998C268.361 126.951 267.144 126.498 267.165 125.023C267.274 124.12 267.572 123.255 268.038 122.496C268.504 121.737 269.124 121.103 269.852 120.644V120.644Z" fill="black"/>
</g>
<path opacity="0.3" d="M323.767 115.742C323.218 116.062 322.607 116.241 321.983 116.264C320.471 116.264 320.597 114.585 320.639 113.428C320.639 112.906 319.988 112.089 319.652 112.792C318.729 114.585 317.553 116.264 316.545 118.011C315.957 119.077 314.781 121.505 313.333 121.165C312.724 121.029 312.514 120.325 312.514 119.44C313.255 117.971 313.584 116.299 313.459 114.63C313.459 114.131 312.64 113.518 312.388 114.199C311.856 115.648 311.544 117.181 311.464 118.737C310.783 120.032 310.011 121.268 309.155 122.436C308.672 123.139 308.231 123.933 307.685 124.705C307.559 124.863 307.286 125.272 307.076 125.294C306.866 125.317 306.635 125.068 306.572 124.705C306.546 124.171 306.625 123.637 306.803 123.139V123.139C306.812 123.094 306.812 123.048 306.803 123.003V123.003C306.803 122.481 306.173 121.709 305.922 122.367C304.98 125.145 303.555 127.703 301.722 129.901L301.45 130.15C301.45 129.833 301.45 129.538 301.45 129.22C301.423 128.511 301.31 127.809 301.114 127.132C300.988 126.792 300.442 126.27 300.148 126.724C298.851 129.292 297.257 131.671 295.403 133.803C295.096 134.085 294.765 134.335 294.416 134.552C294.101 134.371 294.605 132.487 294.668 132.283C294.857 131.443 295.109 130.627 295.361 129.81C295.622 129.155 295.813 128.47 295.928 127.768C295.928 127.132 295.025 126.157 294.836 127.019C294.836 127.359 294.479 128.199 294.185 129.288C292.974 131.728 291.591 134.065 290.049 136.277C288.671 138.677 286.758 140.667 284.485 142.062C283.856 142.426 282.659 142.97 281.966 142.426C281.273 141.881 281.357 140.951 281.315 140.157C281.309 138.354 281.535 136.559 281.987 134.824C284.224 133.545 286.299 131.959 288.16 130.105C289.991 128.532 291.573 126.647 292.842 124.523C293.471 123.275 293.849 121.256 292.317 120.552C291.246 120.053 289.881 120.87 288.978 121.414C287.722 122.175 286.576 123.13 285.577 124.251C283.603 126.675 282.167 129.554 281.378 132.669C281.252 133.145 281.063 133.781 280.895 134.484C278.477 135.824 275.734 136.323 273.043 135.913C272.896 135.913 272.833 136.254 273.043 136.277C275.619 136.874 278.303 136.596 280.727 135.482C280.034 138.704 279.657 142.97 282.428 143.81C285.199 144.649 288.559 140.883 290.049 138.704C291.191 137.077 292.189 135.337 293.03 133.508C293.107 133.374 293.192 133.246 293.282 133.123C293.282 134.62 293.555 135.709 294.92 135.392C296.285 135.074 297.523 133.123 298.3 131.92C299.077 130.717 299.644 129.651 300.4 128.585C300.526 129.946 300.757 131.466 301.932 131.217C303.108 130.967 304.032 128.721 304.662 127.813C305.292 126.905 305.607 126.225 306.006 125.408C306.089 125.557 306.18 125.701 306.278 125.839C307.265 126.974 308.378 125.839 309.092 124.841C309.995 123.57 311.002 122.209 311.863 120.756C312.068 121.38 312.49 121.893 313.039 122.186C314.572 122.957 315.999 121.596 316.881 120.393C317.952 118.813 318.907 117.144 319.736 115.402C319.799 115.731 319.925 116.042 320.105 116.316C320.286 116.59 320.518 116.819 320.786 116.99C321.351 117.298 321.981 117.437 322.613 117.393C323.244 117.349 323.853 117.124 324.376 116.74C324.733 116.581 324.271 115.47 323.767 115.742ZM290.406 122.186C291.12 121.8 292.506 121.142 292.653 122.436C292.555 123.277 292.225 124.067 291.708 124.705C290.487 126.466 289.077 128.065 287.509 129.469C285.905 131.067 284.169 132.503 282.323 133.758C282.862 131.332 283.858 129.053 285.249 127.062C286.64 125.071 288.395 123.411 290.406 122.186V122.186Z" fill="black"/>
</svg>
