<svg width="1000" height="1000" viewBox="0 0 1000 1000" fill="none" xmlns="http://www.w3.org/2000/svg">
<path d="M500 1000C776.142 1000 1000 876.913 1000 725.078C1000 573.243 776.142 450.157 500 450.157C223.858 450.157 0 573.243 0 725.078C0 876.913 223.858 1000 500 1000Z" fill="#FAFAFA"/>
<path d="M785.047 902.555C860.284 902.555 921.275 862.09 921.275 812.174C921.275 762.259 860.284 721.794 785.047 721.794C709.81 721.794 648.819 762.259 648.819 812.174C648.819 862.09 709.81 902.555 785.047 902.555Z" fill="#E0E0E0"/>
<path d="M461.664 649.998L374.372 595.887C372.923 595.089 371.318 594.673 369.69 594.673C368.061 594.673 366.456 595.089 365.008 595.887L75.6871 775.32C75.1202 775.523 74.6271 775.913 74.2777 776.434C73.9283 776.955 73.7404 777.58 73.7404 778.222C73.7404 778.864 73.9283 779.49 74.2777 780.011C74.6271 780.532 75.1202 780.922 75.6871 781.125L162.959 835.259C164.413 836.039 166.016 836.445 167.641 836.445C169.266 836.445 170.869 836.039 172.323 835.259L198.11 819.262L435.855 672.227L461.685 655.915C462.269 655.713 462.778 655.317 463.138 654.783C463.498 654.25 463.691 653.607 463.689 652.948C463.686 652.289 463.489 651.648 463.125 651.118C462.761 650.588 462.249 650.195 461.664 649.998V649.998Z" fill="#E0E0E0"/>
<path d="M854.072 778.56L840.581 770.865C840.581 770.865 841.901 700.127 855.56 645.341C869.553 589.249 910.277 527.286 948.76 550.505C987.242 573.725 918.845 621.446 898.274 667.503C877.702 713.559 854.072 778.56 854.072 778.56Z" fill="#BA68C8"/>
<path opacity="0.15" d="M854.072 778.56L840.581 770.865C840.581 770.865 841.901 700.127 855.56 645.341C869.553 589.249 910.277 527.286 948.76 550.505C987.242 573.725 918.845 621.446 898.274 667.503C877.702 713.559 854.072 778.56 854.072 778.56Z" fill="black"/>
<path d="M852.292 761.776C852.113 761.77 851.937 761.726 851.774 761.647C851.611 761.568 851.463 761.456 851.341 761.316C851.218 761.176 851.123 761.011 851.059 760.831C850.996 760.652 850.966 760.46 850.972 760.268C853.863 650.493 898.546 583.467 935.939 559.438C936.25 559.238 936.623 559.179 936.974 559.274C937.326 559.369 937.628 559.61 937.814 559.944C938 560.278 938.055 560.678 937.967 561.056C937.878 561.433 937.654 561.758 937.343 561.958C900.536 585.605 856.565 651.753 853.695 760.336C853.693 760.53 853.654 760.721 853.582 760.899C853.509 761.077 853.405 761.238 853.274 761.372C853.144 761.506 852.989 761.61 852.821 761.68C852.652 761.749 852.472 761.782 852.292 761.776V761.776Z" fill="white"/>
<path d="M860.168 781.935L848.123 775.298C848.123 775.298 849.61 740.559 874.392 695.29C896.388 655.083 940.967 623.584 959.695 634.811C974.233 643.496 977.585 662.531 963.654 675.198C949.723 687.865 885.411 714.437 860.168 781.935Z" fill="#BA68C8"/>
<path d="M855.329 770.842C857.424 771.292 858.157 765.735 858.576 764.317C859.372 761.662 860.21 759.052 861.132 756.443C862.936 751.367 864.985 746.395 867.27 741.548C871.669 732.224 876.822 723.333 882.667 714.976C888.13 707.152 894.087 699.74 900.494 692.791C906.276 686.543 912.36 680.625 918.72 675.062C924.04 670.382 929.571 665.949 935.248 661.787C939.438 658.727 943.627 655.802 948.006 653.057C950.289 651.617 952.572 650.2 954.94 648.895L955.61 648.535C955.985 648.338 956.272 647.989 956.407 647.565C956.543 647.141 956.516 646.676 956.333 646.274C956.149 645.871 955.824 645.563 955.43 645.417C955.035 645.272 954.602 645.301 954.227 645.497C952.761 646.262 951.357 647.117 950.038 647.972C946.351 650.222 942.747 652.472 939.207 654.992C933.956 658.637 928.831 662.492 923.831 666.557C917.63 671.597 911.674 676.944 905.962 682.599C899.451 689.003 893.322 695.842 887.611 703.074C881.42 710.871 875.816 719.184 870.852 727.936C865.572 737.198 861.151 746.995 857.654 757.185C856.998 759.15 856.37 761.107 855.769 763.057C854.888 765.003 854.355 767.11 854.198 769.267C854.224 769.61 854.337 769.938 854.526 770.216C854.714 770.494 854.971 770.711 855.266 770.842H855.329Z" fill="white"/>
<path d="M171.715 716.867C171.715 716.867 172.05 672.745 155.899 636.229C139.748 599.712 114.484 575.007 88.8637 569.36C63.2437 563.713 39.6137 586.437 65.1709 607.609C90.7282 628.781 137.674 653.283 152.673 721.862L171.715 716.867Z" fill="#BA68C8"/>
<path opacity="0.15" d="M171.715 716.867C171.715 716.867 172.05 672.745 155.899 636.229C139.748 599.712 114.484 575.007 88.8637 569.36C63.2437 563.713 39.6137 586.437 65.1709 607.609C90.7282 628.781 137.674 653.283 152.673 721.862L171.715 716.867Z" fill="black"/>
<path d="M161.031 709.239C160.764 709.24 160.507 709.131 160.312 708.934C160.117 708.737 160 708.468 159.984 708.182C156.046 637.556 101.873 591.634 75.1005 583.805C74.8347 583.726 74.6085 583.537 74.4713 583.28C74.334 583.023 74.2966 582.718 74.3673 582.432C74.441 582.141 74.6187 581.892 74.8618 581.741C75.105 581.589 75.3939 581.546 75.6661 581.622C102.899 589.609 158.078 636.296 162.079 708.047C162.085 708.342 161.988 708.63 161.805 708.851C161.622 709.072 161.368 709.211 161.094 709.239H161.031Z" fill="white"/>
<path d="M175.025 777.436C180.215 770.402 183.697 762.094 185.16 753.259C186.622 744.423 186.019 735.335 183.404 726.812C181.884 721.665 179.451 716.882 176.24 712.727C173.663 709.465 169.956 707.777 166.939 705.055C160.445 699.272 152.903 693.13 150.557 683.95C148.672 676.638 149.07 669.708 145.299 662.846C143.077 658.548 139.539 655.209 135.286 653.396C129.734 651.146 123.617 652.631 117.752 653.396C109.372 654.408 103.088 651.303 95.8396 647.163C87.8582 642.663 78.536 639.109 69.8843 641.876C67.0705 642.771 64.4633 644.292 62.2316 646.339C60 648.385 58.1936 650.913 56.9296 653.758C55.6656 656.602 54.9721 659.7 54.8942 662.851C54.8163 666.002 55.3556 669.135 56.4772 672.048C58.4045 677.088 61.9657 681.183 64.5843 685.863C67.2029 690.542 68.5855 695.897 66.6792 701.005C65.2128 704.785 62.4895 707.755 61.4001 711.602C58.2998 721.727 60.0385 730.727 69.4025 735.946C79.1855 741.324 94.5407 737.274 99.4427 750.481C101.286 755.499 101.349 761.056 102.355 766.343C104.419 776.984 110.179 786.381 118.464 792.623C129.713 801.015 144.985 798.968 156.653 793.118C163.822 789.483 170.11 784.116 175.025 777.436V777.436Z" fill="#BA68C8"/>
<path d="M86.8316 713.538C87.0605 713.579 87.2958 713.54 87.502 713.425C95.7529 710 104.608 708.578 113.43 709.263C122.253 709.947 130.826 712.721 138.533 717.385C138.797 717.537 139.106 717.57 139.392 717.477C139.679 717.384 139.92 717.173 140.062 716.89C140.135 716.752 140.182 716.599 140.2 716.441C140.218 716.283 140.206 716.122 140.165 715.969C140.124 715.816 140.055 715.673 139.961 715.549C139.868 715.425 139.753 715.323 139.622 715.248C131.615 710.418 122.711 707.554 113.551 706.862C104.39 706.169 95.2009 707.665 86.6431 711.243C86.4418 711.361 86.279 711.543 86.176 711.763C86.0731 711.984 86.035 712.232 86.0669 712.476C86.0987 712.721 86.1989 712.948 86.3542 713.13C86.5095 713.311 86.7125 713.438 86.9364 713.493L86.8316 713.538Z" fill="white"/>
<path d="M159.984 777.818C159.71 777.824 159.444 777.714 159.244 777.512C159.045 777.31 158.927 777.032 158.916 776.738C156.967 725.889 109.435 672.115 77.5724 657.491C77.4437 657.434 77.3268 657.35 77.2285 657.245C77.1302 657.139 77.0524 657.014 76.9998 656.875C76.9471 656.737 76.9206 656.589 76.9218 656.44C76.923 656.29 76.9519 656.143 77.0068 656.006C77.1215 655.729 77.3334 655.512 77.5963 655.402C77.8592 655.293 78.1518 655.299 78.4103 655.421C110.776 670.315 159.041 724.989 161.031 776.693C161.037 776.844 161.015 776.994 160.966 777.136C160.918 777.277 160.844 777.407 160.748 777.518C160.653 777.628 160.538 777.718 160.411 777.781C160.283 777.844 160.145 777.88 160.005 777.885L159.984 777.818Z" fill="white"/>
<path d="M422.344 51.2412L185.248 198.208C182.9 199.854 180.949 202.074 179.554 204.687C178.16 207.299 177.361 210.23 177.225 213.238V812.917C177.225 818.407 180.828 820.634 185.248 817.867L422.344 670.855C424.676 669.212 426.617 667.005 428.01 664.41C429.404 661.816 430.211 658.906 430.367 655.915V56.1461C430.367 50.6562 426.764 48.4063 422.344 51.2412ZM418.824 611.479C418.824 616.181 415.745 619.174 411.953 621.514L194.843 756.196C191.072 758.446 187.971 756.646 187.971 751.921V253.219C187.972 250.641 188.606 248.108 189.809 245.876C191.011 243.644 192.74 241.792 194.822 240.507L411.932 105.802C412.629 105.368 413.42 105.138 414.226 105.136C415.031 105.134 415.823 105.36 416.522 105.791C417.221 106.222 417.801 106.843 418.205 107.591C418.61 108.34 418.823 109.19 418.824 110.055V110.055V611.479Z" fill="#455A64"/>
<path d="M418.824 611.478C418.824 616.181 415.745 619.173 411.953 621.513L194.843 756.195C191.072 758.445 187.971 756.645 187.971 751.92V253.219C187.972 250.64 188.606 248.107 189.809 245.876C191.011 243.644 192.74 241.792 194.822 240.507L411.932 105.802C412.629 105.368 413.42 105.138 414.226 105.136C415.031 105.133 415.823 105.359 416.522 105.79C417.221 106.221 417.801 106.842 418.205 107.591C418.61 108.34 418.823 109.189 418.824 110.055V110.055V611.478Z" fill="#263238"/>
<path d="M194.843 756.195L411.953 621.558C413.477 620.673 414.886 619.576 416.143 618.296L187.971 480.284V751.92C187.971 756.645 191.072 758.535 194.843 756.195Z" fill="#37474F"/>
<path d="M401.249 602.727V112.44L194.822 240.507C192.74 241.792 191.011 243.644 189.809 245.876C188.606 248.108 187.972 250.641 187.971 253.219V740.761L394.377 612.761C398.169 610.421 401.249 607.429 401.249 602.727Z" fill="#BA68C8"/>
<path d="M184.243 818.474C181.848 819.558 179.264 820.072 176.667 819.979C174.07 819.885 171.523 819.188 169.201 817.934L160.026 812.242C157.685 810.613 155.735 808.413 154.337 805.82C152.939 803.227 152.132 800.316 151.982 797.325V197.488C152.035 195.265 152.505 193.076 153.364 191.053C153.658 190.355 153.972 189.68 154.328 188.983L179.466 204.733C178.938 205.747 178.476 206.799 178.084 207.882C177.473 209.586 177.14 211.39 177.099 213.215V812.917C177.225 817.979 180.283 820.274 184.243 818.474Z" fill="#263238"/>
<path d="M310.877 697.651C316.009 697.651 316.554 703.839 316.554 706.494C316.247 711.813 314.795 716.984 312.312 721.598C309.83 726.213 306.384 730.146 302.246 733.088C300.585 734.221 298.68 734.872 296.715 734.978C291.583 734.978 291.038 728.791 291.038 726.136C291.347 720.816 292.798 715.646 295.276 711.028C297.755 706.411 301.194 702.472 305.325 699.519C307 698.404 308.909 697.761 310.877 697.651Z" fill="#BA68C8"/>
<path d="M303.628 134.287C305.723 132.937 307.546 134.017 307.546 136.717C307.47 138.176 307.076 139.596 306.395 140.863C305.715 142.129 304.767 143.206 303.628 144.007C301.534 145.334 299.69 144.254 299.69 141.577C299.762 140.113 300.156 138.689 300.841 137.422C301.526 136.154 302.481 135.08 303.628 134.287V134.287Z" fill="#263238"/>
<path d="M278.322 169.813C280.25 168.621 281.8 169.588 281.8 172.063C281.736 173.358 281.388 174.618 280.783 175.741C280.179 176.863 279.335 177.816 278.322 178.521C276.395 179.713 274.845 178.746 274.845 176.271C274.912 174.977 275.262 173.718 275.866 172.596C276.47 171.474 277.312 170.521 278.322 169.813V169.813Z" fill="#263238"/>
<path d="M289.949 162.433L328.892 138.291C330.987 136.964 332.747 137.909 332.747 140.384C332.645 141.774 332.243 143.119 331.575 144.314C330.906 145.509 329.987 146.52 328.892 147.269L289.949 171.411C287.854 172.738 286.094 171.793 286.094 169.318C286.197 167.928 286.598 166.583 287.267 165.388C287.936 164.194 288.854 163.182 289.949 162.433Z" fill="#263238"/>
<path d="M430.283 54.7736C429.697 50.2737 426.366 48.6762 422.365 51.1736L185.227 198.208C182.854 199.79 180.905 202.007 179.571 204.643L154.433 188.893C155.788 186.279 157.742 184.079 160.11 182.503L397.101 35.4915C399.587 34.1375 402.336 33.4319 405.124 33.4319C407.912 33.4319 410.661 34.1375 413.147 35.4915L422.365 41.1614C424.513 42.6918 426.331 44.6985 427.697 47.0464C429.062 49.3943 429.944 52.0291 430.283 54.7736V54.7736Z" fill="#37474F"/>
<path d="M368.087 72.9771C366.857 73.683 365.488 74.0654 364.093 74.0927C362.698 74.1201 361.317 73.7918 360.064 73.1346C359.644 72.9423 359.28 72.6316 359.011 72.2356C358.742 71.8396 358.577 71.3729 358.534 70.8847C358.534 70.2547 358.534 67.9147 358.534 67.2623C358.602 66.7008 358.803 66.1675 359.119 65.7142C359.434 65.2609 359.854 64.9028 360.336 64.6748L385.747 48.9252C386.982 48.2243 388.354 47.8449 389.751 47.8175C391.149 47.7902 392.532 48.1156 393.791 48.7677C394.203 48.969 394.559 49.2825 394.824 49.6772C395.088 50.0718 395.252 50.5339 395.299 51.0176C395.299 51.6701 395.299 54.1 395.299 54.73C395.233 55.2948 395.033 55.8317 394.717 56.289C394.402 56.7462 393.982 57.1082 393.498 57.34L368.087 72.9771Z" fill="#BA68C8"/>
<path opacity="0.25" d="M368.087 72.9771C366.857 73.683 365.488 74.0654 364.093 74.0927C362.698 74.1201 361.317 73.7918 360.064 73.1346C359.644 72.9423 359.28 72.6316 359.011 72.2356C358.742 71.8396 358.577 71.3729 358.534 70.8847C358.534 70.2547 358.534 67.9147 358.534 67.2623C358.602 66.7008 358.803 66.1675 359.119 65.7142C359.434 65.2609 359.854 64.9028 360.336 64.6748L385.747 48.9252C386.982 48.2243 388.354 47.8449 389.751 47.8175C391.149 47.7902 392.532 48.1156 393.791 48.7677C394.203 48.969 394.559 49.2825 394.824 49.6772C395.088 50.0718 395.252 50.5339 395.299 51.0176C395.299 51.6701 395.299 54.1 395.299 54.73C395.233 55.2948 395.033 55.8317 394.717 56.289C394.402 56.7462 393.982 57.1082 393.498 57.34L368.087 72.9771Z" fill="black"/>
<path d="M368.087 69.3984L393.498 53.6488C395.802 52.2088 395.907 49.9814 393.77 48.6539C392.511 48.0018 391.128 47.6764 389.73 47.7037C388.333 47.7311 386.961 48.1105 385.726 48.8114L360.315 64.561C358.032 65.9785 357.906 68.2059 360.064 69.5334C361.317 70.1887 362.697 70.518 364.09 70.4945C365.484 70.4711 366.853 70.0956 368.087 69.3984V69.3984Z" fill="#BA68C8"/>
<path opacity="0.3" d="M368.087 69.3984L393.498 53.6488C395.802 52.2088 395.907 49.9814 393.77 48.6539C392.511 48.0018 391.128 47.6764 389.73 47.7037C388.333 47.7311 386.961 48.1105 385.726 48.8114L360.315 64.561C358.032 65.9785 357.906 68.2059 360.064 69.5334C361.317 70.1887 362.697 70.518 364.09 70.4945C365.484 70.4711 366.853 70.0956 368.087 69.3984V69.3984Z" fill="black"/>
<path d="M167.861 287.869C167.811 286.371 167.432 284.908 166.755 283.598C166.078 282.288 165.121 281.168 163.964 280.331C163.585 280.031 163.136 279.848 162.667 279.805C162.197 279.761 161.725 279.858 161.304 280.084C160.822 280.399 158.895 281.546 158.392 281.884C157.971 282.226 157.64 282.679 157.431 283.2C157.222 283.72 157.141 284.29 157.198 284.854V351.722C157.249 353.217 157.626 354.678 158.299 355.987C158.972 357.297 159.923 358.417 161.073 359.26C161.452 359.533 161.89 359.698 162.345 359.737C162.8 359.776 163.256 359.69 163.671 359.485C164.216 359.192 166.164 357.977 166.688 357.64C167.108 357.297 167.439 356.844 167.649 356.323C167.858 355.803 167.938 355.233 167.882 354.67L167.861 287.869Z" fill="#BA68C8"/>
<path opacity="0.3" d="M167.861 287.869C167.811 286.371 167.432 284.908 166.755 283.598C166.078 282.288 165.121 281.168 163.964 280.331C163.585 280.031 163.136 279.848 162.667 279.805C162.197 279.761 161.725 279.858 161.304 280.084C160.822 280.399 158.895 281.546 158.392 281.884C157.971 282.226 157.64 282.679 157.431 283.2C157.222 283.72 157.141 284.29 157.198 284.854V351.722C157.249 353.217 157.626 354.678 158.299 355.987C158.972 357.297 159.923 358.417 161.073 359.26C161.452 359.533 161.89 359.698 162.345 359.737C162.8 359.776 163.256 359.69 163.671 359.485C164.216 359.192 166.164 357.977 166.688 357.64C167.108 357.297 167.439 356.844 167.649 356.323C167.858 355.803 167.938 355.233 167.882 354.67L167.861 287.869Z" fill="black"/>
<path d="M164.97 289.735V356.604C164.97 359.439 163.231 360.654 161.073 359.326C159.922 358.484 158.972 357.363 158.299 356.054C157.626 354.745 157.249 353.284 157.198 351.789V284.853C157.198 281.996 158.937 280.781 161.073 282.108C162.239 282.957 163.201 284.091 163.878 285.417C164.556 286.743 164.93 288.223 164.97 289.735V289.735Z" fill="#BA68C8"/>
<path opacity="0.4" d="M164.97 289.735V356.604C164.97 359.439 163.231 360.654 161.073 359.326C159.922 358.484 158.972 357.363 158.299 356.054C157.626 354.745 157.249 353.284 157.198 351.789V284.853C157.198 281.996 158.937 280.781 161.073 282.108C162.239 282.957 163.201 284.091 163.878 285.417C164.556 286.743 164.93 288.223 164.97 289.735V289.735Z" fill="black"/>
<path d="M167.861 377.484C167.811 375.986 167.432 374.523 166.755 373.213C166.078 371.903 165.121 370.783 163.964 369.946C163.585 369.646 163.136 369.463 162.667 369.42C162.197 369.376 161.725 369.473 161.304 369.699C160.822 370.014 158.895 371.161 158.392 371.499C157.971 371.841 157.64 372.294 157.431 372.815C157.222 373.335 157.141 373.905 157.198 374.469V405.968C157.252 407.459 157.63 408.915 158.304 410.22C158.977 411.526 159.925 412.643 161.073 413.483C161.44 413.774 161.872 413.954 162.325 414.006C162.778 414.057 163.235 413.978 163.65 413.775C164.195 413.483 166.143 412.268 166.667 411.93C167.086 411.592 167.416 411.142 167.625 410.626C167.834 410.109 167.916 409.543 167.861 408.983V377.484Z" fill="#BA68C8"/>
<path opacity="0.3" d="M167.861 377.484C167.811 375.986 167.432 374.523 166.755 373.213C166.078 371.903 165.121 370.783 163.964 369.946C163.585 369.646 163.136 369.463 162.667 369.42C162.197 369.376 161.725 369.473 161.304 369.699C160.822 370.014 158.895 371.161 158.392 371.499C157.971 371.841 157.64 372.294 157.431 372.815C157.222 373.335 157.141 373.905 157.198 374.469V405.968C157.252 407.459 157.63 408.915 158.304 410.22C158.977 411.526 159.925 412.643 161.073 413.483C161.44 413.774 161.872 413.954 162.325 414.006C162.778 414.057 163.235 413.978 163.65 413.775C164.195 413.483 166.143 412.268 166.667 411.93C167.086 411.592 167.416 411.142 167.625 410.626C167.834 410.109 167.916 409.543 167.861 408.983V377.484Z" fill="black"/>
<path d="M164.97 379.172V410.671C164.97 413.506 163.231 414.743 161.073 413.393C159.922 412.551 158.972 411.43 158.299 410.121C157.626 408.812 157.249 407.351 157.198 405.856V374.357C157.198 371.522 158.937 370.284 161.073 371.612C162.229 372.456 163.183 373.58 163.86 374.893C164.537 376.206 164.917 377.672 164.97 379.172V379.172Z" fill="#BA68C8"/>
<path opacity="0.4" d="M164.97 379.172V410.671C164.97 413.506 163.231 414.743 161.073 413.393C159.922 412.551 158.972 411.43 158.299 410.121C157.626 408.812 157.249 407.351 157.198 405.856V374.357C157.198 371.522 158.937 370.284 161.073 371.612C162.229 372.456 163.183 373.58 163.86 374.893C164.537 376.206 164.917 377.672 164.97 379.172V379.172Z" fill="black"/>
<path d="M237.284 321.662C237.493 322.755 237.773 323.83 238.122 324.88C239.484 328.84 241.935 332.575 241.725 336.805C241.495 341.574 237.997 345.264 235.315 349.067C231.83 354.094 229.508 359.939 228.539 366.12C227.57 372.301 227.983 378.64 229.743 384.616C232.318 391.895 235.891 398.72 240.343 404.866L250.461 420.278C253.52 424.593 257.425 428.134 261.899 430.65C270.593 435.928 280.294 439.006 290.263 439.65C306.65 440.838 322.949 436.248 336.685 426.578C351.244 416.228 344.834 389.678 359.729 379.981C377.744 368.281 386.333 327.647 364.253 310.683C364.253 310.683 367.815 285.798 361.279 279.453C354.765 273.6 346.705 270.09 338.235 269.419C326.546 268.114 314.836 270.566 303.168 270.521C291.156 270.479 279.154 271.284 267.241 272.929C263.051 273.536 257.144 275.178 254.881 279.566C254.242 281.287 254.068 283.166 254.378 284.988C254.346 287.879 253.384 290.669 251.655 292.886C249.057 296.26 245.37 298.533 242.605 301.705C240.323 304.351 238.653 307.535 237.729 311.002C236.804 314.469 236.652 318.121 237.284 321.662V321.662Z" fill="#263238"/>
<path d="M353.549 357.572C372.402 358.134 374.853 362.454 391.738 380.409C405.773 395.326 452.279 441.427 452.279 441.427L508.002 457.357L494.847 493.874C494.847 493.874 482.277 493.311 457.139 493.289C441.7 493.289 436.337 489.576 420.794 478.439C412.875 472.747 368.192 441.337 368.192 441.337L353.549 357.572Z" fill="#E6E6E6"/>
<path d="M569.654 383.514L467.53 422.168L439.375 552.665L441.658 555.275L538.755 516.373L571.916 386.124L569.654 383.514Z" fill="#BA68C8"/>
<path opacity="0.35" d="M469.792 424.778L441.658 555.275L439.375 552.665L467.53 422.168L469.792 424.778Z" fill="black"/>
<path opacity="0.25" d="M571.916 386.124L469.792 424.778L441.658 555.275L538.755 516.374L571.916 386.124Z" fill="black"/>
<g opacity="0.2">
<path opacity="0.2" d="M523.567 489.823C524.51 492.388 532.345 498.036 543.678 497.023L545.584 489.508L523.567 489.823Z" fill="black"/>
</g>
<g opacity="0.1">
<path opacity="0.1" d="M541.164 412.853L542.002 408.466C542.463 406.058 536.471 407.318 528.616 411.301L510.181 417.286C502.325 421.268 494.91 424.238 494.428 426.645L493.59 431.01L541.164 412.853Z" fill="black"/>
</g>
<path d="M547.239 393.053C547.532 391.546 545.144 391.861 541.939 392.783L536.053 394.921C536.053 394.921 538.462 388.576 524.531 392.671C509.217 397.171 508.882 405.338 508.882 405.338C506.487 406.454 504.031 407.415 501.529 408.218C496.439 409.995 495.894 411.053 495.475 412.583L494.721 415.35L546.778 395.686C546.778 395.686 547.03 394.561 547.239 393.053Z" fill="#37474F"/>
<path d="M541.751 401.446C536.932 403.696 534.942 404.934 534.209 408.668C533.392 412.921 533.224 414.698 533.224 414.698L506.117 426.173C506.117 426.173 507.583 419.896 507.94 417.803C508.296 415.711 504.713 415.711 500.021 418.028L501.131 412.808L543.301 396.001L541.751 401.446Z" fill="#37474F"/>
<path d="M542.546 412.92C542.546 412.92 542.945 410.963 543.405 408.533C543.866 406.103 537.875 407.386 530.019 411.368L511.585 417.353C503.729 421.335 496.292 424.305 495.831 426.713L494.993 431.212L542.546 412.92Z" fill="#37474F"/>
<path d="M560.562 430.763C560.562 430.763 556.938 445.073 555.975 448.762C555.011 452.452 538.294 460.665 529.936 461.79C513.931 463.927 512.108 467.64 515.942 479.789C519.503 491.039 529.915 495.314 544.369 493.491C551.156 492.637 560.52 486.179 564.207 474.907C568.9 460.507 566.302 445.14 568.25 436.658C570.199 428.175 564.626 425.745 560.562 430.763Z" fill="#FFA8A7"/>
<path d="M402.317 627.543L391.486 634.293L386.941 637.106L327.363 674.027L319.235 678.977L305.514 687.482L309.703 641.561L317.706 552.643V551.72L318.083 547.738L328.557 431.483L333.145 380.611L334.758 362.364L335.302 356.469H335.596C340.447 355.02 345.576 355.02 350.427 356.469C351.509 356.822 352.56 357.273 353.57 357.819C359.854 361.172 364.044 367.697 367.521 374.559C368.376 376.23 369.145 377.95 369.826 379.711C372.409 386.38 374.4 393.296 375.775 400.366V400.366C378.519 413.416 382.06 426.758 383.463 447.795C383.684 453.21 383.418 458.635 382.667 463.995C382.667 463.995 382.667 463.995 382.667 463.995C381.723 478.177 381.562 492.406 382.185 506.609C383.945 538.783 391.486 553.363 402.317 627.543Z" fill="#E0E0E0"/>
<path d="M386.941 637.061L327.363 673.982L319.235 678.977L305.514 687.482L296.066 693.332L238.709 728.881C239.316 704.132 239.589 677.29 239.044 651.933C238.876 643.45 238.814 634.788 239.149 625.923C240.238 595.144 245.685 562.137 265.209 527.398L266.109 525.643C268.414 540.335 289.362 549.875 308.216 552.125L310.311 552.327C312.678 552.575 315.129 552.687 317.664 552.687H319.256C335.198 552.53 354.072 548.503 375.817 540.605C377.912 553.655 380.007 570.777 382.248 590.802C383.254 599.801 384.273 609.394 385.307 619.578C385.726 625.271 386.375 631.098 386.941 637.061Z" fill="#FFA8A7"/>
<path d="M391.487 634.248L386.941 637.06L327.363 673.982L319.235 678.977L305.514 687.481L296.066 693.331L238.709 728.881L232.424 732.773C232.738 706.134 232.948 680.034 232.927 663.654C232.927 648.422 233.241 634.878 234.016 622.863C235.546 599.148 238.73 581.306 244.051 567.807C250.294 553.031 257.68 538.844 266.13 525.395C266.13 525.395 271.368 544.385 310.541 547.377H310.793C313.097 547.557 315.527 547.67 318.083 547.715H321.057C369.826 547.715 375.209 534.507 375.209 534.507C379.974 553.928 383.743 573.615 386.501 593.479C387.534 600.498 388.533 607.998 389.496 615.978C390.209 621.828 390.879 627.903 391.487 634.248Z" fill="#BA68C8"/>
<path opacity="0.4" d="M391.487 634.248L386.941 637.06L327.363 673.982L319.235 678.977L305.514 687.481L296.066 693.331L238.709 728.881L232.424 732.773C232.738 706.134 232.948 680.034 232.927 663.654C232.927 648.422 233.241 634.878 234.016 622.863C235.546 599.148 238.73 581.306 244.051 567.807C250.294 553.031 257.68 538.844 266.13 525.395C266.13 525.395 271.368 544.385 310.541 547.377H310.793C313.097 547.557 315.527 547.67 318.083 547.715H321.057C369.826 547.715 375.209 534.507 375.209 534.507C379.974 553.928 383.743 573.615 386.501 593.479C387.534 600.498 388.533 607.998 389.496 615.978C390.209 621.828 390.879 627.903 391.487 634.248Z" fill="black"/>
<path opacity="0.2" d="M363.52 604.392C363.52 604.392 358.074 622.977 335.156 633.394L334.067 639.086L327.363 673.983L319.235 678.978L324.095 640.481L326.19 623.742C340.353 622.164 353.558 615.319 363.52 604.392Z" fill="black"/>
<path d="M293.824 361.847L270.781 364.457C255.53 368.462 248.638 375.706 247.067 390.174C246.334 396.923 242.542 414.923 247.863 437.423C252.681 457.852 265.544 507.846 265.544 507.846C265.544 507.846 235.943 549.335 230.581 620.478C284.754 658.458 367.856 638.051 390.334 615.101C388.449 593.367 375.524 533.72 373.911 514.348C373.911 514.348 375.105 484.086 377.346 470.969C394.482 450.877 392.303 431.663 384.615 416.16C370.412 387.541 349.003 362.387 342.069 362.409L293.824 361.847Z" fill="#BA68C8"/>
<path opacity="0.7" d="M293.824 361.847L270.781 364.457C255.53 368.462 248.638 375.706 247.067 390.174C246.334 396.923 242.542 414.923 247.863 437.423C252.681 457.852 265.544 507.846 265.544 507.846C265.544 507.846 235.943 549.335 230.581 620.478C284.754 658.458 367.856 638.051 390.334 615.101C388.449 593.367 375.524 533.72 373.911 514.348C373.911 514.348 375.105 484.086 377.346 470.969C394.482 450.877 392.303 431.663 384.615 416.16C370.412 387.541 349.003 362.387 342.069 362.409L293.824 361.847Z" fill="white"/>
<path d="M313.788 516.755C313.788 517.205 313.788 517.61 313.788 517.948V518.533C313.802 518.72 313.802 518.908 313.788 519.095V519.095C312.992 528.095 312.05 537.658 311.044 547.4C311.044 547.4 311.044 547.4 311.044 547.535C310.897 549.11 310.73 550.685 310.562 552.282C307.483 581.644 303.817 613.031 300.989 641.605C300.297 648.535 299.669 655.285 299.103 661.855C298.224 671.687 297.281 682.464 296.317 693.354L238.96 728.903L232.676 732.796L216.65 742.718C219.876 708.631 227.397 629.658 231.586 594.019C232.068 589.991 232.697 585.964 233.409 581.959L233.974 579.034L234.226 577.842C234.498 576.492 234.77 575.187 235.064 573.859C235.357 572.532 235.629 571.407 235.902 570.214C236.551 567.492 237.242 564.814 237.996 562.205C238.353 560.945 238.688 559.685 239.065 558.447C239.442 557.21 239.756 555.972 240.133 554.757C240.887 552.327 241.621 549.942 242.396 547.625C242.387 547.58 242.387 547.534 242.396 547.49C242.752 546.387 243.129 545.24 243.506 544.205C244.009 542.675 244.532 541.19 245.056 539.705L245.685 537.928C245.999 537.118 246.271 536.33 246.564 535.543C247.591 532.775 248.659 530.143 249.602 527.69C249.811 527.15 250.042 526.61 250.251 526.093C250.461 525.575 250.796 524.81 251.047 524.18C251.676 522.605 252.304 521.143 252.912 519.68C253.163 519.05 253.436 518.443 253.687 517.858C253.938 517.273 254.294 516.508 254.567 515.878L254.965 514.978L255.384 514.101C255.411 513.986 255.461 513.878 255.53 513.786C255.588 513.622 255.658 513.464 255.74 513.313C255.791 513.212 255.833 513.107 255.866 512.998C256.04 512.68 256.194 512.349 256.326 512.008L257.73 509.083C257.73 508.926 257.877 508.813 257.919 508.678L258.463 507.598L241.034 429.975L232.361 391.411V390.781C232.759 387.361 235.42 371.229 250.754 366.324C259.411 363.924 268.279 362.506 277.212 362.094C280.648 361.869 283.748 361.779 286.283 361.711H290.284H292.693C292.699 361.764 292.699 361.817 292.693 361.869C292.819 362.206 293.175 363.219 293.72 364.794C293.779 365.058 293.863 365.314 293.971 365.559C293.973 365.596 293.973 365.634 293.971 365.671C297.742 376.786 308.321 409.14 313.579 437.242C314.501 442.102 315.255 446.85 315.799 451.349C317.371 465.412 316.218 488.946 313.788 516.755Z" fill="#FAFAFA"/>
<path d="M259.029 470.429C259.029 470.429 261.124 459.337 264.203 435.375C267.785 407.746 266.507 394.088 262.632 385.359L240.783 430.11L258.212 507.733C258.212 507.733 240.301 542.968 233.074 581.982C250.209 529.985 268.958 514.483 268.958 514.483L259.029 470.429Z" fill="#E6E6E6"/>
<path d="M335.575 344.522C342.362 344.522 343.158 345.737 349.003 354.152C352.48 359.169 374.497 398.206 374.497 398.206C374.497 398.206 356.984 373.457 343.766 365.942C341.221 364.34 338.467 363.157 335.596 362.432L335.575 344.522Z" fill="#EBEBEB"/>
<path d="M285.382 427.478C285.382 425.228 285.173 420.368 284.816 414.248C283.078 384.234 282.24 357.235 291.667 354.985L292.484 359.125C285.612 360.722 287.875 399.354 288.734 413.888C289.111 420.143 289.404 425.138 289.299 427.568L285.382 427.478Z" fill="#BA68C8"/>
<path d="M253.959 230.967L268.623 243.859C269.421 242.879 270.023 241.735 270.394 240.496C270.765 239.257 270.897 237.95 270.781 236.655C270.665 235.359 270.305 234.103 269.721 232.962C269.138 231.822 268.343 230.821 267.387 230.022C265.459 228.31 262.995 227.454 260.499 227.629C258.002 227.805 255.663 228.999 253.959 230.967Z" fill="#263238"/>
<path d="M292.253 346.435C292.253 336.557 270.823 321.685 259.762 300.918C248.701 280.151 254.232 245.997 269.398 240.755C269.524 240.755 269.943 236.367 270.006 236.052C270.844 232.089 272.258 228.293 274.196 224.802C280.375 213.373 293.468 204.553 305.618 202.708C353.653 195.193 375.733 215.24 384.553 237.29C387.411 244.707 388.685 252.718 388.281 260.734C388.034 266.621 386 272.26 382.49 276.79C378.98 281.319 374.187 284.491 368.841 285.821L292.253 346.435Z" fill="#263238"/>
<path d="M358.891 229.909C368.296 234.409 377.242 249.776 377.095 293.021C376.969 329.695 366.495 338.965 361.216 341.687C355.937 344.409 345.609 343.014 335.575 341.372V362.431C335.575 362.431 343.095 370.374 340.456 375.369C337.816 380.364 328.075 384.594 312.929 379.486C295.773 373.704 291.855 361.487 291.855 361.487L291.457 315.273C291.457 315.273 285.696 321.775 275.536 312.235C267.157 304.338 264.14 290.816 270.446 283.391C276.751 275.966 284.837 275.381 292.128 283.683L297.365 280.713C306.708 279.543 320.408 277.856 330.505 272.388C356.398 258.236 359.079 242.892 358.891 229.909Z" fill="#FFA8A7"/>
<path d="M292.274 277.699L292.4 297.948C293.611 297.983 294.815 297.751 295.939 297.267C297.064 296.783 298.084 296.057 298.937 295.134C299.791 294.211 300.46 293.111 300.902 291.9C301.345 290.689 301.553 289.394 301.512 288.094C301.49 285.425 300.522 282.865 298.806 280.935C297.091 279.004 294.755 277.847 292.274 277.699V277.699Z" fill="#263238"/>
<path d="M359.771 280.579C359.779 281.53 360.048 282.458 360.543 283.247C361.038 284.036 361.738 284.651 362.556 285.017C363.374 285.382 364.274 285.482 365.144 285.304C366.014 285.125 366.816 284.677 367.451 284.013C368.086 283.349 368.525 282.5 368.715 281.571C368.905 280.641 368.836 279.673 368.518 278.785C368.2 277.897 367.646 277.129 366.925 276.576C366.204 276.023 365.348 275.709 364.463 275.674C363.854 275.659 363.247 275.774 362.68 276.014C362.113 276.253 361.595 276.612 361.159 277.069C360.722 277.525 360.374 278.071 360.136 278.674C359.897 279.276 359.773 279.924 359.771 280.579Z" fill="black"/>
<path d="M323.634 282.738C323.597 283.436 323.689 284.134 323.904 284.794C324.119 285.453 324.453 286.06 324.887 286.581C325.321 287.101 325.847 287.525 326.433 287.827C327.02 288.129 327.656 288.303 328.306 288.341C328.965 288.347 329.619 288.213 330.23 287.947C330.841 287.68 331.397 287.287 331.866 286.79C332.335 286.292 332.708 285.7 332.963 285.047C333.219 284.394 333.352 283.694 333.354 282.986C333.375 282.3 333.27 281.617 333.044 280.975C332.819 280.334 332.479 279.746 332.042 279.245C331.605 278.745 331.081 278.342 330.499 278.059C329.918 277.776 329.29 277.619 328.651 277.597C328.013 277.575 327.377 277.688 326.78 277.93C326.182 278.172 325.635 278.538 325.169 279.007C324.703 279.476 324.328 280.039 324.064 280.664C323.801 281.288 323.655 281.963 323.634 282.648V282.738Z" fill="black"/>
<path d="M371.753 271.511L360.085 266.539C360.354 265.696 360.783 264.922 361.345 264.265C361.906 263.608 362.587 263.082 363.346 262.721C364.105 262.36 364.926 262.171 365.756 262.166C366.586 262.161 367.408 262.34 368.171 262.692C369.708 263.386 370.938 264.69 371.605 266.332C372.272 267.974 372.325 269.828 371.753 271.511V271.511Z" fill="black"/>
<path d="M348.71 276.619L348.123 306.633L363.143 303.056L348.71 276.619Z" fill="#F28F8F"/>
<path d="M331.008 312.753L345.672 317.635C345.459 318.709 345.042 319.724 344.448 320.617C343.854 321.511 343.096 322.264 342.22 322.829C341.344 323.395 340.369 323.761 339.355 323.904C338.342 324.048 337.312 323.967 336.329 323.665C334.317 322.913 332.646 321.367 331.658 319.34C330.67 317.313 330.437 314.957 331.008 312.753Z" fill="#B16668"/>
<path d="M339.115 323.935C339.099 321.745 338.277 319.65 336.829 318.108C335.381 316.566 333.424 315.7 331.385 315.7C331.183 315.689 330.98 315.689 330.778 315.7C330.853 317.458 331.418 319.151 332.401 320.56C333.383 321.968 334.737 323.026 336.287 323.598C337.198 323.92 338.161 324.035 339.115 323.935Z" fill="#F28F8F"/>
<path d="M335.575 341.484C324.996 340.134 303.188 333.61 299.648 324.092C301.067 328.87 303.789 333.079 307.462 336.175C314.04 342.249 335.575 348.572 335.575 348.572V341.484Z" fill="#F28F8F"/>
<path d="M291.75 344.635C288.985 344.027 286.534 345.332 284.272 349.427C282.009 353.522 277.045 362.252 277.045 362.252C277.045 362.252 274.468 391.029 277.045 398.251C279.265 404.461 303.754 427.748 303.754 427.748C303.754 427.748 297.365 453.6 297.134 462.082C296.904 470.564 311.798 502.761 313.6 519.231C313.6 519.231 318.9 467.482 316.616 448.83C312.678 416.498 298.559 374.739 291.897 361.464L291.75 344.635Z" fill="#EBEBEB"/>
<path d="M306.729 451.732C305.094 447.555 303.169 443.516 300.968 439.65V439.65C297.49 433.463 293.196 427.523 289.32 425.993C288.733 425.742 288.109 425.605 287.477 425.588H287.268C286.629 425.627 286.004 425.795 285.424 426.083C282.366 427.545 279.139 432.023 276.521 437.175C273.839 442.349 271.629 447.789 269.922 453.42C268.917 456.907 269.357 464.31 270.551 472.769C272.897 489.194 278.113 509.714 281.025 513.763C283.159 516.593 285.681 519.059 288.503 521.076C286.775 522.304 284.91 523.294 282.952 524.023C281.845 524.457 280.675 524.678 279.496 524.676V527.623H279.831C281.076 527.602 282.312 527.382 283.497 526.971C286.243 526.014 288.836 524.61 291.185 522.808C293.665 524.394 296.357 525.563 299.166 526.273C300.489 526.614 301.857 526.705 303.209 526.543L302.874 523.618C301.701 523.725 300.519 523.626 299.376 523.326C297.361 522.761 295.418 521.93 293.594 520.851C296.253 518.578 298.582 515.894 300.507 512.886C302.141 510.208 304.152 500.984 305.66 490.386C306.582 484.064 307.336 477.269 307.755 471.082C308.216 462.442 308.007 455.04 306.729 451.732ZM298.077 511.266C296.112 514.311 293.699 516.993 290.934 519.208C287.996 517.26 285.377 514.804 283.183 511.941C280.459 508.139 275.432 488.114 273.169 472.319C272.017 464.332 271.598 457.425 272.52 454.32C274.228 448.621 276.489 443.131 279.265 437.94C282.156 432.585 285.236 428.648 287.372 428.558C289.907 428.558 294.013 433.485 297.847 439.808C298.622 441.045 299.355 442.395 300.067 443.745C301.63 446.652 303.029 449.658 304.257 452.745C305.409 455.805 305.535 462.712 305.011 470.744C304.718 475.244 304.257 479.947 303.67 484.627C302.078 496.844 299.837 508.296 298.077 511.198V511.266Z" fill="#455A64"/>
<path d="M306.959 524.811C306.992 525.67 306.786 526.52 306.369 527.253C305.951 527.986 305.341 528.57 304.614 528.93C303.888 529.291 303.078 529.411 302.287 529.277C301.497 529.143 300.761 528.759 300.174 528.176C299.586 527.592 299.173 526.834 298.987 525.998C298.801 525.162 298.85 524.286 299.128 523.48C299.406 522.674 299.9 521.974 300.549 521.47C301.197 520.966 301.97 520.68 302.769 520.649C303.838 520.606 304.88 521.02 305.665 521.8C306.45 522.58 306.915 523.663 306.959 524.811V524.811Z" fill="#263238"/>
<path d="M283.476 525.981C283.513 526.84 283.311 527.692 282.896 528.428C282.481 529.164 281.872 529.752 281.146 530.115C280.42 530.479 279.61 530.603 278.818 530.471C278.027 530.34 277.289 529.958 276.7 529.376C276.11 528.793 275.695 528.036 275.507 527.199C275.319 526.363 275.366 525.485 275.644 524.678C275.921 523.871 276.415 523.17 277.063 522.665C277.712 522.16 278.486 521.873 279.286 521.841C279.814 521.817 280.342 521.905 280.839 522.1C281.335 522.295 281.791 522.593 282.18 522.978C282.569 523.362 282.884 523.825 283.106 524.341C283.329 524.856 283.454 525.413 283.476 525.981V525.981Z" fill="#263238"/>
<path d="M307.42 471.037L305.095 470.857C304.858 470.834 304.638 470.713 304.482 470.521C304.326 470.328 304.245 470.077 304.257 469.822C304.739 461.565 304.487 455.49 303.545 453.06C299.481 442.395 290.975 429.03 287.393 429.188C283.811 429.345 276.395 443.453 273.169 454.432C272.436 456.952 272.666 463.027 273.777 471.217C273.813 471.467 273.757 471.723 273.62 471.929C273.483 472.135 273.276 472.275 273.043 472.319L270.739 472.702C270.498 472.734 270.254 472.662 270.062 472.502C269.87 472.341 269.744 472.106 269.713 471.847C268.435 462.667 268.288 456.367 269.252 453.105C270.97 447.21 279.077 425.138 287.226 424.778C295.375 424.418 305.199 445.658 307.378 451.395C308.572 454.545 308.928 460.845 308.384 470.092C308.368 470.353 308.258 470.596 308.079 470.772C307.899 470.949 307.663 471.043 307.42 471.037V471.037Z" fill="#BA68C8"/>
<path d="M257.185 366.032C241.851 365.762 234.77 371.319 225.05 385.292C217.341 396.384 187.343 456.323 177.392 473.827L123.219 442.733C112.263 434.611 108.723 421.786 101.789 414.293C94.8551 406.801 87.6697 405.294 80.0445 399.106C72.4192 392.919 69.3188 388.104 67.1192 393.886C64.9196 399.669 73.4038 409.029 75.0168 411.346C76.6298 413.664 85.135 418.816 74.0951 418.996C63.0552 419.176 41.2058 406.891 35.8849 404.709C30.564 402.526 30.8782 409.344 33.4968 413.709C36.1153 418.073 35.9897 430.403 40.4098 437.535C45.0813 445.095 47.6371 448.38 58.0485 453.285C67.7267 457.785 88.0468 459.585 98.3325 466.492C108.618 473.4 134.113 497.744 149.615 512.346C169.327 530.908 182.923 534.306 193.9 523.169C204.563 511.176 215.372 497.114 220.651 489.982C234.875 470.745 257.374 426.983 257.374 426.983C257.374 426.983 267.115 404.484 257.185 366.032Z" fill="#FFA8A7"/>
<path d="M259.301 364.389C236.719 364.389 229.973 373.164 218.41 393.436C206.846 413.708 177.183 471.735 177.183 471.735L134.469 447.705C134.469 447.705 126.781 465.885 118.611 484.627C118.611 484.627 142.785 507.126 154.223 517.769C165.661 528.411 180.828 536.758 194.884 523.731C209.904 509.826 258.61 437.58 258.61 437.58C270.173 415.036 267.597 380.859 259.301 364.389Z" fill="#F0F0F0"/>
<path d="M177.183 471.735C184.159 480.555 192.601 490.477 192.224 498.284C192.224 498.284 197 491.354 180.22 465.817L177.183 471.735Z" fill="#E0E0E0"/>
<path d="M96.3843 255.356L78.9132 266.111L78.976 244.557L65.9042 236.457L35.424 255.356V293.156L4.94388 312.055V349.854L18.0158 357.954L35.424 347.154V368.776L48.4959 376.876L78.976 357.954V320.155L109.456 301.255V263.456L96.3843 255.356Z" fill="#BA68C8"/>
<path d="M18.0158 320.155V357.954L48.496 339.055V376.876L78.9761 357.954V320.155L109.456 301.255V263.456L78.8714 282.423L78.9761 244.557L48.496 263.456V301.255L18.0158 320.155Z" fill="#BA68C8"/>
<g opacity="0.2">
<path opacity="0.2" d="M18.0158 357.954L4.94388 349.855V312.055L18.0158 320.155V357.954Z" fill="black"/>
<path opacity="0.2" d="M48.4959 263.456L35.424 255.356V293.156L48.4959 301.255V263.456Z" fill="black"/>
<path opacity="0.2" d="M48.4959 376.876L35.424 368.776V347.154L48.4959 339.054V376.876Z" fill="black"/>
</g>
<g opacity="0.5">
<path opacity="0.5" d="M48.4959 301.256L35.424 293.156L4.94388 312.055L18.0158 320.155L48.4959 301.256Z" fill="white"/>
<path opacity="0.5" d="M78.976 244.557L65.9042 236.457L35.424 255.356L48.4959 263.456L78.976 244.557Z" fill="white"/>
<path opacity="0.5" d="M109.456 263.456L96.3843 255.356L78.9132 266.111L78.8713 282.423L109.456 263.456Z" fill="white"/>
</g>
<path d="M597.725 179.488C597.172 178.973 596.576 178.514 595.944 178.116C593.724 176.698 583.669 170.489 583.145 170.151C577.824 166.506 569.403 167.316 561.903 171.389C551.156 177.216 542.211 189.523 535.382 210.02C535.382 210.02 528.469 204.688 526.228 203.27C520.676 200.008 514.182 201.583 506.871 206.69C498.638 212.45 493.024 219.92 487.892 231.215V231.417C483.444 241.008 481.013 251.53 480.769 262.241C480.769 285.933 489.798 297.228 501.55 305.711C504.902 308.14 513.763 313.248 514.643 313.878C521.735 318.907 529.579 322.591 537.833 324.768L549.418 327.67L561.002 310.413C569.436 297.689 577.179 284.452 584.192 270.769C595.944 247.707 605.141 225.117 604.973 201.515C604.806 191.413 602.103 183.988 597.725 179.488Z" fill="#BA68C8"/>
<path opacity="0.3" d="M597.725 179.488C597.172 178.973 596.576 178.514 595.944 178.116C593.724 176.698 583.669 170.489 583.145 170.151C577.824 166.506 569.403 167.316 561.903 171.389C551.156 177.216 542.211 189.523 535.382 210.02C535.382 210.02 528.469 204.688 526.228 203.27C520.676 200.008 514.182 201.583 506.871 206.69C498.638 212.45 493.024 219.92 487.892 231.215V231.417C483.444 241.008 481.013 251.53 480.769 262.241C480.769 285.933 489.798 297.228 501.55 305.711C504.902 308.14 513.763 313.248 514.643 313.878C521.735 318.907 529.579 322.591 537.833 324.768L549.418 327.67L561.002 310.413C569.436 297.689 577.179 284.452 584.192 270.769C595.944 247.707 605.141 225.117 604.973 201.515C604.806 191.413 602.103 183.988 597.725 179.488Z" fill="black"/>
<path d="M597.725 179.488C597.172 178.973 596.576 178.514 595.944 178.116C593.724 176.698 583.669 170.489 583.145 170.151C577.824 166.506 569.403 167.316 561.903 171.389C551.156 177.216 542.211 189.523 535.382 210.02C535.382 210.02 528.469 204.688 526.228 203.27C520.676 200.008 514.182 201.583 506.871 206.69C498.638 212.45 493.024 219.92 487.892 231.215V231.417C487.661 231.912 487.473 232.407 487.263 232.902L575.247 287.396C578.369 281.951 581.406 276.439 584.297 270.769C596.049 247.707 605.246 225.117 605.078 201.515C604.806 191.413 602.103 183.988 597.725 179.488Z" fill="#BA68C8"/>
<path opacity="0.15" d="M597.725 179.488C597.172 178.973 596.576 178.514 595.944 178.116C593.724 176.698 583.669 170.489 583.145 170.151C577.824 166.506 569.403 167.316 561.903 171.389C551.156 177.216 542.211 189.523 535.382 210.02C535.382 210.02 528.469 204.688 526.228 203.27C520.676 200.008 514.182 201.583 506.871 206.69C498.638 212.45 493.024 219.92 487.892 231.215V231.417C487.661 231.912 487.473 232.407 487.263 232.902L575.247 287.396C578.369 281.951 581.406 276.439 584.297 270.769C596.049 247.707 605.246 225.117 605.078 201.515C604.806 191.413 602.103 183.988 597.725 179.488Z" fill="black"/>
<path d="M535.319 209.93L547.092 226.422L566.072 202.303L544.621 189.005C540.8 195.584 537.68 202.603 535.319 209.93V209.93Z" fill="#BA68C8"/>
<path opacity="0.3" d="M535.319 209.93L547.092 226.422L566.072 202.303L544.621 189.005C540.8 195.584 537.68 202.603 535.319 209.93V209.93Z" fill="black"/>
<path d="M597.725 179.488C592.593 174.561 583.25 174.988 574.996 179.488C563.746 185.608 554.445 198.815 547.49 221.18C540.535 207.455 531.234 207.028 519.985 214.88C511.731 220.64 506.117 228.11 501.006 239.404L500.901 239.607C496.469 249.211 494.045 259.738 493.799 270.454C493.799 294.146 502.849 305.44 514.58 313.923C521.673 318.952 529.517 322.636 537.77 324.813L549.355 327.715L560.939 310.458C569.373 297.733 577.116 284.497 584.129 270.814C595.882 247.752 605.078 225.162 604.91 201.56C604.806 191.413 602.103 183.988 597.725 179.488Z" fill="#BA68C8"/>
<g opacity="0.07">
<path opacity="0.07" d="M587.837 177.239C591.067 177.08 594.242 178.174 596.782 180.321C596.826 180.418 596.891 180.503 596.971 180.569C601.286 184.798 603.695 192.313 603.716 201.673C603.716 226.31 593.242 250.227 583.082 270.342C576.121 283.98 568.427 297.172 560.039 309.851L548.915 326.478L538.085 323.755C529.954 321.61 522.224 317.988 515.23 313.046C504.755 305.396 494.868 295.046 494.951 270.567C495.174 260.04 497.526 249.691 501.843 240.237V240.035C506.997 228.672 512.548 221.495 520.425 216.005C524.084 213.091 528.448 211.372 532.994 211.055C538.315 211.055 542.693 214.588 546.38 221.855C546.472 222.05 546.613 222.212 546.787 222.324C546.961 222.436 547.162 222.491 547.365 222.485H547.469C547.685 222.464 547.891 222.376 548.062 222.232C548.233 222.089 548.362 221.895 548.433 221.675C555.074 200.323 563.893 186.913 575.373 180.681C579.205 178.525 583.449 177.347 587.774 177.239H587.837ZM587.774 176.046C583.275 176.146 578.859 177.363 574.87 179.601C563.621 185.721 554.32 198.928 547.365 221.293C543.343 213.328 538.524 209.84 532.994 209.84C528.247 210.176 523.69 211.963 519.859 214.993C511.606 220.753 505.991 228.222 500.88 239.517L500.775 239.72C496.344 249.323 493.92 259.851 493.674 270.567C493.674 294.259 502.723 305.553 514.455 314.036C521.547 319.065 529.391 322.749 537.645 324.925L549.229 327.828L560.814 310.571C569.248 297.846 576.99 284.61 584.004 270.927C595.756 247.865 604.952 225.275 604.785 201.673C604.785 191.526 602.04 183.988 597.662 179.669C594.897 177.249 591.4 176.008 587.837 176.181L587.774 176.046Z" fill="black"/>
</g>
<path d="M596.447 243.274L573.906 257.269L565.527 224.532C565.408 224.037 565.136 223.6 564.755 223.293C564.375 222.987 563.908 222.828 563.432 222.845C562.942 222.834 562.464 223.008 562.081 223.337C561.699 223.666 561.435 224.129 561.337 224.645L548.286 288.678L537.309 256.414C537.287 255.817 537.045 255.254 536.637 254.849C536.228 254.444 535.686 254.23 535.131 254.254C534.575 254.278 534.051 254.538 533.674 254.977C533.297 255.415 533.097 255.997 533.12 256.594L525.704 284.876L500.901 300.265C501.717 301.539 502.598 302.764 503.54 303.933L528.679 288.386C529.165 288.083 529.524 287.592 529.684 287.013L535.529 264.694L546.778 297.678C546.928 298.139 547.213 298.536 547.591 298.808C547.969 299.08 548.419 299.213 548.873 299.185C549.338 299.16 549.781 298.97 550.134 298.644C550.487 298.318 550.729 297.875 550.821 297.385L563.6 234.792L570.345 261.364C570.425 261.706 570.579 262.022 570.794 262.289C571.009 262.555 571.279 262.763 571.583 262.897C571.887 263.03 572.215 263.086 572.543 263.058C572.87 263.03 573.186 262.92 573.467 262.736L593.493 250.339C594.646 247.977 595.567 245.637 596.447 243.274Z" fill="white"/>
<path d="M691.051 845.001C690.192 848.051 690.12 851.293 690.841 854.383C691.679 856.273 696.916 862.483 707.6 864.733C718.284 866.983 732.969 864.733 739.295 864.328C745.622 863.923 765.481 866.578 771.786 867.433C781.716 868.873 789.341 866.533 793.049 862.686C793.65 861.912 794.092 861.011 794.348 860.043C794.605 859.074 794.669 858.058 794.536 857.061C794.515 854.493 794.162 851.942 793.489 849.478L691.051 845.001Z" fill="#263238"/>
<path d="M791.855 838.319C792.044 839.196 792.232 840.096 792.4 840.996C793.367 845.523 793.671 850.184 793.301 854.811C792.023 858.186 788.524 860.053 785.696 860.998C778.218 863.563 772.541 863.248 764.266 861.471C755.944 860.168 747.536 859.611 739.128 859.806C732.613 860.278 723.647 861.628 717.132 860.976C711.592 860.728 706.125 859.528 700.938 857.421C696.602 855.441 692.161 852.921 691.093 848.061C689.815 837.936 693.774 833.481 698.236 830.646C702.698 827.811 709.045 828.036 715.833 827.564C721.971 827.114 726.454 827.114 731.921 826.664C736.649 826.417 741.346 825.717 745.957 824.571C750.147 823.176 754.336 817.529 756.054 817.327C756.054 817.327 783.392 817.102 785.99 817.327C789.006 817.597 789.928 827.631 790.305 829.814C790.598 831.524 790.661 833.369 791.08 835.011C791.352 836.114 791.604 837.216 791.855 838.319Z" fill="#37474F"/>
<path d="M707.621 859.626C706.762 852.336 705.526 836.541 718.095 827.407H719.666C714.021 825.652 708.029 825.652 702.384 827.407C692.391 830.264 687.95 838.949 690.443 848.129C690.485 848.039 692.706 856.926 707.621 859.626Z" fill="#FAFAFA"/>
<path d="M744.092 825.089C740.049 828.937 738.646 837.689 738.646 837.689C738.122 840.974 732.592 841.469 733.115 838.297C733.96 833.935 735.589 829.792 737.913 826.102C739.808 825.028 741.985 824.671 744.092 825.089V825.089Z" fill="#FAFAFA"/>
<path d="M732.759 826.596C729.71 829.803 727.717 833.989 727.082 838.521C726.517 841.671 721.908 841.626 722.243 838.521C722.243 838.521 722.767 830.759 727.082 827.136C727.918 826.562 728.871 826.213 729.859 826.119C730.848 826.025 731.842 826.188 732.759 826.596V826.596Z" fill="#FAFAFA"/>
<path d="M786.827 795.975C786.827 795.975 786.094 814.852 785.131 821.039C784.544 824.729 780.04 828.599 768.833 828.194C760.956 827.901 754.755 828.599 755.069 821.984L755.761 802.702L786.827 795.975Z" fill="#FFA8A7"/>
<path d="M804.403 751.38C804.005 756.532 803.356 761.19 805.325 766.86C808.132 775.004 814.081 778.739 817.58 781.934C821.26 785.85 824.657 790.062 827.74 794.534C831.176 799.034 832.076 801.711 837.23 806.616C839.798 808.74 842.835 810.111 846.044 810.596C849.253 811.081 852.525 810.663 855.539 809.384C860.001 807.336 861.551 805.716 861.279 798.359C861.006 791.002 839.178 788.504 839.178 788.504L804.403 751.38Z" fill="#263238"/>
<path d="M858.451 776.445C860.315 777.165 860.776 780.787 861.069 787.987C861.279 793.432 863.52 801.487 856.167 804.839C850.239 807.607 840.77 805.762 836.769 800.632C831.783 794.22 828.389 788.572 821.267 780.765C814.982 774.015 808.698 771.765 805.912 758.153C804.131 749.423 805.535 745.823 811.274 743.326C819.172 739.883 831.553 751.111 837.753 752.888C843.074 754.395 856.586 775.725 858.451 776.445Z" fill="#37474F"/>
<path d="M837.753 752.888L836.706 752.505C833.174 752.647 829.738 753.778 826.739 755.787C823.741 757.796 821.283 760.613 819.612 763.958C818.565 766.32 821.707 768.165 823.802 766.32C828.201 757.32 837.251 755.385 840.875 754.958C839.983 754.038 838.919 753.332 837.753 752.888V752.888Z" fill="#FAFAFA"/>
<path d="M842.844 756.982C839.528 757.316 836.341 758.529 833.57 760.512C830.798 762.495 828.529 765.187 826.965 768.345C825.917 770.595 829.164 772.552 831.155 770.595C832.65 767.779 834.699 765.348 837.16 763.471C839.62 761.594 842.432 760.316 845.4 759.727C844.499 758.827 843.661 757.86 842.844 756.982Z" fill="#FAFAFA"/>
<path d="M859.519 763.441L858.451 778.628C858.451 778.628 849.464 785.67 836.58 779.213C836.203 778.381 835.114 764.791 835.114 764.791L859.519 763.441Z" fill="#FFA8A7"/>
<path d="M809.536 768.165C809.536 768.165 810.143 752.032 831.49 749.805L832.726 750.503C830.297 746.457 826.57 743.511 822.251 742.223C815.171 740.265 809.557 742.223 805.828 747.038C802.099 751.852 805.849 765.037 809.536 768.165Z" fill="#FAFAFA"/>
<path d="M865.741 662.282C862.682 635.71 861.551 620.906 861.551 620.906C861.551 620.906 860.943 583.489 863.059 548.907C863.981 533.743 864.463 516.958 864.756 501.658C865.147 484.81 863.897 467.964 861.027 451.394C861.027 451.394 751.487 427.995 750.126 471.149C748.471 522.898 748.68 611.343 746.816 645.115C745.789 664.082 747.57 679.809 748.68 716.663C749.581 747.218 749.309 822.411 749.309 822.411C761.375 840.208 789.865 826.641 789.865 826.641C789.865 826.641 798.663 721.051 799.962 699.226C801.345 675.759 799.04 663.88 799.04 663.88L810.332 554.555C810.332 554.555 811.191 589.631 812.154 608.553C813.118 627.475 815.695 639.108 820.282 674.409C824.263 705.054 832.726 783.262 832.726 783.262C847.39 792.577 861.551 783.262 861.551 783.262C861.551 783.262 868.799 688.854 865.741 662.282Z" fill="#455A64"/>
<path d="M850.783 511.288C850.783 511.288 837.062 530.098 819.361 538.175C819.361 538.175 811.693 604.301 811.756 602.996L809.766 536.443C809.766 536.443 836.119 523.933 850.783 511.288Z" fill="#37474F"/>
<path d="M850.406 298.735C862.2 295.901 875.545 304.945 884.427 325.127C893.016 344.432 916.478 393.188 917.044 406.846C917.651 420.998 859.037 463.927 860.483 463.094C860.943 462.847 850.364 430.628 850.364 430.628L878.834 405.316L863.353 371.071L850.406 298.735Z" fill="#FFA8A7"/>
<path d="M844.206 295.698C854.135 294.393 872.13 298.421 879.001 311.246C888.973 329.808 898.064 351.272 909.649 379.014C909.649 379.014 901.06 398.994 876.341 400.884L861.53 372.984L844.206 295.698Z" fill="#37474F"/>
<path d="M794.222 278.981L795.94 318.355L832.265 316.263L831.155 270.521L794.222 278.981Z" fill="#FFA8A7"/>
<path d="M867.94 315.52C864.882 304.788 854.324 295.946 840.98 295.518C838.005 295.518 831.762 295.518 831.762 295.518C830.254 302.156 811.337 304.518 795.165 300.536C790.284 301.931 770.027 307.286 765.837 308.635C754.211 312.775 750.628 325.51 748.827 366.234C748.827 366.234 749.183 446.512 748.827 484.829C769.273 496.416 800.863 494.976 823.341 492.524C858.66 488.699 863.918 474.952 863.918 474.952C862.431 452.61 863.332 444.195 863.918 422.146C864.358 405.563 868.799 388.036 870.203 369.249C872.277 341.327 870.014 322.9 867.94 315.52Z" fill="#BA68C8"/>
<path d="M788.545 286.451C780.166 285.821 769.692 292.998 766.989 308.365L773.819 306.408L788.545 286.451Z" fill="#BA68C8"/>
<path opacity="0.3" d="M788.545 286.451C780.166 285.821 769.692 292.998 766.989 308.365L773.819 306.408L788.545 286.451Z" fill="black"/>
<path d="M794.683 289.736C800.968 291.985 819.298 291.67 825.436 289.736C831.574 287.801 831.511 284.876 831.511 284.876V281.568C835.051 281.557 838.509 282.712 841.419 284.876C845.337 288.296 852.082 300.625 851.894 306.543C851.705 312.46 839.932 328.075 817.224 327.692C794.516 327.31 781.758 318.287 777.841 312.348L773.902 306.385C773.902 306.385 779.286 294.505 784.586 289.511C787.304 286.681 790.788 284.853 794.537 284.291L794.683 289.736Z" fill="#BA68C8"/>
<path opacity="0.2" d="M794.683 289.736C800.968 291.985 819.298 291.67 825.436 289.736C831.574 287.801 831.511 284.876 831.511 284.876V281.568C835.051 281.557 838.509 282.712 841.419 284.876C845.337 288.296 852.082 300.625 851.894 306.543C851.705 312.46 839.932 328.075 817.224 327.692C794.516 327.31 781.758 318.287 777.841 312.348L773.902 306.385C773.902 306.385 779.286 294.505 784.586 289.511C787.304 286.681 790.788 284.853 794.537 284.291L794.683 289.736Z" fill="black"/>
<path d="M769.775 230.697C769.775 230.697 761.124 244.804 762.108 246.177C763.093 247.549 769.461 248.832 769.461 248.832L769.775 230.697Z" fill="#F28F8F"/>
<path d="M793.824 191.638C776.311 195.62 769.314 201.133 768.225 233.285C767.178 264.559 770.844 274.864 774.656 279.071C777.233 281.906 791.583 282.424 798.81 280.264C807.86 277.586 828.327 269.801 837.9 254.097C849.17 235.602 852.124 210.538 839.995 200.255C823.089 185.788 800.968 190.018 793.824 191.638Z" fill="#FFA8A7"/>
<path d="M774.656 279.048C776.751 281.298 786.786 282.153 794.327 281.163L794.222 276.506C787.974 278.982 781.274 279.852 774.656 279.048V279.048Z" fill="#F28F8F"/>
<path d="M765.9 203.72C770.263 207.08 775.675 208.477 780.983 207.613C780.878 210.134 781.508 212.627 782.784 214.745C784.562 217.633 787.258 219.729 790.368 220.64C788.45 224.676 787.432 229.136 787.393 233.667C787.275 235.089 787.56 236.517 788.21 237.762C788.411 238.215 788.727 238.597 789.122 238.864C789.517 239.132 789.974 239.274 790.441 239.274C790.908 239.274 791.365 239.132 791.76 238.864C792.155 238.597 792.471 238.215 792.672 237.762C793.657 235.369 794.894 233.104 796.359 231.012C798.258 228.572 800.928 226.969 803.859 226.512C814.857 225.23 816.239 240.687 811.84 247.099C804.634 257.584 798.517 250.474 798.517 250.474C798.236 255.389 798.931 260.312 800.556 264.916C802.182 269.521 804.7 273.702 807.944 277.181C815.761 279.655 824.047 279.88 831.972 277.834C841.734 263.412 847.872 256.392 853.088 243.95C864.107 217.603 858.786 201.065 850.26 194.091C848.584 181.963 839.681 176.519 829.521 174.021C814.354 170.264 800.193 179.938 785.152 176.271C782.683 175.716 780.243 175.025 777.84 174.201C776.915 173.735 775.86 173.663 774.887 173.999C774.348 174.383 773.925 174.929 773.672 175.569C773.419 176.209 773.346 176.915 773.462 177.598C773.651 180.703 776.584 184.146 778.071 185.811C774.786 186.134 771.475 185.929 768.246 185.203C767.125 184.978 765.974 184.978 764.852 185.203C763.622 185.742 762.582 186.685 761.882 187.898C761.182 189.11 760.858 190.53 760.956 191.953C760.968 194.177 761.415 196.373 762.266 198.4C763.118 200.426 764.356 202.239 765.9 203.72V203.72Z" fill="#263238"/>
<path d="M850.532 198.005L861.006 191.255C860.173 189.764 858.822 188.688 857.25 188.266C855.679 187.844 854.016 188.11 852.627 189.005C851.238 189.9 850.237 191.352 849.844 193.039C849.451 194.727 849.699 196.513 850.532 198.005V198.005Z" fill="#263238"/>
<path d="M714.031 375.234C711.657 365.214 709.367 355.179 707.16 345.129C705.065 335.882 701.839 325.172 704.793 315.722C706.472 311.595 708.58 307.685 711.078 304.068C713.239 300.254 715.062 296.232 716.524 292.053C717.257 290.028 717.928 287.958 718.619 285.911C719.31 283.863 720.295 282.693 719.834 280.736C718.305 274.323 710.596 282.738 709.025 285.371C708.327 286.752 707.514 288.063 706.595 289.285C705.589 290.433 703.138 291.873 701.965 290.185C701.574 289.508 701.357 288.732 701.336 287.936C700.54 278.058 703.85 269.216 706.595 259.991C707.028 258.78 707.289 257.506 707.37 256.211C707.419 255.565 707.338 254.914 707.132 254.305C706.926 253.695 706.6 253.14 706.176 252.679C705.493 252.116 704.684 251.757 703.83 251.639C702.977 251.52 702.109 251.646 701.316 252.004C699.765 252.566 698.425 253.624 696.874 254.141C695.324 254.659 694.172 254.659 692.81 255.041C689.58 255.815 686.469 257.08 683.572 258.799C678.544 261.971 676.324 266.606 675.004 272.501C673.419 279.742 672.881 287.201 673.412 294.618C673.768 299.545 674.585 304.405 675.151 309.265L677.036 325.532C678.314 336.377 678.691 390.556 680.43 401.333C682.169 412.11 685.52 419.333 693.46 422.91C704.982 427.95 723.605 405.18 734.184 393.391L714.031 375.234Z" fill="#FFA8A7"/>
<path d="M709.821 369.091C702.405 375.054 693.166 384.976 691.302 394.921C691.302 394.921 689.459 377.034 709.821 361.171V369.091Z" fill="#F28F8F"/>
<path d="M765.251 308.883C758.128 309.603 746.397 309.873 734.456 323.665C720.609 339.774 699.263 371.544 699.263 371.544C699.263 371.544 702.049 396.833 724.715 405.9C724.715 405.9 757.667 372.151 764.748 357.617C771.828 343.082 773.42 318.985 765.251 308.883Z" fill="#37474F"/>
<path d="M755.761 255.424L746.753 250.227L751.927 245.479L733.22 236.074L741.39 230.989L721.238 219.47L733.22 230.832L723.479 236.074L745.454 246.289L740.028 252.116L755.761 255.424Z" fill="#BA68C8"/>
<path d="M760.348 242.667L754.483 236.637L757.688 234.095L752.535 227.525L757.479 225.725L755.761 217.4L759.238 226.377L755.761 227.997L761.333 234.567L757.562 237.447L760.348 242.667Z" fill="#BA68C8"/>
<path d="M756.934 264.941L745.873 274.211L741.788 267.754L732.11 273.401L728.151 265.414L713.172 269.531L730.497 260.621L735.462 267.979L743.506 263.344L746.858 269.531L756.934 264.941Z" fill="#BA68C8"/>
<path d="M680.032 430.83C680.368 430.53 680.802 430.385 681.238 430.427C681.673 430.47 682.076 430.695 682.357 431.055C684.499 433.639 687.281 435.514 690.379 436.463C693.476 437.411 696.761 437.393 699.849 436.41C700.06 436.33 700.283 436.297 700.506 436.313C700.729 436.328 700.947 436.392 701.146 436.5C701.345 436.608 701.522 436.759 701.666 436.942C701.81 437.126 701.918 437.339 701.983 437.568C702.048 437.798 702.069 438.039 702.045 438.278C702.021 438.516 701.952 438.747 701.843 438.956C701.734 439.166 701.586 439.349 701.409 439.495C701.232 439.641 701.029 439.748 700.813 439.808C697.109 440.985 693.169 441 689.458 439.852C685.746 438.704 682.417 436.44 679.864 433.328C679.721 433.153 679.611 432.949 679.542 432.728C679.472 432.507 679.445 432.274 679.46 432.041C679.476 431.809 679.534 431.582 679.633 431.374C679.731 431.166 679.866 430.981 680.032 430.83V430.83Z" fill="#E0E0E0"/>
<path d="M681.708 442.732C682.002 442.469 682.372 442.324 682.755 442.324C683.138 442.324 683.509 442.469 683.803 442.732C685.508 444.057 687.462 444.964 689.528 445.392C691.595 445.819 693.723 445.756 695.764 445.207C696.197 445.121 696.644 445.222 697.009 445.487C697.373 445.752 697.626 446.161 697.712 446.625C697.755 446.852 697.755 447.087 697.713 447.315C697.67 447.542 697.586 447.759 697.465 447.951C697.345 448.144 697.189 448.308 697.009 448.436C696.828 448.564 696.626 448.652 696.414 448.695C693.89 449.324 691.268 449.35 688.734 448.771C686.2 448.191 683.816 447.021 681.75 445.342C681.584 445.191 681.448 445.007 681.35 444.799C681.252 444.591 681.194 444.364 681.178 444.131C681.162 443.899 681.19 443.665 681.259 443.445C681.329 443.224 681.438 443.02 681.582 442.845C681.619 442.802 681.661 442.764 681.708 442.732V442.732Z" fill="#E0E0E0"/>
<path d="M887.401 306.363C887.208 306.471 886.996 306.536 886.779 306.554C886.562 306.573 886.344 306.545 886.137 306.471C885.93 306.398 885.739 306.281 885.575 306.127C885.41 305.973 885.277 305.786 885.181 305.575C883.652 302.531 881.35 300.014 878.544 298.318C875.737 296.621 872.539 295.814 869.323 295.991C869.106 296.004 868.888 295.971 868.682 295.894C868.477 295.817 868.287 295.697 868.125 295.541C867.797 295.227 867.599 294.786 867.574 294.314C867.549 293.843 867.699 293.38 867.992 293.028C868.284 292.675 868.695 292.462 869.134 292.436C872.996 292.219 876.835 293.189 880.2 295.234C883.566 297.278 886.318 300.312 888.135 303.978C888.326 304.4 888.356 304.885 888.219 305.33C888.082 305.776 887.789 306.146 887.401 306.363V306.363Z" fill="#E0E0E0"/>
<path d="M888.323 294.438C887.972 294.636 887.567 294.691 887.181 294.591C886.796 294.492 886.457 294.246 886.228 293.898C884.876 292.201 883.199 290.837 881.313 289.897C879.426 288.958 877.373 288.465 875.293 288.453C875.076 288.444 874.862 288.39 874.665 288.292C874.467 288.195 874.289 288.056 874.141 287.885C873.994 287.714 873.879 287.513 873.803 287.294C873.727 287.074 873.693 286.842 873.701 286.608C873.709 286.375 873.76 286.145 873.851 285.933C873.942 285.721 874.071 285.53 874.23 285.371C874.39 285.212 874.577 285.089 874.781 285.008C874.985 284.927 875.202 284.889 875.419 284.898C878.002 284.926 880.549 285.561 882.879 286.758C885.21 287.955 887.268 289.686 888.91 291.828C889.146 292.209 889.234 292.674 889.156 293.123C889.078 293.573 888.839 293.972 888.491 294.236L888.323 294.438Z" fill="#E0E0E0"/>
<path d="M917.609 424.125C917.399 423.713 917.35 423.229 917.472 422.778C917.593 422.327 917.876 421.946 918.259 421.718C921.018 419.936 923.248 417.349 924.691 414.258C926.134 411.166 926.729 407.699 926.408 404.258C926.382 404.026 926.399 403.79 926.459 403.565C926.519 403.34 926.62 403.13 926.757 402.948C926.893 402.765 927.063 402.614 927.255 402.503C927.446 402.392 927.657 402.323 927.874 402.301C928.31 402.25 928.747 402.388 929.089 402.683C929.431 402.978 929.649 403.407 929.697 403.876C930.07 407.99 929.349 412.134 927.618 415.826C925.886 419.518 923.215 422.607 919.914 424.733C919.726 424.859 919.517 424.943 919.298 424.981C919.08 425.018 918.857 425.008 918.642 424.952C918.427 424.895 918.225 424.793 918.048 424.651C917.87 424.509 917.721 424.33 917.609 424.125V424.125Z" fill="#E0E0E0"/>
<path d="M928.733 424.553C928.546 424.186 928.483 423.762 928.556 423.351C928.628 422.941 928.832 422.57 929.131 422.303C930.651 420.776 931.845 418.913 932.629 416.843C933.414 414.772 933.772 412.544 933.677 410.311C933.677 409.839 933.851 409.387 934.162 409.054C934.472 408.72 934.893 408.533 935.332 408.533C935.771 408.533 936.192 408.72 936.502 409.054C936.812 409.387 936.987 409.839 936.987 410.311C937.077 413.081 936.606 415.839 935.608 418.394C934.61 420.95 933.108 423.243 931.205 425.115C931.034 425.26 930.839 425.368 930.63 425.431C930.421 425.495 930.202 425.514 929.986 425.487C929.77 425.459 929.561 425.387 929.371 425.273C929.181 425.159 929.014 425.006 928.88 424.823L928.733 424.553Z" fill="#E0E0E0"/>
<path d="M736.027 638.478C736.418 638.691 736.716 639.059 736.857 639.505C736.998 639.951 736.971 640.438 736.781 640.863C735.455 644.013 734.99 647.503 735.443 650.926C735.896 654.348 737.246 657.562 739.337 660.19C739.62 660.552 739.759 661.02 739.724 661.492C739.689 661.963 739.482 662.401 739.149 662.71C738.817 663.016 738.387 663.168 737.951 663.134C737.516 663.101 737.11 662.883 736.823 662.53C734.312 659.367 732.693 655.499 732.159 651.382C731.625 647.264 732.196 643.068 733.807 639.288C734.005 638.868 734.348 638.548 734.763 638.396C735.178 638.245 735.632 638.274 736.027 638.478V638.478Z" fill="#E0E0E0"/>
<path d="M726.642 644.89C727 645.072 727.286 645.385 727.447 645.773C727.608 646.161 727.635 646.598 727.522 647.005C727.082 649.191 727.089 651.453 727.541 653.636C727.993 655.819 728.88 657.871 730.141 659.65C730.388 660.037 730.484 660.512 730.41 660.974C730.336 661.437 730.096 661.849 729.743 662.125C729.384 662.396 728.94 662.503 728.508 662.423C728.076 662.343 727.691 662.082 727.438 661.697C725.885 659.473 724.804 656.911 724.268 654.19C723.733 651.47 723.756 648.657 724.338 645.948C724.402 645.722 724.508 645.512 724.648 645.331C724.789 645.149 724.962 645 725.157 644.891C725.352 644.782 725.565 644.716 725.784 644.696C726.003 644.677 726.224 644.705 726.433 644.778L726.642 644.89Z" fill="#E0E0E0"/>
<path d="M612.913 20.7539C612.81 18.6559 612.245 16.6139 611.266 14.7954C610.286 12.9768 608.92 11.4334 607.278 10.2917L602.711 7.43422C600.964 6.49571 599.039 6.00708 597.086 6.00708C595.133 6.00708 593.208 6.49571 591.461 7.43422L485.357 73.2903C483.717 74.4347 482.352 75.9787 481.373 77.7967C480.394 79.6148 479.828 81.6553 479.722 83.7525V142.679C479.83 144.776 480.396 146.815 481.375 148.633C482.354 150.451 483.718 151.995 485.357 153.141L489.945 155.976C491.687 156.93 493.614 157.427 495.569 157.427C497.525 157.427 499.452 156.93 501.194 155.976L607.278 90.1424C608.92 89.0006 610.286 87.4572 611.266 85.6387C612.245 83.8201 612.81 81.7781 612.913 79.6801V20.7539Z" fill="#BA68C8"/>
<path opacity="0.5" d="M612.913 20.7539C612.81 18.6559 612.245 16.6139 611.266 14.7954C610.286 12.9768 608.92 11.4334 607.278 10.2917L602.711 7.43422C600.964 6.49571 599.039 6.00708 597.086 6.00708C595.133 6.00708 593.208 6.49571 591.461 7.43422L485.357 73.2903C483.717 74.4347 482.352 75.9787 481.373 77.7967C480.394 79.6148 479.828 81.6553 479.722 83.7525V142.679C479.83 144.776 480.396 146.815 481.375 148.633C482.354 150.451 483.718 151.995 485.357 153.141L489.945 155.976C491.687 156.93 493.614 157.427 495.569 157.427C497.525 157.427 499.452 156.93 501.194 155.976L607.278 90.1424C608.92 89.0006 610.286 87.4572 611.266 85.6387C612.245 83.8201 612.81 81.7781 612.913 79.6801V20.7539Z" fill="white"/>
<path opacity="0.2" d="M479.722 142.679C479.83 144.776 480.396 146.816 481.375 148.633C482.354 150.451 483.718 151.995 485.357 153.141L489.945 155.976C491.529 156.834 493.265 157.321 495.038 157.407C496.811 157.492 498.581 157.173 500.23 156.471C497.57 157.551 495.559 155.954 495.559 152.489V93.5624C495.627 91.4557 496.197 89.4029 497.214 87.6001L481.377 77.7903C480.357 79.5919 479.787 81.6454 479.722 83.7526V142.679Z" fill="black"/>
<path opacity="0.3" d="M612.724 19.0441C612.075 16.4792 609.896 15.6467 607.298 17.2667L501.194 83.1002C499.524 84.2007 498.152 85.7522 497.214 87.6001L481.398 77.7903C482.334 75.9483 483.698 74.398 485.357 73.2904L591.44 7.45688C593.182 6.50279 595.11 6.00537 597.065 6.00537C599.02 6.00537 600.948 6.50279 602.69 7.45688L607.298 10.2918C608.707 11.2809 609.914 12.5664 610.846 14.0708C611.779 15.5752 612.418 17.267 612.724 19.0441Z" fill="white"/>
<path d="M495.58 112.62L479.764 102.81L460.7 122.519C460.414 122.829 460.196 123.205 460.065 123.619C459.934 124.032 459.892 124.473 459.942 124.906C459.992 125.34 460.134 125.755 460.356 126.122C460.578 126.488 460.875 126.795 461.224 127.019L476.789 136.739C477.433 137.101 478.158 137.265 478.884 137.212L495.643 133.769V112.62H495.58Z" fill="#BA68C8"/>
<path opacity="0.5" d="M495.58 112.62L479.764 102.81L460.7 122.519C460.414 122.829 460.196 123.205 460.065 123.619C459.934 124.032 459.892 124.473 459.942 124.906C459.992 125.34 460.134 125.755 460.356 126.122C460.578 126.488 460.875 126.795 461.224 127.019L476.789 136.739C477.433 137.101 478.158 137.265 478.884 137.212L495.643 133.769V112.62H495.58Z" fill="white"/>
<path opacity="0.3" d="M476.789 136.739L468.41 131.586L467.425 130.889L462.942 128.099L462.397 127.739L461.203 126.997C460.854 126.772 460.558 126.465 460.335 126.099C460.113 125.733 459.972 125.317 459.921 124.884C459.871 124.45 459.913 124.01 460.044 123.596C460.176 123.183 460.393 122.807 460.68 122.497L479.743 102.787L495.58 112.619L476.517 132.239C476.214 132.528 475.977 132.887 475.823 133.289C475.669 133.692 475.603 134.126 475.629 134.56C475.655 134.994 475.773 135.416 475.974 135.794C476.175 136.171 476.454 136.495 476.789 136.739V136.739Z" fill="white"/>
<path d="M526.563 94.5074C524.374 96.0364 522.552 98.0988 521.245 100.527C519.938 102.954 519.184 105.679 519.042 108.48C519.042 113.609 522.415 115.702 526.563 113.137C528.749 111.607 530.567 109.544 531.871 107.116C533.174 104.688 533.925 101.963 534.062 99.1648C534.062 93.9899 530.711 91.9424 526.563 94.5074Z" fill="white"/>
<path d="M554.236 77.3179C552.05 78.8481 550.231 80.9112 548.928 83.3392C547.625 85.7672 546.874 88.4914 546.736 91.2901C546.736 96.42 550.088 98.5124 554.236 95.925C556.419 94.3969 558.236 92.3374 559.539 89.9136C560.842 87.4898 561.595 84.7701 561.735 81.9753C561.693 76.8229 558.384 74.7304 554.236 77.3179Z" fill="white"/>
<path d="M581.909 60.1055C579.726 61.6398 577.91 63.7038 576.607 66.1309C575.305 68.5581 574.552 71.2803 574.409 74.0777C574.409 79.2301 577.761 81.3001 581.909 78.7351C584.1 77.2038 585.924 75.138 587.231 72.7059C588.538 70.2739 589.291 67.5446 589.429 64.7404C589.429 59.633 586.057 57.5406 581.909 60.1055Z" fill="white"/>
<path d="M817.14 136.266L809.536 120.989L815.653 102.022V90.3447L796.925 101.954V113.564L804.969 128.549C805.102 128.773 805.291 128.952 805.514 129.066V129.066L817.14 136.266Z" fill="#BA68C8"/>
<path opacity="0.2" d="M817.14 136.266L809.536 120.989L815.653 102.022V90.3447L796.925 101.954V113.564L804.969 128.549C805.102 128.773 805.291 128.952 805.514 129.066V129.066L817.14 136.266Z" fill="black"/>
<path d="M874.015 14.7472C873.911 12.6551 873.349 10.6189 872.373 8.80471C871.397 6.99048 870.037 5.44953 868.401 4.30746L863.834 1.47253C862.096 0.518623 860.172 0.0212402 858.22 0.0212402C856.268 0.0212402 854.344 0.518623 852.606 1.47253L746.753 67.1486C745.125 68.3047 743.77 69.852 742.796 71.6679C741.821 73.4839 741.254 75.5186 741.139 77.6109V136.402C741.243 138.494 741.805 140.53 742.781 142.345C743.757 144.159 745.118 145.7 746.753 146.842L751.32 149.677C753.063 150.612 754.985 151.098 756.934 151.098C758.883 151.098 760.805 150.612 762.548 149.677L808.635 120.877L816.679 135.817C816.795 136.017 816.961 136.178 817.157 136.282C817.354 136.386 817.574 136.428 817.792 136.405C818.01 136.381 818.218 136.293 818.391 136.149C818.565 136.006 818.697 135.813 818.774 135.592L827.279 109.29L868.296 83.9782C869.932 82.8361 871.293 81.2952 872.268 79.481C873.244 77.6667 873.807 75.6306 873.911 73.5384L874.015 14.7472Z" fill="#BA68C8"/>
<path d="M772.855 88.9954L857.487 36.504C860.001 34.9515 862.033 36.054 862.033 38.979C861.919 40.6142 861.448 42.1975 860.658 43.6009C859.869 45.0042 858.782 46.188 857.487 47.0563L772.855 99.5476C770.362 101.1 768.33 99.9976 768.33 97.0727C768.443 95.44 768.911 93.8586 769.697 92.4557C770.483 91.0528 771.565 89.8676 772.855 88.9954V88.9954Z" fill="white"/>
<path d="M772.855 112.372L857.487 59.9033C860.001 58.3509 862.033 59.4534 862.033 62.3558C861.922 63.9949 861.453 65.5828 860.663 66.9903C859.873 68.3978 858.785 69.5851 857.487 70.4556L772.855 122.924C770.362 124.499 768.33 123.374 768.33 120.472C768.44 118.835 768.907 117.249 769.693 115.842C770.479 114.435 771.562 113.247 772.855 112.372V112.372Z" fill="white"/>
<path opacity="0.2" d="M741.139 136.402C741.243 138.494 741.805 140.53 742.781 142.344C743.757 144.158 745.118 145.699 746.753 146.841L751.32 149.676C752.902 150.531 754.634 151.016 756.403 151.102C758.172 151.187 759.938 150.87 761.585 150.171C758.945 151.229 756.934 149.631 756.934 146.189V87.3976C757.001 85.3009 757.563 83.2569 758.568 81.4577L742.773 71.6479C741.768 73.4553 741.206 75.5066 741.139 77.6103V136.402Z" fill="black"/>
<path opacity="0.2" d="M873.827 12.9919C873.177 10.4269 870.999 9.61695 868.401 11.2144L762.548 76.913C760.882 78.0116 759.516 79.564 758.589 81.4129L742.794 71.6256C743.733 69.7866 745.096 68.2372 746.753 67.1257L852.585 1.42714C854.331 0.488628 856.257 0 858.21 0C860.162 0 862.088 0.488628 863.834 1.42714L868.401 4.26207C869.811 5.24367 871.02 6.5243 871.953 8.02546C872.886 9.52661 873.524 11.2166 873.827 12.9919V12.9919Z" fill="white"/>
</svg>
