<svg width="1000" height="1000" viewBox="0 0 1000 1000" fill="none" xmlns="http://www.w3.org/2000/svg">
<path d="M500 1000C776.142 1000 1000 866.74 1000 702.355C1000 537.971 776.142 404.711 500 404.711C223.858 404.711 0 537.971 0 702.355C0 866.74 223.858 1000 500 1000Z" fill="#F5F5F5"/>
<path d="M781.927 829.648C862.152 829.648 927.187 791.268 927.187 743.924C927.187 696.58 862.152 658.201 781.927 658.201C701.701 658.201 636.666 696.58 636.666 743.924C636.666 791.268 701.701 829.648 781.927 829.648Z" fill="#E6E6E6"/>
<path d="M500 857.842C590.599 857.842 664.045 814.507 664.045 761.051C664.045 707.594 590.599 664.259 500 664.259C409.4 664.259 335.955 707.594 335.955 761.051C335.955 814.507 409.4 857.842 500 857.842Z" fill="#E6E6E6"/>
<path d="M213.15 829.648C293.375 829.648 358.41 791.268 358.41 743.924C358.41 696.58 293.375 658.201 213.15 658.201C132.925 658.201 67.8892 696.58 67.8892 743.924C67.8892 791.268 132.925 829.648 213.15 829.648Z" fill="#E6E6E6"/>
<path d="M155.314 630.729C157.069 610.271 146.195 566.582 127.73 538.132C109.264 509.682 78.2607 487.336 54.347 493.371C32.0746 498.987 31.9378 528.183 56.4899 549.736C81.0419 571.289 118.428 598.947 127.16 633.199L147.859 676.096L155.314 630.729Z" fill="#BA68C8"/>
<path opacity="0.1" d="M155.314 630.729C157.069 610.271 146.195 566.582 127.73 538.132C109.264 509.682 78.2607 487.336 54.347 493.371C32.0746 498.987 31.9378 528.183 56.4899 549.736C81.0419 571.289 118.428 598.947 127.16 633.199L147.859 676.096L155.314 630.729Z" fill="black"/>
<path d="M154.378 658.876C154.063 658.818 153.776 658.657 153.558 658.418C153.34 658.178 153.204 657.873 153.17 657.548C145.761 586.481 95.3573 524.734 63.3279 509.215C63.1534 509.131 62.9972 509.011 62.8681 508.865C62.7391 508.718 62.6399 508.546 62.5763 508.36C62.5127 508.173 62.4859 507.976 62.4975 507.779C62.5091 507.582 62.5589 507.389 62.644 507.212C62.7324 507.042 62.853 506.892 62.9988 506.77C63.1446 506.649 63.3126 506.558 63.4931 506.504C63.6736 506.45 63.8628 506.433 64.0497 506.454C64.2367 506.476 64.4176 506.535 64.5817 506.629C97.2266 522.427 148.565 585.199 156.088 657.362C156.11 657.557 156.093 657.754 156.04 657.942C155.986 658.13 155.896 658.306 155.775 658.458C155.654 658.61 155.504 658.735 155.334 658.827C155.165 658.919 154.979 658.976 154.788 658.993C154.646 658.979 154.507 658.939 154.378 658.876Z" fill="white"/>
<path d="M140.359 702.683C138.079 690.892 125.997 670.667 105.115 652.982C81.9992 633.433 51.5656 622.691 45.5473 608.524C38.3207 591.515 53.0246 577.394 78.0098 582.893C102.995 588.392 144.371 627.561 146.947 681.246L140.359 702.683Z" fill="#BA68C8"/>
<path d="M146.286 691.055C146.004 691.002 145.744 690.87 145.534 690.672C145.324 690.474 145.173 690.218 145.1 689.936C129.279 628.212 86.3986 603.187 65.95 598.597C65.7415 598.576 65.5398 598.51 65.3582 598.403C65.1766 598.296 65.0192 598.151 64.8964 597.978C64.7735 597.805 64.6881 597.606 64.6457 597.397C64.6033 597.187 64.6048 596.97 64.6503 596.761C64.6957 596.552 64.784 596.356 64.9093 596.184C65.0347 596.012 65.1941 595.87 65.3773 595.766C65.5604 595.662 65.7631 595.599 65.9718 595.581C66.1806 595.563 66.3907 595.59 66.5883 595.661C89.2026 600.741 131.787 626.162 147.95 689.191C148.003 689.432 147.999 689.684 147.937 689.923C147.875 690.163 147.757 690.383 147.594 690.567C147.43 690.75 147.226 690.89 146.998 690.975C146.77 691.06 146.526 691.087 146.286 691.055V691.055Z" fill="white"/>
<path d="M823.257 658.224C821.41 636.717 833.493 567.514 852.893 537.642C872.293 507.771 907.445 477.596 932.567 483.934C955.956 489.852 956.116 520.516 930.287 543.164C904.459 565.813 865.226 594.892 856.107 630.845L833.31 691.66L823.257 658.224Z" fill="#BA68C8"/>
<path opacity="0.1" d="M823.257 658.224C821.41 636.717 833.493 567.514 852.893 537.642C872.293 507.771 907.445 477.596 932.567 483.934C955.956 489.852 956.116 520.516 930.287 543.164C904.459 565.813 865.226 594.892 856.107 630.845L833.31 691.66L823.257 658.224Z" fill="black"/>
<path d="M827.496 657.851C827.828 657.788 828.13 657.619 828.36 657.367C828.59 657.116 828.735 656.795 828.773 656.453C836.547 581.774 889.526 516.905 923.151 500.594C923.335 500.507 923.5 500.383 923.636 500.23C923.773 500.076 923.878 499.897 923.946 499.702C924.014 499.507 924.043 499.3 924.032 499.093C924.021 498.886 923.969 498.683 923.881 498.497C923.798 498.307 923.678 498.136 923.528 497.995C923.379 497.854 923.203 497.745 923.011 497.675C922.819 497.606 922.616 497.576 922.412 497.589C922.209 497.603 922.011 497.658 921.829 497.751C887.634 514.365 833.583 580.306 825.695 656.197C825.673 656.402 825.691 656.61 825.748 656.808C825.805 657.006 825.9 657.19 826.027 657.351C826.154 657.511 826.312 657.644 826.489 657.742C826.667 657.84 826.862 657.901 827.063 657.921C827.21 657.921 827.357 657.898 827.496 657.851V657.851Z" fill="white"/>
<path d="M842.246 703.87C844.526 691.474 854.329 670.434 874.868 650.278C899.945 625.556 940.135 613.487 946.473 598.621C954.064 580.772 939.771 567.444 913.737 574.248C878.767 583.382 837.983 624.997 835.316 681.432L842.246 703.87Z" fill="#BA68C8"/>
<path d="M836 691.637C836.294 691.59 836.569 691.457 836.791 691.254C837.013 691.052 837.174 690.788 837.254 690.495C853.872 625.626 907.673 593.307 929.17 588.484C929.369 588.44 929.558 588.356 929.725 588.237C929.893 588.118 930.035 587.967 930.146 587.792C930.256 587.616 930.331 587.421 930.367 587.216C930.403 587.011 930.399 586.8 930.355 586.597C930.315 586.392 930.235 586.197 930.119 586.024C930.004 585.851 929.855 585.704 929.683 585.591C929.511 585.478 929.318 585.402 929.116 585.366C928.915 585.331 928.708 585.337 928.509 585.385C904.732 590.744 851.228 623.482 834.267 689.679C834.212 689.88 834.197 690.09 834.223 690.296C834.248 690.503 834.314 690.702 834.416 690.882C834.518 691.062 834.654 691.22 834.816 691.345C834.979 691.471 835.164 691.562 835.361 691.613C835.57 691.667 835.788 691.675 836 691.637V691.637Z" fill="white"/>
<path d="M851.297 238.787C837.231 223.968 813.865 189.413 813.865 189.413L799.457 138.477C799.115 138.617 806.798 138.64 809.123 138.477C824.693 139.549 829.275 140.807 838.964 151.735C846.646 160.333 875.074 205.514 885.287 219.308L913.236 179.836C919.71 169.817 918.661 158.609 922.035 150.407C925.409 142.205 930.835 138.617 935.189 131.231C939.543 123.844 940.592 118.998 944.171 122.772C947.75 126.547 943.624 136.753 943.076 139.083C942.529 141.413 937.104 148.403 946.2 144.722C955.296 141.04 969.384 124.077 973.031 120.605C976.679 117.134 978.571 122.516 977.75 126.78C976.93 131.044 980.851 140.761 979.414 147.751C977.91 155.23 976.838 158.656 969.794 165.902C963.206 172.683 947.134 180.978 940.842 189.855C934.551 198.733 921.123 226.321 912.916 242.958C902.476 264.092 891.032 276.115 877.536 264.301C867.186 255.098 856.517 244.286 851.297 238.787Z" fill="#FFBDA7"/>
<path d="M815.324 138.08C827.247 139.199 833.561 141.972 845.461 157.909C857.361 173.847 884.991 215.812 884.991 215.812L908.859 185.963C908.859 185.963 925.295 198.756 933.935 213.715C933.935 213.715 910.842 253.326 901.587 263.322C892.331 273.318 885.173 274.11 872.589 263.322C860.005 252.534 823.713 211.618 823.713 211.618L815.324 138.08Z" fill="#F0F0F0"/>
<path d="M884.991 215.812C879.588 223.804 876.1 236.782 877.057 243.33C877.057 243.33 869.534 234.475 882.186 211.571L884.991 215.812Z" fill="#E0E0E0"/>
<path d="M710.14 732.414H737.245L742.648 683.365H710.14V732.414Z" fill="#FFBDA7"/>
<path d="M799.685 681.968L828.568 682.947L828.044 632.174L795.376 631.522L799.685 681.968Z" fill="#FFBDA7"/>
<path d="M710.436 338.165C709.912 365.054 704.327 543.002 704.327 543.002C702.396 557.544 701.247 572.184 700.884 586.854C700.155 622.411 707.45 706.807 707.45 706.807C709.068 714.473 737.086 717.595 740.801 710.675C740.801 710.675 756.121 588.252 760.475 553.068C764.259 522.358 776.775 421.931 776.775 421.931L786.44 520.61C786.071 532.111 786.337 543.625 787.238 555.095C788.355 571.406 796.357 667.382 796.357 667.382C796.494 673.37 825.628 678.31 830.552 669.502C830.552 669.502 839.671 529.325 840.058 514.389C840.377 497.356 838.052 336.231 838.052 336.231L710.436 338.165Z" fill="#37474F"/>
<path d="M738.795 718.317L739.251 714.146C740.756 714.146 741.417 715.87 742.032 719.552C743.307 727.403 745.727 735.014 749.213 742.13C753.773 751.8 756.508 755.831 765.581 767.481C767.724 770.254 772.58 774.658 774.29 777.734C775.999 780.809 776.569 789.384 773.697 791.365C763.119 798.565 747.048 798.774 735.672 795.372C731.36 794.302 727.47 791.913 724.521 788.524C721.573 785.135 719.705 780.908 719.167 776.406C717.321 765.827 716.34 759.28 711.074 751.287C709.137 748.351 706.013 745.975 704.714 742.713C702.434 736.818 704.235 730.2 705.74 724.328C707.039 719.272 708.453 713.703 710.14 714.169V717.292C712.169 719.622 719.258 721.952 725.641 722.138C729.745 722.301 738.841 721.532 738.795 718.317Z" fill="#263238"/>
<path d="M828.478 674.931C829.184 675.42 830.757 677.261 833.744 680.104C836.718 682.747 839.839 685.213 843.09 687.49C849.702 692.439 856.65 696.901 863.881 700.841C872.475 705.665 880.226 708.601 890.507 713.331C891.586 713.774 892.564 714.441 893.38 715.288C894.002 716.039 894.433 716.935 894.634 717.898C894.934 719.882 894.69 721.912 893.93 723.763C893.169 725.614 891.921 727.213 890.325 728.383C887.103 730.684 883.446 732.272 879.588 733.043C870.866 735.546 861.677 735.826 852.824 733.859C845.175 731.644 837.914 728.216 831.304 723.7C825.798 719.709 819.529 716.954 812.908 715.614C807.14 714.775 800.05 715.055 795.035 711.537C789.495 707.622 791.707 699.257 793.28 692.057C794.989 684.228 795.377 672.251 798.865 672.508L799.138 675.653C799.457 679.032 807.482 680.593 813.683 680.593C818.835 680.593 828.569 679.218 828.523 676.748L828.478 674.931Z" fill="#263238"/>
<path d="M779.738 384.277C790.794 379.901 800.873 373.291 809.374 364.844C809.374 364.844 804.655 378.824 785.3 390.475L786.577 513.27L776.82 421.884L779.738 384.277Z" fill="#263238"/>
<path d="M754.115 135.076C749.214 136.264 733.598 140.575 720.923 145.142C714.532 147.636 708.988 151.975 704.965 157.631C695.847 171.355 704.054 201.902 710.824 259.315C710.323 296.41 709.274 342.546 709.274 342.546C725.961 354.965 803.812 363.4 838.942 337.187C838.942 337.187 840.104 197.964 837.779 179.86C833.22 145.188 820.066 135.938 792.664 134.307L754.115 135.076Z" fill="#BA68C8"/>
<path opacity="0.6" d="M754.115 135.076C749.214 136.264 733.598 140.575 720.923 145.142C714.532 147.636 708.988 151.975 704.965 157.631C695.847 171.355 704.054 201.902 710.824 259.315C710.323 296.41 709.274 342.546 709.274 342.546C725.961 354.965 803.812 363.4 838.942 337.187C838.942 337.187 840.104 197.964 837.779 179.86C833.22 145.188 820.066 135.938 792.664 134.307L754.115 135.076Z" fill="white"/>
<path d="M801.965 175.758C804.427 184.426 818.994 245.334 816.942 266.771C815.379 277.771 812.468 288.527 808.279 298.786C801.965 314.048 797.747 300.394 794.237 291.376C791.267 282.969 789.277 274.233 788.309 265.349C787.147 253.839 791.683 218.864 789.928 177.855C791.253 175.947 793.265 174.654 795.522 174.261C797.779 173.868 800.096 174.406 801.965 175.758V175.758Z" fill="#BA68C8"/>
<path opacity="0.2" d="M801.965 175.758C804.427 184.426 818.994 245.334 816.942 266.771C815.379 277.771 812.468 288.527 808.279 298.786C801.965 314.048 797.747 300.394 794.237 291.376C791.267 282.969 789.277 274.233 788.309 265.349C787.147 253.839 791.683 218.864 789.928 177.855C791.253 175.947 793.265 174.654 795.522 174.261C797.779 173.868 800.096 174.406 801.965 175.758V175.758Z" fill="black"/>
<path d="M802.512 156.185C808.28 161.218 801.965 175.735 801.965 175.735C797.838 174.826 793.527 175.577 789.928 177.832C789.928 177.832 778.53 172.822 778.416 164.108C778.416 156.185 786.645 158.725 792.504 157.677C798.637 156.581 801.828 151.945 802.512 156.185Z" fill="#BA68C8"/>
<path opacity="0.2" d="M802.512 156.185C808.28 161.218 801.965 175.735 801.965 175.735C797.838 174.826 793.527 175.577 789.928 177.832C789.928 177.832 778.53 172.822 778.416 164.108C778.416 156.185 786.645 158.725 792.504 157.677C798.637 156.581 801.828 151.945 802.512 156.185Z" fill="black"/>
<path opacity="0.2" d="M801.965 175.758C801.03 172.356 796.494 172.683 792.846 171.518C790.801 170.689 789.09 169.178 787.991 167.23C786.121 163.945 787.991 158.492 790.59 157.91C785.004 158.306 778.371 157.001 778.393 164.108C778.393 172.822 789.906 177.832 789.906 177.832C793.514 175.579 797.834 174.836 801.965 175.758V175.758Z" fill="black"/>
<path d="M762.321 54.5939C762.521 61.7538 764.792 68.6926 768.846 74.5349C772.901 80.3771 778.557 84.861 785.102 87.4207C791.647 89.9804 798.788 90.5012 805.622 88.9173C812.456 87.3335 818.678 83.7161 823.503 78.5214C828.328 73.3268 831.54 66.7878 832.733 59.7296C833.925 52.6713 833.046 45.4101 830.205 38.8622C827.364 32.3143 822.69 26.7731 816.771 22.9379C810.853 19.1026 803.955 17.1452 796.949 17.3126C792.277 17.4243 787.672 18.4786 783.4 20.415C779.127 22.3514 775.271 25.1317 772.053 28.5961C768.836 32.0605 766.319 36.1407 764.649 40.6023C762.979 45.0639 762.188 49.8188 762.321 54.5939V54.5939Z" fill="#455A64"/>
<path d="M737.086 80.9238C737.086 80.9238 743.492 108.372 745.885 112.846C747.472 115.602 750.035 117.629 753.043 118.508L752.2 99.0984L737.086 80.9238Z" fill="#455A64"/>
<path d="M743.377 41.1963C741.372 41.0173 739.354 41.306 737.474 42.0406C735.595 42.7753 733.903 43.9366 732.526 45.437C727.967 50.4933 730.907 65.8951 737.085 80.9242L747.937 81.9261L743.377 41.1963Z" fill="#455A64"/>
<path d="M751.197 81.856C749.054 83.2308 745.862 79.0366 743.104 76.2405C740.345 73.4444 731.546 69.7629 727.397 79.2463C723.248 88.7298 731.774 101.359 738.795 103.409C750.741 106.928 752.336 99.0986 752.336 99.0986L754.365 148.589C762.823 159.145 782.724 159.727 792.595 157.677C800.483 156.046 800.597 150.337 792.823 141.576L792.459 127.386C797.746 128.125 803.096 128.281 808.416 127.852C817.102 126.244 822.459 119.091 824.853 109.374C828.5 94.5317 829.412 77.9648 825.742 50.8427C821.183 17.4992 782.998 18.2216 762.777 31.8059C742.557 45.3903 751.197 81.856 751.197 81.856Z" fill="#FFBDA7"/>
<path d="M751.288 85.5841C750.193 85.5841 745.862 78.5939 743.104 76.2638C739.297 72.8852 743.377 41.3126 743.377 41.3126C742.035 38.561 741.535 35.4601 741.942 32.4137C742.348 29.3674 743.643 26.5168 745.657 24.2331C750.649 18.338 757.625 11.1148 780.969 13.3516C797.611 14.9594 815.802 19.806 830.21 12.1167C831.677 16.9483 831.7 22.1178 830.274 26.9624C828.849 31.8071 826.04 36.1063 822.208 39.3087C822.208 39.3087 816.988 42.9204 803.15 44.9708C789.313 47.0213 767.61 45.5067 764.646 45.1805C760.611 44.7145 759.836 48.7222 757.921 59.6736C756.143 69.1803 754.958 85.421 751.288 85.5841Z" fill="#455A64"/>
<path d="M743.469 43.6659L730.155 36.6757C730.553 35.7604 731.129 34.9374 731.848 34.2567C732.567 33.5761 733.414 33.052 734.338 32.7164C735.261 32.3807 736.241 32.2405 737.219 32.3043C738.197 32.3681 739.152 32.6345 740.026 33.0874C741.831 34.0493 743.199 35.6907 743.842 37.6648C744.484 39.6388 744.35 41.7908 743.469 43.6659V43.6659Z" fill="#455A64"/>
<path d="M792.367 127.386C792.367 127.386 772.808 123.868 765.923 120.396C761.868 118.355 758.514 115.105 756.303 111.075C757.426 115.119 759.333 118.891 761.911 122.167C767.04 128.551 792.504 133.118 792.504 133.118L792.367 127.386Z" fill="#F0997A"/>
<path d="M785.825 76.9857C785.752 77.7623 785.459 78.5001 784.98 79.1077C784.501 79.7152 783.858 80.1657 783.131 80.4033C782.404 80.641 781.625 80.6552 780.89 80.4443C780.155 80.2335 779.497 79.8068 778.997 79.2171C778.498 78.6275 778.178 77.9009 778.079 77.1274C777.979 76.354 778.104 75.5677 778.438 74.8661C778.772 74.1645 779.3 73.5784 779.956 73.1806C780.613 72.7829 781.369 72.5908 782.132 72.6284C783.186 72.706 784.168 73.2085 784.861 74.0256C785.553 74.8427 785.9 75.9074 785.825 76.9857V76.9857Z" fill="#263238"/>
<path d="M783.294 61.9802L774.723 66.2443C774.182 65.0448 774.118 63.6777 774.543 62.4306C774.968 61.1835 775.85 60.1535 777.002 59.557C777.566 59.2649 778.184 59.0961 778.815 59.061C779.447 59.026 780.078 59.1256 780.67 59.3535C781.262 59.5814 781.801 59.9326 782.252 60.3848C782.704 60.837 783.059 61.3803 783.294 61.9802Z" fill="#263238"/>
<path d="M788.059 103.829L800.233 107.231C800.041 108.053 799.691 108.828 799.202 109.51C798.713 110.191 798.096 110.766 797.386 111.201C796.677 111.635 795.889 111.92 795.071 112.038C794.252 112.157 793.418 112.107 792.619 111.891C790.995 111.396 789.619 110.286 788.771 108.787C787.923 107.288 787.669 105.514 788.059 103.829V103.829Z" fill="#F0997A"/>
<path d="M823.713 65.685L814.594 62.4928C814.751 61.8671 815.034 61.2816 815.424 60.7735C815.814 60.2654 816.304 59.8457 816.861 59.5412C817.418 59.2366 818.032 59.0538 818.662 59.0044C819.292 58.955 819.925 59.04 820.521 59.254C821.771 59.6855 822.806 60.6007 823.402 61.8032C823.999 63.0057 824.111 64.3994 823.713 65.685Z" fill="#263238"/>
<path d="M819.154 75.8676C819.211 76.397 819.165 76.9327 819.019 77.4441C818.874 77.9554 818.631 78.4325 818.305 78.8479C817.979 79.2634 817.576 79.6091 817.119 79.8654C816.663 80.1216 816.161 80.2834 815.643 80.3414C814.589 80.4121 813.551 80.0554 812.753 79.3488C811.955 78.6422 811.462 77.6426 811.38 76.5667C811.335 76.0449 811.391 75.5193 811.545 75.0197C811.699 74.5202 811.947 74.0565 812.277 73.6551C812.606 73.2537 813.009 72.9226 813.463 72.6805C813.918 72.4385 814.414 72.2902 814.925 72.2443C815.435 72.1984 815.95 72.2558 816.438 72.413C816.927 72.5703 817.381 72.8244 817.773 73.1608C818.166 73.4973 818.49 73.9095 818.727 74.3739C818.964 74.8384 819.109 75.3459 819.154 75.8676V75.8676Z" fill="#263238"/>
<path d="M798.113 73.6072L799.526 97.5837L811.745 93.2497L798.113 73.6072Z" fill="#F0997A"/>
<path d="M792.504 157.677C781.676 155.347 756.03 145.118 753.613 132.326L753.294 125.335C749.077 125.335 747.162 130.112 745.087 136.986C744.221 155.067 762.892 171.588 781.562 176.038C782.189 171.845 783.589 167.813 785.688 164.155C787.28 161.351 789.653 159.096 792.504 157.677V157.677Z" fill="#BA68C8"/>
<path d="M792.413 129.157C795.271 130.053 797.87 131.653 799.981 133.817C814.001 148.66 806 168.116 806 168.116C805.275 164.88 803.469 162.004 800.893 159.984C798.429 158.273 795.476 157.453 792.504 157.654C795.946 153.902 794.601 147.355 792.732 141.553L792.413 129.157Z" fill="#BA68C8"/>
<path d="M833.174 65.0324L831.282 64.846C824.951 64.059 818.54 64.2633 812.269 65.4518C806.16 67.1527 803.948 69.0401 800.597 69.0867C797.246 69.1333 794.807 67.1993 788.424 65.5217C781.726 64.3726 774.901 64.2079 768.158 65.0324L766.106 65.2654L737.086 73.2342C739.58 73.6364 741.874 74.874 743.606 76.7527L764.761 70.9042C765.057 71.3236 765.354 71.6964 765.559 71.9527C765.851 72.3904 766.06 72.8806 766.174 73.3974C766.578 76.7509 767.288 80.0584 768.294 83.2769C768.891 84.6048 769.726 85.8063 770.756 86.8186C771.151 87.2057 771.578 87.5566 772.033 87.8671L772.785 88.3332C773.512 88.7347 774.276 89.0624 775.065 89.3118L775.453 89.4283L776.045 89.5914L776.684 89.7312C777.346 89.8665 778.016 89.9599 778.69 90.0108H779.533H780.605C788.948 90.0108 792.55 86.3759 794.761 82.6245C796.973 78.873 796.631 73.5838 800.46 73.5838H800.825H801.167C803.994 74.1663 803.447 79.0362 805.134 82.508C805.77 83.9706 806.658 85.3044 807.755 86.4458L808.371 87.0283L808.713 87.3079L809.078 87.5875L809.397 87.7972L809.739 88.0302L810.012 88.1934H810.217C811.25 88.7545 812.355 89.1625 813.5 89.405H813.797C815.125 89.671 816.478 89.796 817.832 89.7778C825.628 89.7778 828.478 85.5138 829.845 82.7876C831.041 79.5756 831.957 76.2617 832.581 72.8847C832.726 72.3893 832.993 71.9401 833.356 71.5799C834.33 70.5899 834.989 69.3233 835.248 67.945C835.268 67.2929 835.075 66.6526 834.7 66.1252C834.324 65.5978 833.787 65.2133 833.174 65.0324V65.0324ZM792.687 79.1526C792.125 81.1591 791.027 82.9662 789.518 84.372C786.97 86.5352 783.704 87.6117 780.399 87.3778C778.776 87.4978 777.148 87.2175 775.652 86.5607C774.157 85.9038 772.837 84.8895 771.805 83.6031L771.531 83.2303C771.447 83.1114 771.371 82.9868 771.304 82.8575C771.219 82.7518 771.15 82.6341 771.098 82.508L770.916 82.205L770.802 81.9487C770.802 81.9487 770.802 81.7856 770.688 81.7157C770.574 81.6458 770.574 81.4827 770.528 81.3429C770.369 80.9701 770.255 80.5973 770.141 80.2478C770.141 80.0148 770.004 79.8051 769.959 79.5954C769.913 79.3857 769.776 78.8497 769.708 78.5235C769.639 78.1973 769.708 78.407 769.708 78.3371V78.1274C769.161 75.5177 768.591 70.3915 770.073 69.2265C771.554 68.0615 775.384 66.8964 781.471 67.3625H782.132C783.075 67.4513 784.011 67.5991 784.936 67.8052L786.03 68.0382C786.955 68.2619 787.868 68.5341 788.766 68.8537L789.586 69.1799L790.498 69.576H790.681L791 69.7624C791.687 70.0773 792.301 70.538 792.801 71.1139C794.077 72.8381 793.485 76.2401 792.687 79.1526ZM828.911 77.8944C828.585 79.6883 827.858 81.3809 826.786 82.8401C825.714 84.2992 824.327 85.4854 822.733 86.306C821.288 86.9207 819.739 87.2374 818.174 87.238C816.456 87.4332 814.717 87.1785 813.122 86.4977C811.527 85.817 810.127 84.7327 809.055 83.3468V83.3468C808.994 83.2748 808.941 83.1967 808.895 83.1138C808.827 83.0262 808.766 82.9326 808.713 82.8342V82.6944L808.485 82.2749L808.257 81.7856C808.253 81.708 808.253 81.6302 808.257 81.5526V81.3429C808.243 81.2894 808.243 81.2333 808.257 81.1798C808.015 80.5563 807.839 79.9079 807.733 79.2459C807.186 76.3333 806.98 72.9313 808.211 71.3236C809.442 69.7158 814.07 67.945 818.493 67.4324C819.519 67.4324 820.476 67.2459 821.342 67.2226H823.873H824.625C825.107 67.2647 825.587 67.3347 826.061 67.4324H826.38H826.608H826.95L827.361 67.5488L828.022 67.8052C828.564 68.0112 829.071 68.302 829.526 68.6673C830.552 70.1585 829.595 75.308 828.911 77.8944Z" fill="#37474F"/>
<path d="M753.658 133.095C753.658 133.095 761.911 175.432 765.467 204.069C769.023 232.706 768.362 313.583 766.447 364.844C765.08 402.126 759.608 471.282 759.608 471.282C759.608 471.282 750.49 473.146 728.81 469.465C710.254 466.343 700.861 460.727 696.895 458.281C696.895 458.281 700.337 353.264 702.959 316.588C705.352 282.779 705.238 264.185 705.238 264.185L697.442 186.989C697.442 186.989 698.034 138.477 712.761 136.427C727.967 134.306 753.658 133.095 753.658 133.095Z" fill="#FAFAFA"/>
<path d="M739.57 202.531C739.57 200.76 739.388 196.939 739.091 192.092C737.632 168.442 739.752 134.213 747.549 132.512L748.256 135.774C742.534 137.032 741.645 180.395 742.351 191.882C742.67 196.822 742.898 200.713 742.83 202.671L739.57 202.531Z" fill="#BA68C8"/>
<path d="M709.958 385.163C706.196 378.615 705.991 373.722 700.315 367.873C697.885 365.471 696.116 362.458 695.186 359.136C693.453 353.893 693.544 348.417 693.134 342.685L660.193 344.246C660.469 356.771 661.827 369.247 664.25 381.528C670.497 409.652 676.538 421.489 688.369 424.215C707.245 428.572 711.896 420.254 705.262 406.343C702.413 400.542 700.372 394.361 699.198 387.982C701.241 390.444 703.613 392.601 706.242 394.39C707.582 395.412 709.252 395.877 710.914 395.691C712.577 395.505 714.109 394.682 715.201 393.388C716.022 392.153 712.921 390.312 709.958 385.163Z" fill="#FFBDA7"/>
<path d="M718.848 136.427C718.848 136.427 701.318 136.17 691.492 145.211C681.667 154.252 676.446 178.438 670.086 202.694C663.726 226.95 658.072 250.484 656.408 267.354C654.995 281.334 659.6 355.571 659.6 355.571C659.6 355.571 679.638 359.881 695.048 351.237L695.71 268.868L721.128 186.29C725.769 169.867 724.968 152.336 718.848 136.427Z" fill="#F0F0F0"/>
<path d="M753.043 119.3C750.764 118.811 748.643 120.046 746.774 123.308C744.905 126.57 740.779 133.42 740.779 133.42C740.779 133.42 738.658 156.162 740.779 161.824C742.625 166.717 754.867 189.785 754.867 189.785C754.867 189.785 754.069 212.247 753.864 218.958C753.659 225.668 766.379 253.676 767.815 266.678C767.815 266.678 768.454 213.808 766.562 199.105C763.279 173.474 759.176 142.95 753.636 132.465L753.043 119.3Z" fill="#EBEBEB"/>
<path d="M734.806 280.985H734.532V278.655C737.235 278.44 739.826 277.456 742.009 275.812C739.668 274.219 737.57 272.279 735.786 270.057C732.115 265.187 724.068 230.445 726.53 222.36C728.628 215.579 735.147 200.62 740.938 200.364H741.097C746.888 200.364 754.525 214.508 757.055 221.032C760.201 228.884 755.072 264.185 751.812 269.358C750.224 271.729 748.295 273.842 746.09 275.626C748.393 277.091 751.059 277.851 753.772 277.816L754.069 280.146C750.523 280.2 747.043 279.161 744.084 277.163C741.4 279.296 738.186 280.62 734.806 280.985ZM741.211 202.671C737.792 202.811 731.682 213.925 728.878 223.012C726.599 230.445 734.35 264.068 737.746 268.565C739.581 270.816 741.75 272.758 744.175 274.321C746.475 272.563 748.484 270.439 750.125 268.03C753.134 263.253 758.058 229.094 755.163 221.871C751.652 213.04 744.722 202.671 741.28 202.671H741.211Z" fill="#455A64"/>
<path d="M757.602 278.818C757.624 279.266 757.558 279.715 757.409 280.138C757.26 280.56 757.03 280.949 756.733 281.28C756.437 281.611 756.079 281.88 755.68 282.069C755.281 282.258 754.85 282.365 754.411 282.383C753.971 282.403 753.531 282.334 753.117 282.18C752.703 282.026 752.323 281.791 751.998 281.487C751.673 281.183 751.41 280.816 751.223 280.408C751.037 280 750.931 279.559 750.911 279.109C750.892 278.659 750.959 278.21 751.11 277.787C751.26 277.363 751.491 276.975 751.788 276.643C752.086 276.31 752.444 276.041 752.843 275.851C753.242 275.66 753.674 275.552 754.114 275.532C754.555 275.514 754.994 275.584 755.408 275.739C755.821 275.894 756.201 276.131 756.525 276.436C756.849 276.741 757.111 277.108 757.296 277.517C757.48 277.926 757.585 278.368 757.602 278.818V278.818Z" fill="#263238"/>
<path d="M737.997 279.656C738.016 280.106 737.947 280.555 737.795 280.978C737.644 281.401 737.412 281.789 737.113 282.12C736.815 282.451 736.455 282.719 736.055 282.908C735.656 283.097 735.223 283.203 734.783 283.221C734.344 283.243 733.905 283.176 733.491 283.023C733.078 282.871 732.698 282.636 732.374 282.333C732.05 282.03 731.787 281.664 731.602 281.256C731.417 280.849 731.313 280.408 731.295 279.959C731.276 279.509 731.343 279.06 731.493 278.637C731.644 278.213 731.874 277.825 732.172 277.493C732.469 277.16 732.828 276.891 733.227 276.701C733.626 276.51 734.058 276.402 734.498 276.382C734.938 276.362 735.378 276.431 735.792 276.585C736.206 276.739 736.586 276.974 736.911 277.278C737.236 277.582 737.499 277.949 737.685 278.357C737.872 278.765 737.978 279.206 737.997 279.656V279.656Z" fill="#263238"/>
<path d="M757.853 236.341L755.939 236.201C755.84 236.195 755.743 236.169 755.654 236.125C755.565 236.081 755.485 236.019 755.42 235.943C755.354 235.867 755.304 235.779 755.271 235.683C755.239 235.588 755.226 235.486 755.232 235.385C755.619 228.861 755.414 224.061 754.639 222.151C751.265 213.716 744.267 203.161 741.235 203.3C738.203 203.44 732.116 214.555 729.426 223.246C728.854 227.654 729.024 232.13 729.927 236.481C729.961 236.681 729.914 236.887 729.799 237.053C729.683 237.219 729.508 237.332 729.312 237.366L727.397 237.669C727.298 237.682 727.198 237.675 727.102 237.648C727.005 237.621 726.915 237.574 726.837 237.512C726.759 237.449 726.693 237.37 726.644 237.281C726.596 237.192 726.565 237.095 726.554 236.993C725.505 229.747 725.368 224.76 726.166 222.197C727.579 217.537 734.304 200.085 741.075 199.782C747.846 199.479 756.007 216.302 757.808 220.753C758.811 223.246 759.107 228.209 758.651 235.525C758.658 235.634 758.642 235.743 758.604 235.845C758.567 235.947 758.508 236.04 758.432 236.117C758.357 236.194 758.266 236.254 758.167 236.293C758.067 236.331 757.96 236.348 757.853 236.341Z" fill="#BA68C8"/>
<path d="M792.368 127.386C795.377 127.666 797.999 132.209 804.929 134.376C817.877 138.291 829.64 144.302 833.265 152.434C839.283 165.902 840.264 168.558 842.384 228.535C844.504 288.511 845.256 459.213 845.256 459.213C839.039 462.085 832.266 463.479 825.446 463.29C825.446 463.29 825.97 274.787 824.739 232.403C823.508 190.019 817.216 169.327 808.234 155.347C805.704 143.697 797.634 135.914 792.277 130.229L792.368 127.386Z" fill="#FAFAFA"/>
<path d="M808.279 155.393C817.261 169.374 823.53 190.041 824.784 232.449C824.921 237.482 825.058 244.565 825.172 253.07C825.172 253.07 832.558 214.67 831.258 206.468C829.959 198.267 821.296 181.397 821.296 181.397C822.413 167.416 819.222 151.432 813.956 141.785C812.731 139.537 811.195 137.481 809.396 135.681C807.646 134.23 805.778 132.936 803.811 131.813C800.44 129.362 796.521 127.816 792.413 127.316V130.205C797.679 135.96 805.749 143.696 808.279 155.393Z" fill="#EBEBEB"/>
<path d="M537.022 136.147C554.233 135.867 563.489 143.766 576.118 164.108C586.901 181.397 611.863 222.802 618.885 235.268C626.818 249.249 628.003 255.074 621.712 265.559C615.807 275.579 559.818 341.66 559.818 341.66L545.388 315.47L581.361 254.002L539.187 190.321L537.022 136.147Z" fill="#B16668"/>
<path d="M535.905 135.284C548.352 134.609 556.103 137.242 563.603 144.605C571.103 151.968 609.743 218.282 609.743 218.282C609.743 218.282 604.181 231.866 571.581 249.621L539.666 205.35L535.905 135.284Z" fill="#BA68C8"/>
<path opacity="0.2" d="M535.905 135.284C548.352 134.609 556.103 137.242 563.603 144.605C571.103 151.968 609.743 218.282 609.743 218.282C609.743 218.282 604.181 231.866 571.581 249.621L539.666 205.35L535.905 135.284Z" fill="black"/>
<path d="M621.392 743.995C621.985 743.995 622.897 750.845 619.614 753.734C615.807 757.09 604.637 762.612 589.865 760.724C575.092 758.837 567.068 754.107 561.209 749.074C555.35 744.041 547.007 736.888 540.327 735.373C534.127 733.975 527.402 731.109 525.418 729.152C523.435 727.195 523.709 718.48 523.709 718.48L621.392 743.995Z" fill="#455A64"/>
<path d="M529.635 684.857C529.079 684.852 528.54 685.056 528.12 685.429C527.7 685.803 527.428 686.32 527.356 686.884C526.9 689.214 526.421 696.204 525.441 700.212C523.902 707.155 523.41 714.298 523.982 721.393C524.803 725.843 534.901 728.942 541.376 731.459C548.972 734.871 556.026 739.426 562.303 744.973C569.142 750.822 583.846 756.903 593.466 756.833C604.865 756.833 617.654 752.989 620.594 747.513C624.242 740.826 621.392 736.958 604.5 728.872C601.308 727.358 590.092 720.554 586.262 718.107C575.913 711.443 565.745 702.169 560.89 690.379C560.51 688.936 559.657 687.669 558.473 686.791C557.437 686.34 556.289 686.234 555.191 686.488C552.377 686.894 549.641 687.735 547.075 688.981C544.795 690.1 541.581 691.311 541.627 694.34C541.692 695.369 541.907 696.382 542.265 697.346C542.47 697.952 542.63 698.768 542.105 699.117C541.581 699.467 540.965 699.117 540.532 698.674C538.872 696.935 537.348 695.065 535.973 693.082C535.19 692.057 534.295 691.127 533.306 690.309C532.307 689.727 531.341 689.089 530.411 688.399C529.385 687.537 529.635 686.232 529.635 684.857Z" fill="#BA68C8"/>
<path opacity="0.9" d="M529.635 684.857C529.079 684.852 528.54 685.056 528.12 685.429C527.7 685.803 527.428 686.32 527.356 686.884C526.9 689.214 526.421 696.204 525.441 700.212C523.902 707.155 523.41 714.298 523.982 721.393C524.803 725.843 534.901 728.942 541.376 731.459C548.972 734.871 556.026 739.426 562.303 744.973C569.142 750.822 583.846 756.903 593.466 756.833C604.865 756.833 617.654 752.989 620.594 747.513C624.242 740.826 621.392 736.958 604.5 728.872C601.308 727.358 590.092 720.554 586.262 718.107C575.913 711.443 565.745 702.169 560.89 690.379C560.51 688.936 559.657 687.669 558.473 686.791C557.437 686.34 556.289 686.234 555.191 686.488C552.377 686.894 549.641 687.735 547.075 688.981C544.795 690.1 541.581 691.311 541.627 694.34C541.692 695.369 541.907 696.382 542.265 697.346C542.47 697.952 542.63 698.768 542.105 699.117C541.581 699.467 540.965 699.117 540.532 698.674C538.872 696.935 537.348 695.065 535.973 693.082C535.19 692.057 534.295 691.127 533.306 690.309C532.307 689.727 531.341 689.089 530.411 688.399C529.385 687.537 529.635 686.232 529.635 684.857Z" fill="white"/>
<path d="M562.303 744.974C559.362 742.504 556.239 740.104 553.184 737.983C553.184 737.983 573.04 750.333 581.064 744.717C586.239 741.129 583.777 736.725 583.641 735.397C583.504 734.069 596.27 728.011 601.285 727.405C602.699 728.197 603.861 728.826 604.591 729.176C621.483 737.168 624.333 741.036 620.685 747.816C617.744 753.199 608.466 757.416 593.762 757.416C584.028 757.207 569.233 750.822 562.303 744.974Z" fill="#BA68C8"/>
<path opacity="0.8" d="M562.303 744.974C559.362 742.504 556.239 740.104 553.184 737.983C553.184 737.983 573.04 750.333 581.064 744.717C586.239 741.129 583.777 736.725 583.641 735.397C583.504 734.069 596.27 728.011 601.285 727.405C602.699 728.197 603.861 728.826 604.591 729.176C621.483 737.168 624.333 741.036 620.685 747.816C617.744 753.199 608.466 757.416 593.762 757.416C584.028 757.207 569.233 750.822 562.303 744.974Z" fill="white"/>
<path d="M582.068 731.202C592.577 735.49 588.086 737.494 585.168 737.936C582.25 738.379 564.651 727.8 553.777 719.086C542.539 709.999 535.54 700.072 531.277 696.74C529.727 695.482 528.04 693.968 526.558 692.523C526.832 690.193 527.06 688.026 527.265 686.884C527.337 686.32 527.609 685.803 528.029 685.429C528.449 685.056 528.988 684.852 529.544 684.857C529.544 686.232 529.339 687.537 530.365 688.585C531.295 689.276 532.262 689.914 533.26 690.496C534.25 691.313 535.145 692.243 535.928 693.269C537.302 695.251 538.827 697.121 540.487 698.861C549.697 710.744 571.673 726.915 582.068 731.202Z" fill="#BA68C8"/>
<path d="M584.507 736.352C584.311 736.355 584.117 736.3 583.951 736.193C583.784 736.087 583.65 735.934 583.566 735.752C583.482 735.57 583.451 735.368 583.476 735.168C583.502 734.969 583.583 734.781 583.709 734.628C586.182 732.003 589.178 729.953 592.493 728.614C595.809 727.275 599.367 726.68 602.927 726.869C603.181 726.924 603.407 727.073 603.559 727.289C603.712 727.504 603.78 727.77 603.752 728.034C603.724 728.299 603.6 728.543 603.406 728.719C603.211 728.895 602.959 728.992 602.699 728.989C599.483 728.854 596.276 729.405 593.281 730.609C590.286 731.813 587.569 733.642 585.305 735.979C585.206 736.097 585.084 736.191 584.946 736.255C584.808 736.319 584.659 736.352 584.507 736.352V736.352Z" fill="#FAFAFA"/>
<path d="M575.343 730.596C575.101 730.588 574.868 730.498 574.682 730.34C574.473 730.159 574.342 729.902 574.316 729.623C574.291 729.344 574.373 729.066 574.545 728.849C577.027 726.238 580.025 724.199 583.338 722.865C586.652 721.531 590.206 720.934 593.763 721.113C593.9 721.124 594.033 721.164 594.155 721.229C594.277 721.295 594.384 721.384 594.471 721.493C594.559 721.602 594.624 721.727 594.662 721.862C594.701 721.997 594.713 722.138 594.697 722.278C594.683 722.416 594.642 722.55 594.577 722.672C594.512 722.793 594.424 722.901 594.318 722.987C594.212 723.074 594.09 723.138 593.959 723.177C593.829 723.215 593.692 723.226 593.557 723.21C590.339 723.079 587.129 723.632 584.131 724.835C581.133 726.039 578.412 727.866 576.141 730.2C576.046 730.324 575.925 730.425 575.787 730.493C575.649 730.562 575.497 730.597 575.343 730.596V730.596Z" fill="#FAFAFA"/>
<path d="M566.11 725.144C565.874 725.14 565.647 725.049 565.472 724.888C565.364 724.801 565.274 724.694 565.208 724.572C565.141 724.45 565.1 724.315 565.085 724.176C565.07 724.037 565.082 723.897 565.121 723.763C565.16 723.629 565.225 723.504 565.312 723.396C567.791 720.776 570.792 718.729 574.111 717.395C577.43 716.06 580.991 715.469 584.552 715.661C584.825 715.691 585.073 715.832 585.244 716.05C585.416 716.269 585.495 716.547 585.464 716.826C585.434 717.104 585.297 717.358 585.083 717.533C584.87 717.708 584.597 717.789 584.324 717.758C581.109 717.621 577.901 718.172 574.906 719.376C571.91 720.58 569.194 722.409 566.931 724.748C566.832 724.872 566.706 724.973 566.564 725.041C566.422 725.11 566.267 725.145 566.11 725.144Z" fill="#FAFAFA"/>
<path d="M557.699 718.899C557.459 718.901 557.225 718.819 557.038 718.666C556.829 718.485 556.698 718.228 556.672 717.949C556.647 717.67 556.729 717.393 556.901 717.175C559.381 714.56 562.378 712.516 565.691 711.178C569.005 709.84 572.56 709.239 576.118 709.416C576.266 709.414 576.412 709.444 576.547 709.504C576.683 709.564 576.804 709.652 576.904 709.763C577.003 709.874 577.079 710.006 577.125 710.149C577.172 710.292 577.189 710.443 577.174 710.593C577.159 710.743 577.114 710.888 577.041 711.019C576.968 711.15 576.869 711.264 576.75 711.353C576.631 711.442 576.495 711.504 576.351 711.535C576.207 711.567 576.057 711.567 575.913 711.536C572.694 711.396 569.481 711.946 566.482 713.15C563.483 714.353 560.763 716.185 558.497 718.526C558.401 718.648 558.279 718.744 558.141 718.809C558.002 718.874 557.851 718.905 557.699 718.899Z" fill="#FAFAFA"/>
<path d="M549.377 712.678C549.145 712.675 548.921 712.593 548.739 712.445C548.632 712.359 548.542 712.252 548.475 712.13C548.409 712.008 548.367 711.873 548.352 711.734C548.337 711.595 548.35 711.455 548.389 711.321C548.428 711.187 548.493 711.062 548.58 710.954C552.637 705.688 561.847 702.24 569.575 703.102C569.71 703.117 569.841 703.159 569.959 703.226C570.078 703.293 570.183 703.383 570.267 703.491C570.352 703.6 570.415 703.724 570.453 703.857C570.49 703.99 570.502 704.129 570.487 704.267C570.472 704.405 570.431 704.538 570.365 704.659C570.3 704.781 570.212 704.888 570.106 704.974C570 705.061 569.879 705.125 569.749 705.164C569.618 705.202 569.482 705.214 569.347 705.199C562.394 704.43 553.823 707.529 550.198 712.189C550.109 712.331 549.988 712.449 549.845 712.534C549.703 712.619 549.542 712.669 549.377 712.678Z" fill="#FAFAFA"/>
<path d="M461.724 770.604C462.157 780.856 461.268 787.777 458.327 794.138C455.387 800.499 448.867 803.039 441.937 801.99C435.006 800.942 425.865 797.144 423.061 788.546C420.257 779.948 420.052 773.866 420.667 764.243L461.724 770.604Z" fill="#455A64"/>
<path d="M427.552 699.49C424.771 700.003 425.273 713.797 425.045 727.661C424.771 742.55 421.078 749.074 420.713 761.284C420.326 775.264 421.625 781.299 427.165 789.245C432.704 797.19 450.212 803.528 457.279 790.759C463.047 780.344 462.249 769.532 460.288 755.808C458.26 741.665 456.732 731.715 456.231 720.857C455.752 710.488 455.478 700.422 452.948 699.514C452.948 701.051 452.948 702.985 452.948 704.5C452.948 705.665 453.176 711.28 451.626 711.49C451.374 710.208 451.237 708.906 451.215 707.599C451.266 706.416 450.875 705.258 450.121 704.36C449.189 703.641 448.051 703.257 446.884 703.265C444.09 702.959 441.282 702.803 438.472 702.799C437.059 702.799 435.668 702.799 434.277 703.055C433.076 703.16 431.899 703.459 430.789 703.941C430.466 704.08 430.176 704.29 429.94 704.555C429.703 704.821 429.527 705.136 429.422 705.479C429.33 706.003 429.33 706.539 429.422 707.063C429.536 708.015 429.536 708.977 429.422 709.929C429.422 710.348 429.148 710.884 428.738 710.814C428.327 710.745 428.236 710.372 428.191 710.022C428.031 708.368 428.191 707.133 427.986 705.199C427.986 704.314 427.986 703.079 427.986 702.17C427.986 701.261 427.575 700.376 427.552 699.49Z" fill="#BA68C8"/>
<path opacity="0.9" d="M427.552 699.49C424.771 700.003 425.273 713.797 425.045 727.661C424.771 742.55 421.078 749.074 420.713 761.284C420.326 775.264 421.625 781.299 427.165 789.245C432.704 797.19 450.212 803.528 457.279 790.759C463.047 780.344 462.249 769.532 460.288 755.808C458.26 741.665 456.732 731.715 456.231 720.857C455.752 710.488 455.478 700.422 452.948 699.514C452.948 701.051 452.948 702.985 452.948 704.5C452.948 705.665 453.176 711.28 451.626 711.49C451.374 710.208 451.237 708.906 451.215 707.599C451.266 706.416 450.875 705.258 450.121 704.36C449.189 703.641 448.051 703.257 446.884 703.265C444.09 702.959 441.282 702.803 438.472 702.799C437.059 702.799 435.668 702.799 434.277 703.055C433.076 703.16 431.899 703.459 430.789 703.941C430.466 704.08 430.176 704.29 429.94 704.555C429.703 704.821 429.527 705.136 429.422 705.479C429.33 706.003 429.33 706.539 429.422 707.063C429.536 708.015 429.536 708.977 429.422 709.929C429.422 710.348 429.148 710.884 428.738 710.814C428.327 710.745 428.236 710.372 428.191 710.022C428.031 708.368 428.191 707.133 427.986 705.199C427.986 704.314 427.986 703.079 427.986 702.17C427.986 701.261 427.575 700.376 427.552 699.49Z" fill="white"/>
<path d="M420.964 757.3C420.964 759.304 420.531 772.632 424.27 774.635C428.008 776.639 429.376 766.271 429.376 766.271C429.376 766.271 438.016 762.566 451.535 767.016C451.079 769.23 453.814 776.057 457.165 774.216C460.516 772.375 460.448 757.137 460.448 756.95C462.295 770.069 462.864 780.554 457.279 790.666C450.212 803.435 432.704 796.981 427.165 789.152C421.625 781.323 420.326 775.171 420.713 761.191C420.759 759.886 420.85 758.558 420.964 757.3Z" fill="#BA68C8"/>
<path opacity="0.8" d="M420.964 757.3C420.964 759.304 420.531 772.632 424.27 774.635C428.008 776.639 429.376 766.271 429.376 766.271C429.376 766.271 438.016 762.566 451.535 767.016C451.079 769.23 453.814 776.057 457.165 774.216C460.516 772.375 460.448 757.137 460.448 756.95C462.295 770.069 462.864 780.554 457.279 790.666C450.212 803.435 432.704 796.981 427.165 789.152C421.625 781.323 420.326 775.171 420.713 761.191C420.759 759.886 420.85 758.558 420.964 757.3Z" fill="white"/>
<path d="M430.493 767.039C430.926 772.026 425.934 770.837 425.045 763.824C424.156 756.81 426.276 739.754 425.045 727.661C425.295 713.797 424.771 700.003 427.552 699.49C427.552 699.677 427.552 699.84 427.552 700.003L427.871 706.993C427.871 708.018 427.871 708.904 428.008 709.976C428.943 720.158 429.467 739.917 429.536 749.284C429.534 755.216 429.854 761.143 430.493 767.039V767.039Z" fill="#BA68C8"/>
<path d="M450.007 767.039C450.638 761.15 450.95 755.23 450.942 749.307C450.942 739.986 451.534 720.46 452.446 710.255C452.791 708.35 452.929 706.412 452.857 704.476C452.857 703.078 452.857 701.307 452.857 699.816C452.868 699.715 452.868 699.614 452.857 699.513C454.703 700.189 455.342 705.688 455.752 712.608C455.752 716.616 455.623 721.633 455.364 727.66C454.133 739.753 456.276 756.926 455.364 763.916C454.452 770.907 449.574 772.025 450.007 767.039Z" fill="#BA68C8"/>
<path d="M451.831 767.389H451.443C444.422 764.898 436.785 764.898 429.764 767.389C429.633 767.463 429.488 767.507 429.339 767.519C429.19 767.531 429.04 767.51 428.899 767.458C428.759 767.406 428.631 767.323 428.524 767.216C428.417 767.11 428.334 766.981 428.28 766.838C428.226 766.696 428.202 766.543 428.21 766.391C428.219 766.238 428.259 766.089 428.328 765.954C428.397 765.818 428.494 765.699 428.612 765.605C428.73 765.511 428.866 765.444 429.011 765.408C436.471 762.643 444.636 762.594 452.127 765.269C452.255 765.317 452.373 765.392 452.473 765.488C452.572 765.584 452.652 765.7 452.707 765.828C452.763 765.956 452.792 766.094 452.794 766.234C452.796 766.374 452.771 766.513 452.72 766.643C452.656 766.841 452.539 767.016 452.381 767.148C452.224 767.28 452.033 767.364 451.831 767.389V767.389Z" fill="#FAFAFA"/>
<path d="M453.107 756.367C452.987 756.389 452.863 756.389 452.742 756.367C444.837 753.846 436.369 753.846 428.464 756.367C428.33 756.437 428.184 756.478 428.034 756.485C427.884 756.493 427.734 756.467 427.594 756.41C427.455 756.354 427.329 756.267 427.225 756.156C427.121 756.045 427.042 755.913 426.992 755.768C426.943 755.623 426.924 755.469 426.938 755.316C426.952 755.163 426.998 755.015 427.073 754.882C427.147 754.748 427.249 754.633 427.371 754.544C427.493 754.454 427.633 754.393 427.78 754.363C436.131 751.652 445.098 751.652 453.449 754.363C453.707 754.458 453.919 754.653 454.038 754.905C454.158 755.158 454.175 755.448 454.087 755.714C454.003 755.908 453.866 756.073 453.692 756.189C453.518 756.305 453.315 756.367 453.107 756.367V756.367Z" fill="#FAFAFA"/>
<path d="M428.122 745.905C427.89 745.896 427.667 745.808 427.489 745.655C427.311 745.503 427.187 745.294 427.138 745.062C427.088 744.83 427.116 744.588 427.215 744.374C427.315 744.159 427.481 743.985 427.689 743.878C439.771 738.262 452.765 743.481 453.289 743.714C453.418 743.763 453.535 743.838 453.635 743.934C453.734 744.03 453.814 744.146 453.869 744.274C453.925 744.402 453.954 744.54 453.956 744.68C453.959 744.82 453.933 744.959 453.882 745.089C453.771 745.348 453.567 745.553 453.312 745.661C453.058 745.77 452.772 745.773 452.514 745.672C452.514 745.672 439.794 740.569 428.555 745.812C428.416 745.865 428.27 745.896 428.122 745.905V745.905Z" fill="#FAFAFA"/>
<path d="M427.894 736.142C427.697 736.146 427.504 736.09 427.337 735.983C427.171 735.875 427.04 735.72 426.959 735.536C426.897 735.411 426.861 735.274 426.851 735.135C426.842 734.995 426.86 734.855 426.905 734.722C426.95 734.589 427.02 734.468 427.111 734.363C427.203 734.259 427.314 734.174 427.438 734.115C431.529 732.209 435.965 731.199 440.46 731.151C444.956 731.103 449.411 732.017 453.54 733.835C453.791 733.956 453.984 734.174 454.078 734.44C454.172 734.706 454.159 735 454.042 735.256C453.919 735.508 453.705 735.7 453.444 735.792C453.184 735.884 452.899 735.867 452.651 735.746C448.791 734.097 444.642 733.274 440.458 733.326C436.275 733.378 432.147 734.305 428.327 736.049C428.192 736.113 428.043 736.145 427.894 736.142V736.142Z" fill="#FAFAFA"/>
<path d="M427.666 725.19C427.47 725.189 427.279 725.131 427.114 725.024C426.949 724.917 426.816 724.765 426.731 724.585C426.613 724.331 426.596 724.04 426.686 723.774C426.775 723.508 426.964 723.289 427.21 723.163C439.611 716.919 452.97 722.884 453.517 723.163C453.642 723.22 453.754 723.301 453.847 723.402C453.941 723.503 454.014 723.622 454.063 723.751C454.111 723.881 454.135 724.02 454.131 724.159C454.127 724.297 454.097 724.434 454.042 724.561C453.986 724.688 453.907 724.803 453.808 724.899C453.709 724.994 453.593 725.069 453.466 725.119C453.339 725.169 453.204 725.192 453.068 725.189C452.932 725.185 452.798 725.154 452.674 725.097C452.537 725.097 439.634 719.272 428.122 725.097C427.979 725.163 427.823 725.195 427.666 725.19Z" fill="#EBEBEB"/>
<path d="M444.672 275.696C437.035 293.65 432.071 312.673 429.946 332.13C424.611 402.918 427.484 504.556 427.484 504.556C426.868 511.966 422.286 528.765 419.209 561.317C415.561 599.786 420.143 730.154 420.143 730.154C420.143 730.154 442.644 743.878 460.174 728.267C460.174 728.267 480.532 549.06 485.251 510.801C489.377 477.434 500.889 405.201 500.889 405.201L514.362 512.012C514.362 512.012 513.108 542.047 513.997 561.456C515 584.035 521.178 699.071 521.178 699.071C521.178 699.071 552.113 709.766 565.928 694.574C565.928 694.574 569.211 535.01 569.69 507.841C570.601 454.552 569.69 357.435 561.232 301.536L444.672 275.696Z" fill="#BA68C8"/>
<path opacity="0.2" d="M444.672 275.696C437.035 293.65 432.071 312.673 429.946 332.13C424.611 402.918 427.484 504.556 427.484 504.556C426.868 511.966 422.286 528.765 419.209 561.317C415.561 599.786 420.143 730.154 420.143 730.154C420.143 730.154 442.644 743.878 460.174 728.267C460.174 728.267 480.532 549.06 485.251 510.801C489.377 477.434 500.889 405.201 500.889 405.201L514.362 512.012C514.362 512.012 513.108 542.047 513.997 561.456C515 584.035 521.178 699.071 521.178 699.071C521.178 699.071 552.113 709.766 565.928 694.574C565.928 694.574 569.211 535.01 569.69 507.841C570.601 454.552 569.69 357.435 561.232 301.536L444.672 275.696Z" fill="black"/>
<path opacity="0.2" d="M500.889 405.177L505.722 371.205C505.722 371.205 533.808 367.36 546.528 355.151C542.884 360.978 538.03 365.913 532.309 369.606C526.588 373.299 520.141 375.659 513.427 376.517L508.481 407.251L512.744 499.196L500.889 405.177Z" fill="black"/>
<path d="M559.112 224.55C557.881 238.531 557.584 265.816 557.584 265.816C562.531 301.513 566.498 336.371 566.498 336.371C514.339 364.821 435.622 341.8 425.706 330.056C430.607 295.105 441.412 273.342 448.502 253.676L435.44 194.189C435.44 194.189 457.94 175.059 455.957 136.263L486.778 132.978L516.186 133.84L537.09 135.355C547.585 145.755 556.774 157.449 564.446 170.166C574.454 186.896 574.842 207.704 559.112 224.55Z" fill="#BA68C8"/>
<path opacity="0.1" d="M523.708 222.359C523.708 222.359 510.03 234.662 493.389 229.792C488.712 228.606 484.413 226.207 480.907 222.827C477.401 219.448 474.806 215.202 473.373 210.499C473.373 210.499 472.826 229.699 493.89 234.872C499.516 236.334 505.453 235.907 510.823 233.654C516.193 231.401 520.711 227.44 523.708 222.359V222.359Z" fill="black"/>
<path d="M480.28 114.104C480.28 108.768 472.94 97.6538 466.238 85.1879C459.535 72.7219 452.309 52.6833 466.238 33.9261C480.166 15.169 511.671 3.93801 530.228 12.9554C548.784 21.9728 553.959 43.5261 553.959 43.5261L480.28 114.104Z" fill="#37474F"/>
<path d="M460.334 69.7167C460.344 69.6707 460.344 69.6228 460.334 69.5769C459.664 68.4498 458.607 67.6188 457.37 67.2468C455.978 66.7185 454.499 66.4732 453.016 66.5245C451.26 66.5245 447.909 67.806 448.023 70.1361C448.137 72.8856 452.583 73.1885 454.498 73.0953C456.158 73.0683 457.807 72.8096 459.399 72.3264C459.426 75.5773 458.972 78.8137 458.054 81.9263C457.49 83.3495 456.599 84.6125 455.455 85.6078C454.688 86.2194 453.794 86.6442 452.842 86.8501C451.89 87.056 450.905 87.0376 449.961 86.7962C448.89 86.6098 449.346 88.1709 449.961 88.4039C451.743 88.91 453.642 88.7658 455.331 87.9961C457.02 87.2265 458.394 85.8794 459.217 84.1865C461.496 80.0622 460.653 75.2856 461.633 70.8118C461.861 70.1594 461.017 69.6235 460.334 69.7167ZM451.648 71.1613C451.306 71.1613 450.417 70.9283 450.212 70.5788C450.007 70.2293 450.326 70.0895 450.531 69.8565C451.348 69.2015 452.315 68.7719 453.341 68.6087C454.367 68.4455 455.417 68.5542 456.39 68.9245C456.943 69.0459 457.485 69.2174 458.008 69.4371C458.291 69.5655 458.566 69.7134 458.829 69.8798L459.171 70.0662H459.376C457.956 70.7764 456.398 71.1507 454.817 71.1613C453.766 71.3121 452.699 71.3121 451.648 71.1613V71.1613Z" fill="#BA68C8"/>
<path d="M541.399 26.7961C548.238 30.431 558.086 38.1902 556.582 74.4229C555.396 102.733 545.183 115.782 540.624 118.252C536.065 120.722 530.046 121.327 520.791 120.325V136.426C520.791 136.426 531.46 165.366 524.985 180.069C516.417 175.333 508.403 169.618 501.095 163.036C485.41 147.634 480.714 140.411 480.714 140.411L480.144 97.5606C480.144 97.5606 473.989 102.221 464.369 94.5781C456.413 88.2869 453.199 77.0792 458.716 70.6249C460.161 68.9969 461.991 67.7756 464.031 67.0779C466.071 66.3802 468.252 66.2296 470.365 66.6405C472.674 67.1622 474.835 68.2194 476.681 69.7304C478.527 71.2414 480.008 73.1658 481.011 75.355C481.444 76.2171 482.105 77.1258 483.04 77.219C483.395 77.2346 483.75 77.1647 484.074 77.0149C484.399 76.8652 484.685 76.6399 484.909 76.3569C485.345 75.7833 485.663 75.1255 485.844 74.4229C487.827 68.4113 486.892 62.1201 488.283 55.992C489.366 51.2658 491.4 46.8219 494.256 42.9436C501.036 34.0437 510.903 28.1463 521.817 26.4699C528.315 25.4363 534.938 25.5467 541.399 26.7961Z" fill="#B16668"/>
<path d="M554.21 44.2025C544.933 38.3563 533.964 35.969 523.161 37.4452C511.35 39.3832 500.062 43.8109 490.015 50.4471C491.142 47.7928 492.556 45.2761 494.232 42.9442C501.032 34.0433 510.913 28.1471 521.839 26.4706C528.32 25.4291 534.928 25.5316 541.376 26.7735C545.707 28.9637 551.133 32.9016 554.21 44.2025Z" fill="#B16668"/>
<path d="M514.066 66.2444C514.195 67.3472 513.89 68.4572 513.219 69.3308C512.548 70.2045 511.565 70.7704 510.487 70.9045C509.973 70.9794 509.449 70.9467 508.948 70.8084C508.447 70.67 507.979 70.429 507.571 70.0999C507.164 69.7709 506.826 69.3606 506.579 68.8941C506.332 68.4276 506.18 67.9145 506.133 67.3861C506.048 66.3062 506.376 65.2348 507.048 64.3965C507.719 63.5583 508.682 63.018 509.734 62.889C510.235 62.8168 510.744 62.8465 511.233 62.9763C511.722 63.1061 512.181 63.3335 512.583 63.6454C512.986 63.9572 513.324 64.3474 513.579 64.7935C513.833 65.2395 513.999 65.7326 514.066 66.2444V66.2444Z" fill="black"/>
<path d="M515.228 93.3665L529.18 96.9781C528.99 97.9367 528.612 98.8459 528.068 99.6507C527.524 100.455 526.826 101.139 526.016 101.66C525.206 102.18 524.301 102.527 523.355 102.68C522.41 102.833 521.445 102.787 520.517 102.547C518.649 102.006 517.057 100.75 516.072 99.0401C515.087 97.3303 514.785 95.2983 515.228 93.3665V93.3665Z" fill="#9A4A4D"/>
<path d="M549.902 56.7373L541.809 52.6364C542.044 52.0859 542.386 51.5901 542.815 51.1791C543.243 50.7681 543.749 50.4505 544.301 50.2456C544.854 50.0407 545.441 49.9528 546.028 49.9873C546.614 50.0217 547.188 50.1779 547.714 50.4461C548.794 51.0123 549.622 51.9787 550.029 53.148C550.436 54.3172 550.39 55.6011 549.902 56.7373V56.7373Z" fill="black"/>
<path d="M510.623 53.592L502.462 57.5066C502.188 56.9757 502.022 56.3933 501.975 55.7949C501.928 55.1966 502 54.5947 502.188 54.0258C502.376 53.457 502.674 52.9331 503.066 52.486C503.458 52.0389 503.935 51.6779 504.468 51.4251C505.57 50.9093 506.824 50.8466 507.969 51.25C509.115 51.6534 510.065 52.4921 510.623 53.592V53.592Z" fill="black"/>
<path d="M546.3 64.3566C546.39 65.4342 546.067 66.5056 545.399 67.3446C544.732 68.1836 543.771 68.7247 542.721 68.8537C542.21 68.9252 541.691 68.8906 541.194 68.7522C540.697 68.6137 540.232 68.3741 539.827 68.0478C539.423 67.7215 539.087 67.3151 538.84 66.853C538.593 66.3909 538.44 65.8826 538.389 65.3585C538.293 64.2771 538.613 63.1998 539.281 62.3557C539.949 61.5116 540.913 60.9672 541.968 60.8382C542.481 60.7668 543.002 60.802 543.5 60.9419C543.999 61.0818 544.464 61.3234 544.869 61.6522C545.274 61.981 545.609 62.39 545.855 62.8548C546.101 63.3196 546.252 63.8305 546.3 64.3566Z" fill="black"/>
<path d="M525.989 63.542L527.972 86.7263L539.712 82.1826L525.989 63.542Z" fill="#9A4A4D"/>
<path d="M520.699 120.326C510.942 118.858 490.266 113.522 486.687 105.693C488.16 110.163 490.926 114.071 494.62 116.9C500.866 121.724 520.699 126.034 520.699 126.034V120.326Z" fill="#9A4A4D"/>
<path d="M554.21 44.2019C554.21 44.2019 549.149 35.9534 525.988 38.1203C513.259 39.5055 500.981 43.7205 490.015 50.4698C483.172 54.7308 477.402 60.5726 473.168 67.5259C472.255 67.1196 471.299 66.8224 470.318 66.6405C468.195 66.2216 466.002 66.3681 463.95 67.0658C461.898 67.7636 460.056 68.9893 458.601 70.6249L458.487 70.7648C454.27 62.8658 451.146 54.8503 452.902 43.1533C455.364 26.6796 471.344 15.1924 489.103 7.59631C510.099 -1.5376 533.123 0.792472 542.333 9.69337C551.543 18.5943 553.96 43.363 554.21 44.2019Z" fill="#BA68C8"/>
<path d="M456.298 340.541C449.92 336.225 444.178 330.999 439.247 325.023C443.374 325.52 447.544 325.52 451.671 325.023C457.324 323.811 458.51 321.388 458.145 319.291C457.94 317.66 454.019 318.172 447.795 316.192C440.722 313.692 433.421 311.928 426.002 310.926C422.39 310.056 419.217 307.858 417.088 304.751C415.128 302.258 403.547 281.45 393.334 259.361L440.546 199.664C452.332 186.173 466.42 161.964 452.286 137.172C419.847 144.162 420.097 143.346 355.218 241.513C344.025 258.452 344.937 266.421 384.854 316.937C392.904 327.177 401.56 336.904 410.773 346.063C433.821 368.036 450.485 369.62 460.06 363.679C473.168 355.453 468.905 349.022 456.298 340.541Z" fill="#B16668"/>
<path d="M455.866 136.263C438.107 137.078 425.022 139.665 412.552 155.253C399.17 171.913 368.19 217.676 368.19 217.676C368.19 217.676 376.488 243.843 409.862 252.627L451.899 197.474C451.899 197.474 467.241 166.694 455.866 136.263Z" fill="#BA68C8"/>
<path opacity="0.2" d="M455.866 136.263C438.107 137.078 425.022 139.665 412.552 155.253C399.17 171.913 368.19 217.676 368.19 217.676C368.19 217.676 376.488 243.843 409.862 252.627L451.899 197.474C451.899 197.474 467.241 166.694 455.866 136.263Z" fill="black"/>
<path d="M195.254 156.418C179.297 156.861 174.737 163.409 165.208 177.389C155.679 191.37 122.92 244.542 122.92 244.542L76.6202 262.717L82.8209 290.351C82.8209 290.351 121.986 282.383 142.092 278.188C144.709 277.819 147.206 276.836 149.39 275.316C151.573 273.796 153.382 271.781 154.676 269.427C157.252 265.443 182.99 224.061 182.99 224.061L195.254 156.418Z" fill="#E6E6E6"/>
<path d="M207.473 156.861C192.405 153.016 185.748 161.521 180.733 171.028C172.708 186.08 167.875 216.837 167.191 273.039C166.758 309.178 154.448 352.867 152.26 387.213C148.931 438.661 147.381 478.668 147.381 478.668C177.191 474.726 207.235 472.92 237.291 473.262L207.473 156.861Z" fill="#E0E0E0"/>
<path d="M294.328 680.966C294.328 680.966 303.447 617.704 299.594 580.633C296.357 548.827 291.775 535.522 291.137 528.276C291.137 528.276 285.894 453.713 287.33 390.358C287.991 360.37 286.509 327.306 265.627 291.959L264.875 290.561C263.029 302.211 245.543 309.668 229.95 311.532C214.935 313.24 196.242 310.204 173.871 302.421C168.878 332.409 163.225 389.566 157.434 451.849C154.63 482.303 155.155 507.934 154.607 527.507C153.946 554.07 156.317 658.131 156.317 658.131V662.535C156.158 667.381 155.018 670.76 151.758 678.449C147.598 688.367 141.799 697.479 134.615 705.385C132.335 707.715 116.993 720.554 114.918 723.35C108.239 730.806 121.415 735.56 131.355 734.558C141.841 733.486 158.164 729.897 162.974 723.63C166.188 719.412 168.969 704.337 172.252 700.049C183.354 685.626 187.913 679.405 188.21 674.698C188.62 666.147 185.93 662.675 184.995 657.828C186.158 647.786 206.128 595.219 207.45 565.883C208.088 551.903 205.17 527.111 205.17 527.111L222.428 425.077C226.326 453.736 233.826 518.28 236.402 538.901C240.118 567.211 253.796 615.094 262.413 652.702C265.65 666.846 267.246 673.137 268.044 682.364L268.249 685.673C268.249 689.843 268.659 734.418 269.982 743.925C272.717 763.66 289.837 761.773 293.097 745.998C295.856 732.577 294.306 690.706 294.397 685.556L294.328 680.966Z" fill="#FFA8A7"/>
<path d="M294.83 680.686C299.64 680.942 295.856 699.863 296.699 712.165C297.611 725.33 301.509 735.07 302.353 745.858C303.333 758.208 302.102 763.334 297.451 773.283C293.85 781.043 276.638 791.248 270.597 779.784C264.556 768.32 263.598 755.435 264.738 743.202C265.901 730.573 267.018 721.346 267.519 711.723C267.998 703.241 262.253 683.109 268.545 682.107L268.728 685.416C270.825 690.076 292.071 693.944 294.898 685.23L294.83 680.686Z" fill="#37474F"/>
<path d="M189.281 684.718C190.558 690.892 188.483 707.669 188.483 707.669C188.483 707.669 185.702 713.378 176.31 716.989L172.913 693.456L189.281 684.718Z" fill="#263238"/>
<path d="M176.31 716.919L156.113 709.369L151.804 690.682L174.35 703.335L176.31 716.919Z" fill="black"/>
<path d="M156.841 662.186V657.782C154.037 659.063 147.198 681.688 138.421 697.067C130.442 711.047 115.237 718.55 110.199 724.608C103.36 732.717 115.693 743.878 136.073 740.127C146.172 738.286 161.605 732.228 165.937 725.447C170.268 718.667 172.092 705.991 175.625 701.005C179.159 696.018 187.366 690.45 189.303 684.694C190.794 679.487 190.959 673.977 189.782 668.687C188.369 663.351 187.183 657.036 185.405 657.456L185.154 661.463C183.718 664.236 178.726 667.358 168.49 667.568C163.589 667.685 158.915 666.776 156.841 662.186Z" fill="#37474F"/>
<path d="M209.958 577.044C211.138 560.998 210.565 544.867 208.248 528.951L222.974 428.758C222.974 428.758 233.005 524.291 234.692 539.017C236.379 553.743 263.279 713.4 263.279 713.4C276.957 721.742 294.716 719.086 306.205 712.864C306.205 648.321 304.245 583.638 301.965 565.766C299.952 553.555 297.219 541.478 293.781 529.604C293.781 529.604 292.322 435.445 292.39 399.702C292.459 363.958 289.837 340.052 283.272 323.974C278.12 312.296 272.019 301.081 265.034 290.444C265.034 290.444 259.928 308.083 219.441 308.13C178.954 308.176 174.486 297.668 174.486 297.668C174.486 297.668 162.632 340.005 158.688 403.942C155.496 455.461 154.767 478.901 153.809 501.806C152.989 521.378 152.487 543.98 152.054 583.522C151.712 613.347 147.495 679.055 147.495 679.055C147.495 679.055 167.259 689.633 199.927 677.564C199.79 677.47 207.929 602.768 209.958 577.044Z" fill="#455A64"/>
<path d="M222.975 428.665L214.973 368.083C203.226 366.843 192.27 361.454 183.992 352.844C183.992 352.844 188.552 367.524 207.519 375.772L218.256 428.968L210.482 514.249L222.975 428.665Z" fill="#37474F"/>
<path d="M241.919 161.078L260.977 163.152C273.652 166.321 279.351 172.03 280.651 183.493C282.99 195.831 282.764 208.532 279.99 220.775C275.978 236.899 265.309 276.394 265.309 276.394C265.309 276.394 279.146 311.927 285.689 329.986C240.711 359.974 185.178 348.137 166.531 329.986C168.104 312.813 174.053 296.852 175.376 281.543C175.376 281.543 174.395 257.637 172.549 247.268C158.324 231.4 160.125 216.208 166.531 203.952C178.316 181.35 196.166 161.474 201.865 161.498L241.919 161.078Z" fill="#BA68C8"/>
<path opacity="0.6" d="M241.919 161.078L260.977 163.152C273.652 166.321 279.351 172.03 280.651 183.493C282.99 195.831 282.764 208.532 279.99 220.775C275.978 236.899 265.309 276.394 265.309 276.394C265.309 276.394 279.146 311.927 285.689 329.986C240.711 359.974 185.178 348.137 166.531 329.986C168.104 312.813 174.053 296.852 175.376 281.543C175.376 281.543 174.395 257.637 172.549 247.268C158.324 231.4 160.125 216.208 166.531 203.952C178.316 181.35 196.166 161.474 201.865 161.498L241.919 161.078Z" fill="white"/>
<path d="M207.268 147.377C201.614 147.377 200.976 148.356 196.097 154.997C193.202 158.958 174.919 189.785 174.919 189.785C174.919 189.785 189.486 170.235 200.452 164.317C202.58 163.043 204.886 162.108 207.291 161.544L207.268 147.377Z" fill="#EBEBEB"/>
<path d="M242.991 161.079C242.991 161.079 227.284 203.3 223.705 231.96C220.125 260.62 232.413 347.182 234.305 398.49C235.696 435.772 239.161 489.643 239.161 489.643C250.307 490.758 261.547 490.397 272.603 488.571C291.069 485.006 296.791 481.907 307.346 474.87C307.346 474.87 298.227 381.038 293.668 344.572C289.45 310.25 271.395 276.394 271.395 276.394L293.098 184.566C293.098 184.566 292.026 169.094 277.756 164.76C264.237 160.636 242.991 161.079 242.991 161.079Z" fill="#FAFAFA"/>
<path d="M270.78 246.895C270.78 246.895 267.839 235.967 263.781 217.303C259.723 198.639 260.362 187.827 261.752 179.672L285.347 214.95L271.441 276.37C280.9 294.882 287.885 314.607 292.209 335.019V335.019C278.006 293.939 262.436 281.613 262.436 281.613L270.78 246.895Z" fill="#F5F5F5"/>
<path d="M248.918 213.039C248.918 211.268 249.077 207.424 249.373 202.6C250.855 178.927 251.539 157.56 243.72 155.836L243.036 159.098C248.735 160.356 246.843 190.88 246.136 202.391C245.817 207.33 245.566 211.222 245.658 213.179L248.918 213.039Z" fill="#BA68C8"/>
<path d="M291.799 404.782C294.831 398.887 294.785 394.646 299.504 389.31C301.527 387.119 302.943 384.417 303.607 381.481C304.593 376.744 304.968 371.895 304.724 367.058L331.761 367.478C331.966 376.658 333.175 389.846 331.488 399.633C327.179 424.401 322.369 434.957 312.202 437.846C295.948 442.506 291.571 435.516 296.768 422.98C299.029 417.789 300.564 412.298 301.328 406.669C299.639 408.899 297.66 410.883 295.446 412.565C294.318 413.506 292.885 413.978 291.431 413.887C289.978 413.797 288.612 413.15 287.604 412.075C286.806 411.097 289.451 409.372 291.799 404.782Z" fill="#FFA8A7"/>
<path d="M265.445 162.291C265.445 162.291 282.907 161.172 293.143 169.724C303.378 178.275 309.716 202.182 317.216 226.088C324.716 249.995 331.441 273.249 333.903 290.002C335.978 303.983 333.288 378.149 333.288 378.149C322.563 379.182 311.764 377.233 302.033 372.511L294.83 293.428L265.559 212.224C260.132 196.049 260.092 178.492 265.445 162.291V162.291Z" fill="#F0F0F0"/>
<path d="M48.5571 219.47L135.185 250.717L159.03 356.083L157.092 358.18L74.7277 326.747L46.6194 221.568L48.5571 219.47Z" fill="#BA68C8"/>
<path opacity="0.35" d="M133.246 252.813L157.092 358.18L159.03 356.082L135.184 250.716L133.246 252.813Z" fill="black"/>
<path opacity="0.25" d="M46.6194 221.567L133.247 252.814L157.092 358.18L74.7277 326.747L46.6194 221.567Z" fill="black"/>
<g opacity="0.2">
<path opacity="0.2" d="M87.6086 305.334C86.8107 307.384 80.1769 311.951 70.5567 311.135L68.9381 305.054L87.6086 305.334Z" fill="black"/>
</g>
<g opacity="0.1">
<path opacity="0.1" d="M72.6984 243.168L71.9917 239.626C71.6042 237.669 76.6878 238.694 83.3901 241.956L99.0286 246.803C105.708 250.018 112 252.418 112.387 254.352L113.117 257.894L72.6984 243.168Z" fill="black"/>
</g>
<path d="M67.5692 227.183C67.3184 225.948 69.2789 226.204 72.1285 226.95L77.121 228.697C77.121 228.697 75.0693 223.571 86.878 226.833C99.8721 230.445 100.146 237.062 100.146 237.062C102.181 237.963 104.267 238.741 106.392 239.392C110.701 240.837 111.179 241.722 111.544 242.934L112.182 245.264L67.9567 229.35C67.9567 229.35 67.8199 228.394 67.5692 227.183Z" fill="#37474F"/>
<path d="M72.1971 234.011C76.3005 235.898 77.9875 236.83 78.603 239.836C79.2869 243.261 79.4465 244.706 79.4465 244.706L102.448 254.026C102.448 254.026 101.195 248.97 100.898 247.269C100.602 245.568 103.634 245.568 107.6 247.455L106.666 243.238L70.8977 229.653L72.1971 234.011Z" fill="#37474F"/>
<path d="M71.4214 243.33L70.7147 239.812C70.3272 237.854 75.4109 238.879 82.1131 242.142L97.7516 246.965C104.408 250.18 110.723 252.58 111.11 254.538L111.817 258.079L71.4214 243.33Z" fill="#37474F"/>
<path d="M56.2403 257.614C56.2403 257.614 59.3179 269.265 60.1157 272.108C60.9136 274.95 75.116 281.707 82.2285 282.616C95.9066 284.364 97.3428 287.276 94.0828 297.226C91.0737 306.313 82.2285 309.738 69.9639 308.27C66.123 307.499 62.5492 305.705 59.6032 303.07C56.6573 300.436 54.4436 297.053 53.1855 293.265C49.1961 281.614 51.339 269.242 49.766 262.438C48.1931 255.634 52.798 253.583 56.2403 257.614Z" fill="#FFA8A7"/>
<path d="M275.042 57.6926L262.914 67.875C262.252 67.1012 261.752 66.1974 261.444 65.219C261.136 64.2406 261.026 63.2081 261.123 62.185C261.219 61.1618 261.518 60.1695 262.002 59.2688C262.487 58.3681 263.146 57.578 263.94 56.947C265.533 55.5969 267.571 54.9219 269.636 55.0605C271.701 55.1992 273.636 56.1411 275.042 57.6926V57.6926Z" fill="#455A64"/>
<path d="M243.218 148.916C243.218 141.11 261.022 129.413 270.209 112.963C279.396 96.5122 274.769 69.5532 262.231 65.4056C262.231 65.4056 261.98 40.8466 229.563 34.3224C197.146 27.7981 186.979 20.4817 181.234 19.4332C175.489 18.3846 174.395 39.2621 181.941 44.7378C176.514 42.5575 171.557 39.3119 167.351 35.1845C162.632 30.5243 160.762 54.8038 170.953 63.3318C170.953 63.3318 162.518 68.3881 163.544 81.157C163.744 85.8073 165.428 90.2629 168.338 93.8433C171.248 97.4237 175.225 99.9323 179.661 100.986L243.218 148.916Z" fill="#455A64"/>
<path d="M187.936 56.9246C180.117 60.3964 172.685 72.606 172.799 106.788C172.799 135.751 181.576 143.091 185.975 145.235C190.375 147.378 198.924 146.306 207.268 144.978V161.638C207.268 161.638 201.044 167.906 203.21 171.867C205.375 175.829 213.514 179.137 226.006 175.106C240.254 170.446 243.514 160.823 243.514 160.823L243.788 124.38C243.788 124.38 248.598 129.53 257.01 122.05C263.986 115.829 266.493 105.134 261.25 99.2621C256.007 93.3903 249.305 92.9243 243.264 99.4951L238.887 97.165C231.158 96.233 219.692 94.8349 211.394 90.5942C189.965 79.2467 187.685 67.0837 187.936 56.9246Z" fill="#FFA8A7"/>
<path d="M243.218 94.6011V110.702C242.205 110.738 241.195 110.56 240.252 110.181C239.308 109.801 238.451 109.228 237.733 108.496C237.015 107.765 236.451 106.89 236.077 105.927C235.703 104.963 235.527 103.932 235.559 102.896C235.561 100.776 236.355 98.7372 237.778 97.1955C239.202 95.6538 241.148 94.7258 243.218 94.6011V94.6011Z" fill="#455A64"/>
<path d="M187.183 96.8617C187.211 97.3747 187.139 97.8883 186.971 98.3727C186.804 98.8571 186.544 99.3028 186.207 99.6841C185.87 100.065 185.462 100.375 185.008 100.594C184.553 100.814 184.061 100.939 183.559 100.963C182.783 101.018 182.009 100.835 181.336 100.438C180.663 100.04 180.122 99.4458 179.782 98.7314C179.442 98.017 179.318 97.215 179.427 96.4284C179.536 95.6417 179.873 94.9064 180.394 94.3168C180.915 93.7273 181.597 93.3104 182.352 93.1198C183.106 92.9292 183.899 92.9735 184.629 93.2471C185.359 93.5206 185.992 94.0109 186.447 94.655C186.902 95.2991 187.159 96.0676 187.183 96.8617V96.8617Z" fill="#263238"/>
<path d="M217.184 98.5621C217.218 99.1138 217.144 99.6668 216.967 100.189C216.79 100.711 216.513 101.192 216.153 101.604C215.792 102.016 215.355 102.351 214.867 102.589C214.379 102.826 213.849 102.963 213.309 102.989C212.474 103.054 211.64 102.862 210.913 102.438C210.187 102.014 209.601 101.378 209.23 100.611C208.86 99.8435 208.723 98.9809 208.836 98.1335C208.95 97.2861 209.308 96.4927 209.866 95.8553C210.424 95.2179 211.156 94.7657 211.967 94.5567C212.779 94.3477 213.633 94.3916 214.42 94.6826C215.206 94.9736 215.89 95.4986 216.383 96.1899C216.876 96.8812 217.155 97.7074 217.184 98.5621V98.5621Z" fill="#263238"/>
<path d="M211.052 122.282L198.924 126.15C199.111 126.99 199.464 127.781 199.961 128.476C200.459 129.171 201.09 129.754 201.815 130.191C202.541 130.627 203.347 130.907 204.183 131.014C205.018 131.12 205.866 131.051 206.675 130.811C208.316 130.206 209.675 128.994 210.485 127.416C211.295 125.837 211.498 124.006 211.052 122.282Z" fill="#F28F8F"/>
<path d="M177.221 89.7085L186.933 85.7706C186.708 85.0899 186.347 84.4647 185.872 83.9352C185.397 83.4057 184.819 82.9837 184.175 82.6962C183.53 82.4087 182.835 82.2621 182.132 82.2659C181.429 82.2697 180.735 82.4238 180.094 82.7182C178.84 83.2974 177.847 84.3399 177.314 85.6366C176.781 86.9332 176.748 88.3879 177.221 89.7085V89.7085Z" fill="#263238"/>
<path d="M196.372 93.7163L196.85 117.46L184.38 114.617L196.372 93.7163Z" fill="#F28F8F"/>
<path d="M207.267 144.884C216.044 143.836 234.145 138.686 237.085 131.183C235.908 134.95 233.653 138.269 230.611 140.713C225.14 145.513 207.245 150.5 207.245 150.5L207.267 144.884Z" fill="#F28F8F"/>
<path d="M243.628 147.494C245.908 147.028 247.982 148.03 249.852 151.292C251.721 154.554 255.847 161.405 255.847 161.405C255.847 161.405 257.967 184.146 255.847 189.785C254.001 194.702 233.666 213.086 233.666 213.086C233.666 213.086 238.978 233.521 239.16 240.208C239.342 246.895 226.554 272.363 225.117 285.388C225.117 285.388 221.105 244.449 222.974 229.746C226.257 204.115 237.997 171.191 243.491 160.729L243.628 147.494Z" fill="#EBEBEB"/>
<path d="M244.152 288.185C241.193 290.182 237.713 291.221 234.167 291.167L234.464 288.837C237.177 288.872 239.843 288.112 242.146 286.647C239.942 284.863 238.013 282.75 236.424 280.379C233.164 275.206 228.035 239.905 231.181 232.053C233.78 225.529 241.417 211.385 247.139 211.385H247.275C253.089 211.642 259.609 226.601 261.683 233.381C264.168 241.467 256.121 276.208 252.45 281.078C250.66 283.295 248.564 285.234 246.227 286.833C248.41 288.477 251.001 289.462 253.704 289.676V292.006H253.431C250.05 291.641 246.836 290.317 244.152 288.185ZM233.278 232.938C230.406 240.162 235.33 274.321 238.339 279.097C239.978 281.501 241.979 283.624 244.266 285.389C246.701 283.84 248.873 281.896 250.695 279.633C254.115 275.136 261.865 241.513 259.586 234.08C256.782 224.993 250.672 213.878 247.253 213.739C243.742 213.715 236.812 224.177 233.278 232.938Z" fill="#455A64"/>
<path d="M231 289.933C230.981 290.382 231.05 290.832 231.202 291.254C231.353 291.677 231.585 292.065 231.884 292.396C232.182 292.727 232.542 292.995 232.942 293.184C233.341 293.373 233.774 293.48 234.214 293.498C235.104 293.529 235.97 293.203 236.627 292.589C237.283 291.974 237.678 291.121 237.725 290.212C237.761 289.285 237.436 288.381 236.82 287.7C236.204 287.018 235.349 286.614 234.442 286.577C233.535 286.54 232.651 286.873 231.984 287.502C231.317 288.131 230.922 289.006 230.886 289.933H231Z" fill="#263238"/>
<path d="M250.468 290.701C250.429 291.61 250.744 292.497 251.345 293.168C251.945 293.839 252.782 294.238 253.671 294.278C254.56 294.318 255.428 293.996 256.084 293.382C256.74 292.768 257.131 291.913 257.17 291.004C257.19 290.555 257.122 290.105 256.972 289.682C256.821 289.259 256.591 288.87 256.293 288.538C255.996 288.206 255.637 287.937 255.238 287.746C254.839 287.556 254.407 287.448 253.967 287.428C253.527 287.408 253.088 287.477 252.673 287.63C252.259 287.784 251.879 288.02 251.554 288.324C251.229 288.628 250.966 288.994 250.78 289.402C250.593 289.81 250.487 290.252 250.468 290.701V290.701Z" fill="#263238"/>
<path d="M230.611 247.361L232.526 247.221C232.625 247.215 232.722 247.19 232.811 247.145C232.9 247.101 232.98 247.039 233.045 246.964C233.111 246.888 233.161 246.799 233.193 246.704C233.226 246.608 233.239 246.507 233.233 246.406C232.685 241.992 232.886 237.515 233.826 233.171C237.2 224.736 244.175 214.181 247.23 214.321C250.285 214.46 256.349 225.575 259.039 234.266C259.654 236.247 259.449 241.047 258.537 247.501C258.504 247.702 258.55 247.908 258.666 248.074C258.781 248.24 258.956 248.352 259.153 248.386L261.068 248.689C261.167 248.702 261.267 248.695 261.363 248.668C261.459 248.641 261.549 248.595 261.628 248.532C261.706 248.469 261.772 248.391 261.82 248.302C261.869 248.213 261.9 248.115 261.911 248.013C262.96 240.767 263.097 235.781 262.299 233.218C260.885 228.557 254.16 211.105 247.39 210.802C240.619 210.499 232.458 227.322 230.657 231.773C229.654 234.266 229.357 239.229 229.813 246.546C229.807 246.654 229.823 246.764 229.861 246.866C229.898 246.968 229.957 247.06 230.032 247.137C230.108 247.215 230.198 247.274 230.298 247.313C230.398 247.352 230.505 247.368 230.611 247.361Z" fill="#BA68C8"/>
<path d="M31.1865 88.6359V117.575L55.7157 103.106V132.069L80.245 117.575V88.6359L104.774 74.1661V45.2032L80.1766 59.7429L80.245 30.7334L55.7157 45.2032V74.1661L31.1865 88.6359Z" fill="#BA68C8"/>
<path d="M31.1857 117.576L20.6765 111.378V82.438L31.1857 88.636V117.576Z" fill="#BA68C8"/>
<path d="M55.715 74.1665L45.2057 67.9685L20.6765 82.4383L31.1857 88.6363L55.715 74.1665Z" fill="#BA68C8"/>
<path d="M55.7154 45.2031L45.2061 39.0051V67.968L55.7154 74.166V45.2031Z" fill="#BA68C8"/>
<path d="M80.2446 30.7337L69.7353 24.5356L45.2061 39.0054L55.7154 45.2035L80.2446 30.7337Z" fill="#BA68C8"/>
<path d="M55.7154 132.069L45.2061 125.848V109.304L55.7154 103.106V132.069Z" fill="#BA68C8"/>
<g opacity="0.2">
<path opacity="0.2" d="M31.1857 117.576L20.6765 111.378V82.438L31.1857 88.636V117.576Z" fill="black"/>
<path opacity="0.2" d="M55.7154 45.2031L45.2061 39.0051V67.968L55.7154 74.166V45.2031Z" fill="black"/>
<path opacity="0.2" d="M55.7154 132.069L45.2061 125.848V109.304L55.7154 103.106V132.069Z" fill="black"/>
</g>
<path d="M104.774 45.2031L94.2651 39.0051L80.1995 47.2536L80.1767 59.7428L104.774 45.2031Z" fill="#BA68C8"/>
<g opacity="0.5">
<path opacity="0.5" d="M55.715 74.1665L45.2057 67.9685L20.6765 82.4383L31.1857 88.6363L55.715 74.1665Z" fill="white"/>
<path opacity="0.5" d="M80.2446 30.7337L69.7353 24.5356L45.2061 39.0054L55.7154 45.2035L80.2446 30.7337Z" fill="white"/>
<path opacity="0.5" d="M104.774 45.2031L94.2651 39.0051L80.1995 47.2536L80.1767 59.7428L104.774 45.2031Z" fill="white"/>
</g>
<path d="M926.298 44.7375C926.298 47.5802 928.145 50.4462 931.838 52.6132C935.977 54.7621 940.554 55.8821 945.197 55.8821C949.839 55.8821 954.416 54.7621 958.556 52.6132C962.249 50.4462 964.095 47.5802 964.095 44.7375V19.3397C964.095 14.2105 962.102 9.29135 958.553 5.66446C955.005 2.03757 950.192 0 945.174 0C940.156 0 935.343 2.03757 931.795 5.66446C928.246 9.29135 926.253 14.2105 926.253 19.3397L926.298 44.7375Z" fill="#F5F5F5"/>
<path d="M926.298 78.2674C926.298 83.3966 928.291 88.3157 931.84 91.9426C935.388 95.5695 940.201 97.607 945.219 97.607C950.237 97.607 955.05 95.5695 958.599 91.9426C962.147 88.3157 964.141 83.3966 964.141 78.2674V44.7375C964.141 47.5802 962.294 50.4463 958.601 52.6132C954.462 54.7622 949.885 55.8822 945.242 55.8822C940.6 55.8822 936.022 54.7622 931.883 52.6132C928.167 50.4463 926.298 47.6035 926.298 44.7375V78.2674Z" fill="#BA68C8"/>
<path opacity="0.4" d="M952.446 88.6824C951.495 88.6855 950.553 88.4967 949.673 88.1269C948.794 87.757 947.995 87.2135 947.321 86.5273C946.648 85.8411 946.113 85.0258 945.749 84.1281C945.384 83.2304 945.196 82.268 945.196 81.2961V41.941C949.857 41.8383 954.465 42.9616 958.578 45.2032C958.988 45.4362 959.33 45.6692 959.695 45.9255V81.2961C959.689 83.2572 958.923 85.1359 957.564 86.5204C956.205 87.905 954.365 88.6824 952.446 88.6824V88.6824Z" fill="white"/>
<path d="M926.298 44.7375C926.298 47.5802 928.145 50.4462 931.838 52.6132C935.977 54.7621 940.554 55.8821 945.197 55.8821C949.839 55.8821 954.416 54.7621 958.556 52.6132C962.249 50.4462 964.095 47.5802 964.095 44.7375V19.3397C964.095 14.2105 962.102 9.29135 958.553 5.66446C955.005 2.03757 950.192 0 945.174 0C940.156 0 935.343 2.03757 931.795 5.66446C928.246 9.29135 926.253 14.2105 926.253 19.3397L926.298 44.7375Z" fill="#F5F5F5"/>
<path opacity="0.1" d="M958.578 52.6132C954.439 54.7622 949.862 55.8822 945.219 55.8822C940.577 55.8822 936 54.7622 931.86 52.6132C928.167 50.4463 926.298 47.6035 926.298 44.7375V47.6036C926.298 50.4696 928.145 53.3122 931.838 55.5025C935.977 57.6514 940.554 58.7715 945.197 58.7715C949.839 58.7715 954.416 57.6514 958.555 55.5025C962.248 53.3122 964.095 50.4696 964.095 47.6036V44.8075C964.118 47.6036 962.271 50.4463 958.578 52.6132Z" fill="black"/>
<path d="M956.322 3.7285C953.504 1.6306 950.172 0.370619 946.696 0.087959C943.221 -0.194701 939.736 0.510984 936.628 2.12694C933.521 3.74289 930.911 6.20611 929.088 9.24404C927.265 12.282 926.3 15.7762 926.299 19.34V44.7379C926.299 47.5806 928.146 50.4466 931.839 52.6136C933.54 53.6295 935.364 54.4128 937.264 54.9436V15.8682C937.287 4.73044 950.919 0.652799 956.322 3.7285Z" fill="#E0E0E0"/>
<path d="M952.446 9.13403C950.523 9.13403 948.679 9.91469 947.32 11.3043C945.96 12.6938 945.196 14.5785 945.196 16.5437V55.8987C949.859 55.9933 954.467 54.862 958.578 52.6133C958.988 52.3803 959.33 52.1473 959.695 51.9143V16.5437C959.695 14.5785 958.931 12.6938 957.572 11.3043C956.212 9.91469 954.368 9.13403 952.446 9.13403Z" fill="white"/>
<path opacity="0.1" d="M947.567 97.4439L948.639 97.2575L949.391 97.1177L950.235 96.8847L951.101 96.6284L951.511 96.4653C952.754 96.0234 953.946 95.4453 955.067 94.7411V94.7411C955.472 94.5042 955.861 94.2395 956.23 93.9488C950.827 97.0012 937.195 92.9469 937.195 81.8091V54.8501C935.294 54.3193 933.47 53.5359 931.769 52.52C928.167 50.4463 926.298 47.6035 926.298 44.7375V78.2674C926.304 83.3947 928.299 88.3102 931.847 91.9358C935.394 95.5613 940.203 97.6009 945.219 97.607C945.812 97.607 946.405 97.607 946.975 97.607L947.567 97.4439Z" fill="black"/>
</svg>
