<svg width="1000" height="1000" viewBox="0 0 1000 1000" fill="none" xmlns="http://www.w3.org/2000/svg">
<path d="M500 1000C776.142 1000 1000 866.066 1000 700.85C1000 535.634 776.142 401.7 500 401.7C223.858 401.7 0 535.634 0 700.85C0 866.066 223.858 1000 500 1000Z" fill="#F5F5F5"/>
<path d="M230.858 752.258C315.041 752.258 383.284 710.998 383.284 660.101C383.284 609.204 315.041 567.944 230.858 567.944C146.676 567.944 78.4326 609.204 78.4326 660.101C78.4326 710.998 146.676 752.258 230.858 752.258Z" fill="#E0E0E0"/>
<path d="M405.682 945.274C453.27 945.274 491.847 921.949 491.847 893.176C491.847 864.402 453.27 841.077 405.682 841.077C358.095 841.077 319.518 864.402 319.518 893.176C319.518 921.949 358.095 945.274 405.682 945.274Z" fill="#E0E0E0"/>
<path d="M540.633 897.605H594.174L979.126 663.729L599.816 419.504L425.817 534.227L686.762 695.264L448.743 841.122L540.633 897.605Z" fill="#E0E0E0"/>
<path d="M164.785 602.973L139.261 618.351C139.261 618.351 152.53 575.021 145.917 531.179C143.423 514.621 137.866 506.365 135.923 501.914C133.979 497.463 119.019 470.023 132.584 457.604C146.149 445.186 177.505 470.601 175.35 537.967C174.419 560.015 170.869 581.854 164.785 602.973V602.973Z" fill="#455A64"/>
<path d="M152.908 611.185C152.796 611.206 152.682 611.206 152.57 611.185C152.317 611.085 152.111 610.884 151.997 610.626C151.882 610.369 151.868 610.074 151.957 609.805C151.957 609.538 161.824 581.653 161.824 536.631C161.824 491.61 140.125 467.819 139.914 467.641C139.819 467.542 139.744 467.424 139.693 467.294C139.642 467.164 139.615 467.025 139.615 466.884C139.615 466.744 139.642 466.605 139.693 466.475C139.744 466.345 139.819 466.227 139.914 466.128C140.106 465.932 140.364 465.823 140.632 465.823C140.9 465.823 141.157 465.932 141.35 466.128C141.583 466.373 163.853 491.009 163.853 536.676C163.853 582.343 153.943 610.339 153.838 610.606C153.754 610.789 153.622 610.941 153.456 611.044C153.291 611.147 153.1 611.196 152.908 611.185V611.185Z" fill="white"/>
<path d="M159.142 606.155L116.884 631.86C116.884 631.86 97.7408 628.611 99.41 609.405C101.079 590.199 108.918 585.77 99.41 577.202C89.9019 568.634 87.2819 568.033 87.8524 559.754C88.4229 551.475 93.684 547.937 96.1773 544.687C98.6705 541.438 105.622 534.651 100.889 524.658C96.1561 514.666 89.7329 504.896 99.5157 500.445C105.326 497.774 115.046 501.313 121.448 508.701C127.85 516.09 133.09 521.409 139.196 523.189C145.302 524.97 158.086 525.259 157.536 536.542C156.987 547.825 154.198 551.631 156.691 556.572C161.361 565.963 181.919 571.282 159.142 606.155Z" fill="#37474F"/>
<path d="M141.965 617.683C141.832 617.672 141.702 617.633 141.583 617.569C141.464 617.505 141.358 617.416 141.272 617.308C141.185 617.201 141.12 617.076 141.079 616.942C141.039 616.808 141.024 616.666 141.036 616.526C141.036 615.858 146.297 550.474 104.123 507.032C104.012 506.939 103.92 506.822 103.855 506.689C103.789 506.556 103.751 506.41 103.742 506.261C103.734 506.111 103.755 505.961 103.805 505.821C103.855 505.681 103.932 505.553 104.032 505.446C104.132 505.34 104.252 505.256 104.384 505.202C104.517 505.147 104.659 505.122 104.801 505.129C104.943 505.136 105.082 505.174 105.209 505.241C105.336 505.308 105.448 505.403 105.539 505.519C148.41 549.672 143.127 616.059 143.064 616.793C143.027 617.063 142.892 617.307 142.686 617.474C142.481 617.64 142.222 617.715 141.965 617.683V617.683Z" fill="white"/>
<path d="M135.077 560.599C134.81 560.571 134.564 560.435 134.39 560.219C134.217 560.003 134.13 559.724 134.148 559.442C134.515 554.009 135.943 548.714 138.342 543.889C140.742 539.064 144.061 534.812 148.093 531.401C148.202 531.32 148.326 531.263 148.457 531.233C148.587 531.202 148.722 531.2 148.854 531.224C148.985 531.249 149.111 531.301 149.223 531.377C149.336 531.453 149.433 531.552 149.509 531.668C149.589 531.781 149.647 531.91 149.679 532.047C149.711 532.184 149.716 532.326 149.695 532.466C149.673 532.605 149.625 532.738 149.553 532.858C149.481 532.977 149.387 533.079 149.276 533.159C145.514 536.414 142.415 540.436 140.164 544.982C137.913 549.529 136.557 554.508 136.176 559.62C136.166 559.761 136.129 559.897 136.068 560.023C136.006 560.148 135.922 560.26 135.82 560.351C135.718 560.442 135.6 560.51 135.472 560.553C135.345 560.596 135.211 560.612 135.077 560.599V560.599Z" fill="white"/>
<path d="M138.053 571.995C137.908 571.993 137.765 571.958 137.634 571.892C137.503 571.827 137.387 571.733 137.293 571.616C137.293 571.505 126.728 559.287 102.641 562.514C102.361 562.549 102.079 562.466 101.857 562.283C101.635 562.099 101.491 561.83 101.458 561.535C101.424 561.24 101.503 560.943 101.678 560.709C101.852 560.475 102.107 560.324 102.387 560.289C127.616 556.928 138.307 569.591 138.814 570.125C138.909 570.224 138.984 570.342 139.035 570.472C139.086 570.602 139.112 570.741 139.112 570.882C139.112 571.022 139.086 571.162 139.035 571.291C138.984 571.421 138.909 571.539 138.814 571.638C138.719 571.752 138.602 571.843 138.471 571.905C138.34 571.966 138.197 571.997 138.053 571.995V571.995Z" fill="white"/>
<path d="M233.584 703.343C304.65 703.343 362.26 668.509 362.26 625.54C362.26 582.571 304.65 547.737 233.584 547.737C162.518 547.737 104.907 582.571 104.907 625.54C104.907 668.509 162.518 703.343 233.584 703.343Z" fill="#37474F"/>
<path d="M362.259 625.54C362.259 668.514 304.661 703.432 233.582 703.432C162.504 703.432 104.885 668.514 104.885 625.54V647.283C104.885 690.234 162.483 725.063 233.54 725.063C304.597 725.063 362.217 690.234 362.217 647.283V625.54H362.259Z" fill="#253239"/>
<path d="M233.584 694.062C167.597 694.062 113.908 663.328 113.908 625.54C113.908 587.751 167.597 557.017 233.584 557.017C299.57 557.017 353.28 587.751 353.28 625.54C353.28 663.328 299.591 694.062 233.584 694.062ZM233.584 559.376C168.823 559.376 116.127 589.042 116.127 625.54C116.127 662.038 168.823 691.703 233.584 691.703C298.344 691.703 351.041 662.015 351.041 625.54C351.041 589.064 298.366 559.376 233.584 559.376Z" fill="#BA68C8"/>
<path d="M233.584 281.88C167.597 281.88 113.908 251.124 113.908 213.335C113.908 175.547 167.597 144.813 233.584 144.813C299.57 144.813 353.28 175.547 353.28 213.335C353.28 251.124 299.591 281.88 233.584 281.88ZM233.584 147.172C168.823 147.172 116.127 176.86 116.127 213.335C116.127 249.811 168.823 279.521 233.584 279.521C298.344 279.521 351.041 249.767 351.041 213.335C351.041 176.904 298.366 147.172 233.584 147.172Z" fill="#BA68C8"/>
<path d="M351.041 625.562V625.54H353.281L351.041 625.562Z" fill="#BA68C8"/>
<path d="M113.908 625.562V625.54H116.148L113.908 625.562Z" fill="#BA68C8"/>
<path d="M353.28 625.54H351.041C351.041 589.042 298.366 559.376 233.584 559.376C168.802 559.376 116.127 589.042 116.127 625.54H114.014V553.368C113.955 533.657 118.969 514.297 128.523 497.349C138.078 480.4 151.815 466.496 168.274 457.115L200.96 438.577C203.872 436.913 206.303 434.451 207.996 431.453C209.69 428.454 210.584 425.03 210.584 421.541C210.584 418.052 209.69 414.628 207.996 411.629C206.303 408.631 203.872 406.169 200.96 404.505L168.274 385.967C151.811 376.61 138.063 362.729 128.49 345.801C118.918 328.873 113.879 309.529 113.908 289.826V216.385H116.275V217.431C120.057 252.259 171.528 279.544 233.478 279.544C295.429 279.544 346.92 252.259 350.703 217.431L350.808 216.385H353.175V289.826C353.228 309.535 348.209 328.891 338.651 345.836C329.093 362.78 315.354 376.68 298.894 386.056L266.186 404.594C263.28 406.263 260.856 408.727 259.166 411.724C257.477 414.722 256.585 418.144 256.585 421.63C256.585 425.116 257.477 428.538 259.166 431.536C260.856 434.533 263.28 436.997 266.186 438.666L298.894 457.204C332.046 477.746 352.837 514.6 353.175 553.457L353.28 625.54ZM233.584 557.017C291.689 557.017 340.244 580.83 351.041 612.299V553.368C350.724 515.356 330.355 479.259 297.901 459.185L265.235 440.669C261.972 438.798 259.248 436.035 257.35 432.671C255.452 429.307 254.45 425.466 254.45 421.552C254.45 417.639 255.452 413.798 257.35 410.433C259.248 407.069 261.972 404.306 265.235 402.435L297.943 383.897C314.036 374.731 327.47 361.144 336.819 344.58C346.168 328.017 351.083 309.095 351.041 289.826V226.622C340.265 258.29 291.393 281.97 233.584 281.97C175.774 281.97 126.924 258.29 116.127 226.622V289.826C116.074 309.112 120.985 328.053 130.339 344.633C139.692 361.214 153.138 374.813 169.246 383.986L201.953 402.524C205.217 404.395 207.941 407.158 209.839 410.522C211.737 413.887 212.739 417.728 212.739 421.641C212.739 425.555 211.737 429.396 209.839 432.76C207.941 436.124 205.217 438.887 201.953 440.758L169.246 459.296C153.137 468.467 139.69 482.066 130.336 498.647C120.982 515.228 116.072 534.17 116.127 553.457V612.299C126.924 580.83 175.5 557.017 233.584 557.017Z" fill="#BA68C8"/>
<path d="M243.663 501.758C240.598 499.909 237.127 498.937 233.595 498.937C230.063 498.937 226.592 499.909 223.527 501.758C196.904 517.804 126.671 562.647 126.671 589.82C126.671 623.359 174.528 650.554 233.584 650.554C292.64 650.554 340.519 623.359 340.519 589.82C340.519 562.647 270.286 517.804 243.663 501.758Z" fill="#BA68C8"/>
<path opacity="0.3" d="M243.663 501.758C240.598 499.909 237.127 498.937 233.595 498.937C230.063 498.937 226.592 499.909 223.527 501.758C196.904 517.804 126.671 562.647 126.671 589.82C126.671 623.359 174.528 650.554 233.584 650.554C292.64 650.554 340.519 623.359 340.519 589.82C340.519 562.647 270.286 517.804 243.663 501.758Z" fill="white"/>
<path d="M233.584 650.554C174.528 650.554 126.671 623.358 126.671 589.82V620.599C126.671 654.137 174.55 681.332 233.584 681.332C292.619 681.332 340.519 654.137 340.519 620.599V589.82C340.519 623.358 292.64 650.554 233.584 650.554Z" fill="#BA68C8"/>
<path d="M126.671 217.541V284.306C126.635 301.888 131.118 319.153 139.644 334.269C148.17 349.386 160.422 361.789 175.099 370.165L204.68 386.878C205.124 387.145 205.567 387.412 205.969 387.702C207.025 388.414 208.082 389.104 209.18 389.749C215.229 393.735 220.214 399.277 223.666 405.853C227.119 412.429 228.925 419.823 228.915 427.338V456.269C228.909 457.611 229.409 458.9 230.304 459.856C231.199 460.811 232.416 461.354 233.69 461.365V461.365C234.966 461.354 236.186 460.811 237.084 459.857C237.983 458.902 238.487 457.613 238.487 456.269V427.338C238.476 419.825 240.28 412.434 243.729 405.858C247.177 399.283 252.157 393.739 258.2 389.749C259.299 389.104 260.313 388.414 261.433 387.702C261.834 387.412 262.278 387.145 262.722 386.878L292.197 370.165C306.874 361.789 319.126 349.386 327.652 334.269C336.178 319.153 340.661 301.888 340.625 284.306V217.541H126.671Z" fill="#BA68C8"/>
<path d="M238.381 477.011C238.376 476.012 238.092 475.038 237.562 474.21C237.033 473.382 236.282 472.738 235.405 472.359C234.528 471.98 233.565 471.883 232.636 472.081C231.707 472.278 230.854 472.761 230.185 473.468C229.517 474.176 229.062 475.076 228.879 476.055C228.695 477.035 228.792 478.049 229.155 478.971C229.519 479.893 230.134 480.681 230.922 481.235C231.71 481.789 232.637 482.085 233.584 482.085C234.857 482.073 236.073 481.534 236.971 480.584C237.869 479.635 238.375 478.351 238.381 477.011V477.011Z" fill="#BA68C8"/>
<path opacity="0.3" d="M126.671 217.541V284.306C126.635 301.888 131.118 319.153 139.644 334.269C148.17 349.386 160.422 361.789 175.099 370.165L204.68 386.878C205.124 387.145 205.567 387.412 205.969 387.702C207.025 388.414 208.082 389.104 209.18 389.749C215.229 393.735 220.214 399.277 223.666 405.853C227.119 412.429 228.925 419.823 228.915 427.338V456.269C228.909 457.611 229.409 458.9 230.304 459.856C231.199 460.811 232.416 461.354 233.69 461.365V461.365C234.966 461.354 236.186 460.811 237.084 459.857C237.983 458.902 238.487 457.613 238.487 456.269V427.338C238.476 419.825 240.28 412.434 243.729 405.858C247.177 399.283 252.157 393.739 258.2 389.749C259.299 389.104 260.313 388.414 261.433 387.702C261.834 387.412 262.278 387.145 262.722 386.878L292.197 370.165C306.874 361.789 319.126 349.386 327.652 334.269C336.178 319.153 340.661 301.888 340.625 284.306V217.541H126.671Z" fill="white"/>
<g opacity="0.3">
<path opacity="0.3" d="M238.381 477.011C238.376 476.012 238.092 475.038 237.562 474.21C237.033 473.382 236.282 472.738 235.405 472.359C234.528 471.98 233.565 471.883 232.636 472.081C231.707 472.278 230.854 472.761 230.185 473.468C229.517 474.176 229.062 475.076 228.879 476.055C228.695 477.035 228.792 478.049 229.155 478.971C229.519 479.893 230.134 480.681 230.922 481.235C231.71 481.789 232.637 482.085 233.584 482.085C234.857 482.073 236.073 481.534 236.971 480.584C237.869 479.635 238.375 478.351 238.381 477.011V477.011Z" fill="white"/>
</g>
<path d="M233.584 278.275C292.642 278.275 340.519 251.084 340.519 217.542C340.519 184 292.642 156.808 233.584 156.808C174.526 156.808 126.649 184 126.649 217.542C126.649 251.084 174.526 278.275 233.584 278.275Z" fill="#BA68C8"/>
<g style="mix-blend-mode:overlay" opacity="0.5">
<g style="mix-blend-mode:overlay" opacity="0.5">
<path d="M224.792 439.622L204.001 458.161C182.872 476.899 169.857 513.508 169.857 553.367V680.353C163.399 678.027 157.113 675.2 151.052 671.896V553.367C151.052 513.508 166.075 476.899 190.162 458.161L213.932 439.622C223.842 431.9 223.842 411.158 213.932 403.48L190.162 384.942C166.159 366.204 151.052 329.572 151.052 289.825V217.541H169.857V289.825C169.857 329.683 182.978 366.315 204.001 385.053L224.792 403.592C233.434 411.158 233.434 431.9 224.792 439.622Z" fill="white"/>
</g>
</g>
<path d="M233.584 291.138C304.65 291.138 362.26 256.304 362.26 213.335C362.26 170.366 304.65 135.532 233.584 135.532C162.518 135.532 104.907 170.366 104.907 213.335C104.907 256.304 162.518 291.138 233.584 291.138Z" fill="#37474F"/>
<path d="M362.259 213.336C362.259 256.31 304.661 291.228 233.582 291.228C162.504 291.228 104.885 256.31 104.885 213.336V235.079C104.885 278.053 162.483 312.971 233.54 312.971C304.597 312.971 362.217 278.142 362.217 235.079V213.336H362.259Z" fill="#253239"/>
<path d="M654.643 429.942V344.082L540.672 274.069V188.209L426.723 118.173V547.447L540.672 617.484L654.643 687.497L768.592 757.533V499.978L654.643 429.942Z" fill="#BA68C8"/>
<path opacity="0.3" d="M654.641 429.942V515.801L768.59 585.837V499.978L654.641 429.942Z" fill="white"/>
<path d="M768.591 499.978V585.837L654.641 655.874V741.71L540.671 811.747V897.606L654.641 827.57L768.591 757.534L882.562 687.498V429.942L768.591 499.978Z" fill="#BA68C8"/>
<path opacity="0.1" d="M768.591 499.978V585.837L654.641 655.874V741.71L540.671 811.747V897.606L654.641 827.57L768.591 757.534L882.562 687.498V429.942L768.591 499.978Z" fill="white"/>
<path d="M540.672 188.21L426.723 118.174L540.672 48.1377L654.643 118.174L540.672 188.21Z" fill="#BA68C8"/>
<path opacity="0.7" d="M540.672 188.21L426.723 118.174L540.672 48.1377L654.643 118.174L540.672 188.21Z" fill="white"/>
<path d="M540.671 274.069V188.209L654.641 118.173V204.033L540.671 274.069Z" fill="#BA68C8"/>
<path opacity="0.1" d="M540.671 274.069V188.209L654.641 118.173V204.033L540.671 274.069Z" fill="black"/>
<path d="M654.641 344.083L540.671 274.069L654.641 204.033L768.591 274.069L654.641 344.083Z" fill="#BA68C8"/>
<path d="M654.641 429.941V344.082L768.59 274.068V359.905L654.641 429.941Z" fill="#BA68C8"/>
<path opacity="0.7" d="M654.641 344.083L540.671 274.069L654.641 204.033L768.591 274.069L654.641 344.083Z" fill="white"/>
<path opacity="0.1" d="M654.641 429.941V344.082L768.59 274.068V359.905L654.641 429.941Z" fill="black"/>
<path d="M768.59 499.977L654.641 429.941L768.59 359.905L882.561 429.941L768.59 499.977Z" fill="#BA68C8"/>
<g opacity="0.7">
<path opacity="0.7" d="M768.59 499.977L654.641 429.941L768.59 359.905L882.561 429.941L768.59 499.977Z" fill="white"/>
</g>
<path d="M654.641 655.873L768.591 585.837L654.641 515.801L540.671 585.837L654.641 655.873Z" fill="#BA68C8"/>
<path opacity="0.7" d="M654.641 655.873L768.591 585.837L654.641 515.801L540.671 585.837L654.641 655.873Z" fill="white"/>
<path d="M654.641 741.71V655.873L540.671 585.837V671.696L654.641 741.71Z" fill="#BA68C8"/>
<path opacity="0.3" d="M654.641 741.71V655.873L540.671 585.837V671.696L654.641 741.71Z" fill="white"/>
<path d="M540.672 811.746L654.643 741.71L540.672 671.696L426.723 741.71L540.672 811.746Z" fill="#BA68C8"/>
<path d="M540.672 897.605V811.746L426.723 741.71V827.569L540.672 897.605Z" fill="#BA68C8"/>
<path opacity="0.7" d="M540.672 811.746L654.643 741.71L540.672 671.696L426.723 741.71L540.672 811.746Z" fill="white"/>
<path opacity="0.3" d="M540.672 897.605V811.746L426.723 741.71V827.569L540.672 897.605Z" fill="white"/>
<path d="M632.606 728.179L518.657 798.215L448.762 755.263L562.732 685.227L632.606 728.179Z" fill="#BA68C8"/>
<path opacity="0.4" d="M632.606 728.179L518.657 798.215L448.762 755.263L562.732 685.227L632.606 728.179Z" fill="white"/>
<path d="M518.656 798.216V884.053L448.739 841.123V755.264H448.76L518.656 798.216Z" fill="#BA68C8"/>
<path d="M746.577 572.284L632.607 642.32L562.732 599.39L676.682 529.354L746.577 572.284Z" fill="#BA68C8"/>
<path opacity="0.4" d="M746.577 572.284L632.607 642.32L562.732 599.39L676.682 529.354L746.577 572.284Z" fill="white"/>
<path d="M632.605 642.319V728.179L562.71 685.227V599.39H562.731L632.605 642.319Z" fill="#BA68C8"/>
<path d="M746.575 486.447V572.284L676.658 529.354V443.495H676.679L746.575 486.447Z" fill="#BA68C8"/>
<path d="M746.575 486.447V572.284L676.658 529.354V443.495H676.679L746.575 486.447Z" fill="#BA68C8"/>
<path d="M562.71 260.515L676.659 330.551L746.555 287.622L632.584 217.563L562.71 260.515Z" fill="#BA68C8"/>
<g style="mix-blend-mode:overlay" opacity="0.5">
<path d="M562.71 260.515L676.659 330.551L746.555 287.622L632.584 217.563L562.71 260.515Z" fill="white"/>
</g>
<path d="M676.658 330.552V416.411L746.575 373.459V287.622H746.553L676.658 330.552Z" fill="#BA68C8"/>
<path opacity="0.3" d="M676.658 330.552V416.411L746.575 373.459V287.622H746.553L676.658 330.552Z" fill="black"/>
<path d="M448.739 104.62L562.71 174.678L632.584 131.726L518.634 61.6904L448.739 104.62Z" fill="#BA68C8"/>
<g style="mix-blend-mode:overlay" opacity="0.5">
<path d="M448.739 104.62L562.71 174.678L632.584 131.726L518.634 61.6904L448.739 104.62Z" fill="white"/>
</g>
<path d="M562.71 174.678V260.515L632.605 217.563V131.726H632.584L562.71 174.678Z" fill="#BA68C8"/>
<path opacity="0.3" d="M562.71 174.678V260.515L632.605 217.563V131.726H632.584L562.71 174.678Z" fill="black"/>
<path d="M768.591 387.012L746.553 373.437L676.658 416.389L698.717 429.942L676.679 443.495L746.575 486.425L768.591 472.894L838.486 429.942L768.591 387.012Z" fill="#BA68C8"/>
<path opacity="0.4" d="M768.591 387.012L746.553 373.437L676.658 416.389L698.717 429.942L676.679 443.495L746.575 486.425L768.591 472.894L838.486 429.942L768.591 387.012Z" fill="white"/>
<path d="M495.289 91.3559C495.112 91.3542 494.938 91.3084 494.782 91.2224L490.556 88.5963C490.44 88.5251 490.339 88.4305 490.259 88.318C490.178 88.2055 490.119 88.0772 490.086 87.9407C490.052 87.8041 490.045 87.662 490.064 87.5224C490.083 87.3828 490.128 87.2486 490.197 87.1275C490.33 86.8839 490.548 86.7053 490.805 86.6303C491.062 86.5553 491.337 86.59 491.57 86.7269L495.796 89.353C496.029 89.4972 496.199 89.7315 496.27 90.0059C496.341 90.2803 496.307 90.5731 496.176 90.8218C496.088 90.9872 495.959 91.1242 495.803 91.2183C495.646 91.3124 495.469 91.36 495.289 91.3559V91.3559Z" fill="#BA68C8"/>
<path d="M578.98 142.809C578.8 142.81 578.624 142.756 578.473 142.654L570.021 137.513C569.905 137.442 569.802 137.349 569.72 137.237C569.638 137.125 569.577 136.998 569.542 136.861C569.507 136.725 569.497 136.582 569.514 136.442C569.531 136.302 569.574 136.167 569.641 136.044C569.707 135.921 569.796 135.813 569.902 135.727C570.008 135.64 570.13 135.577 570.259 135.539C570.389 135.502 570.524 135.492 570.657 135.51C570.79 135.528 570.919 135.573 571.035 135.643L579.487 140.784C579.602 140.855 579.704 140.95 579.784 141.062C579.865 141.175 579.924 141.303 579.957 141.44C579.99 141.576 579.998 141.718 579.979 141.858C579.96 141.998 579.915 142.132 579.846 142.253C579.764 142.421 579.64 142.561 579.487 142.66C579.335 142.758 579.159 142.81 578.98 142.809V142.809ZM562.246 132.505C562.069 132.504 561.895 132.458 561.738 132.372L553.287 127.231C553.17 127.161 553.068 127.067 552.986 126.955C552.904 126.844 552.843 126.716 552.808 126.579C552.773 126.443 552.763 126.301 552.78 126.16C552.797 126.02 552.84 125.885 552.907 125.762C552.973 125.639 553.062 125.532 553.168 125.445C553.274 125.358 553.396 125.295 553.525 125.258C553.654 125.22 553.79 125.21 553.923 125.228C554.056 125.246 554.184 125.291 554.301 125.361L562.753 130.502C562.868 130.574 562.969 130.668 563.05 130.781C563.131 130.893 563.189 131.021 563.223 131.158C563.256 131.295 563.264 131.437 563.244 131.576C563.225 131.716 563.18 131.85 563.112 131.971C563.029 132.136 562.904 132.274 562.751 132.368C562.598 132.463 562.423 132.51 562.246 132.505V132.505ZM545.511 122.224C545.334 122.224 545.16 122.179 545.004 122.09L536.553 116.949C536.318 116.801 536.148 116.562 536.077 116.284C536.006 116.006 536.04 115.71 536.172 115.458C536.24 115.336 536.33 115.23 536.436 115.145C536.543 115.06 536.665 114.998 536.795 114.963C536.924 114.928 537.059 114.92 537.192 114.94C537.324 114.96 537.452 115.008 537.567 115.08L546.018 120.221C546.216 120.336 546.372 120.518 546.461 120.737C546.549 120.956 546.566 121.2 546.508 121.431C546.449 121.661 546.32 121.864 546.139 122.008C545.958 122.151 545.738 122.227 545.511 122.224V122.224ZM528.777 111.942C528.597 111.948 528.419 111.894 528.27 111.786L519.818 106.645C519.586 106.501 519.416 106.267 519.344 105.992C519.273 105.718 519.307 105.425 519.438 105.176C519.504 105.055 519.591 104.949 519.696 104.865C519.801 104.78 519.921 104.718 520.049 104.683C520.177 104.648 520.31 104.64 520.441 104.659C520.572 104.679 520.698 104.726 520.811 104.798L529.263 109.939C529.492 110.087 529.658 110.323 529.725 110.597C529.792 110.871 529.755 111.162 529.622 111.408C529.535 111.564 529.411 111.694 529.264 111.787C529.116 111.881 528.949 111.934 528.777 111.942ZM512.022 101.66C511.842 101.661 511.666 101.607 511.514 101.504L503.063 96.3634C502.834 96.2155 502.668 95.9796 502.601 95.7055C502.534 95.4314 502.571 95.1406 502.704 94.8946C502.837 94.651 503.055 94.4724 503.312 94.3974C503.569 94.3224 503.844 94.3571 504.077 94.494L512.529 99.6349C512.761 99.7791 512.931 100.013 513.002 100.288C513.074 100.562 513.04 100.855 512.909 101.104C512.822 101.272 512.694 101.412 512.538 101.51C512.381 101.608 512.203 101.66 512.022 101.66V101.66Z" fill="#BA68C8"/>
<path d="M591.616 150.576C591.436 150.577 591.26 150.523 591.109 150.421L586.883 147.794C586.767 147.723 586.666 147.629 586.586 147.516C586.505 147.404 586.446 147.275 586.413 147.139C586.38 147.002 586.372 146.86 586.391 146.721C586.41 146.581 586.455 146.447 586.524 146.326C586.587 146.202 586.674 146.094 586.779 146.008C586.883 145.921 587.004 145.858 587.133 145.823C587.261 145.787 587.396 145.78 587.527 145.801C587.659 145.823 587.785 145.872 587.897 145.947L592.123 148.551C592.356 148.695 592.526 148.93 592.597 149.204C592.668 149.478 592.634 149.771 592.503 150.02C592.416 150.188 592.288 150.328 592.132 150.426C591.976 150.524 591.798 150.576 591.616 150.576Z" fill="#BA68C8"/>
<g opacity="0.3">
<path opacity="0.3" d="M495.289 91.3559C495.112 91.3542 494.938 91.3084 494.782 91.2224L490.556 88.5963C490.44 88.5251 490.339 88.4305 490.259 88.318C490.178 88.2055 490.119 88.0772 490.086 87.9407C490.052 87.8041 490.045 87.662 490.064 87.5224C490.083 87.3828 490.128 87.2486 490.197 87.1275C490.33 86.8839 490.548 86.7053 490.805 86.6303C491.062 86.5553 491.337 86.59 491.57 86.7269L495.796 89.353C496.029 89.4972 496.199 89.7315 496.27 90.0059C496.341 90.2803 496.307 90.5731 496.176 90.8218C496.088 90.9872 495.959 91.1242 495.803 91.2183C495.646 91.3124 495.469 91.36 495.289 91.3559V91.3559Z" fill="black"/>
<path opacity="0.3" d="M578.98 142.809C578.8 142.81 578.624 142.756 578.473 142.654L570.021 137.513C569.905 137.442 569.802 137.349 569.72 137.237C569.638 137.125 569.577 136.998 569.542 136.861C569.507 136.725 569.497 136.582 569.514 136.442C569.531 136.302 569.574 136.167 569.641 136.044C569.707 135.921 569.796 135.813 569.902 135.727C570.008 135.64 570.13 135.577 570.259 135.539C570.389 135.502 570.524 135.492 570.657 135.51C570.79 135.528 570.919 135.573 571.035 135.643L579.487 140.784C579.602 140.855 579.704 140.95 579.784 141.062C579.865 141.175 579.924 141.303 579.957 141.44C579.99 141.576 579.998 141.718 579.979 141.858C579.96 141.998 579.915 142.132 579.846 142.253C579.764 142.421 579.64 142.561 579.487 142.66C579.335 142.758 579.159 142.81 578.98 142.809V142.809ZM562.246 132.505C562.069 132.504 561.895 132.458 561.738 132.372L553.287 127.231C553.17 127.161 553.068 127.067 552.986 126.955C552.904 126.844 552.843 126.716 552.808 126.579C552.773 126.443 552.763 126.301 552.78 126.16C552.797 126.02 552.84 125.885 552.907 125.762C552.973 125.639 553.062 125.532 553.168 125.445C553.274 125.358 553.396 125.295 553.525 125.258C553.654 125.22 553.79 125.21 553.923 125.228C554.056 125.246 554.184 125.291 554.301 125.361L562.753 130.502C562.868 130.574 562.969 130.668 563.05 130.781C563.131 130.893 563.189 131.021 563.223 131.158C563.256 131.295 563.264 131.437 563.244 131.576C563.225 131.716 563.18 131.85 563.112 131.971C563.029 132.136 562.904 132.274 562.751 132.368C562.598 132.463 562.423 132.51 562.246 132.505V132.505ZM545.511 122.224C545.334 122.224 545.16 122.179 545.004 122.09L536.553 116.949C536.318 116.801 536.148 116.562 536.077 116.284C536.006 116.006 536.04 115.71 536.172 115.458C536.24 115.336 536.33 115.23 536.436 115.145C536.543 115.06 536.665 114.998 536.795 114.963C536.924 114.928 537.059 114.92 537.192 114.94C537.324 114.96 537.452 115.008 537.567 115.08L546.018 120.221C546.216 120.336 546.372 120.518 546.461 120.737C546.549 120.956 546.566 121.2 546.508 121.431C546.449 121.661 546.32 121.864 546.139 122.008C545.958 122.151 545.738 122.227 545.511 122.224V122.224ZM528.777 111.942C528.597 111.948 528.419 111.894 528.27 111.786L519.818 106.645C519.586 106.501 519.416 106.267 519.344 105.992C519.273 105.718 519.307 105.425 519.438 105.176C519.504 105.055 519.591 104.949 519.696 104.865C519.801 104.78 519.921 104.718 520.049 104.683C520.177 104.648 520.31 104.64 520.441 104.659C520.572 104.679 520.698 104.726 520.811 104.798L529.263 109.939C529.492 110.087 529.658 110.323 529.725 110.597C529.792 110.871 529.755 111.162 529.622 111.408C529.535 111.564 529.411 111.694 529.264 111.787C529.116 111.881 528.949 111.934 528.777 111.942ZM512.022 101.66C511.842 101.661 511.666 101.607 511.514 101.504L503.063 96.3634C502.834 96.2155 502.668 95.9796 502.601 95.7055C502.534 95.4314 502.571 95.1406 502.704 94.8946C502.837 94.651 503.055 94.4724 503.312 94.3974C503.569 94.3224 503.844 94.3571 504.077 94.494L512.529 99.6349C512.761 99.7791 512.931 100.013 513.002 100.288C513.074 100.562 513.04 100.855 512.909 101.104C512.822 101.272 512.694 101.412 512.538 101.51C512.381 101.608 512.203 101.66 512.022 101.66V101.66Z" fill="black"/>
<path opacity="0.3" d="M591.616 150.576C591.436 150.577 591.26 150.523 591.109 150.421L586.883 147.794C586.767 147.723 586.666 147.629 586.586 147.516C586.505 147.404 586.446 147.275 586.413 147.139C586.38 147.002 586.372 146.86 586.391 146.721C586.41 146.581 586.455 146.447 586.524 146.326C586.587 146.202 586.674 146.094 586.779 146.008C586.883 145.921 587.004 145.858 587.133 145.823C587.261 145.787 587.396 145.78 587.527 145.801C587.659 145.823 587.785 145.872 587.897 145.947L592.123 148.551C592.356 148.695 592.526 148.93 592.597 149.204C592.668 149.478 592.634 149.771 592.503 150.02C592.416 150.188 592.288 150.328 592.132 150.426C591.976 150.524 591.798 150.576 591.616 150.576Z" fill="black"/>
</g>
<path d="M608.642 246.873C608.463 246.874 608.286 246.82 608.135 246.718L603.909 244.091C603.794 244.02 603.693 243.926 603.612 243.813C603.531 243.701 603.473 243.572 603.439 243.436C603.406 243.299 603.399 243.157 603.418 243.018C603.437 242.878 603.482 242.744 603.55 242.623C603.616 242.502 603.704 242.396 603.808 242.311C603.913 242.226 604.033 242.164 604.161 242.129C604.289 242.094 604.423 242.086 604.553 242.106C604.684 242.126 604.81 242.173 604.924 242.244L609.149 244.87C609.347 244.986 609.503 245.167 609.592 245.387C609.68 245.606 609.697 245.85 609.639 246.08C609.58 246.311 609.451 246.514 609.27 246.658C609.089 246.801 608.869 246.877 608.642 246.873V246.873Z" fill="#BA68C8"/>
<path d="M692.422 298.371C692.249 298.374 692.079 298.319 691.936 298.215L683.485 293.074C683.368 293.004 683.266 292.91 683.184 292.798C683.101 292.687 683.041 292.559 683.006 292.423C682.97 292.286 682.961 292.144 682.978 292.003C682.995 291.863 683.038 291.728 683.104 291.605C683.171 291.482 683.26 291.375 683.366 291.288C683.472 291.202 683.593 291.138 683.723 291.101C683.852 291.063 683.987 291.053 684.12 291.071C684.254 291.089 684.382 291.134 684.499 291.205L692.95 296.368C693.183 296.512 693.353 296.746 693.424 297.021C693.495 297.295 693.462 297.588 693.331 297.837C693.237 298.002 693.104 298.139 692.945 298.232C692.785 298.326 692.605 298.374 692.422 298.371ZM675.667 288.067C675.49 288.065 675.316 288.019 675.16 287.933L666.708 282.77C666.473 282.628 666.3 282.394 666.229 282.118C666.158 281.843 666.193 281.549 666.328 281.301C666.462 281.053 666.685 280.872 666.946 280.797C667.208 280.722 667.487 280.759 667.722 280.901L676.174 286.064C676.372 286.179 676.528 286.361 676.616 286.58C676.705 286.799 676.721 287.043 676.663 287.274C676.605 287.504 676.475 287.707 676.295 287.851C676.114 287.994 675.893 288.07 675.667 288.067V288.067ZM658.911 277.763C658.735 277.761 658.561 277.715 658.404 277.629L649.953 272.466C649.72 272.322 649.55 272.087 649.479 271.813C649.408 271.539 649.441 271.246 649.572 270.997C649.64 270.875 649.73 270.769 649.836 270.684C649.943 270.599 650.065 270.537 650.195 270.502C650.324 270.467 650.459 270.459 650.592 270.479C650.724 270.499 650.852 270.547 650.967 270.619L659.418 275.76C659.651 275.904 659.821 276.138 659.892 276.413C659.963 276.687 659.93 276.98 659.799 277.228C659.711 277.394 659.582 277.531 659.425 277.625C659.269 277.719 659.091 277.767 658.911 277.763V277.763ZM642.156 267.57C641.979 267.568 641.806 267.522 641.649 267.436L633.197 262.295C632.964 262.151 632.794 261.917 632.723 261.643C632.652 261.368 632.686 261.075 632.817 260.827C632.883 260.703 632.971 260.595 633.077 260.507C633.183 260.42 633.305 260.356 633.434 260.319C633.564 260.281 633.7 260.272 633.833 260.29C633.967 260.309 634.095 260.355 634.211 260.426L642.663 265.567C642.896 265.711 643.066 265.945 643.137 266.22C643.208 266.494 643.174 266.787 643.043 267.036C642.955 267.201 642.826 267.338 642.67 267.432C642.514 267.526 642.336 267.574 642.156 267.57V267.57ZM625.401 257.288C625.221 257.289 625.045 257.235 624.893 257.132L616.442 251.991C616.325 251.921 616.223 251.828 616.141 251.716C616.059 251.604 615.998 251.476 615.963 251.34C615.927 251.204 615.918 251.061 615.935 250.921C615.952 250.781 615.995 250.645 616.061 250.523C616.128 250.4 616.217 250.292 616.323 250.206C616.429 250.119 616.55 250.055 616.68 250.018C616.809 249.981 616.945 249.971 617.078 249.989C617.211 250.007 617.339 250.052 617.456 250.122L625.908 255.263C626.142 255.411 626.312 255.65 626.383 255.928C626.454 256.206 626.42 256.502 626.288 256.754C626.184 256.896 626.049 257.008 625.894 257.082C625.74 257.156 625.57 257.188 625.401 257.177V257.288Z" fill="#BA68C8"/>
<path d="M705.077 306.138C704.9 306.136 704.726 306.09 704.57 306.004L700.344 303.378C700.228 303.307 700.127 303.212 700.047 303.1C699.966 302.987 699.907 302.859 699.874 302.723C699.84 302.586 699.833 302.444 699.852 302.304C699.871 302.165 699.916 302.03 699.985 301.909C700.048 301.787 700.135 301.678 700.239 301.592C700.343 301.505 700.463 301.441 700.591 301.403C700.719 301.366 700.853 301.356 700.985 301.374C701.117 301.392 701.243 301.438 701.358 301.509L705.584 304.135C705.699 304.206 705.801 304.301 705.881 304.413C705.962 304.526 706.021 304.654 706.054 304.79C706.087 304.927 706.095 305.069 706.076 305.209C706.057 305.348 706.012 305.483 705.943 305.604C705.854 305.763 705.727 305.895 705.576 305.989C705.424 306.082 705.252 306.133 705.077 306.138V306.138Z" fill="#BA68C8"/>
<g opacity="0.3">
<path opacity="0.3" d="M608.642 246.873C608.463 246.874 608.286 246.82 608.135 246.718L603.909 244.091C603.794 244.02 603.693 243.926 603.612 243.813C603.531 243.701 603.473 243.572 603.439 243.436C603.406 243.299 603.399 243.157 603.418 243.018C603.437 242.878 603.482 242.744 603.55 242.623C603.616 242.502 603.704 242.396 603.808 242.311C603.913 242.226 604.033 242.164 604.161 242.129C604.289 242.094 604.423 242.086 604.553 242.106C604.684 242.126 604.81 242.173 604.924 242.244L609.149 244.87C609.347 244.986 609.503 245.167 609.592 245.387C609.68 245.606 609.697 245.85 609.639 246.08C609.58 246.311 609.451 246.514 609.27 246.658C609.089 246.801 608.869 246.877 608.642 246.873V246.873Z" fill="black"/>
<path opacity="0.3" d="M692.417 298.371C692.244 298.374 692.074 298.319 691.931 298.215L683.48 293.074C683.363 293.004 683.261 292.91 683.179 292.798C683.096 292.687 683.036 292.559 683.001 292.423C682.965 292.286 682.956 292.144 682.973 292.003C682.99 291.863 683.033 291.728 683.099 291.605C683.166 291.482 683.255 291.375 683.361 291.288C683.467 291.202 683.588 291.138 683.718 291.101C683.847 291.063 683.982 291.053 684.116 291.071C684.249 291.089 684.377 291.134 684.494 291.205L692.946 296.368C693.178 296.512 693.348 296.746 693.419 297.021C693.49 297.295 693.457 297.588 693.326 297.837C693.233 298.002 693.099 298.139 692.94 298.232C692.78 298.326 692.6 298.374 692.417 298.371ZM675.662 288.067C675.485 288.065 675.311 288.019 675.155 287.933L666.703 282.77C666.468 282.628 666.295 282.394 666.224 282.118C666.153 281.843 666.188 281.549 666.323 281.301C666.457 281.053 666.68 280.872 666.941 280.797C667.203 280.722 667.482 280.759 667.717 280.901L676.169 286.064C676.367 286.179 676.523 286.361 676.611 286.58C676.7 286.799 676.716 287.043 676.658 287.274C676.6 287.504 676.47 287.707 676.29 287.851C676.109 287.994 675.888 288.07 675.662 288.067V288.067ZM658.906 277.763C658.73 277.761 658.556 277.715 658.399 277.629L649.948 272.466C649.715 272.322 649.545 272.087 649.474 271.813C649.403 271.539 649.436 271.246 649.567 270.997C649.635 270.875 649.725 270.769 649.832 270.684C649.938 270.599 650.06 270.537 650.19 270.502C650.319 270.467 650.454 270.459 650.587 270.479C650.719 270.499 650.847 270.547 650.962 270.619L659.414 275.76C659.646 275.904 659.816 276.138 659.887 276.413C659.958 276.687 659.925 276.98 659.794 277.228C659.706 277.394 659.577 277.531 659.42 277.625C659.264 277.719 659.086 277.767 658.906 277.763V277.763ZM642.151 267.57C641.974 267.568 641.801 267.522 641.644 267.436L633.192 262.295C632.96 262.151 632.79 261.917 632.719 261.643C632.647 261.368 632.681 261.075 632.812 260.827C632.878 260.703 632.966 260.595 633.072 260.507C633.178 260.42 633.3 260.356 633.43 260.319C633.559 260.281 633.695 260.272 633.828 260.29C633.962 260.309 634.09 260.355 634.206 260.426L642.658 265.567C642.891 265.711 643.061 265.945 643.132 266.22C643.203 266.494 643.169 266.787 643.038 267.036C642.95 267.201 642.821 267.338 642.665 267.432C642.509 267.526 642.331 267.574 642.151 267.57V267.57ZM625.396 257.288C625.216 257.289 625.04 257.235 624.889 257.132L616.437 251.991C616.32 251.921 616.218 251.828 616.136 251.716C616.054 251.604 615.993 251.476 615.958 251.34C615.923 251.204 615.913 251.061 615.93 250.921C615.947 250.781 615.99 250.645 616.057 250.523C616.123 250.4 616.212 250.292 616.318 250.206C616.424 250.119 616.546 250.055 616.675 250.018C616.805 249.981 616.94 249.971 617.073 249.989C617.206 250.007 617.335 250.052 617.451 250.122L625.903 255.263C626.137 255.411 626.307 255.65 626.378 255.928C626.449 256.206 626.415 256.502 626.283 256.754C626.179 256.896 626.044 257.008 625.89 257.082C625.735 257.156 625.565 257.188 625.396 257.177V257.288Z" fill="black"/>
<path opacity="0.3" d="M705.076 306.138C704.899 306.136 704.725 306.09 704.569 306.004L700.343 303.378C700.227 303.307 700.126 303.212 700.046 303.1C699.965 302.987 699.906 302.859 699.873 302.723C699.84 302.586 699.832 302.444 699.851 302.304C699.87 302.165 699.915 302.03 699.984 301.909C700.048 301.787 700.134 301.678 700.238 301.592C700.342 301.505 700.462 301.441 700.59 301.403C700.718 301.366 700.852 301.356 700.984 301.374C701.116 301.392 701.242 301.438 701.357 301.509L705.583 304.135C705.699 304.206 705.8 304.301 705.88 304.413C705.961 304.526 706.02 304.654 706.053 304.79C706.086 304.927 706.094 305.069 706.075 305.209C706.056 305.348 706.011 305.483 705.942 305.604C705.853 305.763 705.726 305.895 705.575 305.989C705.423 306.082 705.251 306.133 705.076 306.138V306.138Z" fill="black"/>
</g>
<path d="M711.628 466.017C711.452 466.013 711.28 465.962 711.129 465.868C710.977 465.775 710.851 465.642 710.761 465.483C710.628 465.237 710.592 464.946 710.659 464.672C710.726 464.398 710.891 464.162 711.121 464.014L715.346 461.388C715.579 461.251 715.854 461.217 716.111 461.292C716.368 461.367 716.587 461.545 716.72 461.789C716.851 462.038 716.884 462.33 716.813 462.605C716.742 462.879 716.572 463.113 716.339 463.258L712.114 465.884C711.965 465.97 711.798 466.016 711.628 466.017V466.017Z" fill="#BA68C8"/>
<path d="M725.596 457.449C725.419 457.451 725.245 457.403 725.092 457.309C724.939 457.215 724.814 457.078 724.729 456.915C724.658 456.794 724.61 456.66 724.59 456.52C724.569 456.38 724.576 456.236 724.61 456.099C724.643 455.962 724.703 455.833 724.785 455.721C724.868 455.608 724.971 455.515 725.088 455.446L734.766 449.482C734.882 449.41 735.01 449.364 735.144 449.346C735.277 449.327 735.413 449.337 735.543 449.374C735.672 449.412 735.794 449.476 735.9 449.563C736.006 449.65 736.094 449.759 736.16 449.882C736.291 450.131 736.325 450.424 736.254 450.698C736.183 450.972 736.013 451.207 735.78 451.351L726.082 457.293C725.936 457.391 725.768 457.445 725.596 457.449V457.449ZM744.971 445.542C744.792 445.542 744.616 445.492 744.46 445.399C744.305 445.305 744.175 445.171 744.084 445.008C743.953 444.76 743.919 444.467 743.99 444.192C744.061 443.918 744.231 443.684 744.464 443.54L754.141 437.575C754.376 437.434 754.656 437.396 754.917 437.471C755.179 437.546 755.401 437.728 755.536 437.976C755.67 438.224 755.706 438.518 755.634 438.793C755.563 439.069 755.391 439.303 755.155 439.445L745.478 445.387C745.334 445.513 745.157 445.591 744.971 445.609V445.542Z" fill="#BA68C8"/>
<path d="M764.345 433.636C764.166 433.636 763.99 433.586 763.835 433.493C763.679 433.399 763.549 433.264 763.458 433.102C763.327 432.853 763.293 432.561 763.364 432.286C763.435 432.012 763.605 431.777 763.838 431.633L766.564 429.942L763.838 428.251C763.722 428.18 763.619 428.087 763.537 427.975C763.455 427.863 763.395 427.735 763.359 427.599C763.324 427.463 763.314 427.32 763.331 427.18C763.348 427.04 763.391 426.904 763.458 426.782C763.525 426.659 763.613 426.551 763.72 426.465C763.826 426.378 763.947 426.314 764.076 426.277C764.206 426.24 764.341 426.23 764.474 426.248C764.607 426.266 764.736 426.311 764.852 426.381L769.078 429.007C769.269 429.132 769.418 429.319 769.501 429.539C769.585 429.759 769.6 430.002 769.543 430.231C769.5 430.398 769.42 430.551 769.31 430.679C769.2 430.806 769.062 430.905 768.909 430.966L764.683 433.48C764.583 433.559 764.468 433.612 764.345 433.636V433.636Z" fill="#BA68C8"/>
<path d="M755.935 423.221C755.758 423.224 755.583 423.178 755.428 423.088L746.976 417.925C746.744 417.78 746.574 417.546 746.502 417.272C746.431 416.997 746.465 416.704 746.596 416.456C746.66 416.333 746.746 416.225 746.85 416.138C746.955 416.051 747.074 415.987 747.202 415.95C747.33 415.912 747.464 415.902 747.596 415.92C747.728 415.939 747.855 415.984 747.969 416.055L756.421 421.218C756.65 421.366 756.816 421.602 756.883 421.876C756.95 422.15 756.913 422.441 756.78 422.687C756.696 422.846 756.573 422.979 756.425 423.072C756.277 423.166 756.108 423.217 755.935 423.221V423.221ZM739.032 412.895C738.858 412.898 738.688 412.844 738.546 412.739L730.094 407.576C729.865 407.428 729.699 407.192 729.632 406.918C729.565 406.644 729.602 406.353 729.735 406.107C729.868 405.864 730.086 405.685 730.344 405.61C730.601 405.535 730.875 405.57 731.108 405.707L739.56 410.87C739.794 411.018 739.965 411.256 740.036 411.535C740.106 411.813 740.072 412.109 739.94 412.361C739.853 412.517 739.729 412.647 739.582 412.741C739.434 412.834 739.267 412.887 739.095 412.895H739.032Z" fill="#BA68C8"/>
<path d="M722.277 402.547C722.101 402.545 721.927 402.499 721.77 402.413L717.544 399.787C717.315 399.639 717.15 399.403 717.083 399.129C717.015 398.855 717.052 398.564 717.185 398.318C717.318 398.075 717.537 397.896 717.794 397.821C718.051 397.746 718.326 397.781 718.558 397.918L722.784 400.544C722.982 400.659 723.138 400.841 723.227 401.06C723.315 401.279 723.332 401.523 723.274 401.754C723.215 401.984 723.085 402.187 722.905 402.331C722.724 402.474 722.503 402.55 722.277 402.547V402.547Z" fill="#BA68C8"/>
<path d="M707.337 554.48C707.161 554.48 706.987 554.431 706.835 554.337C706.683 554.243 706.557 554.108 706.471 553.946C706.34 553.697 706.306 553.405 706.377 553.13C706.448 552.856 706.618 552.621 706.851 552.477L711.077 549.851C711.31 549.714 711.585 549.68 711.842 549.755C712.099 549.83 712.317 550.008 712.45 550.252C712.581 550.5 712.615 550.793 712.544 551.068C712.473 551.342 712.303 551.576 712.07 551.721L707.844 554.347C707.689 554.437 707.514 554.483 707.337 554.48V554.48Z" fill="#BA68C8"/>
<path d="M610.059 614.278C609.883 614.278 609.709 614.229 609.557 614.135C609.405 614.041 609.279 613.906 609.193 613.744C609.124 613.623 609.079 613.489 609.06 613.349C609.041 613.21 609.048 613.067 609.082 612.931C609.115 612.794 609.174 612.666 609.255 612.554C609.335 612.441 609.436 612.346 609.552 612.275L617.665 607.29C617.898 607.153 618.173 607.119 618.43 607.194C618.687 607.269 618.906 607.447 619.039 607.691C619.107 607.812 619.152 607.946 619.172 608.086C619.191 608.225 619.183 608.367 619.15 608.504C619.116 608.641 619.058 608.769 618.977 608.881C618.896 608.994 618.795 609.088 618.68 609.16L610.566 614.145C610.41 614.233 610.236 614.279 610.059 614.278ZM626.286 604.308C626.106 604.312 625.929 604.264 625.772 604.17C625.616 604.076 625.487 603.939 625.399 603.774C625.268 603.525 625.234 603.232 625.305 602.958C625.376 602.684 625.546 602.449 625.779 602.305L633.872 597.32C633.988 597.25 634.117 597.205 634.25 597.187C634.383 597.169 634.518 597.179 634.648 597.216C634.777 597.253 634.898 597.317 635.004 597.404C635.111 597.49 635.199 597.598 635.266 597.721C635.333 597.843 635.376 597.979 635.393 598.119C635.409 598.259 635.4 598.402 635.365 598.538C635.329 598.674 635.269 598.802 635.187 598.914C635.105 599.026 635.002 599.119 634.886 599.189L626.772 604.174C626.624 604.263 626.456 604.309 626.286 604.308V604.308ZM642.492 594.36C642.315 594.363 642.141 594.314 641.989 594.22C641.836 594.126 641.711 593.99 641.626 593.826C641.487 593.578 641.446 593.282 641.513 593.002C641.581 592.723 641.75 592.483 641.985 592.335L650.014 587.372C650.128 587.3 650.253 587.253 650.384 587.234C650.515 587.214 650.649 587.222 650.776 587.257C650.904 587.292 651.024 587.354 651.129 587.439C651.234 587.524 651.322 587.629 651.388 587.75C651.52 587.996 651.557 588.287 651.49 588.561C651.423 588.835 651.258 589.071 651.028 589.219L642.915 594.204C642.788 594.292 642.643 594.345 642.492 594.36V594.36ZM658.698 584.39C658.523 584.386 658.351 584.334 658.2 584.241C658.048 584.147 657.922 584.015 657.832 583.856C657.699 583.61 657.662 583.319 657.729 583.045C657.796 582.771 657.962 582.535 658.191 582.387L666.305 577.402C666.417 577.327 666.543 577.277 666.675 577.256C666.806 577.234 666.941 577.242 667.069 577.277C667.198 577.313 667.319 577.376 667.423 577.462C667.528 577.549 667.615 577.657 667.678 577.78C667.75 577.901 667.797 578.035 667.818 578.175C667.838 578.315 667.832 578.458 667.798 578.596C667.764 578.733 667.705 578.862 667.622 578.974C667.54 579.087 667.437 579.18 667.319 579.249L659.205 584.234C659.055 584.339 658.878 584.393 658.698 584.39V584.39ZM674.925 574.42C674.699 574.424 674.478 574.348 674.298 574.204C674.117 574.06 673.987 573.857 673.929 573.627C673.871 573.397 673.887 573.152 673.976 572.933C674.065 572.714 674.22 572.532 674.418 572.417L682.532 567.432C682.647 567.361 682.774 567.315 682.905 567.297C683.037 567.279 683.171 567.289 683.299 567.326C683.427 567.363 683.547 567.428 683.651 567.514C683.755 567.601 683.842 567.71 683.905 567.832C684.036 568.081 684.07 568.374 683.999 568.648C683.928 568.923 683.758 569.157 683.525 569.301L675.369 574.286C675.232 574.363 675.081 574.408 674.925 574.42V574.42ZM691.131 564.45C690.954 564.454 690.779 564.407 690.626 564.313C690.473 564.218 690.348 564.081 690.265 563.915C690.197 563.794 690.152 563.66 690.133 563.521C690.114 563.381 690.121 563.239 690.154 563.102C690.188 562.966 690.246 562.837 690.327 562.725C690.408 562.612 690.509 562.518 690.624 562.447L698.738 557.462C698.971 557.325 699.246 557.29 699.503 557.365C699.76 557.44 699.978 557.619 700.111 557.862C700.18 557.983 700.225 558.117 700.244 558.257C700.263 558.397 700.256 558.539 700.222 558.675C700.189 558.812 700.13 558.94 700.049 559.053C699.969 559.165 699.868 559.26 699.752 559.331L691.639 564.316C691.482 564.402 691.308 564.448 691.131 564.45V564.45Z" fill="#BA68C8"/>
<path d="M597.679 621.89C597.504 621.886 597.332 621.834 597.181 621.741C597.029 621.647 596.903 621.515 596.813 621.356C596.68 621.11 596.643 620.819 596.71 620.545C596.777 620.271 596.943 620.035 597.172 619.887L601.398 617.261C601.513 617.19 601.64 617.144 601.771 617.126C601.903 617.108 602.037 617.118 602.165 617.155C602.293 617.193 602.413 617.257 602.517 617.344C602.621 617.431 602.708 617.539 602.771 617.662C602.902 617.91 602.936 618.203 602.865 618.477C602.794 618.752 602.624 618.986 602.391 619.13L598.165 621.756C598.016 621.843 597.849 621.889 597.679 621.89V621.89Z" fill="#BA68C8"/>
<path d="M593.391 710.442C593.215 710.442 593.041 710.392 592.889 710.298C592.737 710.204 592.611 710.07 592.525 709.908C592.397 709.66 592.363 709.371 592.43 709.099C592.497 708.826 592.659 708.59 592.884 708.439L597.11 705.813C597.343 705.676 597.617 705.641 597.874 705.716C598.132 705.791 598.35 705.97 598.483 706.213C598.614 706.462 598.648 706.755 598.577 707.029C598.506 707.303 598.336 707.538 598.103 707.682L593.877 710.308C593.728 710.395 593.561 710.441 593.391 710.442V710.442Z" fill="#BA68C8"/>
<path d="M496.112 770.152C495.934 770.157 495.759 770.11 495.606 770.015C495.453 769.921 495.328 769.783 495.245 769.618C495.177 769.497 495.132 769.363 495.113 769.223C495.094 769.084 495.101 768.941 495.135 768.805C495.168 768.668 495.227 768.54 495.307 768.428C495.388 768.315 495.489 768.22 495.605 768.149L503.718 763.164C503.951 763.027 504.226 762.993 504.483 763.068C504.74 763.143 504.959 763.321 505.092 763.565C505.16 763.686 505.205 763.82 505.224 763.96C505.243 764.099 505.236 764.241 505.202 764.378C505.169 764.515 505.11 764.643 505.03 764.755C504.949 764.868 504.848 764.962 504.732 765.034L496.619 770.019C496.462 770.105 496.288 770.15 496.112 770.152V770.152ZM512.318 760.182C512.141 760.182 511.968 760.133 511.816 760.039C511.664 759.945 511.538 759.81 511.451 759.648C511.324 759.401 511.29 759.112 511.357 758.839C511.423 758.567 511.586 758.331 511.811 758.179L519.924 753.194C520.041 753.124 520.169 753.079 520.303 753.061C520.436 753.043 520.571 753.053 520.7 753.09C520.83 753.127 520.951 753.191 521.057 753.278C521.163 753.364 521.252 753.472 521.319 753.595C521.385 753.717 521.428 753.853 521.445 753.993C521.462 754.133 521.453 754.276 521.417 754.412C521.382 754.548 521.322 754.676 521.239 754.788C521.157 754.9 521.055 754.993 520.938 755.063L512.825 760.049C512.67 760.139 512.495 760.185 512.318 760.182V760.182ZM528.545 750.234C528.363 750.234 528.185 750.182 528.029 750.084C527.873 749.986 527.745 749.846 527.658 749.678C527.527 749.429 527.493 749.136 527.564 748.862C527.635 748.587 527.805 748.353 528.038 748.209L536.151 743.246C536.265 743.174 536.391 743.127 536.522 743.108C536.652 743.088 536.786 743.096 536.914 743.131C537.042 743.166 537.162 743.228 537.266 743.313C537.371 743.398 537.459 743.503 537.525 743.624C537.656 743.873 537.689 744.166 537.618 744.44C537.547 744.715 537.377 744.949 537.144 745.093L529.052 750.078C528.901 750.181 528.725 750.235 528.545 750.234V750.234ZM544.751 740.264C544.525 740.268 544.304 740.192 544.123 740.048C543.943 739.904 543.813 739.701 543.755 739.471C543.696 739.241 543.713 738.997 543.802 738.777C543.89 738.558 544.046 738.376 544.244 738.261L552.358 733.276C552.47 733.201 552.596 733.151 552.728 733.13C552.859 733.109 552.993 733.116 553.122 733.151C553.251 733.187 553.371 733.25 553.476 733.336C553.581 733.423 553.668 733.531 553.731 733.654C553.802 733.775 553.85 733.909 553.87 734.049C553.891 734.189 553.884 734.332 553.851 734.47C553.817 734.607 553.757 734.736 553.675 734.848C553.593 734.961 553.489 735.054 553.372 735.123L545.258 740.108C545.108 740.213 544.931 740.267 544.751 740.264V740.264ZM560.978 730.294C560.752 730.298 560.531 730.222 560.35 730.078C560.17 729.934 560.04 729.731 559.982 729.501C559.924 729.271 559.94 729.026 560.029 728.807C560.117 728.588 560.273 728.406 560.471 728.291L568.564 723.306C568.68 723.234 568.808 723.188 568.942 723.17C569.075 723.151 569.211 723.161 569.34 723.198C569.47 723.236 569.592 723.3 569.698 723.387C569.804 723.474 569.892 723.583 569.958 723.706C570.089 723.955 570.123 724.248 570.052 724.522C569.98 724.797 569.81 725.031 569.578 725.175L561.464 730.16C561.316 730.249 561.148 730.295 560.978 730.294V730.294ZM577.184 720.324C577.007 720.329 576.832 720.281 576.679 720.187C576.526 720.092 576.401 719.955 576.318 719.789C576.249 719.668 576.204 719.534 576.185 719.395C576.166 719.255 576.174 719.113 576.207 718.976C576.24 718.84 576.299 718.711 576.38 718.599C576.461 718.486 576.562 718.392 576.677 718.321L584.791 713.336C585.024 713.199 585.298 713.164 585.555 713.239C585.813 713.314 586.031 713.493 586.164 713.736C586.292 713.983 586.326 714.272 586.259 714.545C586.192 714.818 586.03 715.053 585.805 715.205L577.691 720.19C577.535 720.276 577.361 720.322 577.184 720.324V720.324Z" fill="#BA68C8"/>
<path d="M483.731 777.763C483.556 777.759 483.384 777.707 483.232 777.614C483.081 777.52 482.954 777.388 482.865 777.229C482.732 776.983 482.695 776.692 482.762 776.418C482.829 776.144 482.995 775.908 483.224 775.76L487.45 773.134C487.566 773.063 487.695 773.016 487.828 772.998C487.961 772.98 488.097 772.989 488.227 773.027C488.356 773.064 488.478 773.128 488.584 773.215C488.69 773.302 488.779 773.411 488.844 773.535C488.975 773.783 489.009 774.076 488.938 774.35C488.867 774.625 488.697 774.859 488.464 775.003L484.238 777.629C484.082 777.718 483.908 777.764 483.731 777.763Z" fill="#BA68C8"/>
<path d="M550.415 124.159C547.399 125.793 544.056 126.646 540.664 126.646C537.272 126.646 533.929 125.793 530.913 124.159C525.546 120.866 525.546 115.502 530.913 112.186C533.929 110.552 537.272 109.7 540.664 109.7C544.056 109.7 547.399 110.552 550.415 112.186C555.803 115.502 555.803 120.866 550.415 124.159Z" fill="#455A64"/>
<path d="M540.671 60.5114V12.3074L599.811 36.4094L540.671 60.5114Z" fill="#BA68C8"/>
<path d="M540.672 120.332C540.112 120.332 539.574 120.098 539.178 119.68C538.782 119.263 538.559 118.697 538.559 118.107V2.84862C538.467 2.51694 538.45 2.1673 538.509 1.82738C538.567 1.48745 538.7 1.16659 538.897 0.890189C539.094 0.613793 539.349 0.389459 539.643 0.234948C539.936 0.080438 540.259 0 540.587 0C540.916 0 541.239 0.080438 541.532 0.234948C541.826 0.389459 542.081 0.613793 542.278 0.890189C542.475 1.16659 542.608 1.48745 542.666 1.82738C542.725 2.1673 542.708 2.51694 542.616 2.84862V118.173C542.602 118.722 542.396 119.247 542.037 119.645C541.678 120.044 541.192 120.288 540.672 120.332Z" fill="#263238"/>
<path d="M575.755 203.728V202.685L577.832 199.159C578.008 198.85 578.157 198.579 578.276 198.346C578.398 198.111 578.49 197.897 578.553 197.705C578.615 197.511 578.647 197.324 578.647 197.143C578.647 196.943 578.608 196.794 578.53 196.697C578.452 196.598 578.346 196.55 578.211 196.555C578.076 196.557 577.923 196.611 577.752 196.716C577.574 196.825 577.418 196.963 577.285 197.129C577.152 197.295 577.049 197.479 576.977 197.681C576.905 197.884 576.869 198.094 576.869 198.312L575.698 199.029C575.698 198.581 575.785 198.14 575.957 197.704C576.13 197.269 576.372 196.866 576.684 196.495C576.995 196.124 577.354 195.814 577.761 195.565C578.178 195.309 578.542 195.173 578.852 195.157C579.163 195.138 579.405 195.228 579.578 195.427C579.751 195.626 579.837 195.923 579.837 196.317C579.837 196.576 579.794 196.857 579.706 197.162C579.621 197.466 579.468 197.84 579.248 198.282C579.027 198.722 578.717 199.278 578.316 199.951L577.464 201.452V201.498L579.914 199.998V201.181L575.755 203.728ZM583.096 199.383C582.606 199.681 582.184 199.797 581.831 199.733C581.479 199.668 581.209 199.427 581.019 199.011C580.831 198.594 580.738 198.011 580.74 197.261C580.74 196.515 580.834 195.822 581.022 195.181C581.212 194.539 581.482 193.974 581.834 193.485C582.187 192.992 582.607 192.597 583.096 192.298C583.584 191.999 584.003 191.88 584.355 191.941C584.708 192.001 584.98 192.235 585.169 192.645C585.359 193.052 585.453 193.629 585.451 194.376C585.451 195.126 585.356 195.826 585.167 196.474C584.979 197.122 584.709 197.693 584.358 198.189C584.006 198.685 583.586 199.083 583.096 199.383ZM583.096 198.184C583.43 197.979 583.697 197.618 583.896 197.102C584.095 196.586 584.194 195.934 584.192 195.147C584.192 194.628 584.147 194.224 584.056 193.935C583.966 193.644 583.839 193.463 583.674 193.39C583.511 193.316 583.318 193.348 583.096 193.484C582.763 193.687 582.497 194.045 582.298 194.557C582.099 195.068 581.998 195.714 581.996 196.492C581.996 197.017 582.041 197.429 582.13 197.726C582.221 198.02 582.349 198.204 582.514 198.279C582.68 198.351 582.873 198.32 583.096 198.184ZM588.57 195.974C588.27 196.155 587.98 196.273 587.701 196.329C587.424 196.383 587.175 196.347 586.955 196.221C586.735 196.095 586.56 195.857 586.431 195.507C586.303 195.155 586.24 194.666 586.24 194.04C586.242 193.464 586.298 192.917 586.408 192.397C586.52 191.874 586.679 191.391 586.886 190.948C587.095 190.504 587.345 190.111 587.636 189.768C587.926 189.423 588.252 189.14 588.613 188.919C589.002 188.681 589.346 188.559 589.644 188.555C589.942 188.548 590.182 188.641 590.362 188.833C590.544 189.025 590.654 189.297 590.692 189.65L589.476 190.395C589.429 190.186 589.329 190.06 589.177 190.017C589.025 189.974 588.837 190.021 588.613 190.158C588.233 190.391 587.944 190.762 587.747 191.27C587.551 191.777 587.451 192.365 587.448 193.033L587.488 193.009C587.575 192.753 587.693 192.508 587.841 192.275C587.991 192.038 588.161 191.824 588.351 191.632C588.543 191.436 588.745 191.273 588.958 191.143C589.303 190.932 589.611 190.839 589.881 190.865C590.15 190.889 590.363 191.02 590.519 191.256C590.674 191.493 590.752 191.825 590.752 192.252C590.752 192.715 590.66 193.184 590.476 193.657C590.294 194.13 590.038 194.569 589.71 194.975C589.383 195.378 589.003 195.711 588.57 195.974ZM588.564 194.841C588.754 194.725 588.924 194.567 589.074 194.369C589.224 194.17 589.342 193.953 589.428 193.718C589.513 193.483 589.556 193.252 589.556 193.025C589.556 192.798 589.513 192.62 589.428 192.492C589.344 192.363 589.228 192.29 589.08 192.274C588.932 192.258 588.763 192.308 588.573 192.424C588.431 192.511 588.299 192.623 588.177 192.76C588.057 192.896 587.952 193.047 587.861 193.214C587.771 193.38 587.701 193.553 587.65 193.731C587.599 193.907 587.573 194.078 587.573 194.242C587.573 194.463 587.616 194.638 587.701 194.769C587.789 194.898 587.906 194.971 588.054 194.99C588.205 195.007 588.374 194.958 588.564 194.841ZM593.914 192.758C593.424 193.055 593.003 193.172 592.649 193.108C592.298 193.043 592.027 192.802 591.838 192.386C591.65 191.969 591.556 191.386 591.558 190.636C591.558 189.89 591.652 189.197 591.84 188.556C592.03 187.914 592.301 187.349 592.652 186.86C593.006 186.367 593.426 185.972 593.914 185.673C594.402 185.374 594.822 185.255 595.173 185.316C595.527 185.376 595.798 185.61 595.988 186.019C596.178 186.426 596.272 187.004 596.27 187.751C596.27 188.501 596.175 189.201 595.985 189.849C595.797 190.497 595.528 191.068 595.176 191.564C594.825 192.06 594.404 192.458 593.914 192.758ZM593.914 191.558C594.249 191.354 594.515 190.993 594.715 190.477C594.914 189.961 595.013 189.309 595.011 188.522C595.011 188.003 594.965 187.599 594.874 187.309C594.785 187.019 594.658 186.837 594.493 186.765C594.329 186.691 594.136 186.722 593.914 186.858C593.582 187.062 593.316 187.42 593.117 187.932C592.917 188.443 592.817 189.088 592.815 189.867C592.815 190.392 592.859 190.804 592.949 191.101C593.04 191.395 593.168 191.579 593.333 191.654C593.498 191.726 593.692 191.695 593.914 191.558Z" fill="#F4F4F4"/>
<path d="M690.084 359.377V358.335L692.161 354.808C692.338 354.5 692.486 354.229 692.605 353.995C692.727 353.76 692.819 353.547 692.882 353.355C692.944 353.16 692.976 352.973 692.976 352.793C692.976 352.592 692.937 352.444 692.859 352.346C692.781 352.247 692.675 352.2 692.54 352.204C692.405 352.207 692.252 352.26 692.081 352.365C691.903 352.474 691.747 352.612 691.614 352.778C691.481 352.944 691.378 353.128 691.306 353.331C691.234 353.533 691.198 353.743 691.198 353.961L690.027 354.678C690.027 354.231 690.114 353.789 690.286 353.354C690.459 352.918 690.701 352.515 691.013 352.144C691.324 351.773 691.683 351.463 692.09 351.214C692.508 350.958 692.871 350.822 693.181 350.807C693.492 350.787 693.734 350.877 693.907 351.077C694.08 351.276 694.166 351.573 694.166 351.967C694.166 352.225 694.123 352.507 694.035 352.812C693.95 353.116 693.797 353.489 693.577 353.931C693.356 354.371 693.046 354.928 692.645 355.601L691.793 357.101V357.148L694.243 355.647V356.83L690.084 359.377ZM697.425 355.032C696.935 355.33 696.513 355.447 696.16 355.382C695.808 355.317 695.538 355.076 695.348 354.66C695.16 354.243 695.067 353.66 695.069 352.911C695.069 352.165 695.163 351.471 695.351 350.831C695.541 350.189 695.811 349.623 696.163 349.134C696.516 348.642 696.937 348.246 697.425 347.947C697.913 347.648 698.332 347.529 698.684 347.59C699.037 347.65 699.309 347.885 699.499 348.294C699.688 348.701 699.782 349.278 699.781 350.025C699.781 350.776 699.686 351.475 699.496 352.124C699.308 352.771 699.038 353.343 698.687 353.838C698.335 354.334 697.915 354.732 697.425 355.032ZM697.425 353.833C697.759 353.628 698.026 353.268 698.225 352.752C698.425 352.235 698.523 351.583 698.521 350.796C698.521 350.277 698.476 349.873 698.385 349.584C698.295 349.293 698.168 349.112 698.003 349.039C697.84 348.966 697.647 348.997 697.425 349.133C697.092 349.337 696.826 349.694 696.627 350.206C696.428 350.718 696.327 351.363 696.325 352.141C696.325 352.667 696.37 353.078 696.459 353.375C696.55 353.669 696.678 353.854 696.844 353.928C697.009 354.001 697.202 353.969 697.425 353.833ZM702.791 351.689C702.388 351.936 702.029 352.069 701.714 352.088C701.401 352.106 701.152 352.019 700.968 351.827C700.784 351.635 700.688 351.344 700.68 350.954L701.876 350.222C701.89 350.478 701.985 350.635 702.161 350.692C702.338 350.748 702.548 350.702 702.791 350.553C702.985 350.435 703.156 350.28 703.304 350.089C703.454 349.895 703.571 349.682 703.654 349.45C703.74 349.215 703.782 348.98 703.782 348.744C703.782 348.503 703.739 348.319 703.651 348.189C703.566 348.059 703.447 347.989 703.295 347.98C703.143 347.971 702.969 348.025 702.774 348.142C702.603 348.247 702.437 348.39 702.275 348.571C702.116 348.751 701.991 348.94 701.902 349.137L700.805 349.578L701.082 345.801L704.648 343.617V344.8L702.099 346.361L701.948 348.167L701.982 348.146C702.084 347.914 702.239 347.679 702.446 347.441C702.653 347.203 702.885 347.005 703.141 346.848C703.493 346.633 703.806 346.538 704.081 346.563C704.357 346.588 704.574 346.721 704.734 346.962C704.893 347.201 704.972 347.54 704.97 347.98C704.972 348.439 704.881 348.905 704.697 349.376C704.514 349.844 704.259 350.281 703.93 350.687C703.604 351.09 703.224 351.424 702.791 351.689ZM708.118 348.484C707.628 348.782 707.206 348.898 706.853 348.834C706.502 348.769 706.231 348.528 706.041 348.112C705.853 347.695 705.76 347.112 705.762 346.362C705.762 345.616 705.856 344.923 706.044 344.282C706.234 343.64 706.505 343.075 706.856 342.586C707.209 342.093 707.63 341.698 708.118 341.399C708.606 341.1 709.026 340.981 709.377 341.042C709.73 341.102 710.002 341.336 710.192 341.746C710.382 342.153 710.476 342.73 710.474 343.477C710.474 344.227 710.379 344.927 710.189 345.575C710.001 346.223 709.731 346.794 709.38 347.29C709.029 347.786 708.608 348.184 708.118 348.484ZM708.118 347.285C708.452 347.08 708.719 346.719 708.919 346.203C709.118 345.687 709.217 345.035 709.215 344.248C709.215 343.729 709.169 343.325 709.078 343.036C708.989 342.745 708.862 342.564 708.696 342.491C708.533 342.417 708.34 342.449 708.118 342.585C707.786 342.788 707.52 343.146 707.32 343.658C707.121 344.17 707.02 344.815 707.018 345.593C707.018 346.119 707.063 346.53 707.152 346.827C707.243 347.121 707.372 347.305 707.537 347.38C707.702 347.452 707.896 347.421 708.118 347.285Z" fill="#F4F4F4"/>
<path d="M689.219 488.212V487.169L691.296 486.186C691.472 486.094 691.62 486.005 691.74 485.917C691.862 485.832 691.954 485.731 692.016 485.616C692.079 485.498 692.11 485.349 692.11 485.169C692.11 484.968 692.071 484.772 691.994 484.58C691.916 484.385 691.809 484.207 691.675 484.047C691.54 483.884 691.387 483.75 691.216 483.646C691.037 483.536 690.882 483.483 690.749 483.487C690.616 483.49 690.513 483.548 690.441 483.662C690.369 483.776 690.333 483.942 690.333 484.16L689.162 483.443C689.162 482.996 689.248 482.66 689.421 482.436C689.594 482.213 689.836 482.106 690.148 482.116C690.459 482.127 690.818 482.256 691.224 482.505C691.642 482.761 692.006 483.071 692.316 483.434C692.627 483.796 692.869 484.183 693.042 484.593C693.215 485.004 693.301 485.407 693.301 485.801C693.301 486.059 693.257 486.288 693.17 486.486C693.085 486.685 692.932 486.871 692.711 487.043C692.491 487.214 692.181 487.39 691.78 487.572L690.928 488.029V488.076L693.378 489.576V490.759L689.219 488.212ZM696.559 492.857C696.069 492.555 695.648 492.155 695.295 491.658C694.943 491.163 694.673 490.59 694.483 489.942C694.295 489.295 694.202 488.597 694.203 487.85C694.203 487.104 694.298 486.526 694.486 486.116C694.675 485.706 694.946 485.472 695.297 485.413C695.651 485.354 696.071 485.473 696.559 485.772C697.047 486.071 697.467 486.466 697.819 486.957C698.172 487.45 698.443 488.017 698.633 488.659C698.823 489.298 698.917 489.991 698.915 490.736C698.915 491.486 698.82 492.069 698.63 492.485C698.442 492.902 698.173 493.144 697.821 493.209C697.47 493.274 697.049 493.157 696.559 492.857ZM696.559 491.658C696.894 491.863 697.16 491.829 697.36 491.557C697.559 491.285 697.658 490.754 697.656 489.964C697.656 489.446 697.611 488.986 697.519 488.585C697.43 488.185 697.303 487.847 697.138 487.573C696.974 487.299 696.782 487.094 696.559 486.958C696.227 486.754 695.961 486.786 695.762 487.054C695.562 487.322 695.462 487.843 695.46 488.619C695.46 489.145 695.504 489.611 695.594 490.018C695.685 490.423 695.813 490.764 695.978 491.041C696.143 491.316 696.337 491.522 696.559 491.658ZM699.706 493.431V492.292L702.142 489.284L702.98 489.797V491.374L702.484 491.07L700.949 492.979V493.033L704.41 495.152V496.312L699.706 493.431ZM702.507 496.349V494.799L702.53 494.308V489.522L703.686 490.23V497.071L702.507 496.349ZM707.519 499.568C707.029 499.266 706.607 498.867 706.254 498.37C705.903 497.874 705.632 497.302 705.442 496.653C705.254 496.006 705.161 495.309 705.163 494.562C705.163 493.816 705.257 493.237 705.445 492.827C705.635 492.418 705.906 492.184 706.257 492.125C706.61 492.065 707.031 492.185 707.519 492.483C708.007 492.782 708.427 493.177 708.778 493.669C709.131 494.161 709.403 494.728 709.593 495.37C709.783 496.01 709.877 496.702 709.875 497.447C709.875 498.197 709.78 498.781 709.59 499.197C709.402 499.614 709.132 499.855 708.781 499.92C708.43 499.986 708.009 499.868 707.519 499.568ZM707.519 498.369C707.853 498.574 708.12 498.54 708.32 498.268C708.519 497.996 708.618 497.465 708.616 496.676C708.616 496.157 708.57 495.697 708.479 495.296C708.39 494.896 708.263 494.559 708.097 494.284C707.934 494.01 707.741 493.805 707.519 493.669C707.187 493.466 706.921 493.498 706.721 493.765C706.522 494.033 706.421 494.555 706.419 495.331C706.419 495.856 706.464 496.322 706.553 496.729C706.644 497.134 706.773 497.476 706.938 497.753C707.103 498.028 707.297 498.233 707.519 498.369Z" fill="#F4F4F4"/>
<path d="M588.876 652.591C588.386 652.288 587.964 651.889 587.611 651.392C587.259 650.896 586.989 650.324 586.799 649.676C586.611 649.028 586.518 648.331 586.52 647.584C586.52 646.838 586.614 646.26 586.802 645.849C586.992 645.44 587.262 645.206 587.614 645.147C587.967 645.087 588.388 645.207 588.876 645.506C589.364 645.805 589.783 646.2 590.135 646.691C590.488 647.183 590.76 647.751 590.949 648.392C591.139 649.032 591.233 649.724 591.232 650.469C591.232 651.22 591.137 651.803 590.947 652.219C590.759 652.636 590.489 652.877 590.138 652.943C589.786 653.008 589.366 652.891 588.876 652.591ZM588.876 651.391C589.21 651.596 589.477 651.562 589.676 651.29C589.876 651.018 589.974 650.488 589.972 649.698C589.972 649.179 589.927 648.719 589.836 648.318C589.746 647.918 589.619 647.581 589.454 647.306C589.291 647.033 589.098 646.828 588.876 646.692C588.543 646.488 588.277 646.52 588.078 646.788C587.879 647.055 587.778 647.577 587.776 648.353C587.776 648.879 587.821 649.345 587.91 649.751C588.001 650.157 588.129 650.498 588.294 650.775C588.46 651.05 588.653 651.255 588.876 651.391ZM594.268 655.836C593.842 655.575 593.463 655.257 593.131 654.882C592.8 654.506 592.539 654.108 592.347 653.688C592.158 653.267 592.06 652.855 592.054 652.453L593.296 653.213C593.304 653.385 593.35 653.56 593.436 653.74C593.523 653.918 593.639 654.086 593.783 654.243C593.928 654.401 594.09 654.534 594.27 654.645C594.458 654.76 594.625 654.823 594.769 654.833C594.913 654.844 595.026 654.805 595.108 654.717C595.19 654.629 595.23 654.495 595.23 654.314C595.23 654.132 595.187 653.943 595.099 653.75C595.014 653.555 594.89 653.368 594.729 653.189C594.569 653.011 594.38 652.855 594.159 652.72L593.615 652.386V651.324L594.159 651.657C594.345 651.771 594.51 651.834 594.652 651.846C594.796 651.858 594.908 651.822 594.988 651.737C595.068 651.65 595.108 651.517 595.108 651.336C595.108 651.165 595.073 650.993 595.002 650.821C594.934 650.648 594.837 650.486 594.712 650.336C594.588 650.187 594.444 650.061 594.279 649.96C594.112 649.858 593.959 649.8 593.82 649.786C593.682 649.77 593.571 649.802 593.487 649.88C593.403 649.958 593.359 650.082 593.353 650.252L592.171 649.528C592.177 649.137 592.272 648.849 592.459 648.662C592.645 648.475 592.895 648.394 593.211 648.418C593.528 648.44 593.886 648.574 594.285 648.818C594.687 649.065 595.04 649.366 595.341 649.722C595.643 650.079 595.878 650.454 596.045 650.848C596.214 651.241 596.298 651.617 596.296 651.977C596.298 652.361 596.196 652.619 595.991 652.749C595.788 652.881 595.523 652.881 595.196 652.75V652.803C595.625 653.131 595.952 653.506 596.176 653.928C596.402 654.349 596.514 654.772 596.512 655.196C596.514 655.587 596.418 655.875 596.225 656.059C596.033 656.244 595.768 656.32 595.43 656.287C595.092 656.254 594.704 656.103 594.268 655.836ZM599.686 659.211C599.196 658.909 598.775 658.509 598.422 658.012C598.07 657.516 597.8 656.944 597.61 656.296C597.422 655.648 597.329 654.951 597.331 654.204C597.331 653.458 597.425 652.88 597.613 652.469C597.803 652.06 598.073 651.826 598.424 651.767C598.778 651.708 599.198 651.827 599.686 652.126C600.175 652.425 600.594 652.82 600.946 653.311C601.299 653.804 601.57 654.371 601.76 655.013C601.95 655.652 602.044 656.345 602.042 657.089C602.042 657.84 601.947 658.423 601.757 658.839C601.569 659.256 601.3 659.497 600.948 659.563C600.597 659.628 600.176 659.511 599.686 659.211ZM599.686 658.012C600.021 658.216 600.288 658.183 600.487 657.911C600.686 657.639 600.785 657.108 600.783 656.318C600.783 655.799 600.738 655.34 600.646 654.939C600.557 654.539 600.43 654.201 600.265 653.926C600.101 653.653 599.909 653.448 599.686 653.312C599.354 653.108 599.088 653.14 598.889 653.408C598.689 653.676 598.589 654.197 598.587 654.973C598.587 655.499 598.631 655.965 598.721 656.371C598.812 656.777 598.94 657.118 599.105 657.395C599.271 657.67 599.464 657.876 599.686 658.012Z" fill="#F4F4F4"/>
<path d="M474.967 814.317C474.477 814.015 474.056 813.615 473.703 813.118C473.351 812.622 473.081 812.05 472.891 811.402C472.703 810.754 472.61 810.057 472.612 809.31C472.612 808.564 472.706 807.986 472.894 807.575C473.083 807.166 473.354 806.932 473.705 806.873C474.059 806.813 474.479 806.933 474.967 807.232C475.456 807.531 475.875 807.926 476.227 808.417C476.58 808.91 476.851 809.477 477.041 810.119C477.231 810.758 477.325 811.45 477.323 812.195C477.323 812.946 477.228 813.529 477.038 813.945C476.85 814.362 476.581 814.603 476.229 814.669C475.878 814.734 475.457 814.617 474.967 814.317ZM474.967 813.118C475.302 813.322 475.569 813.289 475.768 813.017C475.967 812.744 476.066 812.214 476.064 811.424C476.064 810.905 476.019 810.445 475.927 810.044C475.838 809.645 475.711 809.307 475.546 809.032C475.382 808.759 475.19 808.554 474.967 808.418C474.635 808.214 474.369 808.246 474.17 808.514C473.97 808.781 473.87 809.303 473.868 810.079C473.868 810.605 473.912 811.071 474.002 811.477C474.093 811.883 474.221 812.224 474.386 812.501C474.552 812.776 474.745 812.982 474.967 813.118ZM478.203 816.148V815.106L480.28 814.122C480.456 814.03 480.604 813.941 480.724 813.853C480.845 813.768 480.938 813.667 481 813.552C481.063 813.434 481.094 813.285 481.094 813.105C481.094 812.904 481.055 812.708 480.977 812.516C480.9 812.321 480.793 812.143 480.658 811.983C480.524 811.82 480.371 811.686 480.2 811.582C480.021 811.472 479.866 811.419 479.733 811.423C479.6 811.426 479.497 811.484 479.425 811.598C479.353 811.712 479.317 811.878 479.317 812.096L478.146 811.379C478.146 810.932 478.232 810.596 478.405 810.372C478.578 810.149 478.82 810.042 479.132 810.052C479.443 810.063 479.802 810.192 480.208 810.441C480.626 810.697 480.99 811.007 481.299 811.37C481.611 811.732 481.853 812.119 482.026 812.53C482.199 812.94 482.285 813.343 482.285 813.737C482.285 813.995 482.241 814.224 482.154 814.422C482.069 814.621 481.916 814.807 481.695 814.979C481.475 815.15 481.165 815.326 480.764 815.508L479.912 815.965V816.012L482.362 817.512V818.695L478.203 816.148ZM485.543 820.793C485.053 820.491 484.632 820.091 484.278 819.594C483.927 819.099 483.656 818.526 483.467 817.878C483.279 817.231 483.185 816.533 483.187 815.786C483.187 815.04 483.281 814.462 483.469 814.052C483.659 813.642 483.93 813.408 484.281 813.35C484.634 813.29 485.055 813.409 485.543 813.708C486.031 814.007 486.451 814.402 486.802 814.893C487.156 815.386 487.427 815.953 487.617 816.595C487.807 817.234 487.901 817.927 487.899 818.672C487.899 819.422 487.804 820.005 487.614 820.421C487.426 820.838 487.157 821.08 486.805 821.145C486.454 821.21 486.033 821.093 485.543 820.793ZM485.543 819.594C485.877 819.799 486.144 819.765 486.344 819.493C486.543 819.221 486.642 818.69 486.64 817.901C486.64 817.382 486.594 816.922 486.503 816.521C486.414 816.121 486.287 815.784 486.122 815.509C485.958 815.235 485.765 815.03 485.543 814.894C485.211 814.69 484.945 814.722 484.746 814.99C484.546 815.258 484.446 815.779 484.444 816.556C484.444 817.081 484.488 817.547 484.578 817.954C484.669 818.359 484.797 818.7 484.962 818.977C485.127 819.252 485.321 819.458 485.543 819.594Z" fill="#F4F4F4"/>
<path d="M440.011 489.941H415.29V531.914H440.011V489.941Z" fill="#FFA8A7"/>
<path d="M454.781 480.326L460.655 489.228C460.91 489.611 461.027 490.077 460.984 490.542C460.942 491.007 460.743 491.441 460.423 491.765C458.951 493.455 456.946 494.523 454.781 494.77V480.326Z" fill="#F28F8F"/>
<path d="M430.017 447.412C430.017 447.412 449.266 433.035 455.372 483.02C460.401 524.569 435.912 515.044 426.805 509.303C417.699 503.561 400.288 486.247 411.74 461.9C416.917 450.839 430.017 447.412 430.017 447.412Z" fill="#FFA8A7"/>
<path d="M447.765 463.413C447.765 463.413 447.913 472.515 440.011 472.96C441.966 475.349 442.959 478.447 442.778 481.595C442.778 487.515 440.856 486.38 440.011 485.245C439.165 484.11 430.397 485.245 430.397 485.245L434.876 494.147C435.425 497.52 435.144 500.984 434.06 504.21C432.976 507.436 431.126 510.315 428.685 512.574C428.685 512.574 416.938 515.979 411.592 512.574C411.592 512.574 396.801 495.282 394.076 483.02C391.35 470.757 391.308 460.053 398.133 455.045C398.133 455.045 400.246 439.578 415.86 439.578C431.474 439.578 436.059 443.807 444.49 441.804C447.913 441.002 453.047 438.399 453.047 442.026C453.047 445.654 448.821 448.703 448.821 448.703C448.821 448.703 453.047 448.458 455.329 448.235C457.611 448.013 462.703 447.212 461.837 454.155C460.971 461.099 455.076 464.615 447.765 463.413Z" fill="#263238"/>
<path d="M400.205 455.601C400.205 455.601 396.106 446.877 390.993 451.907C390.953 451.945 390.92 451.991 390.898 452.043C390.876 452.094 390.864 452.151 390.864 452.207C390.864 452.264 390.876 452.32 390.898 452.372C390.92 452.424 390.953 452.47 390.993 452.508L400.142 458.316L400.205 455.601Z" fill="#263238"/>
<path d="M440.013 485.312V498.821C440.013 498.821 426.744 498.553 426.744 488.205C426.744 478.68 437.414 480.816 440.013 485.312Z" fill="#FFA8A7"/>
<path d="M343.052 835.893C343.052 835.893 342.44 853.853 366.104 861.219C366.104 861.219 369.633 835.893 343.052 835.893Z" fill="#253239"/>
<path d="M361.496 876.307V865.491C361.494 863.207 361.988 860.953 362.94 858.901C363.892 856.849 365.277 855.053 366.989 853.652C366.989 853.652 363.482 837.873 349.283 838.808C344.694 840.672 340.741 843.943 337.937 848.199C336.904 849.653 336.181 851.324 335.817 853.098C335.452 854.872 335.454 856.708 335.824 858.481V858.481C335.73 858.08 335.744 857.66 335.865 857.267C335.985 856.874 336.206 856.524 336.504 856.257C336.803 855.989 337.166 855.813 337.553 855.75C337.94 855.687 338.336 855.739 338.697 855.899L342.12 857.391C344.255 858.313 346.142 859.774 347.616 861.644C349.09 863.514 350.105 865.737 350.572 868.117L354.798 889.148C355.15 891.104 356.065 892.898 357.418 894.287C358.771 895.677 360.497 896.594 362.362 896.915H362.658C363.045 896.937 363.433 896.937 363.82 896.915H364.137C364.519 896.9 364.9 896.863 365.278 896.804H365.595C365.986 896.736 366.374 896.647 366.757 896.537H367.01C367.483 896.394 367.942 896.208 368.384 895.981C368.861 895.753 369.321 895.485 369.757 895.179L373.349 892.709C373.871 892.353 374.295 891.86 374.581 891.279C374.866 890.697 375.002 890.047 374.976 889.393C374.701 885.12 372.905 876.307 361.496 876.307Z" fill="#37474F"/>
<path d="M373.223 892.665L369.631 895.135C369.194 895.441 368.735 895.709 368.257 895.937C367.816 896.164 367.356 896.35 366.884 896.493H366.63C366.248 896.603 365.86 896.692 365.468 896.76H365.151H364.708H364.01H363.271H362.531H362.299C360.467 896.444 358.769 895.552 357.427 894.202C356.085 892.852 355.161 891.106 354.777 889.193C354.787 889.127 354.787 889.06 354.777 888.993L350.551 867.962C350.084 865.582 349.069 863.359 347.595 861.489C346.121 859.619 344.234 858.158 342.1 857.235L338.677 855.744C337.176 855.032 336.204 856.256 335.592 856.879C335.026 857.406 334.617 858.094 334.415 858.86C334.212 859.626 334.225 860.438 334.451 861.197L338.677 880.759C339.621 885.227 342.134 889.155 345.713 891.753L354.735 898.273C356.204 899.258 357.861 899.89 359.588 900.124C361.315 900.359 363.07 900.19 364.729 899.631H364.771H364.982C365.62 899.395 366.241 899.112 366.842 898.785V898.785L370.708 896.56C371.541 896.083 372.262 895.416 372.818 894.607C373.374 893.798 373.751 892.869 373.92 891.886C373.734 892.188 373.498 892.452 373.223 892.665V892.665Z" fill="#263238"/>
<path d="M346.347 840.233C346.347 840.233 362.574 841.879 362.51 859.95L372.589 843.371L356.045 825.166L346.347 840.233Z" fill="#FFA8A7"/>
<path d="M382.435 631.037V659.835C382.435 671.303 382.929 682.742 383.915 694.152L387.232 732.697C387.657 737.398 387.097 742.141 385.593 746.589C384.089 751.038 381.677 755.086 378.527 758.446C373.492 763.88 369.3 770.113 366.103 776.917C356.066 797.726 343.051 835.871 343.051 835.871C343.051 835.871 366.103 835.871 366.103 861.197L418.609 768.884C422.327 762.341 424.662 755.031 425.454 747.452L436.611 641.942L382.435 631.037Z" fill="#455A64"/>
<path d="M498.012 797.08C498.984 798.924 500.507 800.379 502.343 801.22H502.555C506.372 803.001 510.697 803.153 514.619 801.643L548.046 788.846C550.412 787.756 550.454 784.039 550.306 782.503H498.012V797.08Z" fill="#263238"/>
<path d="M499.999 776.227C499.999 776.227 495.287 781.39 497.019 791.16C497.303 792.701 497.937 794.146 498.868 795.371C499.8 796.596 501 797.564 502.365 798.192L502.576 798.304C506.397 800.078 510.722 800.221 514.641 798.704L548.067 785.908C548.883 785.577 549.551 784.937 549.942 784.113C550.333 783.29 550.418 782.343 550.18 781.457C548.638 775.737 543.187 769.973 530.551 773.467C527.36 774.571 524.066 775.317 520.726 775.693L519.015 772.755L499.999 776.227Z" fill="#37474F"/>
<path d="M520.724 775.582C518.971 780.522 512.273 782.258 504.539 779.521C502.774 778.887 501.129 777.93 499.68 776.694V776.694V757.177H520.809L520.724 775.582Z" fill="#FFA8A7"/>
<path d="M406.356 638.403V641.697C406.329 651.64 409.422 661.313 415.154 669.214C420.885 677.114 428.934 682.798 438.049 685.383L491.886 700.383C492.651 700.595 493.328 701.068 493.809 701.729C494.291 702.39 494.551 703.2 494.549 704.033V771.732C494.549 771.732 520.538 785.486 528.059 764.166V691.036C528.08 685.073 526.393 679.241 523.219 674.303C520.046 669.364 515.533 665.548 510.269 663.351L454.382 640.25L406.356 638.403Z" fill="#455A64"/>
<path d="M429.89 705.123L432.003 682.735C432.003 682.735 414.677 676.615 412.015 668.225C411.128 676.926 422.728 684.894 425.643 686.674C426.721 693.417 429.89 705.123 429.89 705.123Z" fill="#37474F"/>
<path d="M410.707 531.001C410.707 531.001 411.193 520.252 414.7 520.252C417.511 520.252 431.752 524.503 437.245 526.194C438.744 526.623 440.035 527.633 440.858 529.02C443.055 532.379 444.347 536.301 444.598 540.37L410.707 531.001Z" fill="#37474F"/>
<path d="M473.63 567.877C473.63 567.877 489.54 550.83 491.78 552.298C494.527 554.123 491.209 560.689 488.695 563.426L501.182 554.836C501.571 554.567 502.008 554.386 502.466 554.304C502.925 554.223 503.394 554.242 503.845 554.361C504.296 554.48 504.718 554.697 505.085 554.997C505.453 555.297 505.757 555.674 505.979 556.104C509.465 562.781 513.226 578.359 479.863 588.685L473.63 567.877Z" fill="#FFA8A7"/>
<path d="M484.575 590.71C484.575 590.71 476.292 594.716 465.558 599.612C447.556 607.891 422.645 618.818 418.081 618.039C406.111 616.012 394.291 613.097 382.711 609.316L385.014 575.577L419.497 586.26L471.179 564.917L473.292 564.027C487.871 569.68 484.575 590.71 484.575 590.71Z" fill="#263238"/>
<path d="M406.397 525.416L393.53 521.699C391.443 521.105 389.253 521.027 387.133 521.473C385.013 521.918 383.019 522.875 381.308 524.267C379.598 525.66 378.216 527.45 377.272 529.499C376.328 531.548 375.846 533.799 375.866 536.076V540.905C375.854 547.17 377.231 553.351 379.887 558.957C382.543 564.563 386.404 569.439 391.163 573.197L406.144 584.992L406.397 525.416Z" fill="#37474F"/>
<path d="M461.498 618.419L471.577 666.177C471.577 666.177 443.665 680.932 413.43 671.63C383.194 662.327 379.623 654.338 379.623 654.338L382.708 609.361L385.011 575.623L387.716 536.298C387.834 534.383 388.348 532.519 389.223 530.836C390.098 529.153 391.312 527.692 392.779 526.555C394.247 525.419 395.933 524.634 397.719 524.256C399.505 523.879 401.348 523.917 403.119 524.37L445.504 535.497C453.001 537.523 459.642 542.125 464.377 548.574C469.111 555.024 471.667 562.952 471.64 571.105L465.555 599.702L461.498 618.419Z" fill="#263238"/>
<path d="M481.678 675.057C481.678 675.057 498.306 690.947 497.25 693.506C496.194 696.066 489.327 693.328 486.685 690.836L495.412 703.632C495.686 704.032 495.879 704.486 495.98 704.968C496.081 705.449 496.087 705.947 495.998 706.431C495.909 706.915 495.726 707.374 495.462 707.781C495.198 708.188 494.857 708.533 494.461 708.796C488.418 712.868 473.945 717.697 462.514 682.78L481.678 675.057Z" fill="#FFA8A7"/>
<path d="M451.952 537.945C451.952 537.945 436.548 569.101 431.625 618.618C430.844 626.43 460.847 687.898 460.847 687.898C460.847 687.898 480.751 690.279 485.251 674.545L461.502 618.485L471.454 573.219C472.346 569.258 472.274 565.124 471.243 561.201C469.193 553.434 464.08 541.639 451.952 537.945Z" fill="#37474F"/>
<path d="M765.532 145.547L786.851 158.454V150.42C786.851 149.842 786.851 149.285 786.851 148.707C786.851 148.128 786.851 147.616 786.851 147.104V146.904C787.633 136.266 795.197 132.171 804.451 137.869C808.666 140.6 812.27 144.259 815.016 148.596C817.129 134.13 828.179 128.922 841.575 137.157C856.471 146.303 868.536 168.536 868.536 186.829V204.055C868.551 205.402 868.893 206.722 869.529 207.89C870.165 209.059 871.074 210.037 872.17 210.731L884.721 218.565C887.451 220.277 889.711 222.708 891.278 225.619C892.845 228.53 893.666 231.821 893.659 235.167C893.673 236.551 893.338 237.915 892.689 239.119C892.04 240.323 891.1 241.324 889.964 242.02C888.828 242.717 887.537 243.084 886.223 243.084C884.908 243.084 883.617 242.718 882.481 242.021L765.912 170.361C762.806 168.438 760.231 165.693 758.445 162.398C756.658 159.103 755.721 155.372 755.728 151.578C755.733 150.37 756.037 149.185 756.61 148.14C757.183 147.094 758.005 146.224 758.995 145.615C759.985 145.006 761.108 144.679 762.255 144.667C763.401 144.655 764.53 144.958 765.532 145.547V145.547Z" fill="#E6E6E6"/>
<path d="M750.319 40.8603L764.116 49.2059V44.0205C764.116 43.6422 764.116 43.2861 764.116 42.93C764.116 42.5739 764.116 42.2179 764.116 41.8618C764.623 34.985 769.504 32.359 775.484 36.031C778.166 37.7572 780.471 40.0631 782.245 42.7965C783.597 33.4494 790.697 30.089 799.402 35.4079C809.016 41.3054 816.812 55.6821 816.812 67.4994V78.6268C816.798 79.5202 817.008 80.4016 817.419 81.1828C817.831 81.964 818.43 82.6175 819.157 83.0778L827.271 88.1297C829.033 89.2373 830.491 90.8086 831.503 92.6892C832.514 94.5699 833.044 96.6952 833.039 98.8565C833.049 99.752 832.833 100.634 832.414 101.413C831.995 102.193 831.388 102.841 830.654 103.293C829.92 103.746 829.086 103.985 828.235 103.987C827.385 103.99 826.55 103.755 825.813 103.307L750.53 57.0173C748.529 55.7769 746.869 54.0074 745.717 51.8839C744.564 49.7604 743.958 47.3567 743.959 44.9107C743.923 44.1097 744.093 43.3132 744.451 42.6055C744.809 41.8978 745.342 41.3052 745.993 40.8902C746.645 40.4753 747.391 40.2535 748.152 40.2482C748.914 40.2429 749.662 40.4544 750.319 40.8603V40.8603Z" fill="#E6E6E6"/>
</svg>
