<svg width="1000" height="1000" viewBox="0 0 1000 1000" fill="none" xmlns="http://www.w3.org/2000/svg">
<path d="M229.646 291.499L17.4678 416.932V165.016L229.646 39.6052V291.499Z" fill="white"/>
<path d="M13.2979 419.392L17.4449 421.94L233.792 294.048L229.645 291.5L13.2979 419.392Z" fill="#FAFAFA"/>
<path d="M241.652 23.1775L9.6123 160.367V435.864L241.652 298.674V23.1775ZM233.795 294.047L17.4699 421.939V165.016L233.795 37.1021V294.047Z" fill="#F0F0F0"/>
<path d="M233.794 294.048L229.646 291.5V39.6058L233.794 37.1025V294.048Z" fill="#E0E0E0"/>
<path d="M241.65 23.1776L237.416 20.719L5.37598 157.886L9.61037 160.367L241.65 23.1776Z" fill="#FAFAFA"/>
<path d="M5.37598 157.886L9.61037 160.367V435.864L5.37598 433.383V157.886Z" fill="#E0E0E0"/>
<path d="M20.9189 284.504V289.51L233.795 163.474L229.648 160.926L20.9189 284.504Z" fill="#FAFAFA"/>
<path d="M118.941 105.049L123.154 102.546V359.491L118.941 357.01V105.049Z" fill="#E0E0E0"/>
<path d="M131.009 97.9197L123.151 102.546V359.492L131.009 354.843V97.9197Z" fill="#F0F0F0"/>
<path d="M233.791 163.474V172.75L17.3789 301.178V291.902L233.791 163.474Z" fill="#F0F0F0"/>
<path d="M123.152 229.141L118.94 226.482L17.4453 286.538V291.903L123.152 229.141Z" fill="#FAFAFA"/>
<path d="M274.043 118.102L277.557 120.248L349.542 77.6918L346.028 75.5461L274.043 118.102Z" fill="#FAFAFA"/>
<path d="M346.027 75.5458L277.557 116.023V56.3911L346.027 15.936V75.5458Z" fill="white"/>
<path d="M356.156 2.0791L271.031 52.4803V131.982L356.156 81.6034V2.0791ZM349.608 77.692L277.579 120.159V56.3917L349.608 13.9251V77.692Z" fill="#F0F0F0"/>
<path d="M349.539 77.6918L346.024 75.5462V15.9364L349.539 13.8354V77.6918Z" fill="#E0E0E0"/>
<path d="M356.154 2.07863L352.597 0L267.363 50.3788L270.921 52.4798L356.154 2.07863Z" fill="#FAFAFA"/>
<path d="M267.363 50.3792L270.921 52.4801V131.982L267.363 129.903V50.3792Z" fill="#E0E0E0"/>
<path d="M343.363 73.3325L280.218 110.681V105.808L295.998 68.4824L305.842 77.8251L304.467 86.4749L324.111 45.7292L343.363 68.4824V73.3325Z" fill="#F0F0F0"/>
<path d="M305.253 50.4675C303.892 51.3697 302.758 52.5897 301.946 54.0272C301.134 55.4647 300.667 57.0789 300.582 58.7373C300.582 61.7994 302.656 63.0287 305.253 61.5088C306.614 60.6004 307.746 59.376 308.557 57.9351C309.369 56.4943 309.837 54.8776 309.924 53.2166C309.924 50.1769 307.829 48.9476 305.253 50.4675Z" fill="#F0F0F0"/>
<path d="M274.544 241.859L278.058 244.004L350.064 201.448L346.55 199.303L274.544 241.859Z" fill="#FAFAFA"/>
<path d="M346.549 199.302L278.057 239.78V180.148L346.549 139.693V199.302Z" fill="white"/>
<path d="M356.679 125.836L271.555 176.237V255.739L356.679 205.36V125.836ZM350.131 201.449L278.103 243.915V180.148L350.131 137.682V201.449Z" fill="#F0F0F0"/>
<path d="M350.066 201.448L346.552 199.303V139.693L350.066 137.592V201.448Z" fill="#E0E0E0"/>
<path d="M356.677 125.835L353.119 123.757L267.886 174.158L271.444 176.236L356.677 125.835Z" fill="#FAFAFA"/>
<path d="M267.886 174.158L271.444 176.237V255.739L267.886 253.66V174.158Z" fill="#E0E0E0"/>
<path d="M343.863 197.112L280.74 234.438V229.566L296.521 192.24L306.343 201.583L304.99 210.232L324.612 169.487L343.863 192.24V197.112Z" fill="#F0F0F0"/>
<path d="M305.753 174.226C304.392 175.134 303.26 176.359 302.448 177.799C301.637 179.24 301.169 180.857 301.082 182.518C301.082 185.558 303.265 186.787 305.753 185.267C307.111 184.361 308.241 183.14 309.053 181.703C309.864 180.267 310.334 178.654 310.424 176.997C310.424 173.935 308.329 172.706 305.753 174.226Z" fill="#F0F0F0"/>
<path d="M640.341 283.944L635.496 286.917L559.997 242.282L564.843 239.31L640.341 283.944Z" fill="#FAFAFA"/>
<path d="M564.84 239.31L635.493 281.061V93.7161L564.84 51.9871V239.31Z" fill="white"/>
<path d="M550.851 247.692L644.706 303.144V88.2855L550.851 32.833V247.692ZM559.931 49.0821L635.429 93.7838V286.985L559.931 242.283V49.0821Z" fill="#F0F0F0"/>
<path d="M559.997 242.283L564.843 239.311V51.9881L559.997 49.0825V242.283Z" fill="#E0E0E0"/>
<path d="M550.828 32.833L555.761 29.9497L649.572 85.4022L644.639 88.2854L550.828 32.833Z" fill="#FAFAFA"/>
<path d="M649.571 85.4026L644.638 88.2858V303.167L649.571 300.261V85.4026Z" fill="#E0E0E0"/>
<path d="M571.955 233.522L628.421 266.892V102.501L571.955 69.1089V233.522Z" fill="#F0F0F0"/>
<path d="M571.955 233.522L628.421 266.892V102.501L571.955 69.1089V233.522Z" fill="#F0F0F0"/>
<path d="M628.421 210.008C625.802 210.94 623.095 211.592 620.345 211.952C611.154 213.299 601.79 212.683 592.843 210.142C586.011 208.175 579.18 205.135 571.955 206.655V233.476L579.594 237.947C582.285 233.504 585.863 229.696 590.093 226.771C601.006 219.865 612.116 225.05 623.292 224.089C625.022 223.923 626.738 223.617 628.421 223.173V210.008Z" fill="#FAFAFA"/>
<path d="M628.42 182.673C615.783 180.438 602.817 179.12 593.803 167.855C586.535 158.78 583.13 144.52 580.707 130.328C578.284 116.135 576.669 101.272 572.085 88.7328C572.085 88.5986 571.976 88.4869 571.933 88.3528V174.046C572.631 175.409 573.351 176.773 574.115 178.069C582.409 192.396 594.632 203.035 608.602 200.576C615.15 199.414 621.916 195.48 628.42 193.871V182.673Z" fill="#FAFAFA"/>
<path d="M628.421 147.828C618.73 137.793 613.535 119.063 615.914 99.8187C616.089 98.3882 616.307 96.9578 616.547 95.5496L594.852 82.6309C594.852 84.7095 595.004 86.7658 595.048 88.8444C595.266 100.892 595.048 113.229 596.816 124.606C599.915 143.649 609.214 158.847 621.567 165.083C623.758 166.173 626.066 166.998 628.443 167.542L628.421 147.828Z" fill="#FAFAFA"/>
<path d="M734.697 752.62L957.396 884.132V624.706L734.697 752.62Z" fill="#E0E0E0"/>
<g opacity="0.15">
<path opacity="0.15" d="M734.697 752.62L957.396 884.132V624.706L734.697 752.62Z" fill="black"/>
</g>
<path d="M745.241 99.4832V746.563L967.874 878.053V230.973L745.241 99.4832ZM839.314 441.317L772.154 401.555V142.151L839.314 181.913V441.317ZM936.88 498.96L869.479 459.242V199.816L936.88 239.467V498.96Z" fill="#455A64"/>
<path d="M869.477 459.332L862.209 463.645L936.878 507.676V498.96L869.477 459.332Z" fill="#263238"/>
<path d="M772.154 401.667L764.864 405.98L839.315 450.034L846.584 445.72L772.154 401.667Z" fill="#263238"/>
<path d="M772.155 401.667V142.151L764.843 137.837L764.865 405.98L772.155 401.667Z" fill="#37474F"/>
<path d="M862.209 463.646L839.312 450.034V182.003L862.209 195.614V463.646Z" fill="#455A64"/>
<path d="M862.209 463.646L869.477 459.332V199.816L862.209 195.615V463.646Z" fill="#37474F"/>
<path opacity="0.1" d="M862.209 499.474L936.878 543.483V819.829L862.209 775.797V499.474Z" fill="black"/>
<path d="M867.341 516.864L925.094 550.881V798.484L867.341 764.466V516.864Z" fill="#455A64"/>
<path d="M936.879 543.483L925.093 550.881V798.484L936.879 819.829V543.483Z" fill="#37474F"/>
<path d="M862.209 499.474L867.338 516.863V764.466L862.209 775.797V499.474Z" fill="#37474F"/>
<path d="M862.209 775.798L867.338 764.466L925.092 798.484L936.878 819.829L862.209 775.798Z" fill="#263238"/>
<path opacity="0.1" d="M764.843 441.786L839.316 485.84L839.294 762.186L764.843 718.132V441.786Z" fill="black"/>
<path d="M769.97 459.176L827.527 493.239V740.841L769.97 706.801V459.176Z" fill="#455A64"/>
<path d="M839.313 485.841L827.526 493.239V740.842L839.291 762.187L839.313 485.841Z" fill="#37474F"/>
<path d="M764.843 441.786L769.972 459.175V706.8L764.843 718.132V441.786Z" fill="#37474F"/>
<path d="M764.843 718.132L769.972 706.8L827.529 740.841L839.294 762.186L764.843 718.132Z" fill="#263238"/>
<path d="M961.13 515.456L957.398 517.668L957.376 581.1L961.13 578.887V515.456Z" fill="#E0E0E0"/>
<path d="M957.398 517.668L937.273 505.777V569.209L957.376 581.1L957.398 517.668Z" fill="#FAFAFA"/>
<path opacity="0.05" d="M937.273 523.324L946.003 528.531V538.835C946.004 539.05 945.949 539.261 945.845 539.448C945.74 539.634 945.59 539.789 945.409 539.898C945.228 540.007 945.022 540.065 944.813 540.066C944.603 540.068 944.396 540.014 944.213 539.908L937.207 535.751L937.273 523.324Z" fill="black"/>
<path d="M937.273 505.778L941.006 503.565L961.13 515.456L957.398 517.669L937.273 505.778Z" fill="#EBEBEB"/>
<path d="M949.671 526.318L940.439 531.772L936.75 525.201L945.983 519.747C946.283 519.614 946.611 519.563 946.936 519.598C947.261 519.634 947.572 519.754 947.838 519.948C948.595 520.456 949.225 521.14 949.677 521.944C950.128 522.748 950.388 523.649 950.435 524.575C950.47 524.909 950.417 525.246 950.283 525.552C950.149 525.858 949.938 526.123 949.671 526.318V526.318Z" fill="#E0E0E0"/>
<path opacity="0.1" d="M946.069 528.441L942.73 530.431V525.916L939.15 523.792L942.512 521.803L946.069 523.927V528.441Z" fill="black"/>
<path d="M941.616 526.609L941.594 536.533L904.707 514.718V504.817L941.616 526.609Z" fill="#FAFAFA"/>
<path d="M941.616 526.609L944.955 524.642V534.544L941.594 536.533L941.616 526.609Z" fill="#E0E0E0"/>
<path d="M904.707 504.816L908.068 502.827L944.956 524.642L941.616 526.608L904.707 504.816Z" fill="#EBEBEB"/>
<path d="M950.631 554.257C950.567 553.053 950.227 551.882 949.639 550.838C949.052 549.793 948.232 548.905 947.248 548.244C945.371 547.127 943.843 548.021 943.843 550.234C943.943 552.062 944.669 553.795 945.894 555.128V561.61C945.917 562.016 946.033 562.41 946.235 562.76C946.436 563.11 946.716 563.405 947.051 563.622L947.444 563.868C948.077 564.248 948.579 563.868 948.579 563.197V556.715C949.867 556.849 950.631 555.888 950.631 554.257Z" fill="#455A64"/>
<path d="M772.152 142.151L839.313 182.003V441.407L772.152 401.667V142.151Z" fill="#BA68C8"/>
<path opacity="0.4" d="M772.152 142.151L839.313 182.003V441.407L772.152 401.667V142.151Z" fill="white"/>
<path d="M869.479 199.816L936.88 239.533V498.96L869.479 459.354V199.816Z" fill="#BA68C8"/>
<path opacity="0.4" d="M869.479 199.816L936.88 239.533V498.96L869.479 459.354V199.816Z" fill="white"/>
<path opacity="0.2" d="M821.263 171.296L772.152 221.586V234.795L829.426 176.147L821.263 171.296ZM791.622 153.706L772.152 173.643V200.889L808.472 163.697L791.622 153.706ZM817.814 428.622L839.313 406.651V393.442L809.629 423.839L817.814 428.622ZM869.5 199.749V200.442L869.936 200.017L869.5 199.749ZM798.868 417.402L839.313 376.053V362.843L790.683 412.641L798.868 417.402ZM887.681 210.455L869.5 229.073V242.305L895.866 215.283L887.681 210.455ZM918.239 228.336L869.609 278.134V305.379L935.089 238.327L918.239 228.336ZM772.283 300.06L839.313 231.42V197L772.152 265.773L772.283 300.06ZM869.609 452.47L937.01 383.451V349.142L869.478 418.273L869.609 452.47ZM888.707 470.351L937.01 420.888V407.679L880.5 465.523L888.707 470.351ZM869.478 375.807L936.879 306.743V293.533L869.478 362.553V375.807ZM772.152 401.711L774.335 403.008L839.313 336.402V309.156L772.152 378.042V401.711ZM919.876 489.014L936.879 471.602V444.312L902.982 479.023L919.876 489.014ZM772.152 342.079L839.313 273.261V260.052L772.152 328.87V342.079ZM869.478 331.999V345.208L936.879 276.189V262.935L869.478 331.999Z" fill="white"/>
<path d="M978.527 871.772L967.919 878.053V230.973L978.527 224.715V871.772Z" fill="#263238"/>
<path d="M755.827 93.2026L978.525 224.715L967.918 230.973L745.241 99.4832L755.827 93.2026Z" fill="#37474F"/>
<path d="M745.239 746.562L734.696 752.619V93.2468L745.217 99.4604L745.239 746.562Z" fill="#E0E0E0"/>
<path d="M734.697 752.62L702.48 733.555V36.0964L989.655 205.695V903.108L957.395 884.132V224.76L734.719 93.2476L734.697 752.62Z" fill="#F5F5F5"/>
<path d="M704.663 39.9628L987.472 206.991V899.264L959.578 882.836V223.486L958.486 222.837L735.854 91.325L732.58 89.4029V748.753L704.729 732.28V39.9628H704.663ZM702.546 36.0961V733.577L734.762 752.62V93.2696L957.395 224.782V884.132L989.655 903.108V205.761L702.48 36.0737L702.546 36.0961Z" fill="#E0E0E0"/>
<path d="M702.48 36.0962L989.655 205.694L1000 199.548L712.826 29.9497L702.48 36.0962Z" fill="#FAFAFA"/>
<path d="M989.652 903.108V205.694L999.998 199.548V897.006L989.652 903.108Z" fill="#E0E0E0"/>
<path d="M604.26 731.186C588.589 714.624 579.378 672.962 594.657 659.82H672.469C687.748 672.962 678.559 714.579 662.887 731.164L662.472 731.611L661.927 732.17C661.49 732.617 661.01 733.041 660.508 733.466L660.137 733.779C659.744 734.092 659.373 734.405 658.958 734.695C658.307 735.181 657.629 735.629 656.928 736.036C644.029 743.747 623.119 743.747 610.219 736.036C609.508 735.634 608.823 735.187 608.167 734.695L607.076 733.823L606.618 733.444C606.116 733.041 605.679 732.617 605.243 732.192L604.631 731.566L604.26 731.186Z" fill="#EBEBEB"/>
<path d="M665.724 654.635C683.469 665.229 683.469 682.439 665.724 693.056C647.979 703.672 619.167 703.672 601.422 693.056C583.677 682.439 583.677 665.229 601.422 654.635C619.167 644.04 647.957 644.018 665.724 654.635Z" fill="#FAFAFA"/>
<path d="M657.168 659.664C670.264 667.465 670.264 680.093 657.168 687.893C644.072 695.694 623.009 695.694 609.957 687.893C596.905 680.093 596.861 667.465 609.957 659.664C623.053 651.864 644.138 651.931 657.168 659.664Z" fill="#E0E0E0"/>
<path d="M609.958 673.074C623.054 665.296 644.139 665.296 657.169 673.074C660.333 674.848 663.017 677.398 664.983 680.495C663.017 683.591 660.333 686.141 657.169 687.915C644.073 695.715 623.011 695.715 609.958 687.915C606.796 686.147 604.117 683.596 602.166 680.495C604.117 677.393 606.796 674.842 609.958 673.074Z" fill="#EBEBEB"/>
<path d="M628.334 566.862C622.375 573.567 605.809 575.31 598.933 557.43C592.494 540.667 585.553 524.775 583.654 518.606C583.375 517.803 583.257 516.95 583.307 516.099C583.357 515.248 583.573 514.416 583.944 513.652C584.315 512.889 584.832 512.209 585.465 511.655C586.098 511.101 586.833 510.683 587.627 510.426C587.627 510.426 588.107 501.217 603.342 507.453C618.577 513.689 629.338 523.099 636.082 538.499C642.827 553.898 638.505 564.805 628.334 566.862Z" fill="#E0E0E0"/>
<path opacity="0.45" d="M628.334 566.862C622.375 573.567 605.809 575.31 598.933 557.43C592.494 540.667 585.553 524.775 583.654 518.606C583.375 517.803 583.257 516.95 583.307 516.099C583.357 515.248 583.573 514.416 583.944 513.652C584.315 512.889 584.832 512.209 585.465 511.655C586.098 511.101 586.833 510.683 587.627 510.426C587.627 510.426 588.107 501.217 603.342 507.453C618.577 513.689 629.338 523.099 636.082 538.499C642.827 553.898 638.505 564.805 628.334 566.862Z" fill="white"/>
<path d="M634.926 590.509C634.665 587.379 634.228 584.267 633.616 581.189C632.355 575.074 630.663 569.061 628.552 563.197C624.269 551.253 618.321 540.006 610.895 529.804C606.771 523.992 602.123 518.59 597.013 513.667C596.86 513.533 596.729 513.891 596.838 514.002C613.93 532.253 625.799 554.961 631.15 579.647C631.914 583.044 632.612 586.464 633.223 589.884C633.834 593.303 634.206 596.879 634.773 600.366C634.773 600.724 635.362 600.925 635.384 600.366C635.478 597.073 635.325 593.778 634.926 590.509Z" fill="#E0E0E0"/>
<path opacity="0.1" d="M634.926 590.509C634.665 587.379 634.228 584.267 633.616 581.189C632.355 575.074 630.663 569.061 628.552 563.197C624.269 551.253 618.321 540.006 610.895 529.804C606.771 523.992 602.123 518.59 597.013 513.667C596.86 513.533 596.729 513.891 596.838 514.002C613.93 532.253 625.799 554.961 631.15 579.647C631.914 583.044 632.612 586.464 633.223 589.884C633.834 593.303 634.206 596.879 634.773 600.366C634.773 600.724 635.362 600.925 635.384 600.366C635.478 597.073 635.325 593.778 634.926 590.509Z" fill="black"/>
<path d="M640.036 562.235C626.328 566.572 616.157 555.53 619.693 538.476C623.229 521.423 640.821 502.246 647.457 507.364C651.626 503.117 660.771 504.637 665.071 518.54C669.371 532.442 665.464 568.315 640.036 562.235Z" fill="#E0E0E0"/>
<path opacity="0.25" d="M640.036 562.235C626.328 566.572 616.157 555.53 619.693 538.476C623.229 521.423 640.821 502.246 647.457 507.364C651.626 503.117 660.771 504.637 665.071 518.54C669.371 532.442 665.464 568.315 640.036 562.235Z" fill="white"/>
<path d="M648.069 517.802C644.175 527.797 641.13 538.116 638.967 548.646C636.629 559.305 634.866 570.087 633.685 580.943C631.471 601.955 630.552 623.089 630.935 644.219C630.935 650.052 631.044 655.886 631.154 661.719C631.263 667.553 631.153 673.811 631.677 679.801C631.874 682.036 635.06 681.478 635.104 679.377C635.301 668.872 634.733 658.3 634.624 647.795C634.515 637.29 634.624 627.009 634.82 616.615C635.169 595.444 637.022 574.326 640.364 553.43C641.347 547.596 642.438 541.785 643.748 536.041C645.057 530.296 646.847 524.038 648.397 518.048C648.462 517.802 648.2 517.489 648.069 517.802Z" fill="#E0E0E0"/>
<path opacity="0.1" d="M648.069 517.802C644.175 527.797 641.13 538.116 638.967 548.646C636.629 559.305 634.866 570.087 633.685 580.943C631.471 601.955 630.552 623.089 630.935 644.219C630.935 650.052 631.044 655.886 631.154 661.719C631.263 667.553 631.153 673.811 631.677 679.801C631.874 682.036 635.06 681.478 635.104 679.377C635.301 668.872 634.733 658.3 634.624 647.795C634.515 637.29 634.624 627.009 634.82 616.615C635.169 595.444 637.022 574.326 640.364 553.43C641.347 547.596 642.438 541.785 643.748 536.041C645.057 530.296 646.847 524.038 648.397 518.048C648.462 517.802 648.2 517.489 648.069 517.802Z" fill="black"/>
<path d="M617.751 612.569C611.771 619.498 598.107 618.895 588.874 606.512C579.642 594.13 574.141 547.595 587.084 550.635C589.835 544.421 625.587 559.352 630.17 589.704C633.51 611.72 617.751 612.569 617.751 612.569Z" fill="#E0E0E0"/>
<path opacity="0.25" d="M617.751 612.569C611.771 619.498 598.107 618.895 588.874 606.512C579.642 594.13 574.141 547.595 587.084 550.635C589.835 544.421 625.587 559.352 630.17 589.704C633.51 611.72 617.751 612.569 617.751 612.569Z" fill="white"/>
<path d="M628.447 634.54C628.042 631.679 627.451 628.85 626.679 626.069C625.187 620.369 623.409 614.752 621.353 609.239C617.115 598.001 611.761 587.238 605.376 577.121C601.942 571.413 598.159 565.933 594.048 560.715C593.938 560.581 593.829 560.894 593.895 561.006C597.081 565.767 600.312 570.483 603.193 575.467C606.074 580.451 608.846 585.994 611.291 591.425C616.044 601.921 619.992 612.779 623.099 623.901C623.972 627.053 624.692 630.249 625.587 633.4C626.482 636.552 627.77 639.86 628.534 643.168C628.643 643.637 629.254 643.816 629.189 643.168C628.905 640.24 628.818 637.312 628.447 634.54Z" fill="#E0E0E0"/>
<path opacity="0.1" d="M628.447 634.54C628.042 631.679 627.451 628.85 626.679 626.069C625.187 620.369 623.409 614.752 621.353 609.239C617.115 598.001 611.761 587.238 605.376 577.121C601.942 571.413 598.159 565.933 594.048 560.715C593.938 560.581 593.829 560.894 593.895 561.006C597.081 565.767 600.312 570.483 603.193 575.467C606.074 580.451 608.846 585.994 611.291 591.425C616.044 601.921 619.992 612.779 623.099 623.901C623.972 627.053 624.692 630.249 625.587 633.4C626.482 636.552 627.77 639.86 628.534 643.168C628.643 643.637 629.254 643.816 629.189 643.168C628.905 640.24 628.818 637.312 628.447 634.54Z" fill="black"/>
<path d="M639.64 605.685C631.804 603.853 631.411 594.242 641.211 582.418C651.012 570.595 675.632 565.454 676.811 570.438C682.289 570.438 682.289 588.006 670.154 604.143C658.018 620.28 640.36 616.526 639.64 605.685Z" fill="#E0E0E0"/>
<path opacity="0.25" d="M639.64 605.685C631.804 603.853 631.411 594.242 641.211 582.418C651.012 570.595 675.632 565.454 676.811 570.438C682.289 570.438 682.289 588.006 670.154 604.143C658.018 620.28 640.36 616.526 639.64 605.685Z" fill="white"/>
<path d="M654.965 588.521C644.616 595.9 636.719 606.342 632.33 618.448C632.068 619.141 633.225 620.147 633.509 619.387C637.95 607.412 645.359 596.828 655.008 588.677C655.008 588.677 655.074 588.431 654.965 588.521Z" fill="#E0E0E0"/>
<path opacity="0.1" d="M654.965 588.521C644.616 595.9 636.719 606.342 632.33 618.448C632.068 619.141 633.225 620.147 633.509 619.387C637.95 607.412 645.359 596.828 655.008 588.677C655.008 588.677 655.074 588.431 654.965 588.521Z" fill="black"/>
<path d="M648.571 664.312C637.657 668.782 642.394 682.014 652.936 692.072C662.074 700.193 673.842 704.529 685.938 704.23C693.206 703.694 695.084 702.666 695.084 702.666C695.735 696.56 695.735 690.399 695.084 684.293C693.917 677.58 690.886 671.353 686.353 666.359C681.82 661.364 675.977 657.813 669.524 656.131C652.63 651.438 648.571 657.718 648.571 664.312Z" fill="#E0E0E0"/>
<path opacity="0.45" d="M648.571 664.312C637.657 668.782 642.394 682.014 652.936 692.072C662.074 700.193 673.842 704.529 685.938 704.23C693.206 703.694 695.084 702.666 695.084 702.666C695.735 696.56 695.735 690.399 695.084 684.293C693.917 677.58 690.886 671.353 686.353 666.359C681.82 661.364 675.977 657.813 669.524 656.131C652.63 651.438 648.571 657.718 648.571 664.312Z" fill="white"/>
<path d="M678.579 683.825C673.729 677.901 668.154 672.642 661.991 668.179C655.814 664.022 647.585 660.468 640.164 663.061C637.305 664.066 632.83 666.994 633.376 670.638C633.376 670.995 634.052 671.889 634.467 671.398C635.614 669.711 636.923 668.146 638.374 666.726C640.081 665.45 642.096 664.677 644.202 664.491C649.524 664.088 654.843 665.318 659.48 668.023C666.814 672.001 672.729 678.192 678.557 684.093C678.557 684.07 678.644 683.892 678.579 683.825Z" fill="#E0E0E0"/>
<path opacity="0.1" d="M678.579 683.825C673.729 677.901 668.154 672.642 661.991 668.179C655.814 664.022 647.585 660.468 640.164 663.061C637.305 664.066 632.83 666.994 633.376 670.638C633.376 670.995 634.052 671.889 634.467 671.398C635.614 669.711 636.923 668.146 638.374 666.726C640.081 665.45 642.096 664.677 644.202 664.491C649.524 664.088 654.843 665.318 659.48 668.023C666.814 672.001 672.729 678.192 678.557 684.093C678.557 684.07 678.644 683.892 678.579 683.825Z" fill="black"/>
<path d="M607.317 607.474C608.342 602.423 601.205 590.331 578.942 588.007C556.679 585.682 540.068 595.338 536.707 599.741C533.346 604.144 531.665 608.793 535.703 609.955C539.741 611.117 553.601 612.481 562.725 616.794C571.848 621.108 590.379 633.781 603.017 630.004C615.654 626.227 613.603 612.503 607.317 607.474Z" fill="#E0E0E0"/>
<path opacity="0.45" d="M607.317 607.474C608.342 602.423 601.205 590.331 578.942 588.007C556.679 585.682 540.068 595.338 536.707 599.741C533.346 604.144 531.665 608.793 535.703 609.955C539.741 611.117 553.601 612.481 562.725 616.794C571.848 621.108 590.379 633.781 603.017 630.004C615.654 626.227 613.603 612.503 607.317 607.474Z" fill="white"/>
<path d="M624.212 625.086C614.827 605.261 590.664 599.316 570.846 599.316C564.35 599.334 557.882 600.19 551.594 601.864C551.594 601.864 551.485 602.11 551.594 602.11C562.234 600.255 573.093 600.142 583.767 601.775C594.33 603.185 604.411 607.162 613.168 613.375C617.417 616.642 620.987 620.745 623.666 625.444C624.037 625.958 624.387 625.511 624.212 625.086Z" fill="#E0E0E0"/>
<path opacity="0.1" d="M624.212 625.086C614.827 605.261 590.664 599.316 570.846 599.316C564.35 599.334 557.882 600.19 551.594 601.864C551.594 601.864 551.485 602.11 551.594 602.11C562.234 600.255 573.093 600.142 583.767 601.775C594.33 603.185 604.411 607.162 613.168 613.375C617.417 616.642 620.987 620.745 623.666 625.444C624.037 625.958 624.387 625.511 624.212 625.086Z" fill="black"/>
<path d="M659.091 580.921C658.808 588.878 669.743 593.505 680.329 586.621C690.915 579.737 702.003 573.032 711.825 570.439C721.647 567.846 726.274 559.643 723.175 555.687C720.075 551.731 715.143 541.718 689.365 544.981C663.588 548.244 654.442 560.157 650.906 568.561C647.371 576.965 655.206 583.224 659.091 580.921Z" fill="#E0E0E0"/>
<path opacity="0.45" d="M659.091 580.921C658.808 588.878 669.743 593.505 680.329 586.621C690.915 579.737 702.003 573.032 711.825 570.439C721.647 567.846 726.274 559.643 723.175 555.687C720.075 551.731 715.143 541.718 689.365 544.981C663.588 548.244 654.442 560.157 650.906 568.561C647.371 576.965 655.206 583.224 659.091 580.921Z" fill="white"/>
<path d="M701.064 555.665C697.335 555.287 693.57 555.69 689.998 556.849C686.743 557.702 683.572 558.862 680.525 560.314C674.455 563.213 668.981 567.271 664.395 572.271C663.094 573.679 661.883 575.172 660.772 576.741C659.636 578.139 658.702 579.698 658 581.368C657.825 581.882 658.589 582.732 659.026 582.195C660.314 580.698 661.209 578.842 662.475 577.256C663.757 575.552 665.142 573.932 666.622 572.405C669.602 569.328 672.937 566.634 676.553 564.381C680.003 562.188 683.659 560.354 687.466 558.906C689.649 558.123 691.722 557.475 693.883 556.916C696.161 556.21 698.533 555.878 700.911 555.933C701.108 555.955 701.173 555.665 701.064 555.665Z" fill="#E0E0E0"/>
<path opacity="0.1" d="M701.064 555.665C697.335 555.287 693.57 555.69 689.998 556.849C686.743 557.702 683.572 558.862 680.525 560.314C674.455 563.213 668.981 567.271 664.395 572.271C663.094 573.679 661.883 575.172 660.772 576.741C659.636 578.139 658.702 579.698 658 581.368C657.825 581.882 658.589 582.732 659.026 582.195C660.314 580.698 661.209 578.842 662.475 577.256C663.757 575.552 665.142 573.932 666.622 572.405C669.602 569.328 672.937 566.634 676.553 564.381C680.003 562.188 683.659 560.354 687.466 558.906C689.649 558.123 691.722 557.475 693.883 556.916C696.161 556.21 698.533 555.878 700.911 555.933C701.108 555.955 701.173 555.665 701.064 555.665Z" fill="black"/>
<path d="M640.688 623.902C637.065 620.191 627.264 621.063 622.615 631.993C617.966 642.922 627.723 654.902 628.814 658.255C633.289 655.617 636.781 657.182 644.66 655.617C649.055 654.556 652.959 651.975 655.714 648.312C658.469 644.648 659.907 640.124 659.786 635.502C659.153 625.466 655.028 618.85 640.688 623.902Z" fill="#E0E0E0"/>
<path opacity="0.45" d="M640.688 623.902C637.065 620.191 627.264 621.063 622.615 631.993C617.966 642.922 627.723 654.902 628.814 658.255C633.289 655.617 636.781 657.182 644.66 655.617C649.055 654.556 652.959 651.975 655.714 648.312C658.469 644.648 659.907 640.124 659.786 635.502C659.153 625.466 655.028 618.85 640.688 623.902Z" fill="white"/>
<path d="M640.451 622.785C638.48 624.061 636.834 625.8 635.649 627.858C634.377 629.763 633.336 631.82 632.55 633.982C630.863 638.41 630.395 643.226 631.197 647.907C631.197 648.086 631.371 647.907 631.349 647.907C630.964 643.204 631.713 638.475 633.532 634.139C634.402 632.175 635.494 630.322 636.784 628.618C637.453 627.703 638.182 626.837 638.967 626.025C639.733 625.357 640.428 624.608 641.04 623.79C641.411 623.41 640.997 622.494 640.451 622.785Z" fill="#E0E0E0"/>
<path opacity="0.1" d="M640.451 622.785C638.48 624.061 636.834 625.8 635.649 627.858C634.377 629.763 633.336 631.82 632.55 633.982C630.863 638.41 630.395 643.226 631.197 647.907C631.197 648.086 631.371 647.907 631.349 647.907C630.964 643.204 631.713 638.475 633.532 634.139C634.402 632.175 635.494 630.322 636.784 628.618C637.453 627.703 638.182 626.837 638.967 626.025C639.733 625.357 640.428 624.608 641.04 623.79C641.411 623.41 640.997 622.494 640.451 622.785Z" fill="black"/>
<path d="M623.575 646.029C623.248 637.893 614.626 631.456 602.36 627.724C596.341 625.79 589.911 625.643 583.815 627.301C577.718 628.958 572.206 632.352 567.917 637.089C558.968 647.057 554.341 655.528 557.986 657.92C561.631 660.311 577.848 666.391 588.543 669.788C599.238 673.185 613.055 674.258 623.663 667.754C634.27 661.25 633.506 650.097 623.575 646.029Z" fill="#E0E0E0"/>
<path opacity="0.25" d="M623.575 646.029C623.248 637.893 614.626 631.456 602.36 627.724C596.341 625.79 589.911 625.643 583.815 627.301C577.718 628.958 572.206 632.352 567.917 637.089C558.968 647.057 554.341 655.528 557.986 657.92C561.631 660.311 577.848 666.391 588.543 669.788C599.238 673.185 613.055 674.258 623.663 667.754C634.27 661.25 633.506 650.097 623.575 646.029Z" fill="white"/>
<path d="M624.252 645.112C620.105 642.975 615.573 641.735 610.938 641.469C606.499 641.037 602.028 641.097 597.602 641.648C592.921 642.241 588.299 643.243 583.785 644.643C581.428 645.336 579.093 646.141 576.779 647.012C574.575 647.742 572.429 648.646 570.362 649.717C570.362 649.717 570.231 650.03 570.362 649.985C572.545 649.516 574.727 648.622 576.91 647.929C579.093 647.236 581.646 646.476 584.047 645.828C588.509 644.603 593.055 643.721 597.645 643.19C602.243 642.654 606.886 642.654 611.483 643.19C615.741 643.905 619.937 644.959 624.034 646.342C624.994 646.632 624.732 645.403 624.252 645.112Z" fill="#E0E0E0"/>
<path opacity="0.1" d="M624.252 645.112C620.105 642.975 615.573 641.735 610.938 641.469C606.499 641.037 602.028 641.097 597.602 641.648C592.921 642.241 588.299 643.243 583.785 644.643C581.428 645.336 579.093 646.141 576.779 647.012C574.575 647.742 572.429 648.646 570.362 649.717C570.362 649.717 570.231 650.03 570.362 649.985C572.545 649.516 574.727 648.622 576.91 647.929C579.093 647.236 581.646 646.476 584.047 645.828C588.509 644.603 593.055 643.721 597.645 643.19C602.243 642.654 606.886 642.654 611.483 643.19C615.741 643.905 619.937 644.959 624.034 646.342C624.994 646.632 624.732 645.403 624.252 645.112Z" fill="black"/>
<path d="M648.851 633.915C640.12 626.785 643.023 609.686 673.689 608.77C704.356 607.854 726.248 616.056 725.266 626.159C730.199 631.21 727.711 645.358 702.872 649.784C678.033 654.209 642.543 651.997 648.851 633.915Z" fill="#E0E0E0"/>
<path opacity="0.25" d="M648.851 633.915C640.12 626.785 643.023 609.686 673.689 608.77C704.356 607.854 726.248 616.056 725.266 626.159C730.199 631.21 727.711 645.358 702.872 649.784C678.033 654.209 642.543 651.997 648.851 633.915Z" fill="white"/>
<path d="M710.842 626.271C701.792 624.744 692.611 624.197 683.449 624.639C674.93 624.573 666.435 625.571 658.152 627.612C656.032 628.168 653.965 628.916 651.975 629.847C651.053 630.286 650.157 630.778 649.291 631.322C648.592 631.747 647.828 632.127 647.566 632.954C647.541 633.085 647.547 633.221 647.583 633.351C647.619 633.48 647.684 633.598 647.774 633.696C647.863 633.794 647.974 633.869 648.097 633.915C648.221 633.961 648.353 633.976 648.483 633.959C650.347 633.214 652.144 632.301 653.852 631.233C655.573 630.451 657.346 629.794 659.156 629.266C662.64 628.219 666.203 627.471 669.808 627.031C678.388 625.955 687.029 625.469 695.672 625.578C700.714 625.578 705.734 626.047 710.776 626.45C710.951 626.651 710.995 626.293 710.842 626.271Z" fill="#E0E0E0"/>
<path opacity="0.1" d="M710.842 626.271C701.792 624.744 692.611 624.197 683.449 624.639C674.93 624.573 666.435 625.571 658.152 627.612C656.032 628.168 653.965 628.916 651.975 629.847C651.053 630.286 650.157 630.778 649.291 631.322C648.592 631.747 647.828 632.127 647.566 632.954C647.541 633.085 647.547 633.221 647.583 633.351C647.619 633.48 647.684 633.598 647.774 633.696C647.863 633.794 647.974 633.869 648.097 633.915C648.221 633.961 648.353 633.976 648.483 633.959C650.347 633.214 652.144 632.301 653.852 631.233C655.573 630.451 657.346 629.794 659.156 629.266C662.64 628.219 666.203 627.471 669.808 627.031C678.388 625.955 687.029 625.469 695.672 625.578C700.714 625.578 705.734 626.047 710.776 626.45C710.951 626.651 710.995 626.293 710.842 626.271Z" fill="black"/>
<path d="M413.87 706.601C413.461 706.605 413.056 706.521 412.68 706.356C412.304 706.19 411.966 705.946 411.687 705.64L301.964 586.756L192.438 705.215C191.891 705.808 191.136 706.154 190.34 706.177C189.544 706.2 188.771 705.898 188.192 705.338C187.614 704.778 187.276 704.005 187.253 703.19C187.231 702.375 187.525 701.584 188.072 700.991L299.782 580.296C300.064 579.994 300.402 579.753 300.777 579.588C301.152 579.423 301.556 579.337 301.964 579.335V579.335C302.373 579.337 302.776 579.423 303.151 579.588C303.526 579.753 303.865 579.994 304.147 580.296L416.031 701.55C416.309 701.832 416.529 702.168 416.68 702.538C416.83 702.909 416.908 703.306 416.908 703.706C416.908 704.107 416.83 704.504 416.68 704.875C416.529 705.245 416.309 705.581 416.031 705.863C415.431 706.387 414.657 706.652 413.87 706.601V706.601Z" fill="#263238"/>
<path d="M301.962 796.697C301.169 796.697 300.408 796.375 299.848 795.8C299.287 795.226 298.972 794.447 298.972 793.635V596.724C298.972 595.912 299.287 595.133 299.848 594.559C300.408 593.985 301.169 593.662 301.962 593.662C302.755 593.662 303.516 593.985 304.076 594.559C304.637 595.133 304.952 595.912 304.952 596.724V793.635C304.952 794.447 304.637 795.226 304.076 795.8C303.516 796.375 302.755 796.697 301.962 796.697V796.697Z" fill="#37474F"/>
<path d="M420.938 725.018C420.341 725.017 419.758 724.834 419.265 724.491C418.771 724.148 418.388 723.662 418.166 723.095L359.124 570.26C358.969 569.884 358.889 569.479 358.889 569.07C358.888 568.661 358.968 568.257 359.123 567.88C359.278 567.503 359.505 567.162 359.791 566.876C360.077 566.591 360.416 566.367 360.787 566.218C361.159 566.068 361.556 565.997 361.955 566.007C362.354 566.018 362.747 566.11 363.111 566.278C363.475 566.447 363.802 566.688 364.073 566.988C364.344 567.288 364.554 567.641 364.69 568.025L423.622 720.86C423.908 721.619 423.89 722.463 423.571 723.208C423.252 723.954 422.659 724.54 421.92 724.839C421.604 724.952 421.272 725.012 420.938 725.018V725.018Z" fill="#37474F"/>
<path d="M182.985 725.017C182.612 725.014 182.243 724.946 181.893 724.816C181.158 724.513 180.57 723.925 180.255 723.18C179.941 722.436 179.925 721.594 180.213 720.838L239.145 568.003C239.263 567.596 239.462 567.218 239.73 566.895C239.998 566.571 240.329 566.308 240.701 566.122C241.074 565.936 241.48 565.831 241.894 565.814C242.308 565.798 242.721 565.869 243.107 566.025C243.492 566.18 243.842 566.416 244.134 566.718C244.426 567.019 244.654 567.379 244.802 567.775C244.951 568.171 245.018 568.595 244.998 569.019C244.979 569.443 244.873 569.858 244.689 570.238L185.757 723.073C185.535 723.642 185.154 724.131 184.66 724.478C184.166 724.824 183.583 725.012 182.985 725.017V725.017Z" fill="#37474F"/>
<path d="M416.881 701.952L424.673 723.006C424.694 723.184 424.694 723.364 424.673 723.543C424.695 723.676 424.695 723.812 424.673 723.945C424.456 724.52 424.035 724.991 423.494 725.264C422.762 725.65 421.95 725.851 421.126 725.851C420.302 725.851 419.49 725.65 418.758 725.264C418.352 725.052 418.029 724.705 417.841 724.28C417.841 724.28 417.841 724.28 417.841 724.28V723.99L410.595 704.231L416.881 701.952Z" fill="#E0E0E0"/>
<path d="M187.066 701.952L179.274 723.006C179.242 723.183 179.242 723.365 179.274 723.543V723.945C179.506 724.511 179.923 724.976 180.452 725.264C181.185 725.65 181.997 725.851 182.82 725.851C183.644 725.851 184.456 725.65 185.189 725.264C185.595 725.045 185.923 724.701 186.127 724.28V724.28V723.99L193.352 704.231L187.066 701.952Z" fill="#E0E0E0"/>
<path d="M305.412 778.392V795.825C305.384 796.133 305.276 796.428 305.099 796.68C304.923 796.931 304.684 797.13 304.408 797.256C303.655 797.652 302.821 797.858 301.974 797.858C301.128 797.858 300.293 797.652 299.541 797.256C299.261 797.131 299.02 796.933 298.839 796.682C298.659 796.431 298.547 796.135 298.515 795.825V778.392C299.575 777.809 300.76 777.503 301.963 777.503C303.167 777.503 304.352 777.809 305.412 778.392Z" fill="#E0E0E0"/>
<path d="M413.976 579.536C413.976 575.289 410.309 570.707 402.583 565.589C388.308 556.09 336.71 525.357 316.716 513.936C316.707 513.894 316.685 513.857 316.654 513.829C316.622 513.8 316.583 513.783 316.542 513.78C301.154 504.213 292.161 430.836 281.51 396.259C280.892 394.098 280.163 391.971 279.327 389.889C279.327 389.732 279.196 389.576 279.152 389.419C279.109 389.263 278.738 388.503 278.541 388.011C278.345 387.52 278.323 387.542 278.236 387.318C276.551 383.378 274.134 379.81 271.12 376.814C270.094 375.798 268.924 374.947 267.65 374.288L261.364 370.689C250.909 364.275 226.244 377.909 209.154 387.497C198.524 393.465 189.51 400.55 183.944 413.76C180.957 421.348 179.174 429.376 178.662 437.541C177.156 455.779 183.027 523.189 186.542 549.586C191.758 593.706 198.197 593.773 207.517 601.149C223.582 613.867 269.767 638.766 285.024 644.912C312.656 656.087 335.225 638.877 352.097 630.362C371.172 620.326 389.735 609.3 407.712 597.327C411.903 594.198 414.107 591.024 414.063 587.672C413.954 586.353 413.976 580.944 413.976 579.536Z" fill="#E0E0E0"/>
<path d="M352.011 622.159C371.086 612.123 389.649 601.097 407.626 589.124C417.208 581.994 416.357 574.708 402.584 565.589C383.507 552.916 305.739 507.722 305.739 507.722C305.739 507.722 196.43 573.099 200.665 584.073C204.899 595.047 265.752 628.976 284.938 636.709C312.571 647.84 335.118 630.607 352.011 622.159Z" fill="#F5F5F5"/>
<path d="M267.564 374.289C257.218 368.746 232.794 382.246 216.14 391.588C205.489 397.578 196.496 404.663 190.887 417.917L183.858 413.805C189.381 400.596 198.439 393.51 209.068 387.543C226.159 377.954 250.823 364.32 261.278 370.735L267.564 374.289Z" fill="#F5F5F5"/>
<path d="M281.508 396.259C281.268 395.522 277.71 382.849 271.031 376.814C267.94 373.93 263.907 372.336 259.725 372.344C250.689 372.344 228.862 384.413 216.072 391.543L212.929 393.376L211.75 394.091L210.353 395.008L209.305 395.7C207.064 397.209 204.927 398.874 202.91 400.685C202.583 400.975 202.255 401.266 201.95 401.579C200.664 402.795 199.447 404.086 198.305 405.445L197.694 406.183L196.973 407.099L196.275 408.038L195.598 409.022C194.681 410.359 193.836 411.747 193.066 413.179L192.761 413.738C192.543 414.121 192.346 414.516 192.171 414.922C191.888 415.503 191.604 416.084 191.342 416.666C188.044 424.574 186.095 433.003 185.58 441.587C183.113 471.559 192.87 578.91 203.041 587.448C203.041 587.448 205.224 578.508 221.725 564.718C237.708 551.719 254.727 540.116 272.603 530.029C306.216 510.629 316.54 513.691 316.54 513.691C301.152 504.214 292.16 430.836 281.508 396.259Z" fill="#EBEBEB"/>
<path d="M235.473 814.018C235.065 814.015 234.662 813.929 234.287 813.764C233.912 813.599 233.574 813.359 233.291 813.057L123.568 694.151L14.063 812.61C13.7936 812.904 13.4703 813.14 13.1117 813.306C12.7531 813.471 12.3662 813.563 11.973 813.575C11.5798 813.588 11.188 813.521 10.8201 813.378C10.4522 813.236 10.1153 813.02 9.82864 812.744C9.54201 812.468 9.31126 812.137 9.14955 811.77C8.98785 811.403 8.89836 811.007 8.8862 810.604C8.87404 810.201 8.93944 809.8 9.07868 809.424C9.21791 809.047 9.42825 808.702 9.69769 808.408L121.385 687.714C121.664 687.407 122.002 687.163 122.378 686.998C122.753 686.832 123.159 686.749 123.568 686.753C123.977 686.749 124.382 686.832 124.758 686.998C125.134 687.163 125.472 687.407 125.75 687.714L237.656 808.967C238.047 809.406 238.306 809.951 238.402 810.538C238.498 811.124 238.426 811.726 238.195 812.271C237.965 812.817 237.585 813.282 237.102 813.612C236.619 813.942 236.054 814.122 235.473 814.13V814.018Z" fill="#263238"/>
<path d="M123.591 904.048C122.809 904.048 122.058 903.734 121.499 903.175C120.94 902.615 120.618 901.853 120.601 901.053V704.142C120.601 703.74 120.678 703.341 120.828 702.97C120.978 702.598 121.199 702.261 121.476 701.976C121.754 701.692 122.084 701.467 122.447 701.313C122.809 701.159 123.198 701.08 123.591 701.08C123.984 701.08 124.372 701.159 124.735 701.313C125.098 701.467 125.428 701.692 125.705 701.976C125.983 702.261 126.203 702.598 126.353 702.97C126.504 703.341 126.581 703.74 126.581 704.142V901.053C126.564 901.853 126.241 902.615 125.682 903.175C125.124 903.734 124.373 904.048 123.591 904.048V904.048Z" fill="#37474F"/>
<path d="M242.57 832.368C241.967 832.37 241.378 832.185 240.879 831.838C240.381 831.491 239.996 830.998 239.776 830.423L180.844 677.588C180.7 677.216 180.63 676.818 180.637 676.417C180.644 676.016 180.728 675.621 180.884 675.254C181.04 674.886 181.265 674.554 181.547 674.276C181.828 673.998 182.16 673.779 182.524 673.632C182.888 673.485 183.277 673.414 183.668 673.421C184.059 673.428 184.445 673.514 184.804 673.673C185.163 673.833 185.487 674.064 185.759 674.352C186.031 674.64 186.244 674.98 186.388 675.353L245.32 828.188C245.465 828.561 245.536 828.959 245.53 829.36C245.524 829.761 245.44 830.157 245.284 830.525C245.128 830.892 244.902 831.225 244.62 831.503C244.337 831.781 244.004 831.999 243.639 832.144C243.3 832.289 242.937 832.364 242.57 832.368Z" fill="#37474F"/>
<path d="M4.61388 832.369C4.2389 832.372 3.86727 832.296 3.52254 832.145C2.78532 831.851 2.19217 831.269 1.87306 830.527C1.55394 829.786 1.53488 828.945 1.82005 828.189L60.7523 675.354C61.0557 674.619 61.6276 674.034 62.346 673.724C63.0644 673.414 63.8727 673.404 64.5984 673.695C65.3242 673.986 65.9101 674.557 66.2313 675.284C66.5526 676.011 66.5837 676.838 66.3181 677.589L7.38587 830.424C7.16723 830.995 6.78607 831.486 6.29181 831.833C5.79755 832.179 5.21298 832.366 4.61388 832.369V832.369Z" fill="#37474F"/>
<path d="M238.488 809.414L246.28 830.469C246.312 830.646 246.312 830.828 246.28 831.005V831.385C246.057 831.962 245.638 832.438 245.101 832.726C244.365 833.113 243.55 833.314 242.722 833.314C241.895 833.314 241.079 833.113 240.343 832.726C239.942 832.498 239.621 832.146 239.426 831.72V831.43L232.224 811.649L238.488 809.414Z" fill="#E0E0E0"/>
<path d="M8.6736 809.414L0.881449 830.469C0.860419 830.647 0.860419 830.827 0.881449 831.005C0.85983 831.131 0.85983 831.259 0.881449 831.385C1.09029 831.971 1.51271 832.452 2.06009 832.726C2.79253 833.112 3.60446 833.314 4.42829 833.314C5.25213 833.314 6.06406 833.112 6.79649 832.726C7.2047 832.507 7.52799 832.153 7.71322 831.72V831.43L14.9597 811.649L8.6736 809.414Z" fill="#E0E0E0"/>
<path d="M127.041 885.742V903.153C127.012 903.467 126.902 903.767 126.721 904.023C126.541 904.278 126.297 904.48 126.015 904.606C125.259 904.992 124.426 905.193 123.581 905.193C122.737 905.193 121.904 904.992 121.148 904.606C120.868 904.478 120.628 904.276 120.451 904.021C120.274 903.765 120.168 903.465 120.144 903.153V885.742C121.204 885.159 122.389 884.854 123.592 884.854C124.796 884.854 125.98 885.159 127.041 885.742Z" fill="#E0E0E0"/>
<path d="M235.606 686.887C235.606 682.64 231.939 678.058 224.19 672.94C209.916 663.441 158.317 632.709 138.324 621.287C138.316 621.243 138.295 621.202 138.264 621.17C138.232 621.138 138.193 621.117 138.149 621.108C122.871 611.565 113.769 538.187 103.117 503.61C102.494 501.451 101.766 499.325 100.935 497.24L100.738 496.771L100.127 495.363C100.127 495.139 99.9306 494.893 99.8215 494.67C98.1373 490.722 95.7208 487.147 92.706 484.142C91.6553 483.153 90.4809 482.311 89.2137 481.639C87.4894 480.633 83.8443 478.577 82.9494 478.018C72.4944 471.626 47.8084 485.26 30.7398 494.849C20.1102 500.816 11.0958 507.901 5.52995 521.111C2.53262 528.696 0.74905 536.726 0.247879 544.892C-1.27999 563.13 4.61323 630.541 8.12733 656.937C13.3658 701.057 19.7828 701.147 29.1247 708.523C45.1891 721.24 91.3527 746.139 106.61 752.286C134.264 763.461 156.811 746.251 173.705 737.713C192.774 727.688 211.329 716.669 229.298 704.701C233.51 701.572 235.693 698.398 235.649 695.045C235.562 693.704 235.606 688.295 235.606 686.887Z" fill="#E0E0E0"/>
<path d="M173.597 729.487C192.661 719.453 211.216 708.435 229.19 696.475C238.771 689.345 237.92 682.058 224.148 672.939C205.071 660.266 127.302 615.073 127.302 615.073C127.302 615.073 18.0594 680.449 22.2938 691.401C26.5282 702.353 87.3812 736.326 106.545 744.06C134.309 755.19 156.79 738.025 173.597 729.487Z" fill="#F5F5F5"/>
<path d="M89.1713 481.639C78.8254 476.073 54.4013 489.596 37.7693 498.938C27.0961 504.906 18.0161 512.014 12.5158 525.268L5.53125 521.088C11.0534 507.879 20.1115 500.793 30.7411 494.826C47.8096 485.237 72.4957 471.603 82.9507 477.996C83.8019 478.621 87.447 480.633 89.1713 481.639Z" fill="#F5F5F5"/>
<path d="M103.119 503.609C102.901 502.872 99.3429 490.199 92.664 484.142C89.5527 481.277 85.52 479.685 81.3359 479.671C72.2996 479.671 50.4729 491.741 37.6824 498.871C36.6129 499.474 35.4997 500.078 34.5393 500.704C34.1246 500.927 33.7318 501.173 33.3389 501.419L31.942 502.335C31.587 502.545 31.2444 502.777 30.9161 503.028C28.6716 504.534 26.5278 506.192 24.499 507.99C24.1716 508.28 23.8661 508.571 23.5387 508.906C22.2546 510.118 21.0445 511.409 19.9154 512.773L19.3043 513.511C19.0642 513.801 18.8023 514.114 18.584 514.427C18.3657 514.74 18.1256 515.053 17.8855 515.366C17.6454 515.679 17.4272 515.992 17.2089 516.327C16.2847 517.672 15.4322 519.067 14.6552 520.506C14.5404 520.685 14.4383 520.872 14.3496 521.065L13.7603 522.227C13.4765 522.809 13.2146 523.412 12.9309 523.993C9.62713 531.9 7.67789 540.33 7.1686 548.914C4.70218 578.887 14.4587 686.238 24.63 694.776C24.63 694.776 26.8127 685.836 43.3355 672.045C59.3253 659.048 76.3599 647.459 94.2573 637.401C127.849 618.001 138.173 621.041 138.173 621.041C122.785 611.564 113.77 538.186 103.119 503.609Z" fill="#EBEBEB"/>
<path d="M499.253 1000C598.45 1000 678.865 952.458 678.865 893.811C678.865 835.164 598.45 787.622 499.253 787.622C400.056 787.622 319.641 835.164 319.641 893.811C319.641 952.458 400.056 1000 499.253 1000Z" fill="#E0E0E0"/>
<path d="M216.792 966.294L163.164 934.579C153.779 929.036 153.779 920.051 163.164 914.463L328.283 816.834C333.546 814.101 339.364 812.677 345.265 812.677C351.165 812.677 356.983 814.101 362.246 816.834L415.874 848.595C425.26 854.138 425.26 863.123 415.874 868.711L250.755 966.339C245.489 969.065 239.669 970.482 233.768 970.474C227.868 970.467 222.052 969.035 216.792 966.294V966.294Z" fill="#E0E0E0"/>
<path d="M382.543 639.414L341.487 615.141H341.334L341.029 614.962C320.773 603.205 293.01 605.016 262.169 623.21C200.268 659.664 150.066 748.754 150.066 821.931C150.066 858.318 162.486 883.91 182.545 896.002L182.85 896.18H183.003L224.059 920.453L231.196 901.254C242.082 898.385 252.517 893.953 262.19 888.089C324.091 851.501 374.271 762.5 374.271 689.301C374.36 677.876 372.891 666.493 369.905 655.484L382.543 639.414Z" fill="#BA68C8"/>
<path opacity="0.4" d="M382.543 639.414L341.487 615.141H341.334L341.029 614.962C320.773 603.205 293.01 605.016 262.169 623.21C200.268 659.664 150.066 748.754 150.066 821.931C150.066 858.318 162.486 883.91 182.545 896.002L182.85 896.18H183.003L224.059 920.453L231.196 901.254C242.082 898.385 252.517 893.953 262.19 888.089C324.091 851.501 374.271 762.5 374.271 689.301C374.36 677.876 372.891 666.493 369.905 655.484L382.543 639.414Z" fill="white"/>
<path opacity="0.4" d="M151.049 804.05C150.422 809.989 150.094 815.957 150.066 821.93C150.066 858.318 162.486 883.909 182.545 896.001L182.85 896.18H183.003L224.059 920.453L231.196 901.254C233.51 900.65 235.867 899.957 238.268 899.153L248.854 861.737L151.049 804.05Z" fill="#BA68C8"/>
<path d="M382.943 827.08C426.713 749.447 426.711 665.534 382.938 639.655C339.165 613.776 268.197 655.73 224.427 733.362C180.657 810.995 180.659 894.908 224.432 920.787C268.205 946.667 339.173 904.712 382.943 827.08Z" fill="#BA68C8"/>
<path d="M253.611 910.373C225.804 910.373 209.216 886.479 209.216 846.494C209.216 780.291 256.514 696.408 312.478 663.329C327.168 654.656 341.42 650.074 353.731 650.074C381.538 650.074 398.126 673.945 398.126 713.953C398.126 780.134 350.828 864.017 294.864 897.118C280.196 905.791 265.922 910.373 253.611 910.373Z" fill="#BA68C8"/>
<path opacity="0.15" d="M253.611 910.373C225.804 910.373 209.216 886.479 209.216 846.494C209.216 780.291 256.514 696.408 312.478 663.329C327.168 654.656 341.42 650.074 353.731 650.074C381.538 650.074 398.126 673.945 398.126 713.953C398.126 780.134 350.828 864.017 294.864 897.118C280.196 905.791 265.922 910.373 253.611 910.373Z" fill="black"/>
<path d="M387.802 707.673C387.802 682.193 381.058 663.307 368.988 652.914C364.116 650.988 358.931 650.025 353.709 650.075C341.399 650.075 327.146 654.657 312.456 663.329C256.536 696.409 209.216 780.358 209.216 846.494C209.216 871.952 215.96 890.861 228.03 901.254C232.907 903.165 238.088 904.128 243.309 904.093C255.619 904.093 269.872 899.511 284.54 890.839C340.526 857.737 387.802 773.854 387.802 707.673Z" fill="#FAFAFA"/>
<path d="M332.558 794.551C331.961 794.55 331.369 794.437 330.812 794.216L286.067 776.581L330.747 690.776C331.027 690.159 331.426 689.607 331.921 689.154C332.416 688.7 332.996 688.355 333.626 688.139C334.256 687.922 334.922 687.84 335.584 687.896C336.246 687.952 336.889 688.145 337.476 688.465C338.062 688.784 338.579 689.222 338.995 689.753C339.41 690.283 339.716 690.895 339.893 691.55C340.07 692.206 340.115 692.892 340.025 693.565C339.934 694.239 339.711 694.887 339.368 695.47L300.08 771.306L334.326 784.828C335.392 785.249 336.28 786.039 336.837 787.06C337.393 788.082 337.583 789.27 337.373 790.42C337.163 791.57 336.567 792.608 335.687 793.354C334.808 794.101 333.701 794.508 332.558 794.506V794.551Z" fill="#37474F"/>
<path d="M293.36 792.83C298.011 789.725 301.882 785.54 304.658 780.616C307.434 775.692 309.037 770.167 309.337 764.489C309.337 754.051 302.178 749.827 293.36 755.035C288.707 758.144 284.835 762.332 282.059 767.26C279.283 772.188 277.681 777.717 277.383 783.398C277.383 793.769 284.542 798.06 293.36 792.83Z" fill="#455A64"/>
<path d="M293.357 874.232C292.047 875.014 290.978 874.232 290.978 872.645V853.378C291 852.494 291.227 851.627 291.641 850.85C292.055 850.073 292.643 849.407 293.357 848.908C294.666 848.148 295.736 848.908 295.736 850.518V869.762C295.715 870.647 295.488 871.514 295.075 872.292C294.661 873.069 294.072 873.734 293.357 874.232V874.232Z" fill="#BA68C8"/>
<path d="M293.162 705.751C291.852 706.533 290.805 705.751 290.805 704.164V684.875C290.823 683.992 291.046 683.126 291.456 682.348C291.866 681.571 292.451 680.905 293.162 680.405C294.472 679.645 295.541 680.405 295.541 682.014V701.281C295.519 702.165 295.291 703.032 294.878 703.809C294.464 704.586 293.876 705.252 293.162 705.751V705.751Z" fill="#BA68C8"/>
<path d="M213.58 825.35C213.644 824.479 213.909 823.636 214.353 822.89C214.797 822.144 215.407 821.516 216.134 821.059L232.526 811.426C233.945 810.599 235.058 811.18 235.058 812.722C234.989 813.592 234.722 814.433 234.279 815.178C233.835 815.924 233.228 816.552 232.504 817.013L216.221 826.647C214.694 827.496 213.559 826.915 213.58 825.35Z" fill="#BA68C8"/>
<path d="M355.281 741.379C355.35 740.509 355.617 739.668 356.06 738.922C356.504 738.177 357.112 737.549 357.835 737.087L374.14 727.432C375.536 726.605 376.671 727.186 376.65 728.75C376.586 729.622 376.321 730.465 375.877 731.211C375.433 731.957 374.823 732.584 374.096 733.042L357.813 742.675C356.416 743.502 355.281 742.921 355.281 741.379Z" fill="#BA68C8"/>
<path d="M406.969 853.87C409.151 823.562 405.572 790.26 408.016 742.965C408.235 730.851 408.671 717.865 409.457 706.31C412.142 667.509 417.991 654.232 418.515 646.745C418.515 646.745 421.396 572.339 423.863 487.405C425.041 447.442 436.347 435.35 445.384 414.139H552.771C564.776 466.463 568.181 580.609 567.832 634.541C567.635 662.033 556.809 809.146 556.591 812.521C555.827 824.523 556.853 829.262 561.437 834.313C571.062 844.885 585.009 854.965 597.058 864.174C595.312 868.89 580.819 868.644 573.638 865.135C564.224 860.117 555.256 854.269 546.834 847.657C536.925 840.147 524.266 834.112 524.091 822.691C524.046 822.003 523.937 821.322 523.764 820.657C523.589 813.951 508.485 715.608 507.132 692.743C506.04 673.096 508.376 639.794 508.376 639.794L496 556.626C496 556.626 486.505 619.767 478.8 653.338C472.514 680.651 462.147 727.275 455.097 760.891C448.309 799.647 438.552 837.286 436.828 856.686C436.326 861.313 431.196 906.752 429.079 917.168C426.962 927.583 404.961 927.874 403.433 909.993C402.494 898.035 406.576 859.57 406.969 853.87Z" fill="#9E6767"/>
<path d="M617.576 876.243C618.187 876.243 619.191 883.149 615.895 886.122C612.076 889.564 600.857 895.264 585.927 893.453C570.998 891.643 562.878 887.016 556.854 881.965C550.83 876.914 542.405 869.784 535.638 868.353C529.352 866.99 522.542 864.174 520.491 862.207C518.439 860.24 518.657 851.434 518.657 851.434L617.576 876.243Z" fill="#263238"/>
<path d="M523.504 817.415C523.504 817.415 522.369 817.415 522.02 819.516C521.583 821.953 521.168 829.015 520.208 832.927C518.748 839.968 518.329 847.193 518.964 854.361C519.837 858.831 530.096 861.894 536.644 864.374C544.357 867.721 551.531 872.242 557.925 877.785C564.997 883.641 579.751 889.407 589.508 889.452C604.35 889.452 613.91 885.272 616.835 879.797C620.436 873.091 617.512 869.113 600.378 861.201C597.126 859.703 585.732 852.976 581.847 850.517C577.72 847.945 573.807 845.03 570.148 841.8C568.299 840.168 566.543 838.429 564.887 836.592C563.166 834.957 561.694 833.066 560.522 830.982C560.326 830.535 560.195 829.999 560.02 829.507C559.516 828.19 559.129 826.828 558.863 825.439C558.58 823.986 558.383 821.886 557.008 820.969C555.077 820.176 552.97 819.944 550.918 820.299C548.715 820.486 546.527 820.829 544.37 821.327C541.86 821.93 538.979 822.198 537.517 824.612C536.536 826.572 536.069 828.76 536.163 830.96C536.163 831.988 536.163 833.016 536.163 834.022C536.163 834.469 536.36 835.251 535.771 835.073C535.181 834.894 534.548 833.396 534.33 832.837C533.85 831.72 533.522 830.491 532.999 829.373C532.408 828.071 531.676 826.841 530.816 825.707C530.019 824.668 529.103 823.73 528.088 822.914C527.066 822.346 526.082 821.712 525.141 821.014C524.272 819.999 523.704 818.75 523.504 817.415V817.415Z" fill="#37474F"/>
<path d="M603.149 862.631C581.671 864.375 575.058 878.031 574.229 886.435C579.134 888.277 584.287 889.332 589.507 889.564C604.349 889.564 614.521 885.385 617.446 879.909C620.829 873.494 618.428 868.376 603.149 862.631Z" fill="#FAFAFA"/>
<path d="M570.956 863.189C570.711 863.204 570.469 863.124 570.279 862.966C570.171 862.877 570.081 862.767 570.014 862.642C569.948 862.517 569.906 862.38 569.892 862.239C569.878 862.097 569.891 861.954 569.932 861.818C569.972 861.682 570.038 861.556 570.126 861.446C572.599 858.771 575.602 856.669 578.934 855.282C582.266 853.894 585.849 853.252 589.443 853.4C589.586 853.413 589.726 853.455 589.853 853.523C589.981 853.592 590.094 853.685 590.186 853.798C590.278 853.911 590.348 854.042 590.391 854.182C590.434 854.323 590.449 854.471 590.436 854.618C590.423 854.765 590.382 854.907 590.315 855.038C590.249 855.168 590.157 855.284 590.047 855.379C589.936 855.473 589.809 855.544 589.672 855.588C589.534 855.632 589.39 855.648 589.246 855.635C586.004 855.534 582.777 856.126 579.771 857.373C576.765 858.619 574.045 860.494 571.785 862.876C571.678 862.989 571.549 863.075 571.405 863.129C571.262 863.183 571.108 863.204 570.956 863.189V863.189Z" fill="#F0F0F0"/>
<path d="M561.632 857.781C561.395 857.786 561.164 857.707 560.977 857.557C560.76 857.378 560.62 857.118 560.587 856.834C560.555 856.55 560.632 856.264 560.802 856.037C563.277 853.359 566.283 851.254 569.619 849.866C572.955 848.478 576.543 847.839 580.141 847.991C580.288 847.989 580.434 848.019 580.569 848.078C580.705 848.137 580.826 848.225 580.926 848.336C581.026 848.447 581.102 848.578 581.149 848.721C581.196 848.864 581.213 849.015 581.2 849.165C581.186 849.315 581.141 849.461 581.069 849.592C580.996 849.723 580.898 849.837 580.779 849.927C580.661 850.016 580.525 850.079 580.381 850.112C580.237 850.144 580.089 850.145 579.944 850.115C576.701 850.021 573.475 850.618 570.469 851.869C567.463 853.119 564.743 854.995 562.483 857.379C562.384 857.511 562.254 857.618 562.106 857.688C561.958 857.758 561.795 857.79 561.632 857.781V857.781Z" fill="#F0F0F0"/>
<path d="M553.013 851.567C552.769 851.572 552.531 851.494 552.336 851.344C552.119 851.164 551.979 850.904 551.947 850.62C551.914 850.336 551.991 850.051 552.162 849.824C554.641 847.151 557.648 845.051 560.983 843.663C564.318 842.276 567.903 841.633 571.5 841.778C571.638 841.789 571.772 841.828 571.895 841.893C572.018 841.957 572.127 842.046 572.217 842.154C572.306 842.262 572.373 842.387 572.415 842.522C572.457 842.657 572.473 842.799 572.461 842.94C572.45 843.082 572.411 843.221 572.346 843.347C572.282 843.474 572.192 843.585 572.084 843.675C571.976 843.765 571.851 843.832 571.717 843.871C571.582 843.909 571.442 843.92 571.304 843.901C568.061 843.81 564.835 844.409 561.829 845.659C558.824 846.909 556.104 848.784 553.842 851.165C553.747 851.296 553.621 851.402 553.476 851.472C553.332 851.542 553.173 851.575 553.013 851.567V851.567Z" fill="#F0F0F0"/>
<path d="M544.651 845.354C544.414 845.359 544.183 845.28 543.997 845.131C543.778 844.958 543.634 844.704 543.597 844.423C543.56 844.143 543.633 843.859 543.8 843.633C547.86 838.269 557.114 834.693 564.928 835.453C565.072 835.466 565.211 835.508 565.339 835.576C565.466 835.645 565.579 835.738 565.671 835.851C565.764 835.964 565.833 836.095 565.876 836.236C565.919 836.376 565.934 836.524 565.921 836.671C565.909 836.818 565.868 836.96 565.801 837.091C565.734 837.221 565.643 837.337 565.532 837.432C565.422 837.526 565.294 837.597 565.157 837.641C565.02 837.685 564.875 837.701 564.732 837.688C557.704 836.995 549.06 840.303 545.459 845.064C545.354 845.17 545.227 845.251 545.087 845.301C544.947 845.352 544.799 845.37 544.651 845.354Z" fill="#F0F0F0"/>
<path d="M436.086 925.281C435.496 935.652 433.903 942.536 430.323 948.615C426.744 954.695 419.956 956.595 413.08 954.829C406.205 953.063 397.431 948.28 395.444 939.34C393.458 930.399 392.345 924.253 393.895 914.62L436.086 925.281Z" fill="#263238"/>
<path d="M407.144 850.16C404.328 850.383 403.477 864.308 401.862 878.255C400.115 893.207 395.75 899.399 394.179 911.647C392.389 925.661 394.659 931.897 399.461 940.368C404.263 948.839 421.287 957.153 429.56 945.017C436.37 935.138 436.653 924.163 436.108 910.194C435.743 898.37 436.049 886.534 437.025 874.746C437.57 864.263 439.84 853.691 437.374 852.529C437.177 854.071 437.003 856.016 436.806 857.535C436.71 859.428 436.403 861.303 435.89 863.123C435.606 863.905 434.973 864.732 434.711 863.458C434.58 862.592 434.58 861.71 434.711 860.843C435.126 856.977 433.227 856.664 432.201 856.373C427.872 855.497 423.501 854.863 419.105 854.473C416.922 854.317 409.479 853.982 408.497 855.256C407.865 856.505 407.543 857.894 407.558 859.301C407.318 861.402 406.838 862.944 406.773 862.274C406.642 860.776 406.925 856.843 406.969 855.904C407.013 854.965 407.144 853.669 407.166 852.842C407.187 852.015 407.144 851.054 407.144 850.16Z" fill="#37474F"/>
<path d="M393.458 919.76C392.947 927.252 394.806 934.713 398.762 941.038C403.542 949.509 421.877 957.846 430.236 945.709C434.405 939.675 435.518 932.545 436.086 925.258C431.153 915.916 401.359 911.803 393.458 919.76Z" fill="#FAFAFA"/>
<path d="M429.909 909.992C429.794 910.013 429.676 910.013 429.56 909.992C429.451 909.992 416.355 904.382 403.608 907.399C403.47 907.448 403.323 907.465 403.178 907.452C403.033 907.439 402.892 907.395 402.764 907.322C402.636 907.25 402.525 907.151 402.436 907.032C402.348 906.913 402.285 906.776 402.252 906.631C402.218 906.485 402.215 906.334 402.241 906.187C402.268 906.04 402.325 905.901 402.407 905.777C402.49 905.654 402.596 905.55 402.72 905.471C402.845 905.392 402.983 905.341 403.128 905.321C416.617 902.125 429.975 907.802 430.477 908.048C430.725 908.173 430.915 908.393 431.005 908.661C431.095 908.929 431.078 909.223 430.957 909.478C430.854 909.662 430.698 909.81 430.511 909.902C430.324 909.993 430.114 910.025 429.909 909.992V909.992Z" fill="#F0F0F0"/>
<path d="M404.243 896.939C404.039 896.919 403.847 896.838 403.688 896.707C403.529 896.576 403.41 896.4 403.348 896.202C403.263 895.932 403.285 895.639 403.407 895.385C403.529 895.13 403.742 894.935 404.002 894.838C416.706 890.368 430.784 897.073 431.308 897.319C431.518 897.473 431.666 897.699 431.726 897.956C431.786 898.213 431.753 898.484 431.633 898.718C431.514 898.952 431.316 899.134 431.075 899.23C430.835 899.326 430.569 899.33 430.326 899.241C430.216 899.241 416.487 892.76 404.679 896.872C404.541 896.929 404.391 896.952 404.243 896.939V896.939Z" fill="#F0F0F0"/>
<path d="M404.697 887.082C404.5 887.063 404.312 886.988 404.154 886.866C403.996 886.743 403.874 886.579 403.802 886.39C403.754 886.256 403.732 886.114 403.737 885.972C403.743 885.83 403.776 885.69 403.835 885.561C403.894 885.432 403.977 885.316 404.08 885.22C404.183 885.125 404.304 885.051 404.435 885.004C418.382 879.885 431.762 887.105 432.242 887.418C432.48 887.566 432.65 887.805 432.715 888.081C432.781 888.358 432.736 888.65 432.592 888.893C432.447 889.136 432.214 889.31 431.944 889.377C431.673 889.444 431.388 889.399 431.151 889.25C431.042 889.25 418.055 882.277 405.155 887.015C405.009 887.07 404.853 887.093 404.697 887.082V887.082Z" fill="#F0F0F0"/>
<path d="M405.374 877.405C405.182 877.377 405.001 877.299 404.848 877.177C404.695 877.056 404.575 876.895 404.501 876.712C404.452 876.58 404.429 876.439 404.433 876.298C404.437 876.157 404.469 876.018 404.525 875.889C404.582 875.76 404.663 875.644 404.764 875.548C404.865 875.451 404.983 875.376 405.112 875.326C418.208 870.32 432.57 877.718 433.116 878.031C433.356 878.176 433.532 878.411 433.605 878.686C433.679 878.962 433.644 879.256 433.509 879.506C433.439 879.628 433.346 879.735 433.236 879.82C433.125 879.906 433 879.968 432.866 880.003C432.732 880.038 432.592 880.046 432.456 880.026C432.319 880.006 432.187 879.958 432.068 879.886C431.937 879.886 417.99 872.666 405.876 877.338C405.715 877.396 405.544 877.419 405.374 877.405V877.405Z" fill="#EBEBEB"/>
<path d="M434.428 414.139C422.62 443.91 418.56 460.83 417.272 531.481C415.985 602.132 416.115 632.73 415.832 641.246C415.548 649.762 410.724 664.982 406.468 706.957C402.212 748.932 406.119 798.037 406.119 798.037C406.119 798.037 410.179 805.659 425.763 806.977C440.212 808.318 447.371 802.753 447.371 802.753C447.371 802.753 467.19 721.038 472.69 695.782C478.191 670.525 495.958 573.411 495.958 573.411L505.409 640.799C505.409 640.799 501.043 663.954 505.409 700.766C509.774 737.578 517.588 775.239 517.588 775.239C524.72 777.79 532.231 779.053 539.786 778.972C546.627 779.08 553.367 777.271 559.277 773.742C559.277 773.742 571.544 664.223 571.544 622.561C571.544 580.899 571.042 475.76 558.208 414.027L434.428 414.139Z" fill="#455A64"/>
<path d="M476.638 653.226C476.638 653.226 470.418 644.017 455.139 642.05C439.86 640.084 431.937 648.644 431.937 648.644C431.937 648.644 460.29 645.671 476.638 653.226ZM430.213 654.902C449.857 658.903 458.893 658.076 467.886 656.243C467.886 656.243 439.555 652.578 430.213 654.902Z" fill="#9E6767"/>
<path d="M571.435 633.557L571.566 629.087C558.47 627.299 537.451 631.657 531.819 634.965C544.942 633.105 558.217 632.633 571.435 633.557V633.557ZM541.161 640.15C549.892 642.564 570.977 643.659 570.977 643.659L571.195 639.413C571.195 639.413 556.178 638.943 541.161 640.15Z" fill="#9E6767"/>
<path d="M409.962 801.926C410.649 802.457 411.379 802.928 412.145 803.334C408.15 737.399 416.161 699.536 421.486 674.302C422.01 671.866 422.49 669.564 422.949 667.374C426.987 647.638 428.798 608.032 428.733 575.601C428.733 565.834 428.733 555.753 428.733 545.025C428.733 532.486 429.191 519.5 430.195 506.671C452.655 503.922 457.522 481.213 463.656 452.559C464.485 448.626 465.365 444.58 466.297 440.423L464.31 439.954C463.372 444.111 462.499 448.179 461.648 452.112C455.514 480.833 450.996 501.687 430.37 504.481C432.814 475.424 438.686 447.061 452.655 426.633L450.996 425.426C430.195 455.823 426.987 502.938 426.681 545.003C426.681 555.731 426.681 565.834 426.681 575.601C426.681 607.92 424.935 647.437 420.941 666.949L419.5 673.855C414.131 699 406.164 736.639 409.962 801.926ZM508.946 493.305L496.047 573.522L505.497 640.91L504.253 575.444L512.984 525.714C513.311 530.653 513.661 535.727 513.988 540.89C516.847 583.535 520.056 631.858 517.895 642.028C511.915 669.899 513.661 687.489 516.847 719.429C517.175 722.67 517.524 726.134 517.873 729.621C519.619 747.658 521.562 765.382 522.872 776.982L525.054 777.474C523.745 765.896 521.758 747.837 519.969 729.419C519.619 725.843 519.292 722.468 518.965 719.227C515.8 687.512 514.054 670.056 519.947 642.475C522.129 632.014 519.096 585.614 516.105 540.756C515.56 532.598 515.036 524.73 514.556 517.221L517.044 503.095C526.866 500.681 548.496 488.991 551.377 475.111C536.186 491.316 508.946 493.305 508.946 493.305V493.305Z" fill="#37474F"/>
<path d="M620.43 379.071C618.793 378.154 615.715 380.926 611.699 384.837C610.694 385.803 609.914 386.987 609.415 388.302C608.917 389.617 608.713 391.03 608.818 392.437C611.605 391.906 614.132 390.416 615.977 388.212C618.124 385.554 619.647 382.426 620.43 379.071Z" fill="#263238"/>
<path d="M629.774 411.099C628.203 410.585 627.592 409.892 629.774 407.813C631.957 405.734 639.16 400.393 639.16 400.393L640.972 403.522C640.972 403.522 632.503 411.724 629.774 411.099Z" fill="black"/>
<path d="M676.111 360.408C675.085 355.803 670.152 352.406 661.247 347.332L661.007 347.198L659.762 346.483C644.986 338.75 572.281 305.067 560.516 300.44C551.509 296.547 541.993 294.024 532.272 292.953L548.577 351.713C548.577 351.713 602.598 369.035 624.971 376.075C618.837 383.518 612.835 390.715 607.313 393.308L629.14 412.239C633.985 404.573 663.451 389.195 669.977 378.713C674.627 371.024 677.093 364.9 676.111 360.408Z" fill="#9E6767"/>
<path d="M654.35 352.429C639.464 350.797 627.132 363.872 621.326 370.689C620.737 371.382 619.514 372.924 618.532 374.087L624.818 376.076C625.146 375.696 627.634 372.321 629.184 370.198C635.184 361.339 644.131 355.022 654.35 352.429V352.429Z" fill="#874C4C"/>
<path d="M627.262 395.521C624.796 393.286 618.772 387.631 614.93 389.285C608.906 391.9 606.069 394.358 597.01 398.694C590.462 401.846 582.496 406.048 580.771 408.126C576.406 413.446 577.89 427.035 579.636 432.712C579.839 433.438 580.192 434.109 580.673 434.681C581.153 435.253 581.75 435.711 582.42 436.023C583.091 436.336 583.819 436.495 584.556 436.491C585.293 436.486 586.019 436.318 586.686 435.998C587.21 437.183 588.673 439.731 593.234 438.769C593.584 440.535 596.225 442.659 600.306 441.809C600.83 443.754 604.497 444.447 606.963 443.284C610.39 441.72 613.948 436.713 616.109 434.813C618.27 432.914 619.296 432.198 619.339 431.014C619.339 429.404 617.659 427.773 614.777 428.041C618.176 427.071 621.215 425.087 623.508 422.342C625.271 419.831 626.737 417.115 627.873 414.251C628.756 411.862 630.1 409.681 631.824 407.836C635.011 404.17 630.253 398.672 627.677 396.102L627.262 395.521Z" fill="#9E6767"/>
<path d="M614.843 428.109C613.851 428.64 612.921 429.284 612.072 430.031C611.668 430.41 611.302 430.829 610.98 431.283C610.631 431.73 610.391 432.221 609.998 432.713L609.802 432.959L609.54 432.825C607.848 432.146 606.021 431.893 604.214 432.087C606.027 431.338 608.054 431.338 609.867 432.087H609.409C609.992 431.086 610.729 430.188 611.591 429.428C612.577 428.768 613.684 428.319 614.843 428.109Z" fill="#874C4C"/>
<path d="M608.517 437.563C608.735 436.647 609.04 435.864 609.215 435.037C609.427 434.192 609.588 433.333 609.695 432.467C610.116 433.317 610.21 434.299 609.957 435.216C609.741 436.139 609.235 436.963 608.517 437.563V437.563Z" fill="#874C4C"/>
<path d="M600.372 441.876C599.31 439.653 598.68 437.239 598.517 434.769C598.27 432.303 598.5 429.812 599.194 427.438C599.044 429.858 599.081 432.287 599.303 434.702C599.465 437.119 599.823 439.519 600.372 441.876V441.876Z" fill="#874C4C"/>
<path d="M593.3 438.836C592.302 436.055 591.65 433.156 591.358 430.209C591.002 427.228 591.127 424.207 591.729 421.268C591.684 424.202 591.816 427.135 592.122 430.052C592.384 433.047 592.886 435.93 593.3 438.836Z" fill="#874C4C"/>
<path d="M586.689 436.155C584.089 430.577 583.562 424.221 585.205 418.274C584.946 421.248 584.946 424.24 585.205 427.214C585.448 430.232 585.945 433.224 586.689 436.155V436.155Z" fill="#874C4C"/>
<path d="M585.595 413.535C585.543 412.77 585.67 412.004 585.966 411.3C586.275 410.61 586.73 409.999 587.298 409.512C588.469 408.666 589.826 408.129 591.249 407.947C590.637 408.327 590.026 408.662 589.437 408.998C588.84 409.31 588.277 409.684 587.756 410.115C586.707 410.998 585.952 412.193 585.595 413.535V413.535Z" fill="#874C4C"/>
<path d="M592.364 416.24C592.292 415.477 592.412 414.707 592.714 414.005C593.022 413.309 593.486 412.697 594.067 412.217C595.222 411.356 596.576 410.817 597.996 410.652L596.184 411.68C595.597 412.009 595.035 412.382 594.503 412.798C593.459 413.69 592.711 414.893 592.364 416.24V416.24Z" fill="#874C4C"/>
<path d="M600.548 420.039C600.475 419.276 600.595 418.506 600.897 417.804C601.206 417.108 601.669 416.496 602.251 416.016C603.41 415.164 604.762 414.626 606.179 414.452C605.568 414.832 604.957 415.167 604.368 415.502C603.771 415.814 603.208 416.188 602.687 416.62C601.632 417.493 600.882 418.693 600.548 420.039Z" fill="#874C4C"/>
<path d="M634.729 381.015L625.561 377.863C624.518 377.566 623.421 377.524 622.36 377.742C621.298 377.959 620.301 378.43 619.45 379.115L612.182 385.664C611.865 385.897 611.614 386.212 611.457 386.578C611.3 386.944 611.241 387.346 611.287 387.742C611.287 388.212 611.723 389.977 611.832 390.492C611.943 390.872 612.151 391.216 612.435 391.487C612.719 391.758 613.069 391.947 613.447 392.034L622.615 395.208C623.658 395.503 624.754 395.544 625.816 395.326C626.877 395.109 627.874 394.639 628.726 393.956L635.973 387.385C636.284 387.165 636.534 386.866 636.699 386.517C636.863 386.168 636.936 385.782 636.911 385.395C636.911 384.881 636.453 383.16 636.344 382.579C636.236 382.194 636.029 381.846 635.745 381.571C635.461 381.295 635.11 381.103 634.729 381.015V381.015Z" fill="#37474F"/>
<path d="M612.181 385.664L619.45 379.115C620.301 378.43 621.298 377.959 622.359 377.742C623.421 377.524 624.518 377.566 625.561 377.863L634.728 381.015C635.126 381.062 635.498 381.237 635.793 381.514C636.088 381.791 636.289 382.157 636.369 382.558C636.449 382.959 636.403 383.376 636.238 383.75C636.072 384.123 635.796 384.433 635.449 384.636L628.18 391.184C627.329 391.87 626.332 392.34 625.27 392.557C624.209 392.775 623.112 392.733 622.069 392.436L612.902 389.285C612.504 389.237 612.132 389.062 611.837 388.785C611.542 388.508 611.341 388.143 611.261 387.741C611.181 387.34 611.227 386.923 611.392 386.55C611.558 386.177 611.834 385.867 612.181 385.664V385.664Z" fill="#455A64"/>
<path d="M625.104 391.654C624.202 391.893 623.256 391.893 622.354 391.654L613.187 388.502C612.597 388.301 612.226 387.988 612.161 387.63C612.095 387.273 612.314 386.87 612.794 386.446L620.04 379.897C620.763 379.305 621.618 378.905 622.528 378.735C623.43 378.495 624.377 378.495 625.279 378.735L634.446 381.886C635.035 382.087 635.406 382.4 635.472 382.758C635.537 383.116 635.319 383.518 634.839 383.943L627.592 390.491C626.87 391.084 626.015 391.483 625.104 391.654V391.654Z" fill="#263238"/>
<path d="M621.043 393.688H620.89L614.342 391.453C614.303 391.44 614.266 391.42 614.235 391.392C614.204 391.365 614.178 391.332 614.16 391.294C614.142 391.257 614.131 391.216 614.129 391.174C614.126 391.132 614.132 391.09 614.145 391.051C614.171 390.969 614.225 390.9 614.298 390.859C614.371 390.817 614.457 390.806 614.538 390.827L621.086 393.062C621.127 393.072 621.166 393.09 621.199 393.117C621.232 393.143 621.259 393.177 621.278 393.216C621.296 393.254 621.306 393.296 621.307 393.339C621.308 393.382 621.3 393.425 621.283 393.464C621.263 393.519 621.231 393.568 621.189 393.606C621.148 393.645 621.097 393.673 621.043 393.688Z" fill="#455A64"/>
<path d="M628.771 392.235C630.146 392.66 633.136 394.582 634.424 400.192C635.711 405.802 632.83 410.451 629.709 411.099C630.822 411.859 633.463 410.742 636.715 408.238L639.422 406.16C640.499 405.34 641.362 404.26 641.933 403.016C642.505 401.772 642.767 400.403 642.696 399.03C642.652 398.185 642.527 397.347 642.325 396.526C641.998 394.392 641.232 392.354 640.077 390.546C638.921 388.739 637.403 387.204 635.624 386.044L628.771 392.235Z" fill="#263238"/>
<path d="M418.055 465.367C423.075 441.943 430.714 407.411 430.889 402.225C431.631 381.26 426.349 365.637 424.45 352.606C420.303 324.199 430.692 300.35 437.153 294.74C437.153 294.74 443.876 293.176 451.886 291.209C456.445 290.075 461.066 289.224 465.724 288.661C478.016 286.898 490.463 286.553 502.83 287.633C505.842 287.945 520.095 290.449 520.095 290.449C524.46 291.477 532.296 292.952 532.318 292.952C539.958 300.168 546.343 308.663 551.198 318.074C558.226 330.948 561.696 341.722 560.758 369.303C560.496 377.595 560.169 392.413 560.496 404.237C561.173 429.56 563.05 439.998 566.193 462.975C537.84 480.856 466.314 489.103 418.055 465.367Z" fill="#263238"/>
<path d="M467.909 272.993C470.048 272.453 472.131 271.705 474.13 270.758C477.015 269.234 480.225 268.466 483.472 268.523C487.466 268.948 490.74 271.697 494.538 272.747C496.681 273.286 498.908 273.377 501.086 273.016C502.439 272.814 503.727 272.367 505.058 272.055C507.236 271.515 509.492 271.387 511.715 271.675C513.978 272.2 516.328 272.2 518.591 271.675C522.127 270.423 524.157 266.534 527.562 264.969C531.36 263.181 535.856 264.723 539.959 263.941C541.8 263.532 543.532 262.721 545.039 261.564C546.546 260.407 547.791 258.931 548.69 257.236C550.449 253.805 551.134 249.904 550.654 246.06C550.033 243.469 550.033 240.762 550.654 238.171C551.456 236.556 552.536 235.102 553.841 233.879C556.22 231.197 558.206 227.509 557.093 224.067C556.133 221.05 552.968 218.949 552.728 215.775C552.724 215.046 552.878 214.324 553.18 213.663C553.482 213.003 553.924 212.419 554.474 211.954C555.023 211.49 555.667 211.157 556.358 210.979C557.049 210.801 557.77 210.782 558.468 210.925C559.145 211.151 559.765 211.525 560.285 212.021C560.806 212.517 561.214 213.124 561.482 213.798C561.751 214.473 561.872 215.199 561.837 215.927C561.803 216.654 561.614 217.365 561.284 218.01C562.791 217.031 564.067 215.721 565.018 214.175C565.969 212.628 566.573 210.885 566.784 209.07C566.555 205.935 565.128 203.02 562.812 200.956C560.629 198.721 558.185 196.911 556.264 194.497C555.242 193.178 554.499 191.655 554.081 190.027C553.881 189.232 553.8 188.411 553.841 187.591C553.841 186.138 554.496 184.707 554.714 183.255C555.096 180.269 554.428 177.241 552.828 174.714C551.228 172.187 548.801 170.326 545.983 169.464C542.928 168.637 539.261 168.861 537.253 166.402C535.747 164.614 535.703 161.932 534.852 159.831C532.669 154.266 525.226 152.589 519.748 154.78C517.041 155.852 514.313 157.685 511.497 157.015C509.595 156.298 507.883 155.134 506.499 153.617C503.938 151.429 500.967 149.801 497.768 148.834C496.174 148.347 494.536 148.025 492.879 147.873C492.05 147.873 491.22 147.873 490.391 147.873C489.76 147.943 489.126 147.981 488.492 147.985C487.957 147.892 487.418 147.833 486.877 147.806C486.19 147.813 485.505 147.865 484.825 147.963C482.127 148.331 479.529 149.25 477.186 150.667C475.28 151.805 473.582 153.272 472.165 155.003C471.216 156.337 470.157 157.586 469 158.736C465.879 161.44 461.427 161.395 457.367 161.91C452.666 162.4 448.18 164.175 444.38 167.05C442.514 168.515 440.967 170.364 439.839 172.477C438.712 174.59 438.028 176.921 437.832 179.321C438.025 181.468 437.764 183.633 437.068 185.669C436.197 187.081 434.947 188.207 433.467 188.909C430.042 190.502 426.705 192.286 423.47 194.251C421.86 195.259 420.529 196.67 419.601 198.352C418.672 200.034 418.179 201.93 418.166 203.862C418.428 207.103 420.611 209.785 422.531 212.445C424.452 215.105 426.045 218.39 425.085 221.497C424.201 223.352 423.149 225.118 421.942 226.772C420.836 229.057 420.653 231.696 421.434 234.118C422.214 236.54 423.894 238.55 426.111 239.713C428.927 241.054 432.921 241.412 433.728 244.474C433.843 246.242 433.598 248.015 433.008 249.681C432.135 254.934 437.068 259.739 442.241 260.454C445.144 260.879 448.418 260.454 450.753 262.265C452.74 263.829 453.373 266.601 454.769 268.747C456.177 270.866 458.312 272.366 460.75 272.949C461.929 273.239 463.173 273.06 464.33 273.373C465.536 273.51 466.756 273.38 467.909 272.993V272.993Z" fill="#263238"/>
<path d="M467.08 279.989C467.08 275.34 466.512 251.984 466.512 251.984C466.316 253.727 458.022 258.465 450.644 249.458C443.267 240.451 442.787 230.862 447.239 224.872C452.15 218.167 464.984 218.323 466.207 229.7C472.58 229.454 475.658 226.638 473.126 215.887C473.693 209.629 479.674 206.947 481.376 196.911C481.944 193.09 483.767 189.581 486.545 186.964C489.323 184.347 492.889 182.778 496.655 182.517C499.673 182.273 502.705 182.72 505.533 183.826C508.361 184.931 510.913 186.668 513.003 188.91C513.766 187.383 514.852 186.049 516.181 185.006C517.509 183.962 519.049 183.234 520.686 182.875C524.831 182.31 529.031 183.381 532.432 185.872C535.834 188.363 538.181 192.086 538.999 196.285C541.231 207.065 542.17 218.084 541.793 229.096C540.898 253.884 534.393 265.841 526.645 269.999C521.428 272.77 516.736 273.418 507.678 272.636L508.07 280.414C508.245 284.325 507.896 287.119 511.606 288.483C514.073 289.332 519.966 290.494 519.966 290.494C519.966 290.494 528.588 305.738 504.84 307.101C466.992 309.336 451.823 291.254 451.823 291.254L460.204 288.617C466.381 286.605 467.036 284.661 467.08 279.989Z" fill="#9E6767"/>
<path d="M512.94 245.569C512.323 244.75 511.466 244.155 510.495 243.87C509.628 243.608 508.735 243.443 507.832 243.379C506.957 243.307 506.075 243.36 505.213 243.535C504.731 243.632 504.257 243.767 503.795 243.938C503.406 244.121 503.045 244.362 502.725 244.653C502.529 244.809 502.245 245.681 502.725 245.681C503.182 245.726 503.643 245.726 504.1 245.681L505.301 245.569C506.151 245.525 507.004 245.525 507.854 245.569C508.684 245.618 509.504 245.768 510.299 246.016C510.648 246.128 510.997 246.173 511.347 246.262C511.696 246.351 511.739 246.374 511.936 246.396C512.19 246.418 512.446 246.418 512.7 246.396C513.005 246.351 513.093 245.77 512.94 245.569Z" fill="#874C4C"/>
<path opacity="0.2" d="M512.94 245.569C512.323 244.75 511.466 244.155 510.495 243.87C509.628 243.608 508.735 243.443 507.832 243.379C506.957 243.307 506.075 243.36 505.213 243.535C504.731 243.632 504.257 243.767 503.795 243.938C503.406 244.121 503.045 244.362 502.725 244.653C502.529 244.809 502.245 245.681 502.725 245.681C503.182 245.726 503.643 245.726 504.1 245.681L505.301 245.569C506.151 245.525 507.004 245.525 507.854 245.569C508.684 245.618 509.504 245.768 510.299 246.016C510.648 246.128 510.997 246.173 511.347 246.262C511.696 246.351 511.739 246.374 511.936 246.396C512.19 246.418 512.446 246.418 512.7 246.396C513.005 246.351 513.093 245.77 512.94 245.569Z" fill="black"/>
<path d="M534.764 207.125L525.247 203.236C525.462 202.581 525.806 201.978 526.258 201.465C526.71 200.952 527.259 200.539 527.873 200.252C528.487 199.965 529.152 199.81 529.826 199.796C530.501 199.783 531.171 199.911 531.795 200.174C533.064 200.724 534.078 201.752 534.63 203.044C535.182 204.337 535.23 205.797 534.764 207.125V207.125Z" fill="#263238"/>
<path d="M502.263 203.929L492.114 201.694C491.939 202.362 491.899 203.06 491.996 203.745C492.093 204.429 492.326 205.087 492.679 205.676C493.032 206.266 493.499 206.776 494.051 207.175C494.603 207.574 495.229 207.854 495.89 207.997C497.259 208.289 498.686 208.029 499.873 207.272C501.06 206.514 501.916 205.317 502.263 203.929V203.929Z" fill="#263238"/>
<path d="M524.376 216.512C524.291 217.677 524.655 218.83 525.389 219.724C526.123 220.618 527.17 221.182 528.305 221.295C528.857 221.36 529.416 221.311 529.949 221.15C530.482 220.99 530.978 220.721 531.407 220.36C531.837 220 532.191 219.554 532.45 219.051C532.708 218.547 532.865 217.996 532.911 217.429C532.996 216.264 532.633 215.111 531.898 214.217C531.164 213.323 530.117 212.759 528.982 212.646C528.43 212.581 527.871 212.63 527.338 212.791C526.805 212.951 526.309 213.22 525.88 213.581C525.45 213.941 525.096 214.387 524.838 214.89C524.579 215.394 524.423 215.945 524.376 216.512V216.512Z" fill="#263238"/>
<path d="M493.38 217.116C493.295 218.281 493.659 219.434 494.393 220.328C495.127 221.222 496.174 221.786 497.309 221.899C497.86 221.967 498.418 221.921 498.951 221.763C499.484 221.605 499.98 221.339 500.41 220.98C500.84 220.621 501.195 220.177 501.453 219.674C501.712 219.172 501.869 218.621 501.915 218.055C502 216.89 501.637 215.737 500.902 214.843C500.168 213.95 499.121 213.385 497.986 213.272C497.435 213.204 496.877 213.25 496.344 213.408C495.811 213.566 495.315 213.833 494.885 214.191C494.455 214.55 494.1 214.994 493.842 215.497C493.583 215.999 493.426 216.55 493.38 217.116V217.116Z" fill="#263238"/>
<path d="M528.24 231.756L514.271 236.986L510.561 212.132C515.93 212.266 522.827 220.938 528.24 231.756Z" fill="#874C4C"/>
<path d="M507.679 272.59C491.418 270.869 475.856 265.393 472.232 257.794C472.885 262.564 475.213 266.926 478.78 270.065C489.694 279.363 508.028 278.469 508.028 278.469L507.679 272.59Z" fill="#874C4C"/>
<path d="M410.763 504.459C403.91 506.448 395.135 497.753 392.734 494.691C390.333 491.629 393.411 484.432 394.917 478.353C396.423 472.273 394.917 461.97 402.273 464.942C409.628 467.915 425.038 488.053 410.763 504.459Z" fill="#874C4C"/>
<path d="M437.088 294.741C418.012 297.647 409.172 302.318 398.673 323.931C386.45 349.098 366.675 384.1 363.619 395.03C360.76 405.199 355.085 412.463 365.955 427.908C375.886 442.056 407.142 479.113 411.791 484.545C415.851 489.35 413.603 503.141 399.633 501.084C399.633 501.084 410.263 510.718 416.091 509.645C421.133 508.728 429.056 504.213 436.324 488.568C440.908 478.689 437.066 470.955 430.104 459.959C421.766 446.839 403.759 410.25 403.759 410.25L435.975 351.714C435.975 351.714 453.327 312.108 437.088 294.741Z" fill="#9E6767"/>
<path d="M630.494 871.996C630.27 868.848 628.88 865.906 626.608 863.771C624.637 861.532 621.953 860.082 619.035 859.681C618.533 859.681 618.271 860.419 618.249 860.821C618.213 861.107 618.25 861.398 618.357 861.664C618.464 861.931 618.638 862.164 618.86 862.341C621.016 863.493 623.031 864.904 624.862 866.543C625.599 867.345 626.223 868.247 626.718 869.225C626.847 869.472 626.964 869.725 627.067 869.985V870.119L627.241 870.588C627.438 871.17 627.7 871.751 627.853 872.354C628.036 873.454 628.13 874.568 628.136 875.684C628.131 876.049 628.214 876.41 628.376 876.735C628.944 877.584 629.73 876.042 629.948 875.461C630.358 874.356 630.544 873.177 630.494 871.996Z" fill="#FAFAFA"/>
<path d="M634.861 858.072C632.731 855.506 630.099 853.427 627.134 851.97C624.158 850.223 620.632 849.741 617.312 850.629C616.483 850.942 616.57 852.864 617.312 853.065C620.33 853.731 623.293 854.635 626.174 855.769C628.446 856.823 630.482 858.345 632.155 860.24C636.323 864.956 637.633 871.527 637.655 877.718C637.655 878.165 638.113 878.12 638.266 877.718C641.54 871.281 639.183 863.369 634.861 858.072Z" fill="#FAFAFA"/>
<path d="M189.094 217.898C201.011 242.663 229.037 263.651 278.06 263.695C299.887 263.695 317.544 259.493 331.492 252.676C340.855 264.478 359.867 268.858 373.727 263.36C374.134 263.195 374.483 262.909 374.729 262.538C374.975 262.168 375.107 261.73 375.107 261.281C375.107 260.833 374.975 260.395 374.729 260.025C374.483 259.654 374.134 259.368 373.727 259.203C359.736 253.213 355.698 243.043 354.606 235.868C359.62 230.603 363.802 224.571 367.004 217.988C373.433 204.989 376.348 190.465 375.446 175.923C374.544 161.381 369.858 147.351 361.875 135.29C346.072 110.592 311.324 95.0581 278.038 95.0581C244.752 95.0581 210.004 110.57 194.202 135.29C186.242 147.345 181.572 161.359 180.674 175.883C179.776 190.406 182.683 204.911 189.094 217.898V217.898Z" fill="white"/>
<path d="M360.849 266.533C349.608 266.533 338.018 261.817 331.274 253.704C316.366 260.856 298.534 264.5 278.147 264.5H277.995C219.368 264.5 196.69 235.443 188.374 218.278C181.896 205.153 178.959 190.494 179.869 175.817C180.778 161.14 185.5 146.979 193.547 134.798C209.088 110.502 243.05 94.186 278.06 94.186C313.07 94.186 347.033 110.48 362.573 134.775C370.647 146.946 375.395 161.107 376.324 175.79C377.253 190.472 374.329 205.142 367.855 218.278C364.667 224.835 360.532 230.863 355.589 236.159C356.789 243.289 361.024 252.81 374.163 258.51C374.718 258.744 375.189 259.145 375.517 259.66C375.844 260.175 376.011 260.779 375.997 261.393C376.006 262 375.83 262.596 375.493 263.096C375.157 263.597 374.677 263.978 374.12 264.187C369.877 265.806 365.376 266.602 360.849 266.533V266.533ZM331.71 251.648L332.103 252.162C341.052 263.337 359.583 268.098 373.443 262.577C373.695 262.483 373.912 262.308 374.061 262.079C374.21 261.85 374.284 261.578 374.272 261.303C374.288 261.019 374.217 260.737 374.068 260.496C373.919 260.256 373.701 260.069 373.443 259.962C359.365 253.928 354.999 243.601 353.799 236.002V235.6L354.083 235.309C359.056 230.04 363.195 224.007 366.349 217.429C372.689 204.578 375.564 190.227 374.677 175.858C373.791 161.49 369.175 147.623 361.307 135.692C346.29 112.246 312.11 95.8623 278.147 95.8623C244.185 95.8623 210.004 112.246 194.988 135.692C187.092 147.632 182.458 161.516 181.563 175.907C180.669 190.298 183.548 204.672 189.902 217.54C198.043 234.46 220.328 262.823 278.147 262.868C298.555 262.868 316.41 259.18 331.23 251.938L331.71 251.648Z" fill="#455A64"/>
<path d="M298.361 196.173C304.166 202.722 304.69 210.678 304.69 220.222H251.28C251.28 210.678 251.804 202.722 257.61 196.173C263.416 189.624 268.087 187.366 270.466 184.997C271.366 184.386 272.105 183.555 272.616 182.58C273.127 181.605 273.394 180.516 273.394 179.41C273.394 178.303 273.127 177.214 272.616 176.239C272.105 175.264 271.366 174.433 270.466 173.822C268.087 171.453 263.394 169.173 257.61 162.646C251.826 156.12 251.28 148.141 251.28 138.597H304.69C304.69 148.141 304.166 156.12 298.361 162.646C292.555 169.173 287.884 171.453 285.505 173.822C284.604 174.433 283.865 175.264 283.355 176.239C282.844 177.214 282.576 178.303 282.576 179.41C282.576 180.516 282.844 181.605 283.355 182.58C283.865 183.555 284.604 184.386 285.505 184.997C286.792 186.271 288.779 187.545 291.223 189.467C293.796 191.476 296.185 193.721 298.361 196.173Z" fill="#BA68C8"/>
<path opacity="0.6" d="M298.361 196.173C304.166 202.722 304.69 210.678 304.69 220.222H251.28C251.28 210.678 251.804 202.722 257.61 196.173C263.416 189.624 268.087 187.366 270.466 184.997C271.366 184.386 272.105 183.555 272.616 182.58C273.127 181.605 273.394 180.516 273.394 179.41C273.394 178.303 273.127 177.214 272.616 176.239C272.105 175.264 271.366 174.433 270.466 173.822C268.087 171.453 263.394 169.173 257.61 162.646C251.826 156.12 251.28 148.141 251.28 138.597H304.69C304.69 148.141 304.166 156.12 298.361 162.646C292.555 169.173 287.884 171.453 285.505 173.822C284.604 174.433 283.865 175.264 283.355 176.239C282.844 177.214 282.576 178.303 282.576 179.41C282.576 180.516 282.844 181.605 283.355 182.58C283.865 183.555 284.604 184.386 285.505 184.997C286.792 186.271 288.779 187.545 291.223 189.467C293.796 191.476 296.185 193.721 298.361 196.173Z" fill="white"/>
<path opacity="0.5" d="M252.784 219.105C252.639 219.105 252.5 219.046 252.398 218.942C252.296 218.837 252.238 218.695 252.238 218.546C252.238 210.522 252.806 202.901 258.328 196.553C261.168 193.369 264.354 190.527 267.823 188.082C268.995 187.276 270.111 186.387 271.162 185.422C272.139 184.727 272.937 183.799 273.488 182.719C274.04 181.639 274.328 180.439 274.328 179.22C274.328 178.001 274.04 176.801 273.488 175.721C272.937 174.641 272.139 173.713 271.162 173.018C270.114 172.058 269.006 171.169 267.844 170.358C264.369 167.904 261.177 165.055 258.328 161.865C252.806 155.629 252.304 147.918 252.238 139.894C252.238 139.746 252.296 139.603 252.398 139.499C252.5 139.394 252.639 139.335 252.784 139.335C252.923 139.335 253.056 139.391 253.154 139.492C253.253 139.593 253.308 139.729 253.308 139.871C253.308 147.694 253.853 155.182 259.114 161.149C261.909 164.268 265.044 167.05 268.456 169.442C269.636 170.295 270.759 171.228 271.817 172.235C272.89 173.038 273.763 174.089 274.365 175.303C274.967 176.517 275.281 177.859 275.281 179.22C275.281 180.581 274.967 181.923 274.365 183.137C273.763 184.351 272.89 185.402 271.817 186.205C270.731 187.209 269.579 188.135 268.368 188.976C264.952 191.37 261.817 194.16 259.026 197.291C253.766 203.236 253.286 210.701 253.22 218.546C253.223 218.677 253.181 218.805 253.101 218.907C253.021 219.009 252.909 219.079 252.784 219.105V219.105Z" fill="white"/>
<path d="M296.001 198.229C300.366 203.123 301.283 209.404 301.436 216.623H254.683C254.835 209.292 255.599 203.079 260.117 198.229C264.636 193.378 270.201 191.255 278.059 191.255C281.352 191.14 284.634 191.697 287.715 192.894C290.795 194.091 293.612 195.905 296.001 198.229V198.229Z" fill="#FAFAFA"/>
<path d="M301.217 146.263C301.053 151.38 299.216 156.291 296 160.21C293.27 163.261 290.209 165.984 286.877 168.324C285.612 169.214 284.409 170.192 283.275 171.252C282.13 172.235 281.194 173.448 280.526 174.817C279.858 176.186 279.471 177.681 279.39 179.209C279.39 181.891 278.954 182.584 278.059 182.584C277.164 182.584 276.727 181.958 276.727 179.209C276.646 177.681 276.259 176.186 275.591 174.817C274.923 173.448 273.987 172.235 272.842 171.252C271.716 170.192 270.52 169.214 269.262 168.324C265.918 165.99 262.849 163.267 260.117 160.21C259.114 159.077 258.25 157.824 257.542 156.478C257.493 156.379 257.474 156.269 257.484 156.159C257.495 156.05 257.536 155.946 257.602 155.859C257.669 155.772 257.758 155.707 257.859 155.67C257.96 155.633 258.07 155.626 258.175 155.651C262.389 156.68 266.725 157.086 271.052 156.858C279.652 156.321 283.515 154.846 288.907 150.152C292.137 147.381 294.582 143.447 296.742 142.598C297.28 142.294 297.893 142.16 298.504 142.214C299.116 142.267 299.698 142.505 300.177 142.898C300.656 143.29 301.011 143.82 301.196 144.419C301.381 145.018 301.388 145.66 301.217 146.263Z" fill="#FAFAFA"/>
<path d="M278.059 188.127C278.939 188.127 279.653 187.396 279.653 186.495C279.653 185.594 278.939 184.863 278.059 184.863C277.179 184.863 276.466 185.594 276.466 186.495C276.466 187.396 277.179 188.127 278.059 188.127Z" fill="#FAFAFA"/>
<path opacity="0.3" d="M291.22 189.468C293.793 191.477 296.182 193.721 298.357 196.173C304.163 202.722 304.687 210.679 304.687 220.223H257.41C264.548 220.223 284.519 216.803 291.656 209.651C299.208 202.029 295.498 195.57 291.22 189.468Z" fill="#BA68C8"/>
<path opacity="0.3" d="M304.687 138.664C304.687 148.208 304.163 156.187 298.357 162.713C292.552 169.24 287.881 171.52 285.501 173.889C284.601 174.5 283.862 175.331 283.351 176.306C282.84 177.281 282.573 178.37 282.573 179.476C282.573 180.583 282.84 181.672 283.351 182.647C283.862 183.622 284.601 184.453 285.501 185.064C277.666 180.192 278.953 175.297 280.394 172.034C281.835 168.77 291.613 162.602 291.067 153.572C290.522 144.542 276.793 138.731 263.74 138.731L304.687 138.664Z" fill="#BA68C8"/>
<path d="M309.51 131.333C309.51 132.619 309.011 133.853 308.123 134.762C307.234 135.672 306.03 136.183 304.773 136.183H251.363C250.107 136.183 248.902 135.672 248.014 134.762C247.126 133.853 246.627 132.619 246.627 131.333H309.51Z" fill="#BA68C8"/>
<path opacity="0.2" d="M287.901 131.333C287.896 132.621 287.392 133.855 286.5 134.764C285.608 135.673 284.401 136.183 283.143 136.183H251.363C250.107 136.183 248.902 135.672 248.014 134.762C247.126 133.853 246.627 132.619 246.627 131.333H287.901Z" fill="white"/>
<path d="M313.288 125.32V127.198C313.288 128.295 312.862 129.346 312.105 130.122C311.348 130.897 310.321 131.333 309.25 131.333H246.934C245.864 131.333 244.836 130.897 244.079 130.122C243.322 129.346 242.896 128.295 242.896 127.198V125.32C242.902 125.093 242.994 124.877 243.153 124.719C243.312 124.56 243.526 124.471 243.748 124.471H312.393C312.507 124.462 312.622 124.477 312.73 124.515C312.839 124.554 312.938 124.615 313.022 124.695C313.106 124.775 313.173 124.872 313.219 124.979C313.265 125.087 313.288 125.203 313.288 125.32Z" fill="#BA68C8"/>
<path opacity="0.15" d="M313.156 125.321V127.199C313.156 128.295 312.73 129.347 311.973 130.123C311.216 130.898 310.189 131.334 309.118 131.334H246.868C245.797 131.334 244.77 130.898 244.013 130.123C243.256 129.347 242.83 128.295 242.83 127.199V125.321C242.83 125.096 242.917 124.88 243.073 124.721C243.229 124.561 243.44 124.472 243.66 124.472H312.305C312.527 124.472 312.74 124.561 312.899 124.719C313.058 124.878 313.15 125.094 313.156 125.321Z" fill="black"/>
<path d="M295.324 125.321V127.199C295.324 128.295 294.899 129.347 294.142 130.123C293.384 130.898 292.357 131.334 291.286 131.334H246.934C245.864 131.334 244.836 130.898 244.079 130.123C243.322 129.347 242.896 128.295 242.896 127.199V125.321C242.902 125.094 242.994 124.878 243.153 124.719C243.312 124.561 243.526 124.472 243.748 124.472H294.495C294.715 124.472 294.926 124.561 295.081 124.721C295.237 124.88 295.324 125.096 295.324 125.321V125.321Z" fill="#BA68C8"/>
<path opacity="0.2" d="M253.591 131.334C252.809 130.37 252.38 129.156 252.38 127.903C252.38 126.649 252.809 125.435 253.591 124.472H267.888C268.683 125.43 269.12 126.646 269.12 127.903C269.12 129.16 268.683 130.376 267.888 131.334H253.591Z" fill="white"/>
<path opacity="0.2" d="M256.017 136.183C255.491 135.489 255.206 134.636 255.206 133.758C255.206 132.88 255.491 132.027 256.017 131.333H265.49C266.015 132.027 266.301 132.88 266.301 133.758C266.301 134.636 266.015 135.489 265.49 136.183H256.017Z" fill="white"/>
<path d="M246.627 227.084C246.627 225.797 247.126 224.564 248.014 223.654C248.902 222.745 250.107 222.234 251.363 222.234H304.773C306.03 222.234 307.234 222.745 308.123 223.654C309.011 224.564 309.51 225.797 309.51 227.084H246.627Z" fill="#BA68C8"/>
<path opacity="0.2" d="M268.237 227.084C268.237 225.797 268.736 224.564 269.625 223.654C270.513 222.745 271.718 222.234 272.974 222.234H304.775C306.031 222.234 307.236 222.745 308.124 223.654C309.013 224.564 309.512 225.797 309.512 227.084H268.237Z" fill="white"/>
<path d="M242.896 233.096V231.218C242.896 230.122 243.322 229.07 244.079 228.295C244.836 227.519 245.864 227.083 246.934 227.083H309.184C310.255 227.083 311.282 227.519 312.04 228.295C312.797 229.07 313.222 230.122 313.222 231.218V233.096C313.225 233.209 313.206 233.322 313.165 233.428C313.125 233.533 313.064 233.63 312.987 233.711C312.91 233.792 312.817 233.857 312.715 233.901C312.613 233.945 312.504 233.968 312.393 233.968H243.748C243.522 233.968 243.305 233.876 243.146 233.712C242.986 233.549 242.896 233.327 242.896 233.096V233.096Z" fill="#BA68C8"/>
<path opacity="0.15" d="M242.896 233.096V231.218C242.896 230.122 243.322 229.07 244.079 228.295C244.836 227.519 245.864 227.083 246.934 227.083H309.184C310.255 227.083 311.282 227.519 312.04 228.295C312.797 229.07 313.222 230.122 313.222 231.218V233.096C313.225 233.209 313.206 233.322 313.165 233.428C313.125 233.533 313.064 233.63 312.987 233.711C312.91 233.792 312.817 233.857 312.715 233.901C312.613 233.945 312.504 233.968 312.393 233.968H243.748C243.522 233.968 243.305 233.876 243.146 233.712C242.986 233.549 242.896 233.327 242.896 233.096V233.096Z" fill="black"/>
<path d="M260.906 233.096V231.218C260.906 230.122 261.331 229.07 262.088 228.295C262.846 227.519 263.873 227.083 264.944 227.083H309.296C310.367 227.083 311.394 227.519 312.151 228.295C312.908 229.07 313.334 230.122 313.334 231.218V233.096C313.336 233.209 313.317 233.322 313.277 233.428C313.236 233.533 313.176 233.63 313.098 233.711C313.021 233.792 312.929 233.857 312.827 233.901C312.725 233.945 312.615 233.968 312.504 233.968H261.648C261.439 233.945 261.247 233.843 261.109 233.681C260.972 233.519 260.899 233.31 260.906 233.096Z" fill="#BA68C8"/>
<path opacity="0.2" d="M302.528 227.083C303.321 228.047 303.755 229.266 303.755 230.526C303.755 231.785 303.321 233.004 302.528 233.968H288.232C287.447 233 287.018 231.783 287.018 230.526C287.018 229.268 287.447 228.051 288.232 227.083H302.528Z" fill="white"/>
<path opacity="0.2" d="M300.192 222.234C300.718 222.927 301.003 223.781 301.003 224.659C301.003 225.537 300.718 226.39 300.192 227.084H290.698C290.176 226.388 289.893 225.536 289.893 224.659C289.893 223.782 290.176 222.929 290.698 222.234H300.192Z" fill="white"/>
</svg>
