<svg width="145" height="144" viewBox="0 0 145 144" fill="none" xmlns="http://www.w3.org/2000/svg">
<g filter="url(#filter0_d_486_9880)">
<path d="M97.1055 35.625H88.9805V32.5C88.9805 32.0027 88.7829 31.5258 88.4313 31.1742C88.0797 30.8225 87.6027 30.625 87.1055 30.625C86.6082 30.625 86.1313 30.8225 85.7796 31.1742C85.428 31.5258 85.2305 32.0027 85.2305 32.5V35.625H58.9805V32.5C58.9805 32.0027 58.7829 31.5258 58.4313 31.1742C58.0797 30.8225 57.6027 30.625 57.1055 30.625C56.6082 30.625 56.1313 30.8225 55.7796 31.1742C55.428 31.5258 55.2305 32.0027 55.2305 32.5V35.625H47.1055C45.9451 35.625 44.8323 36.0859 44.0119 36.9064C43.1914 37.7269 42.7305 38.8397 42.7305 40V90C42.7305 91.1603 43.1914 92.2731 44.0119 93.0936C44.8323 93.9141 45.9451 94.375 47.1055 94.375H97.1055C98.2658 94.375 99.3786 93.9141 100.199 93.0936C101.02 92.2731 101.48 91.1603 101.48 90V40C101.48 38.8397 101.02 37.7269 100.199 36.9064C99.3786 36.0859 98.2658 35.625 97.1055 35.625ZM47.1055 39.375H55.2305V42.5C55.2305 42.9973 55.428 43.4742 55.7796 43.8258C56.1313 44.1775 56.6082 44.375 57.1055 44.375C57.6027 44.375 58.0797 44.1775 58.4313 43.8258C58.7829 43.4742 58.9805 42.9973 58.9805 42.5V39.375H85.2305V42.5C85.2305 42.9973 85.428 43.4742 85.7796 43.8258C86.1313 44.1775 86.6082 44.375 87.1055 44.375C87.6027 44.375 88.0797 44.1775 88.4313 43.8258C88.7829 43.4742 88.9805 42.9973 88.9805 42.5V39.375H97.1055C97.2712 39.375 97.4302 39.4408 97.5474 39.5581C97.6646 39.6753 97.7305 39.8342 97.7305 40V50.625H46.4805V40C46.4805 39.8342 46.5463 39.6753 46.6635 39.5581C46.7807 39.4408 46.9397 39.375 47.1055 39.375ZM97.1055 90.625H47.1055C46.9397 90.625 46.7807 90.5592 46.6635 90.4419C46.5463 90.3247 46.4805 90.1658 46.4805 90V54.375H97.7305V90C97.7305 90.1658 97.6646 90.3247 97.5474 90.4419C97.4302 90.5592 97.2712 90.625 97.1055 90.625ZM84.7305 63.7188C85.0637 64.0866 85.2404 64.5699 85.2229 65.0659C85.2054 65.5619 84.9951 66.0316 84.6367 66.375L70.043 80.125C69.8732 80.2891 69.6725 80.4178 69.4525 80.5036C69.2326 80.5895 68.9978 80.6307 68.7617 80.625C68.289 80.615 67.835 80.4379 67.4805 80.125L59.5742 72.625C59.2095 72.2852 58.9948 71.8144 58.9772 71.3163C58.9596 70.8181 59.1407 70.3334 59.4805 69.9687C59.8203 69.6041 60.291 69.3893 60.7892 69.3717C61.2873 69.3542 61.772 69.5352 62.1367 69.875L68.7617 76.1562L82.0742 63.625C82.442 63.2917 82.9253 63.1151 83.4214 63.1326C83.9174 63.1501 84.3871 63.3604 84.7305 63.7188V63.7188Z" fill="#64387E"/>
<rect x="22.6055" y="15.5" width="99" height="99" rx="4.5" stroke="#794B93" shape-rendering="crispEdges"/>
</g>
<defs>
<filter id="filter0_d_486_9880" x="0.105469" y="0" width="144" height="144" filterUnits="userSpaceOnUse" color-interpolation-filters="sRGB">
<feFlood flood-opacity="0" result="BackgroundImageFix"/>
<feColorMatrix in="SourceAlpha" type="matrix" values="0 0 0 0 0 0 0 0 0 0 0 0 0 0 0 0 0 0 127 0" result="hardAlpha"/>
<feOffset dy="7"/>
<feGaussianBlur stdDeviation="11"/>
<feComposite in2="hardAlpha" operator="out"/>
<feColorMatrix type="matrix" values="0 0 0 0 0 0 0 0 0 0 0 0 0 0 0 0 0 0 0.25 0"/>
<feBlend mode="normal" in2="BackgroundImageFix" result="effect1_dropShadow_486_9880"/>
<feBlend mode="normal" in="SourceGraphic" in2="effect1_dropShadow_486_9880" result="shape"/>
</filter>
</defs>
</svg>
