<svg width="145" height="144" viewBox="0 0 145 144" fill="none" xmlns="http://www.w3.org/2000/svg">
<g filter="url(#filter0_d_486_10496)">
<path d="M69.6055 35V65H74.6055V35H69.6055ZM62.1055 36.72C50.4705 40.845 42.1055 51.97 42.1055 65C42.1055 81.5425 55.563 95 72.1055 95C88.648 95 102.105 81.5425 102.105 65C102.105 51.9675 93.7405 40.845 82.1055 36.7175V42.11C90.9205 45.975 97.1055 54.775 97.1055 65C97.1055 78.785 85.8905 90 72.1055 90C58.3205 90 47.1055 78.785 47.1055 65C47.1055 54.775 53.2905 45.975 62.1055 42.11V36.7175V36.72Z" fill="#64387E"/>
<rect x="22.6055" y="15.5" width="99" height="99" rx="4.5" stroke="#794B93" shape-rendering="crispEdges"/>
</g>
<defs>
<filter id="filter0_d_486_10496" x="0.105469" y="0" width="144" height="144" filterUnits="userSpaceOnUse" color-interpolation-filters="sRGB">
<feFlood flood-opacity="0" result="BackgroundImageFix"/>
<feColorMatrix in="SourceAlpha" type="matrix" values="0 0 0 0 0 0 0 0 0 0 0 0 0 0 0 0 0 0 127 0" result="hardAlpha"/>
<feOffset dy="7"/>
<feGaussianBlur stdDeviation="11"/>
<feComposite in2="hardAlpha" operator="out"/>
<feColorMatrix type="matrix" values="0 0 0 0 0 0 0 0 0 0 0 0 0 0 0 0 0 0 0.25 0"/>
<feBlend mode="normal" in2="BackgroundImageFix" result="effect1_dropShadow_486_10496"/>
<feBlend mode="normal" in="SourceGraphic" in2="effect1_dropShadow_486_10496" result="shape"/>
</filter>
</defs>
</svg>
