<svg width="19" height="18" viewBox="0 0 19 18" fill="none" xmlns="http://www.w3.org/2000/svg">
<path fill-rule="evenodd" clip-rule="evenodd" d="M2.74679 6.5H2.16669H1.16669C0.890545 6.5 0.66434 6.72435 0.6894 6.99935C0.805645 8.27495 1.36453 9.476 2.27762 10.3891C2.94719 11.0587 3.77158 11.5378 4.66669 11.7915V13C4.66669 13.6532 5.08419 14.2088 5.66689 14.4147C5.68819 16.3984 7.30294 18 9.29169 18C11.2937 18 12.9167 16.3771 12.9167 14.375V12.375C12.9167 11.3394 13.7561 10.5 14.7917 10.5C15.8272 10.5 16.6667 11.3394 16.6667 12.375V13.5854C16.0841 13.7913 15.6667 14.3469 15.6667 15C15.6667 15.8285 16.3382 16.5 17.1667 16.5C17.9951 16.5 18.6667 15.8285 18.6667 15C18.6667 14.3469 18.2493 13.7913 17.6667 13.5854V12.375C17.6667 10.7872 16.3795 9.5 14.7917 9.5C13.2039 9.5 11.9167 10.7872 11.9167 12.375V14.375C11.9167 15.8247 10.7414 17 9.29169 17C7.85513 17 6.68814 15.8461 6.66699 14.4146C7.24944 14.2086 7.66669 13.653 7.66669 13V11.7915C8.56179 11.5378 9.38624 11.0587 10.0558 10.3891C10.9689 9.476 11.5277 8.27495 11.644 6.99935C11.6691 6.72435 11.4428 6.5 11.1667 6.5V2C11.1667 1.17158 10.4951 0.5 9.66669 0.5H9.53289C9.35999 0.2011 9.03683 0 8.66669 0C8.11439 0 7.66669 0.447715 7.66669 1C7.66669 1.55228 8.11439 2 8.66669 2C9.03683 2 9.35999 1.7989 9.53289 1.5H9.66669C9.94283 1.5 10.1667 1.72386 10.1667 2V6.5H9.58663C9.31048 6.5 9.09098 6.72545 9.04393 6.9976C8.94193 7.5873 8.66028 8.13585 8.23139 8.5647C7.68384 9.1123 6.94113 9.41995 6.16669 9.41995C5.39229 9.41995 4.64959 9.1123 4.10198 8.5647C3.67314 8.13585 3.39143 7.5873 3.28943 6.9976C3.24238 6.72545 3.02289 6.5 2.74679 6.5ZM9.95693 7.5H10.5542C10.3673 8.3198 9.95273 9.07795 9.34869 9.682C8.50479 10.5259 7.36019 11 6.16669 11C4.97324 11 3.82863 10.5259 2.98474 9.682C2.38067 9.07795 1.96607 8.3198 1.7792 7.5H2.37645C2.55181 8.16455 2.90049 8.7774 3.39489 9.2718C4.13003 10.007 5.12709 10.4199 6.16669 10.4199C7.20634 10.4199 8.20338 10.007 8.93853 9.2718C9.43293 8.7774 9.78158 8.16455 9.95693 7.5ZM17.1667 14.5C17.4428 14.5 17.6667 14.7239 17.6667 15C17.6667 15.2761 17.4428 15.5 17.1667 15.5C16.8905 15.5 16.6667 15.2761 16.6667 15C16.6667 14.7239 16.8905 14.5 17.1667 14.5ZM6.66669 12V13C6.66669 13.2761 6.44283 13.5 6.16669 13.5C5.89054 13.5 5.66669 13.2761 5.66669 13V12H6.66669Z" fill="#868686"/>
</svg>
