<svg width="145" height="144" viewBox="0 0 145 144" fill="none" xmlns="http://www.w3.org/2000/svg">
<g filter="url(#filter0_d_486_9883)">
<path d="M52.1056 41.6667C53.9466 41.6667 55.4389 40.1743 55.4389 38.3333C55.4389 36.4924 53.9466 35 52.1056 35C50.8717 35 49.7946 35.6703 49.2182 36.6667H48.7722C46.0108 36.6667 43.7722 38.9052 43.7722 41.6667V56.6667H47.1056V41.6667C47.1056 40.7462 47.8518 40 48.7722 40H49.2182C49.7946 40.9963 50.8717 41.6667 52.1056 41.6667Z" fill="#794B93"/>
<path fill-rule="evenodd" clip-rule="evenodd" d="M49.0391 56.6667H47.1054H43.7721C42.8516 56.6667 42.0976 57.4145 42.1811 58.3312C42.5686 62.5832 44.4316 66.5867 47.4752 69.6303C49.7071 71.8622 52.4551 73.4592 55.4388 74.305V78.3333C55.4388 80.5107 56.8304 82.3628 58.7728 83.049C58.8438 89.6615 64.2263 95 70.8554 95C77.5289 95 82.9388 89.5902 82.9388 82.9167V76.25C82.9388 72.7982 85.7369 70 89.1888 70C92.6406 70 95.4388 72.7982 95.4388 76.25V80.2845C93.4968 80.9708 92.1054 82.823 92.1054 85C92.1054 87.7615 94.3439 90 97.1054 90C99.8669 90 102.105 87.7615 102.105 85C102.105 82.823 100.714 80.9708 98.7721 80.2845V76.25C98.7721 70.9573 94.4814 66.6667 89.1888 66.6667C83.8961 66.6667 79.6054 70.9573 79.6054 76.25V82.9167C79.6054 87.7492 75.6879 91.6667 70.8554 91.6667C66.0669 91.6667 62.1769 87.8202 62.1064 83.0485C64.0479 82.3618 65.4388 80.51 65.4388 78.3333V74.305C68.4224 73.4592 71.1706 71.8622 73.4024 69.6303C76.4461 66.5867 78.3089 62.5832 78.6964 58.3312C78.7801 57.4145 78.0259 56.6667 77.1054 56.6667V41.6667C77.1054 38.9052 74.8669 36.6667 72.1054 36.6667H71.6594C71.0831 35.6703 70.0059 35 68.7721 35C66.9311 35 65.4388 36.4924 65.4388 38.3333C65.4388 40.1743 66.9311 41.6667 68.7721 41.6667C70.0059 41.6667 71.0831 40.9963 71.6594 40H72.1054C73.0259 40 73.7721 40.7462 73.7721 41.6667V56.6667H71.8386C70.9181 56.6667 70.1864 57.4182 70.0296 58.3253C69.6896 60.291 68.7508 62.1195 67.3211 63.549C65.4959 65.3743 63.0203 66.3998 60.4388 66.3998C57.8574 66.3998 55.3818 65.3743 53.5564 63.549C52.1269 62.1195 51.1879 60.291 50.8479 58.3253C50.6911 57.4182 49.9594 56.6667 49.0391 56.6667ZM73.0729 60H75.0638C74.4409 62.7327 73.0589 65.2598 71.0454 67.2733C68.2324 70.0863 64.4171 71.6667 60.4388 71.6667C56.4606 71.6667 52.6453 70.0863 49.8323 67.2733C47.8187 65.2598 46.4367 62.7327 45.8138 60H47.8046C48.3892 62.2152 49.5514 64.258 51.1994 65.906C53.6499 68.3565 56.9734 69.7332 60.4388 69.7332C63.9043 69.7332 67.2278 68.3565 69.6783 65.906C71.3263 64.258 72.4884 62.2152 73.0729 60ZM97.1054 83.3333C98.0259 83.3333 98.7721 84.0795 98.7721 85C98.7721 85.9205 98.0259 86.6667 97.1054 86.6667C96.1849 86.6667 95.4388 85.9205 95.4388 85C95.4388 84.0795 96.1849 83.3333 97.1054 83.3333ZM62.1054 75V78.3333C62.1054 79.2538 61.3593 80 60.4388 80C59.5183 80 58.7721 79.2538 58.7721 78.3333V75H62.1054Z" fill="#794B93"/>
<rect x="22.6055" y="15.5" width="99" height="99" rx="4.5" stroke="#794B93" shape-rendering="crispEdges"/>
</g>
<defs>
<filter id="filter0_d_486_9883" x="0.105469" y="0" width="144" height="144" filterUnits="userSpaceOnUse" color-interpolation-filters="sRGB">
<feFlood flood-opacity="0" result="BackgroundImageFix"/>
<feColorMatrix in="SourceAlpha" type="matrix" values="0 0 0 0 0 0 0 0 0 0 0 0 0 0 0 0 0 0 127 0" result="hardAlpha"/>
<feOffset dy="7"/>
<feGaussianBlur stdDeviation="11"/>
<feComposite in2="hardAlpha" operator="out"/>
<feColorMatrix type="matrix" values="0 0 0 0 0 0 0 0 0 0 0 0 0 0 0 0 0 0 0.25 0"/>
<feBlend mode="normal" in2="BackgroundImageFix" result="effect1_dropShadow_486_9883"/>
<feBlend mode="normal" in="SourceGraphic" in2="effect1_dropShadow_486_9883" result="shape"/>
</filter>
</defs>
</svg>
