<svg width="145" height="144" viewBox="0 0 145 144" fill="none" xmlns="http://www.w3.org/2000/svg">
<g filter="url(#filter0_d_486_9861)">
<path d="M52.1055 73.3334C51.185 73.3334 50.4388 74.0795 50.4388 75C50.4388 75.9205 51.185 76.6667 52.1055 76.6667H75.4388C76.3593 76.6667 77.1055 75.9205 77.1055 75C77.1055 74.0795 76.3593 73.3334 75.4388 73.3334H52.1055Z" fill="#8E5FA8"/>
<path d="M50.4388 83.3333C50.4388 82.4128 51.185 81.6666 52.1055 81.6666H65.4388C66.3593 81.6666 67.1055 82.4128 67.1055 83.3333C67.1055 84.2538 66.3593 85 65.4388 85H52.1055C51.185 85 50.4388 84.2538 50.4388 83.3333Z" fill="#8E5FA8"/>
<path fill-rule="evenodd" clip-rule="evenodd" d="M52.1055 40C52.1055 37.2386 54.344 35 57.1055 35H70.4388C73.2003 35 75.4388 37.2386 75.4388 40H80.4388C83.2003 40 85.4388 42.2385 85.4388 45V90C85.4388 92.7615 83.2003 95 80.4388 95H47.1055C44.3441 95 42.1055 92.7615 42.1055 90V45C42.1055 42.2385 44.3441 40 47.1055 40H52.1055ZM45.4388 63.3333H55.7243L58.174 59.223L61.199 70.3253L67.9215 61.6667H75.0521C75.9726 61.6667 76.7188 60.9203 76.7188 60C76.7188 59.0795 75.9726 58.3333 75.0521 58.3333H66.2895L62.6601 63.0078L59.3276 50.7768L53.8305 60H45.4388V45C45.4388 44.0795 46.185 43.3333 47.1055 43.3333H52.1055C52.1055 46.0948 54.344 48.3333 57.1055 48.3333H70.4388C73.2003 48.3333 75.4388 46.0948 75.4388 43.3333H80.4388C81.3593 43.3333 82.1055 44.0795 82.1055 45V90C82.1055 90.9205 81.3593 91.6667 80.4388 91.6667H47.1055C46.185 91.6667 45.4388 90.9205 45.4388 90V63.3333ZM72.1055 40V43.3333C72.1055 44.2538 71.3593 45 70.4388 45H57.1055C56.185 45 55.4388 44.2538 55.4388 43.3333V40C55.4388 39.0795 56.185 38.3333 57.1055 38.3333H70.4388C71.3593 38.3333 72.1055 39.0795 72.1055 40Z" fill="#8E5FA8"/>
<path fill-rule="evenodd" clip-rule="evenodd" d="M97.1055 48.3334C94.344 48.3334 92.1055 50.5719 92.1055 53.3334V87.1714L97.1055 94.6714L102.105 87.1714V53.3334C102.105 50.5719 99.867 48.3334 97.1055 48.3334ZM95.4388 53.3334C95.4388 52.4129 96.185 51.6667 97.1055 51.6667C98.026 51.6667 98.7721 52.4129 98.7721 53.3334V56.6667H95.4388V53.3334ZM95.4388 86.162V60H98.7721V86.162L97.1055 88.662L95.4388 86.162Z" fill="#8E5FA8"/>
<rect x="22.6055" y="15.5" width="99" height="99" rx="4.5" stroke="#8E5FA8" shape-rendering="crispEdges"/>
</g>
<defs>
<filter id="filter0_d_486_9861" x="0.105469" y="0" width="144" height="144" filterUnits="userSpaceOnUse" color-interpolation-filters="sRGB">
<feFlood flood-opacity="0" result="BackgroundImageFix"/>
<feColorMatrix in="SourceAlpha" type="matrix" values="0 0 0 0 0 0 0 0 0 0 0 0 0 0 0 0 0 0 127 0" result="hardAlpha"/>
<feOffset dy="7"/>
<feGaussianBlur stdDeviation="11"/>
<feComposite in2="hardAlpha" operator="out"/>
<feColorMatrix type="matrix" values="0 0 0 0 0 0 0 0 0 0 0 0 0 0 0 0 0 0 0.25 0"/>
<feBlend mode="normal" in2="BackgroundImageFix" result="effect1_dropShadow_486_9861"/>
<feBlend mode="normal" in="SourceGraphic" in2="effect1_dropShadow_486_9861" result="shape"/>
</filter>
</defs>
</svg>
