<svg width="25" height="24" viewBox="0 0 25 24" fill="none" xmlns="http://www.w3.org/2000/svg">
<path d="M6.33334 14.5C6.05719 14.5 5.83334 14.7239 5.83334 15C5.83334 15.2761 6.05719 15.5 6.33334 15.5H13.3333C13.6095 15.5 13.8333 15.2761 13.8333 15C13.8333 14.7239 13.6095 14.5 13.3333 14.5H6.33334Z" fill="#868686"/>
<path d="M5.83334 17.5C5.83334 17.2239 6.05719 17 6.33334 17H10.3333C10.6095 17 10.8333 17.2239 10.8333 17.5C10.8333 17.7761 10.6095 18 10.3333 18H6.33334C6.05719 18 5.83334 17.7761 5.83334 17.5Z" fill="#868686"/>
<path fill-rule="evenodd" clip-rule="evenodd" d="M6.33334 4.5C6.33334 3.67158 7.00489 3 7.83334 3H11.8333C12.6618 3 13.3333 3.67158 13.3333 4.5H14.8333C15.6618 4.5 16.3333 5.17155 16.3333 6V19.5C16.3333 20.3284 15.6618 21 14.8333 21H4.83334C4.00492 21 3.33334 20.3284 3.33334 19.5V6C3.33334 5.17155 4.00492 4.5 4.83334 4.5H6.33334ZM4.33334 11.5H7.41899L8.15389 10.2669L9.06139 13.5976L11.0781 11H13.2173C13.4935 11 13.7173 10.7761 13.7173 10.5C13.7173 10.2239 13.4935 10 13.2173 10H10.5885L9.49974 11.4024L8.49999 7.73305L6.85084 10.5H4.33334V6C4.33334 5.72385 4.5572 5.5 4.83334 5.5H6.33334C6.33334 6.32845 7.00489 7 7.83334 7H11.8333C12.6618 7 13.3333 6.32845 13.3333 5.5H14.8333C15.1095 5.5 15.3333 5.72385 15.3333 6V19.5C15.3333 19.7761 15.1095 20 14.8333 20H4.83334C4.5572 20 4.33334 19.7761 4.33334 19.5V11.5ZM12.3333 4.5V5.5C12.3333 5.77615 12.1095 6 11.8333 6H7.83334C7.55719 6 7.33334 5.77615 7.33334 5.5V4.5C7.33334 4.22386 7.55719 4 7.83334 4H11.8333C12.1095 4 12.3333 4.22386 12.3333 4.5Z" fill="#868686"/>
<path fill-rule="evenodd" clip-rule="evenodd" d="M19.8333 7C19.0049 7 18.3333 7.67155 18.3333 8.5V18.6514L19.8333 20.9014L21.3333 18.6514V8.5C21.3333 7.67155 20.6618 7 19.8333 7ZM19.3333 8.5C19.3333 8.22385 19.5572 8 19.8333 8C20.1095 8 20.3333 8.22385 20.3333 8.5V9.5H19.3333V8.5ZM19.3333 18.3486V10.5H20.3333V18.3486L19.8333 19.0986L19.3333 18.3486Z" fill="#868686"/>
</svg>
