<svg width="145" height="144" viewBox="0 0 145 144" fill="none" xmlns="http://www.w3.org/2000/svg">
<g filter="url(#filter0_d_486_9871)">
<path fill-rule="evenodd" clip-rule="evenodd" d="M53.7722 40C52.8517 40 52.1056 40.7462 52.1056 41.6666V93.3333C52.1056 94.2538 52.8517 95 53.7722 95H90.4389C91.3594 95 92.1056 94.2538 92.1056 93.3333V41.6666C92.1056 40.7462 91.3594 40 90.4389 40H81.1334V36.6666H90.4389C93.2004 36.6666 95.4389 38.9052 95.4389 41.6666V93.3333C95.4389 96.0948 93.2004 98.3333 90.4389 98.3333H53.7722C51.0107 98.3333 48.7722 96.0948 48.7722 93.3333V41.6666C48.7722 38.9052 51.0107 36.6666 53.7722 36.6666H63.0777V40H53.7722Z" fill="#794B93"/>
<path fill-rule="evenodd" clip-rule="evenodd" d="M60.4387 36.6666C60.4387 33.9052 62.6772 31.6666 65.4387 31.6666H78.7721C81.5336 31.6666 83.7721 33.9052 83.7721 36.6666V40C83.7721 42.7615 81.5336 45 78.7721 45H65.4387C62.6772 45 60.4387 42.7615 60.4387 40V36.6666ZM65.4387 35C64.5182 35 63.7721 35.7462 63.7721 36.6666V40C63.7721 40.9204 64.5182 41.6666 65.4387 41.6666H78.7721C79.6926 41.6666 80.4387 40.9204 80.4387 40V36.6666C80.4387 35.7462 79.6926 35 78.7721 35H65.4387Z" fill="#794B93"/>
<path fill-rule="evenodd" clip-rule="evenodd" d="M57.1055 60C57.1055 59.0795 57.8516 58.3334 58.7721 58.3334H70.4388C71.3593 58.3334 72.1055 59.0795 72.1055 60C72.1055 60.9205 71.3593 61.6667 70.4388 61.6667H58.7721C57.8516 61.6667 57.1055 60.9205 57.1055 60Z" fill="#794B93"/>
<path fill-rule="evenodd" clip-rule="evenodd" d="M57.1055 51.6667C57.1055 50.7462 57.8516 50 58.7721 50H84.6055C85.526 50 86.2721 50.7462 86.2721 51.6667C86.2721 52.5872 85.526 53.3333 84.6055 53.3333H58.7721C57.8516 53.3333 57.1055 52.5872 57.1055 51.6667Z" fill="#794B93"/>
<path fill-rule="evenodd" clip-rule="evenodd" d="M60.4388 73.3333V76.6667H63.7721V73.3333H60.4388ZM58.7721 70C57.8516 70 57.1055 70.7462 57.1055 71.6667V78.3333C57.1055 79.2538 57.8516 80 58.7721 80H65.4388C66.3593 80 67.1055 79.2538 67.1055 78.3333V71.6667C67.1055 70.7462 66.3593 70 65.4388 70H58.7721Z" fill="#794B93"/>
<path fill-rule="evenodd" clip-rule="evenodd" d="M78.7722 73.3333C79.6937 73.3333 80.4389 72.5881 80.4389 71.6666C80.4389 70.7451 79.6937 70 78.7722 70C77.8507 70 77.1056 70.7451 77.1056 71.6666C77.1056 72.5881 77.8507 73.3333 78.7722 73.3333ZM78.7722 76.6666C81.5347 76.6666 83.7722 74.4291 83.7722 71.6666C83.7722 68.9041 81.5347 66.6666 78.7722 66.6666C76.0097 66.6666 73.7722 68.9041 73.7722 71.6666C73.7722 74.4291 76.0097 76.6666 78.7722 76.6666Z" fill="#794B93"/>
<path fill-rule="evenodd" clip-rule="evenodd" d="M72.1056 83.7989C72.1267 83.7742 72.1564 83.7419 72.197 83.702C72.4699 83.435 72.9977 83.0814 73.8242 82.7304C75.4907 82.0222 77.5469 81.6667 78.7722 81.6667C79.9975 81.6667 82.0537 82.0222 83.7202 82.7304C84.5467 83.0814 85.0746 83.435 85.3474 83.702C85.3881 83.7419 85.4177 83.7742 85.4389 83.7989V86.6667H72.1056V83.7989ZM78.7722 78.3334C75.4347 78.3334 68.7722 80.1099 68.7722 83.6364V90H88.7722V83.6364C88.7722 80.1099 82.1097 78.3334 78.7722 78.3334Z" fill="#794B93"/>
<rect x="22.6055" y="15.5" width="99" height="99" rx="4.5" stroke="#794B93" shape-rendering="crispEdges"/>
</g>
<defs>
<filter id="filter0_d_486_9871" x="0.105469" y="0" width="144" height="144" filterUnits="userSpaceOnUse" color-interpolation-filters="sRGB">
<feFlood flood-opacity="0" result="BackgroundImageFix"/>
<feColorMatrix in="SourceAlpha" type="matrix" values="0 0 0 0 0 0 0 0 0 0 0 0 0 0 0 0 0 0 127 0" result="hardAlpha"/>
<feOffset dy="7"/>
<feGaussianBlur stdDeviation="11"/>
<feComposite in2="hardAlpha" operator="out"/>
<feColorMatrix type="matrix" values="0 0 0 0 0 0 0 0 0 0 0 0 0 0 0 0 0 0 0.25 0"/>
<feBlend mode="normal" in2="BackgroundImageFix" result="effect1_dropShadow_486_9871"/>
<feBlend mode="normal" in="SourceGraphic" in2="effect1_dropShadow_486_9871" result="shape"/>
</filter>
</defs>
</svg>
